<svg width="450" height="389" viewBox="0 0 450 389" fill="none" xmlns="http://www.w3.org/2000/svg">
<g clip-path="url(#clip0_307_5504)">
<path d="M296.037 0H165.275C144.937 0 128.45 17.1519 128.45 38.3099V349.171C128.45 370.329 144.937 387.481 165.275 387.481H296.037C316.375 387.481 332.862 370.329 332.862 349.171V38.3099C332.862 17.1519 316.375 0 296.037 0Z" fill="#3F3D56"/>
<path d="M330.514 34.7232V345.582C330.504 354.788 326.984 363.614 320.727 370.123C314.47 376.633 305.986 380.294 297.137 380.305H166.377C157.528 380.294 149.044 376.633 142.787 370.123C136.53 363.614 133.01 354.788 133 345.582V34.7232C133.01 25.5173 136.53 16.6915 142.787 10.182C149.044 3.67242 157.528 0.0106574 166.377 0H183.476V6.1449C183.476 8.92681 184.538 11.5947 186.429 13.5618C188.32 15.5289 190.884 16.6341 193.558 16.6343H269.956C272.63 16.6341 275.194 15.5289 277.085 13.5618C278.976 11.5947 280.038 8.92681 280.038 6.1449V0H297.137C305.986 0.0106591 314.47 3.67242 320.727 10.182C326.984 16.6915 330.504 25.5173 330.514 34.7232Z" fill="white"/>
<path d="M127.509 78.605C126.844 78.6042 126.207 78.3291 125.736 77.8399C125.266 77.3507 125.002 76.6875 125.001 75.9957V70.7771C125.001 70.0851 125.265 69.4214 125.736 68.9321C126.206 68.4428 126.844 68.1678 127.509 68.1678C128.174 68.1678 128.812 68.4428 129.283 68.9321C129.753 69.4214 130.017 70.0851 130.017 70.7771V75.9957C130.016 76.6875 129.752 77.3507 129.282 77.8399C128.812 78.3291 128.174 78.6042 127.509 78.605Z" fill="#3F3D56"/>
<path d="M127.509 105.364C126.844 105.364 126.207 105.088 125.736 104.599C125.266 104.11 125.002 103.447 125.001 102.755V88.3899C125.001 87.6979 125.265 87.0342 125.736 86.5449C126.206 86.0555 126.844 85.7806 127.509 85.7806C128.174 85.7806 128.812 86.0555 129.283 86.5449C129.753 87.0342 130.017 87.6979 130.017 88.3899V102.755C130.016 103.447 129.752 104.11 129.282 104.599C128.812 105.088 128.174 105.364 127.509 105.364Z" fill="#3F3D56"/>
<path d="M127.509 126.877C126.844 126.876 126.207 126.601 125.736 126.112C125.266 125.623 125.002 124.96 125.001 124.268V109.903C125.001 109.211 125.265 108.547 125.736 108.058C126.206 107.568 126.844 107.293 127.509 107.293C128.174 107.293 128.812 107.568 129.283 108.058C129.753 108.547 130.017 109.211 130.017 109.903V124.268C130.016 124.96 129.752 125.623 129.282 126.112C128.812 126.601 128.174 126.876 127.509 126.877Z" fill="#3F3D56"/>
<path d="M333.175 115.135C332.51 115.134 331.873 114.859 331.402 114.37C330.932 113.881 330.668 113.218 330.667 112.526V77.4743C330.667 76.7823 330.931 76.1186 331.402 75.6292C331.872 75.1399 332.51 74.865 333.175 74.865C333.84 74.865 334.478 75.1399 334.949 75.6292C335.419 76.1186 335.683 76.7823 335.683 77.4743V112.526C335.682 113.218 335.418 113.881 334.948 114.37C334.478 114.859 333.84 115.134 333.175 115.135Z" fill="#3F3D56"/>
<path d="M236.044 11.9674H216.606C216.19 11.9674 215.791 11.7956 215.497 11.4898C215.203 11.1839 215.038 10.7691 215.038 10.3366C215.038 9.9041 215.203 9.4893 215.497 9.18347C215.791 8.87763 216.19 8.70581 216.606 8.70581H236.044C236.459 8.70581 236.858 8.87763 237.152 9.18347C237.446 9.4893 237.611 9.9041 237.611 10.3366C237.611 10.7691 237.446 11.1839 237.152 11.4898C236.858 11.7956 236.459 11.9674 236.044 11.9674Z" fill="white"/>
<path d="M246.076 11.6413C246.769 11.6413 247.33 11.0572 247.33 10.3366C247.33 9.61609 246.769 9.03198 246.076 9.03198C245.384 9.03198 244.822 9.61609 244.822 10.3366C244.822 11.0572 245.384 11.6413 246.076 11.6413Z" fill="white"/>
<path d="M396.754 371.184C397.212 371.201 397.664 371.072 398.049 370.813C398.434 370.554 398.733 370.178 398.905 369.737C399.078 369.295 399.116 368.809 399.014 368.345C398.913 367.88 398.676 367.459 398.337 367.138C398.278 366.906 398.236 366.739 398.178 366.507C398.605 365.345 399.357 364.342 400.335 363.627C401.314 362.912 402.476 362.518 403.671 362.494C404.867 362.471 406.042 362.819 407.046 363.495C408.05 364.171 408.837 365.143 409.307 366.287C412.014 372.71 415.503 379.352 413.863 386.472C424.895 361.535 420.783 330.693 403.95 309.628C399.326 307.038 395.555 302.392 394.535 296.964C396.819 297.743 399.639 295.789 397.905 293.312C397.154 292.366 396.397 291.427 395.646 290.481C404.205 280.815 414.645 295.77 405.246 308.794C408.397 312.825 411.134 317.186 413.413 321.809C412.851 316.882 413.422 311.887 415.078 307.235C416.76 302.898 419.953 299.227 422.76 295.464C426.173 290.879 433.302 292.908 433.82 298.679C430.642 299.8 430.271 304.596 433.924 305.215C433.067 315.968 426.411 325.907 417.163 330.711C420.686 340.693 422.123 351.342 421.379 361.948C422.906 349.546 435.658 346.414 444.544 341.403C445.109 341.018 445.77 340.813 446.445 340.812C447.121 340.811 447.782 341.014 448.348 341.397C448.914 341.78 449.361 342.327 449.634 342.969C449.906 343.612 449.994 344.324 449.884 345.017C448.656 345.551 447.482 346.21 446.38 346.985C445.863 347.354 445.468 347.88 445.25 348.491C445.033 349.102 445.002 349.769 445.162 350.399C445.322 351.029 445.666 351.592 446.146 352.011C446.626 352.43 447.219 352.685 447.843 352.739C443.447 364.376 431.878 372.276 419.923 372.351C418.821 377.556 417.203 382.628 415.094 387.485L397.35 387.661C397.284 387.457 397.225 387.245 397.166 387.041C398.809 387.132 400.457 387.013 402.073 386.688C397.679 381.379 394.294 378.681 396.754 371.184Z" fill="#F2F2F2"/>
<path d="M53.2959 371.184C52.8381 371.201 52.3861 371.072 52.0013 370.813C51.6165 370.554 51.3175 370.178 51.1448 369.737C50.9721 369.295 50.934 368.809 51.0357 368.345C51.1374 367.88 51.374 367.459 51.7134 367.138C51.7718 366.906 51.8138 366.739 51.8723 366.507C51.4449 365.345 50.6936 364.342 49.7149 363.627C48.7362 362.912 47.5746 362.518 46.3789 362.494C45.1833 362.471 44.0081 362.819 43.0041 363.495C42 364.171 41.2128 365.143 40.7434 366.287C38.0361 372.71 34.5475 379.352 36.187 386.472C25.1551 361.535 29.2667 330.693 46.1005 309.628C50.724 307.038 54.4948 302.392 55.515 296.964C53.2314 297.743 50.411 295.789 52.1453 293.312C52.8959 292.366 53.6536 291.427 54.4041 290.481C45.8451 280.815 35.4048 295.77 44.804 308.794C41.6534 312.825 38.9164 317.186 36.6376 321.809C37.1992 316.882 36.6284 311.887 34.9724 307.235C33.2906 302.898 30.0974 299.227 27.2903 295.464C23.8774 290.879 16.748 292.908 16.2303 298.679C19.4085 299.8 19.7789 304.596 16.126 305.215C16.9828 315.968 23.6388 325.907 32.8876 330.711C29.3645 340.693 27.927 351.342 28.6709 361.948C27.1441 349.546 14.3926 346.414 5.5057 341.403C4.94069 341.018 4.28021 340.813 3.60484 340.812C2.92947 340.811 2.26839 341.014 1.70226 341.397C1.13613 341.78 0.689419 342.327 0.416613 342.969C0.143806 343.612 0.0566988 344.324 0.16592 345.017C1.39394 345.551 2.56795 346.21 3.67069 346.985C4.18735 347.354 4.5817 347.88 4.79969 348.491C5.01769 349.102 5.04865 349.769 4.88833 350.399C4.72801 351.029 4.38426 351.592 3.9042 352.011C3.42415 352.43 2.83128 352.685 2.20686 352.739C6.60303 364.376 18.172 372.276 30.1276 372.351C31.2289 377.556 32.8472 382.628 34.9565 387.485L52.7005 387.661C52.766 387.457 52.8251 387.245 52.8843 387.041C51.2409 387.132 49.5929 387.013 47.9772 386.688C52.3716 381.379 55.7571 378.681 53.2965 371.184L53.2959 371.184Z" fill="#F2F2F2"/>
<path d="M174.904 18.965H157.974C157.143 18.965 156.345 18.6214 155.757 18.0097C155.169 17.398 154.839 16.5684 154.839 15.7034C154.839 14.8384 155.169 14.0087 155.757 13.3971C156.345 12.7854 157.143 12.4418 157.974 12.4418H174.904C175.735 12.4418 176.533 12.7854 177.121 13.3971C177.709 14.0087 178.039 14.8384 178.039 15.7034C178.039 16.5684 177.709 17.398 177.121 18.0097C176.533 18.6214 175.735 18.965 174.904 18.965Z" fill="#E6E6E6"/>
<path d="M285.888 18.6389C287.446 18.6389 288.71 17.3246 288.71 15.7034C288.71 14.0822 287.446 12.7679 285.888 12.7679C284.33 12.7679 283.066 14.0822 283.066 15.7034C283.066 17.3246 284.33 18.6389 285.888 18.6389Z" fill="#E6E6E6"/>
<path d="M294.666 18.6389C296.225 18.6389 297.488 17.3246 297.488 15.7034C297.488 14.0822 296.225 12.7679 294.666 12.7679C293.108 12.7679 291.845 14.0822 291.845 15.7034C291.845 17.3246 293.108 18.6389 294.666 18.6389Z" fill="#E6E6E6"/>
<path d="M303.445 18.6389C305.003 18.6389 306.266 17.3246 306.266 15.7034C306.266 14.0822 305.003 12.7679 303.445 12.7679C301.886 12.7679 300.623 14.0822 300.623 15.7034C300.623 17.3246 301.886 18.6389 303.445 18.6389Z" fill="#E6E6E6"/>
<path d="M284.222 65H177.778C175.716 65.003 173.739 65.8645 172.281 67.3957C170.823 68.9269 170.003 71.0027 170 73.1682V145.832C170.003 147.997 170.823 150.073 172.281 151.604C173.739 153.135 175.716 153.997 177.778 154H284.222C286.284 153.998 288.262 153.137 289.72 151.606C291.178 150.074 291.998 147.998 292 145.832V73.1682C291.998 71.0024 291.178 68.9259 289.72 67.3945C288.262 65.863 286.284 65.0019 284.222 65Z" fill="#4A6FEB"/>
<path d="M279 93.2219C263.723 113.891 246.864 133.852 228.511 153H202C219.365 136.813 236.742 120.625 254.133 104.438C259.122 99.7768 264.536 94.8939 272.019 93L279 93.2219Z" fill="#3F3D56"/>
<path d="M233 93.5896C231.105 95.4999 229.29 97.4871 227.581 99.5512C223.818 103.936 220.108 108.359 216.384 112.769C214.065 115.513 211.747 118.256 209.454 121C208.727 120.548 208.035 120.042 207.387 119.487C203.726 116.412 201.455 112.072 201.061 107.397C200.667 102.722 202.182 98.0831 205.28 94.4751C208.378 90.8671 212.814 88.5768 217.636 88.0949C222.458 87.6131 227.284 88.9781 231.079 91.8973C231.763 92.4134 232.405 92.9792 233 93.5896Z" fill="#FB8800"/>
<path d="M292 97.97V100.598L291.5 146.997L290 150.997L286 153.632H274.5C269.204 151.669 254.97 155.047 249.5 153.632C244.741 152.249 290.722 152.126 286 153.632C281.79 155.214 188.108 150.867 184.844 153.997C183.4 155.353 201.855 131.559 200.5 133C200.057 133.476 227.152 101.452 227.152 101.452C225.842 102.9 224.577 104.38 223.377 105.912C219.839 110.242 216.499 114.651 213 119C210.817 121.713 208.482 124.379 206.325 127.086C199.122 136.039 191.962 145.009 184.844 153.997C183.885 153.986 182.931 153.864 182 153.632C189.261 144.47 196.556 135.332 203.886 126.218C204.053 126.01 204.22 125.801 204.386 125.592C205.247 124.503 206.126 123.408 206.999 122.319C210.652 117.774 214.307 113.233 217.965 108.697C220.623 105.397 223.261 102.085 226.125 98.9546C226.298 98.7525 226.478 98.5569 226.664 98.3547C226.94 98.0548 227.216 97.7613 227.498 97.4548C233.719 90.9275 241.481 85.1565 250.777 85C256.247 84.9152 261.531 86.6759 266.615 88.5343C272.092 90.5493 277.549 92.5968 283.018 94.6313L292 97.97Z" fill="#3F3D56"/>
<path d="M294.192 311.062H167.12C165.198 311.06 163.351 310.264 161.985 308.844C160.619 307.422 159.847 305.491 159.845 303.473V285.657C159.847 283.639 160.619 281.708 161.985 280.287C163.35 278.866 165.197 278.071 167.12 278.069H294.192C296.114 278.071 297.961 278.866 299.327 280.287C300.693 281.708 301.465 283.639 301.467 285.657V303.473C301.465 305.491 300.693 307.422 299.327 308.844C297.961 310.264 296.114 311.06 294.192 311.062Z" fill="#F2F2F2" stroke="black"/>
<path d="M294.192 220.237H167.119C165.058 220.234 163.082 219.381 161.624 217.865C160.167 216.348 159.347 214.293 159.345 212.148V194.331C159.347 192.187 160.167 190.131 161.624 188.615C163.082 187.099 165.058 186.246 167.119 186.243H294.192C296.253 186.246 298.23 187.099 299.687 188.615C301.145 190.131 301.964 192.187 301.967 194.331V212.148C301.964 214.293 301.145 216.348 299.687 217.865C298.23 219.381 296.253 220.234 294.192 220.237Z" fill="#F2F2F2"/>
<path d="M294.192 265.899H167.119C165.058 265.897 163.082 265.044 161.624 263.527C160.167 262.011 159.347 259.955 159.345 257.811V239.994C159.347 237.85 160.167 235.794 161.624 234.278C163.082 232.761 165.058 231.908 167.119 231.906H294.192C296.253 231.908 298.23 232.761 299.687 234.278C301.145 235.794 301.964 237.85 301.967 239.994V257.811C301.964 259.955 301.145 262.011 299.687 263.527C298.23 265.044 296.253 265.897 294.192 265.899Z" fill="#F2F2F2"/>
<path d="M246.094 291.516H208.653C208.209 291.516 207.783 291.332 207.469 291.006C207.155 290.679 206.979 290.236 206.979 289.773C206.979 289.311 207.155 288.868 207.469 288.541C207.783 288.215 208.209 288.031 208.653 288.031H246.094C246.539 288.031 246.965 288.215 247.279 288.541C247.593 288.868 247.769 289.311 247.769 289.773C247.769 290.236 247.593 290.679 247.279 291.006C246.965 291.332 246.539 291.516 246.094 291.516Z" fill="#4A6FEB"/>
<path d="M282.105 301.099H208.234C207.79 301.099 207.364 300.916 207.05 300.589C206.736 300.262 206.56 299.819 206.56 299.357C206.56 298.895 206.736 298.452 207.05 298.125C207.364 297.798 207.79 297.615 208.234 297.615H282.105C282.549 297.615 282.975 297.798 283.289 298.125C283.603 298.452 283.779 298.895 283.779 299.357C283.779 299.819 283.603 300.262 283.289 300.589C282.975 300.916 282.549 301.099 282.105 301.099Z" fill="#4A6FEB"/>
<path d="M188.762 306.248C194.964 306.248 199.992 301.018 199.992 294.565C199.992 288.113 194.964 282.883 188.762 282.883C182.56 282.883 177.532 288.113 177.532 294.565C177.532 301.018 182.56 306.248 188.762 306.248Z" fill="#4A6FEB"/>
<path d="M186.26 310.346C185.114 309.789 183.804 309.719 182.609 310.151C181.414 310.583 180.429 311.483 179.862 312.66C179.751 312.901 179.658 313.151 179.587 313.408L162.676 314.459L160.17 323.574L183.186 319.528C184.232 319.756 185.322 319.616 186.285 319.132C187.248 318.647 188.029 317.845 188.507 316.849C188.774 316.28 188.931 315.662 188.968 315.03C189.005 314.398 188.922 313.765 188.724 313.166C188.526 312.568 188.217 312.016 187.814 311.541C187.411 311.067 186.922 310.68 186.375 310.402C186.337 310.383 186.298 310.364 186.26 310.346Z" fill="#FFB6B6"/>
<path d="M134.987 324.779C134.722 324.729 134.502 324.687 134.334 324.655L133.471 290.95L138.105 271.48C138.379 270.332 138.886 269.259 139.593 268.335C140.299 267.411 141.187 266.658 142.195 266.125C143.204 265.593 144.31 265.293 145.438 265.245C146.566 265.197 147.691 265.402 148.738 265.848L148.932 265.39L148.738 265.848C150.347 266.533 151.698 267.755 152.575 269.328C153.452 270.901 153.804 272.734 153.575 274.54L148.757 312.524L148.674 313.183L149.33 313.081L149.33 313.081L149.33 313.081L149.33 313.081L149.334 313.081L149.349 313.078L149.411 313.069C149.465 313.061 149.545 313.05 149.649 313.036C149.855 313.008 150.154 312.97 150.517 312.93C151.244 312.85 152.227 312.763 153.258 312.731C154.293 312.7 155.358 312.726 156.253 312.867C157.18 313.013 157.802 313.264 158.086 313.581C158.513 314.06 158.955 314.429 159.411 314.592C159.647 314.677 159.897 314.71 160.15 314.663C160.404 314.616 160.627 314.494 160.817 314.321C161.182 313.989 161.436 313.457 161.625 312.806C161.818 312.142 161.96 311.287 162.054 310.242C162.067 310.104 162.079 309.976 162.091 309.858C162.236 310.167 162.41 310.519 162.613 310.863C162.964 311.458 163.434 312.089 164.07 312.511L164.075 312.514C164.344 312.692 164.551 312.83 164.707 312.93C164.854 313.023 164.991 313.106 165.102 313.153C165.148 313.172 165.266 313.219 165.41 313.207C165.495 313.2 165.601 313.17 165.698 313.093C165.794 313.017 165.845 312.924 165.871 312.849C165.914 312.726 165.904 312.612 165.9 312.577L165.9 312.576C165.896 312.531 165.888 312.484 165.883 312.453L165.882 312.446C165.858 312.301 165.847 312.199 165.883 312.095C165.913 312.012 166.003 311.847 166.362 311.673C166.489 311.611 166.714 311.564 167.06 311.561C167.397 311.557 167.803 311.596 168.261 311.669C169.177 311.815 170.247 312.092 171.277 312.4C172.303 312.707 173.276 313.042 173.993 313.3C174.347 313.428 174.638 313.536 174.841 313.613L174.655 322.668C174.545 322.71 174.41 322.762 174.254 322.821C173.819 322.986 173.228 323.209 172.606 323.44C171.348 323.909 170 324.397 169.52 324.529C169.347 324.576 169.205 324.609 169.074 324.639C169.021 324.651 168.969 324.663 168.917 324.675C168.762 324.712 168.566 324.762 168.399 324.865C168.197 324.989 168.069 325.168 167.999 325.389C167.959 325.515 167.938 325.656 167.926 325.804C167.888 325.778 167.845 325.746 167.796 325.704C167.407 325.371 166.927 324.658 166.753 323.603L166.75 323.586C166.704 323.311 166.667 323.082 166.629 322.916C166.611 322.832 166.587 322.743 166.556 322.663C166.532 322.6 166.471 322.456 166.331 322.353C166.248 322.292 166.142 322.249 166.021 322.244C165.906 322.24 165.81 322.272 165.744 322.304C165.626 322.363 165.543 322.452 165.5 322.501C165.412 322.602 165.31 322.751 165.209 322.9L165.193 322.924L165.19 322.928C164.742 323.587 163.854 324.894 161.882 326.402C161.475 326.713 160.753 326.962 159.72 327.125C158.704 327.284 157.451 327.35 156.041 327.342C153.222 327.326 149.83 327.015 146.549 326.605C143.271 326.196 140.119 325.689 137.785 325.284C136.618 325.082 135.657 324.905 134.987 324.779ZM166.262 323.15C166.262 323.15 166.261 323.151 166.257 323.154C166.26 323.151 166.262 323.15 166.262 323.15ZM165.625 323.027C165.625 323.027 165.625 323.028 165.626 323.029C165.622 323.021 165.622 323.019 165.625 323.027Z" fill="#E6E6E6" stroke="black"/>
<path d="M312.359 366.722L312.614 359.527L286.058 355.079L285.682 365.698L312.359 366.722Z" fill="#FFB6B6"/>
<path d="M307.538 368.889L307.286 357.368L312.02 357.55L319.663 346.9C320.04 346.373 320.57 345.987 321.173 345.796C321.777 345.605 322.424 345.619 323.019 345.838C323.614 346.056 324.126 346.466 324.481 347.009C324.836 347.552 325.015 348.198 324.991 348.854L324.506 362.54L319.74 364.719L324.39 365.82L324.207 370.98L307.538 368.889Z" fill="#2F2E41"/>
<path d="M162.9 383.222L247.012 373.047C247.012 373.047 283.334 375.23 291.856 369.462L300.843 368.282L301.33 354.549C301.33 354.549 295.835 354.591 292.675 353.059C289.516 351.528 291.712 349.654 288.699 351.496C285.687 353.339 286.005 353.561 283.676 352.714C281.347 351.867 174.541 347.325 174.541 347.325L162.9 383.222Z" fill="#2F2E41"/>
<path d="M273.738 377.263L278.629 372.169L262.069 350.118L254.851 357.637L273.738 377.263Z" fill="#FFB6B6"/>
<path d="M268.787 375.44L276.134 366.817L279.486 370.3L292.051 367.9C292.672 367.781 293.313 367.872 293.88 368.159C294.448 368.446 294.912 368.914 295.206 369.495C295.499 370.076 295.606 370.74 295.512 371.389C295.417 372.038 295.126 372.639 294.68 373.103L285.377 382.792L280.458 381.017L283.147 385.115L279.64 388.768L268.787 375.44Z" fill="#2F2E41"/>
<path d="M129.716 335.299L130.552 355.521C131.536 379.327 156.736 393.735 176.277 381.305C176.637 381.076 176.998 380.839 177.361 380.593C177.361 380.593 184.769 378.524 184.544 375.246C184.319 371.968 186.129 370.373 187.73 371.267C189.332 372.161 210.301 341.201 210.301 341.201C210.301 341.201 253.868 363.81 263.479 369.132L273.62 366.258C273.62 366.258 277.437 368.133 276.062 365.421C274.687 362.708 274.441 364.007 274.019 361.052C273.596 358.097 272.516 354.433 271.86 354.587C271.205 354.741 217.963 315.973 217.963 315.973C217.963 315.973 209.289 306.841 198.53 312.87C198.305 313.756 198.497 313.787 198.497 313.787L162.954 343.917L157.932 333.995L129.716 335.299Z" fill="#2F2E41"/>
<path d="M158.387 294.666C158.377 294.684 158.367 294.703 158.359 294.723C158.275 294.912 158.289 295.108 158.34 295.277C158.391 295.444 158.486 295.621 158.62 295.812C162.392 301.192 163.021 306.348 162.713 310.156C162.559 312.063 162.169 313.633 161.82 314.724C161.645 315.27 161.481 315.695 161.361 315.981C161.301 316.124 161.252 316.232 161.219 316.304C161.203 316.34 161.19 316.366 161.182 316.383L161.173 316.401L161.171 316.405L161.171 316.405L161.171 316.405L161.117 316.511L161.117 316.622C161.117 316.626 161.117 316.634 161.115 316.645C161.112 316.676 161.105 316.732 161.088 316.819C161.054 316.992 160.982 317.283 160.831 317.721C160.53 318.598 159.917 320.054 158.672 322.32C158.044 323.464 157.717 324.285 157.68 324.92C157.661 325.256 157.722 325.554 157.87 325.817C158.013 326.073 158.219 326.259 158.427 326.408C158.64 326.561 158.866 326.69 159.1 326.822C159.786 327.212 160.534 327.637 161.181 328.804C161.655 329.659 161.845 330.123 161.885 330.387C161.894 330.445 161.893 330.481 161.891 330.501C161.89 330.51 161.889 330.516 161.888 330.519C161.887 330.522 161.886 330.524 161.886 330.524C161.886 330.525 161.885 330.526 161.884 330.528C161.882 330.53 161.879 330.534 161.873 330.539C161.862 330.551 161.84 330.569 161.801 330.593C161.716 330.645 161.597 330.698 161.413 330.775C161.391 330.783 161.369 330.793 161.347 330.802C161.185 330.869 160.991 330.949 160.784 331.049C160.303 331.281 159.741 331.624 159.169 332.221L159.167 332.223C158.504 332.922 158.036 333.791 157.807 334.739C157.63 335.475 157.602 336.238 157.722 336.981C157.568 336.98 157.386 336.98 157.18 336.979C156.434 336.975 155.363 336.968 154.063 336.954C151.461 336.925 147.941 336.866 144.264 336.746C140.587 336.626 136.759 336.445 133.54 336.172C131.931 336.036 130.479 335.877 129.278 335.693C128.067 335.507 127.143 335.3 126.571 335.076C125.459 334.643 124.524 333.69 123.817 332.427C123.113 331.167 122.658 329.638 122.489 328.126C122.32 326.611 122.442 325.152 122.855 324.027C123.267 322.903 123.939 322.178 124.844 321.958C125.418 321.819 125.865 321.671 126.184 321.504C126.478 321.35 126.805 321.105 126.863 320.705C126.92 320.302 126.669 319.994 126.475 319.811C126.262 319.609 125.969 319.416 125.655 319.232C125.335 319.045 124.961 318.848 124.57 318.644L124.472 318.593C124.107 318.402 123.725 318.202 123.341 317.989C122.501 317.522 121.686 317.008 121.072 316.426C120.545 315.924 120.42 315.369 120.519 314.776C120.624 314.151 120.984 313.477 121.46 312.833C121.931 312.195 122.485 311.626 122.927 311.214C123.146 311.008 123.336 310.844 123.47 310.731C123.536 310.675 123.589 310.632 123.625 310.603L123.665 310.571L123.674 310.563L123.676 310.562L123.676 310.562L123.677 310.562L123.677 310.562L124.015 310.298L123.807 309.926L123.807 309.925L123.807 309.925L123.807 309.924L123.806 309.924L123.805 309.922C123.803 309.918 123.799 309.909 123.792 309.896C123.78 309.871 123.76 309.829 123.733 309.77C123.68 309.65 123.6 309.459 123.504 309.186C123.312 308.64 123.051 307.765 122.795 306.478C122.282 303.903 121.784 299.682 121.873 293.148C121.96 286.707 125.021 278.965 128.102 272.785C129.638 269.706 131.168 267.034 132.315 265.132C132.888 264.181 133.365 263.423 133.698 262.903C133.864 262.644 133.995 262.443 134.084 262.309C134.128 262.241 134.162 262.19 134.185 262.156L134.21 262.118L134.216 262.108L134.218 262.106L134.218 262.106L133.804 261.826L134.218 262.106L134.231 262.087L134.241 262.068L138.574 254.225L153.082 261.299L152.237 273.113L152.23 273.202L152.255 273.287L158.387 294.666Z" fill="#E6E6E6" stroke="black"/>
<path d="M129.047 229.756C129.176 233.105 127.147 237.849 126.148 240.71C125.08 243.769 129.709 247.829 132.672 248.718C132.826 247.658 133.334 246.689 134.107 245.98C133.894 246.99 133.875 248.034 134.052 249.052L159.101 254.984C163.607 249.555 168.138 241.75 167.15 232.337C167.386 230.55 167.11 228.73 166.356 227.105C165.602 225.48 164.403 224.123 162.91 223.205L150.247 215.422C144.861 214.147 138.078 213.376 134.187 216.844C132.449 218.453 131.084 220.45 130.193 222.686C129.303 224.922 128.911 227.339 129.047 229.756Z" fill="#2F2E41"/>
<path d="M151.436 252.116C159.401 252.116 165.858 245.399 165.858 237.112C165.858 228.826 159.401 222.109 151.436 222.109C143.471 222.109 137.015 228.826 137.015 237.112C137.015 245.399 143.471 252.116 151.436 252.116Z" fill="#FFB6B6"/>
<path d="M134.542 229.097L133.846 232.277L146.012 235.159C146.023 234.515 146.162 233.882 146.419 233.297C146.677 232.712 147.047 232.189 147.508 231.76C147.246 233.007 147.276 234.301 147.596 235.534C154.157 239.364 160.071 240.721 165.374 239.744C166.093 239.915 166.847 239.781 167.471 239.373C168.094 238.964 168.536 238.315 168.7 237.568C170.834 227.817 165.244 217.851 155.917 215.431C153.65 214.841 151.293 214.729 148.983 215.099C146.674 215.47 144.459 216.316 142.468 217.589C140.477 218.862 138.75 220.535 137.389 222.511C136.028 224.488 135.06 226.726 134.542 229.097Z" fill="#2F2E41"/>
<path d="M141.655 208.115C143.259 207.752 144.957 207.84 146.407 206.709L145.456 208.981C148.093 208.229 150.905 208.521 153.347 209.801C154.073 210.14 154.693 210.685 155.134 211.374C155.371 211.791 155.515 212.257 155.555 212.739C155.596 213.221 155.532 213.706 155.369 214.159C155.213 214.548 154.981 214.898 154.687 215.188C154.394 215.478 154.045 215.701 153.664 215.843C152.989 216.054 152.282 216.131 151.579 216.07C148.618 215.999 145.657 215.927 142.696 215.855C141.568 215.928 140.44 215.7 139.42 215.193C138.878 214.844 138.445 214.339 138.175 213.738C137.905 213.138 137.81 212.468 137.9 211.812C138.183 209.747 140.05 208.477 141.655 208.115Z" fill="#2F2E41"/>
<path d="M219.886 325.703C219.851 325.66 219.812 325.622 219.768 325.59C219.66 325.46 219.529 325.353 219.381 325.275L218.326 324.688L211.32 316.596C210.914 316.376 210.443 316.329 210.004 316.465L209.986 316.47L206.985 317.436L204.404 318.269L200.798 319.432L176.24 327.343L160.097 332.543C159.661 332.686 159.296 333.003 159.082 333.423C158.867 333.844 158.82 334.335 158.95 334.792C159.026 335.043 159.152 335.275 159.319 335.473L159.832 336.068L160.91 337.317L163.406 342.699L164.099 343.503C164.32 343.759 164.606 343.944 164.924 344.037C165.242 344.13 165.579 344.127 165.896 344.027L219.077 328.643C219.353 328.55 219.603 328.387 219.805 328.17C220.007 327.953 220.154 327.687 220.234 327.397C220.314 327.106 220.324 326.8 220.263 326.504C220.202 326.209 220.073 325.934 219.886 325.703Z" fill="#CCCCCC"/>
<path d="M216.729 245.659L215.699 245.833C215.417 245.881 215.164 246.044 214.997 246.286L214.543 246.946L210.45 257.593C210.284 257.836 210.217 258.139 210.264 258.433L210.744 261.467L208.932 315.614C208.977 315.894 209.122 316.146 209.337 316.321L217.283 327.379L217.469 327.532L217.869 327.858C218.074 328.023 218.329 328.107 218.588 328.096L219.263 328.063C219.417 328.055 219.567 328.013 219.704 327.941C219.84 327.868 219.961 327.766 220.057 327.642C220.154 327.518 220.224 327.375 220.263 327.22C220.302 327.066 220.308 326.905 220.282 326.748L217.977 246.585C217.93 246.291 217.773 246.028 217.54 245.854C217.307 245.68 217.017 245.61 216.734 245.658L216.729 245.659Z" fill="#CCCCCC"/>
<path d="M215.004 249.866L211.378 261.356L209.976 307.249L215.619 312.468L215.004 249.866Z" fill="black"/>
<path d="M186.968 319.872C185.822 319.314 184.512 319.244 183.317 319.677C182.122 320.109 181.137 321.009 180.57 322.185C180.459 322.426 180.367 322.677 180.295 322.934L163.384 323.985L160.878 333.099L183.894 329.054C184.94 329.281 186.03 329.142 186.993 328.657C187.956 328.173 188.737 327.37 189.215 326.375C189.754 325.226 189.832 323.901 189.432 322.692C189.032 321.483 188.187 320.489 187.083 319.928C187.045 319.909 187.006 319.89 186.968 319.872Z" fill="#FFB6B6"/>
<path d="M135.694 334.305C135.429 334.255 135.209 334.213 135.041 334.18L134.178 300.475L138.812 281.006C139.086 279.857 139.593 278.785 140.3 277.861C141.006 276.937 141.894 276.184 142.902 275.651C143.911 275.118 145.017 274.818 146.145 274.77C147.273 274.723 148.399 274.928 149.445 275.373L149.607 274.993L149.445 275.373C151.054 276.059 152.405 277.281 153.282 278.854C154.159 280.427 154.511 282.259 154.282 284.065L149.464 322.05L149.381 322.708L150.037 322.607L150.037 322.607L150.037 322.607L150.037 322.607L150.041 322.606L150.056 322.604L150.118 322.595C150.172 322.587 150.252 322.576 150.356 322.562C150.562 322.534 150.861 322.496 151.224 322.456C151.951 322.376 152.934 322.288 153.965 322.257C155 322.226 156.065 322.252 156.96 322.393C157.887 322.538 158.509 322.789 158.793 323.107C159.22 323.585 159.662 323.955 160.118 324.118C160.354 324.203 160.604 324.236 160.857 324.189C161.111 324.142 161.334 324.02 161.524 323.847C161.889 323.515 162.143 322.983 162.332 322.332C162.525 321.667 162.667 320.813 162.761 319.768C162.774 319.629 162.786 319.501 162.798 319.384C162.943 319.693 163.117 320.044 163.32 320.389C163.671 320.983 164.141 321.614 164.777 322.037L164.782 322.04C165.051 322.218 165.258 322.356 165.414 322.455C165.561 322.549 165.698 322.632 165.809 322.678C165.855 322.697 165.973 322.745 166.117 322.733C166.202 322.725 166.308 322.696 166.405 322.619C166.501 322.543 166.552 322.449 166.578 322.375C166.621 322.252 166.611 322.138 166.607 322.103L166.607 322.101C166.603 322.054 166.594 322.002 166.589 321.972C166.565 321.826 166.554 321.724 166.59 321.621C166.62 321.538 166.71 321.373 167.069 321.198C167.196 321.137 167.421 321.089 167.767 321.086C168.104 321.083 168.51 321.121 168.968 321.195C169.884 321.341 170.954 321.617 171.984 321.925C173.01 322.233 173.983 322.567 174.701 322.826C175.054 322.953 175.345 323.062 175.548 323.139L175.362 332.194C175.252 332.236 175.117 332.287 174.961 332.346C174.526 332.511 173.935 332.734 173.313 332.966C172.055 333.434 170.707 333.923 170.227 334.054C170.054 334.102 169.912 334.134 169.781 334.164C169.728 334.177 169.676 334.188 169.624 334.201C169.469 334.238 169.273 334.288 169.106 334.391C168.904 334.515 168.776 334.694 168.706 334.915C168.666 335.041 168.645 335.181 168.633 335.33C168.595 335.304 168.552 335.271 168.503 335.23C168.114 334.897 167.634 334.184 167.46 333.129L167.457 333.112C167.411 332.837 167.374 332.608 167.336 332.442C167.318 332.357 167.294 332.268 167.263 332.188C167.239 332.125 167.178 331.982 167.038 331.878C166.955 331.818 166.849 331.774 166.728 331.77C166.613 331.765 166.517 331.797 166.451 331.83C166.333 331.888 166.25 331.977 166.208 332.026C166.119 332.127 166.017 332.277 165.916 332.426L165.9 332.449L165.897 332.453C165.449 333.113 164.561 334.419 162.589 335.927C162.182 336.238 161.46 336.488 160.427 336.65C159.411 336.81 158.158 336.876 156.748 336.868C153.929 336.852 150.537 336.541 147.256 336.131C143.979 335.721 140.826 335.214 138.492 334.81C137.325 334.607 136.364 334.431 135.694 334.305ZM166.332 332.552C166.332 332.553 166.332 332.554 166.333 332.555C166.329 332.546 166.329 332.544 166.332 332.552Z" fill="#E6E6E6" stroke="black"/>
<path d="M3.30257e-06 388.224C-0.000288937 388.326 0.0188164 388.427 0.0562136 388.521C0.0936107 388.616 0.148567 388.701 0.217917 388.773C0.287267 388.846 0.36964 388.903 0.460306 388.942C0.550971 388.981 0.648135 389 0.746208 389H449.254C449.452 389 449.642 388.918 449.781 388.773C449.921 388.627 450 388.43 450 388.224C450 388.018 449.921 387.82 449.781 387.675C449.642 387.529 449.452 387.448 449.254 387.448H0.746169C0.648101 387.447 0.550946 387.467 0.460286 387.506C0.369627 387.545 0.287253 387.602 0.217908 387.674C0.148562 387.746 0.0936095 387.832 0.0562136 387.926C0.0188176 388.021 -0.000285584 388.122 3.30257e-06 388.224Z" fill="#CCCCCC"/>
<path d="M395.771 219.737H268.699C266.777 219.734 264.93 218.939 263.564 217.518C262.198 216.097 261.426 214.166 261.424 212.148V194.332C261.426 192.314 262.198 190.383 263.564 188.961C264.929 187.541 266.777 186.746 268.699 186.743H395.771C397.693 186.746 399.54 187.541 400.906 188.961C402.272 190.383 403.044 192.314 403.046 194.332V212.148C403.044 214.166 402.272 216.097 400.906 217.518C399.54 218.939 397.693 219.734 395.771 219.737Z" fill="#E6E6E6" stroke="black"/>
<path d="M347.672 200.191H310.232C309.787 200.191 309.361 200.007 309.047 199.68C308.733 199.353 308.557 198.91 308.557 198.448C308.557 197.986 308.733 197.543 309.047 197.216C309.361 196.889 309.787 196.706 310.232 196.706H347.672C348.117 196.706 348.543 196.889 348.857 197.216C349.171 197.543 349.347 197.986 349.347 198.448C349.347 198.91 349.171 199.353 348.857 199.68C348.543 200.007 348.117 200.191 347.672 200.191Z" fill="#4A6FEB"/>
<path d="M383.684 209.774H309.814C309.369 209.774 308.943 209.591 308.629 209.264C308.315 208.937 308.139 208.494 308.139 208.032C308.139 207.57 308.315 207.126 308.629 206.8C308.943 206.473 309.369 206.289 309.814 206.289H383.684C384.128 206.289 384.554 206.473 384.868 206.8C385.182 207.126 385.359 207.57 385.359 208.032C385.359 208.494 385.182 208.937 384.868 209.264C384.554 209.591 384.128 209.774 383.684 209.774Z" fill="#4A6FEB"/>
<path d="M290.341 214.923C296.543 214.923 301.571 209.692 301.571 203.24C301.571 196.788 296.543 191.557 290.341 191.557C284.139 191.557 279.111 196.788 279.111 203.24C279.111 209.692 284.139 214.923 290.341 214.923Z" fill="#4A6FEB"/>
<path d="M355.014 265.399H227.942C226.02 265.397 224.173 264.602 222.807 263.181C221.441 261.76 220.669 259.829 220.667 257.811V239.994C220.669 237.976 221.441 236.045 222.807 234.624C224.173 233.204 226.02 232.408 227.942 232.406H355.014C356.936 232.408 358.783 233.204 360.149 234.624C361.515 236.045 362.287 237.976 362.289 239.995V257.81C362.287 259.829 361.515 261.76 360.149 263.181C358.783 264.602 356.936 265.397 355.014 265.399Z" fill="#E6E6E6" stroke="black"/>
<path d="M306.916 245.853H269.475C269.03 245.853 268.604 245.67 268.29 245.343C267.976 245.016 267.8 244.573 267.8 244.111C267.8 243.649 267.976 243.205 268.29 242.879C268.604 242.552 269.03 242.368 269.475 242.368H306.916C307.36 242.368 307.786 242.552 308.1 242.879C308.414 243.205 308.591 243.649 308.591 244.111C308.591 244.573 308.414 245.016 308.1 245.343C307.786 245.67 307.36 245.853 306.916 245.853Z" fill="#4A6FEB"/>
<path d="M342.927 255.437H269.057C268.613 255.437 268.186 255.253 267.872 254.927C267.558 254.6 267.382 254.157 267.382 253.694C267.382 253.232 267.558 252.789 267.872 252.462C268.186 252.136 268.613 251.952 269.057 251.952H342.927C343.371 251.952 343.797 252.136 344.111 252.462C344.425 252.789 344.602 253.232 344.602 253.694C344.602 254.157 344.425 254.6 344.111 254.927C343.797 255.253 343.371 255.437 342.927 255.437Z" fill="#4A6FEB"/>
<path d="M249.584 260.585C255.786 260.585 260.814 255.355 260.814 248.903C260.814 242.45 255.786 237.22 249.584 237.22C243.382 237.22 238.354 242.45 238.354 248.903C238.354 255.355 243.382 260.585 249.584 260.585Z" fill="#4A6FEB"/>
</g>
<defs>
<clipPath id="clip0_307_5504">
<rect width="450" height="389" fill="white"/>
</clipPath>
</defs>
</svg>
