<svg width="401" height="366" viewBox="0 0 401 366" fill="none" xmlns="http://www.w3.org/2000/svg">
<g clip-path="url(#clip0_302_5581)">
<path d="M349.355 352.755V316.485C349.355 316.485 362.959 342.199 349.355 352.755Z" fill="#F1F1F1"/>
<path d="M350.195 352.748L324.48 328.22C324.48 328.22 351.911 335.197 350.195 352.748Z" fill="#F1F1F1"/>
<path d="M51.3724 352.755V316.485C51.3724 316.485 37.7684 342.199 51.3724 352.755Z" fill="#F1F1F1"/>
<path d="M50.5314 352.748L76.2463 328.22C76.2463 328.22 48.8156 335.197 50.5314 352.748Z" fill="#F1F1F1"/>
<path d="M285.069 83.7542H283.206V30.704C283.206 26.6719 282.441 22.6793 280.956 18.9541C279.471 15.2289 277.294 11.8441 274.55 8.99301C271.806 6.14187 268.549 3.88023 264.963 2.33721C261.378 0.794188 257.535 3.29216e-06 253.655 0H145.481C141.6 -8.55937e-06 137.757 0.794165 134.172 2.33718C130.587 3.88019 127.329 6.14182 124.585 8.99294C121.841 11.8441 119.664 15.2288 118.179 18.954C116.694 22.6792 115.93 26.6718 115.93 30.7039V321.741C115.93 329.884 119.043 337.694 124.585 343.452C130.127 349.21 137.643 352.445 145.481 352.445H253.654C261.492 352.445 269.008 349.21 274.55 343.452C280.092 337.694 283.206 329.885 283.206 321.741V121.516H285.069V83.7542Z" fill="#3F3D56"/>
<path d="M254.847 7.98805H240.727C241.376 9.64217 241.624 11.4368 241.449 13.2139C241.273 14.991 240.68 16.696 239.721 18.1787C238.762 19.6614 237.466 20.8763 235.949 21.7164C234.432 22.5564 232.739 22.9959 231.019 22.996H169.048C167.329 22.9959 165.636 22.5564 164.118 21.7164C162.601 20.8763 161.306 19.6614 160.347 18.1787C159.388 16.696 158.794 14.991 158.619 13.2139C158.444 11.4368 158.691 9.64215 159.341 7.98804H146.152C140.3 7.98803 134.686 10.4038 130.548 14.7039C126.409 19.004 124.084 24.8361 124.084 30.9174V321.528C124.084 324.539 124.655 327.521 125.764 330.302C126.873 333.084 128.498 335.612 130.548 337.741C132.597 339.87 135.03 341.559 137.707 342.712C140.385 343.864 143.254 344.457 146.152 344.457H254.847C257.745 344.457 260.615 343.864 263.292 342.712C265.97 341.559 268.403 339.87 270.452 337.741C272.501 335.612 274.127 333.084 275.236 330.302C276.345 327.521 276.915 324.539 276.915 321.528V30.9174C276.915 27.9063 276.345 24.9246 275.236 22.1427C274.127 19.3608 272.501 16.8331 270.452 14.7039C268.403 12.5747 265.97 10.8857 263.292 9.73344C260.615 8.58113 257.745 7.98805 254.847 7.98805Z" fill="white"/>
<path d="M252.125 339.467H148.876C137.012 339.467 127.36 330.516 127.36 319.515V305.07C127.36 296.301 135.047 289.167 144.495 289.167H256.506C265.954 289.167 273.64 296.301 273.64 305.07V319.515C273.64 330.516 263.988 339.467 252.125 339.467Z" fill="#E5E5E5"/>
<path d="M159.729 96.6881H136.698C136.285 96.6876 135.89 96.5171 135.598 96.214C135.306 95.9109 135.142 95.4999 135.142 95.0712V71.1418C135.142 70.7131 135.306 70.3021 135.598 69.999C135.89 69.6959 136.285 69.5254 136.698 69.5249H159.729C160.141 69.5254 160.537 69.6959 160.829 69.999C161.12 70.3021 161.284 70.7131 161.285 71.1418V95.0712C161.284 95.4999 161.12 95.9109 160.829 96.214C160.537 96.5171 160.141 96.6876 159.729 96.6881Z" fill="#4A6FEB"/>
<path d="M194.587 96.6881H171.556C171.144 96.6876 170.748 96.5171 170.456 96.214C170.165 95.9109 170 95.4999 170 95.0712V71.1418C170 70.7131 170.165 70.3021 170.456 69.999C170.748 69.6959 171.144 69.5254 171.556 69.5249H194.587C195 69.5254 195.395 69.6959 195.687 69.999C195.979 70.3021 196.143 70.7131 196.143 71.1418V95.0712C196.143 95.4999 195.979 95.9109 195.687 96.214C195.395 96.5171 195 96.6876 194.587 96.6881Z" fill="#E5E5E5"/>
<path d="M229.445 96.6881H206.414C206.001 96.6876 205.605 96.5171 205.314 96.214C205.022 95.9109 204.858 95.4999 204.857 95.0712V71.1418C204.858 70.7131 205.022 70.3021 205.314 69.999C205.605 69.6959 206.001 69.5254 206.414 69.5249H229.445C229.857 69.5254 230.253 69.6959 230.544 69.999C230.836 70.3021 231 70.7131 231.001 71.1418V95.0712C231 95.4999 230.836 95.9109 230.544 96.214C230.253 96.5171 229.857 96.6876 229.445 96.6881Z" fill="#E5E5E5"/>
<path d="M264.302 96.6881H241.271C240.858 96.6876 240.463 96.5171 240.171 96.214C239.879 95.9109 239.715 95.4999 239.715 95.0712V71.1418C239.715 70.7131 239.879 70.3021 240.171 69.999C240.463 69.6959 240.858 69.5254 241.271 69.5249H264.302C264.715 69.5254 265.11 69.6959 265.402 69.999C265.693 70.3021 265.858 70.7131 265.858 71.1418V95.0712C265.858 95.4999 265.693 95.9109 265.402 96.214C265.11 96.5171 264.715 96.6876 264.302 96.6881Z" fill="#E5E5E5"/>
<path d="M159.647 140.99H136.616C136.203 140.989 135.808 140.819 135.516 140.516C135.224 140.213 135.06 139.802 135.06 139.373V115.444C135.06 115.015 135.224 114.604 135.516 114.301C135.808 113.998 136.203 113.827 136.616 113.827H159.647C160.059 113.827 160.455 113.998 160.747 114.301C161.038 114.604 161.202 115.015 161.203 115.444V139.373C161.202 139.802 161.038 140.213 160.747 140.516C160.455 140.819 160.059 140.989 159.647 140.99Z" fill="#E5E5E5"/>
<path d="M194.504 140.99H171.473C171.061 140.989 170.665 140.819 170.373 140.516C170.082 140.213 169.917 139.802 169.917 139.373V115.444C169.917 115.015 170.082 114.604 170.373 114.301C170.665 113.998 171.061 113.827 171.473 113.827H194.504C194.917 113.827 195.312 113.998 195.604 114.301C195.896 114.604 196.06 115.015 196.06 115.444V139.373C196.06 139.802 195.896 140.213 195.604 140.516C195.312 140.819 194.917 140.989 194.504 140.99Z" fill="#E5E5E5"/>
<path d="M229.362 140.99H206.331C205.918 140.989 205.522 140.819 205.231 140.516C204.939 140.213 204.775 139.802 204.774 139.373V115.444C204.775 115.015 204.939 114.604 205.231 114.301C205.522 113.998 205.918 113.827 206.331 113.827H229.362C229.774 113.827 230.17 113.998 230.461 114.301C230.753 114.604 230.917 115.015 230.918 115.444V139.373C230.917 139.802 230.753 140.213 230.461 140.516C230.17 140.819 229.774 140.989 229.362 140.99Z" fill="#4A6FEB"/>
<path d="M264.22 140.99H241.189C240.776 140.989 240.381 140.819 240.089 140.516C239.797 140.213 239.633 139.802 239.633 139.373V115.444C239.633 115.015 239.797 114.604 240.089 114.301C240.381 113.998 240.776 113.827 241.189 113.827H264.22C264.632 113.827 265.028 113.998 265.32 114.301C265.611 114.604 265.776 115.015 265.776 115.444V139.373C265.776 139.802 265.611 140.213 265.32 140.516C265.028 140.819 264.632 140.989 264.22 140.99Z" fill="#4A6FEB"/>
<path d="M159.565 185.292H136.534C136.121 185.291 135.726 185.121 135.434 184.818C135.142 184.515 134.978 184.104 134.978 183.675V159.746C134.978 159.317 135.142 158.906 135.434 158.603C135.726 158.3 136.121 158.129 136.534 158.129H159.565C159.977 158.129 160.373 158.3 160.664 158.603C160.956 158.906 161.12 159.317 161.121 159.746V183.675C161.12 184.104 160.956 184.515 160.664 184.818C160.373 185.121 159.977 185.291 159.565 185.292Z" fill="#E5E5E5"/>
<path d="M194.422 185.292H171.391C170.979 185.291 170.583 185.121 170.291 184.818C170 184.515 169.835 184.104 169.835 183.675V159.746C169.835 159.317 170 158.906 170.291 158.603C170.583 158.3 170.979 158.129 171.391 158.129H194.422C194.835 158.129 195.23 158.3 195.522 158.603C195.814 158.906 195.978 159.317 195.978 159.746V183.675C195.978 184.104 195.814 184.515 195.522 184.818C195.23 185.121 194.835 185.291 194.422 185.292Z" fill="#E5E5E5"/>
<path d="M229.279 185.292H206.249C205.836 185.291 205.44 185.121 205.149 184.818C204.857 184.515 204.693 184.104 204.692 183.675V159.746C204.693 159.317 204.857 158.906 205.149 158.603C205.44 158.3 205.836 158.129 206.249 158.129H229.279C229.692 158.129 230.088 158.3 230.379 158.603C230.671 158.906 230.835 159.317 230.836 159.746V183.675C230.835 184.104 230.671 184.515 230.379 184.818C230.088 185.121 229.692 185.291 229.279 185.292Z" fill="#E5E5E5"/>
<path d="M264.137 185.292H241.106C240.693 185.291 240.298 185.121 240.006 184.818C239.714 184.515 239.55 184.104 239.55 183.675V159.746C239.55 159.317 239.714 158.906 240.006 158.603C240.298 158.3 240.693 158.129 241.106 158.129H264.137C264.549 158.129 264.945 158.3 265.237 158.603C265.528 158.906 265.693 159.317 265.693 159.746V183.675C265.693 184.104 265.528 184.515 265.237 184.818C264.945 185.121 264.549 185.291 264.137 185.292Z" fill="#E5E5E5"/>
<path d="M159.482 229.594H136.451C136.038 229.593 135.643 229.423 135.351 229.119C135.059 228.816 134.895 228.405 134.895 227.977V204.047C134.895 203.619 135.059 203.208 135.351 202.905C135.643 202.601 136.038 202.431 136.451 202.43H159.482C159.894 202.431 160.29 202.601 160.581 202.905C160.873 203.208 161.037 203.619 161.038 204.047V227.977C161.037 228.405 160.873 228.816 160.581 229.119C160.29 229.423 159.894 229.593 159.482 229.594Z" fill="#E5E5E5"/>
<path d="M194.339 229.594H171.308C170.896 229.593 170.5 229.423 170.208 229.119C169.917 228.816 169.752 228.405 169.752 227.977V204.047C169.752 203.619 169.917 203.208 170.208 202.905C170.5 202.601 170.896 202.431 171.308 202.43H194.339C194.752 202.431 195.147 202.601 195.439 202.905C195.731 203.208 195.895 203.619 195.895 204.047V227.977C195.895 228.405 195.731 228.816 195.439 229.119C195.147 229.423 194.752 229.593 194.339 229.594Z" fill="#E5E5E5"/>
<path d="M229.197 229.594H206.167C205.754 229.593 205.358 229.423 205.067 229.119C204.775 228.816 204.611 228.405 204.61 227.977V204.047C204.611 203.619 204.775 203.208 205.067 202.905C205.358 202.601 205.754 202.431 206.167 202.43H229.197C229.61 202.431 230.006 202.601 230.297 202.905C230.589 203.208 230.753 203.619 230.754 204.047V227.977C230.753 228.405 230.589 228.816 230.297 229.119C230.006 229.423 229.61 229.593 229.197 229.594Z" fill="#E5E5E5"/>
<path d="M264.055 229.594H241.024C240.611 229.593 240.216 229.423 239.924 229.119C239.632 228.816 239.468 228.405 239.468 227.977V204.047C239.468 203.619 239.632 203.208 239.924 202.905C240.216 202.601 240.611 202.431 241.024 202.43H264.055C264.467 202.431 264.863 202.601 265.155 202.905C265.446 203.208 265.611 203.619 265.611 204.047V227.977C265.611 228.405 265.446 228.816 265.155 229.119C264.863 229.423 264.467 229.593 264.055 229.594Z" fill="#E5E5E5"/>
<path d="M159.729 328.545H136.698C136.285 328.545 135.89 328.374 135.598 328.071C135.306 327.768 135.142 327.357 135.142 326.928V302.999C135.142 302.57 135.306 302.159 135.598 301.856C135.89 301.553 136.285 301.383 136.698 301.382H159.729C160.141 301.383 160.537 301.553 160.829 301.856C161.12 302.159 161.284 302.57 161.285 302.999V326.928C161.284 327.357 161.12 327.768 160.829 328.071C160.537 328.374 160.141 328.545 159.729 328.545Z" fill="white"/>
<path d="M194.587 328.545H171.556C171.144 328.545 170.748 328.374 170.456 328.071C170.165 327.768 170 327.357 170 326.928V302.999C170 302.57 170.165 302.159 170.456 301.856C170.748 301.553 171.144 301.383 171.556 301.382H194.587C195 301.383 195.395 301.553 195.687 301.856C195.979 302.159 196.143 302.57 196.143 302.999V326.928C196.143 327.357 195.979 327.768 195.687 328.071C195.395 328.374 195 328.545 194.587 328.545Z" fill="white"/>
<path d="M229.445 328.545H206.414C206.001 328.545 205.605 328.374 205.314 328.071C205.022 327.768 204.858 327.357 204.857 326.928V302.999C204.858 302.57 205.022 302.159 205.314 301.856C205.605 301.553 206.001 301.383 206.414 301.382H229.445C229.857 301.383 230.253 301.553 230.544 301.856C230.836 302.159 231 302.57 231.001 302.999V326.928C231 327.357 230.836 327.768 230.544 328.071C230.253 328.374 229.857 328.545 229.445 328.545Z" fill="white"/>
<path d="M264.302 328.545H241.271C240.858 328.545 240.463 328.374 240.171 328.071C239.879 327.768 239.715 327.357 239.715 326.928V302.999C239.715 302.57 239.879 302.159 240.171 301.856C240.463 301.553 240.858 301.383 241.271 301.382H264.302C264.715 301.383 265.11 301.553 265.402 301.856C265.693 302.159 265.858 302.57 265.858 302.999V326.928C265.858 327.357 265.693 327.768 265.402 328.071C265.11 328.374 264.715 328.545 264.302 328.545Z" fill="white"/>
<path d="M189.214 278.099C190.933 278.099 192.326 276.651 192.326 274.866C192.326 273.08 190.933 271.632 189.214 271.632C187.495 271.632 186.102 273.08 186.102 274.866C186.102 276.651 187.495 278.099 189.214 278.099Z" fill="#E5E5E5"/>
<path d="M200.418 278.099C202.137 278.099 203.53 276.651 203.53 274.866C203.53 273.08 202.137 271.632 200.418 271.632C198.699 271.632 197.306 273.08 197.306 274.866C197.306 276.651 198.699 278.099 200.418 278.099Z" fill="#E5E5E5"/>
<path d="M211.622 278.099C213.341 278.099 214.734 276.651 214.734 274.866C214.734 273.08 213.341 271.632 211.622 271.632C209.903 271.632 208.51 273.08 208.51 274.866C208.51 276.651 209.903 278.099 211.622 278.099Z" fill="#E5E5E5"/>
<path d="M400.517 352.97H0.482551C0.354571 352.97 0.231831 352.917 0.141336 352.823C0.0508397 352.729 0 352.601 0 352.468C0 352.335 0.0508397 352.208 0.141336 352.114C0.231831 352.02 0.354571 351.967 0.482551 351.967H400.517C400.645 351.967 400.768 352.02 400.859 352.114C400.949 352.208 401 352.335 401 352.468C401 352.601 400.949 352.729 400.859 352.823C400.768 352.917 400.645 352.97 400.517 352.97Z" fill="#CBCBCB"/>
<path d="M157.487 254.249C158.138 253.573 158.639 252.757 158.953 251.858C159.268 250.959 159.389 249.999 159.308 249.047C159.227 248.094 158.946 247.171 158.485 246.343C158.023 245.516 157.393 244.803 156.638 244.256L162.716 221.88L151.635 225.542L147.562 246.229C146.761 247.608 146.475 249.244 146.758 250.827C147.04 252.41 147.872 253.831 149.096 254.82C150.319 255.808 151.849 256.296 153.396 256.191C154.942 256.086 156.398 255.395 157.487 254.249Z" fill="#FFB7B7"/>
<path d="M160.638 240.534C160.44 240.573 160.239 240.591 160.037 240.587L149.407 240.366C149.007 240.357 148.613 240.26 148.252 240.082C147.89 239.903 147.57 239.646 147.312 239.329C147.053 239.011 146.863 238.64 146.753 238.24C146.644 237.841 146.617 237.421 146.676 237.01L157.46 161.306C157.782 159.117 158.847 157.119 160.462 155.674C162.078 154.229 164.138 153.432 166.27 153.427C167.616 153.43 168.944 153.751 170.153 154.366C171.362 154.981 172.421 155.873 173.25 156.975C174.078 158.077 174.655 159.361 174.936 160.729C175.218 162.096 175.196 163.513 174.874 164.871L167.23 197.037L162.895 237.98C162.832 238.601 162.579 239.184 162.172 239.644C161.766 240.104 161.228 240.416 160.638 240.534Z" fill="#3F3D56"/>
<path d="M165.083 360.041H170.999L173.814 336.332L165.082 336.333L165.083 360.041Z" fill="#FFB7B7"/>
<path d="M163.574 358.035L175.225 358.034H175.225C177.195 358.035 179.083 358.847 180.475 360.294C181.868 361.741 182.65 363.703 182.65 365.749V365.999L163.575 366L163.574 358.035Z" fill="#2F2E41"/>
<path d="M190.31 358.045L196.188 358.73L201.529 335.495L192.852 334.484L190.31 358.045Z" fill="#FFB7B7"/>
<path d="M189.025 355.876L200.603 357.225C202.56 357.453 204.35 358.479 205.578 360.078C206.807 361.677 207.374 363.718 207.155 365.751L207.128 366L188.171 363.792L189.025 355.876Z" fill="#2F2E41"/>
<path d="M159.531 228.104C159.531 228.104 151.42 246.76 158.583 258.877L162.85 353.22H172.647L182.152 277.011L199.041 299.573L188.751 352.231L200.734 352.93L217.378 299.573C217.378 299.573 204.591 240.737 200.369 239.32L197.593 225.87L159.531 228.104Z" fill="#2F2E41"/>
<path d="M155.921 244.483C155.921 244.483 148.614 253.196 167.916 256.204C187.218 259.212 207.486 254.7 207.968 248.683C208.451 242.667 155.921 244.483 155.921 244.483Z" fill="#CBCBCB"/>
<path d="M252.681 136.401C252.651 137.252 252.442 138.085 252.068 138.842C251.695 139.6 251.166 140.263 250.519 140.785C249.873 141.308 249.123 141.676 248.325 141.865C247.526 142.054 246.697 142.059 245.897 141.879L238.6 152.811L231.125 149.824L241.637 134.536C242.017 133.159 242.871 131.974 244.035 131.207C245.2 130.439 246.595 130.142 247.956 130.372C249.317 130.602 250.55 131.343 251.421 132.454C252.292 133.565 252.74 134.97 252.681 136.401Z" fill="#FFB7B7"/>
<path d="M190.976 150.467L180.66 145.618L167.443 146.6C167.443 146.6 151.509 165.956 157.782 184.507L153.922 249.185C178.532 256.204 189.719 243.039 207.485 248.683L201.998 176.801L190.976 150.467Z" fill="#3F3D56"/>
<path d="M184.082 155.176L190.976 150.467C190.976 150.467 200.553 148.962 204.381 152.821C204.381 152.821 217.375 153.951 220.513 157.321L223.968 158.131L235.447 142.687L242.471 146.653L232.337 175.231L201.998 176.801L184.082 155.176Z" fill="#3F3D56"/>
<path d="M186.461 140.179C194.352 135.697 197.252 125.417 192.939 117.218C188.625 109.019 178.731 106.006 170.84 110.487C162.949 114.969 160.049 125.249 164.362 133.448C168.676 141.647 178.57 144.661 186.461 140.179Z" fill="#FFB7B7"/>
<path d="M164.566 112.105C167.473 106.674 171.105 103.157 177.085 103.284C183.065 103.411 188.238 103.165 190.929 108.715C191.64 107.332 191.996 105.782 191.963 104.214C192.775 104.762 193.416 105.545 193.805 106.466C194.194 107.388 194.315 108.408 194.153 109.4C194.677 109.082 195.115 108.632 195.427 108.092C195.74 107.552 195.917 106.939 195.942 106.309C197.938 106.999 198.457 109.922 197.447 111.839C196.437 113.756 194.457 114.864 192.557 115.802C190.656 116.739 191.534 121.695 190.293 123.46C189.427 124.692 189.031 126.201 188.447 127.601C188.423 127.656 188.381 127.701 188.329 127.729C186.991 128.504 186.146 129.889 186.383 131.462C186.411 131.579 186.404 131.703 186.364 131.817C184.67 135.133 182.841 138.602 179.771 140.58C177.307 142.126 174.357 142.6 171.559 141.899C168.42 141.12 165.707 138.958 163.751 136.292C161.795 133.626 160.536 130.475 159.591 127.269C158.752 124.426 158.142 121.385 158.807 118.493C159.472 115.6 161.725 112.921 164.579 112.698" fill="#2F2E41"/>
</g>
<defs>
<clipPath id="clip0_302_5581">
<rect width="401" height="366" fill="white"/>
</clipPath>
</defs>
</svg>
