<svg width="1440" height="713" viewBox="0 0 1440 713" fill="none" xmlns="http://www.w3.org/2000/svg">
<g clip-path="url(#clip0_1753_9933)">
<rect width="1440" height="713" rx="5" fill="#F2F2F2" fill-opacity="0.65"/>
<g clip-path="url(#clip1_1753_9933)">
<rect width="1440" height="713" rx="5" fill="url(#paint0_linear_1753_9933)" fill-opacity="0.65"/>
<g clip-path="url(#clip2_1753_9933)">
<rect width="1440" height="713" rx="5" fill="#F2F2F2" fill-opacity="0.65"/>
<g clip-path="url(#clip3_1753_9933)">
<rect width="1440" height="713" rx="5" fill="url(#paint1_linear_1753_9933)" fill-opacity="0.65"/>
<path d="M0 410.635L26.7 431.761C53.55 452.887 106.95 495.139 160.2 498.044C213.45 500.817 266.55 464.374 319.8 467.411C373.05 470.448 426.45 513.228 480 532.505C533.55 551.915 586.95 547.954 640.2 523.791C693.45 499.496 746.55 455.132 799.8 452.227C853.05 449.322 906.45 488.141 960 495.139C1013.55 502.137 1066.95 477.578 1120.2 469.656C1173.45 461.734 1226.55 470.448 1279.8 474.673C1333.05 478.898 1386.45 478.37 1413.3 478.238L1440 477.974V714.32H1413.3C1386.45 714.32 1333.05 714.32 1279.8 714.32C1226.55 714.32 1173.45 714.32 1120.2 714.32C1066.95 714.32 1013.55 714.32 960 714.32C906.45 714.32 853.05 714.32 799.8 714.32C746.55 714.32 693.45 714.32 640.2 714.32C586.95 714.32 533.55 714.32 480 714.32C426.45 714.32 373.05 714.32 319.8 714.32C266.55 714.32 213.45 714.32 160.2 714.32C106.95 714.32 53.55 714.32 26.7 714.32H0V410.635Z" fill="#FFEBAE" fill-opacity="0.5"/>
<path d="M0 500.42L26.7 493.554C53.55 486.821 106.95 473.089 160.2 490.254C213.45 507.418 266.55 555.48 319.8 563.798C373.05 572.116 426.45 540.956 480 531.185C533.55 521.546 586.95 533.43 640.2 549.274C693.45 565.118 746.55 584.924 799.8 591.13C853.05 597.204 906.45 589.809 960 560.233C1013.55 530.789 1066.95 479.294 1120.2 452.227C1173.45 425.159 1226.55 422.518 1279.8 428.196C1333.05 434.006 1386.45 448.002 1413.3 455.132L1440 462.13V714.32H1413.3C1386.45 714.32 1333.05 714.32 1279.8 714.32C1226.55 714.32 1173.45 714.32 1120.2 714.32C1066.95 714.32 1013.55 714.32 960 714.32C906.45 714.32 853.05 714.32 799.8 714.32C746.55 714.32 693.45 714.32 640.2 714.32C586.95 714.32 533.55 714.32 480 714.32C426.45 714.32 373.05 714.32 319.8 714.32C266.55 714.32 213.45 714.32 160.2 714.32C106.95 714.32 53.55 714.32 26.7 714.32H0V500.42Z" fill="#E3D096" fill-opacity="0.45"/>
<path d="M0 536.07L26.7 535.41C53.55 534.75 106.95 533.43 160.2 544.917C213.45 556.272 266.55 580.567 319.8 578.718C373.05 577.002 426.45 549.274 480 542.276C533.55 535.146 586.95 548.878 640.2 553.235C693.45 557.592 746.55 552.839 799.8 545.049C853.05 537.391 906.45 526.828 960 517.321C1013.55 507.946 1066.95 499.496 1120.2 497.516C1173.45 495.535 1226.55 500.024 1279.8 521.546C1333.05 543.068 1386.45 581.887 1413.3 601.165L1440 620.574V714.32H1413.3C1386.45 714.32 1333.05 714.32 1279.8 714.32C1226.55 714.32 1173.45 714.32 1120.2 714.32C1066.95 714.32 1013.55 714.32 960 714.32C906.45 714.32 853.05 714.32 799.8 714.32C746.55 714.32 693.45 714.32 640.2 714.32C586.95 714.32 533.55 714.32 480 714.32C426.45 714.32 373.05 714.32 319.8 714.32C266.55 714.32 213.45 714.32 160.2 714.32C106.95 714.32 53.55 714.32 26.7 714.32H0V536.07Z" fill="#FFEEBB" fill-opacity="0.48"/>
<path d="M0 559.837L26.7 558.781C53.55 557.592 106.95 555.48 160.2 559.573C213.45 563.798 266.55 574.361 319.8 579.643C373.05 584.924 426.45 584.924 480 596.543C533.55 608.295 586.95 631.533 640.2 635.098C693.45 638.663 746.55 622.291 799.8 606.05C853.05 589.809 906.45 573.437 960 570.136C1013.55 566.835 1066.95 576.606 1120.2 590.866C1173.45 605.126 1226.55 624.139 1279.8 631.533C1333.05 639.059 1386.45 635.098 1413.3 633.118L1440 631.137V714.32H1413.3C1386.45 714.32 1333.05 714.32 1279.8 714.32C1226.55 714.32 1173.45 714.32 1120.2 714.32C1066.95 714.32 1013.55 714.32 960 714.32C906.45 714.32 853.05 714.32 799.8 714.32C746.55 714.32 693.45 714.32 640.2 714.32C586.95 714.32 533.55 714.32 480 714.32C426.45 714.32 373.05 714.32 319.8 714.32C266.55 714.32 213.45 714.32 160.2 714.32C106.95 714.32 53.55 714.32 26.7 714.32H0V559.837Z" fill="#F6C73B" fill-opacity="0.11"/>
<path d="M0 662.826L26.7 656.224C53.55 649.622 106.95 636.419 160.2 633.118C213.45 629.817 266.55 636.419 319.8 639.455C373.05 642.624 426.45 642.096 480 642.624C533.55 643.02 586.95 644.341 640.2 649.358C693.45 654.508 746.55 663.222 799.8 669.032C853.05 674.709 906.45 677.35 960 673.653C1013.55 669.824 1066.95 659.789 1120.2 649.622C1173.45 639.455 1226.55 629.421 1279.8 629.553C1333.05 629.817 1386.45 640.38 1413.3 645.661L1440 650.943V714.32H1413.3C1386.45 714.32 1333.05 714.32 1279.8 714.32C1226.55 714.32 1173.45 714.32 1120.2 714.32C1066.95 714.32 1013.55 714.32 960 714.32C906.45 714.32 853.05 714.32 799.8 714.32C746.55 714.32 693.45 714.32 640.2 714.32C586.95 714.32 533.55 714.32 480 714.32C426.45 714.32 373.05 714.32 319.8 714.32C266.55 714.32 213.45 714.32 160.2 714.32C106.95 714.32 53.55 714.32 26.7 714.32H0V662.826Z" fill="#F6C73B" fill-opacity="0.24"/>
</g>
</g>
<path d="M223 535L247 575L252.5 537L257.5 575L279 535L264 583H239.5L223 535Z" fill="#F6C73B"/>
<path d="M156 535L180 575L185.5 537L190.5 575L212 535L197 583H172.5L156 535Z" fill="#F6C73B"/>
<path d="M212 636L188 596L182.5 634L177.5 596L156 636L171 588H195.5L212 636Z" fill="#F6C73B" fill-opacity="0.21"/>
<path d="M279 636L255 596L249.5 634L244.5 596L223 636L238 588H262.5L279 636Z" fill="#F6C73B" fill-opacity="0.21"/>
<path d="M89 535L113 575L118.5 537L123.5 575L145 535L130 583H105.5L89 535Z" fill="#F6C73B"/>
<path d="M145 636L121 596L115.5 634L110.5 596L89 636L104 588H128.5L145 636Z" fill="#F6C73B" fill-opacity="0.21"/>
<ellipse cx="1072" cy="615.5" rx="225" ry="8.5" fill="#F6C73B" fill-opacity="0.27"/>
</g>
</g>
<defs>
<linearGradient id="paint0_linear_1753_9933" x1="720" y1="-207.191" x2="999" y2="899.5" gradientUnits="userSpaceOnUse">
<stop offset="0.0905943" stop-color="#F7F3E6" stop-opacity="0.19"/>
<stop offset="0.997694" stop-color="#EEDBA5"/>
</linearGradient>
<linearGradient id="paint1_linear_1753_9933" x1="720" y1="-207.191" x2="999" y2="899.5" gradientUnits="userSpaceOnUse">
<stop offset="0.0905943" stop-color="#F7F3E6" stop-opacity="0.19"/>
<stop offset="0.997694" stop-color="#EEDBA5"/>
</linearGradient>
<clipPath id="clip0_1753_9933">
<rect width="1440" height="713" rx="5" fill="white"/>
</clipPath>
<clipPath id="clip1_1753_9933">
<rect width="1440" height="713" rx="5" fill="white"/>
</clipPath>
<clipPath id="clip2_1753_9933">
<rect width="1440" height="713" rx="5" fill="white"/>
</clipPath>
<clipPath id="clip3_1753_9933">
<rect width="1440" height="713" rx="5" fill="white"/>
</clipPath>
</defs>
</svg>
