<svg width="" height="" viewBox="0 0 401 366" fill="none" xmlns="http://www.w3.org/2000/svg">
<g clip-path="url(#clip0_302_5626)">
<path d="M305.566 86.9755H303.508V31.885C303.508 23.4286 300.071 15.3185 293.952 9.3389C287.833 3.35931 279.534 0 270.881 0H151.45C142.797 0 134.498 3.35931 128.38 9.3389C122.261 15.3185 118.823 23.4286 118.823 31.885V334.115C118.823 342.571 122.261 350.681 128.38 356.661C134.498 362.641 142.797 366 151.45 366H270.883C279.536 366 287.835 362.641 293.954 356.661C300.073 350.681 303.51 342.571 303.51 334.115V126.19H305.566V86.9755Z" fill="#3F3D56"/>
<path d="M296.858 29.7514V336.25C296.857 342.662 294.251 348.81 289.612 353.344C284.974 357.878 278.682 360.427 272.122 360.429H150.235C143.671 360.43 137.376 357.882 132.734 353.348C128.093 348.813 125.484 342.662 125.483 336.247V29.7514C125.485 23.3377 128.094 17.1874 132.735 12.6532C137.377 8.11894 143.672 5.57212 150.235 5.57283H165.02C164.294 7.31757 164.018 9.20987 164.215 11.0834C164.413 12.9569 165.079 14.7543 166.154 16.3176C167.229 17.8809 168.68 19.1621 170.38 20.0489C172.081 20.9356 173.978 21.4005 175.905 21.4028H245.394C247.321 21.4003 249.218 20.9351 250.919 20.0481C252.619 19.1612 254.07 17.8796 255.145 16.3161C256.22 14.7526 256.885 12.955 257.082 11.0813C257.28 9.20769 257.003 7.31536 256.277 5.57068H272.115C278.675 5.57182 284.967 8.1189 289.606 12.652C294.246 17.185 296.853 23.333 296.856 29.7444L296.858 29.7514Z" fill="#E6E6E6"/>
<path d="M283.871 344.43H138.47C137.229 344.429 136.039 343.946 135.161 343.089C134.284 342.231 133.79 341.068 133.789 339.855V41.1349C133.79 39.922 134.284 38.7591 135.161 37.9014C136.039 37.0437 137.229 36.5613 138.47 36.5599H283.871C285.112 36.5613 286.302 37.0437 287.18 37.9014C288.058 38.7591 288.551 39.922 288.553 41.1349V339.855C288.551 341.068 288.058 342.231 287.18 343.089C286.302 343.946 285.112 344.429 283.871 344.43Z" fill="white"/>
<path d="M210.62 137.415C232.744 137.415 250.68 119.887 250.68 98.2658C250.68 76.6444 232.744 59.1168 210.62 59.1168C188.495 59.1168 170.56 76.6444 170.56 98.2658C170.56 119.887 188.495 137.415 210.62 137.415Z" fill="#E6E6E6"/>
<path d="M210.069 132.115C229.198 132.115 244.706 116.96 244.706 98.2659C244.706 79.5716 229.198 64.4169 210.069 64.4169C190.94 64.4169 175.432 79.5716 175.432 98.2659C175.432 116.96 190.94 132.115 210.069 132.115Z" fill="white"/>
<path d="M210.84 79.067C206.935 79.067 203.117 80.1989 199.869 82.3195C196.621 84.4401 194.09 87.4541 192.596 90.9806C191.101 94.507 190.71 98.3874 191.472 102.131C192.234 105.875 194.115 109.313 196.876 112.012C199.638 114.711 203.157 116.549 206.988 117.294C210.819 118.039 214.789 117.657 218.398 116.196C222.006 114.735 225.09 112.262 227.26 109.088C229.43 105.914 230.589 102.183 230.589 98.3659C230.589 93.2476 228.508 88.3388 224.804 84.7195C221.101 81.1003 216.078 79.067 210.84 79.067ZM210.84 84.8568C212.012 84.8568 213.158 85.1964 214.132 85.8326C215.106 86.4688 215.866 87.373 216.314 88.4309C216.762 89.4889 216.88 90.653 216.651 91.7761C216.423 92.8992 215.858 93.9309 215.03 94.7406C214.201 95.5503 213.145 96.1017 211.996 96.3251C210.847 96.5485 209.656 96.4339 208.573 95.9957C207.491 95.5574 206.565 94.8154 205.914 93.8632C205.263 92.9111 204.916 91.7917 204.916 90.6466C204.916 89.8863 205.069 89.1334 205.367 88.4309C205.665 87.7285 206.101 87.0902 206.651 86.5526C207.201 86.0149 207.854 85.5885 208.573 85.2975C209.292 85.0066 210.062 84.8568 210.84 84.8568ZM210.84 112.729C208.5 112.718 206.198 112.15 204.133 111.073C202.068 109.996 200.303 108.443 198.991 106.549C199.086 102.69 206.89 100.565 210.84 100.565C214.79 100.565 222.594 102.69 222.69 106.549C221.377 108.442 219.611 109.995 217.547 111.071C215.482 112.148 213.181 112.718 210.84 112.73V112.729Z" fill="#F6C73B"/>
<path d="M243.681 150.571H174.374V155.662H243.681V150.571Z" fill="#E6E6E6"/>
<path d="M252.324 163.799H165.101V168.89H252.324V163.799Z" fill="#E6E6E6"/>
<path d="M272.607 201.796H149.735V321.873H272.607V201.796Z" fill="#E6E6E6"/>
<path d="M269.362 204.337H151.688V319.333H269.362V204.337Z" fill="white"/>
<path d="M221.728 215.437H175.922V218.802H221.728V215.437Z" fill="#E6E6E6"/>
<path d="M246.656 225.315H175.922V228.68H246.656V225.315Z" fill="#F6C73B"/>
<path d="M234.304 234.722H176.657V238.086H234.304V234.722Z" fill="#E6E6E6"/>
<path d="M209.575 245.043H175.922V248.407H209.575V245.043Z" fill="#E6E6E6"/>
<path d="M226.713 255.125H175.922V258.489H226.713V255.125Z" fill="#F6C73B"/>
<path d="M221.728 265.269H175.922V268.634H221.728V265.269Z" fill="#E6E6E6"/>
<path d="M246.656 275.146H175.922V278.511H246.656V275.146Z" fill="#F6C73B"/>
<path d="M234.304 284.553H176.657V287.918H234.304V284.553Z" fill="#E6E6E6"/>
<path d="M209.575 294.875H175.922V298.239H209.575V294.875Z" fill="#E6E6E6"/>
<path d="M226.713 304.957H175.922V308.321H226.713V304.957Z" fill="#E6E6E6"/>
<path d="M381.551 261.058C381.223 261.618 380.785 262.11 380.263 262.505C379.741 262.9 379.144 263.19 378.507 263.36C377.87 263.529 377.205 263.575 376.55 263.493C375.895 263.412 375.263 263.205 374.689 262.885C374.116 262.564 373.613 262.137 373.209 261.626C372.805 261.116 372.507 260.533 372.334 259.91C372.16 259.288 372.114 258.638 372.197 257.998C372.281 257.357 372.492 256.74 372.82 256.179C372.831 256.16 372.843 256.141 372.854 256.122C372.995 255.892 373.153 255.672 373.328 255.465L369.098 226.003L368.971 225.12L368.112 219.108L367.985 218.241L368.454 218.263L376.649 218.629L378.846 218.726L379.122 224.21L380.68 255.046C381.495 255.807 382.023 256.814 382.181 257.904C382.339 258.995 382.117 260.106 381.551 261.058Z" fill="#FFB8B8"/>
<path d="M368.996 225.387L379.402 224.454C379.942 224.404 380.44 224.148 380.787 223.741C381.134 223.334 381.302 222.809 381.255 222.281L379.327 201.133C379.235 200.124 378.941 199.143 378.461 198.246C377.981 197.349 377.324 196.552 376.529 195.903C375.734 195.253 374.816 194.763 373.828 194.461C372.839 194.158 371.799 194.048 370.767 194.138C369.735 194.228 368.731 194.516 367.813 194.985C366.894 195.455 366.08 196.096 365.415 196.873C364.75 197.649 364.249 198.547 363.939 199.513C363.629 200.479 363.517 201.496 363.609 202.504C363.623 202.65 363.64 202.795 363.662 202.94L366.783 223.683C366.854 224.159 367.098 224.593 367.47 224.907C367.842 225.221 368.317 225.395 368.808 225.395C368.871 225.396 368.933 225.394 368.996 225.387Z" fill="#F6C73B"/>
<path d="M376.884 208.302C377.936 205.388 377.985 202.218 377.022 199.275C376.06 196.332 374.139 193.777 371.553 192C367.628 189.376 362.259 188.434 356.476 195.162C344.91 208.618 341.88 223.419 341.88 223.419L365.563 227.187C365.563 227.187 373.617 217.566 376.884 208.302Z" fill="#F6C73B"/>
<path d="M338.58 359.872H331.827L328.615 334.42H338.581L338.58 359.872Z" fill="#FFB8B8"/>
<path d="M318.807 365.998H340.029V357.986H327.006C324.832 357.986 322.746 358.83 321.209 360.333C319.671 361.835 318.807 363.873 318.807 365.998Z" fill="#2F2E41"/>
<path d="M394.093 354.116L387.683 356.187L376.458 333.007L385.92 329.95L394.093 354.116Z" fill="#FFB8B8"/>
<path d="M377.286 365.998L397.435 359.49L394.862 351.882L382.498 355.876C381.475 356.206 380.53 356.73 379.714 357.417C378.899 358.105 378.23 358.942 377.747 359.882C377.263 360.822 376.973 361.846 376.894 362.896C376.815 363.945 376.948 364.999 377.286 365.998Z" fill="#2F2E41"/>
<path d="M362.017 185.326C369.488 185.326 375.544 179.407 375.544 172.106C375.544 164.805 369.488 158.887 362.017 158.887C354.546 158.887 348.49 164.805 348.49 172.106C348.49 179.407 354.546 185.326 362.017 185.326Z" fill="#FFB8B8"/>
<path d="M350.173 352.787L356.443 312.341C356.51 311.91 356.729 311.514 357.061 311.222C357.393 310.93 357.819 310.761 358.265 310.741C358.711 310.722 359.151 310.855 359.508 311.118C359.865 311.38 360.118 311.755 360.223 312.18L369.772 350.724C369.922 351.314 370.293 351.829 370.812 352.166C371.33 352.503 371.959 352.638 372.574 352.546L398.914 348.409C399.264 348.354 399.597 348.227 399.892 348.036C400.187 347.845 400.436 347.594 400.623 347.301C400.811 347.008 400.932 346.679 400.979 346.336C401.025 345.993 400.996 345.645 400.893 345.314L366.547 234.653C366.45 234.338 366.438 234.004 366.514 233.684L367.657 228.84C367.783 228.315 367.725 227.764 367.492 227.275C367.26 226.786 366.867 226.387 366.375 226.141C361.698 223.809 349.853 218.961 340.913 224.272C340.623 224.445 340.372 224.673 340.175 224.944C339.978 225.215 339.84 225.522 339.768 225.847L312.937 349.086C312.864 349.422 312.865 349.768 312.939 350.103C313.013 350.438 313.159 350.753 313.367 351.029C313.575 351.305 313.841 351.534 314.147 351.702C314.452 351.87 314.791 351.973 315.14 352.003L347.501 354.835C347.575 354.842 347.648 354.845 347.722 354.845C348.314 354.844 348.887 354.636 349.336 354.258C349.785 353.881 350.082 353.359 350.171 352.786L350.173 352.787Z" fill="#2F2E41"/>
<path d="M370.987 162.766C369.967 162.167 369.062 161.398 368.313 160.495C367.943 160.039 367.699 159.497 367.606 158.922C367.512 158.347 367.572 157.758 367.778 157.212C368.462 155.738 370.493 155.274 372.067 155.774C373.641 156.274 374.856 157.482 376.006 158.645C377.019 159.667 378.061 160.74 378.54 162.085C379.018 163.43 378.773 165.135 377.578 165.952C376.405 166.753 374.719 166.425 373.591 165.565C372.463 164.705 371.764 163.428 371.098 162.19L370.987 162.766Z" fill="#2F2E41"/>
<path d="M375.568 159C375.643 155.275 379.988 152.604 383.74 153.264C387.492 153.925 390.376 157.051 391.82 160.499C394.87 167.784 392.58 176.096 389.641 183.428C386.703 190.759 383.065 198.196 383.494 206.057C383.785 210.305 385.243 214.398 387.717 217.903C390.19 221.409 393.587 224.196 397.547 225.971C393.313 227.847 388.251 225.909 384.693 222.985C376.791 216.491 373.74 204.93 377.444 195.512C379.271 190.866 382.491 186.892 385.005 182.564C387.518 178.236 389.363 173.135 388.065 168.323C386.766 163.51 381.243 159.615 376.522 161.476L375.568 159Z" fill="#2F2E41"/>
<path d="M361.206 177.973C362.385 176.025 363.574 173.469 361.419 171.766C360.951 171.413 360.414 171.155 359.842 171.007C359.27 170.859 358.673 170.824 358.087 170.905C355.657 171.192 353.011 171.309 350.659 170.447C349.776 170.15 348.964 169.683 348.27 169.074C347.576 168.464 347.015 167.725 346.619 166.899C345.407 164.087 346.925 160.671 349.463 158.893C351.016 157.846 352.851 157.269 354.738 157.237C356.625 157.204 358.48 157.716 360.07 158.71C363.358 157.291 367.347 157.922 370.335 159.876C373.322 161.829 375.366 164.958 376.476 168.299C377.499 171.175 377.675 174.273 376.984 177.242C376.429 179.307 375.372 181.211 373.903 182.792C372.435 184.374 370.598 185.586 368.549 186.327C367.751 186.634 366.884 186.732 366.035 186.609C365.186 186.486 364.385 186.147 363.712 185.627C363.712 185.627 361.848 184.036 361.265 182.121C360.816 180.648 360.576 179.013 361.206 177.973Z" fill="#2F2E41"/>
<path d="M321.076 189.769C321.144 190.059 321.188 190.354 321.208 190.651L344.867 203.99L350.617 200.755L356.748 208.598L347.137 215.292C346.36 215.833 345.425 216.113 344.472 216.091C343.519 216.068 342.598 215.744 341.85 215.166L317.451 196.357C316.35 196.756 315.15 196.817 314.012 196.534C312.874 196.25 311.852 195.634 311.08 194.768C310.309 193.903 309.826 192.828 309.695 191.687C309.564 190.547 309.792 189.394 310.348 188.383C310.904 187.372 311.761 186.55 312.807 186.027C313.852 185.504 315.036 185.304 316.2 185.455C317.364 185.605 318.454 186.099 319.325 186.869C320.195 187.64 320.805 188.651 321.073 189.769H321.076Z" fill="#FFB8B8"/>
<path d="M345.658 204.622L353.305 214.307C353.522 214.582 353.798 214.808 354.113 214.97C354.428 215.132 354.775 215.225 355.13 215.244C355.486 215.263 355.841 215.207 356.172 215.08C356.504 214.953 356.803 214.758 357.05 214.507L365.706 205.723C367.171 204.658 368.143 203.067 368.408 201.302C368.673 199.536 368.209 197.74 367.119 196.309C366.029 194.877 364.402 193.928 362.595 193.669C360.788 193.41 358.951 193.863 357.486 194.928C357.411 194.983 357.337 195.039 357.265 195.096L346.408 201.028C346.097 201.198 345.828 201.432 345.618 201.713C345.407 201.994 345.262 202.316 345.19 202.657C345.119 202.998 345.124 203.35 345.204 203.689C345.285 204.028 345.439 204.346 345.656 204.622L345.658 204.622Z" fill="#F6C73B"/>
<path d="M68.1298 227.704C67.8596 227.825 67.5998 227.966 67.3527 228.127L42.6499 217.824L41.7687 211.465L31.8979 211.406L32.4812 225.992L65.0863 234.419C65.155 234.641 65.2374 234.858 65.3331 235.07C65.8045 236.053 66.5626 236.878 67.5123 237.441C68.4619 238.004 69.5607 238.281 70.6707 238.236C71.7807 238.191 72.8523 237.827 73.751 237.188C74.6497 236.55 75.3354 235.667 75.722 234.649C76.1087 233.631 76.1789 232.525 75.924 231.468C75.6691 230.411 75.1004 229.452 74.2893 228.71C73.4782 227.968 72.4609 227.477 71.3651 227.298C70.2694 227.12 69.144 227.261 68.1304 227.706L68.1298 227.704Z" fill="#A0616A"/>
<path d="M28.3082 359.872H35.0606L38.2726 334.42H28.3071L28.3082 359.872Z" fill="#A0616A"/>
<path d="M39.8836 357.987H26.8613V365.997H48.0827C48.0827 363.872 47.2189 361.834 45.6813 360.331C44.1436 358.828 42.0581 357.984 39.8836 357.984V357.987Z" fill="#2F2E41"/>
<path d="M2.04785 358.008L8.76716 358.654L14.5177 333.632L4.60009 332.68L2.04785 358.008Z" fill="#A0616A"/>
<path d="M13.7606 357.242L0.80352 355.995L0 363.967L21.1147 365.999C21.2203 364.952 21.1137 363.895 20.8012 362.889C20.4887 361.882 19.9764 360.945 19.2935 360.132C18.6105 359.319 17.7703 358.645 16.8209 358.149C15.8715 357.653 14.832 357.345 13.7606 357.242Z" fill="#2F2E41"/>
<path d="M26.4286 184.469C33.8995 184.469 39.9559 178.55 39.9559 171.249C39.9559 163.948 33.8995 158.03 26.4286 158.03C18.9577 158.03 12.9014 163.948 12.9014 171.249C12.9014 178.55 18.9577 184.469 26.4286 184.469Z" fill="#A0616A"/>
<path d="M36.5697 354.725C37.1502 354.726 37.7125 354.527 38.1574 354.163C38.6023 353.799 38.9012 353.292 39.0013 352.734C42.4937 333.777 53.9203 271.783 54.1935 270.065C54.1996 270.025 54.2026 269.985 54.2023 269.945V265.323C54.2028 265.154 54.149 264.99 54.0487 264.853L52.5396 262.788C52.4678 262.688 52.3737 262.606 52.2645 262.548C52.1553 262.49 52.0338 262.456 51.9095 262.451C43.3055 262.057 15.1274 260.902 13.7659 262.564C12.3989 264.232 12.8847 269.295 12.9948 270.293L12.9893 270.397L0.330075 349.517C0.230911 350.148 0.390009 350.792 0.772938 351.309C1.15587 351.826 1.73182 352.176 2.37615 352.281L10.2829 353.554C10.8718 353.646 11.475 353.529 11.9829 353.224C12.4908 352.918 12.8696 352.444 13.0505 351.889C15.4959 344.253 23.6962 318.563 26.5381 308.622C26.5563 308.559 26.597 308.505 26.6528 308.47C26.7086 308.434 26.7757 308.42 26.8416 308.429C26.9076 308.438 26.9679 308.47 27.0114 308.52C27.0549 308.569 27.0787 308.632 27.0784 308.697C26.9363 318.173 26.5932 342.349 26.4726 350.699L26.4599 351.598C26.4546 352.207 26.6833 352.796 27.1007 353.248C27.5181 353.7 28.0939 353.983 28.7142 354.04L36.3383 354.715C36.4152 354.722 36.4924 354.725 36.5697 354.725Z" fill="#2F2E41"/>
<path d="M35.0138 189.667C37.3744 191.039 38.7871 193.559 39.5978 196.126C41.0985 200.874 42.0018 205.783 42.2877 210.744L43.1447 225.599L53.7496 264.982C44.558 272.582 39.2563 270.855 26.8829 264.638C14.5095 258.421 13.0962 266.711 13.0962 266.711L10.6222 233.201L7.0874 196.584C7.88099 195.65 8.77921 194.807 9.76521 194.069C13.0325 191.585 16.8339 189.859 20.883 189.02C24.9321 188.181 29.1232 188.251 33.1407 189.224L35.0138 189.667Z" fill="#E6E6E6"/>
<path d="M38.4583 235.657C38.1732 235.762 37.8969 235.888 37.6321 236.034L13.2058 224.085L12.8005 217.613L2.7248 216.934L2.18506 231.688L34.8265 242.238C35.0928 243.356 35.7011 244.368 36.5704 245.139C37.4398 245.911 38.5289 246.406 39.693 246.558C40.8571 246.71 42.041 246.512 43.0871 245.99C44.1332 245.469 44.992 244.648 45.5492 243.638C46.1065 242.627 46.3357 241.475 46.2065 240.334C46.0772 239.194 45.5956 238.118 44.8258 237.252C44.0559 236.385 43.0342 235.768 41.8966 235.483C40.7591 235.197 39.5596 235.257 38.4577 235.654L38.4583 235.657Z" fill="#A0616A"/>
<path d="M7.26379 196.749C1.25443 198.822 0.195312 221.278 0.195312 221.278C7.26545 217.478 15.7494 223.697 15.7494 223.697C15.7494 223.697 17.5168 217.823 19.6378 210.224C20.2782 208.086 20.3548 205.825 19.8604 203.65C19.366 201.476 18.3167 199.459 16.8102 197.787C16.8102 197.787 13.2737 194.675 7.26379 196.749Z" fill="#E6E6E6"/>
<path d="M14.3019 174.746C15.9873 173.428 18.2867 175.822 18.2867 175.822L19.6349 163.965C19.6349 163.965 28.0616 164.951 33.4558 163.635C38.8499 162.319 39.692 168.412 39.692 168.412C39.9701 165.951 40.0265 163.471 39.8606 161C39.5235 158.035 35.1416 155.07 27.3886 153.094C19.6355 151.117 15.5907 159.682 15.5907 159.682C10.1944 162.317 12.6144 176.064 14.3019 174.746Z" fill="#2F2E41"/>
</g>
<defs>
<clipPath id="clip0_302_5626">
<rect width="401" height="366" fill="white"/>
</clipPath>
</defs>
</svg>
