<svg width="1440" height="1169" viewBox="0 0 1440 1169" fill="none" xmlns="http://www.w3.org/2000/svg">
<g opacity="0.3" clip-path="url(#clip0_201_2219)">
<path d="M329.592 797.515C346.638 797.515 360.457 780.563 360.457 759.653C360.457 738.743 346.638 721.791 329.592 721.791C312.545 721.791 298.727 738.743 298.727 759.653C298.727 780.563 312.545 797.515 329.592 797.515Z" fill="#A7233A" fill-opacity="0.3"/>
<path d="M638.241 867.63C647.08 867.63 654.245 858.84 654.245 847.998C654.245 837.155 647.08 828.366 638.241 828.366C629.403 828.366 622.237 837.155 622.237 847.998C622.237 858.84 629.403 867.63 638.241 867.63Z" fill="#A7233A" fill-opacity="0.3"/>
<path d="M552.506 835.377C561.976 835.377 569.653 825.96 569.653 814.343C569.653 802.726 561.976 793.309 552.506 793.309C543.035 793.309 535.358 802.726 535.358 814.343C535.358 825.96 543.035 835.377 552.506 835.377Z" fill="#A7233A" fill-opacity="0.3"/>
<path d="M806.284 794.71C821.436 794.71 833.72 779.643 833.72 761.056C833.72 742.469 821.436 727.401 806.284 727.401C791.132 727.401 778.849 742.469 778.849 761.056C778.849 779.643 791.132 794.71 806.284 794.71Z" fill="#A7233A" fill-opacity="0.3"/>
<path d="M1199.53 620.827C1210.26 620.827 1218.96 610.154 1218.96 596.988C1218.96 583.822 1210.26 573.149 1199.53 573.149C1188.79 573.149 1180.09 583.822 1180.09 596.988C1180.09 610.154 1188.79 620.827 1199.53 620.827Z" fill="#A7233A" fill-opacity="0.3"/>
<path d="M1157.23 230.993C1167.96 230.993 1176.66 220.32 1176.66 207.155C1176.66 193.989 1167.96 183.316 1157.23 183.316C1146.5 183.316 1137.8 193.989 1137.8 207.155C1137.8 220.32 1146.5 230.993 1157.23 230.993Z" fill="#A7233A" fill-opacity="0.3"/>
<path d="M438.19 361.405C453.343 361.405 465.626 346.338 465.626 327.751C465.626 309.164 453.343 294.096 438.19 294.096C423.038 294.096 410.755 309.164 410.755 327.751C410.755 346.338 423.038 361.405 438.19 361.405Z" fill="#A7233A" fill-opacity="0.3"/>
<path d="M863.442 329.152C873.543 329.152 881.732 319.107 881.732 306.716C881.732 294.324 873.543 284.279 863.442 284.279C853.34 284.279 845.151 294.324 845.151 306.716C845.151 319.107 853.34 329.152 863.442 329.152Z" fill="#A7233A" fill-opacity="0.3"/>
<path d="M553.649 929.33C568.17 929.33 579.941 914.89 579.941 897.077C579.941 879.265 568.17 864.825 553.649 864.825C539.128 864.825 527.356 879.265 527.356 897.077C527.356 914.89 539.128 929.33 553.649 929.33Z" fill="#A7233A" fill-opacity="0.3"/>
<path d="M1032.63 653.08C1047.15 653.08 1058.92 638.64 1058.92 620.828C1058.92 603.015 1047.15 588.575 1032.63 588.575C1018.11 588.575 1006.33 603.015 1006.33 620.828C1006.33 638.64 1018.11 653.08 1032.63 653.08Z" fill="#A7233A" fill-opacity="0.3"/>
<path d="M974.327 825.561C987.585 825.561 998.333 812.377 998.333 796.113C998.333 779.85 987.585 766.665 974.327 766.665C961.069 766.665 950.321 779.85 950.321 796.113C950.321 812.377 961.069 825.561 974.327 825.561Z" fill="#A7233A" fill-opacity="0.3"/>
<path d="M595.945 344.577C611.728 344.577 624.524 328.881 624.524 309.52C624.524 290.158 611.728 274.462 595.945 274.462C580.161 274.462 567.366 290.158 567.366 309.52C567.366 328.881 580.161 344.577 595.945 344.577Z" fill="#A7233A" fill-opacity="0.3"/>
<path d="M587.943 629.241C598.045 629.241 606.234 619.196 606.234 606.804C606.234 594.413 598.045 584.368 587.943 584.368C577.842 584.368 569.653 594.413 569.653 606.804C569.653 619.196 577.842 629.241 587.943 629.241Z" fill="#A7233A" fill-opacity="0.3"/>
<path d="M240.427 606.805C249.897 606.805 257.574 597.388 257.574 585.771C257.574 574.154 249.897 564.736 240.427 564.736C230.956 564.736 223.279 574.154 223.279 585.771C223.279 597.388 230.956 606.805 240.427 606.805Z" fill="#A7233A" fill-opacity="0.3"/>
<path d="M1005.19 531.081C1014.03 531.081 1021.2 522.292 1021.2 511.449C1021.2 500.607 1014.03 491.817 1005.19 491.817C996.353 491.817 989.188 500.607 989.188 511.449C989.188 522.292 996.353 531.081 1005.19 531.081Z" fill="#A7233A" fill-opacity="0.3"/>
<path d="M688.54 683.93C703.692 683.93 715.976 668.862 715.976 650.275C715.976 631.688 703.692 616.62 688.54 616.62C673.388 616.62 661.104 631.688 661.104 650.275C661.104 668.862 673.388 683.93 688.54 683.93Z" fill="#A7233A" fill-opacity="0.3"/>
<path d="M776.563 533.886C789.821 533.886 800.569 520.702 800.569 504.438C800.569 488.175 789.821 474.99 776.563 474.99C763.305 474.99 752.557 488.175 752.557 504.438C752.557 520.702 763.305 533.886 776.563 533.886Z" fill="#A7233A" fill-opacity="0.3"/>
<path d="M1132.08 669.908C1140.29 669.908 1146.94 661.747 1146.94 651.679C1146.94 641.611 1140.29 633.449 1132.08 633.449C1123.87 633.449 1117.22 641.611 1117.22 651.679C1117.22 661.747 1123.87 669.908 1132.08 669.908Z" fill="#A7233A" fill-opacity="0.3"/>
<path d="M798.282 909.698C810.909 909.698 821.145 897.141 821.145 881.652C821.145 866.163 810.909 853.606 798.282 853.606C785.656 853.606 775.419 866.163 775.419 881.652C775.419 897.141 785.656 909.698 798.282 909.698Z" fill="#A7233A" fill-opacity="0.3"/>
<path d="M833.72 710.573C845.715 710.573 855.44 698.645 855.44 683.93C855.44 669.215 845.715 657.286 833.72 657.286C821.724 657.286 812 669.215 812 683.93C812 698.645 821.724 710.573 833.72 710.573Z" fill="#A7233A" fill-opacity="0.3"/>
<path d="M1190.38 535.289C1198.59 535.289 1205.24 527.128 1205.24 517.06C1205.24 506.992 1198.59 498.83 1190.38 498.83C1182.17 498.83 1175.52 506.992 1175.52 517.06C1175.52 527.128 1182.17 535.289 1190.38 535.289Z" fill="#A7233A" fill-opacity="0.3"/>
<path d="M443.906 252.026C459.058 252.026 471.342 236.959 471.342 218.372C471.342 199.785 459.058 184.717 443.906 184.717C428.754 184.717 416.471 199.785 416.471 218.372C416.471 236.959 428.754 252.026 443.906 252.026Z" fill="#A7233A" fill-opacity="0.3"/>
<path d="M913.74 648.874C921.947 648.874 928.601 640.712 928.601 630.644C928.601 620.576 921.947 612.414 913.74 612.414C905.532 612.414 898.879 620.576 898.879 630.644C898.879 640.712 905.532 648.874 913.74 648.874Z" fill="#A7233A" fill-opacity="0.3"/>
<path d="M912.597 822.756C922.699 822.756 930.887 812.711 930.887 800.32C930.887 787.928 922.699 777.883 912.597 777.883C902.496 777.883 894.307 787.928 894.307 800.32C894.307 812.711 902.496 822.756 912.597 822.756Z" fill="#A7233A" fill-opacity="0.3"/>
<path d="M519.354 343.175C533.244 343.175 544.504 329.363 544.504 312.325C544.504 295.287 533.244 281.475 519.354 281.475C505.465 281.475 494.205 295.287 494.205 312.325C494.205 329.363 505.465 343.175 519.354 343.175Z" fill="#A7233A" fill-opacity="0.3"/>
<path d="M376.461 484.807C391.614 484.807 403.897 469.74 403.897 451.152C403.897 432.565 391.614 417.498 376.461 417.498C361.309 417.498 349.026 432.565 349.026 451.152C349.026 469.74 361.309 484.807 376.461 484.807Z" fill="#A7233A" fill-opacity="0.3"/>
<path d="M363.886 573.15C379.038 573.15 391.322 558.082 391.322 539.495C391.322 520.908 379.038 505.84 363.886 505.84C348.734 505.84 336.451 520.908 336.451 539.495C336.451 558.082 348.734 573.15 363.886 573.15Z" fill="#A7233A" fill-opacity="0.3"/>
<path d="M1060.06 219.775C1068.27 219.775 1074.92 211.613 1074.92 201.545C1074.92 191.477 1068.27 183.315 1060.06 183.315C1051.86 183.315 1045.2 191.477 1045.2 201.545C1045.2 211.613 1051.86 219.775 1060.06 219.775Z" fill="#A7233A" fill-opacity="0.3"/>
<path d="M1145.8 836.779C1159.06 836.779 1169.81 823.595 1169.81 807.331C1169.81 791.067 1159.06 777.883 1145.8 777.883C1132.54 777.883 1121.79 791.067 1121.79 807.331C1121.79 823.595 1132.54 836.779 1145.8 836.779Z" fill="#A7233A" fill-opacity="0.3"/>
<path d="M1122.94 531.081C1134.3 531.081 1143.51 519.781 1143.51 505.84C1143.51 491.9 1134.3 480.599 1122.94 480.599C1111.57 480.599 1102.36 491.9 1102.36 505.84C1102.36 519.781 1111.57 531.081 1122.94 531.081Z" fill="#A7233A" fill-opacity="0.3"/>
<path d="M707.974 355.796C716.813 355.796 723.978 347.006 723.978 336.164C723.978 325.321 716.813 316.532 707.974 316.532C699.135 316.532 691.97 325.321 691.97 336.164C691.97 347.006 699.135 355.796 707.974 355.796Z" fill="#A7233A" fill-opacity="0.3"/>
<path d="M470.199 845.192C480.301 845.192 488.489 835.147 488.489 822.755C488.489 810.364 480.301 800.319 470.199 800.319C460.098 800.319 451.909 810.364 451.909 822.755C451.909 835.147 460.098 845.192 470.199 845.192Z" fill="#A7233A" fill-opacity="0.3"/>
<path d="M471.342 609.609C483.969 609.609 494.205 597.053 494.205 581.564C494.205 566.075 483.969 553.518 471.342 553.518C458.715 553.518 448.479 566.075 448.479 581.564C448.479 597.053 458.715 609.609 471.342 609.609Z" fill="#A7233A" fill-opacity="0.3"/>
<path d="M383.32 263.244C397.209 263.244 408.469 249.432 408.469 232.394C408.469 215.356 397.209 201.544 383.32 201.544C369.43 201.544 358.17 215.356 358.17 232.394C358.17 249.432 369.43 263.244 383.32 263.244Z" fill="#A7233A" fill-opacity="0.3"/>
<path d="M978.899 958.779C989.001 958.779 997.19 948.733 997.19 936.342C997.19 923.951 989.001 913.906 978.899 913.906C968.798 913.906 960.609 923.951 960.609 936.342C960.609 948.733 968.798 958.779 978.899 958.779Z" fill="#A7233A" fill-opacity="0.3"/>
<path d="M448.479 734.412C459.844 734.412 469.056 723.112 469.056 709.171C469.056 695.231 459.844 683.93 448.479 683.93C437.115 683.93 427.903 695.231 427.903 709.171C427.903 723.112 437.115 734.412 448.479 734.412Z" fill="#A7233A" fill-opacity="0.3"/>
<path d="M675.966 434.324C689.855 434.324 701.115 420.512 701.115 403.474C701.115 386.436 689.855 372.624 675.966 372.624C662.076 372.624 650.816 386.436 650.816 403.474C650.816 420.512 662.076 434.324 675.966 434.324Z" fill="#A7233A" fill-opacity="0.3"/>
<path d="M307.872 378.232C319.236 378.232 328.449 366.931 328.449 352.991C328.449 339.051 319.236 327.75 307.872 327.75C296.508 327.75 287.295 339.051 287.295 352.991C287.295 366.931 296.508 378.232 307.872 378.232Z" fill="#A7233A" fill-opacity="0.3"/>
<path d="M526.213 252.027C541.997 252.027 554.792 236.331 554.792 216.969C554.792 197.608 541.997 181.912 526.213 181.912C510.43 181.912 497.635 197.608 497.635 216.969C497.635 236.331 510.43 252.027 526.213 252.027Z" fill="#A7233A" fill-opacity="0.3"/>
<path d="M509.066 424.509C517.905 424.509 525.07 415.719 525.07 404.877C525.07 394.035 517.905 385.245 509.066 385.245C500.227 385.245 493.062 394.035 493.062 404.877C493.062 415.719 500.227 424.509 509.066 424.509Z" fill="#A7233A" fill-opacity="0.3"/>
<path d="M702.258 850.801C715.516 850.801 726.264 837.617 726.264 821.353C726.264 805.09 715.516 791.906 702.258 791.906C689 791.906 678.252 805.09 678.252 821.353C678.252 837.617 689 850.801 702.258 850.801Z" fill="#A7233A" fill-opacity="0.3"/>
<path d="M542.217 696.55C551.687 696.55 559.364 687.133 559.364 675.516C559.364 663.899 551.687 654.482 542.217 654.482C532.747 654.482 525.07 663.899 525.07 675.516C525.07 687.133 532.747 696.55 542.217 696.55Z" fill="#A7233A" fill-opacity="0.3"/>
<path d="M814.286 423.106C823.757 423.106 831.434 413.688 831.434 402.071C831.434 390.455 823.757 381.037 814.286 381.037C804.816 381.037 797.139 390.455 797.139 402.071C797.139 413.688 804.816 423.106 814.286 423.106Z" fill="#A7233A" fill-opacity="0.3"/>
<path d="M1125.22 950.365C1134.06 950.365 1141.23 941.576 1141.23 930.733C1141.23 919.891 1134.06 911.101 1125.22 911.101C1116.38 911.101 1109.22 919.891 1109.22 930.733C1109.22 941.576 1116.38 950.365 1125.22 950.365Z" fill="#A7233A" fill-opacity="0.3"/>
<path d="M337.594 908.296C345.801 908.296 352.455 900.134 352.455 890.066C352.455 879.998 345.801 871.836 337.594 871.836C329.386 871.836 322.733 879.998 322.733 890.066C322.733 900.134 329.386 908.296 337.594 908.296Z" fill="#A7233A" fill-opacity="0.3"/>
<path d="M411.899 905.492C424.525 905.492 434.762 892.935 434.762 877.446C434.762 861.957 424.525 849.4 411.899 849.4C399.272 849.4 389.036 861.957 389.036 877.446C389.036 892.935 399.272 905.492 411.899 905.492Z" fill="#A7233A" fill-opacity="0.3"/>
<path d="M358.171 704.966C366.378 704.966 373.032 696.804 373.032 686.736C373.032 676.668 366.378 668.506 358.171 668.506C349.964 668.506 343.31 676.668 343.31 686.736C343.31 696.804 349.964 704.966 358.171 704.966Z" fill="#A7233A" fill-opacity="0.3"/>
<path d="M905.738 465.175C913.945 465.175 920.599 457.013 920.599 446.945C920.599 436.877 913.945 428.715 905.738 428.715C897.53 428.715 890.877 436.877 890.877 446.945C890.877 457.013 897.53 465.175 905.738 465.175Z" fill="#A7233A" fill-opacity="0.3"/>
<path d="M244.999 825.561C255.732 825.561 264.432 814.888 264.432 801.722C264.432 788.556 255.732 777.883 244.999 777.883C234.266 777.883 225.565 788.556 225.565 801.722C225.565 814.888 234.266 825.561 244.999 825.561Z" fill="#A7233A" fill-opacity="0.3"/>
<path d="M1026.91 459.565C1042.06 459.565 1054.35 444.497 1054.35 425.91C1054.35 407.323 1042.06 392.255 1026.91 392.255C1011.76 392.255 999.476 407.323 999.476 425.91C999.476 444.497 1011.76 459.565 1026.91 459.565Z" fill="#A7233A" fill-opacity="0.3"/>
<path d="M814.286 235.199C828.807 235.199 840.579 220.759 840.579 202.947C840.579 185.134 828.807 170.694 814.286 170.694C799.766 170.694 787.994 185.134 787.994 202.947C787.994 220.759 799.766 235.199 814.286 235.199Z" fill="#A7233A" fill-opacity="0.3"/>
<path d="M869.157 559.127C884.309 559.127 896.593 544.06 896.593 525.472C896.593 506.885 884.309 491.818 869.157 491.818C854.005 491.818 841.722 506.885 841.722 525.472C841.722 544.06 854.005 559.127 869.157 559.127Z" fill="#A7233A" fill-opacity="0.3"/>
<path d="M946.892 379.635C958.256 379.635 967.468 368.334 967.468 354.394C967.468 340.454 958.256 329.153 946.892 329.153C935.527 329.153 926.315 340.454 926.315 354.394C926.315 368.334 935.527 379.635 946.892 379.635Z" fill="#A7233A" fill-opacity="0.3"/>
<path d="M623.381 235.2C637.902 235.2 649.673 220.76 649.673 202.947C649.673 185.134 637.902 170.694 623.381 170.694C608.86 170.694 597.088 185.134 597.088 202.947C597.088 220.76 608.86 235.2 623.381 235.2Z" fill="#A7233A" fill-opacity="0.3"/>
<path d="M1177.81 435.725C1190.43 435.725 1200.67 423.169 1200.67 407.68C1200.67 392.191 1190.43 379.634 1177.81 379.634C1165.18 379.634 1154.94 392.191 1154.94 407.68C1154.94 423.169 1165.18 435.725 1177.81 435.725Z" fill="#A7233A" fill-opacity="0.3"/>
<path d="M897.736 275.866C911.626 275.866 922.885 262.054 922.885 245.015C922.885 227.977 911.626 214.165 897.736 214.165C883.847 214.165 872.587 227.977 872.587 245.015C872.587 262.054 883.847 275.866 897.736 275.866Z" fill="#A7233A" fill-opacity="0.3"/>
<path d="M551.362 536.69C563.989 536.69 574.225 524.134 574.225 508.645C574.225 493.156 563.989 480.599 551.362 480.599C538.736 480.599 528.5 493.156 528.5 508.645C528.5 524.134 538.736 536.69 551.362 536.69Z" fill="#A7233A" fill-opacity="0.3"/>
<path d="M709.117 982.616C721.112 982.616 730.837 970.687 730.837 955.973C730.837 941.258 721.112 929.329 709.117 929.329C697.121 929.329 687.397 941.258 687.397 955.973C687.397 970.687 697.121 982.616 709.117 982.616Z" fill="#A7233A" fill-opacity="0.3"/>
<path d="M1145.8 361.405C1154.64 361.405 1161.8 352.616 1161.8 341.773C1161.8 330.931 1154.64 322.141 1145.8 322.141C1136.96 322.141 1129.79 330.931 1129.79 341.773C1129.79 352.616 1136.96 361.405 1145.8 361.405Z" fill="#A7233A" fill-opacity="0.3"/>
<path d="M850.867 989.629C866.019 989.629 878.303 974.561 878.303 955.974C878.303 937.387 866.019 922.32 850.867 922.32C835.715 922.32 823.432 937.387 823.432 955.974C823.432 974.561 835.715 989.629 850.867 989.629Z" fill="#A7233A" fill-opacity="0.3"/>
<path d="M1008.62 735.816C1024.41 735.816 1037.2 720.12 1037.2 700.759C1037.2 681.397 1024.41 665.702 1008.62 665.702C992.838 665.702 980.043 681.397 980.043 700.759C980.043 720.12 992.838 735.816 1008.62 735.816Z" fill="#A7233A" fill-opacity="0.3"/>
<path d="M345.596 316.531C356.96 316.531 366.172 305.23 366.172 291.29C366.172 277.35 356.96 266.049 345.596 266.049C334.232 266.049 325.019 277.35 325.019 291.29C325.019 305.23 334.232 316.531 345.596 316.531Z" fill="#A7233A" fill-opacity="0.3"/>
<path d="M309.015 626.437C324.799 626.437 337.594 610.741 337.594 591.38C337.594 572.018 324.799 556.323 309.015 556.323C293.232 556.323 280.437 572.018 280.437 591.38C280.437 610.741 293.232 626.437 309.015 626.437Z" fill="#A7233A" fill-opacity="0.3"/>
<path d="M650.816 529.678C664.706 529.678 675.965 515.866 675.965 498.828C675.965 481.79 664.706 467.978 650.816 467.978C636.927 467.978 625.667 481.79 625.667 498.828C625.667 515.866 636.927 529.678 650.816 529.678Z" fill="#A7233A" fill-opacity="0.3"/>
<path d="M255.287 469.381C269.177 469.381 280.437 455.569 280.437 438.531C280.437 421.493 269.177 407.681 255.287 407.681C241.398 407.681 230.138 421.493 230.138 438.531C230.138 455.569 241.398 469.381 255.287 469.381Z" fill="#A7233A" fill-opacity="0.3"/>
<path d="M493.062 986.824C505.689 986.824 515.925 974.268 515.925 958.778C515.925 943.289 505.689 930.733 493.062 930.733C480.435 930.733 470.199 943.289 470.199 958.778C470.199 974.268 480.435 986.824 493.062 986.824Z" fill="#A7233A" fill-opacity="0.3"/>
<path d="M1200.67 766.664C1208.88 766.664 1215.53 758.503 1215.53 748.435C1215.53 738.367 1208.88 730.205 1200.67 730.205C1192.46 730.205 1185.81 738.367 1185.81 748.435C1185.81 758.503 1192.46 766.664 1200.67 766.664Z" fill="#A7233A" fill-opacity="0.3"/>
<path d="M765.131 331.957C780.283 331.957 792.566 316.89 792.566 298.303C792.566 279.715 780.283 264.648 765.131 264.648C749.979 264.648 737.695 279.715 737.695 298.303C737.695 316.89 749.979 331.957 765.131 331.957Z" fill="#A7233A" fill-opacity="0.3"/>
<path d="M259.86 253.43C275.644 253.43 288.439 237.734 288.439 218.373C288.439 199.011 275.644 183.316 259.86 183.316C244.076 183.316 231.281 199.011 231.281 218.373C231.281 237.734 244.076 253.43 259.86 253.43Z" fill="#A7233A" fill-opacity="0.3"/>
<path d="M1045.2 957.376C1058.46 957.376 1069.21 944.192 1069.21 927.928C1069.21 911.664 1058.46 898.48 1045.2 898.48C1031.94 898.48 1021.2 911.664 1021.2 927.928C1021.2 944.192 1031.94 957.376 1045.2 957.376Z" fill="#A7233A" fill-opacity="0.3"/>
<path d="M1025.77 360.003C1039.66 360.003 1050.92 346.19 1050.92 329.152C1050.92 312.114 1039.66 298.302 1025.77 298.302C1011.88 298.302 1000.62 312.114 1000.62 329.152C1000.62 346.19 1011.88 360.003 1025.77 360.003Z" fill="#A7233A" fill-opacity="0.3"/>
<path d="M286.152 735.815C299.41 735.815 310.158 722.631 310.158 706.367C310.158 690.103 299.41 676.919 286.152 676.919C272.894 676.919 262.146 690.103 262.146 706.367C262.146 722.631 272.894 735.815 286.152 735.815Z" fill="#A7233A" fill-opacity="0.3"/>
<path d="M422.187 999.444C437.97 999.444 450.765 983.748 450.765 964.387C450.765 945.025 437.97 929.33 422.187 929.33C406.403 929.33 393.608 945.025 393.608 964.387C393.608 983.748 406.403 999.444 422.187 999.444Z" fill="#A7233A" fill-opacity="0.3"/>
<path d="M959.466 268.854C975.249 268.854 988.045 253.158 988.045 233.797C988.045 214.435 975.249 198.74 959.466 198.74C943.682 198.74 930.887 214.435 930.887 233.797C930.887 253.158 943.682 268.854 959.466 268.854Z" fill="#A7233A" fill-opacity="0.3"/>
<path d="M1078.35 741.425C1094.14 741.425 1106.93 725.729 1106.93 706.368C1106.93 687.006 1094.14 671.311 1078.35 671.311C1062.57 671.311 1049.77 687.006 1049.77 706.368C1049.77 725.729 1062.57 741.425 1078.35 741.425Z" fill="#A7233A" fill-opacity="0.3"/>
<path d="M720.548 596.988C730.65 596.988 738.839 586.943 738.839 574.551C738.839 562.16 730.65 552.115 720.548 552.115C710.447 552.115 702.258 562.16 702.258 574.551C702.258 586.943 710.447 596.988 720.548 596.988Z" fill="#A7233A" fill-opacity="0.3"/>
<path d="M888.591 748.436C897.43 748.436 904.595 739.646 904.595 728.804C904.595 717.961 897.43 709.172 888.591 709.172C879.752 709.172 872.587 717.961 872.587 728.804C872.587 739.646 879.752 748.436 888.591 748.436Z" fill="#A7233A" fill-opacity="0.3"/>
<path d="M654.246 752.642C664.978 752.642 673.679 741.969 673.679 728.803C673.679 715.637 664.978 704.964 654.246 704.964C643.513 704.964 634.812 715.637 634.812 728.803C634.812 741.969 643.513 752.642 654.246 752.642Z" fill="#A7233A" fill-opacity="0.3"/>
<path d="M1199.53 302.509C1213.42 302.509 1224.68 288.697 1224.68 271.659C1224.68 254.62 1213.42 240.808 1199.53 240.808C1185.64 240.808 1174.38 254.62 1174.38 271.659C1174.38 288.697 1185.64 302.509 1199.53 302.509Z" fill="#A7233A" fill-opacity="0.3"/>
<path d="M607.377 968.594C618.11 968.594 626.81 957.921 626.81 944.755C626.81 931.589 618.11 920.916 607.377 920.916C596.644 920.916 587.943 931.589 587.943 944.755C587.943 957.921 596.644 968.594 607.377 968.594Z" fill="#A7233A" fill-opacity="0.3"/>
<path d="M736.552 228.189C747.285 228.189 755.986 217.516 755.986 204.35C755.986 191.184 747.285 180.511 736.552 180.511C725.819 180.511 717.119 191.184 717.119 204.35C717.119 217.516 725.819 228.189 736.552 228.189Z" fill="#A7233A" fill-opacity="0.3"/>
<path d="M586.8 431.52C599.427 431.52 609.663 418.963 609.663 403.474C609.663 387.985 599.427 375.428 586.8 375.428C574.173 375.428 563.937 387.985 563.937 403.474C563.937 418.963 574.173 431.52 586.8 431.52Z" fill="#A7233A" fill-opacity="0.3"/>
<path d="M1086.36 420.302C1102.14 420.302 1114.93 404.606 1114.93 385.244C1114.93 365.883 1102.14 350.187 1086.36 350.187C1070.57 350.187 1057.78 365.883 1057.78 385.244C1057.78 404.606 1070.57 420.302 1086.36 420.302Z" fill="#A7233A" fill-opacity="0.3"/>
<path d="M483.917 505.841C492.124 505.841 498.777 497.679 498.777 487.611C498.777 477.543 492.124 469.381 483.917 469.381C475.709 469.381 469.056 477.543 469.056 487.611C469.056 497.679 475.709 505.841 483.917 505.841Z" fill="#A7233A" fill-opacity="0.3"/>
<path d="M1068.06 571.747C1077.53 571.747 1085.21 562.33 1085.21 550.713C1085.21 539.096 1077.53 529.679 1068.06 529.679C1058.59 529.679 1050.92 539.096 1050.92 550.713C1050.92 562.33 1058.59 571.747 1068.06 571.747Z" fill="#A7233A" fill-opacity="0.3"/>
<path d="M1198.38 958.778C1212.9 958.778 1224.68 944.338 1224.68 926.525C1224.68 908.713 1212.9 894.273 1198.38 894.273C1183.86 894.273 1172.09 908.713 1172.09 926.525C1172.09 944.338 1183.86 958.778 1198.38 958.778Z" fill="#A7233A" fill-opacity="0.3"/>
<path d="M384.463 396.462C398.353 396.462 409.612 382.65 409.612 365.612C409.612 348.574 398.353 334.762 384.463 334.762C370.574 334.762 359.314 348.574 359.314 365.612C359.314 382.65 370.574 396.462 384.463 396.462Z" fill="#A7233A" fill-opacity="0.3"/>
<path d="M411.898 671.311C426.419 671.311 438.191 656.871 438.191 639.058C438.191 621.245 426.419 606.806 411.898 606.806C397.377 606.806 385.606 621.245 385.606 639.058C385.606 656.871 397.377 671.311 411.898 671.311Z" fill="#A7233A" fill-opacity="0.3"/>
<path d="M406.183 831.17C419.441 831.17 430.189 817.986 430.189 801.722C430.189 785.458 419.441 772.274 406.183 772.274C392.925 772.274 382.177 785.458 382.177 801.722C382.177 817.986 392.925 831.17 406.183 831.17Z" fill="#A7233A" fill-opacity="0.3"/>
<path d="M783.421 623.632C798.574 623.632 810.857 608.564 810.857 589.977C810.857 571.39 798.574 556.322 783.421 556.322C768.269 556.322 755.986 571.39 755.986 589.977C755.986 608.564 768.269 623.632 783.421 623.632Z" fill="#A7233A" fill-opacity="0.3"/>
<path d="M1041.77 884.458C1056.92 884.458 1069.21 869.39 1069.21 850.803C1069.21 832.216 1056.92 817.148 1041.77 817.148C1026.62 817.148 1014.34 832.216 1014.34 850.803C1014.34 869.39 1026.62 884.458 1041.77 884.458Z" fill="#A7233A" fill-opacity="0.3"/>
<path d="M731.98 768.068C740.818 768.068 747.984 759.278 747.984 748.436C747.984 737.593 740.818 728.804 731.98 728.804C723.141 728.804 715.976 737.593 715.976 748.436C715.976 759.278 723.141 768.068 731.98 768.068Z" fill="#A7233A" fill-opacity="0.3"/>
<path d="M669.106 294.095C679.208 294.095 687.397 284.05 687.397 271.658C687.397 259.267 679.208 249.222 669.106 249.222C659.005 249.222 650.816 259.267 650.816 271.658C650.816 284.05 659.005 294.095 669.106 294.095Z" fill="#A7233A" fill-opacity="0.3"/>
<path d="M295.297 981.215C309.187 981.215 320.446 967.403 320.446 950.365C320.446 933.327 309.187 919.515 295.297 919.515C281.408 919.515 270.148 933.327 270.148 950.365C270.148 967.403 281.408 981.215 295.297 981.215Z" fill="#A7233A" fill-opacity="0.3"/>
<path d="M918.312 982.617C933.465 982.617 945.748 967.549 945.748 948.962C945.748 930.375 933.465 915.307 918.312 915.307C903.16 915.307 890.877 930.375 890.877 948.962C890.877 967.549 903.16 982.617 918.312 982.617Z" fill="#A7233A" fill-opacity="0.3"/>
<path d="M737.696 445.542C750.954 445.542 761.702 432.358 761.702 416.094C761.702 399.83 750.954 386.646 737.696 386.646C724.437 386.646 713.689 399.83 713.689 416.094C713.689 432.358 724.437 445.542 737.696 445.542Z" fill="#A7233A" fill-opacity="0.3"/>
<path d="M754.843 690.942C769.995 690.942 782.278 675.874 782.278 657.287C782.278 638.7 769.995 623.632 754.843 623.632C739.691 623.632 727.407 638.7 727.407 657.287C727.407 675.874 739.691 690.942 754.843 690.942Z" fill="#A7233A" fill-opacity="0.3"/>
<path d="M1085.21 811.538C1094.05 811.538 1101.22 802.749 1101.22 791.906C1101.22 781.064 1094.05 772.274 1085.21 772.274C1076.37 772.274 1069.21 781.064 1069.21 791.906C1069.21 802.749 1076.37 811.538 1085.21 811.538Z" fill="#A7233A" fill-opacity="0.3"/>
<path d="M975.47 598.391C984.941 598.391 992.618 588.974 992.618 577.357C992.618 565.74 984.941 556.323 975.47 556.323C966 556.323 958.323 565.74 958.323 577.357C958.323 588.974 966 598.391 975.47 598.391Z" fill="#A7233A" fill-opacity="0.3"/>
<path d="M510.209 780.687C525.361 780.687 537.644 765.62 537.644 747.033C537.644 728.445 525.361 713.378 510.209 713.378C495.057 713.378 482.773 728.445 482.773 747.033C482.773 765.62 495.057 780.687 510.209 780.687Z" fill="#A7233A" fill-opacity="0.3"/>
<path d="M253.001 340.371C266.259 340.371 277.007 327.187 277.007 310.923C277.007 294.659 266.259 281.475 253.001 281.475C239.743 281.475 228.995 294.659 228.995 310.923C228.995 327.187 239.743 340.371 253.001 340.371Z" fill="#A7233A" fill-opacity="0.3"/>
<path d="M860.012 899.882C874.533 899.882 886.305 885.442 886.305 867.629C886.305 849.817 874.533 835.377 860.012 835.377C845.491 835.377 833.72 849.817 833.72 867.629C833.72 885.442 845.491 899.882 860.012 899.882Z" fill="#A7233A" fill-opacity="0.3"/>
<path d="M302.156 535.288C316.677 535.288 328.449 520.848 328.449 503.035C328.449 485.223 316.677 470.783 302.156 470.783C287.635 470.783 275.864 485.223 275.864 503.035C275.864 520.848 287.635 535.288 302.156 535.288Z" fill="#A7233A" fill-opacity="0.3"/>
<path d="M1106.93 313.727C1122.08 313.727 1134.37 298.66 1134.37 280.073C1134.37 261.485 1122.08 246.418 1106.93 246.418C1091.78 246.418 1079.5 261.485 1079.5 280.073C1079.5 298.66 1091.78 313.727 1106.93 313.727Z" fill="#A7233A" fill-opacity="0.3"/>
<path d="M251.858 919.515C264.485 919.515 274.721 906.958 274.721 891.469C274.721 875.98 264.485 863.423 251.858 863.423C239.231 863.423 228.995 875.98 228.995 891.469C228.995 906.958 239.231 919.515 251.858 919.515Z" fill="#A7233A" fill-opacity="0.3"/>
<path d="M437.047 446.943C452.831 446.943 465.626 431.248 465.626 411.886C465.626 392.525 452.831 376.829 437.047 376.829C421.264 376.829 408.469 392.525 408.469 411.886C408.469 431.248 421.264 446.943 437.047 446.943Z" fill="#A7233A" fill-opacity="0.3"/>
<path d="M358.17 991.03C370.166 991.03 379.89 979.101 379.89 964.386C379.89 949.672 370.166 937.743 358.17 937.743C346.174 937.743 336.45 949.672 336.45 964.386C336.45 979.101 346.174 991.03 358.17 991.03Z" fill="#A7233A" fill-opacity="0.3"/>
<path d="M599.375 790.504C612.633 790.504 623.381 777.32 623.381 761.056C623.381 744.793 612.633 731.608 599.375 731.608C586.117 731.608 575.369 744.793 575.369 761.056C575.369 777.32 586.117 790.504 599.375 790.504Z" fill="#A7233A" fill-opacity="0.3"/>
<path d="M946.891 887.261C956.361 887.261 964.039 877.844 964.039 866.227C964.039 854.61 956.361 845.193 946.891 845.193C937.421 845.193 929.744 854.61 929.744 866.227C929.744 877.844 937.421 887.261 946.891 887.261Z" fill="#A7233A" fill-opacity="0.3"/>
<path d="M781.135 993.834C794.393 993.834 805.141 980.65 805.141 964.386C805.141 948.123 794.393 934.938 781.135 934.938C767.877 934.938 757.129 948.123 757.129 964.386C757.129 980.65 767.877 993.834 781.135 993.834Z" fill="#A7233A" fill-opacity="0.3"/>
<path d="M848.581 619.426C857.42 619.426 864.585 610.636 864.585 599.794C864.585 588.951 857.42 580.162 848.581 580.162C839.742 580.162 832.577 588.951 832.577 599.794C832.577 610.636 839.742 619.426 848.581 619.426Z" fill="#A7233A" fill-opacity="0.3"/>
<path d="M933.174 535.289C941.381 535.289 948.035 527.127 948.035 517.059C948.035 506.991 941.381 498.83 933.174 498.83C924.966 498.83 918.313 506.991 918.313 517.059C918.313 527.127 924.966 535.289 933.174 535.289Z" fill="#A7233A" fill-opacity="0.3"/>
<path d="M651.959 619.425C666.48 619.425 678.252 604.985 678.252 587.172C678.252 569.36 666.48 554.92 651.959 554.92C637.438 554.92 625.667 569.36 625.667 587.172C625.667 604.985 637.438 619.425 651.959 619.425Z" fill="#A7233A" fill-opacity="0.3"/>
</g>
<defs>
<clipPath id="clip0_201_2219">
<rect width="1565" height="1168.19" fill="white" transform="translate(-62)"/>
</clipPath>
</defs>
</svg>
