<svg  viewBox="0 0 1440 1251" fill="none" xmlns="http://www.w3.org/2000/svg">
<g opacity="0.3" clip-path="url(#clip0_238_4297)">
<path d="M299.592 853.376C316.638 853.376 330.457 835.238 330.457 812.863C330.457 790.488 316.638 772.349 299.592 772.349C282.545 772.349 268.727 790.488 268.727 812.863C268.727 835.238 282.545 853.376 299.592 853.376Z" fill="#A7233A" fill-opacity="0.3"/>
<path d="M608.242 928.403C617.081 928.403 624.246 918.998 624.246 907.396C624.246 895.794 617.081 886.389 608.242 886.389C599.404 886.389 592.238 895.794 592.238 907.396C592.238 918.998 599.404 928.403 608.242 928.403Z" fill="#A7233A" fill-opacity="0.3"/>
<path d="M522.505 893.891C531.975 893.891 539.652 883.814 539.652 871.383C539.652 858.953 531.975 848.876 522.505 848.876C513.034 848.876 505.357 858.953 505.357 871.383C505.357 883.814 513.034 893.891 522.505 893.891Z" fill="#A7233A" fill-opacity="0.3"/>
<path d="M776.285 850.376C791.437 850.376 803.721 834.252 803.721 814.363C803.721 794.475 791.437 778.351 776.285 778.351C761.133 778.351 748.85 794.475 748.85 814.363C748.85 834.252 761.133 850.376 776.285 850.376Z" fill="#A7233A" fill-opacity="0.3"/>
<path d="M1169.53 664.313C1180.26 664.313 1188.96 652.892 1188.96 638.804C1188.96 624.716 1180.26 613.295 1169.53 613.295C1158.79 613.295 1150.09 624.716 1150.09 638.804C1150.09 652.892 1158.79 664.313 1169.53 664.313Z" fill="#A7233A" fill-opacity="0.3"/>
<path d="M1127.23 247.173C1137.96 247.173 1146.66 235.753 1146.66 221.665C1146.66 207.577 1137.96 196.156 1127.23 196.156C1116.5 196.156 1107.8 207.577 1107.8 221.665C1107.8 235.753 1116.5 247.173 1127.23 247.173Z" fill="#A7233A" fill-opacity="0.3"/>
<path d="M408.191 386.72C423.344 386.72 435.627 370.597 435.627 350.708C435.627 330.819 423.344 314.696 408.191 314.696C393.039 314.696 380.756 330.819 380.756 350.708C380.756 370.597 393.039 386.72 408.191 386.72Z" fill="#A7233A" fill-opacity="0.3"/>
<path d="M833.443 352.208C843.544 352.208 851.733 341.459 851.733 328.2C851.733 314.94 843.544 304.192 833.443 304.192C823.341 304.192 815.152 314.94 815.152 328.2C815.152 341.459 823.341 352.208 833.443 352.208Z" fill="#A7233A" fill-opacity="0.3"/>
<path d="M523.65 994.424C538.171 994.424 549.942 978.973 549.942 959.913C549.942 940.853 538.171 925.401 523.65 925.401C509.129 925.401 497.357 940.853 497.357 959.913C497.357 978.973 509.129 994.424 523.65 994.424Z" fill="#A7233A" fill-opacity="0.3"/>
<path d="M1002.63 698.825C1017.15 698.825 1028.92 683.374 1028.92 664.313C1028.92 645.253 1017.15 629.802 1002.63 629.802C988.107 629.802 976.336 645.253 976.336 664.313C976.336 683.374 988.107 698.825 1002.63 698.825Z" fill="#A7233A" fill-opacity="0.3"/>
<path d="M944.326 883.387C957.585 883.387 968.332 869.28 968.332 851.877C968.332 834.474 957.585 820.366 944.326 820.366C931.068 820.366 920.32 834.474 920.32 851.877C920.32 869.28 931.068 883.387 944.326 883.387Z" fill="#A7233A" fill-opacity="0.3"/>
<path d="M565.946 368.712C581.729 368.712 594.525 351.917 594.525 331.2C594.525 310.482 581.729 293.687 565.946 293.687C550.162 293.687 537.367 310.482 537.367 331.2C537.367 351.917 550.162 368.712 565.946 368.712Z" fill="#A7233A" fill-opacity="0.3"/>
<path d="M557.943 673.316C568.044 673.316 576.233 662.567 576.233 649.308C576.233 636.048 568.044 625.3 557.943 625.3C547.841 625.3 539.652 636.048 539.652 649.308C539.652 662.567 547.841 673.316 557.943 673.316Z" fill="#A7233A" fill-opacity="0.3"/>
<path d="M210.427 649.308C219.897 649.308 227.574 639.231 227.574 626.801C227.574 614.37 219.897 604.293 210.427 604.293C200.956 604.293 193.279 614.37 193.279 626.801C193.279 639.231 200.956 649.308 210.427 649.308Z" fill="#A7233A" fill-opacity="0.3"/>
<path d="M975.192 568.281C984.03 568.281 991.196 558.875 991.196 547.273C991.196 535.672 984.03 526.266 975.192 526.266C966.353 526.266 959.188 535.672 959.188 547.273C959.188 558.875 966.353 568.281 975.192 568.281Z" fill="#A7233A" fill-opacity="0.3"/>
<path d="M658.541 731.835C673.693 731.835 685.977 715.712 685.977 695.823C685.977 675.934 673.693 659.811 658.541 659.811C643.389 659.811 631.105 675.934 631.105 695.823C631.105 715.712 643.389 731.835 658.541 731.835Z" fill="#A7233A" fill-opacity="0.3"/>
<path d="M746.563 571.282C759.821 571.282 770.569 557.174 770.569 539.772C770.569 522.369 759.821 508.261 746.563 508.261C733.305 508.261 722.557 522.369 722.557 539.772C722.557 557.174 733.305 571.282 746.563 571.282Z" fill="#A7233A" fill-opacity="0.3"/>
<path d="M1102.08 716.832C1110.29 716.832 1116.94 708.098 1116.94 697.325C1116.94 686.552 1110.29 677.819 1102.08 677.819C1093.87 677.819 1087.22 686.552 1087.22 697.325C1087.22 708.098 1093.87 716.832 1102.08 716.832Z" fill="#A7233A" fill-opacity="0.3"/>
<path d="M768.283 973.417C780.91 973.417 791.146 959.981 791.146 943.407C791.146 926.833 780.91 913.397 768.283 913.397C755.656 913.397 745.42 926.833 745.42 943.407C745.42 959.981 755.656 973.417 768.283 973.417Z" fill="#A7233A" fill-opacity="0.3"/>
<path d="M803.72 760.345C815.715 760.345 825.44 747.581 825.44 731.835C825.44 716.09 815.715 703.326 803.72 703.326C791.724 703.326 782 716.09 782 731.835C782 747.581 791.724 760.345 803.72 760.345Z" fill="#A7233A" fill-opacity="0.3"/>
<path d="M1160.38 572.783C1168.59 572.783 1175.24 564.05 1175.24 553.277C1175.24 542.504 1168.59 533.77 1160.38 533.77C1152.17 533.77 1145.52 542.504 1145.52 553.277C1145.52 564.05 1152.17 572.783 1160.38 572.783Z" fill="#A7233A" fill-opacity="0.3"/>
<path d="M413.906 269.68C429.058 269.68 441.342 253.556 441.342 233.667C441.342 213.778 429.058 197.655 413.906 197.655C398.754 197.655 386.471 213.778 386.471 233.667C386.471 253.556 398.754 269.68 413.906 269.68Z" fill="#A7233A" fill-opacity="0.3"/>
<path d="M883.74 694.324C891.947 694.324 898.601 685.59 898.601 674.817C898.601 664.044 891.947 655.311 883.74 655.311C875.532 655.311 868.879 664.044 868.879 674.817C868.879 685.59 875.532 694.324 883.74 694.324Z" fill="#A7233A" fill-opacity="0.3"/>
<path d="M882.597 880.386C892.699 880.386 900.887 869.637 900.887 856.378C900.887 843.119 892.699 832.37 882.597 832.37C872.496 832.37 864.307 843.119 864.307 856.378C864.307 869.637 872.496 880.386 882.597 880.386Z" fill="#A7233A" fill-opacity="0.3"/>
<path d="M489.354 367.213C503.244 367.213 514.504 352.433 514.504 334.202C514.504 315.97 503.244 301.191 489.354 301.191C475.465 301.191 464.205 315.97 464.205 334.202C464.205 352.433 475.465 367.213 489.354 367.213Z" fill="#A7233A" fill-opacity="0.3"/>
<path d="M346.461 518.766C361.613 518.766 373.896 502.642 373.896 482.753C373.896 462.864 361.613 446.741 346.461 446.741C331.309 446.741 319.025 462.864 319.025 482.753C319.025 502.642 331.309 518.766 346.461 518.766Z" fill="#A7233A" fill-opacity="0.3"/>
<path d="M333.887 613.296C349.039 613.296 361.322 597.172 361.322 577.284C361.322 557.395 349.039 541.271 333.887 541.271C318.734 541.271 306.451 557.395 306.451 577.284C306.451 597.172 318.734 613.296 333.887 613.296Z" fill="#A7233A" fill-opacity="0.3"/>
<path d="M1030.06 235.169C1038.27 235.169 1044.92 226.436 1044.92 215.662C1044.92 204.889 1038.27 196.156 1030.06 196.156C1021.85 196.156 1015.2 204.889 1015.2 215.662C1015.2 226.436 1021.85 235.169 1030.06 235.169Z" fill="#A7233A" fill-opacity="0.3"/>
<path d="M1115.8 895.391C1129.06 895.391 1139.81 881.283 1139.81 863.88C1139.81 846.478 1129.06 832.37 1115.8 832.37C1102.54 832.37 1091.79 846.478 1091.79 863.88C1091.79 881.283 1102.54 895.391 1115.8 895.391Z" fill="#A7233A" fill-opacity="0.3"/>
<path d="M1092.94 568.281C1104.3 568.281 1113.51 556.189 1113.51 541.272C1113.51 526.355 1104.3 514.263 1092.94 514.263C1081.57 514.263 1072.36 526.355 1072.36 541.272C1072.36 556.189 1081.57 568.281 1092.94 568.281Z" fill="#A7233A" fill-opacity="0.3"/>
<path d="M677.973 380.717C686.812 380.717 693.977 371.312 693.977 359.71C693.977 348.108 686.812 338.703 677.973 338.703C669.134 338.703 661.969 348.108 661.969 359.71C661.969 371.312 669.134 380.717 677.973 380.717Z" fill="#A7233A" fill-opacity="0.3"/>
<path d="M440.199 904.393C450.3 904.393 458.489 893.645 458.489 880.385C458.489 867.126 450.3 856.377 440.199 856.377C430.097 856.377 421.908 867.126 421.908 880.385C421.908 893.645 430.097 904.393 440.199 904.393Z" fill="#A7233A" fill-opacity="0.3"/>
<path d="M441.341 652.309C453.968 652.309 464.204 638.873 464.204 622.299C464.204 605.725 453.968 592.289 441.341 592.289C428.715 592.289 418.479 605.725 418.479 622.299C418.479 638.873 428.715 652.309 441.341 652.309Z" fill="#A7233A" fill-opacity="0.3"/>
<path d="M353.319 281.683C367.209 281.683 378.468 266.903 378.468 248.672C378.468 230.44 367.209 215.661 353.319 215.661C339.43 215.661 328.17 230.44 328.17 248.672C328.17 266.903 339.43 281.683 353.319 281.683Z" fill="#A7233A" fill-opacity="0.3"/>
<path d="M948.9 1025.94C959.001 1025.94 967.19 1015.19 967.19 1001.93C967.19 988.669 959.001 977.92 948.9 977.92C938.798 977.92 930.609 988.669 930.609 1001.93C930.609 1015.19 938.798 1025.94 948.9 1025.94Z" fill="#A7233A" fill-opacity="0.3"/>
<path d="M418.479 785.854C429.843 785.854 439.056 773.762 439.056 758.845C439.056 743.928 429.843 731.836 418.479 731.836C407.115 731.836 397.902 743.928 397.902 758.845C397.902 773.762 407.115 785.854 418.479 785.854Z" fill="#A7233A" fill-opacity="0.3"/>
<path d="M645.966 464.746C659.855 464.746 671.115 449.967 671.115 431.735C671.115 413.504 659.855 398.724 645.966 398.724C632.076 398.724 620.816 413.504 620.816 431.735C620.816 449.967 632.076 464.746 645.966 464.746Z" fill="#A7233A" fill-opacity="0.3"/>
<path d="M277.872 404.725C289.236 404.725 298.448 392.633 298.448 377.716C298.448 362.799 289.236 350.707 277.872 350.707C266.507 350.707 257.295 362.799 257.295 377.716C257.295 392.633 266.507 404.725 277.872 404.725Z" fill="#A7233A" fill-opacity="0.3"/>
<path d="M496.213 269.68C511.997 269.68 524.792 252.885 524.792 232.167C524.792 211.449 511.997 194.654 496.213 194.654C480.43 194.654 467.635 211.449 467.635 232.167C467.635 252.885 480.43 269.68 496.213 269.68Z" fill="#A7233A" fill-opacity="0.3"/>
<path d="M479.067 454.244C487.905 454.244 495.071 444.838 495.071 433.237C495.071 421.635 487.905 412.229 479.067 412.229C470.228 412.229 463.062 421.635 463.062 433.237C463.062 444.838 470.228 454.244 479.067 454.244Z" fill="#A7233A" fill-opacity="0.3"/>
<path d="M672.258 910.396C685.516 910.396 696.264 896.288 696.264 878.885C696.264 861.482 685.516 847.374 672.258 847.374C659 847.374 648.252 861.482 648.252 878.885C648.252 896.288 659 910.396 672.258 910.396Z" fill="#A7233A" fill-opacity="0.3"/>
<path d="M512.218 745.34C521.688 745.34 529.365 735.263 529.365 722.832C529.365 710.402 521.688 700.325 512.218 700.325C502.747 700.325 495.07 710.402 495.07 722.832C495.07 735.263 502.747 745.34 512.218 745.34Z" fill="#A7233A" fill-opacity="0.3"/>
<path d="M784.286 452.742C793.756 452.742 801.433 442.665 801.433 430.235C801.433 417.804 793.756 407.727 784.286 407.727C774.816 407.727 767.139 417.804 767.139 430.235C767.139 442.665 774.816 452.742 784.286 452.742Z" fill="#A7233A" fill-opacity="0.3"/>
<path d="M1095.22 1016.93C1104.06 1016.93 1111.23 1007.53 1111.23 995.926C1111.23 984.325 1104.06 974.919 1095.22 974.919C1086.38 974.919 1079.22 984.325 1079.22 995.926C1079.22 1007.53 1086.38 1016.93 1095.22 1016.93Z" fill="#A7233A" fill-opacity="0.3"/>
<path d="M307.593 971.917C315.801 971.917 322.454 963.184 322.454 952.411C322.454 941.637 315.801 932.904 307.593 932.904C299.386 932.904 292.732 941.637 292.732 952.411C292.732 963.184 299.386 971.917 307.593 971.917Z" fill="#A7233A" fill-opacity="0.3"/>
<path d="M381.898 968.917C394.525 968.917 404.761 955.481 404.761 938.907C404.761 922.332 394.525 908.896 381.898 908.896C369.271 908.896 359.035 922.332 359.035 938.907C359.035 955.481 369.271 968.917 381.898 968.917Z" fill="#A7233A" fill-opacity="0.3"/>
<path d="M328.171 754.345C336.379 754.345 343.032 745.612 343.032 734.838C343.032 724.065 336.379 715.332 328.171 715.332C319.964 715.332 313.311 724.065 313.311 734.838C313.311 745.612 319.964 754.345 328.171 754.345Z" fill="#A7233A" fill-opacity="0.3"/>
<path d="M875.738 497.758C883.945 497.758 890.599 489.025 890.599 478.251C890.599 467.478 883.945 458.745 875.738 458.745C867.53 458.745 860.877 467.478 860.877 478.251C860.877 489.025 867.53 497.758 875.738 497.758Z" fill="#A7233A" fill-opacity="0.3"/>
<path d="M215 883.387C225.733 883.387 234.433 871.967 234.433 857.879C234.433 843.791 225.733 832.37 215 832.37C204.267 832.37 195.566 843.791 195.566 857.879C195.566 871.967 204.267 883.387 215 883.387Z" fill="#A7233A" fill-opacity="0.3"/>
<path d="M996.912 491.755C1012.06 491.755 1024.35 475.631 1024.35 455.742C1024.35 435.853 1012.06 419.73 996.912 419.73C981.76 419.73 969.477 435.853 969.477 455.742C969.477 475.631 981.76 491.755 996.912 491.755Z" fill="#A7233A" fill-opacity="0.3"/>
<path d="M784.286 251.674C798.807 251.674 810.579 236.222 810.579 217.162C810.579 198.102 798.807 182.65 784.286 182.65C769.766 182.65 757.994 198.102 757.994 217.162C757.994 236.222 769.766 251.674 784.286 251.674Z" fill="#A7233A" fill-opacity="0.3"/>
<path d="M839.158 598.291C854.31 598.291 866.594 582.168 866.594 562.279C866.594 542.39 854.31 526.267 839.158 526.267C824.006 526.267 811.723 542.39 811.723 562.279C811.723 582.168 824.006 598.291 839.158 598.291Z" fill="#A7233A" fill-opacity="0.3"/>
<path d="M916.891 406.227C928.255 406.227 937.468 394.134 937.468 379.217C937.468 364.301 928.255 352.208 916.891 352.208C905.527 352.208 896.314 364.301 896.314 379.217C896.314 394.134 905.527 406.227 916.891 406.227Z" fill="#A7233A" fill-opacity="0.3"/>
<path d="M593.38 251.674C607.901 251.674 619.673 236.223 619.673 217.162C619.673 198.102 607.901 182.651 593.38 182.651C578.859 182.651 567.088 198.102 567.088 217.162C567.088 236.223 578.859 251.674 593.38 251.674Z" fill="#A7233A" fill-opacity="0.3"/>
<path d="M1147.81 466.246C1160.43 466.246 1170.67 452.81 1170.67 436.235C1170.67 419.661 1160.43 406.225 1147.81 406.225C1135.18 406.225 1124.94 419.661 1124.94 436.235C1124.94 452.81 1135.18 466.246 1147.81 466.246Z" fill="#A7233A" fill-opacity="0.3"/>
<path d="M867.735 295.189C881.625 295.189 892.884 280.409 892.884 262.177C892.884 243.946 881.625 229.166 867.735 229.166C853.846 229.166 842.586 243.946 842.586 262.177C842.586 280.409 853.846 295.189 867.735 295.189Z" fill="#A7233A" fill-opacity="0.3"/>
<path d="M521.363 574.283C533.99 574.283 544.226 560.847 544.226 544.273C544.226 527.699 533.99 514.263 521.363 514.263C508.736 514.263 498.5 527.699 498.5 544.273C498.5 560.847 508.736 574.283 521.363 574.283Z" fill="#A7233A" fill-opacity="0.3"/>
<path d="M679.116 1051.44C691.112 1051.44 700.836 1038.68 700.836 1022.93C700.836 1007.19 691.112 994.424 679.116 994.424C667.121 994.424 657.396 1007.19 657.396 1022.93C657.396 1038.68 667.121 1051.44 679.116 1051.44Z" fill="#A7233A" fill-opacity="0.3"/>
<path d="M1115.8 386.72C1124.64 386.72 1131.8 377.314 1131.8 365.713C1131.8 354.111 1124.64 344.705 1115.8 344.705C1106.96 344.705 1099.79 354.111 1099.79 365.713C1099.79 377.314 1106.96 386.72 1115.8 386.72Z" fill="#A7233A" fill-opacity="0.3"/>
<path d="M820.867 1058.95C836.019 1058.95 848.303 1042.82 848.303 1022.94C848.303 1003.05 836.019 986.923 820.867 986.923C805.715 986.923 793.432 1003.05 793.432 1022.94C793.432 1042.82 805.715 1058.95 820.867 1058.95Z" fill="#A7233A" fill-opacity="0.3"/>
<path d="M978.622 787.356C994.405 787.356 1007.2 770.561 1007.2 749.843C1007.2 729.125 994.405 712.33 978.622 712.33C962.838 712.33 950.043 729.125 950.043 749.843C950.043 770.561 962.838 787.356 978.622 787.356Z" fill="#A7233A" fill-opacity="0.3"/>
<path d="M315.596 338.703C326.96 338.703 336.173 326.61 336.173 311.694C336.173 296.777 326.96 284.684 315.596 284.684C304.232 284.684 295.02 296.777 295.02 311.694C295.02 326.61 304.232 338.703 315.596 338.703Z" fill="#A7233A" fill-opacity="0.3"/>
<path d="M279.016 670.315C294.8 670.315 307.595 653.52 307.595 632.803C307.595 612.085 294.8 595.29 279.016 595.29C263.233 595.29 250.438 612.085 250.438 632.803C250.438 653.52 263.233 670.315 279.016 670.315Z" fill="#A7233A" fill-opacity="0.3"/>
<path d="M620.817 566.78C634.707 566.78 645.966 552 645.966 533.769C645.966 515.537 634.707 500.757 620.817 500.757C606.928 500.757 595.668 515.537 595.668 533.769C595.668 552 606.928 566.78 620.817 566.78Z" fill="#A7233A" fill-opacity="0.3"/>
<path d="M225.288 502.259C239.177 502.259 250.437 487.479 250.437 469.248C250.437 451.016 239.177 436.236 225.288 436.236C211.398 436.236 200.139 451.016 200.139 469.248C200.139 487.479 211.398 502.259 225.288 502.259Z" fill="#A7233A" fill-opacity="0.3"/>
<path d="M463.062 1055.95C475.689 1055.95 485.925 1042.51 485.925 1025.94C485.925 1009.36 475.689 995.926 463.062 995.926C450.435 995.926 440.199 1009.36 440.199 1025.94C440.199 1042.51 450.435 1055.95 463.062 1055.95Z" fill="#A7233A" fill-opacity="0.3"/>
<path d="M1170.67 820.365C1178.88 820.365 1185.53 811.632 1185.53 800.858C1185.53 790.085 1178.88 781.352 1170.67 781.352C1162.46 781.352 1155.81 790.085 1155.81 800.858C1155.81 811.632 1162.46 820.365 1170.67 820.365Z" fill="#A7233A" fill-opacity="0.3"/>
<path d="M735.131 355.209C750.283 355.209 762.566 339.086 762.566 319.197C762.566 299.308 750.283 283.185 735.131 283.185C719.979 283.185 707.695 299.308 707.695 319.197C707.695 339.086 719.979 355.209 735.131 355.209Z" fill="#A7233A" fill-opacity="0.3"/>
<path d="M229.86 271.181C245.644 271.181 258.439 254.386 258.439 233.669C258.439 212.951 245.644 196.156 229.86 196.156C214.076 196.156 201.281 212.951 201.281 233.669C201.281 254.386 214.076 271.181 229.86 271.181Z" fill="#A7233A" fill-opacity="0.3"/>
<path d="M1015.2 1024.43C1028.46 1024.43 1039.21 1010.33 1039.21 992.924C1039.21 975.521 1028.46 961.414 1015.2 961.414C1001.94 961.414 991.195 975.521 991.195 992.924C991.195 1010.33 1001.94 1024.43 1015.2 1024.43Z" fill="#A7233A" fill-opacity="0.3"/>
<path d="M995.768 385.219C1009.66 385.219 1020.92 370.439 1020.92 352.208C1020.92 333.976 1009.66 319.197 995.768 319.197C981.879 319.197 970.619 333.976 970.619 352.208C970.619 370.439 981.879 385.219 995.768 385.219Z" fill="#A7233A" fill-opacity="0.3"/>
<path d="M256.153 787.355C269.411 787.355 280.159 773.247 280.159 755.845C280.159 738.442 269.411 724.334 256.153 724.334C242.894 724.334 232.146 738.442 232.146 755.845C232.146 773.247 242.894 787.355 256.153 787.355Z" fill="#A7233A" fill-opacity="0.3"/>
<path d="M392.186 1069.45C407.97 1069.45 420.765 1052.65 420.765 1031.94C420.765 1011.22 407.97 994.424 392.186 994.424C376.403 994.424 363.607 1011.22 363.607 1031.94C363.607 1052.65 376.403 1069.45 392.186 1069.45Z" fill="#A7233A" fill-opacity="0.3"/>
<path d="M929.465 287.685C945.249 287.685 958.044 270.89 958.044 250.173C958.044 229.455 945.249 212.66 929.465 212.66C913.682 212.66 900.887 229.455 900.887 250.173C900.887 270.89 913.682 287.685 929.465 287.685Z" fill="#A7233A" fill-opacity="0.3"/>
<path d="M1048.35 793.358C1064.14 793.358 1076.93 776.563 1076.93 755.845C1076.93 735.128 1064.14 718.333 1048.35 718.333C1032.57 718.333 1019.78 735.128 1019.78 755.845C1019.78 776.563 1032.57 793.358 1048.35 793.358Z" fill="#A7233A" fill-opacity="0.3"/>
<path d="M690.548 638.804C700.65 638.804 708.839 628.055 708.839 614.796C708.839 601.536 700.65 590.788 690.548 590.788C680.447 590.788 672.258 601.536 672.258 614.796C672.258 628.055 680.447 638.804 690.548 638.804Z" fill="#A7233A" fill-opacity="0.3"/>
<path d="M858.59 800.86C867.429 800.86 874.594 791.455 874.594 779.853C874.594 768.251 867.429 758.846 858.59 758.846C849.751 758.846 842.586 768.251 842.586 779.853C842.586 791.455 849.751 800.86 858.59 800.86Z" fill="#A7233A" fill-opacity="0.3"/>
<path d="M624.246 805.361C634.979 805.361 643.68 793.94 643.68 779.852C643.68 765.764 634.979 754.344 624.246 754.344C613.513 754.344 604.812 765.764 604.812 779.852C604.812 793.94 613.513 805.361 624.246 805.361Z" fill="#A7233A" fill-opacity="0.3"/>
<path d="M1169.53 323.698C1183.42 323.698 1194.68 308.918 1194.68 290.687C1194.68 272.455 1183.42 257.676 1169.53 257.676C1155.64 257.676 1144.38 272.455 1144.38 290.687C1144.38 308.918 1155.64 323.698 1169.53 323.698Z" fill="#A7233A" fill-opacity="0.3"/>
<path d="M577.377 1036.44C588.11 1036.44 596.81 1025.02 596.81 1010.93C596.81 996.842 588.11 985.422 577.377 985.422C566.644 985.422 557.943 996.842 557.943 1010.93C557.943 1025.02 566.644 1036.44 577.377 1036.44Z" fill="#A7233A" fill-opacity="0.3"/>
<path d="M706.553 244.172C717.285 244.172 725.986 232.752 725.986 218.664C725.986 204.576 717.285 193.155 706.553 193.155C695.82 193.155 687.119 204.576 687.119 218.664C687.119 232.752 695.82 244.172 706.553 244.172Z" fill="#A7233A" fill-opacity="0.3"/>
<path d="M556.8 461.745C569.427 461.745 579.663 448.309 579.663 431.735C579.663 415.161 569.427 401.725 556.8 401.725C544.174 401.725 533.938 415.161 533.938 431.735C533.938 448.309 544.174 461.745 556.8 461.745Z" fill="#A7233A" fill-opacity="0.3"/>
<path d="M1056.36 449.742C1072.14 449.742 1084.93 432.947 1084.93 412.229C1084.93 391.511 1072.14 374.716 1056.36 374.716C1040.57 374.716 1027.78 391.511 1027.78 412.229C1027.78 432.947 1040.57 449.742 1056.36 449.742Z" fill="#A7233A" fill-opacity="0.3"/>
<path d="M453.918 541.272C462.125 541.272 468.778 532.539 468.778 521.766C468.778 510.992 462.125 502.259 453.918 502.259C445.71 502.259 439.057 510.992 439.057 521.766C439.057 532.539 445.71 541.272 453.918 541.272Z" fill="#A7233A" fill-opacity="0.3"/>
<path d="M1038.07 611.795C1047.54 611.795 1055.21 601.718 1055.21 589.288C1055.21 576.857 1047.54 566.78 1038.07 566.78C1028.6 566.78 1020.92 576.857 1020.92 589.288C1020.92 601.718 1028.6 611.795 1038.07 611.795Z" fill="#A7233A" fill-opacity="0.3"/>
<path d="M1168.38 1025.93C1182.91 1025.93 1194.68 1010.48 1194.68 991.423C1194.68 972.363 1182.91 956.912 1168.38 956.912C1153.86 956.912 1142.09 972.363 1142.09 991.423C1142.09 1010.48 1153.86 1025.93 1168.38 1025.93Z" fill="#A7233A" fill-opacity="0.3"/>
<path d="M354.464 424.233C368.353 424.233 379.613 409.453 379.613 391.221C379.613 372.99 368.353 358.21 354.464 358.21C340.574 358.21 329.314 372.99 329.314 391.221C329.314 409.453 340.574 424.233 354.464 424.233Z" fill="#A7233A" fill-opacity="0.3"/>
<path d="M381.898 718.332C396.419 718.332 408.19 702.881 408.19 683.821C408.19 664.76 396.419 649.309 381.898 649.309C367.377 649.309 355.605 664.76 355.605 683.821C355.605 702.881 367.377 718.332 381.898 718.332Z" fill="#A7233A" fill-opacity="0.3"/>
<path d="M376.182 889.389C389.44 889.389 400.188 875.281 400.188 857.879C400.188 840.476 389.44 826.368 376.182 826.368C362.924 826.368 352.176 840.476 352.176 857.879C352.176 875.281 362.924 889.389 376.182 889.389Z" fill="#A7233A" fill-opacity="0.3"/>
<path d="M753.422 667.314C768.574 667.314 780.857 651.191 780.857 631.302C780.857 611.413 768.574 595.29 753.422 595.29C738.27 595.29 725.986 611.413 725.986 631.302C725.986 651.191 738.27 667.314 753.422 667.314Z" fill="#A7233A" fill-opacity="0.3"/>
<path d="M1011.77 946.409C1026.93 946.409 1039.21 930.286 1039.21 910.397C1039.21 890.508 1026.93 874.385 1011.77 874.385C996.621 874.385 984.338 890.508 984.338 910.397C984.338 930.286 996.621 946.409 1011.77 946.409Z" fill="#A7233A" fill-opacity="0.3"/>
<path d="M701.981 821.867C710.819 821.867 717.985 812.462 717.985 800.86C717.985 789.258 710.819 779.853 701.981 779.853C693.142 779.853 685.977 789.258 685.977 800.86C685.977 812.462 693.142 821.867 701.981 821.867Z" fill="#A7233A" fill-opacity="0.3"/>
<path d="M639.107 314.695C649.208 314.695 657.397 303.946 657.397 290.687C657.397 277.427 649.208 266.679 639.107 266.679C629.005 266.679 620.816 277.427 620.816 290.687C620.816 303.946 629.005 314.695 639.107 314.695Z" fill="#A7233A" fill-opacity="0.3"/>
<path d="M265.298 1049.94C279.187 1049.94 290.447 1035.16 290.447 1016.93C290.447 998.701 279.187 983.922 265.298 983.922C251.408 983.922 240.148 998.701 240.148 1016.93C240.148 1035.16 251.408 1049.94 265.298 1049.94Z" fill="#A7233A" fill-opacity="0.3"/>
<path d="M888.312 1051.44C903.465 1051.44 915.748 1035.32 915.748 1015.43C915.748 995.543 903.465 979.42 888.312 979.42C873.16 979.42 860.877 995.543 860.877 1015.43C860.877 1035.32 873.16 1051.44 888.312 1051.44Z" fill="#A7233A" fill-opacity="0.3"/>
<path d="M707.696 476.75C720.954 476.75 731.702 462.642 731.702 445.239C731.702 427.836 720.954 413.729 707.696 413.729C694.437 413.729 683.689 427.836 683.689 445.239C683.689 462.642 694.437 476.75 707.696 476.75Z" fill="#A7233A" fill-opacity="0.3"/>
<path d="M724.842 739.339C739.994 739.339 752.277 723.216 752.277 703.327C752.277 683.438 739.994 667.315 724.842 667.315C709.69 667.315 697.406 683.438 697.406 703.327C697.406 723.216 709.69 739.339 724.842 739.339Z" fill="#A7233A" fill-opacity="0.3"/>
<path d="M1055.21 868.382C1064.05 868.382 1071.22 858.977 1071.22 847.375C1071.22 835.773 1064.05 826.368 1055.21 826.368C1046.37 826.368 1039.21 835.773 1039.21 847.375C1039.21 858.977 1046.37 868.382 1055.21 868.382Z" fill="#A7233A" fill-opacity="0.3"/>
<path d="M945.469 640.305C954.94 640.305 962.617 630.228 962.617 617.798C962.617 605.367 954.94 595.29 945.469 595.29C935.999 595.29 928.322 605.367 928.322 617.798C928.322 630.228 935.999 640.305 945.469 640.305Z" fill="#A7233A" fill-opacity="0.3"/>
<path d="M480.209 835.371C495.361 835.371 507.644 819.247 507.644 799.358C507.644 779.469 495.361 763.346 480.209 763.346C465.057 763.346 452.773 779.469 452.773 799.358C452.773 819.247 465.057 835.371 480.209 835.371Z" fill="#A7233A" fill-opacity="0.3"/>
<path d="M223.002 364.212C236.26 364.212 247.008 350.104 247.008 332.702C247.008 315.299 236.26 301.191 223.002 301.191C209.744 301.191 198.996 315.299 198.996 332.702C198.996 350.104 209.744 364.212 223.002 364.212Z" fill="#A7233A" fill-opacity="0.3"/>
<path d="M830.013 962.914C844.534 962.914 856.305 947.462 856.305 928.402C856.305 909.342 844.534 893.89 830.013 893.89C815.492 893.89 803.721 909.342 803.721 928.402C803.721 947.462 815.492 962.914 830.013 962.914Z" fill="#A7233A" fill-opacity="0.3"/>
<path d="M272.156 572.782C286.677 572.782 298.448 557.33 298.448 538.27C298.448 519.21 286.677 503.758 272.156 503.758C257.635 503.758 245.863 519.21 245.863 538.27C245.863 557.33 257.635 572.782 272.156 572.782Z" fill="#A7233A" fill-opacity="0.3"/>
<path d="M1076.93 335.702C1092.08 335.702 1104.37 319.579 1104.37 299.69C1104.37 279.801 1092.08 263.678 1076.93 263.678C1061.78 263.678 1049.5 279.801 1049.5 299.69C1049.5 319.579 1061.78 335.702 1076.93 335.702Z" fill="#A7233A" fill-opacity="0.3"/>
<path d="M221.859 983.922C234.486 983.922 244.722 970.486 244.722 953.912C244.722 937.338 234.486 923.902 221.859 923.902C209.232 923.902 198.996 937.338 198.996 953.912C198.996 970.486 209.232 983.922 221.859 983.922Z" fill="#A7233A" fill-opacity="0.3"/>
<path d="M407.047 478.249C422.831 478.249 435.626 461.454 435.626 440.737C435.626 420.019 422.831 403.224 407.047 403.224C391.264 403.224 378.469 420.019 378.469 440.737C378.469 461.454 391.264 478.249 407.047 478.249Z" fill="#A7233A" fill-opacity="0.3"/>
<path d="M328.171 1060.45C340.166 1060.45 349.891 1047.68 349.891 1031.94C349.891 1016.19 340.166 1003.43 328.171 1003.43C316.175 1003.43 306.451 1016.19 306.451 1031.94C306.451 1047.68 316.175 1060.45 328.171 1060.45Z" fill="#A7233A" fill-opacity="0.3"/>
<path d="M569.375 845.875C582.633 845.875 593.381 831.767 593.381 814.364C593.381 796.961 582.633 782.854 569.375 782.854C556.117 782.854 545.369 796.961 545.369 814.364C545.369 831.767 556.117 845.875 569.375 845.875Z" fill="#A7233A" fill-opacity="0.3"/>
<path d="M916.891 949.409C926.361 949.409 934.039 939.332 934.039 926.902C934.039 914.471 926.361 904.394 916.891 904.394C907.421 904.394 899.744 914.471 899.744 926.902C899.744 939.332 907.421 949.409 916.891 949.409Z" fill="#A7233A" fill-opacity="0.3"/>
<path d="M751.135 1063.45C764.393 1063.45 775.141 1049.34 775.141 1031.94C775.141 1014.53 764.393 1000.43 751.135 1000.43C737.877 1000.43 727.129 1014.53 727.129 1031.94C727.129 1049.34 737.877 1063.45 751.135 1063.45Z" fill="#A7233A" fill-opacity="0.3"/>
<path d="M818.58 662.813C827.419 662.813 834.584 653.408 834.584 641.806C834.584 630.204 827.419 620.799 818.58 620.799C809.741 620.799 802.576 630.204 802.576 641.806C802.576 653.408 809.741 662.813 818.58 662.813Z" fill="#A7233A" fill-opacity="0.3"/>
<path d="M903.173 572.783C911.381 572.783 918.034 564.05 918.034 553.277C918.034 542.503 911.381 533.77 903.173 533.77C894.966 533.77 888.312 542.503 888.312 553.277C888.312 564.05 894.966 572.783 903.173 572.783Z" fill="#A7233A" fill-opacity="0.3"/>
<path d="M621.96 662.812C636.481 662.812 648.253 647.361 648.253 628.3C648.253 609.24 636.481 593.789 621.96 593.789C607.439 593.789 595.668 609.24 595.668 628.3C595.668 647.361 607.439 662.812 621.96 662.812Z" fill="#A7233A" fill-opacity="0.3"/>
</g>
<defs>
<clipPath id="clip0_238_4297">
<rect width="1565" height="1250.02" fill="white" transform="translate(-92)"/>
</clipPath>
</defs>
</svg>
