<svg width="20" height="27" viewBox="0 0 20 27" fill="none" xmlns="http://www.w3.org/2000/svg">
<path d="M17.7871 26.5596C7.95775 26.5128 0.0454465 19.173 0.0965271 10.1794C0.0987715 9.7842 0.399455 9.44708 0.814169 9.36146L4.80483 8.5377C5.01525 8.49426 5.23563 8.51995 5.42747 8.6103C5.6193 8.70065 5.77039 8.8499 5.85432 9.03196L7.67158 12.974C7.74921 13.1424 7.76499 13.3294 7.71654 13.5067C7.6681 13.684 7.55805 13.8421 7.40299 13.9571L5.06999 15.6879C6.46246 18.4448 8.89634 20.6678 11.8278 21.9451L13.7407 19.8254C13.8678 19.6845 14.0415 19.5853 14.2355 19.5427C14.4295 19.5002 14.6334 19.5166 14.8163 19.5895L19.0991 21.2957C19.2969 21.3745 19.4582 21.5145 19.5548 21.6912C19.6514 21.8679 19.6772 22.0701 19.6276 22.2625L18.6871 25.9105C18.6393 26.096 18.5242 26.2612 18.3608 26.3791C18.1973 26.497 17.9951 26.5606 17.7871 26.5596ZM7.99443 7.04918C9.19917 7.33979 10.1388 8.20985 10.4434 9.31677C10.5451 9.68633 10.2444 10.0464 9.82857 10.0524L9.38573 10.0589C9.09587 10.0632 8.84119 9.8889 8.75726 9.63466C8.67625 9.38975 8.53122 9.16667 8.33477 8.98477C8.13832 8.80288 7.8964 8.66766 7.62999 8.59088C7.35339 8.51136 7.16585 8.27616 7.17353 8.0106L7.18526 7.6049C7.1962 7.22392 7.59222 6.95214 7.99443 7.04918ZM8.05317 0.704455C13.0363 1.12576 16.96 4.76219 17.3676 9.32895C17.3979 9.66897 17.1072 9.96147 16.735 9.96694L16.3053 9.97325C15.9673 9.97819 15.682 9.74307 15.6533 9.43442C15.3021 5.64514 12.0482 2.63512 7.92024 2.2741C7.58372 2.24465 7.33008 1.9808 7.33903 1.67111L7.35039 1.2774C7.36024 0.9364 7.68245 0.673108 8.05317 0.704455ZM7.99625 3.85678C11.1113 4.22784 13.5539 6.48549 13.927 9.3483C13.9724 9.69636 13.6794 10.0042 13.2969 10.0097L12.8656 10.0159C12.5394 10.0207 12.2578 9.80161 12.217 9.50496C11.9252 7.3848 10.1179 5.71147 7.80749 5.42207C7.4842 5.38158 7.24814 5.12132 7.25665 4.82244L7.26794 4.42728C7.27795 4.07688 7.61691 3.81159 7.99625 3.85678Z" fill="black"/>
</svg>
