<svg width="20" height="27" viewBox="0 0 20 27" fill="none" xmlns="http://www.w3.org/2000/svg">
<path d="M17.6568 26.4407C8.31504 26.3941 0.795191 19.0861 0.843737 10.1313C0.845871 9.73783 1.13164 9.40217 1.52578 9.31692L5.31851 8.49672C5.51849 8.45347 5.72794 8.47905 5.91026 8.56901C6.09258 8.65896 6.23617 8.80757 6.31594 8.98885L8.04307 12.9139C8.11684 13.0815 8.13184 13.2677 8.0858 13.4442C8.03975 13.6208 7.93516 13.7782 7.7878 13.8927L5.57052 15.616C6.89392 18.361 9.20707 20.5744 11.9931 21.8462L13.8111 19.7356C13.932 19.5953 14.097 19.4966 14.2814 19.4542C14.4658 19.4118 14.6595 19.4282 14.8334 19.5007L18.9038 21.1996C19.0918 21.278 19.2451 21.4174 19.3369 21.5934C19.4287 21.7693 19.4532 21.9707 19.406 22.1622L18.5122 25.7945C18.4668 25.9792 18.3574 26.1436 18.2021 26.261C18.0467 26.3784 17.8545 26.4417 17.6568 26.4407ZM8.3499 7.01463C9.49488 7.304 10.3879 8.17029 10.6774 9.27243C10.7741 9.64038 10.4883 9.99887 10.0931 10.0049L9.67219 10.0114C9.39671 10.0156 9.15466 9.84208 9.0749 9.58894C8.9979 9.34509 8.86006 9.12297 8.67336 8.94186C8.48666 8.76075 8.25673 8.62613 8.00353 8.54967C7.74066 8.4705 7.56242 8.23631 7.56972 7.9719L7.58086 7.56796C7.59126 7.18862 7.96764 6.91802 8.3499 7.01463ZM8.40573 0.697341C13.1417 1.11682 16.8708 4.73754 17.2581 9.28456C17.287 9.6231 17.0107 9.91434 16.657 9.91979L16.2485 9.92607C15.9273 9.93099 15.6561 9.69689 15.6289 9.38956C15.2951 5.61667 12.2026 2.61966 8.27939 2.2602C7.95956 2.23088 7.71851 1.96817 7.72701 1.65981L7.73781 1.26781C7.74716 0.928282 8.0534 0.666128 8.40573 0.697341ZM8.35163 3.83604C11.3122 4.20549 13.6337 6.45338 13.9883 9.30382C14.0314 9.65037 13.7529 9.95686 13.3894 9.96237L12.9794 9.96857C12.6694 9.97327 12.4018 9.75517 12.363 9.4598C12.0857 7.34881 10.368 5.68272 8.17224 5.39456C7.86498 5.35425 7.64063 5.09511 7.64872 4.79753L7.65945 4.40407C7.66896 4.05519 7.9911 3.79104 8.35163 3.83604Z" fill="#4ACCE4"/>
</svg>
