<svg width="25" height="25" viewBox="0 0 25 25" fill="none" xmlns="http://www.w3.org/2000/svg">
<path d="M12.0794 0C5.274 0 0 5.01877 0 11.7976C0 15.3432 1.44389 18.4072 3.79415 20.5238C4.19995 20.8921 4.11636 21.1054 4.18537 23.3794C4.19081 23.5387 4.23478 23.6942 4.31346 23.8324C4.39213 23.9706 4.50312 24.0873 4.63675 24.1722C4.77037 24.2572 4.92257 24.3079 5.08007 24.3199C5.23756 24.3319 5.39558 24.3048 5.54032 24.241C8.11171 23.0984 8.14476 23.0082 8.5807 23.1278C16.0305 25.1968 24.1053 20.386 24.1053 11.7976C24.1053 5.01877 18.8852 0 12.0794 0ZM19.3323 9.0788L15.7846 14.7464C15.6506 14.9595 15.4745 15.1424 15.2672 15.2836C15.0599 15.4248 14.8259 15.5213 14.5799 15.567C14.334 15.6127 14.0813 15.6067 13.8377 15.5493C13.5942 15.4919 13.365 15.3843 13.1646 15.2333L10.3419 13.1016C10.2157 13.0061 10.0623 12.9544 9.90454 12.9544C9.74681 12.9544 9.59333 13.0061 9.46715 13.1016L5.65842 16.0165C5.15007 16.4054 4.48426 15.7909 4.82688 15.248L8.37463 9.58048C8.50856 9.3673 8.68468 9.18435 8.89197 9.04309C9.09926 8.90183 9.33324 8.80532 9.57923 8.75959C9.82522 8.71387 10.0779 8.71993 10.3215 8.77739C10.565 8.83485 10.7942 8.94247 10.9946 9.09351L13.8163 11.2248C13.9425 11.3203 14.096 11.3719 14.2537 11.3719C14.4114 11.3719 14.5649 11.3203 14.6911 11.2248L18.5018 8.31279C19.0091 7.92145 19.6749 8.53543 19.3323 9.0788Z" fill="black"/>
</svg>
