<svg width="25" height="25" viewBox="0 0 25 25" fill="none" xmlns="http://www.w3.org/2000/svg">
<path d="M12.0794 0.00866699C5.274 0.00866699 0 5.02743 0 11.8062C0 15.3518 1.44389 18.4159 3.79415 20.5324C4.19995 20.9007 4.11636 21.1141 4.18537 23.3881C4.19081 23.5473 4.23478 23.7029 4.31346 23.8411C4.39213 23.9793 4.50312 24.0959 4.63675 24.1809C4.77037 24.2659 4.92257 24.3166 5.08007 24.3286C5.23756 24.3405 5.39558 24.3135 5.54032 24.2497C8.11171 23.1071 8.14476 23.0168 8.5807 23.1365C16.0305 25.2055 24.1053 20.3946 24.1053 11.8062C24.1053 5.02743 18.8852 0.00866699 12.0794 0.00866699ZM19.3323 9.08746L15.7846 14.755C15.6506 14.9681 15.4745 15.151 15.2672 15.2923C15.0599 15.4335 14.8259 15.53 14.5799 15.5757C14.334 15.6214 14.0813 15.6154 13.8377 15.5579C13.5942 15.5005 13.365 15.393 13.1646 15.242L10.3419 13.1102C10.2157 13.0147 10.0623 12.9631 9.90454 12.9631C9.74681 12.9631 9.59333 13.0147 9.46715 13.1102L5.65842 16.0252C5.15007 16.4141 4.48426 15.7996 4.82688 15.2567L8.37463 9.58914C8.50856 9.37597 8.68468 9.19302 8.89197 9.05176C9.09926 8.9105 9.33324 8.81398 9.57923 8.76826C9.82522 8.72254 10.0779 8.7286 10.3215 8.78606C10.565 8.84352 10.7942 8.95114 10.9946 9.10218L13.8163 11.2335C13.9425 11.329 14.096 11.3806 14.2537 11.3806C14.4114 11.3806 14.5649 11.329 14.6911 11.2335L18.5018 8.32146C19.0091 7.93012 19.6749 8.5441 19.3323 9.08746Z" fill="#4ACCE4"/>
</svg>
