<svg width="450" height="389" viewBox="0 0 450 389" fill="none" xmlns="http://www.w3.org/2000/svg">
<g clip-path="url(#clip0_307_5504)">
<path d="M296.037 0H165.274C144.937 0 128.45 17.1519 128.45 38.3099V349.171C128.45 370.329 144.937 387.481 165.274 387.481H296.037C316.374 387.481 332.861 370.329 332.861 349.171V38.3099C332.861 17.1519 316.374 0 296.037 0Z" fill="#3F3D56"/>
<path d="M329.413 38.3126V349.171C329.403 358.377 325.883 367.203 319.626 373.712C313.369 380.222 304.885 383.884 296.036 383.894H165.276C156.427 383.884 147.943 380.222 141.686 373.712C135.429 367.203 131.909 358.377 131.899 349.171V38.3126C131.909 29.1067 135.429 20.2809 141.686 13.7713C147.943 7.26177 156.427 3.60001 165.276 3.58936H182.375V9.73426C182.375 12.5162 183.437 15.1841 185.328 17.1512C187.219 19.1183 189.783 20.2235 192.457 20.2236H268.855C271.529 20.2235 274.093 19.1183 275.984 17.1512C277.875 15.1841 278.937 12.5162 278.937 9.73426V3.58936H296.036C304.885 3.60001 313.369 7.26177 319.626 13.7713C325.883 20.2809 329.403 29.1067 329.413 38.3126Z" fill="white"/>
<path d="M127.51 78.605C126.845 78.6042 126.207 78.3291 125.737 77.8399C125.267 77.3507 125.002 76.6875 125.001 75.9957V70.7771C125.001 70.0851 125.266 69.4214 125.736 68.9321C126.206 68.4428 126.844 68.1678 127.51 68.1678C128.175 68.1678 128.813 68.4428 129.283 68.9321C129.753 69.4214 130.018 70.0851 130.018 70.7771V75.9957C130.017 76.6875 129.752 77.3507 129.282 77.8399C128.812 78.3291 128.175 78.6042 127.51 78.605Z" fill="#3F3D56"/>
<path d="M127.51 105.364C126.845 105.364 126.207 105.088 125.737 104.599C125.267 104.11 125.002 103.447 125.001 102.755V88.3899C125.001 87.6979 125.266 87.0342 125.736 86.5449C126.206 86.0555 126.844 85.7806 127.51 85.7806C128.175 85.7806 128.813 86.0555 129.283 86.5449C129.753 87.0342 130.018 87.6979 130.018 88.3899V102.755C130.017 103.447 129.752 104.11 129.282 104.599C128.812 105.088 128.175 105.364 127.51 105.364Z" fill="#3F3D56"/>
<path d="M127.51 126.877C126.845 126.876 126.207 126.601 125.737 126.112C125.267 125.623 125.002 124.96 125.001 124.268V109.903C125.001 109.211 125.266 108.547 125.736 108.058C126.206 107.568 126.844 107.293 127.51 107.293C128.175 107.293 128.813 107.568 129.283 108.058C129.753 108.547 130.018 109.211 130.018 109.903V124.268C130.017 124.96 129.752 125.623 129.282 126.112C128.812 126.601 128.175 126.876 127.51 126.877Z" fill="#3F3D56"/>
<path d="M333.175 115.135C332.51 115.134 331.873 114.859 331.402 114.37C330.932 113.881 330.668 113.218 330.667 112.526V77.4743C330.667 76.7823 330.931 76.1186 331.402 75.6292C331.872 75.1399 332.51 74.865 333.175 74.865C333.84 74.865 334.478 75.1399 334.949 75.6292C335.419 76.1186 335.683 76.7823 335.683 77.4743V112.526C335.682 113.218 335.418 113.881 334.948 114.37C334.478 114.859 333.84 115.134 333.175 115.135Z" fill="#3F3D56"/>
<path d="M236.044 11.9674H216.606C216.19 11.9674 215.791 11.7956 215.497 11.4898C215.203 11.1839 215.038 10.7691 215.038 10.3366C215.038 9.9041 215.203 9.4893 215.497 9.18347C215.791 8.87763 216.19 8.70581 216.606 8.70581H236.044C236.459 8.70581 236.858 8.87763 237.152 9.18347C237.446 9.4893 237.611 9.9041 237.611 10.3366C237.611 10.7691 237.446 11.1839 237.152 11.4898C236.858 11.7956 236.459 11.9674 236.044 11.9674Z" fill="white"/>
<path d="M246.076 11.6413C246.768 11.6413 247.33 11.0572 247.33 10.3366C247.33 9.61609 246.768 9.03198 246.076 9.03198C245.383 9.03198 244.822 9.61609 244.822 10.3366C244.822 11.0572 245.383 11.6413 246.076 11.6413Z" fill="white"/>
<path d="M396.754 371.184C397.212 371.201 397.664 371.072 398.048 370.813C398.433 370.554 398.732 370.178 398.905 369.737C399.078 369.295 399.116 368.809 399.014 368.345C398.912 367.88 398.676 367.459 398.336 367.138C398.278 366.906 398.236 366.739 398.177 366.507C398.605 365.345 399.356 364.342 400.335 363.627C401.313 362.912 402.475 362.518 403.671 362.494C404.866 362.471 406.042 362.819 407.046 363.495C408.05 364.171 408.837 365.143 409.306 366.287C412.014 372.71 415.502 379.352 413.863 386.472C424.895 361.535 420.783 330.693 403.949 309.628C399.326 307.038 395.555 302.392 394.535 296.964C396.818 297.743 399.639 295.789 397.904 293.312C397.154 292.366 396.396 291.427 395.646 290.481C404.205 280.815 414.645 295.77 405.246 308.794C408.396 312.825 411.133 317.186 413.412 321.809C412.851 316.882 413.421 311.887 415.077 307.235C416.759 302.898 419.952 299.227 422.759 295.464C426.172 290.879 433.302 292.908 433.819 298.679C430.641 299.8 430.271 304.596 433.924 305.215C433.067 315.968 426.411 325.907 417.162 330.711C420.685 340.693 422.123 351.342 421.379 361.948C422.906 349.546 435.657 346.414 444.544 341.403C445.109 341.018 445.769 340.813 446.445 340.812C447.12 340.811 447.781 341.014 448.347 341.397C448.914 341.78 449.36 342.327 449.633 342.969C449.906 343.612 449.993 344.324 449.884 345.017C448.656 345.551 447.482 346.21 446.379 346.985C445.862 347.354 445.468 347.88 445.25 348.491C445.032 349.102 445.001 349.769 445.161 350.399C445.322 351.029 445.665 351.592 446.146 352.011C446.626 352.43 447.218 352.685 447.843 352.739C443.447 364.376 431.878 372.276 419.922 372.351C418.821 377.556 417.202 382.628 415.093 387.485L397.349 387.661C397.284 387.457 397.225 387.245 397.165 387.041C398.809 387.132 400.457 387.013 402.072 386.688C397.678 381.379 394.293 378.681 396.754 371.184Z" fill="#F2F2F2"/>
<path d="M53.2955 371.184C52.8376 371.201 52.3856 371.072 52.0008 370.813C51.6161 370.554 51.3171 370.178 51.1443 369.737C50.9716 369.295 50.9335 368.809 51.0352 368.345C51.1369 367.88 51.3735 367.459 51.7129 367.138C51.7714 366.906 51.8133 366.739 51.8718 366.507C51.4444 365.345 50.6932 364.342 49.7144 363.627C48.7357 362.912 47.5741 362.518 46.3784 362.494C45.1828 362.471 44.0076 362.819 43.0036 363.495C41.9995 364.171 41.2123 365.143 40.7429 366.287C38.0356 372.71 34.547 379.352 36.1866 386.472C25.1546 361.535 29.2662 330.693 46.1 309.628C50.7235 307.038 54.4943 302.392 55.5146 296.964C53.2309 297.743 50.4105 295.789 52.1448 293.312C52.8954 292.366 53.6531 291.427 54.4036 290.481C45.8446 280.815 35.4043 295.77 44.8035 308.794C41.6529 312.825 38.9159 317.186 36.6371 321.809C37.1987 316.882 36.6279 311.887 34.9719 307.235C33.2901 302.898 30.0969 299.227 27.2898 295.464C23.8769 290.879 16.7475 292.908 16.2298 298.679C19.4081 299.8 19.7784 304.596 16.1255 305.215C16.9823 315.968 23.6384 325.907 32.8871 330.711C29.364 340.693 27.9265 351.342 28.6704 361.948C27.1436 349.546 14.3921 346.414 5.50522 341.403C4.9402 341.018 4.27972 340.813 3.60435 340.812C2.92898 340.811 2.2679 341.014 1.70178 341.397C1.13565 341.78 0.688931 342.327 0.416124 342.969C0.143318 343.612 0.0562105 344.324 0.165431 345.017C1.39345 345.551 2.56747 346.21 3.6702 346.985C4.18686 347.354 4.58121 347.88 4.79921 348.491C5.0172 349.102 5.04816 349.769 4.88784 350.399C4.72752 351.029 4.38377 351.592 3.90372 352.011C3.42366 352.43 2.83079 352.685 2.20638 352.739C6.60255 364.376 18.1715 372.276 30.1271 372.351C31.2284 377.556 32.8468 382.628 34.956 387.485L52.7 387.661C52.7655 387.457 52.8246 387.245 52.8838 387.041C51.2404 387.132 49.5925 387.013 47.9768 386.688C52.3711 381.379 55.7566 378.681 53.296 371.184L53.2955 371.184Z" fill="#F2F2F2"/>
<path d="M174.904 18.965H157.974C157.143 18.965 156.345 18.6214 155.757 18.0097C155.169 17.398 154.839 16.5684 154.839 15.7034C154.839 14.8384 155.169 14.0087 155.757 13.3971C156.345 12.7854 157.143 12.4418 157.974 12.4418H174.904C175.735 12.4418 176.533 12.7854 177.121 13.3971C177.709 14.0087 178.039 14.8384 178.039 15.7034C178.039 16.5684 177.709 17.398 177.121 18.0097C176.533 18.6214 175.735 18.965 174.904 18.965Z" fill="#E6E6E6"/>
<path d="M285.888 18.6389C287.446 18.6389 288.71 17.3246 288.71 15.7034C288.71 14.0822 287.446 12.7679 285.888 12.7679C284.33 12.7679 283.066 14.0822 283.066 15.7034C283.066 17.3246 284.33 18.6389 285.888 18.6389Z" fill="#E6E6E6"/>
<path d="M294.666 18.6389C296.225 18.6389 297.488 17.3246 297.488 15.7034C297.488 14.0822 296.225 12.7679 294.666 12.7679C293.108 12.7679 291.845 14.0822 291.845 15.7034C291.845 17.3246 293.108 18.6389 294.666 18.6389Z" fill="#E6E6E6"/>
<path d="M303.445 18.6389C305.003 18.6389 306.266 17.3246 306.266 15.7034C306.266 14.0822 305.003 12.7679 303.445 12.7679C301.886 12.7679 300.623 14.0822 300.623 15.7034C300.623 17.3246 301.886 18.6389 303.445 18.6389Z" fill="#E6E6E6"/>
<path d="M283.915 64.5521H177.509C175.447 64.5551 173.471 65.4082 172.014 66.9245C170.556 68.4409 169.736 70.4966 169.733 72.641V144.599C169.736 146.743 170.556 148.799 172.014 150.315C173.471 151.832 175.447 152.685 177.509 152.688H283.915C285.977 152.686 287.954 151.833 289.411 150.316C290.869 148.8 291.689 146.744 291.691 144.599V72.641C291.689 70.4962 290.869 68.4399 289.411 66.9233C287.954 65.4068 285.977 64.554 283.915 64.5521Z" fill="#F2F2F2"/>
<path d="M250.603 95.2712C240.987 112.959 230.375 130.04 218.824 146.426H202.137C213.067 132.574 224.005 118.722 234.951 104.869C238.091 100.881 241.499 96.702 246.209 95.0813L250.603 95.2712Z" fill="#3F3D56"/>
<path d="M228.427 92.4349C226.686 94.3215 225.019 96.2842 223.449 98.3228C219.992 102.653 216.584 107.022 213.164 111.377C211.034 114.087 208.904 116.797 206.799 119.507C206.13 119.06 205.495 118.56 204.9 118.012C201.537 114.976 199.451 110.689 199.089 106.072C198.727 101.454 200.118 96.8728 202.964 93.3094C205.81 89.746 209.884 87.484 214.314 87.0081C218.744 86.5322 223.176 87.8803 226.662 90.7635C227.29 91.2732 227.88 91.832 228.427 92.4349Z" fill="#F6C73B"/>
<path d="M291.691 90.3776V93.0064L290.562 92.5759L274.679 86.5354C269.506 84.5719 264.346 82.3279 259.003 80.9124C254.356 79.5291 249.42 79.5949 244.808 81.1015C240.696 82.684 236.934 85.1135 233.747 88.2445C232.336 89.6013 230.969 90.9908 229.646 92.4324C229.213 92.9086 228.781 93.3848 228.354 93.861C227.075 95.3092 225.84 96.7899 224.667 98.3229C221.212 102.654 217.801 107.025 214.384 111.376C212.252 114.09 210.12 116.797 208.013 119.504C200.978 128.46 193.985 137.434 187.033 146.425C186.097 146.414 185.165 146.292 184.255 146.06C191.347 136.895 198.472 127.754 205.631 118.636C205.794 118.428 205.957 118.219 206.12 118.01C206.96 116.921 207.819 115.825 208.672 114.735C212.24 110.189 215.81 105.646 219.382 101.108C221.977 97.8075 224.555 94.4937 227.351 91.3626C227.52 91.1604 227.696 90.9647 227.878 90.7625C228.147 90.4624 228.417 90.1688 228.693 89.8622C234.769 83.3325 242.35 77.5594 251.429 77.4028C256.771 77.318 261.932 79.0793 266.898 80.9385C272.246 82.9542 277.576 85.0025 282.918 87.0377L291.691 90.3776Z" fill="#3F3D56"/>
<path d="M294.192 311.562H167.119C165.058 311.559 163.082 310.707 161.624 309.19C160.167 307.674 159.347 305.618 159.345 303.474V285.657C159.347 283.512 160.167 281.457 161.624 279.94C163.082 278.424 165.058 277.571 167.119 277.569H294.192C296.253 277.571 298.23 278.424 299.687 279.94C301.145 281.457 301.964 283.512 301.967 285.657V303.474C301.964 305.618 301.145 307.674 299.687 309.19C298.23 310.707 296.253 311.559 294.192 311.562Z" fill="#F2F2F2"/>
<path d="M294.192 220.237H167.119C165.058 220.234 163.082 219.381 161.624 217.865C160.167 216.348 159.347 214.293 159.345 212.148V194.331C159.347 192.187 160.167 190.131 161.624 188.615C163.082 187.099 165.058 186.246 167.119 186.243H294.192C296.253 186.246 298.23 187.099 299.687 188.615C301.145 190.131 301.964 192.187 301.967 194.331V212.148C301.964 214.293 301.145 216.348 299.687 217.865C298.23 219.381 296.253 220.234 294.192 220.237Z" fill="#F2F2F2"/>
<path d="M294.192 265.899H167.119C165.058 265.897 163.082 265.044 161.624 263.527C160.167 262.011 159.347 259.955 159.345 257.811V239.994C159.347 237.85 160.167 235.794 161.624 234.278C163.082 232.761 165.058 231.908 167.119 231.906H294.192C296.253 231.908 298.23 232.761 299.687 234.278C301.145 235.794 301.964 237.85 301.967 239.994V257.811C301.964 259.955 301.145 262.011 299.687 263.527C298.23 265.044 296.253 265.897 294.192 265.899Z" fill="#F2F2F2"/>
<path d="M246.094 291.516H208.653C208.209 291.516 207.783 291.332 207.469 291.006C207.155 290.679 206.979 290.236 206.979 289.773C206.979 289.311 207.155 288.868 207.469 288.541C207.783 288.215 208.209 288.031 208.653 288.031H246.094C246.539 288.031 246.965 288.215 247.279 288.541C247.593 288.868 247.769 289.311 247.769 289.773C247.769 290.236 247.593 290.679 247.279 291.006C246.965 291.332 246.539 291.516 246.094 291.516Z" fill="white"/>
<path d="M282.105 301.099H208.234C207.79 301.099 207.364 300.916 207.05 300.589C206.736 300.262 206.56 299.819 206.56 299.357C206.56 298.895 206.736 298.452 207.05 298.125C207.364 297.798 207.79 297.615 208.234 297.615H282.105C282.549 297.615 282.975 297.798 283.289 298.125C283.603 298.452 283.779 298.895 283.779 299.357C283.779 299.819 283.603 300.262 283.289 300.589C282.975 300.916 282.549 301.099 282.105 301.099Z" fill="white"/>
<path d="M188.762 306.248C194.964 306.248 199.992 301.018 199.992 294.565C199.992 288.113 194.964 282.883 188.762 282.883C182.56 282.883 177.532 288.113 177.532 294.565C177.532 301.018 182.56 306.248 188.762 306.248Z" fill="white"/>
<path d="M186.26 310.346C185.114 309.789 183.804 309.719 182.61 310.151C181.415 310.583 180.429 311.483 179.863 312.66C179.751 312.901 179.659 313.151 179.587 313.408L162.677 314.459L160.17 323.574L183.186 319.528C184.233 319.756 185.323 319.616 186.285 319.132C187.248 318.647 188.03 317.845 188.508 316.849C188.775 316.28 188.931 315.662 188.968 315.03C189.006 314.398 188.923 313.765 188.725 313.166C188.527 312.568 188.217 312.016 187.814 311.541C187.411 311.067 186.922 310.68 186.375 310.402C186.337 310.383 186.299 310.364 186.26 310.346Z" fill="#FFB6B6"/>
<path d="M148.934 265.388C147.819 264.913 146.62 264.694 145.417 264.745C144.214 264.796 143.035 265.116 141.962 265.683C140.888 266.25 139.945 267.051 139.195 268.032C138.446 269.012 137.908 270.149 137.619 271.365L132.97 290.897L133.844 325.068C133.844 325.068 158.112 329.913 162.185 326.799C166.259 323.685 165.877 321.367 166.259 323.685C166.642 326.003 168.39 326.976 168.415 326.053C168.439 325.131 168.637 325.289 169.652 325.011C170.667 324.733 175.148 323.015 175.148 323.015L175.348 313.273C175.348 313.273 167.941 310.351 166.144 311.223C164.347 312.094 166.526 313.541 164.347 312.094C162.167 310.648 161.929 306.083 161.556 310.197C161.184 314.311 160.093 315.077 158.458 313.248C156.824 311.419 149.253 312.587 149.253 312.587L154.071 274.602C154.313 272.692 153.941 270.752 153.011 269.085C152.082 267.418 150.648 266.118 148.934 265.388Z" fill="#F6C73B"/>
<path d="M312.359 366.722L312.614 359.527L286.058 355.079L285.682 365.698L312.359 366.722Z" fill="#FFB6B6"/>
<path d="M307.538 368.889L307.287 357.368L312.021 357.55L319.663 346.9C320.041 346.373 320.57 345.987 321.174 345.796C321.777 345.605 322.424 345.619 323.019 345.838C323.614 346.056 324.127 346.466 324.481 347.009C324.836 347.552 325.015 348.198 324.992 348.854L324.507 362.54L319.74 364.719L324.39 365.82L324.207 370.98L307.538 368.889Z" fill="#2F2E41"/>
<path d="M162.901 383.222L247.013 373.047C247.013 373.047 283.335 375.23 291.857 369.462L300.844 368.282L301.331 354.549C301.331 354.549 295.835 354.591 292.676 353.059C289.516 351.528 291.712 349.654 288.7 351.496C285.687 353.339 286.005 353.561 283.676 352.714C281.347 351.867 174.542 347.325 174.542 347.325L162.901 383.222Z" fill="#2F2E41"/>
<path d="M273.738 377.263L278.629 372.169L262.069 350.118L254.851 357.637L273.738 377.263Z" fill="#FFB6B6"/>
<path d="M268.788 375.44L276.135 366.817L279.486 370.3L292.052 367.9C292.672 367.781 293.313 367.872 293.881 368.159C294.448 368.446 294.913 368.914 295.206 369.495C295.5 370.076 295.607 370.74 295.512 371.389C295.418 372.038 295.126 372.639 294.68 373.103L285.377 382.792L280.458 381.017L283.148 385.115L279.64 388.768L268.788 375.44Z" fill="#2F2E41"/>
<path d="M129.716 335.299L130.553 355.521C131.537 379.327 156.737 393.735 176.277 381.305C176.638 381.076 176.999 380.839 177.361 380.593C177.361 380.593 184.769 378.524 184.545 375.246C184.32 371.968 186.129 370.373 187.731 371.267C189.332 372.161 210.302 341.201 210.302 341.201C210.302 341.201 253.868 363.81 263.48 369.132L273.621 366.258C273.621 366.258 277.438 368.133 276.063 365.421C274.688 362.708 274.441 364.007 274.019 361.052C273.597 358.097 272.516 354.433 271.861 354.587C271.206 354.741 217.963 315.973 217.963 315.973C217.963 315.973 209.29 306.841 198.53 312.87C198.306 313.756 198.498 313.787 198.498 313.787L162.955 343.917L157.933 333.995L129.716 335.299Z" fill="#2F2E41"/>
<path d="M153.605 260.998L138.366 253.567L133.804 261.826C133.804 261.826 121.55 280.017 121.373 293.141C121.195 306.264 123.37 310.167 123.37 310.167C123.37 310.167 118.086 314.276 120.728 316.788C123.369 319.3 129.218 320.383 124.726 321.472C120.234 322.561 121.373 333.585 126.389 335.542C131.405 337.499 158.345 337.482 158.345 337.482C158.103 336.627 158.085 335.721 158.293 334.856C158.502 333.992 158.929 333.202 159.53 332.567C161.618 330.389 163.499 331.952 161.618 328.561C159.737 325.17 156.602 327.127 159.11 322.561C161.618 317.995 161.617 316.63 161.617 316.63C161.617 316.63 166.73 306.507 159.029 295.525C158.559 294.855 158.954 294.829 158.954 294.829L152.735 273.149L153.605 260.998Z" fill="#F6C73B"/>
<path d="M129.047 229.756C129.176 233.105 127.147 237.849 126.148 240.71C125.08 243.769 129.709 247.829 132.672 248.718C132.826 247.658 133.334 246.689 134.107 245.98C133.894 246.99 133.875 248.034 134.052 249.052L159.101 254.984C163.607 249.555 168.138 241.75 167.15 232.337C167.386 230.55 167.11 228.73 166.356 227.105C165.602 225.48 164.403 224.123 162.91 223.205L150.247 215.422C144.861 214.147 138.078 213.376 134.187 216.844C132.449 218.453 131.084 220.45 130.193 222.686C129.303 224.922 128.911 227.339 129.047 229.756Z" fill="#2F2E41"/>
<path d="M151.436 252.116C159.401 252.116 165.858 245.399 165.858 237.112C165.858 228.826 159.401 222.109 151.436 222.109C143.471 222.109 137.015 228.826 137.015 237.112C137.015 245.399 143.471 252.116 151.436 252.116Z" fill="#FFB6B6"/>
<path d="M134.541 229.097L133.845 232.277L146.012 235.159C146.023 234.515 146.161 233.882 146.419 233.297C146.676 232.712 147.047 232.189 147.508 231.76C147.246 233.007 147.275 234.301 147.595 235.534C154.157 239.364 160.071 240.721 165.374 239.744C166.092 239.915 166.846 239.781 167.47 239.373C168.094 238.964 168.536 238.315 168.7 237.568C170.833 227.817 165.243 217.851 155.917 215.431C153.65 214.841 151.292 214.729 148.983 215.099C146.673 215.47 144.458 216.316 142.467 217.589C140.477 218.862 138.75 220.535 137.389 222.511C136.028 224.488 135.06 226.726 134.541 229.097Z" fill="#2F2E41"/>
<path d="M141.655 208.115C143.259 207.752 144.957 207.84 146.407 206.709L145.456 208.981C148.093 208.229 150.905 208.521 153.347 209.801C154.073 210.14 154.693 210.685 155.134 211.374C155.371 211.791 155.515 212.257 155.555 212.739C155.596 213.221 155.532 213.706 155.369 214.159C155.213 214.548 154.981 214.898 154.687 215.188C154.394 215.478 154.045 215.701 153.664 215.843C152.989 216.054 152.282 216.131 151.579 216.07C148.618 215.999 145.657 215.927 142.696 215.855C141.568 215.928 140.44 215.7 139.42 215.193C138.878 214.844 138.445 214.339 138.175 213.738C137.905 213.138 137.81 212.468 137.9 211.812C138.183 209.747 140.05 208.477 141.655 208.115Z" fill="#2F2E41"/>
<path d="M219.886 325.703C219.851 325.66 219.812 325.622 219.768 325.59C219.66 325.46 219.529 325.353 219.381 325.275L218.326 324.688L211.32 316.596C210.914 316.376 210.443 316.329 210.004 316.465L209.986 316.47L206.985 317.436L204.404 318.269L200.798 319.432L176.24 327.343L160.097 332.543C159.661 332.686 159.296 333.003 159.082 333.423C158.867 333.844 158.82 334.335 158.95 334.792C159.026 335.043 159.152 335.275 159.319 335.473L159.832 336.068L160.91 337.317L163.406 342.699L164.099 343.503C164.32 343.759 164.606 343.944 164.924 344.037C165.242 344.13 165.579 344.127 165.896 344.027L219.077 328.643C219.353 328.55 219.603 328.387 219.805 328.17C220.007 327.953 220.154 327.687 220.234 327.397C220.314 327.106 220.324 326.8 220.263 326.504C220.202 326.209 220.073 325.934 219.886 325.703Z" fill="#CCCCCC"/>
<path d="M216.728 245.659L215.698 245.833C215.416 245.881 215.164 246.044 214.997 246.286L214.543 246.946L210.45 257.593C210.283 257.836 210.216 258.139 210.264 258.433L210.743 261.467L208.931 315.614C208.977 315.894 209.121 316.146 209.337 316.321L217.283 327.379L217.468 327.532L217.869 327.858C218.074 328.023 218.328 328.107 218.588 328.096L219.263 328.063C219.416 328.055 219.566 328.013 219.703 327.941C219.84 327.868 219.96 327.766 220.056 327.642C220.153 327.518 220.224 327.375 220.263 327.22C220.301 327.066 220.308 326.905 220.282 326.748L217.976 246.585C217.93 246.291 217.773 246.028 217.54 245.854C217.307 245.68 217.017 245.61 216.734 245.658L216.728 245.659Z" fill="#CCCCCC"/>
<path d="M215.004 249.866L211.378 261.356L209.976 307.249L215.619 312.468L215.004 249.866Z" fill="#F6C73B"/>
<path d="M186.968 319.872C185.822 319.314 184.512 319.244 183.317 319.677C182.122 320.109 181.137 321.009 180.57 322.185C180.459 322.426 180.367 322.677 180.295 322.934L163.384 323.985L160.878 333.099L183.894 329.054C184.94 329.281 186.03 329.142 186.993 328.657C187.956 328.173 188.737 327.37 189.215 326.375C189.754 325.226 189.832 323.901 189.432 322.692C189.032 321.483 188.187 320.489 187.083 319.928C187.045 319.909 187.006 319.89 186.968 319.872Z" fill="#FFB6B6"/>
<path d="M149.641 274.913C148.527 274.439 147.327 274.22 146.124 274.271C144.921 274.322 143.743 274.642 142.669 275.209C141.596 275.776 140.652 276.577 139.903 277.557C139.153 278.538 138.616 279.674 138.326 280.89L133.677 300.423L134.552 334.594C134.552 334.594 158.819 339.438 162.893 336.324C166.967 333.21 166.584 330.892 166.967 333.21C167.349 335.529 169.098 336.501 169.122 335.579C169.146 334.657 169.344 334.814 170.359 334.537C171.375 334.259 175.855 332.541 175.855 332.541L176.056 322.798C176.056 322.798 168.649 319.877 166.851 320.748C165.054 321.62 167.234 323.066 165.054 321.62C162.875 320.174 162.636 315.608 162.264 319.723C161.891 323.837 160.8 324.603 159.166 322.774C157.532 320.944 149.961 322.113 149.961 322.113L154.779 284.128C155.021 282.217 154.648 280.277 153.719 278.61C152.789 276.943 151.356 275.643 149.641 274.913Z" fill="#F6C73B"/>
<path d="M3.30257e-06 388.224C-0.000288937 388.326 0.0188164 388.427 0.0562136 388.521C0.0936107 388.616 0.148567 388.701 0.217917 388.773C0.287267 388.846 0.36964 388.903 0.460306 388.942C0.550971 388.981 0.648135 389 0.746208 389H449.254C449.452 389 449.642 388.918 449.781 388.773C449.921 388.627 450 388.43 450 388.224C450 388.018 449.921 387.82 449.781 387.675C449.642 387.529 449.452 387.448 449.254 387.448H0.746169C0.648101 387.447 0.550946 387.467 0.460286 387.506C0.369627 387.545 0.287253 387.602 0.217908 387.674C0.148562 387.746 0.0936095 387.832 0.0562136 387.926C0.0188176 388.021 -0.000285584 388.122 3.30257e-06 388.224Z" fill="#CCCCCC"/>
<path d="M395.771 220.237H268.698C266.637 220.234 264.661 219.381 263.204 217.865C261.746 216.348 260.926 214.293 260.924 212.148V194.331C260.926 192.187 261.746 190.131 263.204 188.615C264.661 187.099 266.637 186.246 268.698 186.243H395.771C397.833 186.246 399.809 187.099 401.266 188.615C402.724 190.131 403.544 192.187 403.546 194.331V212.148C403.544 214.293 402.724 216.348 401.266 217.865C399.809 219.381 397.833 220.234 395.771 220.237Z" fill="#E6E6E6"/>
<path d="M347.673 200.191H310.232C309.788 200.191 309.362 200.007 309.048 199.68C308.734 199.353 308.557 198.91 308.557 198.448C308.557 197.986 308.734 197.543 309.048 197.216C309.362 196.889 309.788 196.706 310.232 196.706H347.673C348.117 196.706 348.543 196.889 348.857 197.216C349.171 197.543 349.348 197.986 349.348 198.448C349.348 198.91 349.171 199.353 348.857 199.68C348.543 200.007 348.117 200.191 347.673 200.191Z" fill="white"/>
<path d="M383.683 209.774H309.813C309.369 209.774 308.943 209.591 308.629 209.264C308.315 208.937 308.138 208.494 308.138 208.032C308.138 207.57 308.315 207.126 308.629 206.8C308.943 206.473 309.369 206.289 309.813 206.289H383.683C384.127 206.289 384.553 206.473 384.867 206.8C385.182 207.126 385.358 207.57 385.358 208.032C385.358 208.494 385.182 208.937 384.867 209.264C384.553 209.591 384.127 209.774 383.683 209.774Z" fill="white"/>
<path d="M290.341 214.923C296.543 214.923 301.571 209.692 301.571 203.24C301.571 196.788 296.543 191.557 290.341 191.557C284.139 191.557 279.111 196.788 279.111 203.24C279.111 209.692 284.139 214.923 290.341 214.923Z" fill="white"/>
<path d="M355.014 265.899H227.941C225.88 265.897 223.904 265.044 222.446 263.527C220.989 262.011 220.169 259.955 220.167 257.811V239.994C220.169 237.85 220.989 235.794 222.446 234.278C223.904 232.761 225.88 231.908 227.941 231.906H355.014C357.075 231.908 359.051 232.761 360.509 234.278C361.966 235.794 362.786 237.85 362.789 239.994V257.811C362.786 259.955 361.966 262.011 360.509 263.527C359.051 265.044 357.075 265.897 355.014 265.899Z" fill="#E6E6E6"/>
<path d="M306.916 245.853H269.475C269.031 245.853 268.605 245.67 268.291 245.343C267.977 245.016 267.8 244.573 267.8 244.111C267.8 243.649 267.977 243.205 268.291 242.879C268.605 242.552 269.031 242.368 269.475 242.368H306.916C307.36 242.368 307.786 242.552 308.1 242.879C308.415 243.205 308.591 243.649 308.591 244.111C308.591 244.573 308.415 245.016 308.1 245.343C307.786 245.67 307.36 245.853 306.916 245.853Z" fill="white"/>
<path d="M342.926 255.437H269.056C268.612 255.437 268.186 255.253 267.872 254.927C267.558 254.6 267.381 254.157 267.381 253.694C267.381 253.232 267.558 252.789 267.872 252.462C268.186 252.136 268.612 251.952 269.056 251.952H342.926C343.371 251.952 343.797 252.136 344.111 252.462C344.425 252.789 344.601 253.232 344.601 253.694C344.601 254.157 344.425 254.6 344.111 254.927C343.797 255.253 343.371 255.437 342.926 255.437Z" fill="white"/>
<path d="M249.584 260.585C255.786 260.585 260.814 255.355 260.814 248.903C260.814 242.45 255.786 237.22 249.584 237.22C243.382 237.22 238.354 242.45 238.354 248.903C238.354 255.355 243.382 260.585 249.584 260.585Z" fill="white"/>
</g>
<defs>
<clipPath id="clip0_307_5504">
<rect width="450" height="389" fill="white"/>
</clipPath>
</defs>
</svg>
