<svg viewBox="0 0 550 369" fill="none" xmlns="http://www.w3.org/2000/svg">
<g clip-path="url(#clip0_248_10008)">
<path d="M30.0385 336.049C18.3183 348.323 15.8857 368.455 15.8857 368.455C15.8857 368.455 32.4552 368.686 44.1754 356.412C55.8956 344.137 58.3282 324.005 58.3282 324.005C58.3282 324.005 41.7587 323.774 30.0385 336.049Z" fill="#F2F2F2"/>
<path d="M35.4541 340.932C30.4618 358.829 16.1088 369 16.1088 369C16.1088 369 9.84998 350.155 14.8423 332.258C19.8347 314.362 34.1877 304.191 34.1877 304.191C34.1877 304.191 40.4465 323.036 35.4541 340.932Z" fill="#F2F2F2"/>
<path d="M157.789 76.1526C155.137 71.9322 151.39 68.0272 151.152 62.8193C150.935 58.0427 153.834 53.3003 152.611 48.7305C151.671 45.2169 148.569 43.0968 145.537 41.9741C139.734 39.8555 133.523 40.1491 127.869 42.8095L128.176 42.5437C124.725 41.0339 120.691 42.5925 117.976 45.4793C115.261 48.3661 113.648 52.3675 112.396 56.3774C111.143 60.3872 110.173 64.5438 108.434 68.303C106.694 72.0623 104.03 75.481 100.516 76.7802C101.692 79.6627 105.37 80.6516 107.527 78.6654C108.078 78.1157 108.574 77.4867 109.003 76.792C110.441 74.6433 111.88 72.4946 113.319 70.346C114.799 73.5797 112.588 78.0429 114.407 81.0367C115.345 82.5806 117.059 83.1668 118.651 83.5874C131.09 86.8473 143.994 86.2595 156.203 81.8766C157.184 81.5215 158.267 81.0324 158.674 79.9416C159.144 78.6822 158.486 77.2624 157.789 76.1526Z" fill="#2F2E41"/>
<path d="M193.061 92.6228C192.983 93.0423 192.932 93.4686 192.909 93.8978L165.72 113.163L159.112 108.49L152.066 119.818L163.111 129.487C164.003 130.268 165.078 130.673 166.173 130.64C167.269 130.607 168.326 130.139 169.186 129.305L197.223 102.139C198.488 102.714 199.866 102.803 201.173 102.393C202.48 101.983 203.655 101.093 204.54 99.8435C205.426 98.5935 205.981 97.042 206.131 95.3952C206.282 93.7484 206.02 92.0844 205.382 90.6246C204.743 89.1648 203.758 87.9783 202.557 87.223C201.356 86.4676 199.997 86.1792 198.659 86.3962C197.322 86.6131 196.07 87.325 195.069 88.4373C194.069 89.5496 193.369 91.0095 193.061 92.6228Z" fill="#FFB7B7"/>
<path d="M164.811 114.075L156.024 128.064C155.774 128.462 155.457 128.789 155.094 129.023C154.732 129.257 154.333 129.392 153.924 129.42C153.516 129.447 153.107 129.366 152.726 129.182C152.345 128.998 152.001 128.715 151.717 128.353L141.769 115.665C140.116 114.084 139.042 111.761 138.782 109.207C138.522 106.653 139.097 104.077 140.382 102.044C141.667 100.011 143.556 98.6875 145.635 98.3636C147.714 98.0397 149.812 98.7422 151.47 100.317L163.947 108.886C164.304 109.131 164.614 109.468 164.855 109.874C165.097 110.28 165.264 110.745 165.346 111.237C165.428 111.73 165.423 112.238 165.331 112.728C165.238 113.218 165.061 113.677 164.811 114.075Z" fill="#C87AE1"/>
<path d="M152.717 357.803L160.477 357.802L164.168 321.042L152.716 321.042L152.717 357.803Z" fill="#FFB7B7"/>
<path d="M150.738 354.691L166.02 354.691H166.02C168.603 354.691 171.08 355.951 172.906 358.194C174.733 360.437 175.759 363.479 175.759 366.652V367.04L150.739 367.041L150.738 354.691Z" fill="#2F2E41"/>
<path d="M99.552 357.803L107.312 357.802L111.003 321.042L99.5508 321.042L99.552 357.803Z" fill="#FFB7B7"/>
<path d="M97.5723 354.691L112.854 354.691H112.854C115.437 354.691 117.914 355.951 119.74 358.194C121.567 360.437 122.593 363.479 122.593 366.652V367.04L97.5727 367.041L97.5723 354.691Z" fill="#2F2E41"/>
<path d="M148.057 70.9559C148.866 61.9135 143.553 53.7785 136.19 52.7859C128.828 51.7933 122.205 58.3189 121.397 67.3613C120.589 76.4037 125.902 84.5387 133.264 85.5313C140.626 86.5239 147.249 79.9982 148.057 70.9559Z" fill="#FFB7B7"/>
<path d="M142.574 93.8506L150.474 98.6577C150.474 98.6577 159.301 117.499 154.238 135.379C151.78 144.06 158.702 171.732 158.702 171.732C158.702 171.732 169.428 297.074 169.462 335.759C156.137 338.276 143.478 341.385 142.845 333.611C142.212 325.837 135.284 233.922 135.284 233.922C135.284 233.922 125.756 335.943 118.161 337.498C110.566 339.053 95.376 336.721 95.376 336.721C95.376 336.721 107.435 187.279 115.663 177.951L116.929 170.177L116.895 100.397L126.375 94.8402L142.574 93.8506Z" fill="#2F2E41"/>
<path d="M114.312 199.785C115.186 199.204 115.946 198.394 116.538 197.413C117.13 196.433 117.54 195.305 117.738 194.108C117.937 192.912 117.92 191.677 117.688 190.49C117.455 189.302 117.014 188.192 116.395 187.237L125.583 112.016L113.579 111.309L106.417 186.218C105.179 187.602 104.398 189.496 104.222 191.54C104.045 193.584 104.485 195.636 105.458 197.309C106.431 198.981 107.87 200.156 109.502 200.613C111.134 201.069 112.845 200.774 114.312 199.785Z" fill="#FFB7B7"/>
<path d="M125.322 130.864L110.966 129.751C110.557 129.719 110.159 129.58 109.798 129.342C109.438 129.104 109.123 128.774 108.876 128.373C108.628 127.973 108.454 127.511 108.365 127.021C108.276 126.53 108.274 126.022 108.359 125.53L111.351 108.303C111.494 105.737 112.46 103.345 114.038 101.652C115.615 99.9598 117.674 99.1045 119.764 99.2741C121.854 99.4437 123.803 100.624 125.185 102.557C126.567 104.49 127.269 107.017 127.136 109.584L128.339 127.079C128.374 127.58 128.32 128.084 128.181 128.557C128.043 129.03 127.823 129.461 127.536 129.82C127.25 130.179 126.904 130.459 126.522 130.639C126.14 130.819 125.73 130.896 125.322 130.864Z" fill="#C87AE1"/>
<path d="M522.092 59.5351H204.62C202.303 59.5351 200.08 60.6659 198.441 62.6786C196.802 64.6913 195.882 67.4212 195.882 70.2676V287.529C195.882 290.376 196.802 293.106 198.441 295.118C200.08 297.131 202.303 298.262 204.62 298.262H522.092C524.409 298.262 526.632 297.131 528.27 295.118C529.909 293.106 530.83 290.376 530.83 287.529V70.2676C530.83 67.4212 529.909 64.6913 528.27 62.6786C526.632 60.6659 524.409 59.5351 522.092 59.5351Z" fill="#3F3D56"/>
<path d="M519.114 78.5024H207.597V294.338H519.114V78.5024Z" fill="white"/>
<path d="M363.09 72.616C364.854 72.616 366.285 70.859 366.285 68.6917C366.285 66.5244 364.854 64.7675 363.09 64.7675C361.325 64.7675 359.895 66.5244 359.895 68.6917C359.895 70.859 361.325 72.616 363.09 72.616Z" fill="white"/>
<path d="M430.025 294.338H207.597V78.5023L430.025 294.338Z" fill="#F2F2F2"/>
<path d="M539.577 290.413H509.174V287.723C509.174 287.581 509.129 287.446 509.047 287.346C508.966 287.246 508.855 287.189 508.74 287.189H498.317C498.259 287.189 498.203 287.203 498.15 287.23C498.098 287.257 498.05 287.296 498.009 287.346C497.969 287.395 497.937 287.454 497.915 287.519C497.893 287.583 497.882 287.653 497.882 287.723V290.413H491.368V287.723C491.368 287.653 491.356 287.583 491.335 287.519C491.313 287.454 491.281 287.395 491.24 287.346C491.2 287.296 491.152 287.257 491.099 287.23C491.047 287.203 490.99 287.189 490.933 287.189H480.51C480.453 287.189 480.396 287.203 480.344 287.23C480.291 287.257 480.243 287.296 480.203 287.346C480.162 287.395 480.13 287.454 480.108 287.519C480.087 287.583 480.075 287.653 480.075 287.723V290.413H473.561V287.723C473.561 287.653 473.549 287.583 473.528 287.519C473.506 287.454 473.474 287.395 473.433 287.346C473.393 287.296 473.345 287.257 473.293 287.23C473.24 287.203 473.183 287.189 473.126 287.189H462.703C462.646 287.189 462.589 287.203 462.537 287.23C462.484 287.257 462.436 287.296 462.396 287.346C462.355 287.395 462.323 287.454 462.301 287.519C462.28 287.583 462.268 287.653 462.268 287.723V290.413H455.754V287.723C455.754 287.653 455.742 287.583 455.721 287.519C455.699 287.454 455.667 287.395 455.627 287.346C455.586 287.296 455.538 287.257 455.486 287.23C455.433 287.203 455.376 287.189 455.319 287.189H444.896C444.839 287.189 444.782 287.203 444.73 287.23C444.677 287.257 444.629 287.296 444.589 287.346C444.548 287.395 444.516 287.454 444.495 287.519C444.473 287.583 444.462 287.653 444.462 287.723V290.413H437.947V287.723C437.947 287.653 437.936 287.583 437.914 287.519C437.892 287.454 437.86 287.395 437.82 287.346C437.779 287.296 437.731 287.257 437.679 287.23C437.626 287.203 437.57 287.189 437.512 287.189H427.089C427.032 287.189 426.975 287.203 426.923 287.23C426.87 287.257 426.822 287.296 426.782 287.346C426.741 287.395 426.709 287.454 426.688 287.519C426.666 287.583 426.655 287.653 426.655 287.723V290.413H420.14V287.723C420.14 287.653 420.129 287.583 420.107 287.519C420.085 287.454 420.053 287.395 420.013 287.346C419.972 287.296 419.924 287.257 419.872 287.23C419.819 287.203 419.763 287.189 419.706 287.189H409.282C409.225 287.189 409.168 287.203 409.116 287.23C409.063 287.257 409.015 287.296 408.975 287.346C408.935 287.395 408.903 287.454 408.881 287.519C408.859 287.583 408.848 287.653 408.848 287.723V290.413H402.333V287.723C402.333 287.653 402.322 287.583 402.3 287.519C402.278 287.454 402.246 287.395 402.206 287.346C402.165 287.296 402.118 287.257 402.065 287.23C402.012 287.203 401.956 287.189 401.899 287.189H320.247C320.19 287.189 320.134 287.203 320.081 287.23C320.028 287.257 319.981 287.296 319.94 287.346C319.9 287.395 319.868 287.454 319.846 287.519C319.824 287.583 319.813 287.653 319.813 287.723V290.413H313.298V287.723C313.298 287.653 313.287 287.583 313.265 287.519C313.243 287.454 313.211 287.395 313.171 287.346C313.131 287.296 313.083 287.257 313.03 287.23C312.977 287.203 312.921 287.189 312.864 287.189H302.44C302.383 287.189 302.327 287.203 302.274 287.23C302.222 287.257 302.174 287.296 302.133 287.346C302.093 287.395 302.061 287.454 302.039 287.519C302.017 287.583 302.006 287.653 302.006 287.723V290.413H295.491V287.723C295.491 287.653 295.48 287.583 295.458 287.519C295.436 287.454 295.404 287.395 295.364 287.346C295.324 287.296 295.276 287.257 295.223 287.23C295.171 287.203 295.114 287.189 295.057 287.189H284.633C284.576 287.189 284.52 287.203 284.467 287.23C284.415 287.257 284.367 287.296 284.326 287.346C284.286 287.395 284.254 287.454 284.232 287.519C284.21 287.583 284.199 287.653 284.199 287.723V290.413H277.684V287.723C277.684 287.653 277.673 287.583 277.651 287.519C277.63 287.454 277.598 287.395 277.557 287.346C277.517 287.296 277.469 287.257 277.416 287.23C277.364 287.203 277.307 287.189 277.25 287.189H266.827C266.769 287.189 266.713 287.203 266.66 287.23C266.608 287.257 266.56 287.296 266.519 287.346C266.479 287.395 266.447 287.454 266.425 287.519C266.403 287.583 266.392 287.653 266.392 287.723V290.413H259.878V287.723C259.878 287.653 259.866 287.583 259.844 287.519C259.823 287.454 259.791 287.395 259.75 287.346C259.71 287.296 259.662 287.257 259.609 287.23C259.557 287.203 259.5 287.189 259.443 287.189H249.02C248.963 287.189 248.906 287.203 248.853 287.23C248.801 287.257 248.753 287.296 248.712 287.346C248.672 287.395 248.64 287.454 248.618 287.519C248.597 287.583 248.585 287.653 248.585 287.723V290.413H242.071V287.723C242.071 287.653 242.059 287.583 242.037 287.519C242.016 287.454 241.984 287.395 241.943 287.346C241.903 287.296 241.855 287.257 241.802 287.23C241.75 287.203 241.693 287.189 241.636 287.189H231.213C231.097 287.189 230.987 287.246 230.906 287.346C230.824 287.446 230.778 287.581 230.778 287.723V290.413H224.264V287.723C224.264 287.653 224.252 287.583 224.231 287.519C224.209 287.454 224.177 287.395 224.136 287.346C224.096 287.296 224.048 287.257 223.996 287.23C223.943 287.203 223.886 287.189 223.829 287.189H213.406C213.291 287.189 213.18 287.246 213.099 287.346C213.017 287.446 212.971 287.581 212.971 287.723V290.413H192.993C191.624 290.413 190.269 290.744 189.004 291.388C187.739 292.031 186.59 292.974 185.622 294.163C184.654 295.352 183.887 296.763 183.363 298.317C182.839 299.87 182.569 301.535 182.569 303.216V309.005C182.569 312.4 183.668 315.657 185.622 318.058C187.577 320.459 190.228 321.807 192.993 321.807H539.577C542.341 321.807 544.992 320.459 546.947 318.058C548.902 315.657 550 312.4 550 309.005V303.216C550 301.535 549.731 299.87 549.207 298.317C548.683 296.763 547.915 295.352 546.947 294.163C545.979 292.974 544.83 292.031 543.566 291.388C542.301 290.744 540.945 290.413 539.577 290.413Z" fill="#3F3D56"/>
<path d="M369.347 266.036C369.243 266.34 369.126 266.637 368.997 266.925C368.317 268.466 367.357 269.792 366.191 270.802C364.81 271.995 363.19 272.7 361.505 272.839C359.821 272.979 358.138 272.547 356.639 271.592C355.141 270.637 353.885 269.194 353.008 267.422C352.131 265.65 351.668 263.616 351.668 261.543V259.716H352.93C357.836 263.61 363.51 265.795 369.347 266.036Z" fill="#3F3D56"/>
<path d="M387.364 260.251V261.543C387.364 264.059 386.683 266.503 385.426 268.49C384.169 270.477 382.41 271.893 380.425 272.514C378.44 273.136 376.343 272.927 374.466 271.922C372.588 270.916 371.037 269.171 370.057 266.961C369.922 266.666 369.8 266.362 369.691 266.05C369.961 266.059 370.227 266.064 370.496 266.064C376.447 266.072 382.285 264.06 387.364 260.251Z" fill="#3F3D56"/>
<path d="M399.781 123.597C399.504 123.547 399.224 123.515 398.943 123.492C402.132 132.517 402.353 142.707 399.56 151.927C399.841 151.886 400.117 151.832 400.394 151.768C403.098 151.125 405.528 149.324 407.252 146.686C408.976 144.048 409.881 140.745 409.808 137.363C409.734 133.982 408.686 130.743 406.85 128.222C405.014 125.701 402.509 124.062 399.781 123.597Z" fill="#3F3D56"/>
<path d="M342.048 123.492C341.767 123.515 341.487 123.547 341.21 123.597C338.482 124.062 335.977 125.701 334.141 128.222C332.305 130.743 331.257 133.982 331.184 137.363C331.11 140.745 332.016 144.048 333.74 146.686C335.464 149.324 337.894 151.125 340.597 151.768C340.874 151.832 341.151 151.886 341.431 151.927C338.639 142.707 338.86 132.517 342.048 123.492Z" fill="#3F3D56"/>
<path d="M399.783 123.597C396.742 114.674 391.109 107.458 383.978 103.352C376.848 99.2449 368.729 98.5403 361.199 101.375C353.669 104.209 347.266 110.38 343.233 118.688C339.201 126.997 337.827 136.85 339.378 146.334C340.929 155.817 345.295 164.254 351.628 170.005C357.96 175.755 365.807 178.41 373.644 177.452C381.481 176.494 388.748 171.993 394.034 164.822C399.32 157.651 402.246 148.323 402.246 138.65C402.244 133.482 401.407 128.365 399.783 123.597ZM399.562 151.927C396.861 160.843 391.542 168.194 384.65 172.534C377.758 176.874 369.793 177.889 362.322 175.378C354.852 172.867 348.417 167.012 344.285 158.967C340.152 150.921 338.622 141.267 339.993 131.905C341.365 122.543 345.541 114.15 351.698 108.379C357.855 102.608 365.548 99.8772 373.262 100.723C380.977 101.569 388.154 105.931 393.381 112.95C398.609 119.969 401.507 129.138 401.507 138.65C401.506 143.183 400.847 147.678 399.562 151.927Z" fill="#3F3D56"/>
<path d="M386.74 129.809H354.253C352.54 129.809 350.897 130.645 349.685 132.133C348.474 133.621 347.793 135.639 347.793 137.744C347.793 139.848 348.474 141.866 349.685 143.354C350.897 144.843 352.54 145.679 354.253 145.679H386.74C388.454 145.679 390.097 144.843 391.309 143.354C392.52 141.866 393.201 139.848 393.201 137.744C393.201 135.639 392.52 133.621 391.309 132.133C390.097 130.645 388.454 129.809 386.74 129.809Z" fill="#3F3D56"/>
<path d="M399.561 206.411C399.442 206.143 399.32 205.88 399.195 205.622C399.191 205.613 399.188 205.608 399.184 205.599C396.279 199.492 392.131 194.417 387.148 190.873C382.164 187.329 376.516 185.438 370.757 185.384C364.999 185.331 359.328 187.118 354.301 190.569C349.275 194.02 345.065 199.018 342.085 205.07C339.106 211.123 337.459 218.023 337.307 225.094C337.154 232.165 338.501 239.162 341.215 245.401C343.929 251.639 347.917 256.903 352.788 260.677C357.658 264.45 363.244 266.603 368.997 266.925C369.348 266.948 369.702 266.961 370.056 266.961C370.204 266.97 370.348 266.97 370.496 266.97C376.431 266.981 382.258 265.024 387.363 261.307C392.908 257.276 397.387 251.364 400.262 244.281C400.265 244.272 400.269 244.267 400.273 244.258C400.384 243.986 400.491 243.71 400.598 243.428C402.818 237.596 403.882 231.201 403.701 224.766C403.521 218.332 402.102 212.042 399.561 206.411ZM399.878 243.179C399.771 243.46 399.66 243.737 399.546 244.009C396.8 250.714 392.579 256.341 387.363 260.251C382.284 264.06 376.447 266.072 370.496 266.064C370.226 266.064 369.96 266.059 369.691 266.05C369.576 266.05 369.462 266.045 369.348 266.036C363.711 265.794 358.223 263.754 353.423 260.116C348.623 256.479 344.677 251.369 341.973 245.289C339.269 239.21 337.9 232.371 338.002 225.445C338.103 218.518 339.67 211.744 342.55 205.788C345.43 199.831 349.523 194.899 354.426 191.475C359.329 188.051 364.873 186.254 370.513 186.26C376.153 186.267 381.695 188.077 386.592 191.512C391.49 194.948 395.575 199.89 398.446 205.853C398.449 205.862 398.453 205.867 398.457 205.876C398.586 206.134 398.711 206.397 398.83 206.66C401.363 212.203 402.78 218.41 402.963 224.763C403.145 231.116 402.087 237.43 399.878 243.179Z" fill="#3F3D56"/>
<path d="M396.032 207.617C395.386 207.051 394.612 206.745 393.817 206.742H379.298C378.286 206.742 377.316 207.235 376.601 208.114C375.886 208.992 375.484 210.183 375.484 211.426C375.484 212.668 375.886 213.859 376.601 214.738C377.316 215.616 378.286 216.11 379.298 216.11H393.817C394.077 216.11 394.335 216.079 394.589 216.014C394.842 215.947 395.089 215.852 395.327 215.729C395.948 215.4 396.486 214.875 396.887 214.207C397.288 213.538 397.538 212.751 397.609 211.926C397.681 211.1 397.573 210.266 397.296 209.509C397.019 208.752 396.583 208.099 396.032 207.617Z" fill="#3F3D56"/>
<path d="M380.264 213.803C381.333 213.803 382.2 212.739 382.2 211.425C382.2 210.112 381.333 209.047 380.264 209.047C379.195 209.047 378.328 210.112 378.328 211.425C378.328 212.739 379.195 213.803 380.264 213.803Z" fill="#F1F1F1"/>
<path d="M386.555 213.803C387.625 213.803 388.491 212.739 388.491 211.425C388.491 210.112 387.625 209.047 386.555 209.047C385.486 209.047 384.619 210.112 384.619 211.425C384.619 212.739 385.486 213.803 386.555 213.803Z" fill="#F1F1F1"/>
<path d="M392.848 213.803C393.917 213.803 394.784 212.739 394.784 211.425C394.784 210.112 393.917 209.047 392.848 209.047C391.779 209.047 390.912 210.112 390.912 211.425C390.912 212.739 391.779 213.803 392.848 213.803Z" fill="#C87AE1"/>
<path d="M465.769 133.051C460.734 136.76 451.763 141.407 442.597 136.631L436.671 133.544L448.545 117.195C439.07 104.362 433.827 87.6532 433.842 70.329C433.856 53.0047 439.126 36.3088 448.624 23.5001C458.121 10.6914 471.163 2.68923 485.205 1.05552C499.247 -0.578185 513.281 4.27384 524.568 14.6645C535.854 25.0552 543.583 40.2388 546.245 57.2516C548.908 74.2644 546.313 91.8853 538.968 106.675C531.622 121.464 520.053 132.361 506.519 137.238C492.984 142.115 478.455 140.623 465.769 133.051Z" fill="white"/>
<path d="M465.798 133.933C460.96 137.421 451.744 142.243 442.348 137.347L435.609 133.836L447.694 117.197C440.175 106.808 435.326 93.9189 433.759 80.1523C432.192 66.3857 433.977 52.3574 438.889 39.8341C443.8 27.3109 451.619 16.8526 461.36 9.7765C471.101 2.70038 482.33 -0.677162 493.631 0.0692232C504.932 0.815608 515.801 5.65254 524.868 13.9709C533.935 22.2892 540.796 33.717 544.586 46.8149C548.375 59.9129 548.925 74.0953 546.165 87.5762C543.405 101.057 537.459 113.233 529.076 122.572C520.657 132.007 510.131 138.131 498.854 140.156C487.576 142.181 476.064 140.013 465.798 133.933ZM532.091 24.1278C527.144 17.4252 521.171 11.9852 514.512 8.11839C507.853 4.25163 500.639 2.0339 493.282 1.59186C485.926 1.14983 478.57 2.49215 471.636 5.54215C464.701 8.59216 458.324 13.2901 452.868 19.3677C447.412 25.4452 442.985 32.7833 439.838 40.9629C436.692 49.1425 434.888 58.0033 434.53 67.0392C434.172 76.0752 435.267 85.1092 437.752 93.6254C440.237 102.142 444.063 109.973 449.013 116.673L449.395 117.191L437.73 133.252L442.842 135.916C451.917 140.644 460.897 135.733 465.442 132.385L465.736 132.168L466.044 132.352C477.76 139.344 491.093 141.109 503.753 137.342C516.413 133.576 527.611 124.514 535.424 111.712C543.237 98.9096 547.178 83.1661 546.569 67.1842C545.961 51.2023 540.842 35.979 532.091 24.1278Z" fill="#C87AE1"/>
<path opacity="0.1" d="M538.43 69.9662C538.429 53.9469 533.545 38.5086 524.739 26.6914C515.934 14.8742 503.845 7.5347 490.854 6.11817C492.374 5.95461 493.911 5.86612 495.466 5.86612C509.302 5.87637 522.568 12.6343 532.349 24.6542C542.129 36.6742 547.623 52.9724 547.623 69.9661C547.623 86.9598 542.129 103.258 532.349 115.278C522.568 127.298 509.302 134.056 495.466 134.066C493.914 134.066 492.379 133.977 490.861 133.813C503.851 132.395 515.938 125.054 524.742 113.238C533.546 101.421 538.429 85.9838 538.43 69.9662Z" fill="black"/>
<path d="M497.917 57.1837H460.625V61.4372H497.917V57.1837Z" fill="#C87AE1"/>
<path d="M525.621 71.8979H460.625V76.1513H525.621V71.8979Z" fill="#C87AE1"/>
<path d="M525.558 86.612H460.625V90.8654H525.558V86.612Z" fill="#C87AE1"/>
<path d="M241.778 367.852H0.632926C0.465063 367.852 0.304076 367.771 0.185379 367.625C0.0666826 367.479 0 367.281 0 367.075C0 366.869 0.0666826 366.671 0.185379 366.525C0.304076 366.38 0.465063 366.298 0.632926 366.298H241.778C241.945 366.298 242.106 366.38 242.225 366.525C242.344 366.671 242.411 366.869 242.411 367.075C242.411 367.281 242.344 367.479 242.225 367.625C242.106 367.771 241.945 367.852 241.778 367.852Z" fill="#CBCBCB"/>
<path d="M148.782 58.4517C148.26 55.5401 146.562 53.1278 144.607 51.3611C141.384 48.4487 137.431 47.0171 133.437 47.3154C129.442 47.6137 125.66 49.6231 122.748 52.9938C121.12 54.7591 119.947 57.0685 119.372 59.6397C119.097 60.9249 119.082 62.2729 119.329 63.5666C119.575 64.8603 120.076 66.0603 120.786 67.0623L121.054 67.2684C120.811 66.0028 121.612 64.7382 122.568 64.1798C123.562 63.7316 124.6 63.4457 125.655 63.3295C127.252 62.959 128.765 62.1719 130.092 61.0214C131.42 59.871 132.53 58.384 133.35 56.6609C133.957 58.7816 134.927 60.7181 136.194 62.3401C137.461 63.9621 138.996 65.2321 140.696 66.0645C142.469 66.9158 147.337 68.0865 149.024 67.0056C151.177 65.6271 149.305 61.3633 148.782 58.4517Z" fill="#2F2E41"/>
</g>
<defs>
<clipPath id="clip0_248_10008">
<rect width="550" height="369" fill="white"/>
</clipPath>
</defs>
</svg>
