<svg viewBox="0 0 624 386" fill="none" xmlns="http://www.w3.org/2000/svg">
<g clip-path="url(#clip0_323_6463)">
<path d="M573.68 218.147C589.13 218.147 601.655 201.147 601.655 180.176C601.655 159.204 589.13 142.204 573.68 142.204C558.23 142.204 545.705 159.204 545.705 180.176C545.705 201.147 558.23 218.147 573.68 218.147Z" fill="#F2F2F2"/>
<path d="M573.68 190.168C577.746 190.168 581.042 185.694 581.042 180.176C581.042 174.657 577.746 170.183 573.68 170.183C569.614 170.183 566.318 174.657 566.318 180.176C566.318 185.694 569.614 190.168 573.68 190.168Z" fill="#E6E6E6"/>
<path d="M572.335 180.389C575.436 183.823 576.381 189.235 575.804 194.461C575.095 200.193 572.904 205.394 569.624 209.131C565.937 213.58 561.439 216.586 557.099 219.664C553.111 222.427 549.278 225.585 545.632 229.112C531.674 242.883 521.129 262.49 515.093 284.371C509.068 306.214 507.451 331.008 512.03 353.646C514.295 364.847 518.877 376.932 527.415 381.147C534.22 384.506 543.51 382.342 546.975 372.823C550.697 362.596 545.504 351.101 538.815 346.025C530.144 339.444 519.787 344.253 511.988 350.914C503.402 358.248 496.5 368.771 487.536 375.344C483.501 378.396 479.011 380.174 474.399 380.546C470.165 380.772 465.938 379.885 461.951 377.935C453.68 373.845 446.559 366.342 441.588 356.48C435.894 345.245 433.345 331.474 432.88 317.983C431.84 287.8 440.625 259.562 447.673 231.571C451.461 216.994 454.298 201.995 456.153 186.744C457.917 171.417 458.544 155.888 458.027 140.391C457.56 126.687 456.564 112.357 452.109 99.8419C448.19 88.8368 441.03 79.8297 431.977 77.5589C427.896 76.4718 423.667 77.1311 419.874 79.4459C418.583 80.2455 419.704 82.8299 420.989 82.0343C429.001 77.0735 438.47 81.9003 444.388 89.9103C451.298 99.2639 453.835 113.077 454.962 125.822C457.494 156.028 455.499 186.616 449.096 215.748C442.951 244.079 433.286 271.228 431.056 300.91C430.038 314.455 430.561 328.457 433.75 341.445C436.487 353.014 441.618 363.27 448.531 370.989C455.041 378.132 463.049 382.998 471.479 383.54C480.942 384.149 489.24 378.423 496.582 370.805C504.445 362.646 511.68 352.58 521.205 348.005C525.548 345.92 530.494 344.947 534.952 346.954C538.777 348.728 542.022 352.269 544.119 356.959C546.056 361.329 546.77 366.794 545.003 371.489C543.341 375.903 540.098 378.457 536.588 379.33C532.87 380.223 529.04 379.34 525.748 376.831C521.903 373.849 519.088 368.846 517.117 363.559C513.185 353.018 511.865 340.469 511.664 328.769C511.489 317.339 512.567 305.939 514.865 294.941C519.437 272.693 528.666 252.724 541.433 237.455C544.65 233.652 548.09 230.213 551.721 227.173C555.682 223.86 559.909 221.212 563.947 218.086C567.92 215.009 571.835 211.334 574.571 206.271C576.903 201.932 578.163 196.702 578.169 191.332C578.211 188.861 577.849 186.409 577.11 184.151C576.372 181.893 575.274 179.884 573.896 178.269C572.804 177.06 571.232 179.168 572.335 180.389Z" fill="#CCCCCC"/>
<path d="M311.173 355.045C320.955 363.627 332.27 368.442 343.911 368.975C343.703 369.644 343.47 370.297 343.211 370.933C341.857 374.328 339.942 377.252 337.616 379.477C334.863 382.107 331.631 383.66 328.272 383.967C324.913 384.274 321.557 383.323 318.569 381.218C315.581 379.113 313.076 375.934 311.328 372.029C309.58 368.124 308.655 363.642 308.655 359.072V355.045H311.173Z" fill="#3F3D56"/>
<path d="M379.837 356.224V359.072C379.838 364.616 378.479 370.003 375.973 374.382C373.467 378.761 369.958 381.881 366 383.251C362.042 384.62 357.861 384.16 354.116 381.944C350.372 379.728 347.279 375.882 345.325 371.013C345.055 370.362 344.812 369.691 344.596 369.005C345.133 369.025 345.663 369.035 346.201 369.035C358.068 369.053 369.709 364.62 379.837 356.224Z" fill="#3F3D56"/>
<path d="M404.602 55.0688C404.05 54.9589 403.49 54.889 402.931 54.839C409.288 74.727 409.729 97.1831 404.16 117.502C404.72 117.412 405.272 117.292 405.824 117.152C411.215 115.735 416.061 111.766 419.499 105.953C422.936 100.139 424.742 92.8591 424.595 85.4077C424.449 77.9563 422.359 70.8173 418.697 65.2616C415.036 59.7059 410.041 56.094 404.602 55.0688Z" fill="#3F3D56"/>
<path d="M289.47 54.839C288.911 54.889 288.351 54.9589 287.799 55.0688C282.359 56.0939 277.364 59.7058 273.703 65.2615C270.042 70.8173 267.952 77.9562 267.805 85.4076C267.658 92.8591 269.465 100.139 272.902 105.953C276.34 111.766 281.185 115.735 286.577 117.152C287.129 117.292 287.681 117.412 288.241 117.502C282.672 97.1831 283.112 74.727 289.47 54.839Z" fill="#3F3D56"/>
<path d="M404.602 55.0689C398.537 35.4034 387.303 19.5 373.083 10.4484C358.862 1.39677 342.671 -0.156836 327.654 6.08942C312.637 12.3357 299.866 25.9358 291.824 44.2476C283.781 62.5594 281.04 84.2754 284.134 105.177C287.228 126.078 295.935 144.672 308.564 157.347C321.193 170.022 336.842 175.872 352.471 173.761C368.1 171.651 382.593 161.73 393.134 145.926C403.676 130.122 409.513 109.563 409.512 88.2441C409.509 76.8535 407.84 65.5772 404.602 55.0689ZM404.16 117.502C398.774 137.151 388.166 153.353 374.422 162.918C360.677 172.483 344.793 174.719 329.896 169.185C314.998 163.652 302.166 150.75 293.925 133.018C285.684 115.287 282.631 94.0109 285.367 73.3776C288.103 52.7443 296.43 34.2484 308.708 21.5302C320.987 8.81193 336.328 2.79266 351.712 4.65704C367.097 6.52143 381.409 16.1344 391.834 31.604C402.259 47.0736 408.04 67.2793 408.039 88.2441C408.037 98.2322 406.723 108.14 404.16 117.502Z" fill="#3F3D56"/>
<path d="M378.592 68.7587H313.808C310.391 68.7587 307.114 70.601 304.698 73.8805C302.282 77.1599 300.925 81.6078 300.925 86.2456C300.925 90.8834 302.282 95.3313 304.698 98.6108C307.114 101.89 310.391 103.733 313.808 103.733H378.592C382.009 103.733 385.285 101.89 387.701 98.6108C390.117 95.3313 391.475 90.8834 391.475 86.2456C391.475 81.6078 390.117 77.1599 387.701 73.8805C385.285 70.601 382.009 68.7587 378.592 68.7587Z" fill="#3F3D56"/>
<path d="M346.2 191.167C328.893 191.178 312.275 200.381 299.903 216.808C287.53 233.235 280.384 255.581 279.993 279.068C279.603 302.554 285.999 325.316 297.813 342.483C309.627 359.651 325.922 369.863 343.211 370.933C343.911 370.983 344.617 371.013 345.324 371.013C345.618 371.033 345.906 371.033 346.2 371.033C363.772 371.033 380.625 361.558 393.05 344.692C405.476 327.827 412.456 304.952 412.456 281.1C412.456 257.248 405.476 234.374 393.05 217.508C380.625 200.642 363.772 191.167 346.2 191.167ZM379.836 356.224C369.708 364.62 358.068 369.053 346.2 369.035C345.663 369.035 345.132 369.025 344.595 369.005C344.367 369.005 344.139 368.995 343.911 368.975C328.354 368.241 313.511 359.933 302.095 345.569C290.68 331.205 283.453 311.745 281.736 290.745C280.02 269.745 283.928 248.608 292.746 231.197C301.565 213.786 314.705 201.263 329.764 195.918C344.824 190.573 360.798 192.763 374.767 202.087C388.735 211.41 399.766 227.245 405.842 246.698C411.918 266.151 412.634 287.922 407.859 308.032C403.084 328.142 393.137 345.248 379.836 356.224Z" fill="#3F3D56"/>
<path d="M392.702 258.95H363.746C361.728 258.95 359.793 257.862 358.367 255.926C356.94 253.989 356.139 251.363 356.139 248.624C356.139 245.886 356.94 243.259 358.367 241.323C359.793 239.386 361.728 238.299 363.746 238.299H392.702C394.72 238.299 396.655 239.386 398.082 241.323C399.508 243.259 400.31 245.886 400.31 248.624C400.31 251.363 399.508 253.989 398.082 255.926C396.655 257.862 394.72 258.95 392.702 258.95Z" fill="#3F3D56"/>
<path d="M365.676 253.865C367.809 253.865 369.537 251.519 369.537 248.624C369.537 245.73 367.809 243.384 365.676 243.384C363.544 243.384 361.815 245.73 361.815 248.624C361.815 251.519 363.544 253.865 365.676 253.865Z" fill="#F2F2F2"/>
<path d="M378.224 253.865C380.356 253.865 382.085 251.519 382.085 248.624C382.085 245.73 380.356 243.384 378.224 243.384C376.092 243.384 374.363 245.73 374.363 248.624C374.363 251.519 376.092 253.865 378.224 253.865Z" fill="#F2F2F2"/>
<path d="M390.772 253.865C392.904 253.865 394.633 251.519 394.633 248.624C394.633 245.73 392.904 243.384 390.772 243.384C388.64 243.384 386.911 245.73 386.911 248.624C386.911 251.519 388.64 253.865 390.772 253.865Z" fill="#C87AE1"/>
<path d="M121.194 381.413C127.814 373.82 131.835 361.825 130.781 350.148C129.726 338.472 123.194 327.737 114.722 325.257C106.25 322.778 96.5917 329.642 94.0183 340.875C92.6021 319.217 90.9702 296.651 82.4868 278.207C74.8053 261.507 61.5007 249.557 47.0817 247.419C32.6626 245.281 17.4811 253.355 8.48848 268.803C-0.504169 284.251 -2.70599 306.709 3.59223 324.444C8.23191 337.509 16.7798 347.232 25.7359 355.142C54.309 380.379 89.7538 388.905 123.48 382.168L121.194 381.413Z" fill="#F2F2F2"/>
<path d="M22.7477 253.803C34.6452 266.957 45.56 281.668 55.334 297.724C65.1096 313.764 73.716 331.053 81.0323 349.348C85.1217 359.611 88.7953 370.17 92.0368 380.976C92.6977 383.174 90.0678 384.131 89.4143 381.957C83.6729 362.906 76.5697 344.663 68.2066 327.492C59.8841 310.384 50.3585 294.411 39.7637 279.799C33.7712 271.538 27.4487 263.731 20.8247 256.413C19.4669 254.912 21.4012 252.315 22.7477 253.803Z" fill="white"/>
<path d="M118.949 65.9508C131.553 65.9508 141.771 52.082 141.771 34.974C141.771 17.8659 131.553 3.99707 118.949 3.99707C106.345 3.99707 96.1279 17.8659 96.1279 34.974C96.1279 52.082 106.345 65.9508 118.949 65.9508Z" fill="#2F2E41"/>
<path d="M204.064 148.401C203.626 149.293 203.093 150.092 202.482 150.771C201.601 151.757 200.578 152.478 199.477 152.889C198.377 153.3 197.225 153.39 196.097 153.155C194.969 152.919 193.891 152.363 192.932 151.522C191.974 150.681 191.157 149.575 190.536 148.276C190.392 147.973 190.26 147.66 190.14 147.339L154.178 142.629C151.34 142.243 148.669 140.624 146.562 138.014C144.455 135.404 143.025 131.941 142.483 128.14L140.441 113.534L154.476 110.57L156.995 122.27L192.057 133.961C192.329 133.637 192.617 133.34 192.919 133.071C194.483 131.693 196.35 131.09 198.203 131.364C200.057 131.637 201.784 132.77 203.094 134.571C204.404 136.373 205.215 138.732 205.392 141.252C205.569 143.771 205.099 146.296 204.064 148.401Z" fill="#FFB8B8"/>
<path d="M157.857 120.504L142.18 126.253C141.332 126.562 140.428 126.403 139.666 125.809C138.904 125.215 138.348 124.235 138.118 123.084L132.626 95.493C132.038 92.5375 132.277 89.3911 133.297 86.6604C134.316 83.9297 136.045 81.8082 138.149 80.7049C140.252 79.6016 142.583 79.5946 144.69 80.6854C146.798 81.7761 148.533 83.8873 149.561 86.6118L159.942 114.113C160.167 114.709 160.291 115.366 160.305 116.035C160.319 116.705 160.223 117.371 160.023 117.983C159.823 118.596 159.525 119.14 159.15 119.576C158.776 120.012 158.334 120.329 157.857 120.504Z" fill="#2F2E41"/>
<path d="M148.776 373.854H157.8L162.095 326.601L148.773 326.602L148.776 373.854Z" fill="#FFB8B8"/>
<path d="M175.207 385.228L146.842 385.23L146.841 370.354L164.247 370.353C167.154 370.353 169.941 371.92 171.997 374.71C174.052 377.499 175.207 381.283 175.207 385.228Z" fill="#2F2E41"/>
<path d="M68.334 361.915L76.778 366.242L93.0932 324.095L80.6311 317.709L68.334 361.915Z" fill="#FFB8B8"/>
<path d="M90.1006 385.23L63.5636 371.63L67.4349 357.713L83.7189 366.059C86.4382 367.452 88.6382 370.255 89.8349 373.85C91.0317 377.446 91.1273 381.539 90.1006 385.23Z" fill="#2F2E41"/>
<path d="M148.491 362.879C147.791 362.878 147.11 362.576 146.544 362.017C145.979 361.458 145.558 360.67 145.343 359.767L122.324 263.274C122.256 262.988 122.126 262.737 121.951 262.552C121.776 262.368 121.564 262.259 121.343 262.24C121.122 262.221 120.902 262.292 120.711 262.445C120.52 262.598 120.368 262.826 120.274 263.098L88.3717 355.23C88.0262 356.226 87.4236 357.016 86.6781 357.449C85.9326 357.883 85.0958 357.931 84.3261 357.584L71.7618 351.899C70.9638 351.535 70.2973 350.774 69.8971 349.769C69.497 348.764 69.3931 347.59 69.6065 346.485L89.148 246.013C91.1928 235.37 92.6698 224.541 93.5676 213.61C94.938 195.61 101.155 178.93 111.027 166.768C115.338 161.408 118.14 154.178 118.953 146.32L119.006 145.818L147.624 151.951L165.751 352.73C165.845 353.804 165.651 354.888 165.206 355.785C164.76 356.682 164.093 357.333 163.324 357.618L149.356 362.722C149.074 362.826 148.783 362.879 148.491 362.879Z" fill="#2F2E41"/>
<path d="M128.015 65.8033C138.001 65.8033 146.096 54.8152 146.096 41.2606C146.096 27.706 138.001 16.7179 128.015 16.7179C118.029 16.7179 109.934 27.706 109.934 41.2606C109.934 54.8152 118.029 65.8033 128.015 65.8033Z" fill="#FFB8B8"/>
<path d="M145.845 156.232C145.789 156.232 145.732 156.23 145.675 156.226L117.306 154.301C116.514 154.252 115.761 153.818 115.186 153.077C114.612 152.337 114.253 151.34 114.175 150.269L110.3 98.9789C110.016 95.2229 110.413 91.4296 111.457 87.9297C112.501 84.4299 114.159 81.3295 116.288 78.8988C118.416 76.4681 120.951 74.7809 123.67 73.9841C126.389 73.1873 129.21 73.3051 131.888 74.3273C134.106 75.1521 136.174 76.5957 137.958 78.5659C157.915 100.812 151.48 141.117 149.032 152.941C148.841 153.888 148.425 154.723 147.849 155.318C147.273 155.912 146.569 156.234 145.845 156.232Z" fill="#C87AE1"/>
<path d="M121.164 190.672C120.375 190.672 119.589 190.513 118.834 190.198C117.742 189.749 116.732 188.991 115.871 187.975C115.009 186.96 114.316 185.708 113.835 184.303C113.355 182.898 113.099 181.371 113.084 179.822C113.069 178.273 113.295 176.737 113.748 175.315C113.854 174.985 113.972 174.663 114.103 174.349L97.0717 131.1C95.7365 127.679 95.2497 123.764 95.6836 119.937C96.1175 116.111 97.4489 112.576 99.4803 109.857L107.309 99.46L116.901 113.679L111.12 123.006L123.371 169.105C123.72 169.233 124.062 169.394 124.394 169.586C126.105 170.591 127.509 172.366 128.368 174.612C129.227 176.858 129.489 179.438 129.11 181.916C128.73 184.393 127.733 186.618 126.285 188.213C124.838 189.808 123.029 190.677 121.164 190.672Z" fill="#FFB8B8"/>
<path d="M112.681 123.002L100.471 108.469C99.8112 107.682 99.4084 106.572 99.3509 105.382C99.2934 104.193 99.5859 103.021 100.164 102.124L114.046 80.6346C115.533 78.3328 117.595 76.8597 119.835 76.4994C122.075 76.1392 124.334 76.9173 126.176 78.6836C128.018 80.45 129.313 83.0796 129.811 86.0653C130.31 89.051 129.976 92.1815 128.874 94.853L117.756 121.817C117.515 122.402 117.181 122.906 116.778 123.293C116.375 123.68 115.913 123.939 115.427 124.053C114.94 124.166 114.441 124.131 113.966 123.949C113.491 123.767 113.052 123.444 112.681 123.002Z" fill="#2F2E41"/>
<path d="M116.38 65.1008C118.03 65.8948 120.052 66.5948 121.35 64.9481C122.618 63.3404 122.387 60.4005 121.64 58.2346C120.894 56.0687 119.736 54.1413 119.381 51.7839C118.872 48.4053 120.188 44.8953 122.065 42.6926C123.943 40.4898 126.307 39.3328 128.615 38.2193L141.272 32.1121C144.405 30.6004 147.781 28.8246 149.535 24.8464C152.071 19.09 149.752 10.8617 145.591 7.50279C141.43 4.14386 136.174 4.76961 131.684 7.13145C129.201 8.43774 126.839 10.2378 124.271 11.1573C119.203 12.9722 113.44 11.3441 108.987 15.2228C105.11 18.5992 103.312 25.4885 103.442 31.9347C103.573 38.3808 105.321 44.5198 107.166 50.4151C108.263 53.9224 109.435 57.4701 111.294 60.2597C113.152 63.0492 115.838 65.0007 118.521 64.4874L116.38 65.1008Z" fill="#2F2E41"/>
<path d="M99.8085 39.9702C107.94 39.9702 114.532 31.0225 114.532 19.9851C114.532 8.94763 107.94 0 99.8085 0C91.6769 0 85.085 8.94763 85.085 19.9851C85.085 31.0225 91.6769 39.9702 99.8085 39.9702Z" fill="#2F2E41"/>
<path d="M219.225 135.349L218.964 135.301L219.948 125.585C220.099 124.094 219.807 122.582 219.137 121.382C218.467 120.183 217.474 119.394 216.375 119.189L201.21 116.359C200.111 116.154 198.997 116.55 198.114 117.46C197.23 118.369 196.649 119.718 196.498 121.21L191.1 174.51C190.948 176.002 191.24 177.513 191.91 178.713C192.58 179.912 193.574 180.701 194.673 180.906L209.838 183.736C210.937 183.941 212.05 183.545 212.934 182.636C213.818 181.726 214.399 180.377 214.55 178.886L218.264 142.216L218.525 142.265L219.225 135.349Z" fill="#3F3D56"/>
<path d="M215.898 122.039L214.01 121.687C214.068 121.992 214.069 122.312 214.014 122.618C213.959 122.924 213.85 123.207 213.695 123.442C213.541 123.677 213.346 123.857 213.128 123.966C212.911 124.075 212.676 124.109 212.447 124.066L204.16 122.52C203.93 122.477 203.711 122.358 203.523 122.174C203.335 121.989 203.183 121.744 203.081 121.462C202.979 121.179 202.93 120.866 202.938 120.551C202.946 120.236 203.011 119.929 203.127 119.656L201.364 119.327C200.976 119.255 200.582 119.287 200.203 119.421C199.825 119.556 199.47 119.79 199.158 120.111C198.846 120.432 198.584 120.833 198.387 121.291C198.189 121.749 198.06 122.256 198.007 122.782L192.866 173.548C192.758 174.611 192.966 175.688 193.443 176.542C193.92 177.397 194.628 177.959 195.411 178.105L209.946 180.817C210.728 180.963 211.522 180.681 212.151 180.033C212.781 179.385 213.195 178.424 213.302 177.362L218.444 126.595C218.551 125.533 218.343 124.456 217.866 123.602C217.389 122.747 216.681 122.185 215.898 122.039Z" fill="white"/>
<path d="M205.59 164.187C210.063 164.187 213.688 159.266 213.688 153.196C213.688 147.125 210.063 142.204 205.59 142.204C201.118 142.204 197.492 147.125 197.492 153.196C197.492 159.266 201.118 164.187 205.59 164.187Z" fill="#C87AE1"/>
<path d="M204.788 157.389C204.605 157.389 204.428 157.309 204.282 157.161L204.273 157.152L202.37 155.174C202.281 155.082 202.207 154.968 202.151 154.838C202.095 154.707 202.059 154.563 202.044 154.413C202.029 154.263 202.036 154.111 202.065 153.965C202.093 153.819 202.143 153.682 202.21 153.562C202.278 153.442 202.363 153.342 202.459 153.266C202.556 153.191 202.662 153.142 202.772 153.122C202.883 153.103 202.995 153.113 203.102 153.152C203.21 153.192 203.31 153.26 203.399 153.352L204.631 154.635L207.544 149.478C207.612 149.359 207.696 149.258 207.792 149.183C207.888 149.108 207.994 149.059 208.105 149.039C208.215 149.019 208.326 149.029 208.434 149.068C208.541 149.107 208.642 149.174 208.73 149.266C208.907 149.451 209.024 149.725 209.053 150.027C209.083 150.329 209.023 150.634 208.887 150.875L205.46 156.941C205.381 157.081 205.279 157.194 205.162 157.271C205.046 157.349 204.917 157.389 204.788 157.389Z" fill="white"/>
<path d="M623.124 386H5.25293C5.02089 385.999 4.79859 385.873 4.63475 385.65C4.47092 385.427 4.37891 385.125 4.37891 384.81C4.37891 384.495 4.47092 384.193 4.63475 383.97C4.79859 383.747 5.02089 383.621 5.25293 383.62H623.124C623.356 383.62 623.579 383.746 623.744 383.969C623.908 384.192 624 384.495 624 384.81C624 385.126 623.908 385.428 623.744 385.651C623.579 385.875 623.356 386 623.124 386Z" fill="#CCCCCC"/>
</g>
<defs>
<clipPath id="clip0_323_6463">
<rect width="624" height="386" fill="white"/>
</clipPath>
</defs>
</svg>
