<svg  viewBox="0 0 358 263" fill="none" xmlns="http://www.w3.org/2000/svg">
<g clip-path="url(#clip0_450_6714)">
<rect x="0.556641" y="0.740662" width="356.458" height="261.925" rx="8" fill="black" fill-opacity="0.2"/>
<path d="M167.304 208.084L172.935 205.565L165.882 182.115L157.57 185.834L167.304 208.084Z" fill="#FFB6B6"/>
<path d="M163.27 201.718L171.693 195.769L174.018 199.517L185.898 200.102C186.485 200.131 187.047 200.346 187.503 200.717C187.958 201.088 188.283 201.595 188.43 202.164C188.578 202.733 188.539 203.333 188.32 203.879C188.102 204.424 187.715 204.885 187.215 205.195L176.801 211.655L172.706 209.062L174.305 213.204L170.378 215.64L163.27 201.718Z" fill="#2F2E41"/>
<path d="M311.953 163.699C311.953 161.341 311.161 159.427 310.189 159.423H45.0932C44.1164 159.427 43.3288 161.341 43.3244 163.699V260.782C43.3244 261.001 43.2429 261.212 43.0958 261.374C42.9487 261.537 42.7465 261.638 42.5285 261.659C41.817 261.728 41.1055 261.791 40.394 261.85C40.3764 261.85 40.3588 261.855 40.3412 261.855C39.954 261.89 39.5668 261.916 39.1796 261.947H39.1752C38.976 261.579 38.7791 261.207 38.5846 260.833C38.5188 260.706 38.4844 260.566 38.4844 260.424V158.151C38.4844 157.5 38.5108 156.844 38.5548 156.197C38.6176 155.309 38.7277 154.425 38.8848 153.549C39.6284 149.461 41.3092 146.693 43.2188 146.685H312.059C312.337 146.686 312.613 146.745 312.868 146.856C313.244 147.022 313.583 147.26 313.867 147.556C314.253 147.957 314.583 148.408 314.848 148.898C315.79 150.557 316.463 153.029 316.701 155.907C316.701 155.933 316.705 155.96 316.705 155.986C316.767 156.699 316.798 157.425 316.793 158.151L316.855 167.58L316.894 173.203L317.013 190.847L317.057 197.113L317.251 261.441C317.251 261.674 317.158 261.898 316.993 262.063C316.828 262.228 316.604 262.321 316.371 262.321H312.833C312.6 262.321 312.376 262.228 312.211 262.063C312.046 261.898 311.953 261.674 311.953 261.441V163.699Z" fill="#E6E6E6"/>
<path d="M239.92 102.563H211.356C210.952 102.564 210.564 102.725 210.279 103.011C209.994 103.297 209.834 103.685 209.834 104.089V149.212H241.446V104.089C241.446 103.889 241.407 103.69 241.33 103.505C241.253 103.32 241.141 103.152 240.999 103.01C240.858 102.868 240.689 102.756 240.504 102.679C240.319 102.603 240.121 102.563 239.92 102.563ZM225.734 128.202C224.841 128.198 223.985 127.841 223.354 127.209C222.722 126.578 222.365 125.722 222.361 124.829V119.624C222.362 118.73 222.718 117.873 223.35 117.242C223.983 116.61 224.84 116.255 225.734 116.255C226.628 116.255 227.485 116.61 228.118 117.242C228.75 117.873 229.106 118.73 229.107 119.624V124.829C229.103 125.722 228.746 126.578 228.115 127.209C227.483 127.841 226.627 128.198 225.734 128.202Z" fill="#2F2E41"/>
<path d="M209.734 147.769V152.123C209.735 152.348 209.825 152.564 209.984 152.724C210.144 152.883 210.36 152.973 210.585 152.974H240.691C240.917 152.973 241.133 152.883 241.292 152.723C241.451 152.564 241.541 152.348 241.542 152.123V147.769H209.734Z" fill="#3F3D56"/>
<path d="M173.036 39.7243C172.707 40.5519 172.201 41.2974 171.553 41.9082C170.905 42.519 170.131 42.9803 169.285 43.2595C168.439 43.5388 167.543 43.6293 166.658 43.5246C165.774 43.4199 164.923 43.1225 164.166 42.6535L123.846 70.7426L122.732 59.5488L162.377 33.8634C163.249 32.6438 164.539 31.7867 166.001 31.4542C167.463 31.1218 168.996 31.3372 170.31 32.0596C171.624 32.782 172.627 33.9613 173.129 35.374C173.632 36.7866 173.598 38.3345 173.036 39.7243Z" fill="#FFB6B6"/>
<path d="M82.7615 57.4348C82.7615 57.4348 78.3956 63.886 85.2466 69.5948C92.0977 75.3037 119.866 74.168 124.347 74.1189C128.829 74.0698 149.389 52.8007 149.389 52.8007L149.254 40.517L124.431 55.2464L82.7615 57.4348Z" fill="#F9A826"/>
<path d="M80.2883 100.265L80.7283 108.625C80.7283 108.625 79.4296 116.031 80.4977 117.629C81.5577 119.219 110.668 121.584 110.668 121.584C110.668 121.584 109.755 109.116 111.401 100.098L80.2883 100.265Z" fill="#FFB6B6"/>
<path d="M169.626 185.384L158.421 195.193L136.459 150.278C114.681 154.023 94.1355 155.223 76.3644 150.692C70.3476 149.179 66.6697 142.966 68.1496 136.815C68.2188 136.528 68.2987 136.244 68.3895 135.962C70.5164 129.473 76.0838 124.882 80.4701 117.744L112.509 118.231L108.931 130.578L140.055 126.551C146.314 125.741 152.03 130.271 152.823 136.67C152.865 137.008 152.892 137.347 152.905 137.688L169.626 185.384Z" fill="#2F2E41"/>
<path d="M92.7989 44.0058C99.984 44.0058 105.809 38.1811 105.809 30.996C105.809 23.8109 99.984 17.9862 92.7989 17.9862C85.6138 17.9862 79.7891 23.8109 79.7891 30.996C79.7891 38.1811 85.6138 44.0058 92.7989 44.0058Z" fill="#FFB6B6"/>
<path d="M85.1707 48.7024L97.0995 50.1058C97.6025 50.165 98.0746 50.3796 98.4498 50.7198C98.8251 51.06 99.0849 51.5087 99.1931 52.0036L101.09 60.6844L112.916 74.6106C112.916 74.6106 117.162 82.5728 115.57 91.5967C114.612 97.0305 112.954 102.317 110.638 107.326C110.638 107.326 81.5554 119.22 80.4938 117.627C79.4322 116.035 79.0876 108.801 79.0876 108.801L75.3461 67.1765C75.1319 64.9833 75.4057 62.7699 76.1479 60.6951C76.89 58.6202 78.0821 56.7352 79.6386 55.1754C80.5826 54.2468 81.5142 53.5969 82.2725 53.5969C83.9854 53.5391 83.7657 49.6839 85.1707 48.7024Z" fill="#F9A826"/>
<path d="M110.766 225.525L116.301 228.236L129.628 207.699L121.457 203.697L110.766 225.525Z" fill="#FFB6B6"/>
<path d="M124.028 220.883L112.655 216.566L128.264 169.686C107.059 163.468 91.0636 153.454 77.0978 141.567C72.3601 137.562 68.807 132.418 72.842 127.545C73.0306 127.317 73.2276 127.097 73.4329 126.884C78.1976 121.992 90.29 122.933 97.3689 118.454L113.201 135.357L112.209 139.885L141.931 149.96C147.908 151.986 151.049 158.57 148.945 164.664C148.834 164.986 148.71 165.303 148.571 165.614L124.028 220.883Z" fill="#2F2E41"/>
<path d="M110.579 222.253L120.094 226.23L118.154 230.191L123.969 240.566C124.256 241.079 124.372 241.669 124.3 242.252C124.228 242.835 123.971 243.38 123.567 243.807C123.164 244.234 122.634 244.52 122.056 244.625C121.478 244.729 120.882 244.646 120.354 244.387L109.348 238.996L109.37 234.149L106.71 237.704L102.561 235.671L110.579 222.253Z" fill="#2F2E41"/>
<path d="M91.9722 150.473C91.2261 149.987 90.5956 149.343 90.1252 148.587C89.6548 147.831 89.356 146.981 89.2497 146.097C89.1434 145.212 89.2322 144.316 89.51 143.47C89.7878 142.623 90.2477 141.848 90.8573 141.199L71.3086 96.1149L82.5012 97.2403L99.8277 141.186C100.85 142.283 101.435 143.716 101.472 145.215C101.508 146.714 100.993 148.174 100.025 149.319C99.0566 150.464 97.7021 151.213 96.2179 151.426C94.7337 151.639 93.2231 151.3 91.9722 150.473Z" fill="#FFB6B6"/>
<path d="M92.488 58.4781C92.488 58.4781 87.0291 52.9213 80.0767 58.5062C73.1243 64.0912 68.7389 91.5347 67.8996 95.9369C67.0604 100.339 83.837 124.704 83.837 124.704L95.904 127.005L86.3819 99.7555L92.488 58.4781Z" fill="#F9A826"/>
<path d="M287.22 32.1429H165.118C164.069 32.1446 163.063 32.562 162.321 33.3038C161.579 34.0456 161.162 35.0512 161.16 36.1002V118.495C161.161 119.545 161.578 120.551 162.32 121.292C163.062 122.034 164.068 122.452 165.118 122.453H287.22C288.269 122.452 289.275 122.034 290.017 121.292C290.759 120.551 291.176 119.545 291.177 118.495V36.1003C291.175 35.0512 290.758 34.0456 290.016 33.3038C289.274 32.562 288.269 32.1446 287.22 32.1429Z" fill="#3F3D56"/>
<path d="M286.201 35.0012H166.138C165.576 35.0024 165.038 35.2264 164.641 35.624C164.244 36.0216 164.022 36.5603 164.021 37.122V117.475C164.022 118.036 164.246 118.574 164.642 118.97C165.039 119.367 165.577 119.59 166.138 119.591H286.201C286.762 119.59 287.299 119.367 287.696 118.97C288.093 118.574 288.316 118.036 288.317 117.475V37.122C288.317 36.5603 288.094 36.0216 287.697 35.624C287.301 35.2264 286.762 35.0024 286.201 35.0012Z" fill="white"/>
<path d="M262.815 154.489H191.384C191.189 154.489 190.996 154.445 190.819 154.361C190.643 154.277 190.487 154.154 190.364 154.003C190.241 153.851 190.153 153.673 190.107 153.483C190.061 153.293 190.058 153.095 190.098 152.904L191.207 147.64C191.27 147.345 191.432 147.081 191.666 146.892C191.9 146.702 192.191 146.598 192.492 146.597H261.707C262.008 146.598 262.3 146.702 262.534 146.892C262.768 147.081 262.93 147.345 262.993 147.64L264.101 152.904C264.141 153.095 264.138 153.293 264.092 153.483C264.046 153.673 263.959 153.851 263.836 154.003C263.712 154.154 263.557 154.277 263.38 154.361C263.204 154.445 263.011 154.489 262.815 154.489Z" fill="#2F2E41"/>
<path d="M194.985 147.544H193.215C193.096 147.544 193 147.641 193 147.759V148.65C193 148.768 193.096 148.864 193.215 148.864H194.985C195.104 148.864 195.2 148.768 195.2 148.65V147.759C195.2 147.641 195.104 147.544 194.985 147.544Z" fill="#3F3D56"/>
<path d="M199.384 147.544H197.613C197.495 147.544 197.398 147.641 197.398 147.759V148.65C197.398 148.768 197.495 148.864 197.613 148.864H199.384C199.502 148.864 199.598 148.768 199.598 148.65V147.759C199.598 147.641 199.502 147.544 199.384 147.544Z" fill="#3F3D56"/>
<path d="M203.784 147.544H202.014C201.895 147.544 201.799 147.641 201.799 147.759V148.65C201.799 148.768 201.895 148.864 202.014 148.864H203.784C203.903 148.864 203.999 148.768 203.999 148.65V147.759C203.999 147.641 203.903 147.544 203.784 147.544Z" fill="#3F3D56"/>
<path d="M208.184 147.544H206.414C206.295 147.544 206.199 147.641 206.199 147.759V148.65C206.199 148.768 206.295 148.864 206.414 148.864H208.184C208.303 148.864 208.399 148.768 208.399 148.65V147.759C208.399 147.641 208.303 147.544 208.184 147.544Z" fill="#3F3D56"/>
<path d="M212.585 147.544H210.814C210.696 147.544 210.6 147.641 210.6 147.759V148.65C210.6 148.768 210.696 148.864 210.814 148.864H212.585C212.703 148.864 212.8 148.768 212.8 148.65V147.759C212.8 147.641 212.703 147.544 212.585 147.544Z" fill="#3F3D56"/>
<path d="M216.985 147.544H215.215C215.096 147.544 215 147.641 215 147.759V148.65C215 148.768 215.096 148.864 215.215 148.864H216.985C217.104 148.864 217.2 148.768 217.2 148.65V147.759C217.2 147.641 217.104 147.544 216.985 147.544Z" fill="#3F3D56"/>
<path d="M221.384 147.544H219.613C219.495 147.544 219.398 147.641 219.398 147.759V148.65C219.398 148.768 219.495 148.864 219.613 148.864H221.384C221.502 148.864 221.598 148.768 221.598 148.65V147.759C221.598 147.641 221.502 147.544 221.384 147.544Z" fill="#3F3D56"/>
<path d="M225.784 147.544H224.014C223.895 147.544 223.799 147.641 223.799 147.759V148.65C223.799 148.768 223.895 148.864 224.014 148.864H225.784C225.903 148.864 225.999 148.768 225.999 148.65V147.759C225.999 147.641 225.903 147.544 225.784 147.544Z" fill="#3F3D56"/>
<path d="M230.184 147.544H228.414C228.295 147.544 228.199 147.641 228.199 147.759V148.65C228.199 148.768 228.295 148.864 228.414 148.864H230.184C230.303 148.864 230.399 148.768 230.399 148.65V147.759C230.399 147.641 230.303 147.544 230.184 147.544Z" fill="#3F3D56"/>
<path d="M234.585 147.544H232.814C232.696 147.544 232.6 147.641 232.6 147.759V148.65C232.6 148.768 232.696 148.864 232.814 148.864H234.585C234.703 148.864 234.8 148.768 234.8 148.65V147.759C234.8 147.641 234.703 147.544 234.585 147.544Z" fill="#3F3D56"/>
<path d="M238.985 147.544H237.215C237.096 147.544 237 147.641 237 147.759V148.65C237 148.768 237.096 148.864 237.215 148.864H238.985C239.104 148.864 239.2 148.768 239.2 148.65V147.759C239.2 147.641 239.104 147.544 238.985 147.544Z" fill="#3F3D56"/>
<path d="M243.384 147.544H241.613C241.495 147.544 241.398 147.641 241.398 147.759V148.65C241.398 148.768 241.495 148.864 241.613 148.864H243.384C243.502 148.864 243.598 148.768 243.598 148.65V147.759C243.598 147.641 243.502 147.544 243.384 147.544Z" fill="#3F3D56"/>
<path d="M247.784 147.544H246.014C245.895 147.544 245.799 147.641 245.799 147.759V148.65C245.799 148.768 245.895 148.864 246.014 148.864H247.784C247.903 148.864 247.999 148.768 247.999 148.65V147.759C247.999 147.641 247.903 147.544 247.784 147.544Z" fill="#3F3D56"/>
<path d="M252.184 147.544H250.414C250.295 147.544 250.199 147.641 250.199 147.759V148.65C250.199 148.768 250.295 148.864 250.414 148.864H252.184C252.303 148.864 252.399 148.768 252.399 148.65V147.759C252.399 147.641 252.303 147.544 252.184 147.544Z" fill="#3F3D56"/>
<path d="M256.585 147.544H254.814C254.696 147.544 254.6 147.641 254.6 147.759V148.65C254.6 148.768 254.696 148.864 254.814 148.864H256.585C256.703 148.864 256.8 148.768 256.8 148.65V147.759C256.8 147.641 256.703 147.544 256.585 147.544Z" fill="#3F3D56"/>
<path d="M260.985 147.544H259.215C259.096 147.544 259 147.641 259 147.759V148.65C259 148.768 259.096 148.864 259.215 148.864H260.985C261.104 148.864 261.2 148.768 261.2 148.65V147.759C261.2 147.641 261.104 147.544 260.985 147.544Z" fill="#3F3D56"/>
<path d="M194.932 149.745H193.162C193.043 149.745 192.947 149.841 192.947 149.959V150.85C192.947 150.968 193.043 151.065 193.162 151.065H194.932C195.051 151.065 195.147 150.968 195.147 150.85V149.959C195.147 149.841 195.051 149.745 194.932 149.745Z" fill="#3F3D56"/>
<path d="M199.333 149.745H197.562C197.444 149.745 197.348 149.841 197.348 149.959V150.85C197.348 150.968 197.444 151.065 197.562 151.065H199.333C199.451 151.065 199.548 150.968 199.548 150.85V149.959C199.548 149.841 199.451 149.745 199.333 149.745Z" fill="#3F3D56"/>
<path d="M203.733 149.745H201.963C201.844 149.745 201.748 149.841 201.748 149.959V150.85C201.748 150.968 201.844 151.065 201.963 151.065H203.733C203.852 151.065 203.948 150.968 203.948 150.85V149.959C203.948 149.841 203.852 149.745 203.733 149.745Z" fill="#3F3D56"/>
<path d="M208.134 149.745H206.363C206.245 149.745 206.148 149.841 206.148 149.959V150.85C206.148 150.968 206.245 151.065 206.363 151.065H208.134C208.252 151.065 208.348 150.968 208.348 150.85V149.959C208.348 149.841 208.252 149.745 208.134 149.745Z" fill="#3F3D56"/>
<path d="M212.532 149.745H210.762C210.643 149.745 210.547 149.841 210.547 149.959V150.85C210.547 150.968 210.643 151.065 210.762 151.065H212.532C212.651 151.065 212.747 150.968 212.747 150.85V149.959C212.747 149.841 212.651 149.745 212.532 149.745Z" fill="#3F3D56"/>
<path d="M216.932 149.745H215.162C215.043 149.745 214.947 149.841 214.947 149.959V150.85C214.947 150.968 215.043 151.065 215.162 151.065H216.932C217.051 151.065 217.147 150.968 217.147 150.85V149.959C217.147 149.841 217.051 149.745 216.932 149.745Z" fill="#3F3D56"/>
<path d="M221.333 149.745H219.562C219.444 149.745 219.348 149.841 219.348 149.959V150.85C219.348 150.968 219.444 151.065 219.562 151.065H221.333C221.451 151.065 221.548 150.968 221.548 150.85V149.959C221.548 149.841 221.451 149.745 221.333 149.745Z" fill="#3F3D56"/>
<path d="M225.733 149.745H223.963C223.844 149.745 223.748 149.841 223.748 149.959V150.85C223.748 150.968 223.844 151.065 223.963 151.065H225.733C225.852 151.065 225.948 150.968 225.948 150.85V149.959C225.948 149.841 225.852 149.745 225.733 149.745Z" fill="#3F3D56"/>
<path d="M230.134 149.745H228.363C228.245 149.745 228.148 149.841 228.148 149.959V150.85C228.148 150.968 228.245 151.065 228.363 151.065H230.134C230.252 151.065 230.348 150.968 230.348 150.85V149.959C230.348 149.841 230.252 149.745 230.134 149.745Z" fill="#3F3D56"/>
<path d="M234.532 149.745H232.762C232.643 149.745 232.547 149.841 232.547 149.959V150.85C232.547 150.968 232.643 151.065 232.762 151.065H234.532C234.651 151.065 234.747 150.968 234.747 150.85V149.959C234.747 149.841 234.651 149.745 234.532 149.745Z" fill="#3F3D56"/>
<path d="M238.932 149.745H237.162C237.043 149.745 236.947 149.841 236.947 149.959V150.85C236.947 150.968 237.043 151.065 237.162 151.065H238.932C239.051 151.065 239.147 150.968 239.147 150.85V149.959C239.147 149.841 239.051 149.745 238.932 149.745Z" fill="#3F3D56"/>
<path d="M243.333 149.745H241.562C241.444 149.745 241.348 149.841 241.348 149.959V150.85C241.348 150.968 241.444 151.065 241.562 151.065H243.333C243.451 151.065 243.548 150.968 243.548 150.85V149.959C243.548 149.841 243.451 149.745 243.333 149.745Z" fill="#3F3D56"/>
<path d="M247.733 149.745H245.963C245.844 149.745 245.748 149.841 245.748 149.959V150.85C245.748 150.968 245.844 151.065 245.963 151.065H247.733C247.852 151.065 247.948 150.968 247.948 150.85V149.959C247.948 149.841 247.852 149.745 247.733 149.745Z" fill="#3F3D56"/>
<path d="M252.134 149.745H250.363C250.245 149.745 250.148 149.841 250.148 149.959V150.85C250.148 150.968 250.245 151.065 250.363 151.065H252.134C252.252 151.065 252.348 150.968 252.348 150.85V149.959C252.348 149.841 252.252 149.745 252.134 149.745Z" fill="#3F3D56"/>
<path d="M256.532 149.745H254.762C254.643 149.745 254.547 149.841 254.547 149.959V150.85C254.547 150.968 254.643 151.065 254.762 151.065H256.532C256.651 151.065 256.747 150.968 256.747 150.85V149.959C256.747 149.841 256.651 149.745 256.532 149.745Z" fill="#3F3D56"/>
<path d="M260.932 149.745H259.162C259.043 149.745 258.947 149.841 258.947 149.959V150.85C258.947 150.968 259.043 151.065 259.162 151.065H260.932C261.051 151.065 261.147 150.968 261.147 150.85V149.959C261.147 149.841 261.051 149.745 260.932 149.745Z" fill="#3F3D56"/>
<path d="M231.454 152.384H214.283C214.165 152.384 214.068 152.481 214.068 152.599V153.49C214.068 153.608 214.165 153.704 214.283 153.704H231.454C231.572 153.704 231.668 153.608 231.668 153.49V152.599C231.668 152.481 231.572 152.384 231.454 152.384Z" fill="#3F3D56"/>
<path d="M277.932 254.912L274.54 249.461L273.862 252.576C273.744 253.121 273.625 253.676 273.515 254.226C272.551 253.403 271.526 252.642 270.523 251.911C267.443 249.676 264.364 247.438 261.287 245.197L262.251 250.785C262.845 254.226 263.465 257.737 264.935 260.883C265.098 261.239 265.274 261.591 265.463 261.935H279.78C279.896 261.616 279.975 261.285 280.018 260.949C280.022 260.927 280.023 260.905 280.022 260.883C280.247 258.749 279.068 256.738 277.932 254.912Z" fill="#F0F0F0"/>
<path d="M84.3327 254.912L80.9403 249.461L80.2627 252.576C80.1439 253.121 80.0251 253.676 79.9151 254.226C78.9515 253.403 77.9263 252.642 76.9232 251.911C73.8432 249.676 70.7646 247.438 67.6875 245.197L68.6511 250.785C69.2451 254.226 69.8656 257.737 71.3351 260.883C71.498 261.239 71.6739 261.591 71.8632 261.935H86.1808C86.296 261.616 86.3757 261.285 86.4184 260.949C86.422 260.927 86.4234 260.905 86.4227 260.883C86.6472 258.749 85.468 256.738 84.3327 254.912Z" fill="#F0F0F0"/>
<path d="M356.491 262.531L235.161 262.666C235.022 262.666 234.89 262.61 234.792 262.512C234.694 262.414 234.639 262.281 234.639 262.142C234.639 262.003 234.694 261.87 234.792 261.772C234.89 261.674 235.022 261.619 235.161 261.618L356.491 261.483C356.63 261.483 356.763 261.539 356.861 261.637C356.958 261.735 357.013 261.868 357.013 262.007C357.013 262.146 356.958 262.279 356.861 262.377C356.763 262.475 356.63 262.53 356.491 262.531Z" fill="#CACACA"/>
<path d="M122.411 262.531L1.08098 262.666C0.942295 262.666 0.809432 262.61 0.711509 262.512C0.613586 262.414 0.558594 262.281 0.558594 262.142C0.558594 262.003 0.613586 261.87 0.711509 261.772C0.809432 261.674 0.942295 261.619 1.08098 261.618L122.411 261.483C122.55 261.483 122.683 261.539 122.78 261.637C122.878 261.735 122.933 261.868 122.933 262.007C122.933 262.146 122.878 262.279 122.78 262.377C122.683 262.475 122.55 262.53 122.411 262.531Z" fill="#CACACA"/>
<path d="M79.0413 19.3988C76.9425 20.0236 74.9845 18.268 73.5237 16.6048L74.0429 17.2208C70.6065 19.6408 68.5517 23.5832 67.2185 27.574C65.8853 31.5604 65.1417 35.736 63.6369 39.6652C62.1321 43.59 59.7033 47.3872 55.9853 49.3452C51.0045 51.9676 44.9017 50.7752 39.6041 48.8832C39.5337 48.8568 39.4677 48.8348 39.3973 48.8084C41.5429 44.8005 42.8569 40.4006 43.2605 35.8724C41.0812 40.1271 37.9382 43.814 34.0821 46.6392C30.6206 45.0657 27.2921 43.2146 24.1293 41.104C22.0833 39.7356 19.9273 37.9668 19.6897 35.516C19.4477 33.0828 21.2649 30.8608 23.4077 29.6904C25.5505 28.52 28.0145 28.124 30.3553 27.42C32.6917 26.7204 35.0765 25.572 36.3041 23.46C39.1333 18.6024 34.3725 11.7516 37.4085 7.01723C38.9045 4.68963 41.8085 3.75682 44.5013 3.11002C48.6114 2.12691 52.7833 1.42277 56.9885 1.00243C60.6801 0.632827 64.4949 0.496428 68.0061 1.68443C71.5173 2.87243 74.7029 5.63123 75.4553 9.26563C77.5057 10.3436 79.6749 11.536 80.7749 13.582C81.8749 15.6236 81.2633 18.7388 79.0413 19.3988Z" fill="#2F2E41"/>
<path d="M75.9075 18.5803C73.8978 21.0979 72.8038 23.8206 72.8038 25.4511C68.6288 33.0816 74.5991 39.636 82.2298 43.8109C85.2733 45.4848 88.7876 46.0975 92.218 45.5522L92.5372 44.1894L92.9698 45.417C92.9698 45.417 97.9379 61.8259 99.5766 62.7885C98.9548 59.8682 98.2425 46.3471 97.8963 43.4972C97.417 39.6182 99.0877 33.8434 100.293 30.3317C101.04 28.1673 101.424 25.8941 101.428 23.6044V23.5043L102.601 27.2736L106.873 25.4511C106.079 20.8923 106.873 15.7169 97.3447 16.1658C92.1911 12.6214 87.6527 12.0815 83.9248 13.0868C83.4437 12.343 80.6694 13.7361 79.8678 13.3445" fill="#2F2E41"/>
<path d="M288.318 37.122V117.475C288.317 118.036 288.093 118.574 287.697 118.97C287.3 119.367 286.762 119.59 286.201 119.591H243.864C239.181 115.248 235.339 110.078 232.53 104.341C232.345 103.971 232.169 103.597 232.002 103.219C229.443 97.666 227.894 91.7018 227.426 85.6056C227.395 85.2316 227.369 84.8576 227.351 84.4792C227.294 83.5112 227.268 82.53 227.268 81.5444C227.259 74.9895 228.497 68.4927 230.915 62.4C231.06 62.0216 231.214 61.6476 231.373 61.2736C236.239 49.8393 245.033 40.5212 256.167 35.0012H286.201C286.763 35.0024 287.301 35.2264 287.698 35.624C288.095 36.0216 288.318 36.5603 288.318 37.122Z" fill="#F9A826"/>
<path d="M280.166 46.0721H167.824C167.707 46.0695 167.596 46.0213 167.514 45.9378C167.432 45.8543 167.387 45.7422 167.387 45.6253C167.387 45.5085 167.432 45.3964 167.514 45.3129C167.596 45.2294 167.707 45.1812 167.824 45.1786H280.166C280.283 45.1812 280.394 45.2294 280.476 45.3129C280.557 45.3964 280.603 45.5085 280.603 45.6253C280.603 45.7422 280.557 45.8543 280.476 45.9378C280.394 46.0213 280.283 46.0695 280.166 46.0721Z" fill="#CACACA"/>
<path d="M175.47 42.8976C176.916 42.8976 178.088 41.6992 178.088 40.221C178.088 38.7428 176.916 37.5445 175.47 37.5445C174.024 37.5445 172.852 38.7428 172.852 40.221C172.852 41.6992 174.024 42.8976 175.47 42.8976Z" fill="#3F3D56"/>
<path d="M184.515 42.8976C185.961 42.8976 187.133 41.6992 187.133 40.221C187.133 38.7428 185.961 37.5445 184.515 37.5445C183.069 37.5445 181.896 38.7428 181.896 40.221C181.896 41.6992 183.069 42.8976 184.515 42.8976Z" fill="#3F3D56"/>
<path d="M193.56 42.8976C195.006 42.8976 196.178 41.6992 196.178 40.221C196.178 38.7428 195.006 37.5445 193.56 37.5445C192.114 37.5445 190.941 38.7428 190.941 40.221C190.941 41.6992 192.114 42.8976 193.56 42.8976Z" fill="#3F3D56"/>
<path d="M274.72 38.2079H268.295C268.168 38.2104 268.047 38.2628 267.957 38.3537C267.868 38.4447 267.818 38.567 267.818 38.6944C267.818 38.8218 267.868 38.9441 267.957 39.035C268.047 39.126 268.168 39.1783 268.295 39.1808H274.72C274.848 39.1783 274.969 39.126 275.058 39.035C275.147 38.9441 275.197 38.8218 275.197 38.6944C275.197 38.567 275.147 38.4447 275.058 38.3537C274.969 38.2628 274.848 38.2104 274.72 38.2079Z" fill="#3F3D56"/>
<path d="M274.72 40.0339H268.295C268.168 40.0364 268.047 40.0888 267.957 40.1798C267.868 40.2707 267.818 40.393 267.818 40.5204C267.818 40.6478 267.868 40.7701 267.957 40.8611C268.047 40.952 268.168 41.0044 268.295 41.0069H274.72C274.848 41.0044 274.969 40.952 275.058 40.8611C275.147 40.7701 275.197 40.6478 275.197 40.5204C275.197 40.393 275.147 40.2707 275.058 40.1798C274.969 40.0888 274.848 40.0364 274.72 40.0339Z" fill="#3F3D56"/>
<path d="M274.72 41.8576H268.295C268.168 41.8601 268.047 41.9125 267.957 42.0034C267.868 42.0944 267.818 42.2167 267.818 42.3441C267.818 42.4715 267.868 42.5938 267.957 42.6847C268.047 42.7757 268.168 42.828 268.295 42.8306H274.72C274.848 42.828 274.969 42.7757 275.058 42.6847C275.147 42.5938 275.197 42.4715 275.197 42.3441C275.197 42.2167 275.147 42.0944 275.058 42.0034C274.969 41.9125 274.848 41.8601 274.72 41.8576Z" fill="#3F3D56"/>
<path d="M201.384 72.1719H187.347C186.292 72.1719 185.438 73.0267 185.438 74.0811V74.0811C185.438 75.1355 186.292 75.9902 187.347 75.9902H201.384C202.439 75.9902 203.294 75.1355 203.294 74.0811C203.294 73.0267 202.439 72.1719 201.384 72.1719Z" fill="#F9A826"/>
<path d="M210.453 79.8085H178.278C177.224 79.8085 176.369 80.6633 176.369 81.7177C176.369 82.7721 177.224 83.6268 178.278 83.6268H210.453C211.507 83.6268 212.362 82.7721 212.362 81.7177C212.362 80.6633 211.507 79.8085 210.453 79.8085Z" fill="#E6E6E6"/>
<path d="M210.453 87.4452H178.278C177.224 87.4452 176.369 88.2999 176.369 89.3543V89.3543C176.369 90.4087 177.224 91.2635 178.278 91.2635H210.453C211.507 91.2635 212.362 90.4087 212.362 89.3543C212.362 88.2999 211.507 87.4452 210.453 87.4452Z" fill="#E6E6E6"/>
<path d="M179.307 114.984C179.31 116.557 179.03 118.118 178.48 119.591H166.138C165.577 119.59 165.039 119.367 164.642 118.97C164.246 118.574 164.022 118.036 164.021 117.475V101.952C164.711 101.84 165.409 101.784 166.107 101.784C167.841 101.784 169.557 102.126 171.159 102.789C172.76 103.452 174.215 104.425 175.441 105.65C176.667 106.876 177.639 108.331 178.302 109.933C178.966 111.534 179.307 113.251 179.307 114.984Z" fill="#F9A826"/>
<path opacity="0.2" d="M288.428 62.4001V61.2737H269.548V48.2189H268.426V61.2737H246.786V48.2189H245.664V61.2737H231.373C231.215 61.6477 231.061 62.0217 230.916 62.4001H245.664V84.4793H227.352C227.369 84.8577 227.396 85.2317 227.426 85.6057H245.664V103.219H232.002C232.17 103.597 232.346 103.971 232.53 104.341H245.664V119.147H246.786V104.341H268.426V119.147H269.548V104.341H288.428V103.219H269.548V85.6057H288.428V84.4793H269.548V62.4001H288.428ZM268.426 103.219H246.786V85.6057H268.426V103.219ZM268.426 84.4793H246.786V62.4001H268.426V84.4793Z" fill="black"/>
<path d="M273.225 111.255C272.984 111.266 272.745 111.203 272.542 111.074C272.338 110.945 272.179 110.756 272.086 110.534C271.993 110.312 271.97 110.066 272.022 109.83C272.073 109.595 272.195 109.381 272.372 109.217L272.453 108.897C272.442 108.871 272.432 108.845 272.421 108.82C272.178 108.247 271.772 107.758 271.252 107.415C270.733 107.073 270.124 106.891 269.501 106.893C268.879 106.896 268.271 107.082 267.755 107.428C267.238 107.775 266.835 108.267 266.596 108.841C265.644 111.136 264.431 113.434 264.132 115.86C264.001 116.932 264.056 118.019 264.296 119.072C262.059 114.192 260.897 108.887 260.89 103.518C260.889 102.171 260.964 100.824 261.114 99.4855C261.238 98.3878 261.409 97.2979 261.629 96.2159C262.828 90.3449 265.403 84.8421 269.142 80.1594C270.952 79.1721 272.415 77.6537 273.335 75.809C273.669 75.1459 273.904 74.438 274.035 73.7074C273.831 73.7342 273.623 73.7509 273.419 73.7643C273.355 73.7676 273.288 73.7709 273.225 73.7743L273.201 73.7754C272.976 73.7854 272.754 73.7305 272.56 73.617C272.366 73.5036 272.209 73.3365 272.108 73.136C272.007 72.9355 271.966 72.71 271.99 72.4867C272.014 72.2634 272.103 72.0518 272.244 71.8775C272.332 71.769 272.42 71.6606 272.509 71.5522C272.643 71.3849 272.78 71.2209 272.914 71.0536C272.929 71.0377 272.944 71.0209 272.957 71.0034C273.111 70.8126 273.265 70.6252 273.419 70.4345C273.138 69.9983 272.76 69.633 272.315 69.3669C270.772 68.4634 268.643 69.0892 267.529 70.4847C266.411 71.8801 266.201 73.8379 266.589 75.5814C266.97 77.065 267.602 78.4727 268.456 79.7444C268.372 79.8515 268.285 79.9553 268.202 80.0624C266.672 82.0289 265.339 84.1406 264.222 86.3672C264.494 83.8728 264.169 81.3495 263.276 79.0049C262.37 76.8198 260.672 74.9795 259.177 73.0905C257.381 70.8215 253.699 71.8117 253.382 74.688C253.379 74.7159 253.376 74.7437 253.373 74.7715C253.595 74.8968 253.813 75.0298 254.026 75.1704C254.293 75.349 254.5 75.604 254.619 75.9022C254.739 76.2004 254.766 76.5278 254.697 76.8416C254.627 77.1553 254.464 77.4407 254.23 77.6604C253.995 77.8801 253.7 78.0239 253.382 78.0729L253.35 78.0779C253.429 78.8782 253.569 79.6714 253.768 80.4505C254.346 82.6257 255.367 84.658 256.767 86.4202C258.167 88.1823 259.915 89.6363 261.904 90.6908C262.034 90.7578 262.161 90.8247 262.292 90.8883C261.169 94.0698 260.465 97.3839 260.197 100.747C260.045 102.731 260.054 104.724 260.224 106.707L260.214 106.637C259.785 104.432 258.609 102.443 256.884 101.005C254.321 98.8998 250.701 98.1246 247.937 96.4327C247.643 96.244 247.301 96.1434 246.952 96.1425C246.603 96.1417 246.261 96.2407 245.966 96.4279C245.672 96.6151 245.437 96.8826 245.289 97.199C245.141 97.5154 245.087 97.8674 245.133 98.2135C245.137 98.2382 245.141 98.2628 245.144 98.2874C245.556 98.4552 245.958 98.6486 246.346 98.8663C246.568 98.9916 246.785 99.1246 246.998 99.2652C247.265 99.4438 247.472 99.6988 247.592 99.997C247.712 100.295 247.738 100.623 247.669 100.936C247.599 101.25 247.437 101.536 247.202 101.755C246.968 101.975 246.672 102.119 246.355 102.168L246.322 102.173C246.299 102.176 246.279 102.179 246.255 102.183C246.96 103.864 247.948 105.411 249.177 106.757C250.695 108.387 252.53 109.689 254.57 110.583C256.609 111.478 258.81 111.947 261.037 111.961H261.04C261.645 114.588 262.521 117.145 263.654 119.591H272.991C273.024 119.487 273.054 119.38 273.084 119.277C272.22 119.331 271.352 119.279 270.501 119.123C271.193 118.273 271.886 117.416 272.579 116.566C272.594 116.55 272.609 116.533 272.622 116.516C272.974 116.081 273.329 115.649 273.68 115.214L273.68 115.213C273.699 113.88 273.546 112.549 273.225 111.255ZM262.533 90.2223L262.538 90.2157L262.533 90.229V90.2223ZM260.465 108.866L260.384 108.685C260.388 108.554 260.388 108.424 260.384 108.29C260.384 108.253 260.378 108.216 260.378 108.18C260.408 108.411 260.434 108.642 260.468 108.872L260.465 108.866Z" fill="#2F2E41"/>
</g>
<defs>
<clipPath id="clip0_450_6714">
<rect x="0.556641" y="0.740662" width="356.458" height="261.925" rx="8" fill="white"/>
</clipPath>
</defs>
</svg>
