<svg  viewBox="0 0 358 263" fill="none" xmlns="http://www.w3.org/2000/svg">
<rect width="358" height="263" fill="#1E1E1E"/>
<rect width="1440" height="2984" transform="translate(-887 -849)" fill="white"/>
<g clip-path="url(#clip0_0_1)">
<rect x="0.554688" y="0.740662" width="356.458" height="261.925" rx="8" fill="black" fill-opacity="0.2"/>
<path d="M167.3 208.084L172.931 205.565L165.878 182.115L157.566 185.834L167.3 208.084Z" fill="#FFB6B6"/>
<path d="M163.266 201.718L171.689 195.769L174.014 199.517L185.894 200.102C186.481 200.131 187.043 200.346 187.499 200.717C187.954 201.088 188.279 201.595 188.427 202.164C188.574 202.733 188.535 203.333 188.316 203.879C188.098 204.424 187.711 204.885 187.211 205.195L176.797 211.655L172.702 209.062L174.301 213.204L170.374 215.64L163.266 201.718Z" fill="#2F2E41"/>
<path d="M311.953 163.699C311.953 161.341 311.161 159.427 310.189 159.423H45.0932C44.1164 159.427 43.3288 161.341 43.3244 163.699V260.782C43.3244 261.001 43.2429 261.212 43.0958 261.374C42.9487 261.537 42.7465 261.638 42.5285 261.659C41.817 261.728 41.1055 261.791 40.394 261.85C40.3764 261.85 40.3588 261.855 40.3412 261.855C39.954 261.89 39.5668 261.916 39.1796 261.947H39.1752C38.976 261.579 38.7791 261.207 38.5846 260.833C38.5188 260.706 38.4844 260.566 38.4844 260.424V158.151C38.4844 157.5 38.5108 156.844 38.5548 156.197C38.6176 155.309 38.7277 154.425 38.8848 153.549C39.6284 149.461 41.3092 146.693 43.2188 146.685H312.059C312.337 146.686 312.613 146.745 312.868 146.856C313.244 147.022 313.583 147.26 313.867 147.556C314.253 147.957 314.583 148.408 314.848 148.898C315.79 150.557 316.463 153.029 316.701 155.907C316.701 155.933 316.705 155.96 316.705 155.986C316.767 156.699 316.798 157.425 316.793 158.151L316.855 167.58L316.894 173.203L317.013 190.847L317.057 197.113L317.251 261.441C317.251 261.674 317.158 261.898 316.993 262.063C316.828 262.228 316.604 262.321 316.371 262.321H312.833C312.6 262.321 312.376 262.228 312.211 262.063C312.046 261.898 311.953 261.674 311.953 261.441V163.699Z" fill="#E6E6E6"/>
<path d="M239.918 102.563H211.354C210.95 102.564 210.562 102.725 210.277 103.011C209.992 103.297 209.832 103.685 209.832 104.089V149.212H241.444V104.089C241.444 103.889 241.405 103.69 241.328 103.505C241.251 103.32 241.139 103.152 240.997 103.01C240.856 102.868 240.687 102.756 240.502 102.679C240.317 102.603 240.119 102.563 239.918 102.563ZM225.732 128.202C224.839 128.198 223.983 127.841 223.352 127.209C222.72 126.578 222.363 125.722 222.359 124.829V119.624C222.36 118.73 222.716 117.873 223.348 117.242C223.981 116.61 224.838 116.255 225.732 116.255C226.626 116.255 227.483 116.61 228.116 117.242C228.748 117.873 229.104 118.73 229.105 119.624V124.829C229.101 125.722 228.744 126.578 228.113 127.209C227.481 127.841 226.625 128.198 225.732 128.202Z" fill="#2F2E41"/>
<path d="M209.734 147.769V152.123C209.735 152.348 209.825 152.564 209.984 152.724C210.144 152.883 210.36 152.973 210.585 152.974H240.691C240.917 152.973 241.133 152.883 241.292 152.723C241.451 152.564 241.541 152.348 241.542 152.123V147.769H209.734Z" fill="#3F3D56"/>
<path d="M173.034 39.7243C172.705 40.5519 172.199 41.2974 171.551 41.9082C170.903 42.519 170.129 42.9803 169.283 43.2595C168.437 43.5388 167.541 43.6293 166.656 43.5246C165.772 43.4199 164.921 43.1225 164.164 42.6535L123.844 70.7426L122.73 59.5488L162.375 33.8634C163.247 32.6438 164.537 31.7867 165.999 31.4542C167.461 31.1218 168.994 31.3372 170.308 32.0596C171.622 32.782 172.625 33.9613 173.127 35.374C173.63 36.7866 173.596 38.3345 173.034 39.7243Z" fill="#FFB6B6"/>
<path d="M82.7575 57.4348C82.7575 57.4348 78.3917 63.886 85.2427 69.5948C92.0938 75.3037 119.862 74.168 124.343 74.1189C128.825 74.0698 149.385 52.8007 149.385 52.8007L149.251 40.517L124.427 55.2464L82.7575 57.4348Z" fill="#F9A826"/>
<path d="M80.2863 100.265L80.7263 108.625C80.7263 108.625 79.4276 116.031 80.4957 117.629C81.5558 119.219 110.666 121.584 110.666 121.584C110.666 121.584 109.753 109.116 111.399 100.098L80.2863 100.265Z" fill="#FFB6B6"/>
<path d="M169.624 185.384L158.419 195.193L136.457 150.278C114.679 154.023 94.1335 155.223 76.3625 150.692C70.3456 149.179 66.6677 142.966 68.1476 136.815C68.2168 136.528 68.2968 136.244 68.3876 135.962C70.5144 129.473 76.0818 124.882 80.4682 117.744L112.508 118.231L108.929 130.578L140.053 126.551C146.312 125.741 152.028 130.271 152.821 136.67C152.863 137.008 152.89 137.347 152.903 137.688L169.624 185.384Z" fill="#2F2E41"/>
<path d="M92.795 44.0058C99.9801 44.0058 105.805 38.1811 105.805 30.996C105.805 23.8109 99.9801 17.9862 92.795 17.9862C85.6098 17.9862 79.7852 23.8109 79.7852 30.996C79.7852 38.1811 85.6098 44.0058 92.795 44.0058Z" fill="#FFB6B6"/>
<path d="M85.1687 48.7024L97.0975 50.1058C97.6006 50.165 98.0726 50.3796 98.4479 50.7198C98.8232 51.06 99.083 51.5087 99.1911 52.0036L101.088 60.6844L112.914 74.6106C112.914 74.6106 117.16 82.5728 115.568 91.5967C114.61 97.0305 112.952 102.317 110.636 107.326C110.636 107.326 81.5535 119.22 80.4918 117.627C79.4302 116.035 79.0857 108.801 79.0857 108.801L75.3441 67.1765C75.13 64.9833 75.4038 62.7699 76.1459 60.6951C76.8881 58.6202 78.0801 56.7352 79.6366 55.1754C80.5806 54.2468 81.5123 53.5969 82.2706 53.5969C83.9835 53.5391 83.7637 49.6839 85.1687 48.7024Z" fill="#F9A826"/>
<path d="M110.766 225.525L116.301 228.236L129.628 207.699L121.457 203.697L110.766 225.525Z" fill="#FFB6B6"/>
<path d="M124.028 220.883L112.655 216.566L128.264 169.686C107.059 163.468 91.0636 153.454 77.0978 141.567C72.3601 137.562 68.807 132.418 72.842 127.545C73.0306 127.317 73.2276 127.097 73.4329 126.884C78.1976 121.992 90.29 122.933 97.3689 118.454L113.201 135.357L112.209 139.885L141.931 149.96C147.908 151.986 151.049 158.57 148.945 164.664C148.834 164.986 148.71 165.303 148.571 165.614L124.028 220.883Z" fill="#2F2E41"/>
<path d="M110.577 222.253L120.092 226.23L118.152 230.191L123.967 240.566C124.255 241.079 124.371 241.669 124.298 242.252C124.226 242.835 123.969 243.38 123.565 243.807C123.162 244.234 122.632 244.52 122.054 244.625C121.476 244.729 120.88 244.646 120.352 244.387L109.346 238.996L109.368 234.149L106.708 237.704L102.559 235.671L110.577 222.253Z" fill="#2F2E41"/>
<path d="M91.9683 150.473C91.2222 149.987 90.5917 149.343 90.1213 148.587C89.6509 147.831 89.3521 146.981 89.2458 146.097C89.1395 145.212 89.2283 144.316 89.5061 143.47C89.7839 142.623 90.2438 141.848 90.8534 141.199L71.3047 96.1149L82.4973 97.2403L99.8238 141.186C100.846 142.283 101.431 143.716 101.468 145.215C101.504 146.714 100.989 148.174 100.021 149.319C99.0527 150.464 97.6982 151.213 96.214 151.426C94.7298 151.639 93.2192 151.3 91.9683 150.473Z" fill="#FFB6B6"/>
<path d="M92.4861 58.4781C92.4861 58.4781 87.0272 52.9213 80.0748 58.5062C73.1223 64.0912 68.7369 91.5347 67.8977 95.9369C67.0584 100.339 83.835 124.704 83.835 124.704L95.9021 127.005L86.3799 99.7555L92.4861 58.4781Z" fill="#F9A826"/>
<path d="M287.216 32.1429H165.114C164.065 32.1446 163.059 32.562 162.317 33.3038C161.575 34.0456 161.158 35.0512 161.156 36.1002V118.495C161.157 119.545 161.575 120.551 162.316 121.292C163.058 122.034 164.064 122.452 165.114 122.453H287.216C288.265 122.452 289.271 122.034 290.013 121.292C290.755 120.551 291.172 119.545 291.173 118.495V36.1003C291.172 35.0512 290.754 34.0456 290.012 33.3038C289.27 32.562 288.265 32.1446 287.216 32.1429Z" fill="#3F3D56"/>
<path d="M286.199 35.0012H166.136C165.574 35.0024 165.036 35.2264 164.639 35.624C164.242 36.0216 164.02 36.5603 164.02 37.122V117.475C164.02 118.036 164.244 118.574 164.64 118.97C165.037 119.367 165.575 119.59 166.136 119.591H286.199C286.76 119.59 287.297 119.367 287.694 118.97C288.091 118.574 288.314 118.036 288.315 117.475V37.122C288.315 36.5603 288.092 36.0216 287.695 35.624C287.299 35.2264 286.76 35.0024 286.199 35.0012Z" fill="white"/>
<path d="M262.811 154.489H191.38C191.185 154.489 190.992 154.445 190.815 154.361C190.639 154.277 190.483 154.154 190.36 154.003C190.237 153.851 190.149 153.673 190.103 153.483C190.057 153.293 190.054 153.095 190.095 152.904L191.203 147.64C191.266 147.345 191.428 147.081 191.662 146.892C191.896 146.702 192.187 146.598 192.489 146.597H261.703C262.004 146.598 262.296 146.702 262.53 146.892C262.764 147.081 262.926 147.345 262.989 147.64L264.097 152.904C264.137 153.095 264.134 153.293 264.088 153.483C264.043 153.673 263.955 153.851 263.832 154.003C263.708 154.154 263.553 154.277 263.376 154.361C263.2 154.445 263.007 154.489 262.811 154.489Z" fill="#2F2E41"/>
<path d="M194.981 147.544H193.211C193.092 147.544 192.996 147.641 192.996 147.759V148.65C192.996 148.768 193.092 148.864 193.211 148.864H194.981C195.1 148.864 195.196 148.768 195.196 148.65V147.759C195.196 147.641 195.1 147.544 194.981 147.544Z" fill="#3F3D56"/>
<path d="M199.384 147.544H197.613C197.495 147.544 197.398 147.641 197.398 147.759V148.65C197.398 148.768 197.495 148.864 197.613 148.864H199.384C199.502 148.864 199.598 148.768 199.598 148.65V147.759C199.598 147.641 199.502 147.544 199.384 147.544Z" fill="#3F3D56"/>
<path d="M203.782 147.544H202.012C201.893 147.544 201.797 147.641 201.797 147.759V148.65C201.797 148.768 201.893 148.864 202.012 148.864H203.782C203.901 148.864 203.997 148.768 203.997 148.65V147.759C203.997 147.641 203.901 147.544 203.782 147.544Z" fill="#3F3D56"/>
<path d="M208.181 147.544H206.41C206.291 147.544 206.195 147.641 206.195 147.759V148.65C206.195 148.768 206.291 148.864 206.41 148.864H208.181C208.299 148.864 208.395 148.768 208.395 148.65V147.759C208.395 147.641 208.299 147.544 208.181 147.544Z" fill="#3F3D56"/>
<path d="M212.583 147.544H210.812C210.694 147.544 210.598 147.641 210.598 147.759V148.65C210.598 148.768 210.694 148.864 210.812 148.864H212.583C212.701 148.864 212.798 148.768 212.798 148.65V147.759C212.798 147.641 212.701 147.544 212.583 147.544Z" fill="#3F3D56"/>
<path d="M216.981 147.544H215.211C215.092 147.544 214.996 147.641 214.996 147.759V148.65C214.996 148.768 215.092 148.864 215.211 148.864H216.981C217.1 148.864 217.196 148.768 217.196 148.65V147.759C217.196 147.641 217.1 147.544 216.981 147.544Z" fill="#3F3D56"/>
<path d="M221.384 147.544H219.613C219.495 147.544 219.398 147.641 219.398 147.759V148.65C219.398 148.768 219.495 148.864 219.613 148.864H221.384C221.502 148.864 221.598 148.768 221.598 148.65V147.759C221.598 147.641 221.502 147.544 221.384 147.544Z" fill="#3F3D56"/>
<path d="M225.782 147.544H224.012C223.893 147.544 223.797 147.641 223.797 147.759V148.65C223.797 148.768 223.893 148.864 224.012 148.864H225.782C225.901 148.864 225.997 148.768 225.997 148.65V147.759C225.997 147.641 225.901 147.544 225.782 147.544Z" fill="#3F3D56"/>
<path d="M230.18 147.544H228.41C228.291 147.544 228.195 147.641 228.195 147.759V148.65C228.195 148.768 228.291 148.864 228.41 148.864H230.18C230.299 148.864 230.395 148.768 230.395 148.65V147.759C230.395 147.641 230.299 147.544 230.18 147.544Z" fill="#3F3D56"/>
<path d="M234.583 147.544H232.812C232.694 147.544 232.598 147.641 232.598 147.759V148.65C232.598 148.768 232.694 148.864 232.812 148.864H234.583C234.701 148.864 234.798 148.768 234.798 148.65V147.759C234.798 147.641 234.701 147.544 234.583 147.544Z" fill="#3F3D56"/>
<path d="M238.981 147.544H237.211C237.092 147.544 236.996 147.641 236.996 147.759V148.65C236.996 148.768 237.092 148.864 237.211 148.864H238.981C239.1 148.864 239.196 148.768 239.196 148.65V147.759C239.196 147.641 239.1 147.544 238.981 147.544Z" fill="#3F3D56"/>
<path d="M243.384 147.544H241.613C241.495 147.544 241.398 147.641 241.398 147.759V148.65C241.398 148.768 241.495 148.864 241.613 148.864H243.384C243.502 148.864 243.598 148.768 243.598 148.65V147.759C243.598 147.641 243.502 147.544 243.384 147.544Z" fill="#3F3D56"/>
<path d="M247.782 147.544H246.012C245.893 147.544 245.797 147.641 245.797 147.759V148.65C245.797 148.768 245.893 148.864 246.012 148.864H247.782C247.901 148.864 247.997 148.768 247.997 148.65V147.759C247.997 147.641 247.901 147.544 247.782 147.544Z" fill="#3F3D56"/>
<path d="M252.18 147.544H250.41C250.291 147.544 250.195 147.641 250.195 147.759V148.65C250.195 148.768 250.291 148.864 250.41 148.864H252.18C252.299 148.864 252.395 148.768 252.395 148.65V147.759C252.395 147.641 252.299 147.544 252.18 147.544Z" fill="#3F3D56"/>
<path d="M256.583 147.544H254.812C254.694 147.544 254.598 147.641 254.598 147.759V148.65C254.598 148.768 254.694 148.864 254.812 148.864H256.583C256.701 148.864 256.798 148.768 256.798 148.65V147.759C256.798 147.641 256.701 147.544 256.583 147.544Z" fill="#3F3D56"/>
<path d="M260.981 147.544H259.211C259.092 147.544 258.996 147.641 258.996 147.759V148.65C258.996 148.768 259.092 148.864 259.211 148.864H260.981C261.1 148.864 261.196 148.768 261.196 148.65V147.759C261.196 147.641 261.1 147.544 260.981 147.544Z" fill="#3F3D56"/>
<path d="M194.931 149.745H193.16C193.041 149.745 192.945 149.841 192.945 149.959V150.85C192.945 150.968 193.041 151.065 193.16 151.065H194.931C195.049 151.065 195.145 150.968 195.145 150.85V149.959C195.145 149.841 195.049 149.745 194.931 149.745Z" fill="#3F3D56"/>
<path d="M199.329 149.745H197.559C197.44 149.745 197.344 149.841 197.344 149.959V150.85C197.344 150.968 197.44 151.065 197.559 151.065H199.329C199.448 151.065 199.544 150.968 199.544 150.85V149.959C199.544 149.841 199.448 149.745 199.329 149.745Z" fill="#3F3D56"/>
<path d="M203.731 149.745H201.961C201.842 149.745 201.746 149.841 201.746 149.959V150.85C201.746 150.968 201.842 151.065 201.961 151.065H203.731C203.85 151.065 203.946 150.968 203.946 150.85V149.959C203.946 149.841 203.85 149.745 203.731 149.745Z" fill="#3F3D56"/>
<path d="M208.13 149.745H206.359C206.241 149.745 206.145 149.841 206.145 149.959V150.85C206.145 150.968 206.241 151.065 206.359 151.065H208.13C208.248 151.065 208.345 150.968 208.345 150.85V149.959C208.345 149.841 208.248 149.745 208.13 149.745Z" fill="#3F3D56"/>
<path d="M212.532 149.745H210.762C210.643 149.745 210.547 149.841 210.547 149.959V150.85C210.547 150.968 210.643 151.065 210.762 151.065H212.532C212.651 151.065 212.747 150.968 212.747 150.85V149.959C212.747 149.841 212.651 149.745 212.532 149.745Z" fill="#3F3D56"/>
<path d="M216.931 149.745H215.16C215.041 149.745 214.945 149.841 214.945 149.959V150.85C214.945 150.968 215.041 151.065 215.16 151.065H216.931C217.049 151.065 217.145 150.968 217.145 150.85V149.959C217.145 149.841 217.049 149.745 216.931 149.745Z" fill="#3F3D56"/>
<path d="M221.329 149.745H219.559C219.44 149.745 219.344 149.841 219.344 149.959V150.85C219.344 150.968 219.44 151.065 219.559 151.065H221.329C221.448 151.065 221.544 150.968 221.544 150.85V149.959C221.544 149.841 221.448 149.745 221.329 149.745Z" fill="#3F3D56"/>
<path d="M225.731 149.745H223.961C223.842 149.745 223.746 149.841 223.746 149.959V150.85C223.746 150.968 223.842 151.065 223.961 151.065H225.731C225.85 151.065 225.946 150.968 225.946 150.85V149.959C225.946 149.841 225.85 149.745 225.731 149.745Z" fill="#3F3D56"/>
<path d="M230.13 149.745H228.359C228.241 149.745 228.145 149.841 228.145 149.959V150.85C228.145 150.968 228.241 151.065 228.359 151.065H230.13C230.248 151.065 230.345 150.968 230.345 150.85V149.959C230.345 149.841 230.248 149.745 230.13 149.745Z" fill="#3F3D56"/>
<path d="M234.532 149.745H232.762C232.643 149.745 232.547 149.841 232.547 149.959V150.85C232.547 150.968 232.643 151.065 232.762 151.065H234.532C234.651 151.065 234.747 150.968 234.747 150.85V149.959C234.747 149.841 234.651 149.745 234.532 149.745Z" fill="#3F3D56"/>
<path d="M238.93 149.745H237.16C237.041 149.745 236.945 149.841 236.945 149.959V150.85C236.945 150.968 237.041 151.065 237.16 151.065H238.93C239.049 151.065 239.145 150.968 239.145 150.85V149.959C239.145 149.841 239.049 149.745 238.93 149.745Z" fill="#3F3D56"/>
<path d="M243.329 149.745H241.559C241.44 149.745 241.344 149.841 241.344 149.959V150.85C241.344 150.968 241.44 151.065 241.559 151.065H243.329C243.448 151.065 243.544 150.968 243.544 150.85V149.959C243.544 149.841 243.448 149.745 243.329 149.745Z" fill="#3F3D56"/>
<path d="M247.731 149.745H245.961C245.842 149.745 245.746 149.841 245.746 149.959V150.85C245.746 150.968 245.842 151.065 245.961 151.065H247.731C247.85 151.065 247.946 150.968 247.946 150.85V149.959C247.946 149.841 247.85 149.745 247.731 149.745Z" fill="#3F3D56"/>
<path d="M252.13 149.745H250.359C250.241 149.745 250.145 149.841 250.145 149.959V150.85C250.145 150.968 250.241 151.065 250.359 151.065H252.13C252.248 151.065 252.345 150.968 252.345 150.85V149.959C252.345 149.841 252.248 149.745 252.13 149.745Z" fill="#3F3D56"/>
<path d="M256.532 149.745H254.762C254.643 149.745 254.547 149.841 254.547 149.959V150.85C254.547 150.968 254.643 151.065 254.762 151.065H256.532C256.651 151.065 256.747 150.968 256.747 150.85V149.959C256.747 149.841 256.651 149.745 256.532 149.745Z" fill="#3F3D56"/>
<path d="M260.93 149.745H259.16C259.041 149.745 258.945 149.841 258.945 149.959V150.85C258.945 150.968 259.041 151.065 259.16 151.065H260.93C261.049 151.065 261.145 150.968 261.145 150.85V149.959C261.145 149.841 261.049 149.745 260.93 149.745Z" fill="#3F3D56"/>
<path d="M231.452 152.384H214.281C214.163 152.384 214.066 152.481 214.066 152.599V153.49C214.066 153.608 214.163 153.704 214.281 153.704H231.452C231.57 153.704 231.666 153.608 231.666 153.49V152.599C231.666 152.481 231.57 152.384 231.452 152.384Z" fill="#3F3D56"/>
<path d="M277.93 254.912L274.538 249.461L273.86 252.576C273.742 253.121 273.623 253.676 273.513 254.226C272.549 253.403 271.524 252.642 270.521 251.911C267.441 249.676 264.362 247.438 261.285 245.197L262.249 250.785C262.843 254.226 263.463 257.737 264.933 260.883C265.096 261.239 265.272 261.591 265.461 261.935H279.778C279.894 261.616 279.973 261.285 280.016 260.949C280.02 260.927 280.021 260.905 280.02 260.883C280.245 258.749 279.066 256.738 277.93 254.912Z" fill="#F0F0F0"/>
<path d="M84.3288 254.912L80.9364 249.461L80.2588 252.576C80.14 253.121 80.0212 253.676 79.9112 254.226C78.9476 253.403 77.9224 252.642 76.9193 251.911C73.8393 249.676 70.7607 247.438 67.6836 245.197L68.6472 250.785C69.2412 254.226 69.8617 257.737 71.3312 260.883C71.4941 261.239 71.67 261.591 71.8593 261.935H86.1769C86.2921 261.616 86.3717 261.285 86.4145 260.949C86.4181 260.927 86.4195 260.905 86.4188 260.883C86.6433 258.749 85.4641 256.738 84.3288 254.912Z" fill="#F0F0F0"/>
<path d="M356.489 262.531L235.159 262.666C235.02 262.666 234.888 262.61 234.79 262.512C234.692 262.414 234.637 262.281 234.637 262.142C234.637 262.003 234.692 261.87 234.79 261.772C234.888 261.674 235.02 261.619 235.159 261.618L356.489 261.483C356.628 261.483 356.761 261.539 356.859 261.637C356.957 261.735 357.011 261.868 357.011 262.007C357.011 262.146 356.957 262.279 356.859 262.377C356.761 262.475 356.628 262.53 356.489 262.531Z" fill="#CACACA"/>
<path d="M122.407 262.531L1.07707 262.666C0.938389 262.666 0.805525 262.61 0.707603 262.512C0.60968 262.414 0.554688 262.281 0.554688 262.142C0.554688 262.003 0.60968 261.87 0.707603 261.772C0.805525 261.674 0.938389 261.619 1.07707 261.618L122.407 261.483C122.546 261.483 122.679 261.539 122.777 261.637C122.874 261.735 122.929 261.868 122.929 262.007C122.929 262.146 122.874 262.279 122.777 262.377C122.679 262.475 122.546 262.53 122.407 262.531Z" fill="#CACACA"/>
<path d="M79.0374 19.3988C76.9386 20.0236 74.9806 18.268 73.5198 16.6048L74.039 17.2208C70.6026 19.6408 68.5478 23.5832 67.2146 27.574C65.8814 31.5604 65.1378 35.736 63.633 39.6652C62.1282 43.59 59.6994 47.3872 55.9814 49.3452C51.0006 51.9676 44.8978 50.7752 39.6002 48.8832C39.5298 48.8568 39.4638 48.8348 39.3934 48.8084C41.539 44.8005 42.853 40.4006 43.2566 35.8724C41.0773 40.1271 37.9343 43.814 34.0782 46.6392C30.6166 45.0657 27.2882 43.2146 24.1254 41.104C22.0794 39.7356 19.9234 37.9668 19.6858 35.516C19.4438 33.0828 21.261 30.8608 23.4038 29.6904C25.5466 28.52 28.0106 28.124 30.3514 27.42C32.6878 26.7204 35.0726 25.572 36.3002 23.46C39.1294 18.6024 34.3686 11.7516 37.4046 7.01723C38.9006 4.68963 41.8046 3.75682 44.4974 3.11002C48.6075 2.12691 52.7794 1.42277 56.9846 1.00243C60.6762 0.632827 64.491 0.496428 68.0022 1.68443C71.5134 2.87243 74.699 5.63123 75.4514 9.26563C77.5018 10.3436 79.671 11.536 80.771 13.582C81.871 15.6236 81.2593 18.7388 79.0374 19.3988Z" fill="#2F2E41"/>
<path d="M75.9036 18.5803C73.8939 21.0979 72.7999 23.8206 72.7999 25.4511C68.6249 33.0816 74.5952 39.636 82.2259 43.8109C85.2694 45.4848 88.7837 46.0975 92.2141 45.5522L92.5333 44.1894L92.9659 45.417C92.9659 45.417 97.934 61.8259 99.5727 62.7885C98.9509 59.8682 98.2385 46.3471 97.8924 43.4972C97.4131 39.6182 99.0838 33.8434 100.289 30.3317C101.036 28.1673 101.42 25.8941 101.424 23.6044V23.5043L102.597 27.2736L106.869 25.4511C106.075 20.8923 106.87 15.7169 97.3408 16.1658C92.1872 12.6214 87.6488 12.0815 83.9209 13.0868C83.4398 12.343 80.6655 13.7361 79.8639 13.3445" fill="#2F2E41"/>
<path d="M288.316 37.122V117.475C288.315 118.036 288.091 118.574 287.695 118.97C287.298 119.367 286.76 119.59 286.199 119.591H243.862C239.179 115.248 235.337 110.078 232.528 104.341C232.343 103.971 232.167 103.597 232 103.219C229.441 97.666 227.892 91.7018 227.424 85.6056C227.393 85.2316 227.367 84.8576 227.349 84.4792C227.292 83.5112 227.266 82.53 227.266 81.5444C227.257 74.9895 228.495 68.4927 230.913 62.4C231.058 62.0216 231.212 61.6476 231.371 61.2736C236.237 49.8393 245.031 40.5212 256.165 35.0012H286.199C286.761 35.0024 287.299 35.2264 287.696 35.624C288.093 36.0216 288.316 36.5603 288.316 37.122Z" fill="#F9A826"/>
<path d="M280.162 46.0721H167.82C167.703 46.0695 167.592 46.0213 167.51 45.9378C167.429 45.8543 167.383 45.7422 167.383 45.6253C167.383 45.5085 167.429 45.3964 167.51 45.3129C167.592 45.2294 167.703 45.1812 167.82 45.1786H280.162C280.279 45.1812 280.39 45.2294 280.472 45.3129C280.553 45.3964 280.599 45.5085 280.599 45.6253C280.599 45.7422 280.553 45.8543 280.472 45.9378C280.39 46.0213 280.279 46.0695 280.162 46.0721Z" fill="#CACACA"/>
<path d="M175.47 42.8976C176.916 42.8976 178.088 41.6992 178.088 40.221C178.088 38.7428 176.916 37.5445 175.47 37.5445C174.024 37.5445 172.852 38.7428 172.852 40.221C172.852 41.6992 174.024 42.8976 175.47 42.8976Z" fill="#3F3D56"/>
<path d="M184.513 42.8976C185.959 42.8976 187.131 41.6992 187.131 40.221C187.131 38.7428 185.959 37.5445 184.513 37.5445C183.067 37.5445 181.895 38.7428 181.895 40.221C181.895 41.6992 183.067 42.8976 184.513 42.8976Z" fill="#3F3D56"/>
<path d="M193.556 42.8976C195.002 42.8976 196.174 41.6992 196.174 40.221C196.174 38.7428 195.002 37.5445 193.556 37.5445C192.11 37.5445 190.938 38.7428 190.938 40.221C190.938 41.6992 192.11 42.8976 193.556 42.8976Z" fill="#3F3D56"/>
<path d="M274.718 38.2079H268.293C268.166 38.2104 268.045 38.2628 267.956 38.3537C267.866 38.4447 267.816 38.567 267.816 38.6944C267.816 38.8218 267.866 38.9441 267.956 39.035C268.045 39.126 268.166 39.1783 268.293 39.1808H274.718C274.846 39.1783 274.967 39.126 275.056 39.035C275.145 38.9441 275.195 38.8218 275.195 38.6944C275.195 38.567 275.145 38.4447 275.056 38.3537C274.967 38.2628 274.846 38.2104 274.718 38.2079Z" fill="#3F3D56"/>
<path d="M274.718 40.0339H268.293C268.166 40.0364 268.045 40.0888 267.956 40.1798C267.866 40.2707 267.816 40.393 267.816 40.5204C267.816 40.6478 267.866 40.7701 267.956 40.8611C268.045 40.952 268.166 41.0044 268.293 41.0069H274.718C274.846 41.0044 274.967 40.952 275.056 40.8611C275.145 40.7701 275.195 40.6478 275.195 40.5204C275.195 40.393 275.145 40.2707 275.056 40.1798C274.967 40.0888 274.846 40.0364 274.718 40.0339Z" fill="#3F3D56"/>
<path d="M274.718 41.8576H268.293C268.166 41.8601 268.045 41.9125 267.956 42.0034C267.866 42.0944 267.816 42.2167 267.816 42.3441C267.816 42.4715 267.866 42.5938 267.956 42.6847C268.045 42.7757 268.166 42.828 268.293 42.8306H274.718C274.846 42.828 274.967 42.7757 275.056 42.6847C275.145 42.5938 275.195 42.4715 275.195 42.3441C275.195 42.2167 275.145 42.0944 275.056 42.0034C274.967 41.9125 274.846 41.8601 274.718 41.8576Z" fill="#3F3D56"/>
<path d="M201.384 72.1719H187.347C186.292 72.1719 185.438 73.0267 185.438 74.0811V74.0811C185.438 75.1355 186.292 75.9902 187.347 75.9902H201.384C202.439 75.9902 203.294 75.1355 203.294 74.0811C203.294 73.0267 202.439 72.1719 201.384 72.1719Z" fill="#F9A826"/>
<path d="M210.451 79.8085H178.276C177.222 79.8085 176.367 80.6633 176.367 81.7177C176.367 82.7721 177.222 83.6268 178.276 83.6268H210.451C211.505 83.6268 212.36 82.7721 212.36 81.7177C212.36 80.6633 211.505 79.8085 210.451 79.8085Z" fill="#E6E6E6"/>
<path d="M210.451 87.4452H178.276C177.222 87.4452 176.367 88.2999 176.367 89.3543V89.3543C176.367 90.4087 177.222 91.2635 178.276 91.2635H210.451C211.505 91.2635 212.36 90.4087 212.36 89.3543C212.36 88.2999 211.505 87.4452 210.451 87.4452Z" fill="#E6E6E6"/>
<path d="M179.305 114.984C179.308 116.557 179.028 118.118 178.478 119.591H166.136C165.575 119.59 165.037 119.367 164.64 118.97C164.244 118.574 164.02 118.036 164.02 117.475V101.952C164.709 101.84 165.407 101.784 166.105 101.784C167.839 101.784 169.555 102.126 171.157 102.789C172.758 103.452 174.213 104.425 175.439 105.65C176.665 106.876 177.637 108.331 178.301 109.933C178.964 111.534 179.305 113.251 179.305 114.984Z" fill="#F9A826"/>
<path opacity="0.2" d="M288.424 62.4001V61.2737H269.544V48.2189H268.422V61.2737H246.782V48.2189H245.66V61.2737H231.369C231.211 61.6477 231.057 62.0217 230.912 62.4001H245.66V84.4793H227.348C227.365 84.8577 227.392 85.2317 227.422 85.6057H245.66V103.219H231.998C232.166 103.597 232.342 103.971 232.526 104.341H245.66V119.147H246.782V104.341H268.422V119.147H269.544V104.341H288.424V103.219H269.544V85.6057H288.424V84.4793H269.544V62.4001H288.424ZM268.422 103.219H246.782V85.6057H268.422V103.219ZM268.422 84.4793H246.782V62.4001H268.422V84.4793Z" fill="black"/>
<path d="M273.225 111.255C272.984 111.266 272.745 111.203 272.542 111.074C272.338 110.945 272.179 110.756 272.086 110.534C271.993 110.312 271.97 110.066 272.022 109.83C272.073 109.595 272.195 109.381 272.372 109.217L272.453 108.897C272.442 108.871 272.432 108.845 272.421 108.82C272.178 108.247 271.772 107.758 271.252 107.415C270.733 107.073 270.124 106.891 269.501 106.893C268.879 106.896 268.271 107.082 267.755 107.428C267.238 107.775 266.835 108.267 266.596 108.841C265.644 111.136 264.431 113.434 264.132 115.86C264.001 116.932 264.056 118.019 264.296 119.072C262.059 114.192 260.897 108.887 260.89 103.518C260.889 102.171 260.964 100.824 261.114 99.4855C261.238 98.3878 261.409 97.2979 261.629 96.2159C262.828 90.3449 265.403 84.8421 269.142 80.1594C270.952 79.1721 272.415 77.6537 273.335 75.809C273.669 75.1459 273.904 74.438 274.035 73.7074C273.831 73.7342 273.623 73.7509 273.419 73.7643C273.355 73.7676 273.288 73.7709 273.225 73.7743L273.201 73.7754C272.976 73.7854 272.754 73.7305 272.56 73.617C272.366 73.5036 272.209 73.3365 272.108 73.136C272.007 72.9355 271.966 72.71 271.99 72.4867C272.014 72.2634 272.103 72.0518 272.244 71.8775C272.332 71.769 272.42 71.6606 272.509 71.5522C272.643 71.3849 272.78 71.2209 272.914 71.0536C272.929 71.0377 272.944 71.0209 272.957 71.0034C273.111 70.8126 273.265 70.6252 273.419 70.4345C273.138 69.9983 272.76 69.633 272.315 69.3669C270.772 68.4634 268.643 69.0892 267.529 70.4847C266.411 71.8801 266.201 73.8379 266.589 75.5814C266.97 77.065 267.602 78.4727 268.456 79.7444C268.372 79.8515 268.285 79.9553 268.202 80.0624C266.672 82.0289 265.339 84.1406 264.222 86.3672C264.494 83.8728 264.169 81.3495 263.276 79.0049C262.37 76.8198 260.672 74.9795 259.177 73.0905C257.381 70.8215 253.699 71.8117 253.382 74.688C253.379 74.7159 253.376 74.7437 253.373 74.7715C253.595 74.8968 253.813 75.0298 254.026 75.1704C254.293 75.349 254.5 75.604 254.619 75.9022C254.739 76.2004 254.766 76.5278 254.697 76.8416C254.627 77.1553 254.464 77.4407 254.23 77.6604C253.995 77.8801 253.7 78.0239 253.382 78.0729L253.35 78.0779C253.429 78.8782 253.569 79.6714 253.768 80.4505C254.346 82.6257 255.367 84.658 256.767 86.4202C258.167 88.1823 259.915 89.6363 261.904 90.6908C262.034 90.7578 262.161 90.8247 262.292 90.8883C261.169 94.0698 260.465 97.3839 260.197 100.747C260.045 102.731 260.054 104.724 260.224 106.707L260.214 106.637C259.785 104.432 258.609 102.443 256.884 101.005C254.321 98.8998 250.701 98.1246 247.937 96.4327C247.643 96.244 247.301 96.1434 246.952 96.1425C246.603 96.1417 246.261 96.2407 245.966 96.4279C245.672 96.6151 245.437 96.8826 245.289 97.199C245.141 97.5154 245.087 97.8674 245.133 98.2135C245.137 98.2382 245.141 98.2628 245.144 98.2874C245.556 98.4552 245.958 98.6486 246.346 98.8663C246.568 98.9916 246.785 99.1246 246.998 99.2652C247.265 99.4438 247.472 99.6988 247.592 99.997C247.712 100.295 247.738 100.623 247.669 100.936C247.599 101.25 247.437 101.536 247.202 101.755C246.968 101.975 246.672 102.119 246.355 102.168L246.322 102.173C246.299 102.176 246.279 102.179 246.255 102.183C246.96 103.864 247.948 105.411 249.177 106.757C250.695 108.387 252.53 109.689 254.57 110.583C256.609 111.478 258.81 111.947 261.037 111.961H261.04C261.645 114.588 262.521 117.145 263.654 119.591H272.991C273.024 119.487 273.054 119.38 273.084 119.277C272.22 119.331 271.352 119.279 270.501 119.123C271.193 118.273 271.886 117.416 272.579 116.566C272.594 116.55 272.609 116.533 272.622 116.516C272.974 116.081 273.329 115.649 273.68 115.214L273.68 115.213C273.699 113.88 273.546 112.549 273.225 111.255ZM262.533 90.2223L262.538 90.2157L262.533 90.229V90.2223ZM260.465 108.866L260.384 108.685C260.388 108.554 260.388 108.424 260.384 108.29C260.384 108.253 260.378 108.216 260.378 108.18C260.408 108.411 260.434 108.642 260.468 108.872L260.465 108.866Z" fill="#2F2E41"/>
</g>
<defs>
<clipPath id="clip0_0_1">
<rect x="0.554688" y="0.740662" width="356.458" height="261.925" rx="8" fill="white"/>
</clipPath>
</defs>
</svg>
