<svg width="321" height="305" viewBox="0 0 321 305" fill="none" xmlns="http://www.w3.org/2000/svg">
<rect width="321" height="305" fill="#1E1E1E"/>
<rect width="1440" height="2984" transform="translate(-188 -327)" fill="white"/>
<rect x="0.0234375" y="0.100006" width="320" height="304.8" rx="8" fill="black" fill-opacity="0.5"/>
<g clip-path="url(#clip0_0_1)">
<path d="M203.18 304.18C203.18 304.47 203.413 304.704 203.703 304.704H319.683C319.973 304.704 320.206 304.47 320.206 304.18C320.206 303.89 319.973 303.656 319.683 303.656H203.703C203.413 303.656 203.18 303.89 203.18 304.18Z" fill="#3F3D58"/>
<path d="M245.346 157.506L244.004 160.863C244.004 160.863 242.767 165.562 244.215 167.437C245.662 169.311 245.984 183.66 244.43 184.72C242.873 185.78 264.151 174.895 264.151 174.895C264.151 174.895 255.844 155.632 255.703 155.561C255.562 155.491 250.12 153.792 250.12 153.792L245.35 157.502L245.346 157.506Z" fill="#2F2E43"/>
<path d="M259.194 174.098L252.066 176.444V166.183H258.534L259.194 174.098Z" fill="#F6A6A9"/>
<path d="M237.407 232.354C237.02 234.704 235.454 236.389 233.905 236.121C232.356 235.848 231.415 233.723 231.802 231.373C231.943 230.432 232.317 229.543 232.889 228.777L234.657 218.838L239.467 219.845L237.214 229.534C237.509 230.449 237.579 231.417 237.407 232.354Z" fill="#F6A6A9"/>
<path d="M256.519 288.974H249.84V298.447H256.519V288.974Z" fill="#F6A6A9"/>
<path d="M243.34 304.18C242.636 304.18 242.011 304.162 241.541 304.118C239.767 303.956 238.073 302.649 237.224 301.883C236.841 301.54 236.718 300.99 236.921 300.519C237.061 300.18 237.347 299.925 237.704 299.824L242.39 298.486L249.98 293.365L250.063 293.514C250.094 293.572 250.842 294.914 251.089 295.82C251.185 296.163 251.159 296.454 251.014 296.674C250.913 296.828 250.776 296.916 250.662 296.968C250.798 297.114 251.229 297.404 252.554 297.615C254.49 297.923 254.895 295.917 254.912 295.833L254.925 295.767L254.983 295.732C255.902 295.138 256.47 294.87 256.668 294.927C256.791 294.962 256.993 295.024 257.543 300.488C257.601 300.66 257.983 301.918 257.724 303.12C257.438 304.426 251.727 303.978 250.583 303.872C250.552 303.872 246.271 304.18 243.34 304.18Z" fill="#2F2E43"/>
<path d="M275.531 281.526L269.863 285.061L274.876 293.099L280.544 289.564L275.531 281.526Z" fill="#F6A6A9"/>
<path d="M268.004 302.882C267.221 302.882 266.499 302.79 265.989 302.697C265.483 302.609 265.091 302.209 265.007 301.703C264.95 301.338 265.056 300.972 265.302 300.7L268.571 297.083L272.303 288.723L272.457 288.806C272.514 288.837 273.856 289.581 274.547 290.219C274.811 290.461 274.943 290.72 274.934 290.984C274.934 291.169 274.859 291.319 274.793 291.42C274.987 291.468 275.506 291.49 276.742 290.967C278.546 290.206 277.833 288.287 277.798 288.204L277.772 288.142L277.803 288.08C278.269 287.09 278.608 286.558 278.806 286.505C278.929 286.47 279.136 286.417 282.493 290.76C282.629 290.874 283.624 291.737 284.037 292.898C284.486 294.161 279.4 296.801 278.379 297.316C278.348 297.342 273.024 301.21 270.842 302.31C269.975 302.746 268.95 302.882 268.013 302.882H268.004Z" fill="#2F2E43"/>
<path d="M261.436 209.76H242.745L241.047 227.149L248.47 291.398H258.013L254.198 254.288L269.678 287.79L278.161 281.854L266.074 250.579C266.074 250.579 270.39 223.33 266.998 216.545C263.606 209.76 261.441 209.76 261.441 209.76H261.436Z" fill="#2F2E43"/>
<path d="M270.731 210.821H238.285L249.95 172.44H262.886L270.731 210.821Z" fill="#E6E6E6"/>
<path d="M251.994 172.444C251.994 172.444 243.938 172.233 243.089 174.354C242.239 176.474 232.273 226.942 232.273 226.942H238.847L251.994 172.444Z" fill="#E6E6E6"/>
<path d="M252.953 169.021C256.875 169.021 260.055 165.841 260.055 161.919C260.055 157.997 256.875 154.818 252.953 154.818C249.031 154.818 245.852 157.997 245.852 161.919C245.852 165.841 249.031 169.021 252.953 169.021Z" fill="#F6A6A9"/>
<path d="M254.329 150.884C254.329 150.884 262.883 148.693 265.497 160.071C265.497 160.071 265.567 163.041 267.05 164.242C268.533 165.444 268.04 171.665 268.04 171.665C268.04 171.665 270.869 176.329 268.462 178.45C268.462 178.45 267.402 182.762 268.955 185.235C270.508 187.708 276.378 201.317 266.623 202.144C266.623 202.144 261.677 199.156 264.009 190.251C266.341 181.345 263.728 176.426 263.728 176.426C263.728 176.426 256.235 173.711 256.661 167.912C257.084 162.117 251.857 156.393 251.5 156.463C251.144 156.534 247.47 154.413 245.846 160.916L244.104 160.621C244.104 160.621 243.373 149.678 254.329 150.88V150.884Z" fill="#2F2E43"/>
<path d="M276.269 231.21C276.744 233.547 275.877 235.676 274.333 235.976C272.789 236.27 271.156 234.62 270.681 232.284C270.479 231.356 270.509 230.388 270.773 229.472L268.895 219.555L273.748 218.789L275.081 228.65C275.684 229.402 276.089 230.282 276.265 231.219L276.269 231.21Z" fill="#F6A6A9"/>
<path d="M257.234 172.488C257.234 172.488 264.332 171.59 265.181 173.711C266.03 175.832 275.996 226.3 275.996 226.3H269.422L257.239 172.492L257.234 172.488Z" fill="#E6E6E6"/>
<path d="M47.4954 97.3052H12.9114C8.45422 97.3052 4.82422 93.6796 4.82422 89.218V54.634C4.82422 50.1768 8.44982 46.5468 12.9114 46.5468H47.4954C51.9526 46.5468 55.5826 50.1724 55.5826 54.634V89.218C55.5826 93.6752 51.957 97.3052 47.4954 97.3052ZM12.9114 47.4312C8.93822 47.4312 5.70422 50.6652 5.70422 54.6384V89.2224C5.70422 93.1956 8.93822 96.4296 12.9114 96.4296H47.4954C51.4686 96.4296 54.7026 93.1956 54.7026 89.2224V54.6384C54.7026 50.6652 51.4686 47.4312 47.4954 47.4312H12.9114Z" fill="#CCCCCC"/>
<path d="M122.593 97.3052H88.0091C83.5519 97.3052 79.9219 93.6796 79.9219 89.218V54.634C79.9219 50.1768 83.5475 46.5468 88.0091 46.5468H122.593C127.05 46.5468 130.68 50.1724 130.68 54.634V89.218C130.68 93.6752 127.055 97.3052 122.593 97.3052ZM88.0091 47.4268C84.0359 47.4268 80.8019 50.6608 80.8019 54.634V89.218C80.8019 93.1912 84.0359 96.4252 88.0091 96.4252H122.593C126.566 96.4252 129.8 93.1912 129.8 89.218V54.634C129.8 50.6608 126.566 47.4268 122.593 47.4268H88.0091Z" fill="#CCCCCC"/>
<path d="M122.593 191.496H88.0091C83.5519 191.496 79.9219 187.87 79.9219 183.409V148.825C79.9219 144.368 83.5475 140.738 88.0091 140.738H122.593C127.05 140.738 130.68 144.363 130.68 148.825V183.409C130.68 187.866 127.055 191.496 122.593 191.496ZM88.0091 141.618C84.0359 141.618 80.8019 144.852 80.8019 148.825V183.409C80.8019 187.382 84.0359 190.616 88.0091 190.616H122.593C126.566 190.616 129.8 187.382 129.8 183.409V148.825C129.8 144.852 126.566 141.618 122.593 141.618H88.0091Z" fill="#CCCCCC"/>
<path d="M47.4954 191.496H12.9114C8.45422 191.496 4.82422 187.87 4.82422 183.409V148.825C4.82422 144.368 8.44982 140.738 12.9114 140.738H47.4954C51.9526 140.738 55.5826 144.363 55.5826 148.825V183.409C55.5826 187.866 51.957 191.496 47.4954 191.496ZM12.9114 141.618C8.93822 141.618 5.70422 144.852 5.70422 148.825V183.409C5.70422 187.382 8.93822 190.616 12.9114 190.616H47.4954C51.4686 190.616 54.7026 187.382 54.7026 183.409V148.825C54.7026 144.852 51.4686 141.618 47.4954 141.618H12.9114Z" fill="#CCCCCC"/>
<path d="M53.6783 153.247C59.3427 153.247 63.9347 148.655 63.9347 142.99C63.9347 137.326 59.3427 132.734 53.6783 132.734C48.0138 132.734 43.4219 137.326 43.4219 142.99C43.4219 148.655 48.0138 153.247 53.6783 153.247Z" fill="#F9A826"/>
<path d="M197.695 97.3052H163.111C158.653 97.3052 155.023 93.6796 155.023 89.218V54.634C155.023 50.1768 158.649 46.5468 163.111 46.5468H197.695C202.152 46.5468 205.782 50.1724 205.782 54.634V89.218C205.782 93.6752 202.156 97.3052 197.695 97.3052ZM163.111 47.4268C159.137 47.4268 155.903 50.6608 155.903 54.634V89.218C155.903 93.1912 159.137 96.4252 163.111 96.4252H197.695C201.668 96.4252 204.902 93.1912 204.902 89.218V54.634C204.902 50.6608 201.668 47.4268 197.695 47.4268H163.111Z" fill="#CCCCCC"/>
<path d="M205.338 59.0604C211.003 59.0604 215.595 54.4685 215.595 48.804C215.595 43.1396 211.003 38.5476 205.338 38.5476C199.674 38.5476 195.082 43.1396 195.082 48.804C195.082 54.4685 199.674 59.0604 205.338 59.0604Z" fill="#F9A826"/>
<path d="M39.2373 107.865H18.6057C16.9909 107.865 15.6797 106.554 15.6797 104.939C15.6797 103.324 16.9909 102.013 18.6057 102.013H39.2373C40.8521 102.013 42.1633 103.324 42.1633 104.939C42.1633 106.554 40.8521 107.865 39.2373 107.865Z" fill="#E6E6E6"/>
<path d="M115.616 107.865H94.9846C93.3698 107.865 92.0586 106.554 92.0586 104.939C92.0586 103.324 93.3698 102.013 94.9846 102.013H115.616C117.231 102.013 118.542 103.324 118.542 104.939C118.542 106.554 117.231 107.865 115.616 107.865Z" fill="#E6E6E6"/>
<path d="M191.999 107.865H171.367C169.753 107.865 168.441 106.554 168.441 104.939C168.441 103.324 169.753 102.013 171.367 102.013H191.999C193.614 102.013 194.925 103.324 194.925 104.939C194.925 106.554 193.614 107.865 191.999 107.865Z" fill="#E6E6E6"/>
<path d="M197.695 192.376H163.111C158.653 192.376 155.023 188.75 155.023 184.289V149.705C155.023 145.248 158.649 141.618 163.111 141.618H197.695C202.152 141.618 205.782 145.243 205.782 149.705V184.289C205.782 188.746 202.156 192.376 197.695 192.376ZM163.111 142.498C159.137 142.498 155.903 145.732 155.903 149.705V184.289C155.903 188.262 159.137 191.496 163.111 191.496H197.695C201.668 191.496 204.902 188.262 204.902 184.289V149.705C204.902 145.732 201.668 142.498 197.695 142.498H163.111Z" fill="#CCCCCC"/>
<path d="M191.999 202.932H171.367C169.753 202.932 168.441 201.62 168.441 200.006C168.441 198.391 169.753 197.08 171.367 197.08H191.999C193.614 197.08 194.925 198.391 194.925 200.006C194.925 201.62 193.614 202.932 191.999 202.932Z" fill="#E6E6E6"/>
<path d="M272.796 97.3052H238.212C233.755 97.3052 230.125 93.6796 230.125 89.218V54.634C230.125 50.1768 233.751 46.5468 238.212 46.5468H272.796C277.253 46.5468 280.883 50.1724 280.883 54.634V89.218C280.883 93.6752 277.258 97.3052 272.796 97.3052ZM238.212 47.4268C234.239 47.4268 231.005 50.6608 231.005 54.634V89.218C231.005 93.1912 234.239 96.4252 238.212 96.4252H272.796C276.769 96.4252 280.003 93.1912 280.003 89.218V54.634C280.003 50.6608 276.769 47.4268 272.796 47.4268H238.212Z" fill="#CCCCCC"/>
<path d="M267.097 107.865H246.465C244.85 107.865 243.539 106.554 243.539 104.939C243.539 103.324 244.85 102.013 246.465 102.013H267.097C268.711 102.013 270.023 103.324 270.023 104.939C270.023 106.554 268.711 107.865 267.097 107.865Z" fill="#E6E6E6"/>
<path d="M39.2373 202.052H18.6057C16.9909 202.052 15.6797 200.74 15.6797 199.126C15.6797 197.511 16.9909 196.2 18.6057 196.2H39.2373C40.8521 196.2 42.1633 197.511 42.1633 199.126C42.1633 200.74 40.8521 202.052 39.2373 202.052Z" fill="#E6E6E6"/>
<path d="M115.616 202.052H94.9846C93.3698 202.052 92.0586 200.74 92.0586 199.126C92.0586 197.511 93.3698 196.2 94.9846 196.2H115.616C117.231 196.2 118.542 197.511 118.542 199.126C118.542 200.74 117.231 202.052 115.616 202.052Z" fill="#E6E6E6"/>
<path d="M135.829 232.742C137.219 232.742 138.346 231.615 138.346 230.225C138.346 228.835 137.219 227.708 135.829 227.708C134.439 227.708 133.312 228.835 133.312 230.225C133.312 231.615 134.439 232.742 135.829 232.742Z" fill="#F9A826"/>
<path d="M143.29 232.742C144.68 232.742 145.807 231.615 145.807 230.225C145.807 228.835 144.68 227.708 143.29 227.708C141.9 227.708 140.773 228.835 140.773 230.225C140.773 231.615 141.9 232.742 143.29 232.742Z" fill="#E6E6E6"/>
<path d="M150.755 232.742C152.145 232.742 153.272 231.615 153.272 230.225C153.272 228.835 152.145 227.708 150.755 227.708C149.365 227.708 148.238 228.835 148.238 230.225C148.238 231.615 149.365 232.742 150.755 232.742Z" fill="#E6E6E6"/>
<path d="M177.857 16.5036H108.715C105.296 16.5036 102.516 13.7228 102.516 10.304C102.516 6.88521 105.296 4.10441 108.715 4.10441H177.857C181.276 4.10441 184.056 6.88521 184.056 10.304C184.056 13.7228 181.276 16.5036 177.857 16.5036ZM108.72 4.98001C105.785 4.98001 103.4 7.36921 103.4 10.2996C103.4 13.23 105.789 15.6192 108.72 15.6192H177.861C180.796 15.6192 183.181 13.23 183.181 10.2996C183.181 7.36921 180.792 4.98001 177.861 4.98001H108.72Z" fill="#CCCCCC"/>
<path d="M128.513 11.9232C127.123 11.9232 125.992 10.7924 125.992 9.40198C125.992 8.01158 127.123 6.88078 128.513 6.88078C129.904 6.88078 131.035 8.01158 131.035 9.40198C131.035 10.7924 129.904 11.9232 128.513 11.9232ZM128.513 7.56718C127.501 7.56718 126.679 8.38998 126.679 9.40198C126.679 10.414 127.501 11.2368 128.513 11.2368C129.525 11.2368 130.348 10.414 130.348 9.40198C130.348 8.38998 129.525 7.56718 128.513 7.56718Z" fill="#484662"/>
<path d="M133.263 13.9868C133.184 13.9868 133.105 13.9604 133.039 13.9032L129.853 11.1708C129.708 11.0476 129.695 10.832 129.818 10.6868C129.941 10.5416 130.157 10.5284 130.302 10.6516L133.488 13.384C133.633 13.5072 133.646 13.7228 133.523 13.868C133.457 13.9472 133.36 13.9868 133.263 13.9868Z" fill="#484662"/>
</g>
<defs>
<clipPath id="clip0_0_1">
<rect x="4.82422" y="4.1" width="315.388" height="300.604" rx="8" fill="white"/>
</clipPath>
</defs>
</svg>
