<svg  viewBox="0 0 444 436" fill="none" xmlns="http://www.w3.org/2000/svg">
<g clip-path="url(#clip0_450_6803)">
<rect x="0.644531" y="0.460693" width="442.502" height="435.509" rx="9.5" fill="black" fill-opacity="0.2"/>
<path d="M65.3073 278.285C101.018 278.285 129.968 249.335 129.968 213.624C129.968 177.913 101.018 148.963 65.3073 148.963C29.5961 148.963 0.646484 177.913 0.646484 213.624C0.646484 249.335 29.5961 278.285 65.3073 278.285Z" fill="#F2F2F2"/>
<path d="M65.8843 216.32C80.1247 216.32 91.6689 204.776 91.6689 190.535C91.6689 176.295 80.1247 164.751 65.8843 164.751C51.6438 164.751 40.0996 176.295 40.0996 190.535C40.0996 204.776 51.6438 216.32 65.8843 216.32Z" fill="#2F2E41"/>
<path d="M130.318 65.2364C130.295 78.0251 126.48 90.5198 119.357 101.141C112.233 111.761 102.119 120.031 90.2956 124.904C78.4717 129.777 65.4683 131.035 52.9298 128.518C40.3913 126 28.8808 119.822 19.8538 110.763C10.8269 101.704 4.689 90.1713 2.21629 77.624C-0.256412 65.0766 1.04714 52.0778 5.9621 40.2712C10.8771 28.4647 19.1827 18.3808 29.8287 11.2946C40.4747 4.20848 52.9829 0.438366 65.7716 0.461039C74.2691 0.454054 82.6844 2.12642 90.5336 5.38205C98.3828 8.63767 105.511 13.4124 111.509 19.4317C117.507 25.4511 122.257 32.5964 125.484 40.4571C128.712 48.3178 130.355 56.7389 130.318 65.2364Z" fill="#F2F2F2"/>
<path d="M218.745 278.285C254.456 278.285 283.406 249.335 283.406 213.624C283.406 177.913 254.456 148.963 218.745 148.963C183.034 148.963 154.084 177.913 154.084 213.624C154.084 249.335 183.034 278.285 218.745 278.285Z" fill="#F2F2F2"/>
<path d="M218.557 129.783C254.268 129.783 283.218 100.833 283.218 65.1217C283.218 29.4106 254.268 0.460938 218.557 0.460938C182.846 0.460938 153.896 29.4106 153.896 65.1217C153.896 100.833 182.846 129.783 218.557 129.783Z" fill="#F2F2F2"/>
<path d="M376.151 129.783C411.862 129.783 440.812 100.833 440.812 65.1217C440.812 29.4106 411.862 0.460938 376.151 0.460938C340.44 0.460938 311.49 29.4106 311.49 65.1217C311.49 100.833 340.44 129.783 376.151 129.783Z" fill="#F2F2F2"/>
<path d="M378.487 278.285C414.198 278.285 443.148 249.335 443.148 213.624C443.148 177.913 414.198 148.963 378.487 148.963C342.776 148.963 313.826 177.913 313.826 213.624C313.826 249.335 342.776 278.285 378.487 278.285Z" fill="#F2F2F2"/>
<path d="M130.318 371.309C130.318 384.097 126.525 396.599 119.42 407.232C112.315 417.866 102.217 426.153 90.4015 431.047C78.5863 435.941 65.5852 437.222 53.0422 434.727C40.4993 432.232 28.9778 426.074 19.9348 417.031C10.8919 407.988 4.73351 396.466 2.23856 383.923C-0.256391 371.38 1.02411 358.379 5.91814 346.564C10.8122 334.749 19.0999 324.65 29.7333 317.545C40.3667 310.44 52.8682 306.648 65.6569 306.648C74.1589 306.61 82.5841 308.257 90.4462 311.493C98.3083 314.729 105.452 319.49 111.463 325.502C117.475 331.514 122.237 338.657 125.473 346.519C128.709 354.381 130.356 362.807 130.318 371.309Z" fill="#F2F2F2"/>
<path d="M222.714 435.97C258.425 435.97 287.374 407.02 287.374 371.309C287.374 335.598 258.425 306.648 222.714 306.648C187.002 306.648 158.053 335.598 158.053 371.309C158.053 407.02 187.002 435.97 222.714 435.97Z" fill="#F2F2F2"/>
<path d="M35.6883 44.0874C38.362 35.5664 44.4421 27.7513 52.8507 24.8708C61.2598 21.9902 73.5728 26.3782 79.8946 32.6786C91.4583 44.2032 94.2803 83.7946 86.3355 96.3059C84.7553 96.2222 79.3025 96.1604 77.7031 96.1005L75.4406 88.5595V96.0261C72.8925 95.9474 70.3245 95.893 67.7366 95.863C59.0598 95.7554 50.7627 92.288 44.5895 86.1896C38.4163 80.0912 34.8478 71.837 34.6344 63.1622C34.4274 54.8634 34.6346 47.4453 35.6883 44.0874Z" fill="#2F2E41"/>
<path d="M64.6994 72.328C74.8768 72.328 83.1272 64.0776 83.1272 53.9002C83.1272 43.7227 74.8768 35.4723 64.6994 35.4723C54.5219 35.4723 46.2715 43.7227 46.2715 53.9002C46.2715 64.0776 54.5219 72.328 64.6994 72.328Z" fill="#9E616A"/>
<path d="M48.7949 37.716L70.0128 27.0917C74.3507 29.0464 78.0867 32.1261 80.8332 36.0113C83.5798 39.8965 85.2369 44.4457 85.6327 49.1872L86.1616 55.522L77.2765 53.2603L76.3031 45.1599L74.7943 52.6284L70.6939 51.5851L70.7329 39.0093L66.63 51.5762L51.9852 48.2115L48.7949 37.716Z" fill="#2F2E41"/>
<path d="M200.99 189.361C206.032 189.361 210.119 185.274 210.119 180.232C210.119 175.19 206.032 171.103 200.99 171.103C195.949 171.103 191.861 175.19 191.861 180.232C191.861 185.274 195.949 189.361 200.99 189.361Z" fill="#2F2E41"/>
<path d="M215.596 224.052C228.368 224.052 238.722 213.697 238.722 200.925C238.722 188.152 228.368 177.798 215.596 177.798C202.823 177.798 192.469 188.152 192.469 200.925C192.469 213.697 202.823 224.052 215.596 224.052Z" fill="#2F2E41"/>
<path d="M217.508 224.046C227.887 224.046 236.301 215.632 236.301 205.253C236.301 194.874 227.887 186.46 217.508 186.46C207.129 186.46 198.715 194.874 198.715 205.253C198.715 215.632 207.129 224.046 217.508 224.046Z" fill="#9E616A"/>
<path d="M230.272 186.096C226.978 184.088 223.206 183.002 219.35 182.951C215.493 182.9 211.694 183.886 208.349 185.807C205.004 187.727 202.236 190.51 200.335 193.866C198.435 197.222 197.47 201.027 197.543 204.883C207.119 207.287 217.179 209.127 227.391 205.458L229.803 199.556L231.225 205.462C234.335 206.734 237.453 207.809 240.571 205.45C240.698 201.605 239.814 197.793 238.007 194.397C236.199 191.001 233.532 188.138 230.272 186.096Z" fill="#2F2E41"/>
<path d="M192.489 155.45C186.176 152.556 178.255 153.914 172.999 158.453C167.743 162.991 165.244 170.378 166.259 177.248C167.294 184.257 171.555 190.292 175.482 196.188C179.409 202.085 183.246 208.546 183.242 215.63C183.239 220.733 181.212 225.626 177.607 229.237C174.001 232.847 169.11 234.881 164.008 234.891C169.997 237.469 176.247 240.098 182.76 239.792C189.273 239.486 196.1 235.299 197.162 228.866C197.928 224.231 195.654 219.711 193.757 215.413C190.668 208.409 188.435 201.058 187.106 193.52C186.473 189.922 186.06 186.139 187.233 182.679C188.168 180.115 189.901 177.919 192.178 176.415C194.455 174.911 197.155 174.179 199.879 174.325L202.031 172.389C202.989 165.511 198.801 158.345 192.489 155.45Z" fill="#2F2E41"/>
<path d="M349.761 39.8298C348.873 44.5978 347.418 49.2424 345.426 53.6644C334.02 77.7942 366.503 69.9291 378.111 69.9291C390.803 69.9291 402.946 76.6031 401.092 46.9483C400.299 34.2811 390.803 23.9675 378.111 23.9675C367.27 23.9675 352.028 28.7862 349.761 39.8298Z" fill="#2F2E41"/>
<path d="M376.21 69.9235C386.523 69.9235 394.884 61.5626 394.884 51.249C394.884 40.9353 386.523 32.5745 376.21 32.5745C365.896 32.5745 357.535 40.9353 357.535 51.249C357.535 61.5626 365.896 69.9235 376.21 69.9235Z" fill="#FFB6B6"/>
<path d="M363.528 32.213C366.8 30.2181 370.548 29.1389 374.38 29.0884C378.213 29.0379 381.988 30.0178 385.312 31.9258C388.636 33.8338 391.386 36.5997 393.275 39.9344C395.164 43.269 396.122 47.05 396.05 50.8818C386.534 53.2709 376.537 55.0992 366.39 51.4532L363.993 45.5881L362.58 51.4576C359.49 52.7207 356.392 53.7894 353.293 51.4454C353.167 47.6243 354.045 43.8371 355.841 40.4621C357.637 37.0871 360.288 34.2426 363.528 32.213Z" fill="#2F2E41"/>
<path d="M65.8959 219.707C78.6175 219.707 88.9304 209.394 88.9304 196.673C88.9304 183.951 78.6175 173.638 65.8959 173.638C53.1742 173.638 42.8613 183.951 42.8613 196.673C42.8613 209.394 53.1742 219.707 65.8959 219.707Z" fill="#FFB8B8"/>
<path d="M221.288 378.016C232.122 378.016 240.905 369.233 240.905 358.399C240.905 347.566 232.122 338.783 221.288 338.783C210.454 338.783 201.672 347.566 201.672 358.399C201.672 369.233 210.454 378.016 221.288 378.016Z" fill="#9E616A"/>
<path d="M221.194 71.7173C232.839 71.7173 242.279 62.2774 242.279 50.6326C242.279 38.9878 232.839 29.5479 221.194 29.5479C209.549 29.5479 200.109 38.9878 200.109 50.6326C200.109 62.2774 209.549 71.7173 221.194 71.7173Z" fill="#FFB8B8"/>
<path d="M239.758 36.7037C239.758 36.7037 245.247 26.209 233.17 25.255C233.17 25.255 222.874 15.9149 212.379 23.5475C212.379 23.5475 206.654 23.5475 203.524 30.0253C203.524 30.0253 199.022 28.3178 198.033 32.8875C198.033 32.8875 194.738 42.4281 198.033 51.0147C201.327 59.6013 202.421 60.5554 202.421 60.5554C202.421 60.5554 200.11 49.8999 213.286 48.9458C226.463 47.9918 238.551 39.7372 239.65 50.2318C240.748 60.7265 241.955 55.9857 241.955 55.9857C241.955 55.9857 252.385 40.9971 239.758 36.7037Z" fill="#2F2E41"/>
<path d="M376.703 221.634C388.102 221.634 397.343 212.393 397.343 200.994C397.343 189.594 388.102 180.353 376.703 180.353C365.304 180.353 356.062 189.594 356.062 200.994C356.062 212.393 365.304 221.634 376.703 221.634Z" fill="#FFB6B6"/>
<path d="M92.103 355.837L91.7831 356.414C94.6308 349.396 92.0413 340.747 86.9612 335.456C81.8813 330.164 74.819 327.744 67.865 326.784C62.7028 326.072 57.3444 326.092 52.4358 327.983C45.3276 330.722 39.8968 337.061 35.3625 343.655C33.2885 346.671 31.2493 350.11 31.4559 353.879C31.6477 357.378 33.7243 360.347 35.4249 363.315C37.1256 366.283 38.5458 369.965 37.3252 373.205C36.5979 375.135 35.0607 376.526 33.8135 378.105C32.5662 379.684 31.5402 381.819 32.1427 383.8C32.4102 384.558 32.8697 385.234 33.4765 385.761C34.0832 386.288 34.8164 386.649 35.6044 386.808C37.1122 387.16 38.6764 386.93 40.2035 386.699L79.8411 380.711C82.5345 380.304 85.0896 379.252 87.2885 377.644C89.4873 376.036 91.2647 373.92 92.4692 371.477C93.6736 369.034 94.2694 366.335 94.2056 363.612C94.1419 360.889 93.4205 358.221 92.103 355.837Z" fill="#2F2E41"/>
<path d="M81.7496 364.159C83.4641 353.594 76.2894 343.64 65.7246 341.926C55.1598 340.211 45.2054 347.386 43.491 357.951C41.7765 368.516 48.9512 378.47 59.5161 380.184C70.0809 381.899 80.0352 374.724 81.7496 364.159Z" fill="#FFB9B9"/>
<path d="M114.211 414.001C103.009 426.748 87.243 434.578 70.3177 435.801C53.3923 437.024 36.6648 431.543 23.7461 420.539L29.2922 405.064C30.5455 402.315 32.5234 399.959 35.0137 398.249C37.504 396.539 40.4128 395.539 43.4282 395.357L46.9565 395.14L55.3697 387.884C55.3697 387.884 78.0386 387.075 77.7023 386.687L91.4336 394.946L91.4222 394.889L96.8201 395.22C99.8357 395.402 102.745 396.401 105.235 398.112C107.726 399.822 109.703 402.178 110.956 404.927L114.211 414.001Z" fill="#F9A826"/>
<path d="M270.39 414.001C259.188 426.748 243.423 434.578 226.497 435.801C209.572 437.024 192.844 431.543 179.926 420.539L185.472 405.064C186.725 402.315 188.703 399.959 191.193 398.249C193.684 396.539 196.592 395.539 199.608 395.357L203.136 395.14L211.549 387.884C211.549 387.884 234.218 387.075 233.882 386.687L247.613 394.946L247.602 394.889L253 395.22C256.015 395.402 258.925 396.401 261.415 398.112C263.905 399.822 265.883 402.178 267.136 404.927L270.39 414.001Z" fill="#F9A826"/>
<path d="M81.0016 343.068C80.5013 340.422 77.8022 339.212 75.4895 338.625C68.7817 336.914 61.8038 336.53 54.9489 337.497C49.9518 338.21 44.836 339.781 41.2101 343.682C38.2865 346.966 36.6299 351.185 36.538 355.581C36.3901 358.21 36.9775 360.828 38.2341 363.141C39.539 365.35 41.763 366.952 44.0588 366.895L44.2914 367.704C54.0212 366.348 63.0594 360.294 68.7517 351.32C67.6834 355.135 65.5573 358.569 62.6193 361.227C69.1882 358.598 74.8984 354.198 79.1135 348.515C80.2645 346.987 81.3821 345.082 81.0016 343.068Z" fill="#2F2E41"/>
<path d="M113.64 256.112C102.438 268.858 86.6727 276.688 69.7473 277.911C52.822 279.134 36.0945 273.653 23.1758 262.649L28.7219 247.174C29.9752 244.425 31.9531 242.07 34.4434 240.36C36.9337 238.649 39.8425 237.649 42.8579 237.467L46.3862 237.25L54.7994 229.994C54.7994 229.994 77.4683 229.185 77.132 228.797L90.8633 237.056L90.8519 236.999L96.2498 237.33C99.2654 237.512 102.175 238.512 104.665 240.222C107.155 241.932 109.133 244.288 110.386 247.037L113.64 256.112Z" fill="#F9A826"/>
<path d="M267.398 256.887C256.196 269.634 240.431 277.464 223.505 278.687C206.58 279.91 189.852 274.428 176.934 263.425L182.48 247.95C183.733 245.201 185.711 242.845 188.201 241.135C190.691 239.425 193.6 238.425 196.616 238.242L200.144 238.026L208.557 230.77C208.557 230.77 231.226 229.96 230.89 229.573L244.621 237.832L244.61 237.775L250.008 238.106C253.023 238.288 255.932 239.287 258.423 240.997C260.913 242.708 262.891 245.064 264.144 247.813L267.398 256.887Z" fill="#F9A826"/>
<path d="M426.998 256.887C415.796 269.634 400.03 277.464 383.105 278.687C366.179 279.91 349.452 274.428 336.533 263.425L342.079 247.95C343.333 245.201 345.31 242.845 347.801 241.135C350.291 239.425 353.2 238.425 356.215 238.242L359.744 238.026L368.157 230.77C368.157 230.77 390.826 229.96 390.489 229.573L404.221 237.832L404.209 237.775L409.607 238.106C412.623 238.288 415.532 239.287 418.022 240.997C420.513 242.708 422.491 245.064 423.743 247.813L426.998 256.887Z" fill="#F9A826"/>
<path d="M113.64 107.911C102.438 120.658 86.6727 128.488 69.7473 129.711C52.822 130.934 36.0945 125.453 23.1758 114.449L28.7219 98.9738C29.9752 96.2252 31.9531 93.8695 34.4434 92.1595C36.9337 90.4494 39.8425 89.4494 42.8579 89.2667L46.3862 89.0501L54.7994 81.794C54.7994 81.794 77.4683 80.9846 77.132 80.597L90.8633 88.8563L90.8519 88.7993L96.2498 89.1299C99.2654 89.3118 102.175 90.3115 104.665 92.0217C107.155 93.7318 109.133 96.0879 110.386 98.837L113.64 107.911Z" fill="#F9A826"/>
<path d="M266.828 108.117C255.626 120.864 239.86 128.694 222.935 129.917C206.01 131.14 189.282 125.658 176.363 114.655L181.909 99.1795C183.163 96.4309 185.141 94.0752 187.631 92.3651C190.121 90.6551 193.03 89.6551 196.045 89.4724L199.574 89.2558L207.987 81.9997C207.987 81.9997 230.656 81.1903 230.319 80.8027L244.051 89.062L244.039 89.005L249.437 89.3356C252.453 89.5175 255.362 90.5172 257.852 92.2273C260.343 93.9375 262.321 96.2936 263.573 99.0427L266.828 108.117Z" fill="#F9A826"/>
<path d="M426.43 108.117C415.227 120.864 399.462 128.694 382.536 129.917C365.611 131.14 348.884 125.658 335.965 114.655L341.511 99.1795C342.764 96.4309 344.742 94.0752 347.232 92.3651C349.723 90.6551 352.632 89.6551 355.647 89.4724L359.175 89.2558L367.588 81.9997C367.588 81.9997 390.257 81.1903 389.921 80.8027L403.652 89.062L403.641 89.005L409.039 89.3356C412.054 89.5175 414.964 90.5172 417.454 92.2273C419.944 93.9375 421.922 96.2936 423.175 99.0427L426.43 108.117Z" fill="#F9A826"/>
<path d="M398.472 188.193C396.728 181.95 392.765 176.558 387.328 173.03C382.994 170.258 377.587 168.843 372.678 170.309C367.768 171.775 363.704 176.593 364.025 181.798C362.253 181.195 360.239 181.997 358.941 183.368C357.644 184.739 356.947 186.583 356.447 188.418C354.872 194.254 354.976 200.417 356.748 206.196L356.651 207.026C359.046 206.63 360.863 204.575 361.992 202.385C363.122 200.196 363.772 197.767 364.997 195.631C366.221 193.495 368.254 191.589 370.68 191.523L370.466 195.23C372.553 194.155 374.64 193.08 376.726 192.005C376.23 193.192 375.734 194.38 375.237 195.567C377.06 194.805 378.882 194.044 380.705 193.282C380.501 194.424 380.297 195.565 380.093 196.707C381.901 192.593 387.49 190.786 391.293 193.086C393.501 194.422 394.95 196.803 395.712 199.303C396.474 201.803 396.624 204.447 396.77 207.061C399.586 201.181 400.19 194.482 398.472 188.193Z" fill="#2F2E41"/>
<path d="M203.465 367.469C203.426 367.361 203.391 367.253 203.353 367.145C203.277 367.212 203.205 367.28 203.123 367.343L203.465 367.469Z" fill="#2F2E41"/>
<path d="M244.787 351.421C244.686 349.43 244.165 347.484 243.257 345.71C242.35 343.935 241.076 342.374 239.521 341.127C238.378 340.223 237.055 339.46 236.298 338.214C235.867 337.332 235.501 336.42 235.203 335.484C233.698 331.9 229.406 329.995 225.556 330.538C221.706 331.08 218.375 333.67 216.131 336.845C215.025 336.315 213.79 336.113 212.574 336.263C211.357 336.413 210.208 336.908 209.264 337.691C208.32 338.473 207.62 339.51 207.247 340.678C206.874 341.846 206.843 343.096 207.159 344.281C205.165 342.675 201.941 343.959 200.696 346.197C199.452 348.434 199.649 351.171 200.019 353.705C200.689 358.283 201.806 362.784 203.353 367.145C205.294 365.436 205.175 362.323 204.937 359.691C204.691 356.958 204.839 353.62 207.229 352.271C209.539 350.968 212.342 352.398 214.889 353.139C216.902 353.709 219.016 353.836 221.083 353.51C223.15 353.185 225.122 352.416 226.864 351.255C228.19 350.357 229.371 349.233 230.801 348.512C232.231 347.79 234.051 347.54 235.383 348.43C236.599 349.243 237.093 350.76 237.507 352.163C238.487 355.488 239.468 358.813 240.448 362.138C241.888 360.76 243.019 359.092 243.767 357.245C244.514 355.397 244.862 353.412 244.787 351.421Z" fill="#2F2E41"/>
<path d="M90.198 188.594C90.3596 186.875 90.4337 185.148 90.4199 183.42C90.514 180.004 89.8881 176.607 88.5829 173.448C86.9776 169.951 84.1154 167.186 80.5651 165.703C77.0461 164.283 73.1133 164.287 69.5968 165.712C66.4219 163.706 62.8943 162.116 59.1793 161.919C55.4643 161.722 51.5364 163.1 49.247 166.134C48.7358 166.935 48.1551 167.689 47.5117 168.389C45.6715 170.093 42.8747 169.847 40.4287 169.499C41.5258 170.439 42.6232 171.379 43.7208 172.319C42.3928 172.666 41.0646 173.013 39.7364 173.36C41.2863 174.3 42.836 175.24 44.3856 176.18C39.8865 178.881 37.8415 184.775 38.3817 190.128C38.8927 195.196 41.3396 199.831 44.2646 203.95C45.4315 201.488 45.1801 198.542 45.1608 195.768C45.1501 194.869 45.205 193.97 45.325 193.078C55.2103 195.448 65.5392 196.968 76.014 193.205L78.1161 188.06C78.4111 188.091 78.7062 188.119 79.0011 188.15L80.2189 193.21C82.98 194.338 85.7468 195.325 88.5148 194.288C88.6494 195.07 88.7305 195.867 88.7928 196.634C89.0304 195.717 89.2365 194.793 89.4223 193.866C89.7881 193.669 90.1385 193.446 90.4703 193.196C90.5372 191.657 90.446 190.115 90.198 188.594Z" fill="#2F2E41"/>
</g>
<defs>
<clipPath id="clip0_450_6803">
<rect x="0.644531" y="0.460693" width="442.502" height="435.509" rx="9.5" fill="white"/>
</clipPath>
</defs>
</svg>
