<svg  viewBox="0 0 321 305" fill="none" xmlns="http://www.w3.org/2000/svg">
<rect x="0.0234375" y="0.100006" width="320" height="304.8" rx="8" fill="black" fill-opacity="0.5"/>
<g clip-path="url(#clip0_450_6789)">
<path d="M203.18 304.18C203.18 304.47 203.413 304.704 203.703 304.704H319.683C319.973 304.704 320.206 304.47 320.206 304.18C320.206 303.89 319.973 303.656 319.683 303.656H203.703C203.413 303.656 203.18 303.89 203.18 304.18Z" fill="#3F3D58"/>
<path d="M245.348 157.506L244.006 160.863C244.006 160.863 242.769 165.562 244.217 167.437C245.664 169.311 245.986 183.66 244.432 184.72C242.875 185.78 264.153 174.895 264.153 174.895C264.153 174.895 255.846 155.632 255.705 155.561C255.564 155.491 250.122 153.792 250.122 153.792L245.352 157.502L245.348 157.506Z" fill="#2F2E43"/>
<path d="M259.198 174.098L252.07 176.444V166.183H258.538L259.198 174.098Z" fill="#F6A6A9"/>
<path d="M237.409 232.354C237.022 234.704 235.456 236.389 233.907 236.121C232.358 235.848 231.417 233.723 231.804 231.373C231.945 230.432 232.319 229.543 232.891 228.777L234.659 218.838L239.469 219.845L237.216 229.534C237.511 230.449 237.581 231.417 237.409 232.354Z" fill="#F6A6A9"/>
<path d="M256.523 288.974H249.844V298.447H256.523V288.974Z" fill="#F6A6A9"/>
<path d="M243.34 304.18C242.636 304.18 242.011 304.162 241.541 304.118C239.767 303.956 238.073 302.649 237.224 301.883C236.841 301.54 236.718 300.99 236.921 300.519C237.061 300.18 237.347 299.925 237.704 299.824L242.39 298.486L249.98 293.365L250.063 293.514C250.094 293.572 250.842 294.914 251.089 295.82C251.185 296.163 251.159 296.454 251.014 296.674C250.913 296.828 250.776 296.916 250.662 296.968C250.798 297.114 251.229 297.404 252.554 297.615C254.49 297.923 254.895 295.917 254.912 295.833L254.925 295.767L254.983 295.732C255.902 295.138 256.47 294.87 256.668 294.927C256.791 294.962 256.993 295.024 257.543 300.488C257.601 300.66 257.983 301.918 257.724 303.12C257.438 304.426 251.727 303.978 250.583 303.872C250.552 303.872 246.271 304.18 243.34 304.18Z" fill="#2F2E43"/>
<path d="M275.531 281.526L269.863 285.061L274.876 293.099L280.544 289.564L275.531 281.526Z" fill="#F6A6A9"/>
<path d="M268.008 302.882C267.224 302.882 266.503 302.79 265.992 302.697C265.486 302.609 265.095 302.209 265.011 301.703C264.954 301.338 265.06 300.972 265.306 300.7L268.575 297.083L272.306 288.723L272.46 288.806C272.518 288.837 273.86 289.581 274.55 290.219C274.814 290.461 274.946 290.72 274.938 290.984C274.938 291.169 274.863 291.319 274.797 291.42C274.99 291.468 275.51 291.49 276.746 290.967C278.55 290.206 277.837 288.287 277.802 288.204L277.776 288.142L277.806 288.08C278.273 287.09 278.612 286.558 278.81 286.505C278.933 286.47 279.14 286.417 282.497 290.76C282.633 290.874 283.628 291.737 284.041 292.898C284.49 294.161 279.404 296.801 278.383 297.316C278.352 297.342 273.028 301.21 270.846 302.31C269.979 302.746 268.954 302.882 268.016 302.882H268.008Z" fill="#2F2E43"/>
<path d="M261.438 209.76H242.747L241.049 227.149L248.472 291.398H258.015L254.2 254.288L269.68 287.79L278.163 281.854L266.076 250.579C266.076 250.579 270.392 223.33 267 216.545C263.608 209.76 261.443 209.76 261.443 209.76H261.438Z" fill="#2F2E43"/>
<path d="M270.735 210.821H238.289L249.953 172.44H262.889L270.735 210.821Z" fill="#E6E6E6"/>
<path d="M251.996 172.444C251.996 172.444 243.94 172.233 243.091 174.354C242.241 176.474 232.275 226.942 232.275 226.942H238.849L251.996 172.444Z" fill="#E6E6E6"/>
<path d="M252.955 169.021C256.877 169.021 260.057 165.841 260.057 161.919C260.057 157.997 256.877 154.818 252.955 154.818C249.033 154.818 245.854 157.997 245.854 161.919C245.854 165.841 249.033 169.021 252.955 169.021Z" fill="#F6A6A9"/>
<path d="M254.331 150.884C254.331 150.884 262.885 148.693 265.499 160.071C265.499 160.071 265.569 163.041 267.052 164.242C268.535 165.444 268.042 171.665 268.042 171.665C268.042 171.665 270.871 176.329 268.464 178.45C268.464 178.45 267.404 182.762 268.957 185.235C270.51 187.708 276.38 201.317 266.625 202.144C266.625 202.144 261.679 199.156 264.011 190.251C266.343 181.345 263.73 176.426 263.73 176.426C263.73 176.426 256.237 173.711 256.663 167.912C257.086 162.117 251.859 156.393 251.502 156.463C251.146 156.534 247.472 154.413 245.848 160.916L244.106 160.621C244.106 160.621 243.375 149.678 254.331 150.88V150.884Z" fill="#2F2E43"/>
<path d="M276.271 231.21C276.746 233.547 275.879 235.676 274.335 235.976C272.791 236.27 271.158 234.62 270.683 232.284C270.48 231.356 270.511 230.388 270.775 229.472L268.896 219.555L273.75 218.789L275.083 228.65C275.686 229.402 276.09 230.282 276.266 231.219L276.271 231.21Z" fill="#F6A6A9"/>
<path d="M257.236 172.488C257.236 172.488 264.334 171.59 265.183 173.711C266.032 175.832 275.998 226.3 275.998 226.3H269.424L257.241 172.492L257.236 172.488Z" fill="#E6E6E6"/>
<path d="M47.4954 97.3052H12.9114C8.45422 97.3052 4.82422 93.6796 4.82422 89.218V54.634C4.82422 50.1768 8.44982 46.5468 12.9114 46.5468H47.4954C51.9526 46.5468 55.5826 50.1724 55.5826 54.634V89.218C55.5826 93.6752 51.957 97.3052 47.4954 97.3052ZM12.9114 47.4312C8.93822 47.4312 5.70422 50.6652 5.70422 54.6384V89.2224C5.70422 93.1956 8.93822 96.4296 12.9114 96.4296H47.4954C51.4686 96.4296 54.7026 93.1956 54.7026 89.2224V54.6384C54.7026 50.6652 51.4686 47.4312 47.4954 47.4312H12.9114Z" fill="#CCCCCC"/>
<path d="M122.593 97.3052H88.0091C83.5519 97.3052 79.9219 93.6796 79.9219 89.218V54.634C79.9219 50.1768 83.5475 46.5468 88.0091 46.5468H122.593C127.05 46.5468 130.68 50.1724 130.68 54.634V89.218C130.68 93.6752 127.055 97.3052 122.593 97.3052ZM88.0091 47.4268C84.0359 47.4268 80.8019 50.6608 80.8019 54.634V89.218C80.8019 93.1912 84.0359 96.4252 88.0091 96.4252H122.593C126.566 96.4252 129.8 93.1912 129.8 89.218V54.634C129.8 50.6608 126.566 47.4268 122.593 47.4268H88.0091Z" fill="#CCCCCC"/>
<path d="M122.593 191.496H88.0091C83.5519 191.496 79.9219 187.87 79.9219 183.409V148.825C79.9219 144.368 83.5475 140.738 88.0091 140.738H122.593C127.05 140.738 130.68 144.363 130.68 148.825V183.409C130.68 187.866 127.055 191.496 122.593 191.496ZM88.0091 141.618C84.0359 141.618 80.8019 144.852 80.8019 148.825V183.409C80.8019 187.382 84.0359 190.616 88.0091 190.616H122.593C126.566 190.616 129.8 187.382 129.8 183.409V148.825C129.8 144.852 126.566 141.618 122.593 141.618H88.0091Z" fill="#CCCCCC"/>
<path d="M47.4954 191.496H12.9114C8.45422 191.496 4.82422 187.87 4.82422 183.409V148.825C4.82422 144.368 8.44982 140.738 12.9114 140.738H47.4954C51.9526 140.738 55.5826 144.363 55.5826 148.825V183.409C55.5826 187.866 51.957 191.496 47.4954 191.496ZM12.9114 141.618C8.93822 141.618 5.70422 144.852 5.70422 148.825V183.409C5.70422 187.382 8.93822 190.616 12.9114 190.616H47.4954C51.4686 190.616 54.7026 187.382 54.7026 183.409V148.825C54.7026 144.852 51.4686 141.618 47.4954 141.618H12.9114Z" fill="#CCCCCC"/>
<path d="M53.6763 153.247C59.3408 153.247 63.9327 148.655 63.9327 142.99C63.9327 137.326 59.3408 132.734 53.6763 132.734C48.0119 132.734 43.4199 137.326 43.4199 142.99C43.4199 148.655 48.0119 153.247 53.6763 153.247Z" fill="#F9A826"/>
<path d="M197.693 97.3052H163.109C158.651 97.3052 155.021 93.6796 155.021 89.218V54.634C155.021 50.1768 158.647 46.5468 163.109 46.5468H197.693C202.15 46.5468 205.78 50.1724 205.78 54.634V89.218C205.78 93.6752 202.154 97.3052 197.693 97.3052ZM163.109 47.4268C159.135 47.4268 155.901 50.6608 155.901 54.634V89.218C155.901 93.1912 159.135 96.4252 163.109 96.4252H197.693C201.666 96.4252 204.9 93.1912 204.9 89.218V54.634C204.9 50.6608 201.666 47.4268 197.693 47.4268H163.109Z" fill="#CCCCCC"/>
<path d="M205.338 59.0604C211.003 59.0604 215.595 54.4685 215.595 48.804C215.595 43.1396 211.003 38.5476 205.338 38.5476C199.674 38.5476 195.082 43.1396 195.082 48.804C195.082 54.4685 199.674 59.0604 205.338 59.0604Z" fill="#F9A826"/>
<path d="M39.2353 107.865H18.6037C16.9889 107.865 15.6777 106.554 15.6777 104.939C15.6777 103.324 16.9889 102.013 18.6037 102.013H39.2353C40.8501 102.013 42.1613 103.324 42.1613 104.939C42.1613 106.554 40.8501 107.865 39.2353 107.865Z" fill="#E6E6E6"/>
<path d="M115.616 107.865H94.9846C93.3698 107.865 92.0586 106.554 92.0586 104.939C92.0586 103.324 93.3698 102.013 94.9846 102.013H115.616C117.231 102.013 118.542 103.324 118.542 104.939C118.542 106.554 117.231 107.865 115.616 107.865Z" fill="#E6E6E6"/>
<path d="M191.999 107.865H171.367C169.753 107.865 168.441 106.554 168.441 104.939C168.441 103.324 169.753 102.013 171.367 102.013H191.999C193.614 102.013 194.925 103.324 194.925 104.939C194.925 106.554 193.614 107.865 191.999 107.865Z" fill="#E6E6E6"/>
<path d="M197.693 192.376H163.109C158.651 192.376 155.021 188.75 155.021 184.289V149.705C155.021 145.248 158.647 141.618 163.109 141.618H197.693C202.15 141.618 205.78 145.243 205.78 149.705V184.289C205.78 188.746 202.154 192.376 197.693 192.376ZM163.109 142.498C159.135 142.498 155.901 145.732 155.901 149.705V184.289C155.901 188.262 159.135 191.496 163.109 191.496H197.693C201.666 191.496 204.9 188.262 204.9 184.289V149.705C204.9 145.732 201.666 142.498 197.693 142.498H163.109Z" fill="#CCCCCC"/>
<path d="M191.999 202.932H171.367C169.753 202.932 168.441 201.62 168.441 200.006C168.441 198.391 169.753 197.08 171.367 197.08H191.999C193.614 197.08 194.925 198.391 194.925 200.006C194.925 201.62 193.614 202.932 191.999 202.932Z" fill="#E6E6E6"/>
<path d="M272.796 97.3052H238.212C233.755 97.3052 230.125 93.6796 230.125 89.218V54.634C230.125 50.1768 233.751 46.5468 238.212 46.5468H272.796C277.253 46.5468 280.883 50.1724 280.883 54.634V89.218C280.883 93.6752 277.258 97.3052 272.796 97.3052ZM238.212 47.4268C234.239 47.4268 231.005 50.6608 231.005 54.634V89.218C231.005 93.1912 234.239 96.4252 238.212 96.4252H272.796C276.769 96.4252 280.003 93.1912 280.003 89.218V54.634C280.003 50.6608 276.769 47.4268 272.796 47.4268H238.212Z" fill="#CCCCCC"/>
<path d="M267.099 107.865H246.467C244.852 107.865 243.541 106.554 243.541 104.939C243.541 103.324 244.852 102.013 246.467 102.013H267.099C268.713 102.013 270.025 103.324 270.025 104.939C270.025 106.554 268.713 107.865 267.099 107.865Z" fill="#E6E6E6"/>
<path d="M39.2353 202.052H18.6037C16.9889 202.052 15.6777 200.74 15.6777 199.126C15.6777 197.511 16.9889 196.2 18.6037 196.2H39.2353C40.8501 196.2 42.1613 197.511 42.1613 199.126C42.1613 200.74 40.8501 202.052 39.2353 202.052Z" fill="#E6E6E6"/>
<path d="M115.616 202.052H94.9846C93.3698 202.052 92.0586 200.74 92.0586 199.126C92.0586 197.511 93.3698 196.2 94.9846 196.2H115.616C117.231 196.2 118.542 197.511 118.542 199.126C118.542 200.74 117.231 202.052 115.616 202.052Z" fill="#E6E6E6"/>
<path d="M135.827 232.742C137.217 232.742 138.344 231.615 138.344 230.225C138.344 228.835 137.217 227.708 135.827 227.708C134.437 227.708 133.311 228.835 133.311 230.225C133.311 231.615 134.437 232.742 135.827 232.742Z" fill="#F9A826"/>
<path d="M143.29 232.742C144.68 232.742 145.807 231.615 145.807 230.225C145.807 228.835 144.68 227.708 143.29 227.708C141.9 227.708 140.773 228.835 140.773 230.225C140.773 231.615 141.9 232.742 143.29 232.742Z" fill="#E6E6E6"/>
<path d="M150.751 232.742C152.141 232.742 153.268 231.615 153.268 230.225C153.268 228.835 152.141 227.708 150.751 227.708C149.361 227.708 148.234 228.835 148.234 230.225C148.234 231.615 149.361 232.742 150.751 232.742Z" fill="#E6E6E6"/>
<path d="M177.857 16.5036H108.715C105.296 16.5036 102.516 13.7228 102.516 10.304C102.516 6.88521 105.296 4.10441 108.715 4.10441H177.857C181.276 4.10441 184.056 6.88521 184.056 10.304C184.056 13.7228 181.276 16.5036 177.857 16.5036ZM108.72 4.98001C105.785 4.98001 103.4 7.36921 103.4 10.2996C103.4 13.23 105.789 15.6192 108.72 15.6192H177.861C180.796 15.6192 183.181 13.23 183.181 10.2996C183.181 7.36921 180.792 4.98001 177.861 4.98001H108.72Z" fill="#CCCCCC"/>
<path d="M128.513 11.9232C127.123 11.9232 125.992 10.7924 125.992 9.40198C125.992 8.01158 127.123 6.88078 128.513 6.88078C129.904 6.88078 131.035 8.01158 131.035 9.40198C131.035 10.7924 129.904 11.9232 128.513 11.9232ZM128.513 7.56718C127.501 7.56718 126.679 8.38998 126.679 9.40198C126.679 10.414 127.501 11.2368 128.513 11.2368C129.525 11.2368 130.348 10.414 130.348 9.40198C130.348 8.38998 129.525 7.56718 128.513 7.56718Z" fill="#484662"/>
<path d="M133.265 13.9868C133.186 13.9868 133.107 13.9604 133.041 13.9032L129.855 11.1708C129.71 11.0476 129.697 10.832 129.82 10.6868C129.943 10.5416 130.159 10.5284 130.304 10.6516L133.49 13.384C133.635 13.5072 133.648 13.7228 133.525 13.868C133.459 13.9472 133.362 13.9868 133.265 13.9868Z" fill="#484662"/>
</g>
<defs>
<clipPath id="clip0_450_6789">
<rect x="4.82422" y="4.1" width="315.388" height="300.604" rx="8" fill="white"/>
</clipPath>
</defs>
</svg>
