<svg  viewBox="0 0 477 244" fill="none" xmlns="http://www.w3.org/2000/svg">
<rect width="477" height="244" fill="#1E1E1E"/>
<rect width="1440" height="2984" transform="translate(-188 -1277)" fill="white"/>
<g clip-path="url(#clip0_0_1)">
<rect width="476.746" height="243.687" rx="10" fill="black" fill-opacity="0.2"/>
<path d="M455.582 134.724L454.089 146.616L450.382 176.153H375.922C376.503 169.533 377.298 160.004 378.147 149.717C378.231 148.69 378.319 147.656 378.403 146.616C380.532 120.758 382.862 91.4967 382.862 91.4967L392.651 93.3204L411.644 96.852L419.383 98.2903L440.108 102.149C450.441 104.069 457.549 119.031 455.582 134.724Z" fill="#F2F2F2"/>
<path d="M399.262 43.6467L408.419 59.6704L390.82 72.1428L383.312 52.4467L399.262 43.6467Z" fill="#FFB6B6"/>
<path d="M387.606 58.8057C400.134 58.8057 410.29 48.6496 410.29 36.1215C410.29 23.5933 400.134 13.4373 387.606 13.4373C375.078 13.4373 364.922 23.5933 364.922 36.1215C364.922 48.6496 375.078 58.8057 387.606 58.8057Z" fill="#FFB6B6"/>
<path d="M385.974 41.1927C384.173 38.4514 384.88 37.0176 383.372 36.0102C383.372 36.0102 382.765 35.6048 378.422 35.3737C377.45 28.3755 376.236 27.5269 376.236 27.5268C374.837 26.5487 372.761 26.8665 371.469 27.4648C368.738 28.73 369.054 31.463 367.215 31.986C364.675 32.7084 360.052 28.6356 359.597 23.9731C359.225 20.1697 361.676 16.4758 362.647 16.6712C363.611 16.8649 365.918 13.9195 367.164 13.965C368.015 13.996 371.491 12.4852 372.426 12.6033C373.447 12.7323 376.814 14.4894 376.954 14.0879C377.929 11.2983 377.643 10.5243 378.47 9.72628C379.936 8.31215 382.334 9.29691 386.096 9.82559C393.837 10.9134 395.188 8.36096 399.155 10.091C401.159 10.9649 402.836 13.3218 406.108 17.9999C410.683 24.5421 412.971 27.8132 412.986 31.6285C413.001 35.5195 411.117 35.2725 410.289 41.0327C409.368 47.4447 411.325 50.3767 409.187 52.4598C407.534 54.0698 404.175 54.452 402.41 53.039C399.388 50.6198 403.343 44.7822 399.998 40.5173C397.946 37.8993 393.818 36.7344 391.926 38.0285C389.788 39.4917 390.966 43.7866 389.463 44.1939C388.175 44.5427 386.288 41.6704 385.974 41.1927Z" fill="#2F2E41"/>
<path d="M438.817 130.536C438.184 141.354 435.671 144.77 434.791 157.546C434.599 160.351 434.483 163.607 434.483 167.49C434.483 168.48 434.489 169.437 434.489 170.372C434.489 172.363 434.45 174.244 434.219 176.153C434.043 177.676 433.741 179.211 433.24 180.828H384.384C384.378 180.817 384.378 180.806 384.372 180.795C384.087 179.552 383.905 178.364 383.768 177.225C383.724 176.862 383.685 176.505 383.652 176.153C383.608 175.74 383.569 175.333 383.531 174.932C383.383 173.331 383.234 171.819 382.882 170.372C382.409 168.376 381.551 166.495 379.791 164.68C379.071 163.937 378.35 163.36 377.646 162.854C377.509 162.76 377.377 162.667 377.239 162.573C375.292 161.237 373.45 160.274 371.855 157.546C371.827 157.508 371.805 157.464 371.783 157.425C371.508 156.947 370.793 155.693 370.276 154.021C369.731 152.283 369.402 150.099 369.996 147.866C371.409 142.575 376.645 142.047 380.924 136.701C381.386 136.124 381.843 135.486 382.277 134.776C384.213 131.63 384.736 128.858 385.352 125.564C385.45 125.03 385.538 124.502 385.61 123.991C385.665 123.606 385.715 123.226 385.753 122.852C386.094 119.712 385.929 117.006 385.528 114.586C384.219 106.66 380.358 101.754 383.086 94.6426C383.944 92.4099 385.159 90.7322 386.386 89.2968C388.981 86.2551 391.649 84.2807 391.187 80.3539C390.719 76.3938 387.716 75.8492 387.381 72.3897C387.211 70.6408 387.783 68.7983 388.855 66.9888V66.9834C392.287 61.1587 400.856 55.7962 406.301 55.9667C407.308 55.9944 408.199 56.2197 408.941 56.6542C411.631 58.2382 410.509 61.6977 414.628 66.5489C417.691 70.1512 421.156 71.5923 422.471 72.2742C427.68 74.9914 431.915 83.0048 434.791 93.2513C434.813 93.3283 434.835 93.4051 434.857 93.4879C436.634 99.9063 437.888 107.194 438.509 114.586C438.773 117.715 438.927 120.861 438.96 123.974C438.988 126.46 438.933 128.616 438.817 130.536Z" fill="#F9A826"/>
<path d="M402.232 167.6L401.237 170.372L400.61 172.11L399.157 176.153L397.475 180.828H386.656L388.471 176.153L389.313 173.975L390.71 170.372L393.053 164.322L402.232 167.6Z" fill="#FFB6B6"/>
<path d="M434.963 92.305C434.935 92.6627 434.897 93.0586 434.858 93.4877C434.429 97.8547 433.417 105.67 431.938 114.586C431.157 119.288 430.244 124.299 429.215 129.276C427.004 140.017 424.254 150.594 421.147 157.546C420.591 158.8 420.019 159.933 419.436 160.934C418.991 161.699 418.523 162.452 418.034 163.195C416.45 165.631 414.673 167.941 412.831 170.097C412.759 170.191 412.677 170.279 412.594 170.372C412.297 170.724 411.989 171.071 411.681 171.417C410.174 173.117 408.634 174.701 407.144 176.153C405.329 177.924 403.579 179.491 402.012 180.828H384.445L384.374 180.795L381.844 179.673C381.844 179.673 382.564 178.826 383.769 177.225C384.016 176.901 384.28 176.543 384.566 176.153C384.918 175.674 385.298 175.146 385.704 174.574C386.552 173.375 387.514 171.967 388.548 170.372C390.55 167.287 392.832 163.492 395.137 159.097C395.401 158.586 395.671 158.069 395.94 157.546C395.946 157.53 395.957 157.513 395.962 157.497C396.419 156.606 396.87 155.687 397.321 154.752C401.143 146.799 402.238 140.199 402.551 138.06C402.991 135.035 403.602 130.805 403.437 126.152C403.327 123.083 402.881 119.838 401.82 116.615V116.61C401.6 115.933 401.352 115.257 401.072 114.586C400.571 113.381 399.977 112.193 399.273 111.022C396.166 105.863 393.641 105.648 391.634 100.027C391.04 98.3606 389.692 94.5987 390.104 90.6276V90.6222C390.154 90.1326 390.237 89.6377 390.347 89.1425V89.1371C390.374 88.9996 390.413 88.8567 390.451 88.7192C390.765 87.5038 391.282 86.299 392.068 85.155C393.603 82.9332 395.698 81.613 397.574 80.8267L397.579 80.821C399.746 79.9192 401.616 79.7267 401.979 79.6937C410.015 78.9788 416.246 85.7326 419.651 89.4231C420.965 90.8475 422.17 92.0413 423.27 93.0145C431.833 100.66 434.182 95.7755 434.792 93.2511C434.885 92.8606 434.935 92.5252 434.963 92.305Z" fill="#F9A826"/>
<path d="M434.988 92.0193C434.988 92.0467 434.983 92.1401 434.961 92.2943C434.972 92.2116 434.978 92.1291 434.983 92.0521C434.983 92.0357 434.983 92.0247 434.988 92.0193Z" fill="#F9A826"/>
<path d="M391.307 208.075H96.4798C93.7406 208.075 91.5078 210.302 91.5078 213.041C91.5078 215.786 93.7406 218.013 96.4798 218.013H391.307C394.046 218.013 396.274 215.786 396.274 213.041C396.274 210.302 394.046 208.075 391.307 208.075Z" fill="#E6E6E6"/>
<path d="M325.881 233.749H161.904C159.165 233.749 156.938 235.976 156.938 238.715C156.938 241.454 159.165 243.687 161.904 243.687H325.881C328.62 243.687 330.853 241.454 330.853 238.715C330.853 235.976 328.62 233.749 325.881 233.749Z" fill="#E6E6E6"/>
<path d="M129.289 44.7011L147.87 36.8813L155.84 53.2193L136.314 61.1891L129.289 44.7011Z" fill="#FFB6B6"/>
<path opacity="0.1" d="M129.289 44.7011L147.87 36.8813L155.84 53.2193L136.314 61.1891L129.289 44.7011Z" fill="black"/>
<path d="M131.931 38.4753L150.262 59.5952C150.262 59.5952 137.51 99.8424 124.758 103.429C112.007 107.015 88.4959 124.549 88.4959 124.549L59.0078 105.421L73.3534 84.3014C73.3534 84.3014 108.022 36.8813 117.187 36.8813C126.352 36.8813 131.931 38.4753 131.931 38.4753Z" fill="#F9A826"/>
<path d="M107.163 176.153H64.493L61.7953 172.547L50.7811 157.822L48.2467 154.435C48.2467 154.435 38.683 136.902 40.6754 120.962C42.6679 105.023 63.3892 101.436 63.3892 101.436H64.242L89.6097 123.728L88.0955 144.473L96.129 157.822L107.163 176.153Z" fill="#2F2E41"/>
<path d="M73.2296 176.153H61.793V159.217L73.2296 176.153Z" fill="#2F2E41"/>
<path d="M319.903 150.442L318.481 157.822L314.95 176.153H244.023C244.577 172.044 245.334 166.131 246.143 159.747C246.223 159.11 246.307 158.468 246.386 157.822C248.415 141.775 250.634 123.616 250.634 123.616L259.959 124.748L278.05 126.94L285.422 127.832L305.163 130.227C315.006 131.419 321.776 140.703 319.903 150.442Z" fill="#F2F2F2"/>
<path d="M420.279 176.153H381.809C382.394 175.464 382.725 175.065 382.725 175.065L394.257 173.16L418.019 169.239C418.019 169.239 419.103 172.041 420.279 176.153Z" fill="#2F2E41"/>
<path d="M257.101 52.6714L273.831 76.3313L244.648 77.2028L241.516 54.968L257.101 52.6714Z" fill="#A0616A"/>
<path opacity="0.1" d="M257.101 52.6714L273.831 76.3313L244.648 77.2028L241.516 54.968L257.101 52.6714Z" fill="black"/>
<path d="M174.593 101.693C172.447 95.5006 167.512 91.5886 163.571 92.9554C159.63 94.3222 158.177 100.449 160.325 106.644C161.149 109.13 162.557 111.383 164.43 113.213L173.857 139.336L186.021 134.651L175.437 109.396C175.775 106.798 175.486 104.157 174.593 101.693Z" fill="#A0616A"/>
<path d="M287.841 89.6372L287.818 113.75L285.575 122.656L280.96 140.974L277.601 157.822L275.098 170.375L274.206 174.858C273.532 175.308 272.863 175.738 272.193 176.153H213.907C210.595 174.164 208.742 172.618 208.742 172.618C208.742 172.618 209.659 171.758 210.707 170.375C212.476 168.04 214.616 164.214 213.305 160.56C213.03 159.795 212.958 158.862 213.042 157.822C213.576 150.96 220.773 139.356 220.773 139.356L219.282 122.134L218.629 114.587L223.236 77.786L238.255 69.0551L240.848 68.8042L266.443 67.4215L277.022 68.0312L277.504 68.1627L287.841 89.6372Z" fill="#CCCCCC"/>
<path d="M288.974 176.153H276.222L275.66 170.375L275.648 170.259L279.259 170.012L288.651 169.371L288.814 172.829L288.942 175.483L288.974 176.153Z" fill="#FFB6B6"/>
<path d="M292.114 95.4671L297.471 126.896L293.1 157.822L292.418 162.636L291.215 171.136L290.844 173.75L290.856 174.033L290.948 176.153H275.805L275.247 170.375L275.2 169.857L274.06 158.022L274.04 157.822L271.621 132.726L276.363 114.586L276.714 113.252V113.248L278.777 82.1894L277.179 68.075L277.163 67.9435C277.195 67.9634 277.223 67.9834 277.255 68.0033C277.338 68.0551 277.422 68.1069 277.502 68.1627C286.81 74.0683 292.357 84.429 292.114 95.4671Z" fill="#CCCCCC"/>
<path d="M228.662 83.8084L222.839 77.7855C222.839 77.7855 210.373 83.4052 209.752 86.5229C209.131 89.6407 187.122 135.432 187.122 135.432L177.546 109.858L165.082 118.179C165.082 118.179 175.083 157.885 184.436 159.749C193.79 161.613 225.137 112.754 225.137 112.754L228.662 83.8084Z" fill="#CCCCCC"/>
<path d="M465.102 157.546H11.6381C5.21963 157.546 0 162.771 0 169.19C0 175.608 5.21963 180.828 11.6381 180.828H465.102C471.52 180.828 476.745 175.608 476.745 169.19C476.745 162.771 471.52 157.546 465.102 157.546Z" fill="#E6E6E6"/>
<path d="M285.188 122.067L284.307 163.208C284.221 167.191 280.968 170.375 276.985 170.375H201.303C197.414 170.375 194.203 167.335 193.991 163.451L191.742 122.31C191.512 118.114 194.852 114.587 199.054 114.587H277.866C281.972 114.587 285.276 117.962 285.188 122.067Z" fill="#3F3D56"/>
<path d="M163.009 54.6322C173.01 54.6322 181.116 46.5254 181.116 36.5252C181.116 26.525 173.01 18.4182 163.009 18.4182C153.009 18.4182 144.902 26.525 144.902 36.5252C144.902 46.5254 153.009 54.6322 163.009 54.6322Z" fill="#FFB6B6"/>
<path d="M132.726 83.903L134.718 105.421L148.267 160.014L136.562 164.117L116.786 104.624L114.055 80.7151L132.726 83.903Z" fill="#FFB6B6"/>
<path d="M127.337 122.067L126.455 163.208C126.37 167.191 123.117 170.375 119.133 170.375H43.4517C39.5624 170.375 36.3515 167.335 36.1392 163.451L33.8901 122.31C33.6607 118.114 37.0009 114.587 41.2026 114.587H120.015C124.121 114.587 127.424 117.962 127.337 122.067Z" fill="#3F3D56"/>
<path d="M150.425 170.653C158.323 170.653 164.725 167.821 164.725 164.328C164.725 160.835 158.323 158.003 150.425 158.003C142.527 158.003 136.125 160.835 136.125 164.328C136.125 167.821 142.527 170.653 150.425 170.653Z" fill="#FFB6B6"/>
<path d="M104.633 87.1928L112.802 43.6557C112.802 43.6557 135.516 40.4678 136.313 48.0391C137.11 55.6103 135.743 92.6122 135.743 92.6122L104.633 87.1928Z" fill="#F9A826"/>
<path d="M155.702 39.3723C155.702 39.3723 166.903 35.3747 171.628 33.2238C176.353 31.0729 185.739 46.0753 185.948 38.152C186.157 30.2287 182.913 26.906 182.913 26.906C182.913 26.906 182.104 9.57276 164.641 11.7398C164.641 11.7398 168.482 3.06779 155.873 1.72682C143.265 0.38585 123.649 30.8334 125.406 35.3836C127.163 39.9338 129.268 43.6956 124.284 48.5608C119.3 53.426 109.968 80.8839 117.068 88.2726C124.169 95.6613 124.635 98.8675 119.77 103.464C114.905 108.061 103.405 118.056 115.839 119.791C128.273 121.526 114.701 120.23 123.971 112.077C133.241 103.923 146.767 104.256 141.717 91.1741C136.666 78.0922 145.441 59.346 144.343 56.5021C143.245 53.6583 146.803 35.5994 146.803 35.5994C146.803 35.5994 155.083 34.3829 155.702 39.3723Z" fill="#2F2E41"/>
<path d="M248.156 61.2351C259.042 61.2351 267.867 52.4103 267.867 41.5244C267.867 30.6384 259.042 21.8136 248.156 21.8136C237.27 21.8136 228.445 30.6384 228.445 41.5244C228.445 52.4103 237.27 61.2351 248.156 61.2351Z" fill="#A0616A"/>
<path d="M249.728 15.0246C249.158 15.3575 248.394 14.8538 248.211 14.2192C248.028 13.5846 248.241 12.9109 248.453 12.2851L249.516 9.13521C250.27 6.9012 251.071 4.58913 252.704 2.88876C255.17 0.322329 259.088 -0.330559 262.616 0.142435C267.145 0.749855 271.615 3.20266 273.721 7.2587C275.827 11.3147 274.93 16.9744 271.125 19.5049C276.549 25.7218 278.439 32.6502 278.141 40.8953C277.842 49.1403 268.857 56.7284 262.998 62.5367C261.689 61.7435 260.5 58.0262 261.219 56.6758C261.939 55.3253 260.908 53.7608 261.799 52.517C262.69 51.2731 263.436 53.2537 262.535 52.0169C261.966 51.2364 264.185 49.4409 263.34 48.9738C259.253 46.7145 257.893 41.6197 255.326 37.7183C252.23 33.0124 246.93 29.8256 241.322 29.2969C238.232 29.0056 234.969 29.5331 232.437 31.3267C229.905 33.1203 228.265 36.3254 228.852 39.3725C227.332 37.8283 226.575 35.5653 226.86 33.4169C227.146 31.2685 228.468 29.2818 230.339 28.1885C229.201 24.4257 230.176 20.0974 232.817 17.1856C235.458 14.2739 246.171 14.7698 250.027 15.5361L249.728 15.0246Z" fill="#2F2E41"/>
<path d="M250.328 29.4111C255.435 29.9624 259.122 34.3859 262.235 38.471C264.03 40.8256 265.91 43.4258 265.865 46.3859C265.819 49.3787 263.818 51.9457 262.862 54.7819C261.299 59.4178 262.822 64.9335 266.543 68.11C262.866 68.8077 258.892 66.0509 258.257 62.3629C257.518 58.0696 260.773 53.9259 260.387 49.5865C260.048 45.7635 257.035 42.8213 254.474 39.9628C251.913 37.1043 249.507 33.3112 250.686 29.6585L250.328 29.4111Z" fill="#2F2E41"/>
<path d="M326.669 160.038C321.611 162.915 318.995 167.857 320.827 171.075C322.658 174.294 328.243 174.57 333.302 171.692C335.339 170.57 337.078 168.976 338.372 167.044L359.65 154.583L353.59 144.723L333.257 158.054C330.934 158.179 328.675 158.86 326.669 160.038Z" fill="#FFB6B6"/>
<path d="M398.713 68.6625C398.077 68.4105 392.497 66.2976 387.404 69.0872C381.553 72.2917 380.649 79.6067 380.332 82.1724C379.6 88.0992 381.757 89.4277 382.212 95.4278C383.064 106.653 385.311 93.8472 381.723 98.9712C380.481 100.745 367.799 128.23 360.804 133.614C347.201 144.084 338.562 151.458 338.562 151.458L348.424 162.171C348.424 162.171 364.008 158.018 377.781 149.075C391.91 139.901 398.974 135.314 404.439 126.341C404.91 125.568 416.171 106.444 410.123 85.2973C408.744 80.4738 406.216 71.6361 398.713 68.6625Z" fill="#F9A826"/>
<path d="M449.637 122.067L448.756 163.208C448.67 167.191 445.417 170.375 441.434 170.375H365.752C361.863 170.375 358.652 167.335 358.44 163.451L356.191 122.31C355.961 118.114 359.302 114.587 363.503 114.587H442.316C446.422 114.587 449.725 117.962 449.637 122.067Z" fill="#3F3D56"/>
</g>
<defs>
<clipPath id="clip0_0_1">
<rect width="476.746" height="243.687" rx="10" fill="white"/>
</clipPath>
</defs>
</svg>
