<svg viewBox="0 0 1565 1169" fill="none" xmlns="http://www.w3.org/2000/svg">
<g opacity="0.3" clip-path="url(#clip0_201_2335)">
<path d="M391.592 797.515C408.638 797.515 422.457 780.563 422.457 759.653C422.457 738.743 408.638 721.791 391.592 721.791C374.546 721.791 360.727 738.743 360.727 759.653C360.727 780.563 374.546 797.515 391.592 797.515Z" fill="#A7233A" fill-opacity="0.3"/>
<path d="M700.242 867.63C709.081 867.63 716.246 858.84 716.246 847.998C716.246 837.155 709.081 828.366 700.242 828.366C691.403 828.366 684.238 837.155 684.238 847.998C684.238 858.84 691.403 867.63 700.242 867.63Z" fill="#A7233A" fill-opacity="0.3"/>
<path d="M614.506 835.377C623.976 835.377 631.653 825.96 631.653 814.343C631.653 802.726 623.976 793.309 614.506 793.309C605.036 793.309 597.359 802.726 597.359 814.343C597.359 825.96 605.036 835.377 614.506 835.377Z" fill="#A7233A" fill-opacity="0.3"/>
<path d="M868.285 794.71C883.437 794.71 895.72 779.643 895.72 761.056C895.72 742.469 883.437 727.401 868.285 727.401C853.132 727.401 840.849 742.469 840.849 761.056C840.849 779.643 853.132 794.71 868.285 794.71Z" fill="#A7233A" fill-opacity="0.3"/>
<path d="M1261.53 620.827C1272.26 620.827 1280.96 610.154 1280.96 596.988C1280.96 583.822 1272.26 573.149 1261.53 573.149C1250.79 573.149 1242.09 583.822 1242.09 596.988C1242.09 610.154 1250.79 620.827 1261.53 620.827Z" fill="#A7233A" fill-opacity="0.3"/>
<path d="M1219.23 230.993C1229.96 230.993 1238.66 220.32 1238.66 207.155C1238.66 193.989 1229.96 183.316 1219.23 183.316C1208.5 183.316 1199.8 193.989 1199.8 207.155C1199.8 220.32 1208.5 230.993 1219.23 230.993Z" fill="#A7233A" fill-opacity="0.3"/>
<path d="M500.191 361.405C515.343 361.405 527.626 346.338 527.626 327.751C527.626 309.164 515.343 294.096 500.191 294.096C485.039 294.096 472.755 309.164 472.755 327.751C472.755 346.338 485.039 361.405 500.191 361.405Z" fill="#A7233A" fill-opacity="0.3"/>
<path d="M925.442 329.152C935.544 329.152 943.733 319.107 943.733 306.716C943.733 294.324 935.544 284.279 925.442 284.279C915.341 284.279 907.152 294.324 907.152 306.716C907.152 319.107 915.341 329.152 925.442 329.152Z" fill="#A7233A" fill-opacity="0.3"/>
<path d="M615.649 929.33C630.17 929.33 641.942 914.89 641.942 897.077C641.942 879.265 630.17 864.825 615.649 864.825C601.128 864.825 589.357 879.265 589.357 897.077C589.357 914.89 601.128 929.33 615.649 929.33Z" fill="#A7233A" fill-opacity="0.3"/>
<path d="M1094.63 653.08C1109.15 653.08 1120.92 638.64 1120.92 620.828C1120.92 603.015 1109.15 588.575 1094.63 588.575C1080.11 588.575 1068.33 603.015 1068.33 620.828C1068.33 638.64 1080.11 653.08 1094.63 653.08Z" fill="#A7233A" fill-opacity="0.3"/>
<path d="M1036.33 825.561C1049.59 825.561 1060.33 812.377 1060.33 796.113C1060.33 779.85 1049.59 766.665 1036.33 766.665C1023.07 766.665 1012.32 779.85 1012.32 796.113C1012.32 812.377 1023.07 825.561 1036.33 825.561Z" fill="#A7233A" fill-opacity="0.3"/>
<path d="M657.945 344.577C673.729 344.577 686.524 328.881 686.524 309.52C686.524 290.158 673.729 274.462 657.945 274.462C642.162 274.462 629.367 290.158 629.367 309.52C629.367 328.881 642.162 344.577 657.945 344.577Z" fill="#A7233A" fill-opacity="0.3"/>
<path d="M649.944 629.241C660.045 629.241 668.234 619.196 668.234 606.804C668.234 594.413 660.045 584.368 649.944 584.368C639.842 584.368 631.653 594.413 631.653 606.804C631.653 619.196 639.842 629.241 649.944 629.241Z" fill="#A7233A" fill-opacity="0.3"/>
<path d="M302.427 606.805C311.897 606.805 319.574 597.388 319.574 585.771C319.574 574.154 311.897 564.736 302.427 564.736C292.957 564.736 285.28 574.154 285.28 585.771C285.28 597.388 292.957 606.805 302.427 606.805Z" fill="#A7233A" fill-opacity="0.3"/>
<path d="M1067.19 531.081C1076.03 531.081 1083.2 522.292 1083.2 511.449C1083.2 500.607 1076.03 491.817 1067.19 491.817C1058.35 491.817 1051.19 500.607 1051.19 511.449C1051.19 522.292 1058.35 531.081 1067.19 531.081Z" fill="#A7233A" fill-opacity="0.3"/>
<path d="M750.541 683.93C765.693 683.93 777.976 668.862 777.976 650.275C777.976 631.688 765.693 616.62 750.541 616.62C735.388 616.62 723.105 631.688 723.105 650.275C723.105 668.862 735.388 683.93 750.541 683.93Z" fill="#A7233A" fill-opacity="0.3"/>
<path d="M838.563 533.886C851.821 533.886 862.569 520.702 862.569 504.438C862.569 488.175 851.821 474.99 838.563 474.99C825.305 474.99 814.557 488.175 814.557 504.438C814.557 520.702 825.305 533.886 838.563 533.886Z" fill="#A7233A" fill-opacity="0.3"/>
<path d="M1194.08 669.908C1202.29 669.908 1208.94 661.747 1208.94 651.679C1208.94 641.611 1202.29 633.449 1194.08 633.449C1185.87 633.449 1179.22 641.611 1179.22 651.679C1179.22 661.747 1185.87 669.908 1194.08 669.908Z" fill="#A7233A" fill-opacity="0.3"/>
<path d="M860.283 909.698C872.91 909.698 883.146 897.141 883.146 881.652C883.146 866.163 872.91 853.606 860.283 853.606C847.656 853.606 837.42 866.163 837.42 881.652C837.42 897.141 847.656 909.698 860.283 909.698Z" fill="#A7233A" fill-opacity="0.3"/>
<path d="M895.72 710.573C907.715 710.573 917.44 698.645 917.44 683.93C917.44 669.215 907.715 657.286 895.72 657.286C883.724 657.286 874 669.215 874 683.93C874 698.645 883.724 710.573 895.72 710.573Z" fill="#A7233A" fill-opacity="0.3"/>
<path d="M1252.38 535.289C1260.59 535.289 1267.24 527.128 1267.24 517.06C1267.24 506.992 1260.59 498.83 1252.38 498.83C1244.17 498.83 1237.52 506.992 1237.52 517.06C1237.52 527.128 1244.17 535.289 1252.38 535.289Z" fill="#A7233A" fill-opacity="0.3"/>
<path d="M505.907 252.026C521.059 252.026 533.342 236.959 533.342 218.372C533.342 199.785 521.059 184.717 505.907 184.717C490.754 184.717 478.471 199.785 478.471 218.372C478.471 236.959 490.754 252.026 505.907 252.026Z" fill="#A7233A" fill-opacity="0.3"/>
<path d="M975.74 648.874C983.948 648.874 990.601 640.712 990.601 630.644C990.601 620.576 983.948 612.414 975.74 612.414C967.533 612.414 960.879 620.576 960.879 630.644C960.879 640.712 967.533 648.874 975.74 648.874Z" fill="#A7233A" fill-opacity="0.3"/>
<path d="M974.598 822.756C984.699 822.756 992.888 812.711 992.888 800.32C992.888 787.928 984.699 777.883 974.598 777.883C964.496 777.883 956.307 787.928 956.307 800.32C956.307 812.711 964.496 822.756 974.598 822.756Z" fill="#A7233A" fill-opacity="0.3"/>
<path d="M581.355 343.175C595.244 343.175 606.504 329.363 606.504 312.325C606.504 295.287 595.244 281.475 581.355 281.475C567.465 281.475 556.205 295.287 556.205 312.325C556.205 329.363 567.465 343.175 581.355 343.175Z" fill="#A7233A" fill-opacity="0.3"/>
<path d="M438.461 484.807C453.614 484.807 465.897 469.74 465.897 451.152C465.897 432.565 453.614 417.498 438.461 417.498C423.309 417.498 411.026 432.565 411.026 451.152C411.026 469.74 423.309 484.807 438.461 484.807Z" fill="#A7233A" fill-opacity="0.3"/>
<path d="M425.886 573.15C441.039 573.15 453.322 558.082 453.322 539.495C453.322 520.908 441.039 505.84 425.886 505.84C410.734 505.84 398.451 520.908 398.451 539.495C398.451 558.082 410.734 573.15 425.886 573.15Z" fill="#A7233A" fill-opacity="0.3"/>
<path d="M1122.06 219.775C1130.27 219.775 1136.92 211.613 1136.92 201.545C1136.92 191.477 1130.27 183.316 1122.06 183.316C1113.86 183.316 1107.2 191.477 1107.2 201.545C1107.2 211.613 1113.86 219.775 1122.06 219.775Z" fill="#A7233A" fill-opacity="0.3"/>
<path d="M1207.8 836.779C1221.06 836.779 1231.81 823.595 1231.81 807.331C1231.81 791.067 1221.06 777.883 1207.8 777.883C1194.54 777.883 1183.79 791.067 1183.79 807.331C1183.79 823.595 1194.54 836.779 1207.8 836.779Z" fill="#A7233A" fill-opacity="0.3"/>
<path d="M1184.94 531.081C1196.3 531.081 1205.51 519.781 1205.51 505.84C1205.51 491.9 1196.3 480.599 1184.94 480.599C1173.57 480.599 1164.36 491.9 1164.36 505.84C1164.36 519.781 1173.57 531.081 1184.94 531.081Z" fill="#A7233A" fill-opacity="0.3"/>
<path d="M769.974 355.796C778.813 355.796 785.978 347.006 785.978 336.164C785.978 325.321 778.813 316.532 769.974 316.532C761.135 316.532 753.97 325.321 753.97 336.164C753.97 347.006 761.135 355.796 769.974 355.796Z" fill="#A7233A" fill-opacity="0.3"/>
<path d="M532.199 845.192C542.301 845.192 550.489 835.147 550.489 822.755C550.489 810.364 542.301 800.319 532.199 800.319C522.098 800.319 513.909 810.364 513.909 822.755C513.909 835.147 522.098 845.192 532.199 845.192Z" fill="#A7233A" fill-opacity="0.3"/>
<path d="M533.342 609.609C545.969 609.609 556.205 597.053 556.205 581.564C556.205 566.075 545.969 553.518 533.342 553.518C520.715 553.518 510.479 566.075 510.479 581.564C510.479 597.053 520.715 609.609 533.342 609.609Z" fill="#A7233A" fill-opacity="0.3"/>
<path d="M445.32 263.244C459.21 263.244 470.469 249.432 470.469 232.394C470.469 215.356 459.21 201.544 445.32 201.544C431.431 201.544 420.171 215.356 420.171 232.394C420.171 249.432 431.431 263.244 445.32 263.244Z" fill="#A7233A" fill-opacity="0.3"/>
<path d="M1040.9 958.779C1051 958.779 1059.19 948.733 1059.19 936.342C1059.19 923.951 1051 913.906 1040.9 913.906C1030.8 913.906 1022.61 923.951 1022.61 936.342C1022.61 948.733 1030.8 958.779 1040.9 958.779Z" fill="#A7233A" fill-opacity="0.3"/>
<path d="M510.479 734.412C521.844 734.412 531.056 723.112 531.056 709.171C531.056 695.231 521.844 683.93 510.479 683.93C499.115 683.93 489.903 695.231 489.903 709.171C489.903 723.112 499.115 734.412 510.479 734.412Z" fill="#A7233A" fill-opacity="0.3"/>
<path d="M737.966 434.324C751.855 434.324 763.115 420.512 763.115 403.474C763.115 386.436 751.855 372.624 737.966 372.624C724.076 372.624 712.816 386.436 712.816 403.474C712.816 420.512 724.076 434.324 737.966 434.324Z" fill="#A7233A" fill-opacity="0.3"/>
<path d="M369.872 378.232C381.236 378.232 390.449 366.931 390.449 352.991C390.449 339.051 381.236 327.75 369.872 327.75C358.508 327.75 349.295 339.051 349.295 352.991C349.295 366.931 358.508 378.232 369.872 378.232Z" fill="#A7233A" fill-opacity="0.3"/>
<path d="M588.213 252.027C603.997 252.027 616.792 236.331 616.792 216.969C616.792 197.608 603.997 181.912 588.213 181.912C572.43 181.912 559.635 197.608 559.635 216.969C559.635 236.331 572.43 252.027 588.213 252.027Z" fill="#A7233A" fill-opacity="0.3"/>
<path d="M571.066 424.509C579.905 424.509 587.07 415.719 587.07 404.877C587.07 394.035 579.905 385.245 571.066 385.245C562.228 385.245 555.062 394.035 555.062 404.877C555.062 415.719 562.228 424.509 571.066 424.509Z" fill="#A7233A" fill-opacity="0.3"/>
<path d="M764.258 850.801C777.516 850.801 788.264 837.617 788.264 821.353C788.264 805.09 777.516 791.906 764.258 791.906C751 791.906 740.252 805.09 740.252 821.353C740.252 837.617 751 850.801 764.258 850.801Z" fill="#A7233A" fill-opacity="0.3"/>
<path d="M604.218 696.55C613.688 696.55 621.365 687.133 621.365 675.516C621.365 663.899 613.688 654.482 604.218 654.482C594.747 654.482 587.07 663.899 587.07 675.516C587.07 687.133 594.747 696.55 604.218 696.55Z" fill="#A7233A" fill-opacity="0.3"/>
<path d="M876.286 423.106C885.757 423.106 893.434 413.688 893.434 402.071C893.434 390.455 885.757 381.037 876.286 381.037C866.816 381.037 859.139 390.455 859.139 402.071C859.139 413.688 866.816 423.106 876.286 423.106Z" fill="#A7233A" fill-opacity="0.3"/>
<path d="M1187.22 950.365C1196.06 950.365 1203.23 941.576 1203.23 930.733C1203.23 919.891 1196.06 911.101 1187.22 911.101C1178.38 911.101 1171.22 919.891 1171.22 930.733C1171.22 941.576 1178.38 950.365 1187.22 950.365Z" fill="#A7233A" fill-opacity="0.3"/>
<path d="M399.594 908.296C407.802 908.296 414.455 900.134 414.455 890.066C414.455 879.998 407.802 871.836 399.594 871.836C391.387 871.836 384.733 879.998 384.733 890.066C384.733 900.134 391.387 908.296 399.594 908.296Z" fill="#A7233A" fill-opacity="0.3"/>
<path d="M473.899 905.492C486.526 905.492 496.762 892.935 496.762 877.446C496.762 861.957 486.526 849.4 473.899 849.4C461.272 849.4 451.036 861.957 451.036 877.446C451.036 892.935 461.272 905.492 473.899 905.492Z" fill="#A7233A" fill-opacity="0.3"/>
<path d="M420.171 704.966C428.378 704.966 435.032 696.804 435.032 686.736C435.032 676.668 428.378 668.506 420.171 668.506C411.964 668.506 405.31 676.668 405.31 686.736C405.31 696.804 411.964 704.966 420.171 704.966Z" fill="#A7233A" fill-opacity="0.3"/>
<path d="M967.738 465.175C975.946 465.175 982.599 457.013 982.599 446.945C982.599 436.877 975.946 428.715 967.738 428.715C959.531 428.715 952.877 436.877 952.877 446.945C952.877 457.013 959.531 465.175 967.738 465.175Z" fill="#A7233A" fill-opacity="0.3"/>
<path d="M306.999 825.561C317.732 825.561 326.433 814.888 326.433 801.722C326.433 788.556 317.732 777.883 306.999 777.883C296.267 777.883 287.566 788.556 287.566 801.722C287.566 814.888 296.267 825.561 306.999 825.561Z" fill="#A7233A" fill-opacity="0.3"/>
<path d="M1088.91 459.565C1104.06 459.565 1116.35 444.497 1116.35 425.91C1116.35 407.323 1104.06 392.255 1088.91 392.255C1073.76 392.255 1061.48 407.323 1061.48 425.91C1061.48 444.497 1073.76 459.565 1088.91 459.565Z" fill="#A7233A" fill-opacity="0.3"/>
<path d="M876.286 235.199C890.807 235.199 902.579 220.759 902.579 202.947C902.579 185.134 890.807 170.694 876.286 170.694C861.766 170.694 849.994 185.134 849.994 202.947C849.994 220.759 861.766 235.199 876.286 235.199Z" fill="#A7233A" fill-opacity="0.3"/>
<path d="M931.158 559.127C946.31 559.127 958.593 544.06 958.593 525.472C958.593 506.885 946.31 491.818 931.158 491.818C916.005 491.818 903.722 506.885 903.722 525.472C903.722 544.06 916.005 559.127 931.158 559.127Z" fill="#A7233A" fill-opacity="0.3"/>
<path d="M1008.89 379.635C1020.26 379.635 1029.47 368.334 1029.47 354.394C1029.47 340.454 1020.26 329.153 1008.89 329.153C997.527 329.153 988.315 340.454 988.315 354.394C988.315 368.334 997.527 379.635 1008.89 379.635Z" fill="#A7233A" fill-opacity="0.3"/>
<path d="M685.381 235.2C699.902 235.2 711.674 220.76 711.674 202.947C711.674 185.134 699.902 170.694 685.381 170.694C670.86 170.694 659.089 185.134 659.089 202.947C659.089 220.76 670.86 235.2 685.381 235.2Z" fill="#A7233A" fill-opacity="0.3"/>
<path d="M1239.81 435.725C1252.43 435.725 1262.67 423.169 1262.67 407.68C1262.67 392.191 1252.43 379.634 1239.81 379.634C1227.18 379.634 1216.94 392.191 1216.94 407.68C1216.94 423.169 1227.18 435.725 1239.81 435.725Z" fill="#A7233A" fill-opacity="0.3"/>
<path d="M959.736 275.866C973.626 275.866 984.885 262.054 984.885 245.015C984.885 227.977 973.626 214.165 959.736 214.165C945.847 214.165 934.587 227.977 934.587 245.015C934.587 262.054 945.847 275.866 959.736 275.866Z" fill="#A7233A" fill-opacity="0.3"/>
<path d="M613.363 536.69C625.99 536.69 636.226 524.134 636.226 508.645C636.226 493.156 625.99 480.599 613.363 480.599C600.736 480.599 590.5 493.156 590.5 508.645C590.5 524.134 600.736 536.69 613.363 536.69Z" fill="#A7233A" fill-opacity="0.3"/>
<path d="M771.117 982.616C783.112 982.616 792.837 970.687 792.837 955.973C792.837 941.258 783.112 929.329 771.117 929.329C759.121 929.329 749.397 941.258 749.397 955.973C749.397 970.687 759.121 982.616 771.117 982.616Z" fill="#A7233A" fill-opacity="0.3"/>
<path d="M1207.8 361.405C1216.64 361.405 1223.8 352.616 1223.8 341.773C1223.8 330.931 1216.64 322.141 1207.8 322.141C1198.96 322.141 1191.8 330.931 1191.8 341.773C1191.8 352.616 1198.96 361.405 1207.8 361.405Z" fill="#A7233A" fill-opacity="0.3"/>
<path d="M912.867 989.629C928.019 989.629 940.303 974.561 940.303 955.974C940.303 937.387 928.019 922.32 912.867 922.32C897.715 922.32 885.432 937.387 885.432 955.974C885.432 974.561 897.715 989.629 912.867 989.629Z" fill="#A7233A" fill-opacity="0.3"/>
<path d="M1070.62 735.816C1086.41 735.816 1099.2 720.12 1099.2 700.759C1099.2 681.397 1086.41 665.702 1070.62 665.702C1054.84 665.702 1042.04 681.397 1042.04 700.759C1042.04 720.12 1054.84 735.816 1070.62 735.816Z" fill="#A7233A" fill-opacity="0.3"/>
<path d="M407.596 316.531C418.96 316.531 428.173 305.23 428.173 291.29C428.173 277.35 418.96 266.049 407.596 266.049C396.232 266.049 387.019 277.35 387.019 291.29C387.019 305.23 396.232 316.531 407.596 316.531Z" fill="#A7233A" fill-opacity="0.3"/>
<path d="M371.015 626.437C386.799 626.437 399.594 610.741 399.594 591.38C399.594 572.018 386.799 556.323 371.015 556.323C355.232 556.323 342.437 572.018 342.437 591.38C342.437 610.741 355.232 626.437 371.015 626.437Z" fill="#A7233A" fill-opacity="0.3"/>
<path d="M712.817 529.678C726.706 529.678 737.966 515.866 737.966 498.828C737.966 481.79 726.706 467.978 712.817 467.978C698.927 467.978 687.667 481.79 687.667 498.828C687.667 515.866 698.927 529.678 712.817 529.678Z" fill="#A7233A" fill-opacity="0.3"/>
<path d="M317.288 469.381C331.177 469.381 342.437 455.569 342.437 438.531C342.437 421.493 331.177 407.681 317.288 407.681C303.398 407.681 292.138 421.493 292.138 438.531C292.138 455.569 303.398 469.381 317.288 469.381Z" fill="#A7233A" fill-opacity="0.3"/>
<path d="M555.062 986.824C567.689 986.824 577.925 974.268 577.925 958.778C577.925 943.289 567.689 930.733 555.062 930.733C542.435 930.733 532.199 943.289 532.199 958.778C532.199 974.268 542.435 986.824 555.062 986.824Z" fill="#A7233A" fill-opacity="0.3"/>
<path d="M1262.67 766.664C1270.88 766.664 1277.53 758.503 1277.53 748.435C1277.53 738.367 1270.88 730.205 1262.67 730.205C1254.46 730.205 1247.81 738.367 1247.81 748.435C1247.81 758.503 1254.46 766.664 1262.67 766.664Z" fill="#A7233A" fill-opacity="0.3"/>
<path d="M827.131 331.957C842.283 331.957 854.566 316.89 854.566 298.303C854.566 279.715 842.283 264.648 827.131 264.648C811.979 264.648 799.695 279.715 799.695 298.303C799.695 316.89 811.979 331.957 827.131 331.957Z" fill="#A7233A" fill-opacity="0.3"/>
<path d="M321.86 253.43C337.644 253.43 350.439 237.734 350.439 218.373C350.439 199.011 337.644 183.316 321.86 183.316C306.077 183.316 293.281 199.011 293.281 218.373C293.281 237.734 306.077 253.43 321.86 253.43Z" fill="#A7233A" fill-opacity="0.3"/>
<path d="M1107.2 957.376C1120.46 957.376 1131.21 944.192 1131.21 927.928C1131.21 911.664 1120.46 898.48 1107.2 898.48C1093.94 898.48 1083.2 911.664 1083.2 927.928C1083.2 944.192 1093.94 957.376 1107.2 957.376Z" fill="#A7233A" fill-opacity="0.3"/>
<path d="M1087.77 360.003C1101.66 360.003 1112.92 346.19 1112.92 329.152C1112.92 312.114 1101.66 298.302 1087.77 298.302C1073.88 298.302 1062.62 312.114 1062.62 329.152C1062.62 346.19 1073.88 360.003 1087.77 360.003Z" fill="#A7233A" fill-opacity="0.3"/>
<path d="M348.152 735.815C361.41 735.815 372.158 722.631 372.158 706.367C372.158 690.103 361.41 676.919 348.152 676.919C334.894 676.919 324.146 690.103 324.146 706.367C324.146 722.631 334.894 735.815 348.152 735.815Z" fill="#A7233A" fill-opacity="0.3"/>
<path d="M484.187 999.444C499.971 999.444 512.766 983.748 512.766 964.387C512.766 945.025 499.971 929.33 484.187 929.33C468.404 929.33 455.608 945.025 455.608 964.387C455.608 983.748 468.404 999.444 484.187 999.444Z" fill="#A7233A" fill-opacity="0.3"/>
<path d="M1021.47 268.854C1037.25 268.854 1050.05 253.158 1050.05 233.797C1050.05 214.435 1037.25 198.74 1021.47 198.74C1005.68 198.74 992.888 214.435 992.888 233.797C992.888 253.158 1005.68 268.854 1021.47 268.854Z" fill="#A7233A" fill-opacity="0.3"/>
<path d="M1140.35 741.425C1156.14 741.425 1168.93 725.729 1168.93 706.368C1168.93 687.006 1156.14 671.311 1140.35 671.311C1124.57 671.311 1111.77 687.006 1111.77 706.368C1111.77 725.729 1124.57 741.425 1140.35 741.425Z" fill="#A7233A" fill-opacity="0.3"/>
<path d="M782.548 596.988C792.65 596.988 800.839 586.943 800.839 574.551C800.839 562.16 792.65 552.115 782.548 552.115C772.447 552.115 764.258 562.16 764.258 574.551C764.258 586.943 772.447 596.988 782.548 596.988Z" fill="#A7233A" fill-opacity="0.3"/>
<path d="M950.591 748.436C959.43 748.436 966.595 739.646 966.595 728.804C966.595 717.961 959.43 709.172 950.591 709.172C941.752 709.172 934.587 717.961 934.587 728.804C934.587 739.646 941.752 748.436 950.591 748.436Z" fill="#A7233A" fill-opacity="0.3"/>
<path d="M716.246 752.642C726.979 752.642 735.68 741.969 735.68 728.803C735.68 715.637 726.979 704.964 716.246 704.964C705.513 704.964 696.812 715.637 696.812 728.803C696.812 741.969 705.513 752.642 716.246 752.642Z" fill="#A7233A" fill-opacity="0.3"/>
<path d="M1261.53 302.509C1275.42 302.509 1286.68 288.697 1286.68 271.659C1286.68 254.62 1275.42 240.808 1261.53 240.808C1247.64 240.808 1236.38 254.62 1236.38 271.659C1236.38 288.697 1247.64 302.509 1261.53 302.509Z" fill="#A7233A" fill-opacity="0.3"/>
<path d="M669.377 968.594C680.11 968.594 688.811 957.921 688.811 944.755C688.811 931.589 680.11 920.916 669.377 920.916C658.644 920.916 649.944 931.589 649.944 944.755C649.944 957.921 658.644 968.594 669.377 968.594Z" fill="#A7233A" fill-opacity="0.3"/>
<path d="M798.553 228.189C809.285 228.189 817.986 217.516 817.986 204.35C817.986 191.184 809.285 180.511 798.553 180.511C787.82 180.511 779.119 191.184 779.119 204.35C779.119 217.516 787.82 228.189 798.553 228.189Z" fill="#A7233A" fill-opacity="0.3"/>
<path d="M648.8 431.52C661.427 431.52 671.663 418.963 671.663 403.474C671.663 387.985 661.427 375.428 648.8 375.428C636.173 375.428 625.937 387.985 625.937 403.474C625.937 418.963 636.173 431.52 648.8 431.52Z" fill="#A7233A" fill-opacity="0.3"/>
<path d="M1148.36 420.302C1164.14 420.302 1176.93 404.606 1176.93 385.244C1176.93 365.883 1164.14 350.187 1148.36 350.187C1132.57 350.187 1119.78 365.883 1119.78 385.244C1119.78 404.606 1132.57 420.302 1148.36 420.302Z" fill="#A7233A" fill-opacity="0.3"/>
<path d="M545.917 505.841C554.124 505.841 560.778 497.679 560.778 487.611C560.778 477.543 554.124 469.381 545.917 469.381C537.709 469.381 531.056 477.543 531.056 487.611C531.056 497.679 537.709 505.841 545.917 505.841Z" fill="#A7233A" fill-opacity="0.3"/>
<path d="M1130.07 571.747C1139.54 571.747 1147.21 562.33 1147.21 550.713C1147.21 539.096 1139.54 529.679 1130.07 529.679C1120.6 529.679 1112.92 539.096 1112.92 550.713C1112.92 562.33 1120.6 571.747 1130.07 571.747Z" fill="#A7233A" fill-opacity="0.3"/>
<path d="M1260.38 958.778C1274.91 958.778 1286.68 944.338 1286.68 926.525C1286.68 908.713 1274.91 894.273 1260.38 894.273C1245.86 894.273 1234.09 908.713 1234.09 926.525C1234.09 944.338 1245.86 958.778 1260.38 958.778Z" fill="#A7233A" fill-opacity="0.3"/>
<path d="M446.463 396.462C460.353 396.462 471.612 382.65 471.612 365.612C471.612 348.574 460.353 334.762 446.463 334.762C432.574 334.762 421.314 348.574 421.314 365.612C421.314 382.65 432.574 396.462 446.463 396.462Z" fill="#A7233A" fill-opacity="0.3"/>
<path d="M473.899 671.311C488.42 671.311 500.191 656.871 500.191 639.058C500.191 621.245 488.42 606.806 473.899 606.806C459.378 606.806 447.606 621.245 447.606 639.058C447.606 656.871 459.378 671.311 473.899 671.311Z" fill="#A7233A" fill-opacity="0.3"/>
<path d="M468.183 831.17C481.441 831.17 492.189 817.986 492.189 801.722C492.189 785.458 481.441 772.274 468.183 772.274C454.925 772.274 444.177 785.458 444.177 801.722C444.177 817.986 454.925 831.17 468.183 831.17Z" fill="#A7233A" fill-opacity="0.3"/>
<path d="M845.422 623.632C860.574 623.632 872.857 608.564 872.857 589.977C872.857 571.39 860.574 556.322 845.422 556.322C830.27 556.322 817.986 571.39 817.986 589.977C817.986 608.564 830.27 623.632 845.422 623.632Z" fill="#A7233A" fill-opacity="0.3"/>
<path d="M1103.77 884.458C1118.93 884.458 1131.21 869.39 1131.21 850.803C1131.21 832.216 1118.93 817.148 1103.77 817.148C1088.62 817.148 1076.34 832.216 1076.34 850.803C1076.34 869.39 1088.62 884.458 1103.77 884.458Z" fill="#A7233A" fill-opacity="0.3"/>
<path d="M793.98 768.068C802.819 768.068 809.984 759.278 809.984 748.436C809.984 737.593 802.819 728.804 793.98 728.804C785.141 728.804 777.976 737.593 777.976 748.436C777.976 759.278 785.141 768.068 793.98 768.068Z" fill="#A7233A" fill-opacity="0.3"/>
<path d="M731.107 294.095C741.208 294.095 749.397 284.05 749.397 271.658C749.397 259.267 741.208 249.222 731.107 249.222C721.005 249.222 712.816 259.267 712.816 271.658C712.816 284.05 721.005 294.095 731.107 294.095Z" fill="#A7233A" fill-opacity="0.3"/>
<path d="M357.298 981.215C371.187 981.215 382.447 967.403 382.447 950.365C382.447 933.327 371.187 919.515 357.298 919.515C343.408 919.515 332.148 933.327 332.148 950.365C332.148 967.403 343.408 981.215 357.298 981.215Z" fill="#A7233A" fill-opacity="0.3"/>
<path d="M980.313 982.617C995.465 982.617 1007.75 967.549 1007.75 948.962C1007.75 930.375 995.465 915.307 980.313 915.307C965.161 915.307 952.877 930.375 952.877 948.962C952.877 967.549 965.161 982.617 980.313 982.617Z" fill="#A7233A" fill-opacity="0.3"/>
<path d="M799.696 445.542C812.954 445.542 823.702 432.358 823.702 416.094C823.702 399.83 812.954 386.646 799.696 386.646C786.438 386.646 775.69 399.83 775.69 416.094C775.69 432.358 786.438 445.542 799.696 445.542Z" fill="#A7233A" fill-opacity="0.3"/>
<path d="M816.843 690.942C831.995 690.942 844.278 675.874 844.278 657.287C844.278 638.7 831.995 623.632 816.843 623.632C801.691 623.632 789.407 638.7 789.407 657.287C789.407 675.874 801.691 690.942 816.843 690.942Z" fill="#A7233A" fill-opacity="0.3"/>
<path d="M1147.21 811.538C1156.05 811.538 1163.22 802.749 1163.22 791.906C1163.22 781.064 1156.05 772.274 1147.21 772.274C1138.37 772.274 1131.21 781.064 1131.21 791.906C1131.21 802.749 1138.37 811.538 1147.21 811.538Z" fill="#A7233A" fill-opacity="0.3"/>
<path d="M1037.47 598.391C1046.94 598.391 1054.62 588.974 1054.62 577.357C1054.62 565.74 1046.94 556.323 1037.47 556.323C1028 556.323 1020.32 565.74 1020.32 577.357C1020.32 588.974 1028 598.391 1037.47 598.391Z" fill="#A7233A" fill-opacity="0.3"/>
<path d="M572.209 780.687C587.361 780.687 599.645 765.62 599.645 747.033C599.645 728.445 587.361 713.378 572.209 713.378C557.057 713.378 544.774 728.445 544.774 747.033C544.774 765.62 557.057 780.687 572.209 780.687Z" fill="#A7233A" fill-opacity="0.3"/>
<path d="M315.001 340.371C328.26 340.371 339.008 327.187 339.008 310.923C339.008 294.659 328.26 281.475 315.001 281.475C301.743 281.475 290.995 294.659 290.995 310.923C290.995 327.187 301.743 340.371 315.001 340.371Z" fill="#A7233A" fill-opacity="0.3"/>
<path d="M922.013 899.882C936.533 899.882 948.305 885.442 948.305 867.629C948.305 849.817 936.533 835.377 922.013 835.377C907.492 835.377 895.72 849.817 895.72 867.629C895.72 885.442 907.492 899.882 922.013 899.882Z" fill="#A7233A" fill-opacity="0.3"/>
<path d="M364.156 535.288C378.677 535.288 390.449 520.848 390.449 503.035C390.449 485.223 378.677 470.783 364.156 470.783C349.636 470.783 337.864 485.223 337.864 503.035C337.864 520.848 349.636 535.288 364.156 535.288Z" fill="#A7233A" fill-opacity="0.3"/>
<path d="M1168.93 313.727C1184.08 313.727 1196.37 298.66 1196.37 280.073C1196.37 261.485 1184.08 246.418 1168.93 246.418C1153.78 246.418 1141.5 261.485 1141.5 280.073C1141.5 298.66 1153.78 313.727 1168.93 313.727Z" fill="#A7233A" fill-opacity="0.3"/>
<path d="M313.858 919.515C326.485 919.515 336.721 906.958 336.721 891.469C336.721 875.98 326.485 863.423 313.858 863.423C301.231 863.423 290.995 875.98 290.995 891.469C290.995 906.958 301.231 919.515 313.858 919.515Z" fill="#A7233A" fill-opacity="0.3"/>
<path d="M499.048 446.943C514.832 446.943 527.627 431.248 527.627 411.886C527.627 392.525 514.832 376.829 499.048 376.829C483.264 376.829 470.469 392.525 470.469 411.886C470.469 431.248 483.264 446.943 499.048 446.943Z" fill="#A7233A" fill-opacity="0.3"/>
<path d="M420.17 991.03C432.166 991.03 441.89 979.101 441.89 964.386C441.89 949.672 432.166 937.743 420.17 937.743C408.175 937.743 398.451 949.672 398.451 964.386C398.451 979.101 408.175 991.03 420.17 991.03Z" fill="#A7233A" fill-opacity="0.3"/>
<path d="M661.375 790.504C674.633 790.504 685.381 777.32 685.381 761.056C685.381 744.793 674.633 731.608 661.375 731.608C648.117 731.608 637.369 744.793 637.369 761.056C637.369 777.32 648.117 790.504 661.375 790.504Z" fill="#A7233A" fill-opacity="0.3"/>
<path d="M1008.89 887.261C1018.36 887.261 1026.04 877.844 1026.04 866.227C1026.04 854.61 1018.36 845.193 1008.89 845.193C999.421 845.193 991.744 854.61 991.744 866.227C991.744 877.844 999.421 887.261 1008.89 887.261Z" fill="#A7233A" fill-opacity="0.3"/>
<path d="M843.135 993.834C856.393 993.834 867.141 980.65 867.141 964.386C867.141 948.123 856.393 934.938 843.135 934.938C829.877 934.938 819.129 948.123 819.129 964.386C819.129 980.65 829.877 993.834 843.135 993.834Z" fill="#A7233A" fill-opacity="0.3"/>
<path d="M910.581 619.426C919.42 619.426 926.585 610.636 926.585 599.794C926.585 588.951 919.42 580.162 910.581 580.162C901.742 580.162 894.577 588.951 894.577 599.794C894.577 610.636 901.742 619.426 910.581 619.426Z" fill="#A7233A" fill-opacity="0.3"/>
<path d="M995.174 535.289C1003.38 535.289 1010.03 527.127 1010.03 517.059C1010.03 506.991 1003.38 498.83 995.174 498.83C986.966 498.83 980.313 506.991 980.313 517.059C980.313 527.127 986.966 535.289 995.174 535.289Z" fill="#A7233A" fill-opacity="0.3"/>
<path d="M713.96 619.425C728.481 619.425 740.252 604.985 740.252 587.172C740.252 569.36 728.481 554.92 713.96 554.92C699.439 554.92 687.667 569.36 687.667 587.172C687.667 604.985 699.439 619.425 713.96 619.425Z" fill="#A7233A" fill-opacity="0.3"/>
</g>
<defs>
<clipPath id="clip0_201_2335">
<rect width="1565" height="1168.19" fill="white"/>
</clipPath>
</defs>
</svg>
