<svg viewBox="0 0 555 363" fill="none" xmlns="http://www.w3.org/2000/svg">
<g clip-path="url(#clip0_281_4829)">
<path d="M488.717 331.976L489.257 319.398C494.892 316.28 501.177 314.634 507.566 314.601C498.772 322.042 499.871 336.385 493.91 346.39C490.096 352.682 483.725 356.837 476.596 357.683L469.237 362.346C467.194 350.555 470.241 338.43 477.576 329.165C479.634 326.617 481.994 324.348 484.6 322.411C486.362 327.22 488.717 331.976 488.717 331.976Z" fill="#F2F2F2"/>
<path d="M116.728 318.192L98.9699 312.628C96.6409 302.835 96.6569 292.602 99.0163 282.818C106.329 299.07 127.224 302.791 139.266 315.678C146.814 323.881 150.348 335.19 148.869 346.413L152.756 359.425C135.151 358.11 118.985 348.882 108.517 334.173C105.654 330.066 103.303 325.602 101.518 320.886C109.049 320.002 116.728 318.192 116.728 318.192Z" fill="#F2F2F2"/>
<path d="M427.185 360.289C427.183 360.67 427.036 361.034 426.777 361.305C426.519 361.572 426.168 361.721 425.802 361.72H420.243C419.482 361.723 418.862 361.086 418.86 360.299V186.281C418.86 182.445 417.615 179.332 416.087 179.325H70.0017C68.4666 179.332 67.2288 182.445 67.2219 186.281V359.222C67.2196 359.959 66.6788 360.574 65.9703 360.647C64.8501 360.761 63.7299 360.861 62.6166 360.954C62.5889 360.954 62.5613 360.961 62.5336 360.961C61.9251 361.019 61.3166 361.062 60.708 361.112H60.7011C60.383 360.518 60.0788 359.909 59.7676 359.301C59.6679 359.094 59.6158 358.867 59.6155 358.636V177.257C59.6155 176.198 59.657 175.131 59.7261 174.079C59.8248 172.635 59.9979 171.196 60.2447 169.771C61.4134 163.122 64.0549 158.621 67.0559 158.606H419.026C419.464 158.609 419.897 158.704 420.298 158.886C420.888 159.156 421.421 159.542 421.868 160.023C422.474 160.676 422.993 161.41 423.41 162.206C424.89 164.904 425.948 168.926 426.321 173.607C426.321 173.65 426.328 173.693 426.328 173.736C426.425 174.895 426.473 176.076 426.466 177.257L426.563 192.593L426.625 201.74L426.812 230.438L426.881 240.629L427.185 360.289Z" fill="#E6E6E6"/>
<path d="M298.741 105.551H263.471C262.432 105.553 261.591 106.426 261.592 107.501V165.165H300.625V107.501C300.626 106.425 299.783 105.552 298.743 105.551H298.741ZM281.225 138.315C278.929 138.304 277.071 136.381 277.06 134.005V127.354C277.06 124.973 278.925 123.043 281.225 123.043C283.525 123.043 285.39 124.973 285.39 127.354V134.005C285.379 136.381 283.521 138.304 281.225 138.315Z" fill="#CCCCCC"/>
<path d="M261.471 163.321V168.884C261.472 169.484 261.942 169.97 262.522 169.972H299.695C300.275 169.969 300.743 169.483 300.746 168.884V163.321H261.471Z" fill="#3F3D56"/>
<path d="M357.145 15.5599H206.38C203.683 15.5644 201.497 17.8259 201.493 20.6171V125.911C201.496 128.703 203.682 130.966 206.38 130.968H357.145C359.843 130.966 362.029 128.703 362.031 125.911V20.6171C362.027 17.826 359.842 15.5644 357.145 15.5599Z" fill="#E6E6E6"/>
<path d="M355.887 19.2128H207.639C206.195 19.216 205.026 20.4284 205.026 21.923V124.607C205.028 126.1 206.197 127.309 207.639 127.312H355.887C357.329 127.309 358.497 126.1 358.5 124.607V21.923C358.5 20.4284 357.331 19.216 355.887 19.2128Z" fill="white"/>
<path d="M327.011 171.908H238.811C237.915 171.908 237.189 171.156 237.189 170.228C237.189 170.112 237.201 169.996 237.224 169.883L238.592 163.155C238.753 162.38 239.414 161.825 240.18 161.822H325.642C326.408 161.825 327.069 162.38 327.23 163.155L328.598 169.883C328.783 170.79 328.222 171.681 327.345 171.872C327.235 171.896 327.123 171.908 327.011 171.908Z" fill="#CCCCCC"/>
<path d="M243.185 163.034H241.144C240.957 163.034 240.806 163.19 240.806 163.383V164.371C240.806 164.564 240.957 164.72 241.144 164.72H243.185C243.371 164.72 243.523 164.564 243.523 164.371V163.383C243.523 163.19 243.371 163.034 243.185 163.034Z" fill="#E6E6E6"/>
<path d="M248.618 163.034H246.577C246.39 163.034 246.239 163.19 246.239 163.383V164.371C246.239 164.564 246.39 164.72 246.577 164.72H248.618C248.805 164.72 248.956 164.564 248.956 164.371V163.383C248.956 163.19 248.805 163.034 248.618 163.034Z" fill="#E6E6E6"/>
<path d="M254.051 163.034H252.009C251.823 163.034 251.672 163.19 251.672 163.383V164.371C251.672 164.564 251.823 164.72 252.009 164.72H254.051C254.237 164.72 254.388 164.564 254.388 164.371V163.383C254.388 163.19 254.237 163.034 254.051 163.034Z" fill="#E6E6E6"/>
<path d="M259.484 163.034H257.443C257.256 163.034 257.105 163.19 257.105 163.383V164.371C257.105 164.564 257.256 164.72 257.443 164.72H259.484C259.67 164.72 259.821 164.564 259.821 164.371V163.383C259.821 163.19 259.67 163.034 259.484 163.034Z" fill="#E6E6E6"/>
<path d="M264.916 163.034H262.875C262.689 163.034 262.538 163.19 262.538 163.383V164.371C262.538 164.564 262.689 164.72 262.875 164.72H264.916C265.103 164.72 265.254 164.564 265.254 164.371V163.383C265.254 163.19 265.103 163.034 264.916 163.034Z" fill="#E6E6E6"/>
<path d="M270.35 163.034H268.308C268.122 163.034 267.971 163.19 267.971 163.383V164.371C267.971 164.564 268.122 164.72 268.308 164.72H270.35C270.536 164.72 270.687 164.564 270.687 164.371V163.383C270.687 163.19 270.536 163.034 270.35 163.034Z" fill="#E6E6E6"/>
<path d="M275.782 163.034H273.741C273.554 163.034 273.403 163.19 273.403 163.383V164.371C273.403 164.564 273.554 164.72 273.741 164.72H275.782C275.969 164.72 276.12 164.564 276.12 164.371V163.383C276.12 163.19 275.969 163.034 275.782 163.034Z" fill="#E6E6E6"/>
<path d="M281.215 163.034H279.174C278.988 163.034 278.836 163.19 278.836 163.383V164.371C278.836 164.564 278.988 164.72 279.174 164.72H281.215C281.402 164.72 281.553 164.564 281.553 164.371V163.383C281.553 163.19 281.402 163.034 281.215 163.034Z" fill="#E6E6E6"/>
<path d="M286.648 163.034H284.607C284.421 163.034 284.27 163.19 284.27 163.383V164.371C284.27 164.564 284.421 164.72 284.607 164.72H286.648C286.835 164.72 286.986 164.564 286.986 164.371V163.383C286.986 163.19 286.835 163.034 286.648 163.034Z" fill="#E6E6E6"/>
<path d="M292.081 163.034H290.04C289.853 163.034 289.702 163.19 289.702 163.383V164.371C289.702 164.564 289.853 164.72 290.04 164.72H292.081C292.267 164.72 292.419 164.564 292.419 164.371V163.383C292.419 163.19 292.267 163.034 292.081 163.034Z" fill="#E6E6E6"/>
<path d="M297.514 163.034H295.473C295.286 163.034 295.135 163.19 295.135 163.383V164.371C295.135 164.564 295.286 164.72 295.473 164.72H297.514C297.701 164.72 297.852 164.564 297.852 164.371V163.383C297.852 163.19 297.701 163.034 297.514 163.034Z" fill="#E6E6E6"/>
<path d="M302.947 163.034H300.905C300.719 163.034 300.568 163.19 300.568 163.383V164.371C300.568 164.564 300.719 164.72 300.905 164.72H302.947C303.133 164.72 303.284 164.564 303.284 164.371V163.383C303.284 163.19 303.133 163.034 302.947 163.034Z" fill="#E6E6E6"/>
<path d="M308.38 163.034H306.339C306.152 163.034 306.001 163.19 306.001 163.383V164.371C306.001 164.564 306.152 164.72 306.339 164.72H308.38C308.566 164.72 308.717 164.564 308.717 164.371V163.383C308.717 163.19 308.566 163.034 308.38 163.034Z" fill="#E6E6E6"/>
<path d="M313.812 163.034H311.771C311.585 163.034 311.434 163.19 311.434 163.383V164.371C311.434 164.564 311.585 164.72 311.771 164.72H313.812C313.999 164.72 314.15 164.564 314.15 164.371V163.383C314.15 163.19 313.999 163.034 313.812 163.034Z" fill="#E6E6E6"/>
<path d="M319.246 163.034H317.204C317.018 163.034 316.867 163.19 316.867 163.383V164.371C316.867 164.564 317.018 164.72 317.204 164.72H319.246C319.432 164.72 319.583 164.564 319.583 164.371V163.383C319.583 163.19 319.432 163.034 319.246 163.034Z" fill="#E6E6E6"/>
<path d="M324.679 163.034H322.637C322.451 163.034 322.3 163.19 322.3 163.383V164.371C322.3 164.564 322.451 164.72 322.637 164.72H324.679C324.865 164.72 325.016 164.564 325.016 164.371V163.383C325.016 163.19 324.865 163.034 324.679 163.034Z" fill="#E6E6E6"/>
<path d="M243.121 165.845H241.08C240.893 165.845 240.742 166.001 240.742 166.194V167.182C240.742 167.375 240.893 167.532 241.08 167.532H243.121C243.307 167.532 243.459 167.375 243.459 167.182V166.194C243.459 166.001 243.307 165.845 243.121 165.845Z" fill="#E6E6E6"/>
<path d="M248.554 165.845H246.512C246.326 165.845 246.175 166.001 246.175 166.194V167.182C246.175 167.375 246.326 167.532 246.512 167.532H248.554C248.74 167.532 248.891 167.375 248.891 167.182V166.194C248.891 166.001 248.74 165.845 248.554 165.845Z" fill="#E6E6E6"/>
<path d="M253.987 165.845H251.945C251.759 165.845 251.608 166.001 251.608 166.194V167.182C251.608 167.375 251.759 167.532 251.945 167.532H253.987C254.173 167.532 254.324 167.375 254.324 167.182V166.194C254.324 166.001 254.173 165.845 253.987 165.845Z" fill="#E6E6E6"/>
<path d="M259.419 165.845H257.378C257.192 165.845 257.041 166.001 257.041 166.194V167.182C257.041 167.375 257.192 167.532 257.378 167.532H259.419C259.606 167.532 259.757 167.375 259.757 167.182V166.194C259.757 166.001 259.606 165.845 259.419 165.845Z" fill="#E6E6E6"/>
<path d="M264.852 165.845H262.811C262.625 165.845 262.474 166.001 262.474 166.194V167.182C262.474 167.375 262.625 167.532 262.811 167.532H264.852C265.039 167.532 265.19 167.375 265.19 167.182V166.194C265.19 166.001 265.039 165.845 264.852 165.845Z" fill="#E6E6E6"/>
<path d="M270.285 165.845H268.244C268.057 165.845 267.906 166.001 267.906 166.194V167.182C267.906 167.375 268.057 167.532 268.244 167.532H270.285C270.472 167.532 270.623 167.375 270.623 167.182V166.194C270.623 166.001 270.472 165.845 270.285 165.845Z" fill="#E6E6E6"/>
<path d="M275.718 165.845H273.677C273.49 165.845 273.339 166.001 273.339 166.194V167.182C273.339 167.375 273.49 167.532 273.677 167.532H275.718C275.905 167.532 276.056 167.375 276.056 167.182V166.194C276.056 166.001 275.905 165.845 275.718 165.845Z" fill="#E6E6E6"/>
<path d="M281.151 165.845H279.11C278.923 165.845 278.772 166.001 278.772 166.194V167.182C278.772 167.375 278.923 167.532 279.11 167.532H281.151C281.337 167.532 281.488 167.375 281.488 167.182V166.194C281.488 166.001 281.337 165.845 281.151 165.845Z" fill="#E6E6E6"/>
<path d="M286.584 165.845H284.543C284.356 165.845 284.205 166.001 284.205 166.194V167.182C284.205 167.375 284.356 167.532 284.543 167.532H286.584C286.77 167.532 286.922 167.375 286.922 167.182V166.194C286.922 166.001 286.77 165.845 286.584 165.845Z" fill="#E6E6E6"/>
<path d="M292.017 165.845H289.976C289.789 165.845 289.638 166.001 289.638 166.194V167.182C289.638 167.375 289.789 167.532 289.976 167.532H292.017C292.204 167.532 292.355 167.375 292.355 167.182V166.194C292.355 166.001 292.204 165.845 292.017 165.845Z" fill="#E6E6E6"/>
<path d="M297.45 165.845H295.408C295.222 165.845 295.071 166.001 295.071 166.194V167.182C295.071 167.375 295.222 167.532 295.408 167.532H297.45C297.636 167.532 297.787 167.375 297.787 167.182V166.194C297.787 166.001 297.636 165.845 297.45 165.845Z" fill="#E6E6E6"/>
<path d="M302.883 165.845H300.841C300.655 165.845 300.504 166.001 300.504 166.194V167.182C300.504 167.375 300.655 167.532 300.841 167.532H302.883C303.069 167.532 303.22 167.375 303.22 167.182V166.194C303.22 166.001 303.069 165.845 302.883 165.845Z" fill="#E6E6E6"/>
<path d="M308.315 165.845H306.274C306.088 165.845 305.937 166.001 305.937 166.194V167.182C305.937 167.375 306.088 167.532 306.274 167.532H308.315C308.502 167.532 308.653 167.375 308.653 167.182V166.194C308.653 166.001 308.502 165.845 308.315 165.845Z" fill="#E6E6E6"/>
<path d="M313.748 165.845H311.707C311.521 165.845 311.37 166.001 311.37 166.194V167.182C311.37 167.375 311.521 167.532 311.707 167.532H313.748C313.935 167.532 314.086 167.375 314.086 167.182V166.194C314.086 166.001 313.935 165.845 313.748 165.845Z" fill="#E6E6E6"/>
<path d="M319.182 165.845H317.14C316.954 165.845 316.803 166.001 316.803 166.194V167.182C316.803 167.375 316.954 167.532 317.14 167.532H319.182C319.368 167.532 319.519 167.375 319.519 167.182V166.194C319.519 166.001 319.368 165.845 319.182 165.845Z" fill="#E6E6E6"/>
<path d="M324.614 165.845H322.573C322.386 165.845 322.235 166.001 322.235 166.194V167.182C322.235 167.375 322.386 167.532 322.573 167.532H324.614C324.801 167.532 324.952 167.375 324.952 167.182V166.194C324.952 166.001 324.801 165.845 324.614 165.845Z" fill="#E6E6E6"/>
<path d="M288.214 169.219H267.157C266.971 169.219 266.82 169.375 266.82 169.568V170.556C266.82 170.749 266.971 170.905 267.157 170.905H288.214C288.4 170.905 288.551 170.749 288.551 170.556V169.568C288.551 169.375 288.4 169.219 288.214 169.219Z" fill="#E6E6E6"/>
<path d="M348.435 33.3603H209.72C209.416 33.3534 209.174 33.0922 209.181 32.7769C209.187 32.4713 209.425 32.2252 209.72 32.2185H348.435C348.739 32.2254 348.981 32.4867 348.974 32.802C348.968 33.1075 348.73 33.3536 348.435 33.3603Z" fill="#CACACA"/>
<path d="M219.162 29.3035C220.948 29.3035 222.395 27.7722 222.395 25.8832C222.395 23.9941 220.948 22.4628 219.162 22.4628C217.377 22.4628 215.93 23.9941 215.93 25.8832C215.93 27.7722 217.377 29.3035 219.162 29.3035Z" fill="#CCCCCC"/>
<path d="M230.33 29.3035C232.116 29.3035 233.563 27.7722 233.563 25.8832C233.563 23.9941 232.116 22.4628 230.33 22.4628C228.545 22.4628 227.098 23.9941 227.098 25.8832C227.098 27.7722 228.545 29.3035 230.33 29.3035Z" fill="#CCCCCC"/>
<path d="M241.498 29.3035C243.284 29.3035 244.731 27.7722 244.731 25.8832C244.731 23.9941 243.284 22.4628 241.498 22.4628C239.713 22.4628 238.266 23.9941 238.266 25.8832C238.266 27.7722 239.713 29.3035 241.498 29.3035Z" fill="#CCCCCC"/>
<path d="M278.935 42.0169L278.487 40.6621L335.783 9.8512L336.23 11.206L278.935 42.0169Z" fill="#3F3D56"/>
<path d="M451.808 99.0856L451.36 97.7308L485.837 67.0759L486.284 68.43L451.808 99.0856Z" fill="#3F3D56"/>
<path d="M385.57 106.222L328.274 75.4107L328.723 74.0559L386.018 104.867L385.57 106.222Z" fill="#3F3D56"/>
<path d="M414.9 84.7816L381.311 27.71L382.372 26.7917L415.961 83.8634L414.9 84.7816Z" fill="#3F3D56"/>
<path d="M441.113 10.4158L408.401 10.2598V8.82849L441.113 8.98451V10.4158Z" fill="#3F3D56"/>
<path d="M500.372 19.294H463.723C458.758 19.294 454.733 15.1286 454.733 9.99032C454.733 4.85205 458.758 0.686646 463.723 0.686646H500.372C505.337 0.686646 509.361 4.85205 509.361 9.99032C509.361 15.1286 505.337 19.294 500.372 19.294Z" fill="#3D63EA"/>
<path d="M546.011 73.6848H509.361C504.397 73.6848 500.372 69.5193 500.372 64.3811C500.372 59.2428 504.397 55.0774 509.361 55.0774H546.011C550.975 55.0774 555 59.2428 555 64.3811C555 69.5193 550.975 73.6848 546.011 73.6848Z" fill="#3D63EA"/>
<path d="M486.752 112.04L454.039 111.885V110.453L486.752 110.609V112.04Z" fill="#3F3D56"/>
<path d="M546.011 120.919H509.361C504.397 120.919 500.372 116.753 500.372 111.615C500.372 106.477 504.397 102.312 509.361 102.312H546.011C550.975 102.312 555 106.477 555 111.615C555 116.753 550.975 120.919 546.011 120.919Z" fill="#3D63EA"/>
<path d="M438.829 114.507H402.18C397.215 114.507 393.19 110.341 393.19 105.203C393.19 100.065 397.215 95.8994 402.18 95.8994H438.829C443.794 95.8994 447.818 100.065 447.818 105.203C447.818 110.341 443.794 114.507 438.829 114.507Z" fill="#3D63EA"/>
<path d="M389.042 18.6074H352.393C347.428 18.6074 343.403 14.442 343.403 9.30368C343.403 4.1654 347.428 0 352.393 0H389.042C394.007 0 398.031 4.1654 398.031 9.30368C398.031 14.442 394.007 18.6074 389.042 18.6074Z" fill="#3D63EA"/>
<path d="M213.867 178.33H172.377C169.322 178.33 166.845 180.894 166.845 184.056C166.845 187.218 169.322 189.781 172.377 189.781H187.59V234.152H198.654V189.781H213.867C216.922 189.781 219.399 187.218 219.399 184.056C219.399 180.894 216.922 178.33 213.867 178.33Z" fill="#3F3D56"/>
<path d="M241.251 258.726H130.278C108.04 258.642 89.2264 241.693 86.08 218.909L82.1519 203.955C74.0214 172.966 61.637 143.345 45.3774 115.997C37.9457 103.506 34.1206 91.4149 42.8086 79.7735C42.8825 79.6744 42.9553 79.5767 43.0268 79.4803C49.9951 70.0935 84.6785 68.0615 95.9851 67.6662C96.4318 67.6505 96.8802 67.6427 97.3303 67.6428H166.354C166.805 67.6428 167.253 67.6506 167.699 67.6662C180.117 68.0409 191.334 75.4404 196.905 86.9327C202.85 98.6659 202.091 112.829 194.93 123.811C170.684 161.506 163.261 185.142 170.861 200.448C178.212 215.253 200.747 222.823 241.779 224.269C252.806 224.658 257.867 233.544 257.902 241.636C257.937 249.519 253.071 258.222 242.307 258.703C241.957 258.718 241.605 258.726 241.251 258.726Z" fill="#3F3D56"/>
<path d="M149.13 360.709H190.619C193.674 360.709 196.151 358.145 196.151 354.983C196.151 351.821 193.674 349.258 190.619 349.258H175.406V252.643H164.342V349.258H149.13C146.074 349.258 143.598 351.821 143.598 354.983C143.598 358.145 146.074 360.709 149.13 360.709Z" fill="#3F3D56"/>
<path d="M186.682 321.758L193.829 325.776L212.75 298.702L202.2 292.771L186.682 321.758Z" fill="#A0616A"/>
<path d="M190.122 312.111L203.097 316.316L201.032 321.942L209.929 335.306C211.068 337.016 210.652 339.357 209 340.535C208.017 341.236 206.764 341.393 205.648 340.954L190.544 335.014L189.983 328.426L186.923 333.591L181.228 331.352L190.122 312.111Z" fill="#2F2E41"/>
<path d="M204.74 48.7195C205.381 53.2621 202.342 57.4817 197.952 58.1443C197.484 58.2149 197.011 58.2427 196.539 58.2271L168.982 118.912L160.339 106.439L188.707 49.0555C189.142 44.4621 193.094 41.1041 197.532 41.5551C201.246 41.9326 204.226 44.8945 204.74 48.7195Z" fill="#A0616A"/>
<path d="M113.29 131.182C113.29 131.182 112.552 141.784 124.137 143.863C135.721 145.943 166.69 125.675 171.777 122.562C176.863 119.45 186.341 80.2947 186.341 80.2947L178.098 65.8655C167.921 79.189 159.929 91.4749 159.444 100.196L113.29 131.182Z" fill="#3D63EA"/>
<path d="M126.665 167.7L129.167 178.826C129.167 178.826 129.191 189.085 130.947 190.977C132.69 192.86 171.022 189.079 171.022 189.079C171.022 189.079 166.958 172.548 167.012 160.039L126.665 167.7Z" fill="#A0616A"/>
<path d="M207.643 310.013L193.813 302.141C193.55 283.516 204.375 258.311 217.213 231.911C188.5 237.021 161.412 238.659 137.983 232.476C129.979 230.289 125.155 221.856 127.152 213.541C127.243 213.149 127.349 212.761 127.468 212.377C130.272 203.522 123.985 197.972 129.768 188.233C144.978 182.857 159.427 181.338 172.64 186.086L180.919 205.03L221.954 199.535C230.252 198.508 237.783 204.638 238.775 213.225C238.779 213.264 238.783 213.303 238.788 213.343C238.843 213.804 238.879 214.267 238.896 214.731C230.598 254.99 221.295 291.214 207.643 310.013Z" fill="#2F2E41"/>
<path d="M121.094 97.2622L136.903 96.2962C138.269 96.2127 139.536 97.0356 140.058 98.3453L144.526 109.554L163.093 125.436C163.093 125.436 170.444 135.118 170.461 147.621C170.478 160.125 173.069 189.065 173.069 189.065C173.069 189.065 162.34 173.436 155.718 177.593C154.592 178.3 154.196 179.746 153.015 180.477C152.427 180.842 151.067 180.487 150.473 180.853C141.348 186.459 131.831 191.936 130.942 190.975C129.196 189.09 127.079 179.455 127.079 179.455L112.608 124.429C111.02 118.567 112.047 112.277 115.408 107.281C116.419 105.808 117.479 104.712 118.463 104.53C120.673 104.043 119.497 98.9167 121.094 97.2622Z" fill="#3D63EA"/>
<path d="M255.568 345.066L262.241 340.265L247.125 310.748L237.276 317.834L255.568 345.066Z" fill="#A0616A"/>
<path d="M256.577 325.261L246.119 334.936C229.49 315.759 216.919 288.864 206.266 258.322C178.353 249.861 157.303 236.216 138.927 220.014C132.693 214.555 128.02 207.541 133.337 200.891C133.585 200.58 133.845 200.279 134.115 199.989C140.393 193.312 156.313 194.584 165.637 188.467L186.465 211.509L185.155 217.686L224.278 231.402C232.154 234.259 236.301 243.182 233.54 251.333C233.527 251.373 233.513 251.413 233.499 251.453C233.353 251.892 233.188 252.324 233.006 252.749L256.577 325.261Z" fill="#2F2E41"/>
<path d="M251.678 343.12L262.36 334.414L265.679 339.355L281.36 339.306C283.366 339.299 284.998 340.977 285.004 343.053C285.008 344.289 284.425 345.447 283.445 346.152L270.177 355.697L264.607 352.455L266.997 357.985L261.995 361.584L251.678 343.12Z" fill="#2F2E41"/>
<path d="M144.438 235.936C140.355 234.143 138.45 229.263 140.183 225.037C140.368 224.587 140.59 224.154 140.849 223.744L105.061 167.849L119.849 166.686L152.49 221.582C156.056 224.354 156.776 229.592 154.098 233.283C151.857 236.371 147.863 237.468 144.438 235.936Z" fill="#A0616A"/>
<path d="M123.861 112.224C123.861 112.224 115.492 106.064 107.757 115.229C100.022 124.394 100.668 162.31 100.596 168.425C100.573 170.339 103.244 174.471 106.925 179.243C108.577 181.386 110.433 183.657 112.34 185.915C113.443 187.222 112.492 189.942 113.6 191.212C114.702 192.475 117.863 192.289 118.911 193.461C123.886 199.026 127.927 203.262 127.927 203.262L144.122 203.468C144.305 191.008 136.06 179.886 125.468 169.137L123.861 112.224Z" fill="#3D63EA"/>
<path d="M107.537 57.9746C106.004 59.12 104.391 60.2999 102.52 60.5837C100.649 60.8676 98.4586 59.9315 97.9408 58.0493C97.3077 55.7479 99.3157 53.6524 101.12 52.1567L106.843 47.414C107.891 46.4521 109.074 45.6604 110.352 45.0661C111.652 44.4741 113.141 44.5256 114.4 45.2062C115.651 46.0802 116.374 47.563 116.311 49.1234C116.229 50.6615 115.739 52.1465 114.893 53.4144C112.747 56.8773 109.327 59.2831 105.426 60.0749" fill="#2F2E41"/>
<path d="M150.941 181.193H109.451C106.396 181.193 103.919 183.756 103.919 186.918C103.919 190.08 106.396 192.644 109.451 192.644H124.664V237.015H135.728V192.644H150.941C153.996 192.644 156.473 190.08 156.473 186.918C156.473 183.756 153.996 181.193 150.941 181.193Z" fill="#3F3D56"/>
<path d="M110.079 45.9627C110.246 41.67 105.826 38.271 101.684 38.5397C97.5427 38.8084 93.9824 41.8235 91.6337 45.3656C89.2856 48.9046 87.8751 53.0039 86.0253 56.8465C84.1755 60.6891 81.7121 64.4514 78.0363 66.4427C74.3612 68.431 69.2455 68.0762 66.7053 64.6814C65.1034 67.1957 64.755 70.3495 65.7672 73.173C66.8071 75.9601 68.7465 78.2891 71.2564 79.765C72.2555 80.3782 73.3226 80.8638 74.4345 81.2114C74.893 79.9306 75.5381 78.7299 76.3474 77.651C75.9818 78.9283 75.8423 80.2634 75.9355 81.592C77.6493 81.932 79.4124 81.9032 81.115 81.5075C84.505 80.7227 87.3394 78.3303 88.7641 75.0513C90.3175 71.2456 89.5263 66.9064 89.8585 62.7896C90.1879 58.6721 92.5853 53.9716 96.5771 53.9045C99.6171 53.8528 99.2147 54.1122 101.141 56.5466" fill="#2F2E41"/>
<path d="M137.684 68.5193C137.684 78.7959 129.635 87.1267 119.705 87.1267C109.776 87.1267 100.344 75.2176 100.344 64.941C100.344 54.6644 109.776 49.912 119.705 49.912C129.635 49.912 137.684 58.2428 137.684 68.5193Z" fill="#2F2E41"/>
<path d="M128.565 90.8181C137.846 88.8527 143.83 79.4728 141.931 69.8676C140.032 60.2623 130.969 54.069 121.688 56.0344C112.407 57.9999 106.423 67.3797 108.322 76.985C110.221 86.5902 119.284 92.7835 128.565 90.8181Z" fill="#A0616A"/>
<path d="M146.673 70.6664C141.596 72.1013 136.469 73.6054 134.489 70.6664C134.104 68.7176 133.375 66.8591 132.339 65.1844C132.144 67.0599 131.718 68.9021 131.073 70.6664C124.658 72.1095 118.663 72.4545 113.482 70.6664C112.769 71.9999 112.356 73.4821 112.272 75.0033C112.015 74.8368 111.747 74.6908 111.469 74.5668C111.136 74.3718 110.738 74.3353 110.377 74.4666C110.127 74.6226 109.961 74.8895 109.927 75.1894C109.893 75.4879 109.907 75.7903 109.969 76.084C110.041 77.1076 110.337 78.101 110.833 78.9896C111.23 79.6085 111.86 80.0265 112.569 80.1418C113.288 84.3285 119.014 89.9894 119.014 89.9894C101.726 90.7051 101.726 78.5674 101.726 67.088L103.801 62.794H110.716V53.4904H130.078C139.242 53.4928 146.671 61.1813 146.673 70.6664Z" fill="#2F2E41"/>
<path d="M304.22 362.78L0.827646 363C0.372927 363.002 0.00238326 362.623 1.14412e-05 362.152C-0.00236038 361.682 0.364338 361.298 0.819057 361.296H0.827646L304.22 361.076C304.675 361.077 305.042 361.46 305.041 361.931C305.039 362.399 304.673 362.779 304.22 362.78Z" fill="#CACACA"/>
<path d="M506.828 362.78L350.032 363C349.577 363.002 349.206 362.623 349.204 362.152C349.202 361.682 349.568 361.298 350.023 361.296H350.032L506.828 361.076C507.283 361.074 507.652 361.455 507.654 361.925C507.655 362.396 507.288 362.779 506.833 362.78H506.828Z" fill="#CACACA"/>
<path d="M311.154 105.919H251.718C246.556 105.913 242.372 101.583 242.367 96.2405V55.481C242.372 50.1383 246.556 45.8087 251.718 45.8027H311.154C316.316 45.8087 320.5 50.1383 320.505 55.481V96.2405C320.5 101.583 316.316 105.913 311.154 105.919ZM251.718 47.234C247.319 47.2392 243.755 50.9285 243.75 55.481V96.2405C243.755 100.793 247.319 104.482 251.718 104.487H311.154C315.553 104.482 319.117 100.793 319.122 96.2405V55.481C319.117 50.9285 315.553 47.2393 311.154 47.2341L251.718 47.234Z" fill="#E6E6E6"/>
<path d="M269.329 58.6847H253.431V60.116H269.329V58.6847Z" fill="#E6E6E6"/>
<path d="M288.697 64.41H253.431V65.8414H288.697V64.41Z" fill="#E6E6E6"/>
<path d="M288.697 69.4198H253.431V70.8511H288.697V69.4198Z" fill="#E6E6E6"/>
<path d="M298.378 74.4294H253.431V75.8608H298.378V74.4294Z" fill="#E6E6E6"/>
<path d="M276.941 79.4391H253.431V80.8704H276.941V79.4391Z" fill="#E6E6E6"/>
<path d="M296.303 84.4487H253.431V85.8801H296.303V84.4487Z" fill="#E6E6E6"/>
<path d="M261.037 89.4585H253.431V90.8898H261.037V89.4585Z" fill="#E6E6E6"/>
<path d="M252.913 27.8812C252.846 27.8812 252.779 27.8543 252.728 27.8007L251.252 26.2397C251.154 26.1357 251.154 25.9695 251.252 25.8655L252.728 24.3046C252.828 24.199 252.992 24.1973 253.094 24.3004C253.196 24.4038 253.197 24.5733 253.098 24.6788L251.799 26.0526L253.098 27.4265C253.197 27.532 253.196 27.7015 253.094 27.8049C253.043 27.8558 252.978 27.8812 252.913 27.8812Z" fill="#CCCCCC"/>
<path d="M255.392 27.8813C255.327 27.8813 255.261 27.8559 255.211 27.805C255.109 27.7016 255.107 27.5322 255.207 27.4265L256.505 26.0527L255.207 24.6789C255.107 24.5733 255.109 24.4039 255.211 24.3005C255.313 24.197 255.477 24.199 255.577 24.3047L257.052 25.8655C257.15 25.9696 257.15 26.1358 257.052 26.2398L255.577 27.8008C255.526 27.8543 255.459 27.8813 255.392 27.8813Z" fill="#CCCCCC"/>
<path d="M332.579 24.007H329.835C329.522 24.007 329.269 24.2692 329.269 24.593V27.4351C329.269 27.7589 329.522 28.0212 329.835 28.0212H332.579C332.892 28.0212 333.148 27.7589 333.148 27.4351V24.593C333.148 24.2692 332.892 24.007 332.579 24.007Z" fill="#CCCCCC"/>
<path d="M325.856 24.007H323.113C322.8 24.007 322.546 24.2692 322.546 24.593V27.4351C322.546 27.7589 322.8 28.0212 323.113 28.0212H325.856C326.169 28.0212 326.425 27.7589 326.425 27.4351V24.593C326.425 24.2692 326.169 24.007 325.856 24.007Z" fill="#CCCCCC"/>
<path d="M338.914 24.1407H336.17C335.857 24.1407 335.604 24.403 335.604 24.7268V27.5689C335.604 27.8927 335.857 28.1549 336.17 28.1549H338.914C339.227 28.1549 339.483 27.8927 339.483 27.5689V24.7268C339.483 24.403 339.227 24.1407 338.914 24.1407Z" fill="#CCCCCC"/>
<path d="M297.562 25.2219H275.633C275.25 25.2219 274.942 25.5431 274.942 25.9365C274.942 26.3299 275.25 26.651 275.633 26.651H297.562C297.942 26.651 298.253 26.3298 298.253 25.9365C298.253 25.5431 297.942 25.2219 297.562 25.2219Z" fill="#CCCCCC"/>
<path d="M218.278 54.6847C217.772 54.6847 217.317 54.5967 216.914 54.4207C216.518 54.2373 216.206 53.988 215.979 53.6727C215.752 53.35 215.634 52.9797 215.627 52.5617H216.694C216.731 52.921 216.877 53.2253 217.134 53.4747C217.398 53.7167 217.779 53.8377 218.278 53.8377C218.755 53.8377 219.129 53.7203 219.4 53.4857C219.679 53.2437 219.818 52.9357 219.818 52.5617C219.818 52.2683 219.737 52.03 219.576 51.8467C219.415 51.6633 219.213 51.524 218.971 51.4287C218.729 51.3333 218.403 51.2307 217.992 51.1207C217.486 50.9887 217.079 50.8567 216.771 50.7247C216.47 50.5927 216.21 50.3873 215.99 50.1087C215.777 49.8227 215.671 49.4413 215.671 48.9647C215.671 48.5467 215.777 48.1763 215.99 47.8537C216.203 47.531 216.5 47.2817 216.881 47.1057C217.27 46.9297 217.713 46.8417 218.212 46.8417C218.931 46.8417 219.517 47.0213 219.972 47.3807C220.434 47.74 220.694 48.2167 220.753 48.8107H219.653C219.616 48.5173 219.462 48.2607 219.191 48.0407C218.92 47.8133 218.56 47.6997 218.113 47.6997C217.695 47.6997 217.354 47.8097 217.09 48.0297C216.826 48.2423 216.694 48.543 216.694 48.9317C216.694 49.2103 216.771 49.4377 216.925 49.6137C217.086 49.7897 217.281 49.9253 217.508 50.0207C217.743 50.1087 218.069 50.2113 218.487 50.3287C218.993 50.468 219.4 50.6073 219.708 50.7467C220.016 50.8787 220.28 51.0877 220.5 51.3737C220.72 51.6523 220.83 52.0337 220.83 52.5177C220.83 52.8917 220.731 53.2437 220.533 53.5737C220.335 53.9037 220.042 54.1713 219.653 54.3767C219.264 54.582 218.806 54.6847 218.278 54.6847ZM224.932 54.7067C224.367 54.7067 223.854 54.5783 223.392 54.3217C222.937 54.065 222.578 53.702 222.314 53.2327C222.057 52.756 221.929 52.206 221.929 51.5827C221.929 50.9667 222.061 50.424 222.325 49.9547C222.596 49.478 222.963 49.115 223.425 48.8657C223.887 48.609 224.404 48.4807 224.976 48.4807C225.548 48.4807 226.065 48.609 226.527 48.8657C226.989 49.115 227.352 49.4743 227.616 49.9437C227.887 50.413 228.023 50.9593 228.023 51.5827C228.023 52.206 227.884 52.756 227.605 53.2327C227.334 53.702 226.963 54.065 226.494 54.3217C226.025 54.5783 225.504 54.7067 224.932 54.7067ZM224.932 53.8267C225.291 53.8267 225.629 53.7423 225.944 53.5737C226.259 53.405 226.512 53.152 226.703 52.8147C226.901 52.4773 227 52.0667 227 51.5827C227 51.0987 226.905 50.688 226.714 50.3507C226.523 50.0133 226.274 49.764 225.966 49.6027C225.658 49.434 225.324 49.3497 224.965 49.3497C224.598 49.3497 224.261 49.434 223.953 49.6027C223.652 49.764 223.41 50.0133 223.227 50.3507C223.044 50.688 222.952 51.0987 222.952 51.5827C222.952 52.074 223.04 52.4883 223.216 52.8257C223.399 53.163 223.641 53.416 223.942 53.5847C224.243 53.746 224.573 53.8267 224.932 53.8267ZM231.792 49.4047H230.527V54.6077H229.526V49.4047H228.745V48.5797H229.526V48.1507C229.526 47.476 229.699 46.9847 230.043 46.6767C230.395 46.3613 230.956 46.2037 231.726 46.2037V47.0397C231.286 47.0397 230.975 47.1277 230.791 47.3037C230.615 47.4723 230.527 47.7547 230.527 48.1507V48.5797H231.792V49.4047ZM234.18 49.4047V52.9577C234.18 53.251 234.243 53.46 234.367 53.5847C234.492 53.702 234.708 53.7607 235.016 53.7607H235.753V54.6077H234.851C234.294 54.6077 233.876 54.4793 233.597 54.2227C233.319 53.966 233.179 53.5443 233.179 52.9577V49.4047H232.398V48.5797H233.179V47.0617H234.18V48.5797H235.753V49.4047H234.18ZM244.996 48.5797L243.115 54.6077H242.081L240.629 49.8227L239.177 54.6077H238.143L236.251 48.5797H237.274L238.66 53.6397L240.156 48.5797H241.179L242.642 53.6507L244.006 48.5797H244.996ZM245.616 51.5717C245.616 50.9557 245.74 50.4167 245.99 49.9547C246.239 49.4853 246.58 49.1223 247.013 48.8657C247.453 48.609 247.94 48.4807 248.476 48.4807C249.004 48.4807 249.462 48.5943 249.851 48.8217C250.239 49.049 250.529 49.335 250.72 49.6797V48.5797H251.732V54.6077H250.72V53.4857C250.522 53.8377 250.225 54.131 249.829 54.3657C249.44 54.593 248.985 54.7067 248.465 54.7067C247.929 54.7067 247.445 54.5747 247.013 54.3107C246.58 54.0467 246.239 53.6763 245.99 53.1997C245.74 52.723 245.616 52.1803 245.616 51.5717ZM250.72 51.5827C250.72 51.128 250.628 50.732 250.445 50.3947C250.261 50.0573 250.012 49.8007 249.697 49.6247C249.389 49.4413 249.048 49.3497 248.674 49.3497C248.3 49.3497 247.959 49.4377 247.651 49.6137C247.343 49.7897 247.097 50.0463 246.914 50.3837C246.73 50.721 246.639 51.117 246.639 51.5717C246.639 52.0337 246.73 52.437 246.914 52.7817C247.097 53.119 247.343 53.3793 247.651 53.5627C247.959 53.7387 248.3 53.8267 248.674 53.8267C249.048 53.8267 249.389 53.7387 249.697 53.5627C250.012 53.3793 250.261 53.119 250.445 52.7817C250.628 52.437 250.72 52.0373 250.72 51.5827ZM254.424 49.5587C254.6 49.214 254.85 48.9463 255.172 48.7557C255.502 48.565 255.902 48.4697 256.371 48.4697V49.5037H256.107C254.985 49.5037 254.424 50.1123 254.424 51.3297V54.6077H253.423V48.5797H254.424V49.5587ZM263.027 51.3627C263.027 51.5533 263.016 51.755 262.994 51.9677H258.176C258.212 52.5617 258.414 53.0273 258.781 53.3647C259.155 53.6947 259.606 53.8597 260.134 53.8597C260.566 53.8597 260.926 53.7607 261.212 53.5627C261.505 53.3573 261.71 53.086 261.828 52.7487H262.906C262.744 53.328 262.422 53.801 261.938 54.1677C261.454 54.527 260.852 54.7067 260.134 54.7067C259.562 54.7067 259.048 54.5783 258.594 54.3217C258.146 54.065 257.794 53.702 257.538 53.2327C257.281 52.756 257.153 52.206 257.153 51.5827C257.153 50.9593 257.277 50.413 257.527 49.9437C257.776 49.4743 258.124 49.115 258.572 48.8657C259.026 48.609 259.547 48.4807 260.134 48.4807C260.706 48.4807 261.212 48.6053 261.652 48.8547C262.092 49.104 262.429 49.4487 262.664 49.8887C262.906 50.3213 263.027 50.8127 263.027 51.3627ZM261.993 51.1537C261.993 50.7723 261.908 50.446 261.74 50.1747C261.571 49.896 261.34 49.687 261.047 49.5477C260.761 49.401 260.442 49.3277 260.09 49.3277C259.584 49.3277 259.151 49.489 258.792 49.8117C258.44 50.1343 258.238 50.5817 258.187 51.1537H261.993ZM269.668 46.9407C270.504 46.9407 271.226 47.0983 271.835 47.4137C272.451 47.7217 272.92 48.1653 273.243 48.7447C273.573 49.324 273.738 50.006 273.738 50.7907C273.738 51.5753 273.573 52.2573 273.243 52.8367C272.92 53.4087 272.451 53.8487 271.835 54.1567C271.226 54.4573 270.504 54.6077 269.668 54.6077H267.281V46.9407H269.668ZM269.668 53.7827C270.658 53.7827 271.413 53.5223 271.934 53.0017C272.454 52.4737 272.715 51.7367 272.715 50.7907C272.715 49.8373 272.451 49.093 271.923 48.5577C271.402 48.0223 270.65 47.7547 269.668 47.7547H268.282V53.7827H269.668ZM280.558 51.3627C280.558 51.5533 280.547 51.755 280.525 51.9677H275.707C275.744 52.5617 275.945 53.0273 276.312 53.3647C276.686 53.6947 277.137 53.8597 277.665 53.8597C278.098 53.8597 278.457 53.7607 278.743 53.5627C279.036 53.3573 279.242 53.086 279.359 52.7487H280.437C280.276 53.328 279.953 53.801 279.469 54.1677C278.985 54.527 278.384 54.7067 277.665 54.7067C277.093 54.7067 276.58 54.5783 276.125 54.3217C275.678 54.065 275.326 53.702 275.069 53.2327C274.812 52.756 274.684 52.206 274.684 51.5827C274.684 50.9593 274.809 50.413 275.058 49.9437C275.307 49.4743 275.656 49.115 276.103 48.8657C276.558 48.609 277.078 48.4807 277.665 48.4807C278.237 48.4807 278.743 48.6053 279.183 48.8547C279.623 49.104 279.96 49.4487 280.195 49.8887C280.437 50.3213 280.558 50.8127 280.558 51.3627ZM279.524 51.1537C279.524 50.7723 279.44 50.446 279.271 50.1747C279.102 49.896 278.871 49.687 278.578 49.5477C278.292 49.401 277.973 49.3277 277.621 49.3277C277.115 49.3277 276.682 49.489 276.323 49.8117C275.971 50.1343 275.769 50.5817 275.718 51.1537H279.524ZM284.123 53.6837L285.993 48.5797H287.06L284.695 54.6077H283.529L281.164 48.5797H282.242L284.123 53.6837ZM293.545 51.3627C293.545 51.5533 293.534 51.755 293.512 51.9677H288.694C288.731 52.5617 288.933 53.0273 289.299 53.3647C289.673 53.6947 290.124 53.8597 290.652 53.8597C291.085 53.8597 291.444 53.7607 291.73 53.5627C292.024 53.3573 292.229 53.086 292.346 52.7487H293.424C293.263 53.328 292.94 53.801 292.456 54.1677C291.972 54.527 291.371 54.7067 290.652 54.7067C290.08 54.7067 289.567 54.5783 289.112 54.3217C288.665 54.065 288.313 53.702 288.056 53.2327C287.8 52.756 287.671 52.206 287.671 51.5827C287.671 50.9593 287.796 50.413 288.045 49.9437C288.295 49.4743 288.643 49.115 289.09 48.8657C289.545 48.609 290.066 48.4807 290.652 48.4807C291.224 48.4807 291.73 48.6053 292.17 48.8547C292.61 49.104 292.948 49.4487 293.182 49.8887C293.424 50.3213 293.545 50.8127 293.545 51.3627ZM292.511 51.1537C292.511 50.7723 292.427 50.446 292.258 50.1747C292.09 49.896 291.859 49.687 291.565 49.5477C291.279 49.401 290.96 49.3277 290.608 49.3277C290.102 49.3277 289.67 49.489 289.31 49.8117C288.958 50.1343 288.757 50.5817 288.705 51.1537H292.511ZM295.868 46.4677V54.6077H294.867V46.4677H295.868ZM300.203 54.7067C299.638 54.7067 299.125 54.5783 298.663 54.3217C298.208 54.065 297.849 53.702 297.585 53.2327C297.328 52.756 297.2 52.206 297.2 51.5827C297.2 50.9667 297.332 50.424 297.596 49.9547C297.867 49.478 298.234 49.115 298.696 48.8657C299.158 48.609 299.675 48.4807 300.247 48.4807C300.819 48.4807 301.336 48.609 301.798 48.8657C302.26 49.115 302.623 49.4743 302.887 49.9437C303.158 50.413 303.294 50.9593 303.294 51.5827C303.294 52.206 303.154 52.756 302.876 53.2327C302.604 53.702 302.234 54.065 301.765 54.3217C301.295 54.5783 300.775 54.7067 300.203 54.7067ZM300.203 53.8267C300.562 53.8267 300.899 53.7423 301.215 53.5737C301.53 53.405 301.783 53.152 301.974 52.8147C302.172 52.4773 302.271 52.0667 302.271 51.5827C302.271 51.0987 302.175 50.688 301.985 50.3507C301.794 50.0133 301.545 49.764 301.237 49.6027C300.929 49.434 300.595 49.3497 300.236 49.3497C299.869 49.3497 299.532 49.434 299.224 49.6027C298.923 49.764 298.681 50.0133 298.498 50.3507C298.314 50.688 298.223 51.0987 298.223 51.5827C298.223 52.074 298.311 52.4883 298.487 52.8257C298.67 53.163 298.912 53.416 299.213 53.5847C299.513 53.746 299.843 53.8267 300.203 53.8267ZM305.611 49.6907C305.809 49.346 306.102 49.06 306.491 48.8327C306.887 48.598 307.345 48.4807 307.866 48.4807C308.401 48.4807 308.885 48.609 309.318 48.8657C309.758 49.1223 310.102 49.4853 310.352 49.9547C310.601 50.4167 310.726 50.9557 310.726 51.5717C310.726 52.1803 310.601 52.723 310.352 53.1997C310.102 53.6763 309.758 54.0467 309.318 54.3107C308.885 54.5747 308.401 54.7067 307.866 54.7067C307.352 54.7067 306.898 54.593 306.502 54.3657C306.113 54.131 305.816 53.8413 305.611 53.4967V57.4677H304.61V48.5797H305.611V49.6907ZM309.703 51.5717C309.703 51.117 309.611 50.721 309.428 50.3837C309.244 50.0463 308.995 49.7897 308.68 49.6137C308.372 49.4377 308.031 49.3497 307.657 49.3497C307.29 49.3497 306.949 49.4413 306.634 49.6247C306.326 49.8007 306.076 50.061 305.886 50.4057C305.702 50.743 305.611 51.1353 305.611 51.5827C305.611 52.0373 305.702 52.437 305.886 52.7817C306.076 53.119 306.326 53.3793 306.634 53.5627C306.949 53.7387 307.29 53.8267 307.657 53.8267C308.031 53.8267 308.372 53.7387 308.68 53.5627C308.995 53.3793 309.244 53.119 309.428 52.7817C309.611 52.437 309.703 52.0337 309.703 51.5717ZM319.292 48.4697C319.762 48.4697 320.18 48.5687 320.546 48.7667C320.913 48.9573 321.203 49.247 321.415 49.6357C321.628 50.0243 321.734 50.4973 321.734 51.0547V54.6077H320.744V51.1977C320.744 50.5963 320.594 50.138 320.293 49.8227C320 49.5 319.6 49.3387 319.094 49.3387C318.574 49.3387 318.159 49.5073 317.851 49.8447C317.543 50.1747 317.389 50.655 317.389 51.2857V54.6077H316.399V51.1977C316.399 50.5963 316.249 50.138 315.948 49.8227C315.655 49.5 315.255 49.3387 314.749 49.3387C314.229 49.3387 313.814 49.5073 313.506 49.8447C313.198 50.1747 313.044 50.655 313.044 51.2857V54.6077H312.043V48.5797H313.044V49.4487C313.242 49.1333 313.506 48.8913 313.836 48.7227C314.174 48.554 314.544 48.4697 314.947 48.4697C315.453 48.4697 315.901 48.5833 316.289 48.8107C316.678 49.038 316.968 49.3717 317.158 49.8117C317.327 49.3863 317.606 49.0563 317.994 48.8217C318.383 48.587 318.816 48.4697 319.292 48.4697ZM328.876 51.3627C328.876 51.5533 328.865 51.755 328.843 51.9677H324.025C324.062 52.5617 324.264 53.0273 324.63 53.3647C325.004 53.6947 325.455 53.8597 325.983 53.8597C326.416 53.8597 326.775 53.7607 327.061 53.5627C327.355 53.3573 327.56 53.086 327.677 52.7487H328.755C328.594 53.328 328.271 53.801 327.787 54.1677C327.303 54.527 326.702 54.7067 325.983 54.7067C325.411 54.7067 324.898 54.5783 324.443 54.3217C323.996 54.065 323.644 53.702 323.387 53.2327C323.131 52.756 323.002 52.206 323.002 51.5827C323.002 50.9593 323.127 50.413 323.376 49.9437C323.626 49.4743 323.974 49.115 324.421 48.8657C324.876 48.609 325.397 48.4807 325.983 48.4807C326.555 48.4807 327.061 48.6053 327.501 48.8547C327.941 49.104 328.279 49.4487 328.513 49.8887C328.755 50.3213 328.876 50.8127 328.876 51.3627ZM327.842 51.1537C327.842 50.7723 327.758 50.446 327.589 50.1747C327.421 49.896 327.19 49.687 326.896 49.5477C326.61 49.401 326.291 49.3277 325.939 49.3277C325.433 49.3277 325.001 49.489 324.641 49.8117C324.289 50.1343 324.088 50.5817 324.036 51.1537H327.842ZM333.135 48.4697C333.868 48.4697 334.462 48.6933 334.917 49.1407C335.371 49.5807 335.599 50.2187 335.599 51.0547V54.6077H334.609V51.1977C334.609 50.5963 334.458 50.138 334.158 49.8227C333.857 49.5 333.446 49.3387 332.926 49.3387C332.398 49.3387 331.976 49.5037 331.661 49.8337C331.353 50.1637 331.199 50.644 331.199 51.2747V54.6077H330.198V48.5797H331.199V49.4377C331.397 49.1297 331.664 48.8913 332.002 48.7227C332.346 48.554 332.724 48.4697 333.135 48.4697ZM338.455 49.4047V52.9577C338.455 53.251 338.517 53.46 338.642 53.5847C338.766 53.702 338.983 53.7607 339.291 53.7607H340.028V54.6077H339.126C338.568 54.6077 338.15 54.4793 337.872 54.2227C337.593 53.966 337.454 53.5443 337.454 52.9577V49.4047H336.673V48.5797H337.454V47.0617H338.455V48.5797H340.028V49.4047H338.455Z" fill="black"/>
</g>
<defs>
<clipPath id="clip0_281_4829">
<rect width="555" height="363" fill="white"/>
</clipPath>
</defs>
</svg>
