<svg width="1128" height="816" viewBox="0 0 1128 816" fill="none" xmlns="http://www.w3.org/2000/svg">
<g opacity="0.3" clip-path="url(#clip0_334_5567)">
<path d="M282.269 556.529C294.552 556.529 304.51 544.702 304.51 530.113C304.51 515.523 294.552 503.696 282.269 503.696C269.985 503.696 260.027 515.523 260.027 530.113C260.027 544.702 269.985 556.529 282.269 556.529Z" fill="#A7233A" fill-opacity="0.3"/>
<path d="M504.683 605.449C511.052 605.449 516.216 599.316 516.216 591.751C516.216 584.186 511.052 578.054 504.683 578.054C498.314 578.054 493.15 584.186 493.15 591.751C493.15 599.316 498.314 605.449 504.683 605.449Z" fill="#A7233A" fill-opacity="0.3"/>
<path d="M442.901 582.946C449.725 582.946 455.258 576.375 455.258 568.27C455.258 560.165 449.725 553.594 442.901 553.594C436.077 553.594 430.545 560.165 430.545 568.27C430.545 576.375 436.077 582.946 442.901 582.946Z" fill="#A7233A" fill-opacity="0.3"/>
<path d="M625.776 554.572C636.695 554.572 645.546 544.059 645.546 531.091C645.546 518.123 636.695 507.61 625.776 507.61C614.857 507.61 606.006 518.123 606.006 531.091C606.006 544.059 614.857 554.572 625.776 554.572Z" fill="#A7233A" fill-opacity="0.3"/>
<path d="M909.148 433.253C916.883 433.253 923.152 425.806 923.152 416.62C923.152 407.434 916.883 399.988 909.148 399.988C901.414 399.988 895.145 407.434 895.145 416.62C895.145 425.806 901.414 433.253 909.148 433.253Z" fill="#A7233A" fill-opacity="0.3"/>
<path d="M878.67 161.264C886.404 161.264 892.674 153.817 892.674 144.631C892.674 135.445 886.404 127.999 878.67 127.999C870.936 127.999 864.666 135.445 864.666 144.631C864.666 153.817 870.936 161.264 878.67 161.264Z" fill="#A7233A" fill-opacity="0.3"/>
<path d="M360.526 252.253C371.445 252.253 380.296 241.74 380.296 228.772C380.296 215.803 371.445 205.291 360.526 205.291C349.607 205.291 340.756 215.803 340.756 228.772C340.756 241.74 349.607 252.253 360.526 252.253Z" fill="#A7233A" fill-opacity="0.3"/>
<path d="M666.963 229.75C674.242 229.75 680.143 222.741 680.143 214.096C680.143 205.45 674.242 198.441 666.963 198.441C659.684 198.441 653.783 205.45 653.783 214.096C653.783 222.741 659.684 229.75 666.963 229.75Z" fill="#A7233A" fill-opacity="0.3"/>
<path d="M443.726 648.497C454.189 648.497 462.672 638.422 462.672 625.994C462.672 613.566 454.189 603.491 443.726 603.491C433.262 603.491 424.779 613.566 424.779 625.994C424.779 638.422 433.262 648.497 443.726 648.497Z" fill="#A7233A" fill-opacity="0.3"/>
<path d="M788.88 455.756C799.344 455.756 807.826 445.681 807.826 433.253C807.826 420.825 799.344 410.751 788.88 410.751C778.416 410.751 769.934 420.825 769.934 433.253C769.934 445.681 778.416 455.756 788.88 455.756Z" fill="#A7233A" fill-opacity="0.3"/>
<path d="M746.867 576.097C756.421 576.097 764.166 566.898 764.166 555.551C764.166 544.204 756.421 535.005 746.867 535.005C737.313 535.005 729.568 544.204 729.568 555.551C729.568 566.898 737.313 576.097 746.867 576.097Z" fill="#A7233A" fill-opacity="0.3"/>
<path d="M474.205 240.511C485.579 240.511 494.799 229.56 494.799 216.052C494.799 202.543 485.579 191.592 474.205 191.592C462.832 191.592 453.611 202.543 453.611 216.052C453.611 229.56 462.832 240.511 474.205 240.511Z" fill="#A7233A" fill-opacity="0.3"/>
<path d="M468.438 439.123C475.717 439.123 481.618 432.115 481.618 423.469C481.618 414.824 475.717 407.815 468.438 407.815C461.159 407.815 455.258 414.824 455.258 423.469C455.258 432.115 461.159 439.123 468.438 439.123Z" fill="#A7233A" fill-opacity="0.3"/>
<path d="M218.016 423.469C224.841 423.469 230.373 416.899 230.373 408.794C230.373 400.689 224.841 394.118 218.016 394.118C211.192 394.118 205.66 400.689 205.66 408.794C205.66 416.899 211.192 423.469 218.016 423.469Z" fill="#A7233A" fill-opacity="0.3"/>
<path d="M769.109 370.637C775.478 370.637 780.641 364.504 780.641 356.939C780.641 349.374 775.478 343.242 769.109 343.242C762.739 343.242 757.576 349.374 757.576 356.939C757.576 364.504 762.739 370.637 769.109 370.637Z" fill="#A7233A" fill-opacity="0.3"/>
<path d="M540.928 477.28C551.847 477.28 560.699 466.767 560.699 453.799C560.699 440.83 551.847 430.317 540.928 430.317C530.01 430.317 521.158 440.83 521.158 453.799C521.158 466.767 530.01 477.28 540.928 477.28Z" fill="#A7233A" fill-opacity="0.3"/>
<path d="M604.357 372.594C613.911 372.594 621.656 363.395 621.656 352.048C621.656 340.701 613.911 331.502 604.357 331.502C594.804 331.502 587.059 340.701 587.059 352.048C587.059 363.395 594.804 372.594 604.357 372.594Z" fill="#A7233A" fill-opacity="0.3"/>
<path d="M860.547 467.497C866.461 467.497 871.256 461.803 871.256 454.778C871.256 447.754 866.461 442.059 860.547 442.059C854.632 442.059 849.838 447.754 849.838 454.778C849.838 461.803 854.632 467.497 860.547 467.497Z" fill="#A7233A" fill-opacity="0.3"/>
<path d="M620.01 634.8C629.109 634.8 636.485 626.039 636.485 615.232C636.485 604.425 629.109 595.664 620.01 595.664C610.911 595.664 603.535 604.425 603.535 615.232C603.535 626.039 610.911 634.8 620.01 634.8Z" fill="#A7233A" fill-opacity="0.3"/>
<path d="M645.546 495.869C654.19 495.869 661.197 487.547 661.197 477.28C661.197 467.013 654.19 458.691 645.546 458.691C636.902 458.691 629.895 467.013 629.895 477.28C629.895 487.547 636.902 495.869 645.546 495.869Z" fill="#A7233A" fill-opacity="0.3"/>
<path d="M902.558 373.573C908.473 373.573 913.267 367.878 913.267 360.854C913.267 353.829 908.473 348.135 902.558 348.135C896.644 348.135 891.85 353.829 891.85 360.854C891.85 367.878 896.644 373.573 902.558 373.573Z" fill="#A7233A" fill-opacity="0.3"/>
<path d="M364.645 175.938C375.564 175.938 384.415 165.426 384.415 152.457C384.415 139.489 375.564 128.976 364.645 128.976C353.726 128.976 344.875 139.489 344.875 152.457C344.875 165.426 353.726 175.938 364.645 175.938Z" fill="#A7233A" fill-opacity="0.3"/>
<path d="M703.209 452.821C709.123 452.821 713.918 447.127 713.918 440.102C713.918 433.078 709.123 427.383 703.209 427.383C697.295 427.383 692.5 433.078 692.5 440.102C692.5 447.127 697.295 452.821 703.209 452.821Z" fill="#A7233A" fill-opacity="0.3"/>
<path d="M702.385 574.14C709.664 574.14 715.565 567.132 715.565 558.486C715.565 549.84 709.664 542.832 702.385 542.832C695.106 542.832 689.205 549.84 689.205 558.486C689.205 567.132 695.106 574.14 702.385 574.14Z" fill="#A7233A" fill-opacity="0.3"/>
<path d="M419.013 239.534C429.022 239.534 437.136 229.897 437.136 218.009C437.136 206.121 429.022 196.485 419.013 196.485C409.004 196.485 400.891 206.121 400.891 218.009C400.891 229.897 409.004 239.534 419.013 239.534Z" fill="#A7233A" fill-opacity="0.3"/>
<path d="M316.044 338.351C326.962 338.351 335.814 327.838 335.814 314.87C335.814 301.902 326.962 291.389 316.044 291.389C305.125 291.389 296.273 301.902 296.273 314.87C296.273 327.838 305.125 338.351 316.044 338.351Z" fill="#A7233A" fill-opacity="0.3"/>
<path d="M306.983 399.988C317.902 399.988 326.753 389.475 326.753 376.507C326.753 363.539 317.902 353.026 306.983 353.026C296.064 353.026 287.213 363.539 287.213 376.507C287.213 389.475 296.064 399.988 306.983 399.988Z" fill="#A7233A" fill-opacity="0.3"/>
<path d="M808.65 153.436C814.565 153.436 819.359 147.742 819.359 140.717C819.359 133.693 814.565 127.998 808.65 127.998C802.736 127.998 797.941 133.693 797.941 140.717C797.941 147.742 802.736 153.436 808.65 153.436Z" fill="#A7233A" fill-opacity="0.3"/>
<path d="M870.432 583.924C879.986 583.924 887.731 574.725 887.731 563.378C887.731 552.031 879.986 542.832 870.432 542.832C860.878 542.832 853.133 552.031 853.133 563.378C853.133 574.725 860.878 583.924 870.432 583.924Z" fill="#A7233A" fill-opacity="0.3"/>
<path d="M853.957 370.637C862.146 370.637 868.784 362.752 868.784 353.026C868.784 343.3 862.146 335.415 853.957 335.415C845.767 335.415 839.129 343.3 839.129 353.026C839.129 362.752 845.767 370.637 853.957 370.637Z" fill="#A7233A" fill-opacity="0.3"/>
<path d="M554.933 248.339C561.302 248.339 566.466 242.206 566.466 234.642C566.466 227.077 561.302 220.944 554.933 220.944C548.564 220.944 543.4 227.077 543.4 234.642C543.4 242.206 548.564 248.339 554.933 248.339Z" fill="#A7233A" fill-opacity="0.3"/>
<path d="M383.592 589.794C390.871 589.794 396.772 582.785 396.772 574.14C396.772 565.494 390.871 558.485 383.592 558.485C376.313 558.485 370.412 565.494 370.412 574.14C370.412 582.785 376.313 589.794 383.592 589.794Z" fill="#A7233A" fill-opacity="0.3"/>
<path d="M384.415 425.426C393.514 425.426 400.89 416.665 400.89 405.859C400.89 395.052 393.514 386.291 384.415 386.291C375.316 386.291 367.939 395.052 367.939 405.859C367.939 416.665 375.316 425.426 384.415 425.426Z" fill="#A7233A" fill-opacity="0.3"/>
<path d="M320.986 183.765C330.995 183.765 339.109 174.128 339.109 162.241C339.109 150.353 330.995 140.716 320.986 140.716C310.977 140.716 302.863 150.353 302.863 162.241C302.863 174.128 310.977 183.765 320.986 183.765Z" fill="#A7233A" fill-opacity="0.3"/>
<path d="M750.163 669.044C757.442 669.044 763.343 662.035 763.343 653.39C763.343 644.744 757.442 637.735 750.163 637.735C742.883 637.735 736.982 644.744 736.982 653.39C736.982 662.035 742.883 669.044 750.163 669.044Z" fill="#A7233A" fill-opacity="0.3"/>
<path d="M367.941 512.502C376.13 512.502 382.769 504.617 382.769 494.891C382.769 485.165 376.13 477.28 367.941 477.28C359.752 477.28 353.113 485.165 353.113 494.891C353.113 504.617 359.752 512.502 367.941 512.502Z" fill="#A7233A" fill-opacity="0.3"/>
<path d="M531.867 303.129C541.876 303.129 549.989 293.492 549.989 281.604C549.989 269.717 541.876 260.08 531.867 260.08C521.858 260.08 513.744 269.717 513.744 281.604C513.744 293.492 521.858 303.129 531.867 303.129Z" fill="#A7233A" fill-opacity="0.3"/>
<path d="M266.619 263.993C274.808 263.993 281.446 256.108 281.446 246.382C281.446 236.656 274.808 228.771 266.619 228.771C258.43 228.771 251.791 236.656 251.791 246.382C251.791 256.108 258.43 263.993 266.619 263.993Z" fill="#A7233A" fill-opacity="0.3"/>
<path d="M423.955 175.939C435.329 175.939 444.549 164.988 444.549 151.479C444.549 137.97 435.329 127.019 423.955 127.019C412.582 127.019 403.361 137.97 403.361 151.479C403.361 164.988 412.582 175.939 423.955 175.939Z" fill="#A7233A" fill-opacity="0.3"/>
<path d="M411.599 296.281C417.968 296.281 423.132 290.148 423.132 282.583C423.132 275.018 417.968 268.886 411.599 268.886C405.23 268.886 400.066 275.018 400.066 282.583C400.066 290.148 405.23 296.281 411.599 296.281Z" fill="#A7233A" fill-opacity="0.3"/>
<path d="M550.815 593.707C560.368 593.707 568.113 584.509 568.113 573.161C568.113 561.814 560.368 552.615 550.815 552.615C541.261 552.615 533.516 561.814 533.516 573.161C533.516 584.509 541.261 593.707 550.815 593.707Z" fill="#A7233A" fill-opacity="0.3"/>
<path d="M435.487 486.085C442.311 486.085 447.844 479.515 447.844 471.41C447.844 463.305 442.311 456.734 435.487 456.734C428.663 456.734 423.131 463.305 423.131 471.41C423.131 479.515 428.663 486.085 435.487 486.085Z" fill="#A7233A" fill-opacity="0.3"/>
<path d="M631.542 295.302C638.366 295.302 643.898 288.731 643.898 280.626C643.898 272.521 638.366 265.95 631.542 265.95C624.718 265.95 619.186 272.521 619.186 280.626C619.186 288.731 624.718 295.302 631.542 295.302Z" fill="#A7233A" fill-opacity="0.3"/>
<path d="M855.605 663.174C861.974 663.174 867.137 657.041 867.137 649.476C867.137 641.912 861.974 635.779 855.605 635.779C849.236 635.779 844.072 641.912 844.072 649.476C844.072 657.041 849.236 663.174 855.605 663.174Z" fill="#A7233A" fill-opacity="0.3"/>
<path d="M288.035 633.821C293.949 633.821 298.744 628.127 298.744 621.103C298.744 614.078 293.949 608.384 288.035 608.384C282.121 608.384 277.326 614.078 277.326 621.103C277.326 628.127 282.121 633.821 288.035 633.821Z" fill="#A7233A" fill-opacity="0.3"/>
<path d="M341.581 631.865C350.68 631.865 358.056 623.104 358.056 612.297C358.056 601.491 350.68 592.73 341.581 592.73C332.482 592.73 325.105 601.491 325.105 612.297C325.105 623.104 332.482 631.865 341.581 631.865Z" fill="#A7233A" fill-opacity="0.3"/>
<path d="M302.863 491.957C308.777 491.957 313.572 486.262 313.572 479.238C313.572 472.213 308.777 466.519 302.863 466.519C296.949 466.519 292.154 472.213 292.154 479.238C292.154 486.262 296.949 491.957 302.863 491.957Z" fill="#A7233A" fill-opacity="0.3"/>
<path d="M697.443 324.653C703.358 324.653 708.152 318.959 708.152 311.934C708.152 304.91 703.358 299.215 697.443 299.215C691.529 299.215 686.734 304.91 686.734 311.934C686.734 318.959 691.529 324.653 697.443 324.653Z" fill="#A7233A" fill-opacity="0.3"/>
<path d="M221.312 576.097C229.047 576.097 235.316 568.65 235.316 559.465C235.316 550.279 229.047 542.832 221.312 542.832C213.578 542.832 207.309 550.279 207.309 559.465C207.309 568.65 213.578 576.097 221.312 576.097Z" fill="#A7233A" fill-opacity="0.3"/>
<path d="M784.76 320.739C795.679 320.739 804.531 310.226 804.531 297.258C804.531 284.29 795.679 273.777 784.76 273.777C773.842 273.777 764.99 284.29 764.99 297.258C764.99 310.226 773.842 320.739 784.76 320.739Z" fill="#A7233A" fill-opacity="0.3"/>
<path d="M631.542 164.198C642.006 164.198 650.488 154.123 650.488 141.695C650.488 129.267 642.006 119.193 631.542 119.193C621.078 119.193 612.596 129.267 612.596 141.695C612.596 154.123 621.078 164.198 631.542 164.198Z" fill="#A7233A" fill-opacity="0.3"/>
<path d="M671.083 390.205C682.001 390.205 690.853 379.692 690.853 366.723C690.853 353.755 682.001 343.242 671.083 343.242C660.164 343.242 651.312 353.755 651.312 366.723C651.312 379.692 660.164 390.205 671.083 390.205Z" fill="#A7233A" fill-opacity="0.3"/>
<path d="M727.097 264.972C735.286 264.972 741.925 257.087 741.925 247.361C741.925 237.635 735.286 229.75 727.097 229.75C718.908 229.75 712.27 237.635 712.27 247.361C712.27 257.087 718.908 264.972 727.097 264.972Z" fill="#A7233A" fill-opacity="0.3"/>
<path d="M493.976 164.198C504.439 164.198 512.922 154.123 512.922 141.695C512.922 129.267 504.439 119.193 493.976 119.193C483.512 119.193 475.029 129.267 475.029 141.695C475.029 154.123 483.512 164.198 493.976 164.198Z" fill="#A7233A" fill-opacity="0.3"/>
<path d="M893.497 304.106C902.596 304.106 909.972 295.346 909.972 284.539C909.972 273.732 902.596 264.971 893.497 264.971C884.398 264.971 877.021 273.732 877.021 284.539C877.021 295.346 884.398 304.106 893.497 304.106Z" fill="#A7233A" fill-opacity="0.3"/>
<path d="M691.677 192.571C701.686 192.571 709.8 182.934 709.8 171.047C709.8 159.159 701.686 149.522 691.677 149.522C681.668 149.522 673.555 159.159 673.555 171.047C673.555 182.934 681.668 192.571 691.677 192.571Z" fill="#A7233A" fill-opacity="0.3"/>
<path d="M442.079 374.55C451.178 374.55 458.554 365.79 458.554 354.983C458.554 344.176 451.178 335.415 442.079 335.415C432.98 335.415 425.604 344.176 425.604 354.983C425.604 365.79 432.98 374.55 442.079 374.55Z" fill="#A7233A" fill-opacity="0.3"/>
<path d="M555.757 685.675C564.401 685.675 571.408 677.353 571.408 667.086C571.408 656.819 564.401 648.497 555.757 648.497C547.113 648.497 540.105 656.819 540.105 667.086C540.105 677.353 547.113 685.675 555.757 685.675Z" fill="#A7233A" fill-opacity="0.3"/>
<path d="M870.431 252.253C876.8 252.253 881.964 246.12 881.964 238.555C881.964 230.99 876.8 224.858 870.431 224.858C864.062 224.858 858.898 230.99 858.898 238.555C858.898 246.12 864.062 252.253 870.431 252.253Z" fill="#A7233A" fill-opacity="0.3"/>
<path d="M657.903 690.568C668.822 690.568 677.673 680.055 677.673 667.087C677.673 654.119 668.822 643.606 657.903 643.606C646.984 643.606 638.133 654.119 638.133 667.087C638.133 680.055 646.984 690.568 657.903 690.568Z" fill="#A7233A" fill-opacity="0.3"/>
<path d="M771.58 513.481C782.954 513.481 792.174 502.53 792.174 489.022C792.174 475.513 782.954 464.562 771.58 464.562C760.207 464.562 750.986 475.513 750.986 489.022C750.986 502.53 760.207 513.481 771.58 513.481Z" fill="#A7233A" fill-opacity="0.3"/>
<path d="M293.802 220.944C301.991 220.944 308.63 213.059 308.63 203.333C308.63 193.607 301.991 185.722 293.802 185.722C285.613 185.722 278.975 193.607 278.975 203.333C278.975 213.059 285.613 220.944 293.802 220.944Z" fill="#A7233A" fill-opacity="0.3"/>
<path d="M267.442 437.167C278.815 437.167 288.035 426.216 288.035 412.707C288.035 399.199 278.815 388.248 267.442 388.248C256.068 388.248 246.848 399.199 246.848 412.707C246.848 426.216 256.068 437.167 267.442 437.167Z" fill="#A7233A" fill-opacity="0.3"/>
<path d="M513.746 369.658C523.755 369.658 531.868 360.021 531.868 348.134C531.868 336.246 523.755 326.609 513.746 326.609C503.737 326.609 495.623 336.246 495.623 348.134C495.623 360.021 503.737 369.658 513.746 369.658Z" fill="#A7233A" fill-opacity="0.3"/>
<path d="M228.726 327.588C238.735 327.588 246.849 317.951 246.849 306.064C246.849 294.176 238.735 284.539 228.726 284.539C218.717 284.539 210.604 294.176 210.604 306.064C210.604 317.951 218.717 327.588 228.726 327.588Z" fill="#A7233A" fill-opacity="0.3"/>
<path d="M400.067 688.611C409.166 688.611 416.542 679.85 416.542 669.044C416.542 658.237 409.166 649.476 400.067 649.476C390.968 649.476 383.592 658.237 383.592 669.044C383.592 679.85 390.968 688.611 400.067 688.611Z" fill="#A7233A" fill-opacity="0.3"/>
<path d="M909.973 535.004C915.887 535.004 920.681 529.31 920.681 522.285C920.681 515.261 915.887 509.566 909.973 509.566C904.058 509.566 899.264 515.261 899.264 522.285C899.264 529.31 904.058 535.004 909.973 535.004Z" fill="#A7233A" fill-opacity="0.3"/>
<path d="M596.12 231.707C607.039 231.707 615.89 221.194 615.89 208.226C615.89 195.257 607.039 184.744 596.12 184.744C585.201 184.744 576.35 195.257 576.35 208.226C576.35 221.194 585.201 231.707 596.12 231.707Z" fill="#A7233A" fill-opacity="0.3"/>
<path d="M232.02 176.918C243.393 176.918 252.614 165.967 252.614 152.458C252.614 138.95 243.393 127.999 232.02 127.999C220.646 127.999 211.426 138.95 211.426 152.458C211.426 165.967 220.646 176.918 232.02 176.918Z" fill="#A7233A" fill-opacity="0.3"/>
<path d="M797.941 668.065C807.495 668.065 815.24 658.866 815.24 647.519C815.24 636.172 807.495 626.973 797.941 626.973C788.388 626.973 780.643 636.172 780.643 647.519C780.643 658.866 788.388 668.065 797.941 668.065Z" fill="#A7233A" fill-opacity="0.3"/>
<path d="M783.937 251.274C793.946 251.274 802.06 241.637 802.06 229.75C802.06 217.862 793.946 208.225 783.937 208.225C773.928 208.225 765.814 217.862 765.814 229.75C765.814 241.637 773.928 251.274 783.937 251.274Z" fill="#A7233A" fill-opacity="0.3"/>
<path d="M250.967 513.481C260.521 513.481 268.266 504.282 268.266 492.935C268.266 481.587 260.521 472.389 250.967 472.389C241.413 472.389 233.668 481.587 233.668 492.935C233.668 504.282 241.413 513.481 250.967 513.481Z" fill="#A7233A" fill-opacity="0.3"/>
<path d="M348.994 697.416C360.368 697.416 369.588 686.465 369.588 672.957C369.588 659.448 360.368 648.497 348.994 648.497C337.621 648.497 328.4 659.448 328.4 672.957C328.4 686.465 337.621 697.416 348.994 697.416Z" fill="#A7233A" fill-opacity="0.3"/>
<path d="M736.158 187.679C747.532 187.679 756.752 176.728 756.752 163.219C756.752 149.711 747.532 138.76 736.158 138.76C724.785 138.76 715.564 149.711 715.564 163.219C715.564 176.728 724.785 187.679 736.158 187.679Z" fill="#A7233A" fill-opacity="0.3"/>
<path d="M821.83 517.395C833.204 517.395 842.424 506.444 842.424 492.935C842.424 479.427 833.204 468.476 821.83 468.476C810.457 468.476 801.236 479.427 801.236 492.935C801.236 506.444 810.457 517.395 821.83 517.395Z" fill="#A7233A" fill-opacity="0.3"/>
<path d="M563.995 416.62C571.274 416.62 577.175 409.612 577.175 400.966C577.175 392.321 571.274 385.312 563.995 385.312C556.715 385.312 550.814 392.321 550.814 400.966C550.814 409.612 556.715 416.62 563.995 416.62Z" fill="#A7233A" fill-opacity="0.3"/>
<path d="M685.085 522.286C691.455 522.286 696.618 516.154 696.618 508.589C696.618 501.024 691.455 494.892 685.085 494.892C678.716 494.892 673.553 501.024 673.553 508.589C673.553 516.154 678.716 522.286 685.085 522.286Z" fill="#A7233A" fill-opacity="0.3"/>
<path d="M516.217 525.221C523.951 525.221 530.221 517.774 530.221 508.589C530.221 499.403 523.951 491.956 516.217 491.956C508.483 491.956 502.213 499.403 502.213 508.589C502.213 517.774 508.483 525.221 516.217 525.221Z" fill="#A7233A" fill-opacity="0.3"/>
<path d="M909.148 211.16C919.157 211.16 927.271 201.524 927.271 189.636C927.271 177.748 919.157 168.112 909.148 168.112C899.139 168.112 891.025 177.748 891.025 189.636C891.025 201.524 899.139 211.16 909.148 211.16Z" fill="#A7233A" fill-opacity="0.3"/>
<path d="M482.441 675.892C490.175 675.892 496.445 668.445 496.445 659.259C496.445 650.074 490.175 642.627 482.441 642.627C474.707 642.627 468.438 650.074 468.438 659.259C468.438 668.445 474.707 675.892 482.441 675.892Z" fill="#A7233A" fill-opacity="0.3"/>
<path d="M575.527 159.307C583.261 159.307 589.531 151.86 589.531 142.674C589.531 133.488 583.261 126.042 575.527 126.042C567.793 126.042 561.523 133.488 561.523 142.674C561.523 151.86 567.793 159.307 575.527 159.307Z" fill="#A7233A" fill-opacity="0.3"/>
<path d="M467.614 301.172C476.713 301.172 484.089 292.411 484.089 281.604C484.089 270.797 476.713 262.037 467.614 262.037C458.515 262.037 451.139 270.797 451.139 281.604C451.139 292.411 458.515 301.172 467.614 301.172Z" fill="#A7233A" fill-opacity="0.3"/>
<path d="M827.596 293.345C838.97 293.345 848.19 282.394 848.19 268.886C848.19 255.377 838.97 244.426 827.596 244.426C816.222 244.426 807.002 255.377 807.002 268.886C807.002 282.394 816.222 293.345 827.596 293.345Z" fill="#A7233A" fill-opacity="0.3"/>
<path d="M393.476 353.026C399.391 353.026 404.185 347.332 404.185 340.307C404.185 333.283 399.391 327.588 393.476 327.588C387.562 327.588 382.768 333.283 382.768 340.307C382.768 347.332 387.562 353.026 393.476 353.026Z" fill="#A7233A" fill-opacity="0.3"/>
<path d="M814.415 399.01C821.239 399.01 826.771 392.439 826.771 384.334C826.771 376.229 821.239 369.658 814.415 369.658C807.591 369.658 802.059 376.229 802.059 384.334C802.059 392.439 807.591 399.01 814.415 399.01Z" fill="#A7233A" fill-opacity="0.3"/>
<path d="M908.323 669.043C918.787 669.043 927.27 658.968 927.27 646.54C927.27 634.112 918.787 624.037 908.323 624.037C897.86 624.037 889.377 634.112 889.377 646.54C889.377 658.968 897.86 669.043 908.323 669.043Z" fill="#A7233A" fill-opacity="0.3"/>
<path d="M321.81 276.712C331.819 276.712 339.933 267.076 339.933 255.188C339.933 243.3 331.819 233.664 321.81 233.664C311.801 233.664 303.688 243.3 303.688 255.188C303.688 267.076 311.801 276.712 321.81 276.712Z" fill="#A7233A" fill-opacity="0.3"/>
<path d="M341.579 468.476C352.043 468.476 360.526 458.401 360.526 445.973C360.526 433.545 352.043 423.47 341.579 423.47C331.115 423.47 322.633 433.545 322.633 445.973C322.633 458.401 331.115 468.476 341.579 468.476Z" fill="#A7233A" fill-opacity="0.3"/>
<path d="M337.461 580.01C347.015 580.01 354.76 570.812 354.76 559.464C354.76 548.117 347.015 538.918 337.461 538.918C327.907 538.918 320.162 548.117 320.162 559.464C320.162 570.812 327.907 580.01 337.461 580.01Z" fill="#A7233A" fill-opacity="0.3"/>
<path d="M609.301 435.21C620.22 435.21 629.072 424.697 629.072 411.729C629.072 398.76 620.22 388.248 609.301 388.248C598.383 388.248 589.531 398.76 589.531 411.729C589.531 424.697 598.383 435.21 609.301 435.21Z" fill="#A7233A" fill-opacity="0.3"/>
<path d="M795.469 617.19C806.388 617.19 815.24 606.677 815.24 593.708C815.24 580.74 806.388 570.227 795.469 570.227C784.551 570.227 775.699 580.74 775.699 593.708C775.699 606.677 784.551 617.19 795.469 617.19Z" fill="#A7233A" fill-opacity="0.3"/>
<path d="M572.232 535.983C578.601 535.983 583.764 529.851 583.764 522.286C583.764 514.721 578.601 508.589 572.232 508.589C565.863 508.589 560.699 514.721 560.699 522.286C560.699 529.851 565.863 535.983 572.232 535.983Z" fill="#A7233A" fill-opacity="0.3"/>
<path d="M526.924 205.29C534.203 205.29 540.104 198.281 540.104 189.636C540.104 180.99 534.203 173.982 526.924 173.982C519.645 173.982 513.744 180.99 513.744 189.636C513.744 198.281 519.645 205.29 526.924 205.29Z" fill="#A7233A" fill-opacity="0.3"/>
<path d="M257.556 684.698C267.565 684.698 275.679 675.061 275.679 663.173C275.679 651.286 267.565 641.649 257.556 641.649C247.547 641.649 239.434 651.286 239.434 663.173C239.434 675.061 247.547 684.698 257.556 684.698Z" fill="#A7233A" fill-opacity="0.3"/>
<path d="M706.505 685.676C717.423 685.676 726.275 675.163 726.275 662.195C726.275 649.226 717.423 638.713 706.505 638.713C695.586 638.713 686.734 649.226 686.734 662.195C686.734 675.163 695.586 685.676 706.505 685.676Z" fill="#A7233A" fill-opacity="0.3"/>
<path d="M576.35 310.955C585.904 310.955 593.649 301.757 593.649 290.409C593.649 279.062 585.904 269.863 576.35 269.863C566.796 269.863 559.051 279.062 559.051 290.409C559.051 301.757 566.796 310.955 576.35 310.955Z" fill="#A7233A" fill-opacity="0.3"/>
<path d="M588.708 482.173C599.626 482.173 608.478 471.66 608.478 458.691C608.478 445.723 599.626 435.21 588.708 435.21C577.789 435.21 568.938 445.723 568.938 458.691C568.938 471.66 577.789 482.173 588.708 482.173Z" fill="#A7233A" fill-opacity="0.3"/>
<path d="M826.773 566.313C833.142 566.313 838.305 560.181 838.305 552.616C838.305 545.051 833.142 538.919 826.773 538.919C820.404 538.919 815.24 545.051 815.24 552.616C815.24 560.181 820.404 566.313 826.773 566.313Z" fill="#A7233A" fill-opacity="0.3"/>
<path d="M747.692 417.599C754.516 417.599 760.049 411.029 760.049 402.923C760.049 394.818 754.516 388.248 747.692 388.248C740.868 388.248 735.336 394.818 735.336 402.923C735.336 411.029 740.868 417.599 747.692 417.599Z" fill="#A7233A" fill-opacity="0.3"/>
<path d="M412.422 544.788C423.341 544.788 432.193 534.276 432.193 521.307C432.193 508.339 423.341 497.826 412.422 497.826C401.504 497.826 392.652 508.339 392.652 521.307C392.652 534.276 401.504 544.788 412.422 544.788Z" fill="#A7233A" fill-opacity="0.3"/>
<path d="M227.078 237.577C236.632 237.577 244.377 228.378 244.377 217.031C244.377 205.684 236.632 196.485 227.078 196.485C217.524 196.485 209.779 205.684 209.779 217.031C209.779 228.378 217.524 237.577 227.078 237.577Z" fill="#A7233A" fill-opacity="0.3"/>
<path d="M664.493 627.951C674.957 627.951 683.44 617.876 683.44 605.448C683.44 593.02 674.957 582.945 664.493 582.945C654.029 582.945 645.547 593.02 645.547 605.448C645.547 617.876 654.029 627.951 664.493 627.951Z" fill="#A7233A" fill-opacity="0.3"/>
<path d="M262.499 373.572C272.963 373.572 281.446 363.497 281.446 351.069C281.446 338.641 272.963 328.566 262.499 328.566C252.035 328.566 243.553 338.641 243.553 351.069C243.553 363.497 252.035 373.572 262.499 373.572Z" fill="#A7233A" fill-opacity="0.3"/>
<path d="M842.424 218.988C853.343 218.988 862.195 208.475 862.195 195.506C862.195 182.538 853.343 172.025 842.424 172.025C831.506 172.025 822.654 182.538 822.654 195.506C822.654 208.475 831.506 218.988 842.424 218.988Z" fill="#A7233A" fill-opacity="0.3"/>
<path d="M226.254 641.649C235.353 641.649 242.73 632.888 242.73 622.081C242.73 611.274 235.353 602.514 226.254 602.514C217.155 602.514 209.779 611.274 209.779 622.081C209.779 632.888 217.155 641.649 226.254 641.649Z" fill="#A7233A" fill-opacity="0.3"/>
<path d="M359.703 311.933C371.077 311.933 380.297 300.982 380.297 287.474C380.297 273.965 371.077 263.014 359.703 263.014C348.33 263.014 339.109 273.965 339.109 287.474C339.109 300.982 348.33 311.933 359.703 311.933Z" fill="#A7233A" fill-opacity="0.3"/>
<path d="M302.862 691.545C311.506 691.545 318.514 683.223 318.514 672.956C318.514 662.69 311.506 654.367 302.862 654.367C294.218 654.367 287.211 662.69 287.211 672.956C287.211 683.223 294.218 691.545 302.862 691.545Z" fill="#A7233A" fill-opacity="0.3"/>
<path d="M476.676 551.638C486.23 551.638 493.975 542.439 493.975 531.092C493.975 519.744 486.23 510.546 476.676 510.546C467.122 510.546 459.377 519.744 459.377 531.092C459.377 542.439 467.122 551.638 476.676 551.638Z" fill="#A7233A" fill-opacity="0.3"/>
<path d="M727.099 619.146C733.923 619.146 739.455 612.575 739.455 604.47C739.455 596.365 733.923 589.794 727.099 589.794C720.274 589.794 714.742 596.365 714.742 604.47C714.742 612.575 720.274 619.146 727.099 619.146Z" fill="#A7233A" fill-opacity="0.3"/>
<path d="M607.652 693.502C617.206 693.502 624.951 684.304 624.951 672.956C624.951 661.609 617.206 652.41 607.652 652.41C598.098 652.41 590.354 661.609 590.354 672.956C590.354 684.304 598.098 693.502 607.652 693.502Z" fill="#A7233A" fill-opacity="0.3"/>
<path d="M656.255 432.275C662.625 432.275 667.788 426.143 667.788 418.578C667.788 411.013 662.625 404.88 656.255 404.88C649.886 404.88 644.723 411.013 644.723 418.578C644.723 426.143 649.886 432.275 656.255 432.275Z" fill="#A7233A" fill-opacity="0.3"/>
<path d="M717.213 373.572C723.127 373.572 727.922 367.878 727.922 360.853C727.922 353.829 723.127 348.135 717.213 348.135C711.298 348.135 706.504 353.829 706.504 360.853C706.504 367.878 711.298 373.572 717.213 373.572Z" fill="#A7233A" fill-opacity="0.3"/>
<path d="M514.569 432.274C525.033 432.274 533.516 422.2 533.516 409.772C533.516 397.344 525.033 387.269 514.569 387.269C504.106 387.269 495.623 397.344 495.623 409.772C495.623 422.2 504.106 432.274 514.569 432.274Z" fill="#A7233A" fill-opacity="0.3"/>
</g>
<defs>
<clipPath id="clip0_334_5567">
<rect width="1127.74" height="815.053" fill="white" transform="translate(0.0859375 0.0981445)"/>
</clipPath>
</defs>
</svg>
