<svg width="587" height="400" viewBox="0 0 587 400" fill="none" xmlns="http://www.w3.org/2000/svg">
<g clip-path="url(#clip0_305_6124)">
<path d="M587 214.773V382.811C586.994 387.368 584.967 391.737 581.364 394.959C577.761 398.182 572.876 399.995 567.781 400H423.665L425.003 398.485L585.306 216.697L587 214.773Z" fill="#F2F2F2"/>
<path d="M229.389 155.582H63.9033C62.5473 155.582 61.2468 156.064 60.288 156.921C59.3292 157.779 58.7905 158.942 58.7905 160.154C58.7905 161.367 59.3292 162.53 60.288 163.388C61.2468 164.245 62.5473 164.727 63.9033 164.727H229.389C230.745 164.727 232.045 164.245 233.004 163.388C233.963 162.53 234.502 161.367 234.502 160.154C234.502 158.942 233.963 157.779 233.004 156.921C232.045 156.064 230.745 155.582 229.389 155.582Z" fill="#E6E6E6"/>
<path d="M115.212 129.942H63.9033C62.5473 129.942 61.2468 130.424 60.288 131.281C59.3292 132.139 58.7905 133.302 58.7905 134.515C58.7905 135.728 59.3292 136.891 60.288 137.748C61.2468 138.606 62.5473 139.088 63.9033 139.088H115.212C116.568 139.088 117.869 138.606 118.828 137.748C119.787 136.891 120.325 135.728 120.325 134.515C120.325 133.302 119.787 132.139 118.828 131.281C117.869 130.424 116.568 129.942 115.212 129.942Z" fill="#E6E6E6"/>
<path d="M567.781 0H19.2194C14.124 0.00548727 9.23901 1.81827 5.636 5.04072C2.033 8.26317 0.00613529 12.6322 0 17.1894V382.811C0.00613529 387.368 2.033 391.737 5.636 394.959C9.23901 398.182 14.124 399.995 19.2194 400H567.781C572.876 399.995 577.761 398.182 581.364 394.959C584.967 391.737 586.994 387.368 587 382.811V17.1894C586.994 12.6322 584.967 8.26317 581.364 5.04072C577.761 1.81827 572.876 0.00548727 567.781 0ZM585.306 382.811C585.306 384.869 584.853 386.907 583.972 388.809C583.091 390.711 581.8 392.439 580.173 393.894C578.546 395.349 576.614 396.504 574.487 397.292C572.361 398.079 570.082 398.485 567.781 398.485H19.2194C14.5714 398.485 10.1138 396.833 6.82713 393.894C3.5405 390.954 1.69408 386.968 1.69408 382.811V119.451C1.69408 88.1726 15.5868 58.1751 40.3161 36.0578C65.0453 13.9405 98.5854 1.51515 133.558 1.51515H567.781C570.082 1.51515 572.361 1.92058 574.487 2.70828C576.614 3.49599 578.546 4.65055 580.173 6.10604C581.8 7.56152 583.091 9.28943 583.972 11.1911C584.853 13.0928 585.306 15.131 585.306 17.1894V382.811Z" fill="#E6E6E6"/>
<path d="M533.544 66.1126H53.4994C53.2747 66.1126 53.0593 66.0328 52.9004 65.8907C52.7416 65.7486 52.6523 65.5559 52.6523 65.355C52.6523 65.1541 52.7416 64.9614 52.9004 64.8193C53.0593 64.6772 53.2747 64.5974 53.4994 64.5974H533.544C533.768 64.5974 533.984 64.6772 534.143 64.8193C534.302 64.9614 534.391 65.1541 534.391 65.355C534.391 65.5559 534.302 65.7486 534.143 65.8907C533.984 66.0328 533.768 66.1126 533.544 66.1126Z" fill="#E6E6E6"/>
<path d="M77.5171 43.3697C81.4732 43.3697 84.6802 40.4375 84.6802 36.8204C84.6802 33.2033 81.4732 30.2711 77.5171 30.2711C73.561 30.2711 70.354 33.2033 70.354 36.8204C70.354 40.4375 73.561 43.3697 77.5171 43.3697Z" fill="#E6E6E6"/>
<path d="M102.262 43.3697C106.218 43.3697 109.425 40.4375 109.425 36.8204C109.425 33.2033 106.218 30.2711 102.262 30.2711C98.3061 30.2711 95.0991 33.2033 95.0991 36.8204C95.0991 40.4375 98.3061 43.3697 102.262 43.3697Z" fill="#E6E6E6"/>
<path d="M127.007 43.3697C130.963 43.3697 134.17 40.4375 134.17 36.8204C134.17 33.2033 130.963 30.2711 127.007 30.2711C123.051 30.2711 119.844 33.2033 119.844 36.8204C119.844 40.4375 123.051 43.3697 127.007 43.3697Z" fill="#E6E6E6"/>
<path d="M155.223 41.9969C155.111 41.997 154.999 41.9769 154.895 41.9378C154.791 41.8986 154.697 41.8412 154.618 41.769L149.785 37.3501C149.63 37.2085 149.543 37.0184 149.543 36.8203C149.543 36.6223 149.63 36.4321 149.785 36.2906L154.618 31.8721C154.695 31.7998 154.788 31.742 154.891 31.702C154.993 31.662 155.104 31.6406 155.216 31.639C155.328 31.6374 155.439 31.6557 155.543 31.6927C155.647 31.7298 155.741 31.7849 155.821 31.8549C155.901 31.9249 155.965 32.0084 156.009 32.1006C156.053 32.1927 156.075 32.2917 156.076 32.3918C156.077 32.4919 156.055 32.5912 156.013 32.6838C155.97 32.7764 155.908 32.8606 155.829 32.9315L151.575 36.8203L155.829 40.7096C155.945 40.8162 156.024 40.9512 156.055 41.0977C156.087 41.2442 156.069 41.3956 156.004 41.5331C155.939 41.6705 155.831 41.7878 155.692 41.8703C155.553 41.9528 155.39 41.9969 155.223 41.9969Z" fill="#E6E6E6"/>
<path d="M163.346 41.9968C163.179 41.9968 163.016 41.9528 162.877 41.8703C162.738 41.7878 162.629 41.6704 162.565 41.533C162.5 41.3955 162.482 41.2441 162.513 41.0976C162.545 40.9511 162.623 40.8161 162.74 40.7095L166.993 36.8203L162.74 32.9314C162.585 32.7873 162.501 32.5945 162.504 32.3949C162.508 32.1953 162.599 32.005 162.759 31.8654C162.919 31.7258 163.133 31.6482 163.357 31.6494C163.58 31.6507 163.793 31.7306 163.951 31.872L168.784 36.2906C168.939 36.4321 169.026 36.6222 169.026 36.8203C169.026 37.0183 168.939 37.2085 168.784 37.35L163.951 41.7689C163.872 41.8412 163.778 41.8986 163.674 41.9377C163.57 41.9768 163.458 41.9969 163.346 41.9968Z" fill="#E6E6E6"/>
<path d="M490.735 31.0294H481.748C481.504 31.0294 481.263 31.0722 481.038 31.1556C480.813 31.2389 480.608 31.3611 480.436 31.5152C480.264 31.6693 480.127 31.8522 480.034 32.0535C479.941 32.2548 479.893 32.4706 479.893 32.6885V40.734C479.893 40.9519 479.941 41.1676 480.034 41.3689C480.127 41.5703 480.264 41.7532 480.436 41.9073C480.608 42.0613 480.813 42.1835 481.038 42.2669C481.263 42.3502 481.504 42.3931 481.748 42.3931H490.735C491.228 42.3935 491.701 42.219 492.05 41.908C492.4 41.597 492.597 41.1748 492.599 40.734V32.6885C492.597 32.2477 492.4 31.8254 492.05 31.5144C491.701 31.2034 491.228 31.029 490.735 31.0294Z" fill="#E6E6E6"/>
<path d="M468.712 31.0294H459.725C459.482 31.0294 459.24 31.0722 459.015 31.1556C458.79 31.2389 458.586 31.3611 458.413 31.5152C458.241 31.6693 458.104 31.8522 458.011 32.0535C457.918 32.2548 457.87 32.4706 457.87 32.6885V40.734C457.87 40.9519 457.918 41.1676 458.011 41.3689C458.104 41.5703 458.241 41.7532 458.413 41.9073C458.586 42.0613 458.79 42.1835 459.015 42.2669C459.24 42.3502 459.482 42.3931 459.725 42.3931H468.712C469.205 42.3935 469.678 42.219 470.027 41.908C470.377 41.597 470.574 41.1748 470.576 40.734V32.6885C470.574 32.2477 470.377 31.8254 470.027 31.5144C469.678 31.2034 469.205 31.029 468.712 31.0294Z" fill="#E6E6E6"/>
<path d="M511.488 31.4082H502.501C502.257 31.4081 502.016 31.451 501.791 31.5344C501.566 31.6177 501.361 31.7399 501.189 31.894C501.017 32.0481 500.88 32.231 500.787 32.4323C500.694 32.6336 500.646 32.8494 500.646 33.0673V41.1127C500.646 41.3306 500.694 41.5464 500.787 41.7477C500.88 41.949 501.017 42.132 501.189 42.286C501.361 42.4401 501.566 42.5623 501.791 42.6457C502.016 42.729 502.257 42.7719 502.501 42.7718H511.488C511.981 42.7723 512.454 42.5978 512.803 42.2868C513.153 41.9758 513.35 41.5536 513.352 41.1127V33.0673C513.35 32.6264 513.153 32.2042 512.803 31.8932C512.454 31.5822 511.981 31.4078 511.488 31.4082Z" fill="#E6E6E6"/>
<path d="M329.44 34.4688H257.602C257.003 34.4687 256.427 34.6819 256.003 35.0612C255.579 35.4405 255.341 35.955 255.341 36.4915C255.341 37.0279 255.579 37.5424 256.003 37.9218C256.427 38.3011 257.003 38.5142 257.602 38.5142H329.44C330.04 38.5142 330.615 38.3011 331.039 37.9218C331.463 37.5424 331.702 37.0279 331.702 36.4915C331.702 35.955 331.463 35.4405 331.039 35.0612C330.615 34.6819 330.04 34.4688 329.44 34.4688Z" fill="#E6E6E6"/>
<path d="M136.888 310.944L93.929 309.73C87.9708 309.561 81.2704 309.57 77.0207 312.324C72.1973 315.449 72.9276 320.987 76.9323 324.579C80.937 328.17 87.3314 330.222 93.6075 331.891C126.95 340.754 163.852 342.554 199.682 340.548C235.512 338.543 270.604 332.873 305.524 327.222C308.836 326.686 312.59 325.915 313.94 323.854C315.247 321.86 313.537 319.455 310.882 318.166C308.226 316.877 304.86 316.443 301.612 316.059C242.788 309.146 183.327 307.629 124.157 311.532" fill="#6EA731"/>
<path d="M214.073 281.394V272.303C206.697 272.396 180.301 272.236 173.415 272.303C172.903 304.077 169.761 297.853 198.867 297.976C200.205 297.981 201.486 298.459 202.431 299.306C203.375 300.153 203.907 301.3 203.909 302.497V302.633C203.909 303.831 203.376 304.981 202.429 305.828C201.481 306.675 200.196 307.152 198.856 307.152H173.415V316.242H214.073C214.13 316.212 214.032 307.464 214.073 307.152C215.792 280.814 212.391 290.287 187.674 289.231C186.569 289.18 185.527 288.751 184.765 288.033C184.002 287.314 183.578 286.361 183.579 285.371V285.257C183.579 284.233 184.035 283.25 184.845 282.526C185.655 281.801 186.753 281.394 187.899 281.394H214.073Z" fill="#3F3D56"/>
<path d="M264.048 281.394V272.303C256.672 272.396 230.276 272.236 223.39 272.303C222.873 304.353 219.682 297.742 249.608 297.981C250.746 297.991 251.833 298.403 252.634 299.126C253.435 299.85 253.884 300.826 253.884 301.844C253.884 302.322 253.884 302.811 253.884 303.289C253.884 303.796 253.772 304.299 253.555 304.767C253.338 305.236 253.019 305.662 252.618 306.021C252.217 306.379 251.741 306.664 251.217 306.858C250.693 307.052 250.131 307.152 249.564 307.152H223.39V316.242H264.048C264.105 316.212 264.007 307.464 264.048 307.152C265.767 280.814 262.366 290.287 237.649 289.231C236.544 289.18 235.502 288.751 234.74 288.033C233.977 287.314 233.553 286.361 233.554 285.371V285.257C233.555 284.233 234.01 283.25 234.82 282.526C235.63 281.801 236.729 281.394 237.874 281.394H264.048Z" fill="#3F3D56"/>
<path d="M161.556 281.394V272.303H120.898C120.869 280.412 120.919 301.873 120.898 310.182C112.929 322.249 158.204 313.894 161.558 316.246C161.556 316.242 161.556 307.151 161.556 307.151C130.621 307.007 129.844 312.186 130.839 287.129C130.899 285.59 131.624 284.133 132.862 283.063C134.1 281.993 135.753 281.394 137.475 281.393C146.418 281.394 161.556 281.394 161.556 281.394Z" fill="#3F3D56"/>
<path d="M241.922 202.358L198.962 201.345C193.004 201.205 186.304 201.212 182.054 203.508C177.231 206.113 177.961 210.729 181.965 213.723C185.97 216.717 192.365 218.428 198.641 219.819C231.984 227.207 268.885 228.707 304.715 227.035C340.545 225.363 375.638 220.637 410.557 215.927C413.869 215.48 417.623 214.837 418.974 213.119C420.28 211.457 418.57 209.452 415.915 208.378C413.26 207.304 409.893 206.942 406.646 206.622C347.721 200.857 288.354 199.594 229.19 202.848" fill="#6EA731"/>
<path d="M234.402 162.455C233.71 176.49 239.478 180.907 219.578 179.12C218.233 170.747 225.051 159.127 209.414 162.077C212.547 168.151 200.688 214.232 219.575 206.013C220.636 192.168 213.644 186.096 234.402 188.214C236.067 196.772 228.297 209.366 244.566 206.393C241.434 200.316 253.293 154.239 234.402 162.455Z" fill="#3F3D56"/>
<path d="M338.588 162.455C339.983 163.225 325.806 176.639 325.5 177.738C325.075 176.8 311.543 163.676 313.177 162.455C294.347 154.133 306.082 200.481 303.009 206.396C303.012 206.394 313.177 206.394 313.177 206.394V177.607C327.464 194.842 324.811 191.942 338.588 176.761L338.588 206.394C357.417 214.719 345.683 168.365 348.756 162.452C348.752 162.455 338.588 162.455 338.588 162.455Z" fill="#3F3D56"/>
<path d="M293.695 162.455H253.037C250.648 175.198 258.547 170.924 268.285 171.545L268.284 206.394H278.448V171.545C288.141 170.956 296.114 175.142 293.695 162.455Z" fill="#3F3D56"/>
<path d="M367.387 197.303C365.04 185.782 365.04 173.976 367.387 162.455H357.223C357.282 168.214 357.205 191.456 357.211 202.085C357.21 203.232 357.719 204.332 358.625 205.144C359.532 205.955 360.761 206.412 362.044 206.412C372.284 206.425 391.834 206.357 397.881 206.394L397.881 197.303H367.387Z" fill="#3F3D56"/>
<path d="M107.728 198.818H66.4139C64.3921 198.818 62.453 199.537 61.0233 200.815C59.5937 202.094 58.7905 203.828 58.7905 205.636C58.7905 207.445 59.5937 209.179 61.0233 210.458C62.453 211.736 64.3921 212.455 66.4139 212.455H107.728C109.75 212.455 111.689 211.736 113.118 210.458C114.548 209.179 115.351 207.445 115.351 205.636C115.351 203.828 114.548 202.094 113.118 200.815C111.689 199.537 109.749 198.818 107.728 198.818Z" fill="#E6E6E6"/>
<path d="M482.299 392.097L473.912 392.096L469.923 363.164L482.301 363.165L482.299 392.097Z" fill="#FFB6B6"/>
<path d="M482.594 399.922L456.804 399.921V399.629C456.804 397.248 457.862 394.965 459.745 393.281C461.627 391.597 464.18 390.652 466.842 390.651L471.554 387.455L480.343 390.652L482.595 390.652L482.594 399.922Z" fill="#2F2E41"/>
<path d="M511.945 392.097L503.559 392.096L499.569 363.164L511.947 363.165L511.945 392.097Z" fill="#FFB6B6"/>
<path d="M512.241 399.922L486.451 399.921V399.629C486.451 397.248 487.509 394.965 489.391 393.281C491.274 391.597 493.827 390.652 496.489 390.651L501.2 387.455L509.99 390.652L512.241 390.652L512.241 399.922Z" fill="#2F2E41"/>
<path d="M461.417 234.455C461.417 234.455 453.348 256.62 454.838 259.537C456.327 262.455 458.868 260.182 456.327 262.455C453.786 264.727 451.568 262.311 453.947 266.171C456.327 270.03 459.932 301.803 461.518 303.341C463.103 304.879 465.283 304.92 463.346 306.415C461.409 307.909 458.868 304.879 461.409 307.909C463.95 310.939 470.693 380.845 470.693 380.845H483.866C483.866 380.845 487.147 377.463 485.29 375.262C483.432 373.061 485.453 372.212 485.29 370.742C485.126 369.273 485.744 366.104 485.859 364.658C485.973 363.212 488.2 328.766 482.851 308.868L492.604 270.98L497.48 316.773C497.48 316.773 492.046 355.183 497.48 367.531C497.48 367.531 493.099 370.794 495.042 372.685C496.985 374.576 498.679 373.061 496.985 374.576C495.291 376.091 499.526 381.394 499.526 381.394L513.926 380.636L522.076 308.868C522.076 308.868 523.45 301.383 522.076 300.101C520.702 298.818 520.702 303.364 520.702 298.818V292.758C520.702 292.758 526.844 255.481 526.738 253.286C526.632 251.091 516.467 235.182 516.467 235.182L461.417 234.455Z" fill="#2F2E41"/>
<path d="M504.006 144.809L482.98 143.515L476.689 152.388L461.536 157.898V201.606C463.113 205.838 463.927 210.267 463.95 214.727C463.892 223.435 461.39 233.693 462.256 235.939C470.727 257.909 517.314 235.939 517.314 235.939L516.467 212.455L517.617 159.379L508.097 152.588L504.006 144.809Z" fill="#E6E6E6"/>
<path d="M460.564 243.943L459.114 230.124L450.172 229.763L452.286 244.325C451.744 245.04 451.436 245.877 451.396 246.74C451.356 247.604 451.586 248.46 452.061 249.213C452.536 249.966 453.236 250.586 454.082 251.003C454.929 251.419 455.889 251.617 456.854 251.572C457.819 251.527 458.751 251.243 459.546 250.751C460.34 250.258 460.965 249.578 461.351 248.785C461.736 247.992 461.867 247.119 461.728 246.264C461.589 245.408 461.186 244.605 460.564 243.943Z" fill="#FFB6B6"/>
<path d="M464.965 156.732L464.717 156.77C462.411 157.119 460.235 157.966 458.378 159.237C456.52 160.508 455.037 162.165 454.057 164.064C451.496 169.017 443.181 201.577 446.826 206.487C449.653 210.295 448.967 209.552 447.638 212.425C446.309 215.297 444.168 212.232 445.923 216.791C447.677 221.35 449.604 220.7 447.976 222.461C446.348 224.223 444.677 223.877 446.261 226.828C447.844 229.778 447.587 230.774 447.886 231.885C448.186 232.996 447.925 240.81 447.925 240.81C447.925 240.81 457.477 240.162 462.23 242.194C462.23 242.194 459.578 234.302 461.078 233.038C462.577 231.775 464.376 231.622 463.092 229.783C461.808 227.944 458.896 227.866 462.065 226.948C465.235 226.029 464.214 209.557 464.214 209.557C469.435 197.33 467.372 177.217 464.965 156.732Z" fill="#E6E6E6"/>
<path d="M522.559 244.929L523.227 231.062L532.138 230.298L530.848 244.937C531.43 245.627 531.785 246.449 531.873 247.309C531.962 248.17 531.78 249.036 531.349 249.809C530.917 250.583 530.253 251.233 529.431 251.687C528.609 252.142 527.661 252.382 526.695 252.381C525.728 252.38 524.781 252.138 523.96 251.682C523.139 251.226 522.476 250.575 522.047 249.801C521.617 249.026 521.437 248.16 521.528 247.3C521.618 246.439 521.975 245.618 522.559 244.929Z" fill="#FFB6B6"/>
<path d="M513.245 158.028L513.494 158.054C515.817 158.299 518.038 159.047 519.964 160.233C521.891 161.418 523.466 163.006 524.552 164.858C527.389 169.689 536.364 202.41 534.166 206.901C532.117 211.088 532.202 210.059 533.691 212.868C535.18 215.677 537.145 212.519 535.65 217.151C534.155 221.784 532.194 221.221 533.919 222.907C535.645 224.593 537.293 224.172 535.878 227.19C534.463 230.208 534.777 231.191 534.54 232.314C534.304 233.437 535.005 241.23 535.005 241.23C535.005 241.23 525.429 241.014 520.796 243.258C520.796 243.258 523 235.256 521.431 234.061C519.862 232.867 518.056 232.796 519.235 230.901C520.414 229.006 523.318 228.797 520.101 228.023C516.883 227.249 516.974 210.752 516.974 210.752L513.245 158.028Z" fill="#E6E6E6"/>
<path d="M494.009 140.737C503.067 140.737 510.41 134.17 510.41 126.068C510.41 117.967 503.067 111.4 494.009 111.4C484.952 111.4 477.609 117.967 477.609 126.068C477.609 134.17 484.952 140.737 494.009 140.737Z" fill="#FFB6B6"/>
<path d="M505.423 138.624C507.704 137.028 507.925 133.985 509.872 132.066C513.126 128.859 514.655 125.408 512.95 121.608C511.442 118.246 511.763 114.114 508.515 111.951C510.11 111.434 510.486 110.362 509.078 110.342C508.129 110.329 504.591 111.951 506.294 109.93C507.996 107.909 504.774 108.707 504.987 107.88C505.2 107.052 506.567 106.594 507.17 107.25C506.661 106.785 506.04 106.43 505.354 106.213C504.668 105.995 503.936 105.92 503.214 105.994C502.491 106.068 501.796 106.289 501.183 106.639C500.571 106.99 500.055 107.461 499.677 108.016C497.759 105.445 495.722 103.676 492.787 105.308C489.904 106.91 489.942 108.891 486.842 108.415C485.384 108.191 485.247 110.654 484.251 111.632C483.791 112.152 483.193 112.56 482.511 112.82C481.829 113.08 481.085 113.184 480.347 113.121C478.894 112.875 477.783 111.256 478.597 110.152L475.173 117.139L473.793 115.625C471.599 116.903 472.32 120.239 474.527 121.497C476.735 122.755 479.604 122.487 482.146 121.929C485.206 121.257 488.365 121.023 491.507 121.234C496.307 121.841 499.65 126.973 497.872 131.006C499.716 129.387 503.128 130.731 504.083 132.878C505.038 135.026 504.338 137.446 503.63 139.669" fill="#2F2E41"/>
</g>
<defs>
<clipPath id="clip0_305_6124">
<rect width="587" height="400" fill="white"/>
</clipPath>
</defs>
</svg>
