<svg viewBox="0 0 587 400" fill="none" xmlns="http://www.w3.org/2000/svg">
<g clip-path="url(#clip0_305_6124)">
<path d="M587 214.773V382.811C586.994 387.368 584.967 391.737 581.364 394.959C577.761 398.182 572.876 399.995 567.781 400H423.665L425.003 398.485L585.306 216.697L587 214.773Z" fill="#7F7F7F"/>
<path d="M229.389 105.582H63.9037C62.5478 105.582 61.2473 106.064 60.2885 106.921C59.3297 107.779 58.791 108.942 58.791 110.154C58.791 111.367 59.3297 112.53 60.2885 113.388C61.2473 114.245 62.5478 114.727 63.9037 114.727H229.389C230.745 114.727 232.046 114.245 233.005 113.388C233.963 112.53 234.502 111.367 234.502 110.154C234.502 108.942 233.963 107.779 233.005 106.921C232.046 106.064 230.745 105.582 229.389 105.582Z" fill="#E6E6E6"/>
<path d="M115.213 129.942H63.9037C62.5478 129.942 61.2473 130.424 60.2885 131.281C59.3297 132.139 58.791 133.302 58.791 134.515C58.791 135.728 59.3297 136.891 60.2885 137.748C61.2473 138.606 62.5478 139.088 63.9037 139.088H115.213C116.569 139.088 117.869 138.606 118.828 137.748C119.787 136.891 120.326 135.728 120.326 134.515C120.326 133.302 119.787 132.139 118.828 131.281C117.869 130.424 116.569 129.942 115.213 129.942Z" fill="#E6E6E6"/>
<path d="M115.213 149.942H63.9037C62.5478 149.942 61.2473 150.424 60.2885 151.281C59.3297 152.139 58.791 153.302 58.791 154.515C58.791 155.728 59.3297 156.891 60.2885 157.748C61.2473 158.606 62.5478 159.088 63.9037 159.088H115.213C116.569 159.088 117.869 158.606 118.828 157.748C119.787 156.891 120.326 155.728 120.326 154.515C120.326 153.302 119.787 152.139 118.828 151.281C117.869 150.424 116.569 149.942 115.213 149.942Z" fill="#E6E6E6"/>
<path d="M115.213 169.942H63.9037C62.5478 169.942 61.2473 170.424 60.2885 171.281C59.3297 172.139 58.791 173.302 58.791 174.515C58.791 175.728 59.3297 176.891 60.2885 177.748C61.2473 178.606 62.5478 179.088 63.9037 179.088H115.213C116.569 179.088 117.869 178.606 118.828 177.748C119.787 176.891 120.326 175.728 120.326 174.515C120.326 173.302 119.787 172.139 118.828 171.281C117.869 170.424 116.569 169.942 115.213 169.942Z" fill="#E6E6E6"/>
<path d="M115.213 189.942H63.9037C62.5478 189.942 61.2473 190.424 60.2885 191.281C59.3297 192.139 58.791 193.302 58.791 194.515C58.791 195.728 59.3297 196.891 60.2885 197.748C61.2473 198.606 62.5478 199.088 63.9037 199.088H115.213C116.569 199.088 117.869 198.606 118.828 197.748C119.787 196.891 120.326 195.728 120.326 194.515C120.326 193.302 119.787 192.139 118.828 191.281C117.869 190.424 116.569 189.942 115.213 189.942Z" fill="#E6E6E6"/>
<path d="M115.213 209.942H63.9037C62.5478 209.942 61.2473 210.424 60.2885 211.281C59.3297 212.139 58.791 213.302 58.791 214.515C58.791 215.728 59.3297 216.891 60.2885 217.748C61.2473 218.606 62.5478 219.088 63.9037 219.088H115.213C116.569 219.088 117.869 218.606 118.828 217.748C119.787 216.891 120.326 215.728 120.326 214.515C120.326 213.302 119.787 212.139 118.828 211.281C117.869 210.424 116.569 209.942 115.213 209.942Z" fill="#E6E6E6"/>
<path d="M567.781 0H19.2194C14.124 0.00548727 9.23901 1.81827 5.636 5.04072C2.033 8.26317 0.00613529 12.6322 0 17.1894V382.811C0.00613529 387.368 2.033 391.737 5.636 394.959C9.23901 398.182 14.124 399.995 19.2194 400H567.781C572.876 399.995 577.761 398.182 581.364 394.959C584.967 391.737 586.994 387.368 587 382.811V17.1894C586.994 12.6322 584.967 8.26317 581.364 5.04072C577.761 1.81827 572.876 0.00548727 567.781 0ZM585.306 382.811C585.306 384.869 584.853 386.907 583.972 388.809C583.091 390.711 581.8 392.439 580.173 393.894C578.546 395.349 576.614 396.504 574.487 397.292C572.361 398.079 570.082 398.485 567.781 398.485H19.2194C14.5714 398.485 10.1138 396.833 6.82713 393.894C3.5405 390.954 1.69408 386.968 1.69408 382.811L3.5 118C3.5 86.7214 -3.22924 42.1173 21.5 20C46.2292 -2.11729 98.5854 1.51515 133.558 1.51515H567.781C570.082 1.51515 572.361 1.92058 574.487 2.70828C576.614 3.49599 578.546 4.65055 580.173 6.10604C581.8 7.56152 583.091 9.28943 583.972 11.1911C584.853 13.0928 585.306 15.131 585.306 17.1894V382.811Z" fill="black"/>
<path d="M533.544 66.1126H53.4994C53.2747 66.1126 53.0593 66.0328 52.9004 65.8907C52.7416 65.7486 52.6523 65.5559 52.6523 65.355C52.6523 65.1541 52.7416 64.9614 52.9004 64.8193C53.0593 64.6772 53.2747 64.5974 53.4994 64.5974H533.544C533.768 64.5974 533.984 64.6772 534.143 64.8193C534.302 64.9614 534.391 65.1541 534.391 65.355C534.391 65.5559 534.302 65.7486 534.143 65.8907C533.984 66.0328 533.768 66.1126 533.544 66.1126Z" fill="#E6E6E6"/>
<path d="M77.5166 43.3697C81.4727 43.3697 84.6797 40.4375 84.6797 36.8204C84.6797 33.2033 81.4727 30.2711 77.5166 30.2711C73.5605 30.2711 70.3535 33.2033 70.3535 36.8204C70.3535 40.4375 73.5605 43.3697 77.5166 43.3697Z" fill="#E6E6E6"/>
<path d="M102.262 43.3697C106.218 43.3697 109.425 40.4375 109.425 36.8204C109.425 33.2033 106.218 30.2711 102.262 30.2711C98.3057 30.2711 95.0986 33.2033 95.0986 36.8204C95.0986 40.4375 98.3057 43.3697 102.262 43.3697Z" fill="#E6E6E6"/>
<path d="M127.008 43.3697C130.964 43.3697 134.171 40.4375 134.171 36.8204C134.171 33.2033 130.964 30.2711 127.008 30.2711C123.052 30.2711 119.845 33.2033 119.845 36.8204C119.845 40.4375 123.052 43.3697 127.008 43.3697Z" fill="#E6E6E6"/>
<path d="M155.223 41.9969C155.111 41.997 154.999 41.9769 154.895 41.9378C154.791 41.8986 154.697 41.8412 154.618 41.769L149.785 37.3501C149.63 37.2085 149.543 37.0184 149.543 36.8203C149.543 36.6223 149.63 36.4321 149.785 36.2906L154.618 31.8721C154.695 31.7998 154.788 31.742 154.891 31.702C154.993 31.662 155.104 31.6406 155.216 31.639C155.328 31.6374 155.439 31.6557 155.543 31.6927C155.647 31.7298 155.741 31.7849 155.821 31.8549C155.901 31.9249 155.965 32.0084 156.009 32.1006C156.053 32.1927 156.075 32.2917 156.076 32.3918C156.077 32.4919 156.055 32.5912 156.013 32.6838C155.97 32.7764 155.908 32.8606 155.829 32.9315L151.575 36.8203L155.829 40.7096C155.945 40.8162 156.024 40.9512 156.055 41.0977C156.087 41.2442 156.069 41.3956 156.004 41.5331C155.939 41.6705 155.831 41.7878 155.692 41.8703C155.553 41.9528 155.39 41.9969 155.223 41.9969Z" fill="#E6E6E6"/>
<path d="M163.345 41.9968C163.178 41.9968 163.015 41.9528 162.876 41.8703C162.738 41.7878 162.629 41.6704 162.564 41.533C162.5 41.3955 162.482 41.2441 162.513 41.0976C162.544 40.9511 162.623 40.8161 162.74 40.7095L166.993 36.8203L162.74 32.9314C162.585 32.7873 162.5 32.5945 162.504 32.3949C162.507 32.1953 162.599 32.005 162.759 31.8654C162.918 31.7258 163.133 31.6482 163.356 31.6494C163.579 31.6507 163.793 31.7306 163.951 31.872L168.783 36.2906C168.938 36.4321 169.025 36.6222 169.025 36.8203C169.025 37.0183 168.938 37.2085 168.783 37.35L163.951 41.7689C163.872 41.8412 163.778 41.8986 163.674 41.9377C163.57 41.9768 163.458 41.9969 163.345 41.9968Z" fill="#E6E6E6"/>
<path d="M490.736 31.0294H481.749C481.505 31.0294 481.264 31.0722 481.039 31.1556C480.813 31.2389 480.609 31.3611 480.437 31.5152C480.264 31.6693 480.128 31.8522 480.035 32.0535C479.941 32.2548 479.893 32.4706 479.894 32.6885V40.734C479.893 40.9519 479.941 41.1676 480.035 41.3689C480.128 41.5703 480.264 41.7532 480.437 41.9073C480.609 42.0613 480.813 42.1835 481.039 42.2669C481.264 42.3502 481.505 42.3931 481.749 42.3931H490.736C491.229 42.3935 491.702 42.219 492.051 41.908C492.4 41.597 492.597 41.1748 492.599 40.734V32.6885C492.597 32.2477 492.4 31.8254 492.051 31.5144C491.702 31.2034 491.229 31.029 490.736 31.0294Z" fill="#E6E6E6"/>
<path d="M468.712 31.0294H459.725C459.482 31.0294 459.24 31.0722 459.015 31.1556C458.79 31.2389 458.586 31.3611 458.413 31.5152C458.241 31.6693 458.104 31.8522 458.011 32.0535C457.918 32.2548 457.87 32.4706 457.87 32.6885V40.734C457.87 40.9519 457.918 41.1676 458.011 41.3689C458.104 41.5703 458.241 41.7532 458.413 41.9073C458.586 42.0613 458.79 42.1835 459.015 42.2669C459.24 42.3502 459.482 42.3931 459.725 42.3931H468.712C469.205 42.3935 469.678 42.219 470.027 41.908C470.377 41.597 470.574 41.1748 470.576 40.734V32.6885C470.574 32.2477 470.377 31.8254 470.027 31.5144C469.678 31.2034 469.205 31.029 468.712 31.0294Z" fill="#E6E6E6"/>
<path d="M511.488 31.4082H502.501C502.257 31.4081 502.016 31.451 501.791 31.5344C501.565 31.6177 501.361 31.7399 501.189 31.894C501.016 32.0481 500.88 32.231 500.787 32.4323C500.693 32.6336 500.645 32.8494 500.646 33.0673V41.1127C500.645 41.3306 500.693 41.5464 500.787 41.7477C500.88 41.949 501.016 42.132 501.189 42.286C501.361 42.4401 501.565 42.5623 501.791 42.6457C502.016 42.729 502.257 42.7719 502.501 42.7718H511.488C511.981 42.7723 512.454 42.5978 512.803 42.2868C513.152 41.9758 513.349 41.5536 513.351 41.1127V33.0673C513.349 32.6264 513.152 32.2042 512.803 31.8932C512.454 31.5822 511.981 31.4078 511.488 31.4082Z" fill="#E6E6E6"/>
<path d="M329.44 34.4688H257.602C257.003 34.4687 256.427 34.6819 256.003 35.0612C255.579 35.4405 255.341 35.955 255.341 36.4915C255.341 37.0279 255.579 37.5424 256.003 37.9218C256.427 38.3011 257.003 38.5142 257.602 38.5142H329.44C330.04 38.5142 330.615 38.3011 331.039 37.9218C331.463 37.5424 331.702 37.0279 331.702 36.4915C331.702 35.955 331.463 35.4405 331.039 35.0612C330.615 34.6819 330.04 34.4688 329.44 34.4688Z" fill="#E6E6E6"/>
<path d="M136.888 310.944L93.9285 309.73C87.9703 309.561 81.2699 309.57 77.0202 312.324C72.1969 315.449 72.9271 320.987 76.9318 324.579C80.9365 328.17 87.3309 330.222 93.607 331.891C126.95 340.754 163.851 342.554 199.681 340.548C235.511 338.543 270.604 332.873 305.524 327.222C308.836 326.686 312.589 325.915 313.94 323.854C315.246 321.86 313.537 319.455 310.881 318.166C308.226 316.877 304.859 316.443 301.612 316.059C242.787 309.146 183.326 307.629 124.156 311.532" fill="#9BA9D2"/>
<path d="M214.073 281.394V272.303C206.697 272.396 180.301 272.236 173.415 272.303C172.903 304.077 169.761 297.853 198.867 297.976C200.205 297.981 201.486 298.459 202.431 299.306C203.375 300.153 203.907 301.3 203.909 302.497V302.633C203.909 303.831 203.376 304.981 202.429 305.828C201.481 306.675 200.196 307.152 198.856 307.152H173.415V316.242H214.073C214.13 316.212 214.032 307.464 214.073 307.152C215.792 280.814 212.391 290.287 187.674 289.231C186.569 289.18 185.527 288.751 184.765 288.033C184.002 287.314 183.578 286.361 183.579 285.371V285.257C183.579 284.233 184.035 283.25 184.845 282.526C185.655 281.801 186.753 281.394 187.899 281.394H214.073Z" fill="white"/>
<path d="M264.049 281.394V272.303C256.672 272.396 230.277 272.236 223.391 272.303C222.874 304.353 219.682 297.742 249.608 297.981C250.746 297.991 251.834 298.403 252.635 299.126C253.435 299.85 253.884 300.826 253.884 301.844C253.884 302.322 253.884 302.811 253.884 303.289C253.884 303.796 253.772 304.299 253.555 304.767C253.338 305.236 253.02 305.662 252.619 306.021C252.218 306.379 251.741 306.664 251.217 306.858C250.693 307.052 250.132 307.152 249.564 307.152H223.391V316.242H264.049C264.106 316.212 264.007 307.464 264.049 307.152C265.768 280.814 262.366 290.287 237.65 289.231C236.544 289.18 235.502 288.751 234.74 288.033C233.978 287.314 233.554 286.361 233.555 285.371V285.257C233.555 284.233 234.01 283.25 234.82 282.526C235.63 281.801 236.729 281.394 237.875 281.394H264.049Z" fill="white"/>
<path d="M161.556 281.394V272.303H120.898C120.869 280.412 120.919 301.873 120.898 310.182C112.929 322.249 158.204 313.894 161.558 316.246C161.556 316.242 161.556 307.151 161.556 307.151C130.621 307.007 129.844 312.186 130.839 287.129C130.899 285.59 131.624 284.133 132.862 283.063C134.1 281.993 135.753 281.394 137.475 281.393C146.418 281.394 161.556 281.394 161.556 281.394Z" fill="white"/>
<path d="M241.921 202.358L198.962 201.345C193.003 201.205 186.303 201.212 182.053 203.508C177.23 206.113 177.96 210.729 181.965 213.723C185.97 216.717 192.364 218.428 198.64 219.819C231.983 227.207 268.884 228.707 304.714 227.035C340.545 225.363 375.637 220.637 410.557 215.927C413.869 215.48 417.622 214.837 418.973 213.119C420.28 211.457 418.57 209.452 415.915 208.378C413.259 207.304 409.893 206.942 406.645 206.622C347.721 200.857 288.354 199.594 229.189 202.848" fill="#9BA9D2"/>
<path d="M234.402 162.455C233.71 176.49 239.478 180.907 219.578 179.12C218.233 170.747 225.051 159.127 209.414 162.077C212.547 168.151 200.688 214.232 219.575 206.013C220.636 192.168 213.644 186.096 234.402 188.214C236.067 196.772 228.297 209.366 244.566 206.393C241.434 200.316 253.293 154.239 234.402 162.455Z" fill="white"/>
<path d="M338.587 162.455C339.983 163.225 325.805 176.639 325.499 177.738C325.074 176.8 311.542 163.676 313.176 162.455C294.347 154.133 306.082 200.481 303.008 206.396C303.012 206.394 313.176 206.394 313.176 206.394V177.607C327.463 194.842 324.81 191.942 338.588 176.761L338.587 206.394C357.416 214.719 345.682 168.365 348.755 162.452C348.752 162.455 338.587 162.455 338.587 162.455Z" fill="white"/>
<path d="M293.695 162.455H253.037C250.648 175.198 258.547 170.924 268.285 171.545L268.284 206.394H278.448V171.545C288.141 170.956 296.114 175.142 293.695 162.455Z" fill="white"/>
<path d="M367.387 197.303C365.039 185.782 365.039 173.976 367.387 162.455H357.222C357.281 168.214 357.204 191.456 357.21 202.085C357.21 203.232 357.719 204.332 358.625 205.144C359.531 205.955 360.761 206.412 362.043 206.412C372.284 206.425 391.834 206.357 397.881 206.394L397.88 197.303H367.387Z" fill="white"/>
<path d="M482.299 392.097L473.912 392.096L469.923 363.164L482.301 363.165L482.299 392.097Z" fill="#FFB6B6"/>
<path d="M482.595 399.922L456.805 399.921V399.629C456.805 397.248 457.863 394.965 459.745 393.281C461.628 391.597 464.181 390.652 466.843 390.651L471.554 387.455L480.344 390.652L482.595 390.652L482.595 399.922Z" fill="#2F2E41"/>
<path d="M511.945 392.097L503.559 392.096L499.569 363.164L511.947 363.165L511.945 392.097Z" fill="#FFB6B6"/>
<path d="M512.241 399.922L486.451 399.921V399.629C486.451 397.248 487.509 394.965 489.392 393.281C491.274 391.597 493.827 390.652 496.489 390.651L501.201 387.455L509.99 390.652L512.241 390.652L512.241 399.922Z" fill="#2F2E41"/>
<path d="M461.417 234.455C461.417 234.455 453.348 256.62 454.838 259.537C456.327 262.455 458.868 260.182 456.327 262.455C453.786 264.727 451.568 262.311 453.947 266.171C456.327 270.03 459.932 301.803 461.518 303.341C463.103 304.879 465.283 304.92 463.346 306.415C461.409 307.909 458.868 304.879 461.409 307.909C463.95 310.939 470.693 380.845 470.693 380.845H483.866C483.866 380.845 487.147 377.463 485.29 375.262C483.432 373.061 485.453 372.212 485.29 370.742C485.126 369.273 485.744 366.104 485.859 364.658C485.973 363.212 488.2 328.766 482.851 308.868L492.604 270.98L497.48 316.773C497.48 316.773 492.046 355.183 497.48 367.531C497.48 367.531 493.099 370.794 495.042 372.685C496.985 374.576 498.679 373.061 496.985 374.576C495.291 376.091 499.526 381.394 499.526 381.394L513.926 380.636L522.076 308.868C522.076 308.868 523.45 301.383 522.076 300.101C520.702 298.818 520.702 303.364 520.702 298.818V292.758C520.702 292.758 526.844 255.481 526.738 253.286C526.632 251.091 516.467 235.182 516.467 235.182L461.417 234.455Z" fill="#2F2E41"/>
<path d="M504.006 144.809L482.98 143.515L476.689 152.388L461.536 157.898V201.606C463.113 205.838 463.927 210.267 463.95 214.727C463.892 223.435 461.39 233.693 462.256 235.939C470.727 257.909 517.314 235.939 517.314 235.939L516.467 212.455L517.617 159.379L508.097 152.588L504.006 144.809Z" fill="#E6E6E6"/>
<path d="M460.564 243.943L459.114 230.124L450.172 229.763L452.286 244.325C451.744 245.04 451.435 245.877 451.395 246.74C451.356 247.604 451.586 248.46 452.061 249.213C452.535 249.966 453.235 250.586 454.082 251.003C454.929 251.419 455.889 251.617 456.854 251.572C457.819 251.527 458.751 251.243 459.545 250.751C460.34 250.258 460.965 249.578 461.35 248.785C461.736 247.992 461.866 247.119 461.727 246.264C461.588 245.408 461.185 244.605 460.564 243.943Z" fill="#FFB6B6"/>
<path d="M464.965 156.732L464.717 156.77C462.411 157.119 460.235 157.966 458.378 159.237C456.52 160.508 455.037 162.165 454.057 164.064C451.496 169.017 443.181 201.577 446.826 206.487C449.653 210.295 448.967 209.552 447.638 212.425C446.309 215.297 444.168 212.232 445.923 216.791C447.677 221.35 449.604 220.7 447.976 222.461C446.348 224.223 444.677 223.877 446.261 226.828C447.844 229.778 447.587 230.774 447.886 231.885C448.186 232.996 447.925 240.81 447.925 240.81C447.925 240.81 457.477 240.162 462.23 242.194C462.23 242.194 459.578 234.302 461.078 233.038C462.577 231.775 464.376 231.622 463.092 229.783C461.808 227.944 458.896 227.866 462.065 226.948C465.235 226.029 464.214 209.557 464.214 209.557C469.435 197.33 467.372 177.217 464.965 156.732Z" fill="#E6E6E6"/>
<path d="M522.559 244.929L523.227 231.062L532.138 230.298L530.848 244.937C531.43 245.627 531.785 246.449 531.873 247.309C531.962 248.17 531.78 249.036 531.349 249.809C530.917 250.583 530.253 251.233 529.431 251.687C528.609 252.142 527.661 252.382 526.695 252.381C525.728 252.38 524.781 252.138 523.96 251.682C523.139 251.226 522.476 250.575 522.047 249.801C521.617 249.026 521.437 248.16 521.528 247.3C521.618 246.439 521.975 245.618 522.559 244.929Z" fill="#FFB6B6"/>
<path d="M513.245 158.028L513.495 158.054C515.817 158.299 518.038 159.047 519.965 160.233C521.892 161.418 523.466 163.006 524.552 164.858C527.389 169.689 536.364 202.41 534.167 206.901C532.117 211.088 532.202 210.059 533.691 212.868C535.181 215.677 537.145 212.519 535.651 217.151C534.156 221.784 532.194 221.221 533.92 222.907C535.645 224.593 537.294 224.172 535.879 227.19C534.464 230.208 534.777 231.191 534.541 232.314C534.304 233.437 535.005 241.23 535.005 241.23C535.005 241.23 525.429 241.014 520.797 243.258C520.797 243.258 523 235.256 521.431 234.061C519.862 232.867 518.057 232.796 519.236 230.901C520.415 229.006 523.319 228.797 520.101 228.023C516.884 227.249 516.974 210.752 516.974 210.752L513.245 158.028Z" fill="#E6E6E6"/>
<path d="M494.009 140.737C503.067 140.737 510.41 134.17 510.41 126.068C510.41 117.967 503.067 111.4 494.009 111.4C484.951 111.4 477.608 117.967 477.608 126.068C477.608 134.17 484.951 140.737 494.009 140.737Z" fill="#FFB6B6"/>
<path d="M505.423 138.624C507.704 137.028 507.926 133.985 509.872 132.066C513.127 128.859 514.656 125.408 512.951 121.608C511.443 118.246 511.763 114.114 508.516 111.951C510.111 111.434 510.486 110.362 509.079 110.342C508.13 110.329 504.592 111.951 506.294 109.93C507.997 107.909 504.774 108.707 504.987 107.88C505.2 107.052 506.567 106.594 507.17 107.25C506.661 106.785 506.04 106.43 505.355 106.213C504.669 105.995 503.937 105.92 503.214 105.994C502.491 106.068 501.797 106.289 501.184 106.639C500.571 106.99 500.056 107.461 499.677 108.016C497.759 105.445 495.723 103.676 492.788 105.308C489.905 106.91 489.942 108.891 486.842 108.415C485.385 108.191 485.247 110.654 484.252 111.632C483.791 112.152 483.193 112.56 482.511 112.82C481.829 113.08 481.086 113.184 480.348 113.121C478.895 112.875 477.784 111.256 478.598 110.152L475.173 117.139L473.793 115.625C471.6 116.903 472.32 120.239 474.528 121.497C476.735 122.755 479.604 122.487 482.146 121.929C485.206 121.257 488.366 121.023 491.508 121.234C496.307 121.841 499.65 126.973 497.873 131.006C499.717 129.387 503.128 130.731 504.083 132.878C505.039 135.026 504.338 137.446 503.63 139.669" fill="#2F2E41"/>
</g>
<defs>
<clipPath id="clip0_305_6124">
<rect width="587" height="400" fill="white"/>
</clipPath>
</defs>
</svg>
