<svg width="478" height="386" viewBox="0 0 478 386" fill="none" xmlns="http://www.w3.org/2000/svg">
<g clip-path="url(#clip0_311_5150)">
<path d="M203.067 164.596C202.316 163.966 201.6 163.284 200.921 162.554L201.85 161.427C202.489 162.113 203.164 162.755 203.87 163.349L203.067 164.596Z" fill="#E4E4E4"/>
<path d="M197.192 157.353C196.152 155.443 195.333 153.387 194.755 151.237L196.051 150.782C196.595 152.805 197.365 154.739 198.343 156.536L197.192 157.353ZM193.76 144.616C193.747 144.25 193.74 143.884 193.74 143.517C193.74 141.636 193.918 139.76 194.27 137.922L195.594 138.254C195.263 139.983 195.096 141.747 195.096 143.517C195.096 143.862 195.102 144.207 195.115 144.551L193.76 144.616ZM197.468 132.309L196.263 131.6C196.823 130.359 197.468 129.171 198.192 128.046C198.636 127.357 199.116 126.698 199.63 126.074L200.617 127.135C200.141 127.714 199.696 128.324 199.284 128.964C198.602 130.022 197.995 131.141 197.468 132.309ZM204.966 123.327L204.326 121.962C206.076 120.891 207.965 120.15 209.921 119.767L210.151 121.293C208.338 121.648 206.587 122.335 204.966 123.327ZM220.845 123.158C219.211 122.196 217.45 121.546 215.632 121.231L215.836 119.7C217.799 120.04 219.7 120.743 221.465 121.781L220.845 123.158Z" fill="#E4E4E4"/>
<path d="M226.753 129.285C226.31 128.442 225.796 127.65 225.22 126.92L226.227 125.883C226.861 126.687 227.426 127.559 227.915 128.487L226.753 129.285Z" fill="#E4E4E4"/>
<path d="M174.794 112.813L173.702 111.896C174.244 111.053 174.816 110.22 175.401 109.42L176.441 110.412C175.874 111.189 175.32 111.996 174.794 112.813Z" fill="#E4E4E4"/>
<path d="M241.947 111.023C240.906 109.371 239.752 107.817 238.497 106.372L239.458 105.281C240.764 106.783 241.964 108.4 243.047 110.118L241.947 111.023ZM180.129 105.965L179.206 104.832C180.557 103.396 181.987 102.058 183.485 100.828L184.276 102.085C182.824 103.278 181.439 104.574 180.129 105.965ZM234.45 102.395C233.009 101.186 231.503 100.081 229.941 99.0844L230.601 97.7321C232.212 98.7597 233.765 99.9003 235.253 101.147L234.45 102.395ZM188.818 98.8346L188.173 97.4732C189.795 96.4697 191.472 95.5834 193.191 94.8195L193.682 96.2626C192.015 97.003 190.391 97.862 188.818 98.8346ZM225.106 96.4445C223.448 95.6823 221.749 95.0403 220.019 94.5224L220.363 93.0245C222.147 93.559 223.901 94.2215 225.613 95.0081L225.106 96.4445ZM198.79 94.4065L198.461 92.9045C200.251 92.3931 202.067 92.0093 203.898 91.7553L204.061 93.2926C202.286 93.5388 200.525 93.9108 198.79 94.4065ZM214.76 93.3481C212.987 93.0838 211.201 92.9466 209.412 92.937L209.418 91.3887C211.263 91.3987 213.106 91.5403 214.935 91.8128L214.76 93.3481Z" fill="#E4E4E4"/>
<path d="M245.817 119.008C245.483 118.074 245.113 117.144 244.718 116.245L245.929 115.55C246.34 116.485 246.725 117.451 247.072 118.422L245.817 119.008Z" fill="#E4E4E4"/>
<path d="M249.531 209.997L249.065 208.543C249.901 208.194 250.742 207.82 251.567 207.432L252.083 208.864C251.242 209.26 250.383 209.641 249.531 209.997Z" fill="#E4E4E4"/>
<path d="M228.398 214.727L228.349 213.18C230.107 213.106 231.885 212.952 233.632 212.722L233.787 214.26C232.005 214.495 230.192 214.652 228.398 214.727ZM222.994 214.709C221.198 214.622 219.386 214.452 217.607 214.204L217.771 212.667C219.515 212.91 221.291 213.076 223.051 213.162L222.994 214.709ZM239.128 213.312L238.867 211.792C240.594 211.406 242.328 210.936 244.023 210.397L244.387 211.888C242.658 212.439 240.889 212.918 239.128 213.312ZM212.272 213.215C210.513 212.807 208.747 212.312 207.023 211.746L207.397 210.258C209.087 210.813 210.818 211.297 212.542 211.698L212.272 213.215ZM201.892 209.805C200.212 209.084 198.537 208.276 196.912 207.404L197.488 206.002C199.08 206.857 200.722 207.649 202.369 208.356L201.892 209.805ZM192.115 204.56C190.561 203.547 189.018 202.449 187.53 201.294L188.292 200.013C189.751 201.145 191.263 202.222 192.787 203.215L192.115 204.56Z" fill="#E4E4E4"/>
<path d="M183.171 197.6C182.464 196.94 181.763 196.253 181.089 195.558L181.997 194.408C182.655 195.087 183.338 195.757 184.028 196.401L183.171 197.6Z" fill="#E4E4E4"/>
<path d="M145.65 41.4816L144.954 40.153C145.733 39.6208 146.526 39.0938 147.312 38.5868L147.979 39.935C147.202 40.4358 146.419 40.9559 145.65 41.4816Z" fill="#E4E4E4"/>
<path d="M276.126 62.6276C274.965 61.0823 273.743 59.5578 272.493 58.0974L273.463 57.0153C274.732 58.4997 275.974 60.0485 277.155 61.619L276.126 62.6276ZM268.614 53.8425C267.289 52.4804 265.907 51.1465 264.504 49.8783L265.345 48.6641C266.77 49.9527 268.175 51.3077 269.521 52.6918L268.614 53.8425ZM260.184 46.2091C258.718 45.0332 257.21 43.8868 255.701 42.8021L256.423 41.4917C257.951 42.5902 259.478 43.751 260.963 44.942L260.184 46.2091ZM251.073 39.6603C249.515 38.6629 247.912 37.6979 246.31 36.7922L246.911 35.4046C248.534 36.3217 250.157 37.2992 251.736 38.3095L251.073 39.6603ZM152.737 37.049L152.132 35.6634C153.753 34.7403 155.417 33.8532 157.077 33.0266L157.618 34.446C155.979 35.262 154.337 36.1377 152.737 37.049ZM241.425 34.2076C239.784 33.3971 238.104 32.6252 236.429 31.9132L236.902 30.4622C238.598 31.1834 240.301 31.9654 241.963 32.7862L241.425 34.2076ZM162.611 32.1322L162.133 30.6832C163.826 29.9556 165.56 29.2674 167.288 28.6379L167.7 30.1131C165.994 30.7346 164.282 31.414 162.611 32.1322ZM231.337 29.9158C229.633 29.3034 227.891 28.7334 226.16 28.2215L226.5 26.7226C228.253 27.241 230.018 27.8186 231.743 28.439L231.337 29.9158ZM172.872 28.3934L172.527 26.896C174.276 26.3695 176.062 25.8866 177.837 25.4613L178.115 26.9763C176.363 27.3967 174.599 27.8735 172.872 28.3934ZM220.914 26.8337C219.165 26.4247 217.381 26.062 215.612 25.7558L215.815 24.2251C217.607 24.5351 219.414 24.9025 221.185 25.3166L220.914 26.8337ZM183.414 25.8667L183.204 24.337C184.991 24.0162 186.811 23.7433 188.613 23.526L188.756 25.0658C186.976 25.2805 185.179 25.5499 183.414 25.8667ZM210.268 24.9905C208.49 24.7884 206.683 24.6364 204.896 24.5384L204.961 22.992C206.771 23.0911 208.602 23.245 210.402 23.4497L210.268 24.9905ZM194.126 24.5767L194.053 23.0308C195.862 22.9187 197.697 22.8587 199.507 22.8524L199.511 24.4008C197.724 24.4071 195.913 24.4663 194.126 24.5767Z" fill="#E4E4E4"/>
<path d="M281.097 69.9312C280.584 69.0958 280.052 68.2601 279.518 67.4476L280.601 66.5172C281.144 67.3431 281.685 68.1923 282.207 69.0416L281.097 69.9312Z" fill="#E4E4E4"/>
<path d="M219.378 320.322C218.479 320.19 217.58 320.049 216.683 319.901L216.877 318.368C217.768 318.516 218.659 318.655 219.55 318.786L219.378 320.322Z" fill="#E4E4E4"/>
<path d="M211.197 318.884C209.382 318.511 207.548 318.099 205.745 317.657L206.03 316.143C207.818 316.581 209.637 316.99 211.436 317.359L211.197 318.884ZM200.333 316.222C198.541 315.71 196.735 315.158 194.967 314.579L195.34 313.091C197.094 313.664 198.884 314.212 200.662 314.72L200.333 316.222ZM189.652 312.731C187.894 312.083 186.125 311.393 184.394 310.68L184.854 309.223C186.571 309.93 188.325 310.615 190.068 311.258L189.652 312.731ZM179.201 308.427C177.49 307.647 175.766 306.823 174.076 305.976L174.621 304.558C176.297 305.398 178.007 306.216 179.703 306.989L179.201 308.427ZM169.027 303.33C167.364 302.419 165.693 301.464 164.059 300.491L164.686 299.118C166.306 300.083 167.964 301.03 169.613 301.933L169.027 303.33ZM159.177 297.463C157.577 296.432 155.965 295.351 154.386 294.252L155.091 292.93C156.658 294.02 158.257 295.092 159.843 296.115L159.177 297.463ZM149.692 290.86C148.151 289.706 146.606 288.506 145.098 287.293L145.878 286.027C147.374 287.23 148.907 288.421 150.435 289.565L149.692 290.86ZM140.607 283.549C139.133 282.271 137.666 280.943 136.247 279.603L137.11 278.41C138.516 279.736 139.968 281.05 141.427 282.315L140.607 283.549ZM132.034 275.456C130.66 274.046 129.294 272.584 127.975 271.111L128.922 270.004C130.228 271.462 131.58 272.909 132.94 274.304L132.034 275.456ZM124.078 266.576C122.813 265.04 121.559 263.453 120.352 261.859L121.377 260.846C122.572 262.424 123.813 263.995 125.065 265.515L124.078 266.576ZM116.802 256.966C115.654 255.313 114.522 253.611 113.437 251.906L114.533 250.996C115.607 252.683 116.727 254.367 117.864 256.003L116.802 256.966Z" fill="#E4E4E4"/>
<path d="M110.244 246.662C109.741 245.797 109.247 244.928 108.761 244.053L109.905 243.223C110.386 244.089 110.876 244.949 111.373 245.805L110.244 246.662Z" fill="#E4E4E4"/>
<path d="M400.175 66.9889L383.282 84.7557L396.707 59.0211C386.13 37.1088 368.831 18.1711 368.831 18.1711C368.831 18.1711 332.94 57.4523 332.94 88.3298C332.94 119.207 349.009 129.989 368.831 129.989C388.652 129.989 404.72 119.207 404.72 88.3298C404.72 81.4571 402.94 74.1684 400.175 66.9889Z" fill="#F2F2F2"/>
<path d="M378.938 85.7175V87.2395C378.859 104.931 376.247 118.734 371.122 128.454C371.05 128.597 370.97 128.733 370.898 128.876L370.324 128.477L369.777 128.085C375.462 117.589 377.474 102.753 377.546 87.3224C377.553 86.8251 377.559 86.3203 377.553 85.8155C377.533 79.2829 377.183 72.675 376.623 66.2555C376.583 65.7582 376.537 65.2533 376.491 64.7485C375.713 56.2796 374.591 48.1874 373.444 41.1575C373.365 40.6602 373.279 40.1629 373.193 39.6732C371.208 27.7835 369.183 19.1714 368.721 17.2651C368.669 17.0315 368.636 16.9034 368.629 16.8733L369.256 16.6699L369.262 16.6623L369.895 16.4589C369.902 16.489 370.014 16.9185 370.199 17.7172C370.904 20.7009 372.738 28.8006 374.539 39.4848C374.618 39.967 374.704 40.4643 374.783 40.9616C375.719 46.6653 376.636 53.0397 377.362 59.7304C377.546 61.4107 377.711 63.0683 377.856 64.7033C377.909 65.2081 377.955 65.7129 377.995 66.2103C378.602 73.1497 378.916 79.6521 378.938 85.7175Z" fill="white"/>
<path d="M374.538 39.4848C374.096 39.5527 373.648 39.6205 373.192 39.6732C371.957 39.8186 370.715 39.8915 369.473 39.8918C364.178 39.8998 358.949 38.5506 354.171 35.9436C353.894 36.3429 353.617 36.7423 353.333 37.1491C358.359 39.9519 363.88 41.4054 369.473 41.3987C370.799 41.3983 372.124 41.3178 373.443 41.1576C373.892 41.1048 374.34 41.037 374.782 40.9617C378.43 40.364 381.977 39.1369 385.302 37.3224C385.018 36.908 384.741 36.5011 384.471 36.1018C381.324 37.7821 377.977 38.9221 374.538 39.4848Z" fill="white"/>
<path d="M377.856 64.7034C377.401 64.7335 376.946 64.7486 376.491 64.7486C376.352 64.7562 376.207 64.7562 376.068 64.7562C370.331 64.7563 364.679 63.1715 359.593 60.1369C354.508 57.1023 350.14 52.708 346.863 47.3285C346.599 47.773 346.335 48.2176 346.078 48.6696C349.494 54.1128 353.996 58.5478 359.212 61.6073C364.427 64.6668 370.206 66.2628 376.068 66.2631C376.253 66.2631 376.438 66.2631 376.622 66.2556C377.084 66.248 377.539 66.2329 377.994 66.2104C385.037 65.7983 391.826 63.0778 397.55 58.3743C397.339 57.9298 397.128 57.4852 396.911 57.0407C391.347 61.6586 384.725 64.3217 377.856 64.7034Z" fill="white"/>
<path d="M378.938 85.7175C378.476 85.7627 378.014 85.7928 377.553 85.8155C377.058 85.838 376.563 85.8531 376.068 85.8531C368.359 85.843 360.86 82.9804 354.694 77.694C348.528 72.4075 344.026 64.9817 341.864 56.5282C341.567 57.1386 341.27 57.7413 340.986 58.3516C343.423 66.7855 348.124 74.1277 354.422 79.3352C360.72 84.5427 368.294 87.3506 376.068 87.3601C376.563 87.3601 377.058 87.3525 377.546 87.3224C378.014 87.3073 378.476 87.2772 378.938 87.2395C388.263 86.4061 396.963 81.5553 403.275 73.6695C403.137 73.112 402.979 72.562 402.82 72.0044C396.723 79.9493 388.157 84.8681 378.938 85.7175Z" fill="white"/>
<path d="M54.386 79.2915L65.4045 102.306L46.7807 81.2142C25.6143 87.6554 5.35352 102.266 5.35352 102.266C5.35352 102.266 30.0669 151.531 56.2981 158.978C82.5294 166.426 95.5642 151.213 100.345 129.237C105.126 107.263 99.8432 86.848 73.6119 79.4001C67.7734 77.7424 61.152 77.9584 54.386 79.2915Z" fill="#F2F2F2"/>
<path d="M65.1734 107.354L66.4663 107.721C81.4766 112.076 92.573 118.302 99.594 126.328C99.6981 126.443 99.7942 126.563 99.8983 126.678L99.4207 127.218L98.9558 127.73C91.4107 118.895 79.2926 113.087 66.2011 109.284C65.7802 109.157 65.3529 109.028 64.9225 108.914C59.3681 107.36 53.6703 106.153 48.0815 105.227C47.6495 105.15 47.2095 105.08 46.7695 105.009C39.3872 103.829 32.2422 103.121 25.9933 102.697C25.5517 102.665 25.1086 102.64 24.6718 102.617C14.0924 101.95 6.28779 102.118 4.55699 102.17C4.34585 102.172 4.22908 102.178 4.20188 102.178L4.18019 101.434L4.17538 101.425L4.15527 100.674C4.18249 100.674 4.57439 100.653 5.29741 100.641C8.00236 100.578 15.3256 100.499 24.8364 101.08C25.2651 101.109 25.7083 101.133 26.1498 101.166C31.2212 101.503 36.8575 102.024 42.7165 102.834C44.1884 103.034 45.6364 103.251 47.0604 103.485C47.5019 103.548 47.9419 103.619 48.374 103.695C54.4156 104.696 60.0154 105.916 65.1734 107.354Z" fill="white"/>
<path d="M24.8362 101.08C24.7872 101.586 24.7366 102.1 24.6716 102.617C24.497 104.022 24.2595 105.416 23.96 106.794C22.6897 112.666 20.2822 118.138 16.915 122.806C17.1874 123.209 17.4599 123.613 17.7371 124.025C21.3305 119.129 23.8968 113.36 25.2402 107.157C25.5598 105.687 25.8111 104.198 25.9931 102.697C26.0565 102.187 26.107 101.674 26.1496 101.166C26.5217 96.9774 26.3349 92.749 25.5955 88.6249C25.175 88.8393 24.7626 89.0483 24.3581 89.2518C25.0264 93.1461 25.1875 97.1319 24.8362 101.08Z" fill="white"/>
<path d="M47.0604 103.485C46.9762 103.997 46.8792 104.505 46.7694 105.009C46.7424 105.165 46.7074 105.326 46.674 105.479C45.2902 111.84 42.5805 117.724 38.776 122.63C34.9714 127.536 30.1848 131.318 24.8242 133.654C25.1382 134.054 25.4522 134.453 25.7742 134.848C31.2223 132.373 36.0759 128.452 39.9331 123.408C43.7902 118.364 46.5398 112.342 47.9542 105.843C47.9988 105.638 48.0433 105.433 48.0814 105.227C48.1864 104.713 48.2833 104.205 48.3739 103.695C49.7225 95.7881 49.049 87.605 46.434 80.124C46.0055 80.2508 45.5769 80.3776 45.1468 80.5116C47.7279 87.7935 48.3929 95.7775 47.0604 103.485Z" fill="white"/>
<path d="M65.1731 107.354C65.1002 107.877 65.0144 108.396 64.9223 108.914C64.8221 109.467 64.7156 110.019 64.5963 110.568C62.7281 119.112 58.4874 126.736 52.5091 132.297C46.5309 137.858 39.1367 141.057 31.4336 141.416C31.8805 141.892 32.321 142.366 32.771 142.828C40.5236 142.161 47.8949 138.72 53.8379 132.994C59.7809 127.268 63.9932 119.548 65.8765 110.931C65.9958 110.383 66.1087 109.833 66.2009 109.284C66.301 108.762 66.3868 108.242 66.4661 107.721C68.0075 97.1817 65.9852 86.3667 60.8086 77.4663C60.3015 77.4854 59.7961 77.5282 59.2842 77.5692C64.5629 86.2451 66.6752 96.9289 65.1731 107.354Z" fill="white"/>
<path d="M85.2446 225.516L81.1162 220.714L86.1781 211.872L94.842 195.397C94.5589 194.688 94.4711 193.896 94.5902 193.128C94.7093 192.36 95.0297 191.652 95.509 191.096C95.9883 190.541 96.6039 190.165 97.2744 190.018C97.9448 189.871 98.6386 189.96 99.2639 190.273C99.8892 190.586 100.417 191.109 100.776 191.772C101.136 192.435 101.311 193.207 101.278 193.986C101.245 194.765 101.006 195.514 100.592 196.134C100.178 196.755 99.6095 197.217 98.9608 197.46L91.8096 215.049L85.2446 225.516Z" fill="#A0616A"/>
<path d="M80.6707 236.479C80.186 237.336 79.4953 238.016 78.6813 238.437C77.8673 238.858 76.9644 239.003 76.0804 238.853C75.2391 238.74 74.4451 238.348 73.7958 237.726C73.1466 237.105 72.6704 236.28 72.4258 235.353C72.2455 234.696 72.1931 234.001 72.272 233.318C72.3509 232.635 72.5593 231.98 72.8827 231.398C75.6445 226.079 80.7381 219.055 80.7891 218.985L80.8702 218.874L89.4613 221L80.6707 236.479Z" fill="#7D00B1"/>
<path d="M154.167 44.7825L153.157 45.1378L144.635 13.5188C143.327 8.66531 140.385 4.60419 136.456 2.22886C132.527 -0.146474 127.932 -0.641442 123.684 0.852846L65.0434 21.4773C62.9397 22.2172 60.9841 23.4232 59.2884 25.0265C57.5927 26.6297 56.19 28.5988 55.1604 30.8213C54.1309 33.0438 53.4946 35.4763 53.2879 37.9797C53.0812 40.4831 53.3082 43.0085 53.9559 45.4118L100.706 218.876C102.014 223.729 104.956 227.791 108.885 230.166C112.815 232.541 117.409 233.036 121.657 231.542L180.298 210.917C184.546 209.423 188.101 206.062 190.181 201.574C192.26 197.085 192.693 191.837 191.385 186.983L159.223 67.6447L160.233 67.2894L154.167 44.7825Z" fill="#3F3D56"/>
<path d="M125.613 5.38649L117.959 8.07867C118.577 8.94075 118.999 9.96314 119.19 11.0558C119.38 12.1484 119.332 13.2777 119.05 14.3443C118.769 15.4109 118.262 16.3819 117.574 17.1719C116.886 17.9619 116.039 18.5466 115.107 18.8745L81.513 30.69C80.5809 31.0178 79.5926 31.0786 78.6351 30.8672C77.6776 30.6558 76.7803 30.1787 76.0223 29.4778C75.2642 28.7769 74.6687 27.8739 74.2881 26.8481C73.9075 25.8224 73.7536 24.7055 73.8399 23.5958L66.6906 26.1103C63.5178 27.2262 60.8629 29.7363 59.3101 33.0883C57.7573 36.4403 57.4338 40.3597 58.4106 43.9842L105.092 217.194C106.069 220.818 108.266 223.851 111.2 225.625C114.135 227.399 117.566 227.769 120.738 226.653L179.661 205.929C182.834 204.813 185.489 202.303 187.042 198.951C188.594 195.599 188.918 191.68 187.941 188.055L141.26 14.8453C140.283 11.2207 138.086 8.18793 135.151 6.41406C132.217 4.6402 128.786 4.27057 125.613 5.38649Z" fill="white"/>
<path d="M362.856 383.551L225.296 327.063C222.037 325.72 219.377 322.955 217.9 319.375C216.424 315.794 216.25 311.691 217.419 307.965L289.129 80.0692C290.305 76.3461 292.725 73.3078 295.859 71.6208C298.994 69.9338 302.586 69.7359 305.847 71.0706L443.408 127.558C446.667 128.901 449.327 131.666 450.803 135.247C452.28 138.827 452.453 142.931 451.285 146.657L379.575 374.553C378.399 378.276 375.978 381.314 372.844 383.001C369.71 384.688 366.118 384.886 362.856 383.551Z" fill="#3F3D56"/>
<path d="M365.918 374.687L227.873 318.001C226.869 317.587 226.049 316.734 225.594 315.63C225.138 314.527 225.085 313.262 225.445 312.113L297.631 82.7083C297.993 81.5606 298.739 80.624 299.705 80.104C300.671 79.584 301.779 79.523 302.784 79.9344L440.829 136.621C441.833 137.035 442.653 137.887 443.108 138.991C443.564 140.095 443.617 141.36 443.257 142.508L371.072 371.913C370.709 373.061 369.963 373.998 368.997 374.518C368.031 375.038 366.923 375.099 365.918 374.687Z" fill="white"/>
<path d="M372.75 104.672C373.364 104.672 373.862 104.103 373.862 103.402C373.862 102.701 373.364 102.132 372.75 102.132C372.136 102.132 371.639 102.701 371.639 103.402C371.639 104.103 372.136 104.672 372.75 104.672Z" fill="white"/>
<path d="M144.246 138.118C155.97 124.725 155.97 103.01 144.246 89.6166C132.522 76.2234 113.514 76.2234 101.79 89.6166C90.0657 103.01 90.0657 124.725 101.79 138.118C113.514 151.511 132.522 151.511 144.246 138.118Z" fill="#7D00B1"/>
<path d="M126.161 130.234L111.302 118.718L112.599 116.535L124.901 126.069L133.793 94.2944L135.992 95.0975L126.161 130.234Z" fill="white"/>
<path d="M361.346 255.032C376.195 238.068 376.195 210.565 361.346 193.602C346.496 176.638 322.421 176.638 307.572 193.602C292.722 210.565 292.722 238.068 307.572 255.032C322.421 271.995 346.496 271.995 361.346 255.032Z" fill="#7D00B1"/>
<path d="M325.289 242.772L319.828 217.552L322.669 216.751L327.189 237.631L359.116 216.304L360.592 219.187L325.289 242.772Z" fill="white"/>
<path d="M87.6376 354.181H92.7709L95.2129 331.562L87.6367 331.563L87.6376 354.181Z" fill="#A0616A"/>
<path d="M86.3281 352.266L96.4372 352.266C98.1457 352.266 99.7847 353.041 100.993 354.421C102.201 355.802 102.88 357.673 102.88 359.625V359.864L86.3284 359.865L86.3281 352.266Z" fill="#2F2E41"/>
<path d="M47.6689 351.643L52.7444 352.519L58.119 330.572L51.4654 329.279L47.6689 351.643Z" fill="#A0616A"/>
<path d="M46.6249 349.526L56.6204 351.252C58.3097 351.544 59.8288 352.59 60.8428 354.161C61.8567 355.732 62.2829 357.699 62.0277 359.629L61.9964 359.865L45.6309 357.039L46.6249 349.526Z" fill="#2F2E41"/>
<path d="M77.3993 247.554L89.3361 244.583L96.0313 266.447L96.2406 350.868L86.4968 350.798L82.4237 282.47L56.4645 345.606L45.9971 344.172L68.816 276.491C68.816 276.491 67.5599 264.533 71.5376 258.555L70.7002 252.337L77.3993 247.554Z" fill="#2F2E41"/>
<path d="M66.1939 231.478C65.9225 230.547 65.8937 229.546 66.1109 228.597C66.3281 227.647 66.7819 226.79 67.4173 226.13L69.9405 223.51L77.0536 222.141L81.5013 221.217L92.0474 251.293L71.2877 253.993C69.764 253.618 69.1554 252.666 70.042 250.772L66.1939 231.478Z" fill="#7D00B1"/>
<path d="M91.3294 226.498L90.7354 219.802L99.525 216.516L115.303 209.846C115.471 209.09 115.835 208.409 116.348 207.895C116.862 207.381 117.499 207.057 118.177 206.965C118.856 206.874 119.542 207.02 120.146 207.384C120.749 207.748 121.242 208.313 121.559 209.004C121.875 209.695 122.001 210.48 121.919 211.254C121.837 212.028 121.551 212.756 121.099 213.34C120.647 213.925 120.05 214.339 119.388 214.528C118.725 214.716 118.028 214.671 117.389 214.397L102.182 223.017L91.3294 226.498Z" fill="#A0616A"/>
<path d="M81.7603 231.788C80.9128 232.111 80.0017 232.148 79.136 231.896C78.2703 231.643 77.4867 231.111 76.8787 230.363C76.2844 229.673 75.8792 228.8 75.7128 227.851C75.5463 226.903 75.6259 225.919 75.9417 225.021C76.161 224.379 76.5001 223.799 76.9356 223.323C77.3711 222.846 77.8923 222.483 78.4631 222.26C83.5291 220.082 91.3488 218.238 91.427 218.219L91.5514 218.19L97.0926 225.985L81.7603 231.788Z" fill="#7D00B1"/>
<path d="M73.9313 219.262C78.2436 219.262 81.7395 215.268 81.7395 210.342C81.7395 205.416 78.2436 201.422 73.9313 201.422C69.6189 201.422 66.123 205.416 66.123 210.342C66.123 215.268 69.6189 219.262 73.9313 219.262Z" fill="#A0616A"/>
<path d="M67.6098 223.049C66.399 223.049 65.1892 222.965 63.9873 222.797L63.8225 222.774L62.5648 214.974C62.0314 211.667 62.6261 208.253 64.227 205.431C65.8278 202.61 68.3133 200.595 71.1733 199.801C71.3642 199.746 71.5647 199.752 71.7527 199.819C71.9408 199.885 72.1091 200.01 72.2393 200.178L72.5393 200.059C73.6877 199.601 74.9038 199.407 76.118 199.486C77.3323 199.566 78.521 199.917 79.6163 200.522C80.7115 201.126 81.6919 201.971 82.5013 203.008C83.3108 204.045 83.9335 205.254 84.334 206.566L84.4083 206.809L82.4066 207.607C81.7829 207.855 81.2155 208.259 80.7457 208.79C80.2759 209.32 79.9155 209.964 79.6908 210.673C79.466 211.383 79.3826 212.141 79.4464 212.892C79.5103 213.643 79.7199 214.368 80.0601 215.015L82.1067 218.907L81.8888 219.032C77.4714 221.634 72.5796 223.01 67.6098 223.049Z" fill="#2F2E41"/>
<path d="M172.586 360.71H0.451796C0.331972 360.71 0.217056 360.656 0.132328 360.559C0.0475994 360.462 0 360.331 0 360.194C0 360.057 0.0475994 359.926 0.132328 359.829C0.217056 359.732 0.331972 359.678 0.451796 359.678H172.586C172.706 359.678 172.821 359.732 172.905 359.829C172.99 359.926 173.038 360.057 173.038 360.194C173.038 360.331 172.99 360.462 172.905 360.559C172.821 360.656 172.706 360.71 172.586 360.71Z" fill="#CACACA"/>
<path d="M477.548 386H305.414C305.294 386 305.179 385.946 305.094 385.849C305.01 385.752 304.962 385.621 304.962 385.484C304.962 385.347 305.01 385.216 305.094 385.119C305.179 385.022 305.294 384.968 305.414 384.968H477.548C477.668 384.968 477.783 385.022 477.867 385.119C477.952 385.216 478 385.347 478 385.484C478 385.621 477.952 385.752 477.867 385.849C477.783 385.946 477.668 386 477.548 386Z" fill="#CACACA"/>
<path d="M384.058 295.922C384.44 295.556 384.746 295.1 384.957 294.585C385.168 294.069 385.277 293.507 385.277 292.939C385.277 292.37 385.167 291.808 384.957 291.293C384.746 290.778 384.439 290.321 384.057 289.956L381.525 239.056L374.302 240.921L379.077 290.633C378.583 291.406 378.354 292.359 378.434 293.313C378.514 294.266 378.897 295.152 379.511 295.804C380.125 296.456 380.927 296.828 381.765 296.85C382.603 296.872 383.419 296.541 384.058 295.922Z" fill="#9F616A"/>
<path d="M413.39 302.55C412.997 302.201 412.676 301.757 412.449 301.251C412.222 300.745 412.095 300.188 412.077 299.619C412.059 299.051 412.151 298.485 412.345 297.961C412.539 297.438 412.832 296.969 413.202 296.588L414.119 245.616L421.397 247.182L418.2 297.058C418.718 297.811 418.977 298.754 418.927 299.71C418.878 300.666 418.523 301.568 417.93 302.244C417.337 302.921 416.547 303.326 415.711 303.383C414.874 303.439 414.048 303.143 413.39 302.55Z" fill="#9F616A"/>
<path d="M417.241 378.304L422.908 378.304L424.525 363.2L417.24 363.201L417.241 378.304Z" fill="#9F616A"/>
<path d="M415.796 376.19L426.957 376.19H426.958C428.844 376.19 430.653 377.046 431.987 378.57C433.321 380.094 434.07 382.16 434.071 384.315V384.579L415.796 384.58L415.796 376.19Z" fill="#2F2E41"/>
<path d="M381.876 378.304L387.543 378.304L389.16 353.331H381.875L381.876 378.304Z" fill="#9F616A"/>
<path d="M380.431 376.19L391.592 376.19C393.478 376.19 395.288 377.046 396.622 378.57C397.956 380.094 398.705 382.16 398.705 384.315V384.579L380.431 384.58L380.431 376.19Z" fill="#2F2E41"/>
<path d="M404.706 217.096C409.826 217.096 413.978 212.354 413.978 206.504C413.978 200.654 409.826 195.912 404.706 195.912C399.585 195.912 395.434 200.654 395.434 206.504C395.434 212.354 399.585 217.096 404.706 217.096Z" fill="#9F616A"/>
<path d="M416.491 230.946C416.491 230.946 420.612 231.338 420.955 233.692C421.298 236.046 420.955 243.107 420.955 243.107C420.955 243.107 423.702 252.523 420.955 254.876C418.208 257.23 410.996 257.622 410.996 257.622L416.491 230.946Z" fill="#E4E4E4"/>
<path d="M381.463 284.299L377.686 291.36C377.686 291.36 379.059 322.352 379.403 323.137C379.675 323.597 379.797 324.153 379.746 324.706V329.022L380.776 366.683C380.776 366.683 378.029 368.252 381.463 369.429C384.897 370.606 389.362 370.998 390.048 367.075C390.735 363.152 390.768 330.47 390.735 329.414L391.079 327.845L396.573 304.699L409.279 336.868L416.834 372.959C416.834 372.959 428.269 374.468 426.208 369.368C424.148 364.268 419.238 326.275 419.238 326.275C419.238 326.275 418.208 322.352 418.208 321.568C418.208 320.783 417.865 320.391 417.865 319.606C417.865 318.822 417.521 316.468 417.521 316.468L415.117 291.753L381.463 284.299Z" fill="#2F2E41"/>
<path d="M384.897 224.277C384.897 224.277 380.776 223.884 379.746 227.807C378.716 231.731 370.13 246.638 371.847 248.207C373.564 249.776 386.614 255.269 386.957 254.876C387.301 254.484 384.897 224.277 384.897 224.277Z" fill="#E4E4E4"/>
<path d="M415.504 199.749C415.115 198.095 414.566 196.441 413.449 195.298C412.317 194.148 410.864 193.494 409.35 193.453C407.622 192.309 405.682 191.646 403.688 191.517C401.694 191.387 399.702 191.796 397.871 192.71C397.673 192.253 397.353 191.88 396.957 191.645C396.847 192.734 396.737 193.824 396.626 194.913C396.2 194.547 395.774 194.181 395.348 193.815C395.327 194.459 395.306 195.104 395.285 195.749C394.895 195.365 394.505 194.982 394.114 194.599C394.031 196.882 395.694 198.858 397.575 199.637C399.456 200.415 401.518 200.271 403.516 200.164C404.503 200.11 405.627 200.13 406.293 200.963C406.99 201.836 406.859 203.175 406.876 204.357C406.9 206.019 408.394 205.205 409.143 206.63C409.466 207.102 409.667 207.668 409.724 208.263C409.654 208.803 409.482 209.32 409.222 209.777C408.67 211.079 407.573 215.128 408.097 216.444C409.066 215.825 410.035 215.205 411.004 214.586C411.004 214.586 417.387 207.759 415.504 199.749Z" fill="#2F2E41"/>
<path d="M413.743 253.699C413.743 253.699 420.611 233.692 420.268 232.123C419.924 230.554 411.355 224.115 411.355 224.115C411.029 224.068 410.72 224.024 410.407 223.979C410.454 223.84 410.486 223.696 410.501 223.549L410.649 222.013C410.694 221.536 410.572 221.059 410.31 220.685C410.047 220.31 409.665 220.071 409.248 220.019L398.359 218.655C397.942 218.603 397.524 218.742 397.196 219.042C396.869 219.342 396.659 219.779 396.613 220.255L396.486 221.584C395.911 221.421 395.885 221.357 395.885 221.357C395.885 221.357 386.27 223.1 383.866 223.884C381.462 224.669 383.523 254.484 383.523 254.484C383.523 254.484 381.806 281.945 380.775 282.73C379.745 283.514 380.775 283.122 379.745 286.26C379.609 286.674 381.507 284.363 382.321 284.887C387.679 288.338 409.407 296.409 414.773 296.068C416.488 275.615 413.056 268.999 413.056 268.999L413.743 253.699Z" fill="#E4E4E4"/>
</g>
<defs>
<clipPath id="clip0_311_5150">
<rect width="478" height="386" fill="white"/>
</clipPath>
</defs>
</svg>
