<svg viewBox="0 0 517 458" fill="none" xmlns="http://www.w3.org/2000/svg">
<g clip-path="url(#clip0_311_5308)">
<path d="M361.561 451.187L353.72 451.186L349.99 420.526L361.562 420.527L361.561 451.187Z" fill="#FFB6B6"/>
<path d="M334.698 451.007C334.454 451.424 334.325 452.769 334.325 453.254C334.325 454.744 335.517 455.951 336.986 455.951H361.268C362.27 455.951 363.083 455.127 363.083 454.111V453.086C363.083 453.086 364.284 450.006 361.811 446.209C361.811 446.209 358.738 449.182 354.145 444.526L352.79 442.039L342.987 449.307L337.553 449.986C336.364 450.134 335.31 449.963 334.698 451.007Z" fill="#2F2E41"/>
<path d="M444.329 441.244L437.165 444.472L421.471 417.992L432.045 413.227L444.329 441.244Z" fill="#FFB6B6"/>
<path d="M419.711 452.142C419.655 452.624 420.077 453.906 420.271 454.349C420.868 455.71 422.44 456.323 423.783 455.718L445.971 445.718C446.887 445.305 447.299 444.217 446.892 443.288L446.481 442.352C446.481 442.352 446.345 439.043 442.564 436.592C442.564 436.592 440.946 440.574 434.884 438.211L432.65 436.496L426.604 447.176L421.91 450.033C420.883 450.659 419.852 450.936 419.711 452.142Z" fill="#2F2E41"/>
<path d="M344.521 259.341L337.55 274.183L349.401 428.248H364.221L370.314 327.187L423.502 428.248H441.681L414.231 356.162L395.409 262.168L344.521 259.341Z" fill="#2F2E41"/>
<path d="M381.846 164.164H363.464L356.723 174.888L341.517 182.261L344.822 228.509L343.164 262.23L345.436 262.163C361.659 261.683 377.874 264.358 392.928 270.504C396.791 272.08 400.839 272.96 404.325 272.076C404.325 272.076 403.003 266.714 401.68 265.374C400.358 264.033 399.697 262.925 400.358 262.138C401.019 261.352 402.341 260.682 401.019 259.341C399.697 258.001 399.697 256.312 399.697 256.312L395.73 226.498L403.664 184.272L387.135 174.888L381.846 164.164Z" fill="#7D00B1"/>
<path d="M413.434 222.632L412.933 262.185L403.225 297.444L395.465 294.51L398.91 262.191L398.457 218.455L413.434 222.632Z" fill="#FFB6B6"/>
<path d="M403.192 303.13C404.102 298.06 402.433 293.505 399.464 292.957C396.495 292.409 393.349 296.075 392.439 301.145C391.528 306.215 393.197 310.77 396.167 311.318C399.136 311.866 402.281 308.2 403.192 303.13Z" fill="#FFB6B6"/>
<path d="M399.697 182.261C399.697 182.261 410.65 183.981 410.794 193.51C410.937 203.039 421.515 218.455 414.904 230.52L397.714 233.201L388.458 199.018L399.036 180.92" fill="#7D00B1"/>
<path d="M349.704 215.666L327.876 248.453L300.675 272.53L295.776 265.759L316.15 240.658L339.444 203.843L349.704 215.666Z" fill="#FFB6B6"/>
<path d="M297.57 277.264C301.075 273.532 302.145 268.796 299.96 266.686C297.774 264.576 293.16 265.891 289.655 269.623C286.149 273.355 285.079 278.091 287.265 280.201C289.451 282.311 294.064 280.996 297.57 277.264Z" fill="#FFB6B6"/>
<path d="M360.071 174.274C360.071 174.274 368.297 181.806 363.259 189.852C358.221 197.897 358.72 216.67 346.662 223.078L330.841 215.756C332.174 202.538 332.951 188.834 341.605 182.03L360.244 172.786" fill="#7D00B1"/>
<path d="M369.803 161.401C378.887 161.401 386.251 153.936 386.251 144.727C386.251 135.517 378.887 128.052 369.803 128.052C360.719 128.052 353.355 135.517 353.355 144.727C353.355 153.936 360.719 161.401 369.803 161.401Z" fill="#FFB6B6"/>
<path d="M381.883 158.427C382.789 158.584 383.853 156.357 384.869 154.189C386.997 149.65 388.349 146.765 388.452 142.686C388.54 139.21 387.587 140.122 386.661 132.394C386.355 129.845 382.06 129.85 381.185 128.64C379.709 126.595 381.974 125.752 378.3 124.524C371.418 122.223 368.306 125.797 363.936 126.105C363.825 126.113 361.659 128.261 360.449 128.372C358.329 128.566 355.27 128.232 353.899 124.957C352.617 121.895 351.768 130.842 352.914 131.95C353.887 132.89 355.565 135.25 355.608 135.421C355.656 135.615 351.617 131.079 350.943 132.949C350.458 134.294 351.985 141.215 353.219 141.475C354.251 141.693 356.774 138.245 356.205 139.659C354.884 142.939 362.824 145.031 372.329 138.448C372.666 138.215 372.347 138.587 373.523 141.475C375.006 145.118 375.34 145.315 375.314 146.319C375.258 148.491 373.65 149.13 374.12 150.557C374.501 151.712 375.989 152.607 377.106 152.373C378.366 152.109 378.582 150.529 379.495 150.557C380.276 150.581 381.204 151.774 381.286 152.978C381.46 155.516 377.755 156.213 377.106 159.638C376.74 161.571 381.051 158.283 381.883 158.427Z" fill="#2F2E41"/>
<path d="M251.678 456.711H110.35C89.1528 456.711 71.9072 439.227 71.9072 417.737V38.9736C71.9072 17.4836 89.1528 0 110.35 0H251.678C272.875 0 290.121 17.4836 290.121 38.9736C292.752 191.073 297.238 361.401 290.121 417.737C290.121 439.228 272.875 456.711 251.678 456.711Z" fill="#3F3D56"/>
<path d="M292.092 139.322C291.195 139.322 290.466 140.061 290.466 140.97V193.731C290.466 194.641 291.195 195.38 292.092 195.38C292.989 195.38 293.718 194.641 293.718 193.731V140.97C293.718 140.061 292.989 139.322 292.092 139.322Z" fill="#3F3D56"/>
<path d="M286.462 38.9739V417.731C286.462 436.436 272.101 451.737 253.943 452.924H253.935C253.667 452.94 253.398 452.957 253.122 452.965C252.642 452.99 252.162 452.998 251.675 452.998C251.675 452.998 249.886 452.866 246.617 452.619C243.315 452.371 238.509 452 232.516 451.514C230.719 451.374 228.825 451.217 226.824 451.052C222.84 450.723 218.465 450.36 213.773 449.948C211.903 449.791 209.967 449.618 207.991 449.445C197.892 448.563 186.581 447.532 174.652 446.362C172.635 446.172 170.602 445.974 168.553 445.768C168.016 445.71 75.5664 422.149 75.5664 417.731V38.9739C75.5664 19.4937 91.1385 3.70667 110.354 3.70667H131.122C134.439 3.70667 137.107 6.32822 137.391 9.68348C137.416 9.90608 137.44 10.1286 137.481 10.3512C138.082 13.723 141.132 16.0725 144.515 16.0725H217.514C220.896 16.0725 223.946 13.723 224.547 10.3512C224.588 10.1286 224.612 9.90608 224.637 9.68348C224.921 6.32822 227.589 3.70667 230.906 3.70667H251.675C270.89 3.70667 286.462 19.4937 286.462 38.9739Z" fill="white"/>
<path d="M71.0941 99.751C70.1972 99.751 69.4678 100.49 69.4678 101.4V114.59C69.4678 115.499 70.1972 116.239 71.0941 116.239C71.991 116.239 72.7204 115.499 72.7204 114.59V101.4C72.7204 100.49 71.991 99.751 71.0941 99.751Z" fill="#3F3D56"/>
<path d="M71.0941 139.322C70.1972 139.322 69.4678 140.061 69.4678 140.97V166.526C69.4678 167.436 70.1972 168.175 71.0941 168.175C71.991 168.175 72.7204 167.436 72.7204 166.526V140.97C72.7204 140.061 71.991 139.322 71.0941 139.322Z" fill="#3F3D56"/>
<path d="M71.0941 175.595C70.1972 175.595 69.4678 176.334 69.4678 177.243V202.8C69.4678 203.709 70.1972 204.448 71.0941 204.448C71.991 204.448 72.7204 203.709 72.7204 202.8V177.243C72.7204 176.334 71.991 175.595 71.0941 175.595Z" fill="#3F3D56"/>
<path d="M130.556 9.48059H99.4541C99.2853 9.48059 99.1484 9.61934 99.1484 9.79049V13.2926C99.1484 13.4638 99.2853 13.6025 99.4541 13.6025H130.556C130.725 13.6025 130.862 13.4638 130.862 13.2926V9.79049C130.862 9.61934 130.725 9.48059 130.556 9.48059Z" fill="#E6E6E6"/>
<path d="M236.046 13.6025C237.842 13.6025 239.298 12.1262 239.298 10.305C239.298 8.48381 237.842 7.00745 236.046 7.00745C234.249 7.00745 232.793 8.48381 232.793 10.305C232.793 12.1262 234.249 13.6025 236.046 13.6025Z" fill="#E6E6E6"/>
<path d="M244.99 13.6025C246.786 13.6025 248.243 12.1262 248.243 10.305C248.243 8.48381 246.786 7.00745 244.99 7.00745C243.194 7.00745 241.737 8.48381 241.737 10.305C241.737 12.1262 243.194 13.6025 244.99 13.6025Z" fill="#E6E6E6"/>
<path d="M253.935 13.6025C255.732 13.6025 257.188 12.1262 257.188 10.305C257.188 8.48381 255.732 7.00745 253.935 7.00745C252.139 7.00745 250.683 8.48381 250.683 10.305C250.683 12.1262 252.139 13.6025 253.935 13.6025Z" fill="#E6E6E6"/>
<path d="M254.97 303.416C254.97 265.829 223.634 245.152 187.839 235.359C141.947 222.803 108.336 248.211 120.708 303.416C128.923 340.069 170.616 394.769 187.839 361.484C207.547 323.396 254.97 341.003 254.97 303.416Z" fill="#F2F2F2"/>
<path d="M0 456.811C0 457.47 0.522282 458 1.17266 458H515.827C516.478 458 517 457.47 517 456.811C517 456.152 516.478 455.622 515.827 455.622H1.17266C0.522282 455.622 0 456.152 0 456.811Z" fill="#CCCCCC"/>
<path d="M164.767 296.707L156.657 292.812C159.983 297.518 162.85 304.868 164.384 310.716C166.982 305.269 171.17 298.603 175.316 294.621L166.745 296.856C172.026 270.615 191.891 251.776 214.638 251.776L214.96 250.829C191.2 250.829 170.159 269.406 164.767 296.707Z" fill="#3F3D56"/>
<path d="M202.092 336.69H150.853C148.679 336.69 146.911 334.897 146.911 332.694C146.911 330.491 148.679 328.698 150.853 328.698H202.092C204.266 328.698 206.034 330.491 206.034 332.694C206.034 334.897 204.266 336.69 202.092 336.69Z" fill="#7D00B1"/>
<path d="M249.991 129.593V235.485C249.991 244.85 242.477 252.468 233.24 252.468H128.79C119.553 252.468 112.038 244.85 112.038 235.485V129.593C112.038 120.229 119.553 112.611 128.79 112.611H233.24C242.477 112.611 249.991 120.229 249.991 129.593ZM233.24 250.47C241.403 250.47 248.021 243.761 248.021 235.485V182.099C248.021 144.825 218.216 114.609 181.449 114.609H128.79C120.626 114.609 114.009 121.317 114.009 129.593V235.485C114.009 243.761 120.626 250.47 128.79 250.47H233.24Z" fill="#3F3D56"/>
<path d="M194.919 155.859H161.199C160.349 155.859 159.657 155.158 159.657 154.296C159.657 153.434 160.349 152.733 161.199 152.733H194.919C195.77 152.733 196.461 153.434 196.461 154.296C196.461 155.158 195.77 155.859 194.919 155.859Z" fill="#3F3D56"/>
<path d="M194.919 189.188H161.199C160.349 189.188 159.657 188.487 159.657 187.625C159.657 186.763 160.349 186.062 161.199 186.062H194.919C195.77 186.062 196.461 186.763 196.461 187.625C196.461 188.487 195.77 189.188 194.919 189.188Z" fill="#3F3D56"/>
<path d="M178.167 235.142H144.447C143.597 235.142 142.905 234.441 142.905 233.579C142.905 232.717 143.597 232.016 144.447 232.016H178.167C179.018 232.016 179.709 232.717 179.709 233.579C179.709 234.441 179.018 235.142 178.167 235.142Z" fill="#3F3D56"/>
<path d="M213.014 172.535H143.104C142.254 172.535 141.562 171.833 141.562 170.971C141.562 170.11 142.254 169.409 143.104 169.409H213.014C213.864 169.409 214.556 170.11 214.556 170.971C214.556 171.833 213.864 172.535 213.014 172.535Z" fill="#3F3D56"/>
</g>
<defs>
<clipPath id="clip0_311_5308">
<rect width="517" height="458" fill="white"/>
</clipPath>
</defs>
</svg>
