<svg width="1438" height="713" viewBox="0 0 1438 713" fill="none" xmlns="http://www.w3.org/2000/svg">
<g clip-path="url(#clip0_203_1970)">
<rect x="-2" width="1440" height="713" rx="5" fill="white"/>
<g clip-path="url(#clip1_203_1970)">
<rect x="-2" y="-2" width="1440" height="713" rx="5" fill="url(#paint0_linear_203_1970)" fill-opacity="0.65"/>
<path d="M-2 408.635L24.7 429.761C51.55 450.887 104.95 493.139 158.2 496.044C211.45 498.817 264.55 462.374 317.8 465.411C371.05 468.448 424.45 511.228 478 530.505C531.55 549.915 584.95 545.954 638.2 521.791C691.45 497.496 744.55 453.132 797.8 450.227C851.05 447.322 904.45 486.141 958 493.139C1011.55 500.137 1064.95 475.578 1118.2 467.656C1171.45 459.734 1224.55 468.448 1277.8 472.673C1331.05 476.898 1384.45 476.37 1411.3 476.238L1438 475.974V712.32H1411.3C1384.45 712.32 1331.05 712.32 1277.8 712.32C1224.55 712.32 1171.45 712.32 1118.2 712.32C1064.95 712.32 1011.55 712.32 958 712.32C904.45 712.32 851.05 712.32 797.8 712.32C744.55 712.32 691.45 712.32 638.2 712.32C584.95 712.32 531.55 712.32 478 712.32C424.45 712.32 371.05 712.32 317.8 712.32C264.55 712.32 211.45 712.32 158.2 712.32C104.95 712.32 51.55 712.32 24.7 712.32H-2V408.635Z" fill="#C987E4" fill-opacity="0.45"/>
<path d="M-2 498.42L24.7 491.554C51.55 484.821 104.95 471.089 158.2 488.254C211.45 505.418 264.55 553.48 317.8 561.798C371.05 570.116 424.45 538.956 478 529.185C531.55 519.546 584.95 531.43 638.2 547.274C691.45 563.118 744.55 582.924 797.8 589.13C851.05 595.204 904.45 587.809 958 558.233C1011.55 528.789 1064.95 477.294 1118.2 450.227C1171.45 423.159 1224.55 420.518 1277.8 426.196C1331.05 432.006 1384.45 446.002 1411.3 453.132L1438 460.13V712.32H1411.3C1384.45 712.32 1331.05 712.32 1277.8 712.32C1224.55 712.32 1171.45 712.32 1118.2 712.32C1064.95 712.32 1011.55 712.32 958 712.32C904.45 712.32 851.05 712.32 797.8 712.32C744.55 712.32 691.45 712.32 638.2 712.32C584.95 712.32 531.55 712.32 478 712.32C424.45 712.32 371.05 712.32 317.8 712.32C264.55 712.32 211.45 712.32 158.2 712.32C104.95 712.32 51.55 712.32 24.7 712.32H-2V498.42Z" fill="#AB74C2" fill-opacity="0.45"/>
<path d="M-2 534.07L24.7 533.41C51.55 532.75 104.95 531.43 158.2 542.917C211.45 554.272 264.55 578.567 317.8 576.718C371.05 575.002 424.45 547.274 478 540.276C531.55 533.146 584.95 546.878 638.2 551.235C691.45 555.592 744.55 550.839 797.8 543.049C851.05 535.391 904.45 524.828 958 515.321C1011.55 505.947 1064.95 497.496 1118.2 495.516C1171.45 493.535 1224.55 498.024 1277.8 519.546C1331.05 541.068 1384.45 579.887 1411.3 599.165L1438 618.574V712.32H1411.3C1384.45 712.32 1331.05 712.32 1277.8 712.32C1224.55 712.32 1171.45 712.32 1118.2 712.32C1064.95 712.32 1011.55 712.32 958 712.32C904.45 712.32 851.05 712.32 797.8 712.32C744.55 712.32 691.45 712.32 638.2 712.32C584.95 712.32 531.55 712.32 478 712.32C424.45 712.32 371.05 712.32 317.8 712.32C264.55 712.32 211.45 712.32 158.2 712.32C104.95 712.32 51.55 712.32 24.7 712.32H-2V534.07Z" fill="#D271FA" fill-opacity="0.48"/>
<path d="M-2 557.837L24.7 556.781C51.55 555.592 104.95 553.48 158.2 557.573C211.45 561.798 264.55 572.361 317.8 577.643C371.05 582.924 424.45 582.924 478 594.543C531.55 606.295 584.95 629.533 638.2 633.098C691.45 636.663 744.55 620.291 797.8 604.05C851.05 587.809 904.45 571.437 958 568.136C1011.55 564.835 1064.95 574.606 1118.2 588.866C1171.45 603.126 1224.55 622.139 1277.8 629.533C1331.05 637.059 1384.45 633.098 1411.3 631.118L1438 629.137V712.32H1411.3C1384.45 712.32 1331.05 712.32 1277.8 712.32C1224.55 712.32 1171.45 712.32 1118.2 712.32C1064.95 712.32 1011.55 712.32 958 712.32C904.45 712.32 851.05 712.32 797.8 712.32C744.55 712.32 691.45 712.32 638.2 712.32C584.95 712.32 531.55 712.32 478 712.32C424.45 712.32 371.05 712.32 317.8 712.32C264.55 712.32 211.45 712.32 158.2 712.32C104.95 712.32 51.55 712.32 24.7 712.32H-2V557.837Z" fill="#924EAE" fill-opacity="0.14"/>
<path d="M-2 660.826L24.7 654.224C51.55 647.622 104.95 634.419 158.2 631.118C211.45 627.817 264.55 634.419 317.8 637.455C371.05 640.624 424.45 640.096 478 640.624C531.55 641.02 584.95 642.341 638.2 647.358C691.45 652.508 744.55 661.222 797.8 667.032C851.05 672.709 904.45 675.35 958 671.653C1011.55 667.824 1064.95 657.789 1118.2 647.622C1171.45 637.455 1224.55 627.421 1277.8 627.553C1331.05 627.817 1384.45 638.38 1411.3 643.661L1438 648.943V712.32H1411.3C1384.45 712.32 1331.05 712.32 1277.8 712.32C1224.55 712.32 1171.45 712.32 1118.2 712.32C1064.95 712.32 1011.55 712.32 958 712.32C904.45 712.32 851.05 712.32 797.8 712.32C744.55 712.32 691.45 712.32 638.2 712.32C584.95 712.32 531.55 712.32 478 712.32C424.45 712.32 371.05 712.32 317.8 712.32C264.55 712.32 211.45 712.32 158.2 712.32C104.95 712.32 51.55 712.32 24.7 712.32H-2V660.826Z" fill="#9851B5" fill-opacity="0.24"/>
</g>
</g>
<defs>
<linearGradient id="paint0_linear_203_1970" x1="718" y1="-209.191" x2="718" y2="711" gradientUnits="userSpaceOnUse">
<stop offset="0.165985" stop-color="#FCF4FF"/>
<stop offset="1" stop-color="#EEC4FF"/>
</linearGradient>
<clipPath id="clip0_203_1970">
<rect x="-2" width="1440" height="713" rx="5" fill="white"/>
</clipPath>
<clipPath id="clip1_203_1970">
<rect x="-2" y="-2" width="1440" height="713" rx="5" fill="white"/>
</clipPath>
</defs>
</svg>
