<svg width="506" height="349" viewBox="0 0 506 349" fill="none" xmlns="http://www.w3.org/2000/svg">
<g clip-path="url(#clip0_248_8887)">
<path d="M411.799 35.0761C415.032 24.0175 411.958 11.1204 401.513 3.84641C401.308 16.2274 395.889 28.1487 386.213 37.5012C382.465 41.0968 377.851 44.7687 377.669 49.5416C377.556 52.5114 379.285 55.3638 381.667 57.5633C384.049 59.7629 387.054 61.4089 390.024 63.0298L390.46 63.6751C400.019 55.589 408.566 46.1348 411.799 35.0761Z" fill="#F0F0F0"/>
<path d="M401.304 4.00796C405.309 12.8134 405.905 22.4536 403.006 31.5591C402.423 33.5286 401.474 35.4088 400.194 37.1304C398.881 38.7737 397.068 40.0923 394.943 40.9493C392.98 41.7817 390.858 42.4425 389.171 43.6605C388.318 44.2947 387.635 45.0729 387.166 45.9441C386.697 46.8152 386.453 47.7596 386.45 48.7154C386.369 51.0966 387.312 53.3604 388.327 55.5474C389.453 57.9755 390.669 60.4827 390.409 63.1412C390.377 63.4633 390.975 63.4855 391.007 63.1639C391.46 58.5386 387.714 54.6316 387.12 50.1453C386.843 48.0519 387.316 45.8758 389.162 44.3495C390.775 43.0148 392.963 42.3318 394.959 41.5034C397.047 40.6929 398.867 39.466 400.259 37.9298C401.64 36.2684 402.674 34.422 403.317 32.4697C404.847 28.0938 405.547 23.5433 405.391 18.9849C405.248 13.7817 404.045 8.63742 401.833 3.77453C401.696 3.47359 401.167 3.70899 401.304 4.00796Z" fill="white"/>
<path d="M404.145 28.6732C406.033 28.8737 407.944 28.505 409.538 27.6329C411.131 26.7607 412.303 25.442 412.844 23.9121C412.952 23.6022 412.383 23.4467 412.275 23.7569C411.774 25.1823 410.682 26.4107 409.197 27.2203C407.711 28.0299 405.929 28.3674 404.172 28.1719C403.791 28.1298 403.766 28.6314 404.145 28.6732Z" fill="white"/>
<path d="M396.004 40.6371C393.594 38.0769 392.422 34.8489 392.724 31.5967C392.754 31.2745 392.156 31.2522 392.126 31.574C391.82 34.9588 393.047 38.316 395.562 40.9755C395.802 41.2289 396.243 40.8891 396.004 40.6371Z" fill="white"/>
<path d="M404.527 14.0601C403.777 14.1102 403.024 14.0033 402.336 13.7491C401.648 13.4948 401.046 13.1012 400.584 12.6036C400.348 12.3478 399.907 12.6879 400.142 12.9421C400.655 13.4899 401.321 13.9239 402.081 14.2062C402.84 14.4884 403.671 14.6104 404.5 14.5615C404.578 14.5623 404.654 14.5381 404.712 14.4936C404.771 14.4492 404.806 14.3879 404.812 14.3221C404.815 14.2558 404.787 14.191 404.734 14.1419C404.68 14.0929 404.606 14.0635 404.527 14.0601Z" fill="white"/>
<path d="M356.343 11.0055C356.485 11.1687 356.627 11.3319 356.767 11.4992C358.662 13.702 360.34 16.0302 361.786 18.4609C361.901 18.6474 362.014 18.8378 362.123 19.0266C365.53 24.9139 367.605 31.2805 368.241 37.8029C368.491 40.3985 368.506 43.0063 368.284 45.6038C367.978 49.1909 367.306 53.0599 368.399 56.4234C368.508 56.7754 368.643 57.1214 368.803 57.4593L389.487 64.0712C389.543 64.0664 389.598 64.0657 389.654 64.061L390.466 64.3567C390.488 64.2234 390.508 64.0847 390.531 63.9514C390.544 63.8741 390.553 63.7954 390.567 63.7181C390.574 63.6661 390.581 63.6141 390.592 63.5675C390.594 63.5502 390.597 63.5329 390.597 63.5195C390.608 63.473 390.612 63.4288 390.62 63.3862C390.734 62.6114 390.842 61.8346 390.944 61.0558C390.946 61.0519 390.946 61.0519 390.943 61.0464C391.786 55.1182 391.788 49.1271 390.948 43.1985C390.92 43.0219 390.894 42.8414 390.857 42.6617C390.422 40.0173 389.731 37.4071 388.789 34.8571C388.268 33.4623 387.663 32.0904 386.976 30.7468C385.194 27.2781 382.773 24.066 379.801 21.2283C373.876 15.5721 365.859 11.5681 357.019 11.0402C356.793 11.0269 356.571 11.0148 356.343 11.0055Z" fill="#F0F0F0"/>
<path d="M356.289 11.2405C365.81 16.2485 373.206 23.6448 377.428 32.3789C378.377 34.2456 378.969 36.2261 379.182 38.2474C379.314 40.222 378.813 42.1903 377.732 43.9477C376.762 45.6032 375.542 47.2026 375.069 49.0269C374.844 49.9638 374.857 50.9301 375.108 51.8623C375.359 52.7946 375.843 53.6718 376.526 54.4365C378.171 56.3789 380.549 57.71 382.929 58.9439C385.572 60.3139 388.343 61.7018 390.044 63.9559C390.25 64.229 390.743 63.9449 390.537 63.6722C387.578 59.7504 381.783 58.5222 378.087 55.2401C376.363 53.7087 375.179 51.7321 375.557 49.5816C375.887 47.7011 377.144 46.0509 378.143 44.3817C379.228 42.6804 379.8 40.782 379.809 38.8524C379.719 36.8285 379.219 34.8323 378.33 32.949C376.41 28.6826 373.702 24.6958 370.306 21.1347C366.456 17.0525 361.802 13.5527 356.545 10.7866C356.219 10.6155 355.966 11.0705 356.289 11.2405Z" fill="white"/>
<path d="M376.266 29.4995C377.917 28.7065 379.179 27.447 379.825 25.9461C380.471 24.4452 380.46 22.8006 379.793 21.3059C379.657 21.0038 379.091 21.1669 379.228 21.4694C379.851 22.8603 379.861 24.3923 379.256 25.7889C378.651 27.1855 377.471 28.3547 375.928 29.0855C375.593 29.2447 375.933 29.6577 376.266 29.4995Z" fill="white"/>
<path d="M378.356 43.1625C374.593 42.3354 371.34 40.3494 369.246 37.6005C369.039 37.328 368.546 37.612 368.753 37.8842C370.938 40.7414 374.328 42.8024 378.246 43.6558C378.619 43.737 378.727 43.2432 378.356 43.1625Z" fill="white"/>
<path d="M366.081 17.6387C365.518 18.0572 364.84 18.3519 364.108 18.4964C363.376 18.641 362.613 18.6307 361.887 18.4667C361.515 18.3816 361.407 18.8755 361.777 18.96C362.58 19.1381 363.423 19.1485 364.233 18.9904C365.042 18.8322 365.792 18.5102 366.419 18.0526C366.482 18.0137 366.526 17.9559 366.54 17.8911C366.555 17.8263 366.539 17.7594 366.497 17.7038C366.452 17.6492 366.383 17.6117 366.305 17.5995C366.227 17.5873 366.146 17.6014 366.081 17.6387Z" fill="white"/>
<path d="M328.995 260.806C259.65 260.806 203.233 213.493 203.233 155.338C203.233 97.1833 259.65 49.8708 328.995 49.8708C336.326 49.87 343.644 50.4017 350.865 51.4601C350.956 51.4731 351.042 51.5009 351.119 51.5419C351.196 51.5829 351.263 51.6362 351.315 51.6989C351.368 51.7616 351.405 51.8324 351.425 51.9072C351.445 51.9819 351.447 52.0593 351.432 52.1348C351.416 52.2103 351.382 52.2824 351.333 52.3471C351.284 52.4117 351.221 52.4676 351.146 52.5116C351.071 52.5555 350.986 52.5866 350.897 52.6031C350.808 52.6197 350.716 52.6213 350.626 52.6078C343.483 51.5613 336.246 51.0355 328.995 51.0361C260.416 51.0361 204.623 97.8258 204.623 155.338C204.623 212.851 260.416 259.64 328.995 259.64C397.574 259.64 453.367 212.851 453.367 155.338C453.397 129.343 441.823 104.28 420.922 85.0836C420.799 84.9692 420.735 84.8187 420.744 84.6649C420.753 84.5111 420.834 84.3666 420.97 84.2628C421.106 84.159 421.285 84.1045 421.468 84.1112C421.652 84.1179 421.825 84.1851 421.949 84.2983C443.083 103.71 454.787 129.053 454.756 155.338C454.756 213.493 398.34 260.806 328.995 260.806Z" fill="#E4E4E4"/>
<path d="M384.446 86.0424C398.188 86.0424 409.328 76.7 409.328 65.1756C409.328 53.6511 398.188 44.3087 384.446 44.3087C370.705 44.3087 359.564 53.6511 359.564 65.1756C359.564 76.7 370.705 86.0424 384.446 86.0424Z" fill="#7D00B1"/>
<path d="M381.052 76.0358C380.622 76.0358 380.198 75.9518 379.814 75.7907C379.43 75.6295 379.096 75.3954 378.838 75.1071L372.05 67.5166C371.832 67.2727 371.673 66.9953 371.583 66.7C371.492 66.4047 371.473 66.0974 371.524 65.7957C371.575 65.4939 371.697 65.2036 371.882 64.9414C372.068 64.6791 372.312 64.45 372.603 64.2671C372.894 64.0842 373.225 63.9511 373.577 63.8755C373.929 63.7999 374.296 63.7831 374.655 63.8262C375.015 63.8694 375.361 63.9715 375.674 64.1268C375.987 64.2821 376.26 64.4875 376.478 64.7314L380.919 69.6969L392.325 55.3486C392.734 54.8385 393.366 54.4849 394.085 54.3653C394.804 54.2458 395.549 54.37 396.159 54.7108C396.768 55.0516 397.192 55.5811 397.337 56.1834C397.482 56.7856 397.336 57.4115 396.931 57.9237L383.355 75.0021C383.109 75.311 382.779 75.5659 382.392 75.7457C382.004 75.9254 381.571 76.0246 381.129 76.035C381.103 76.0354 381.077 76.0358 381.052 76.0358Z" fill="white"/>
<path d="M325.759 138.971L287.389 49.4512L288.362 49.1579L281.305 32.6928L280.332 32.9864L268.55 5.50111C268.111 4.47456 267.434 3.53074 266.559 2.72354C265.684 1.91633 264.628 1.26156 263.451 0.796592C262.275 0.331626 261 0.0655733 259.701 0.0136332C258.402 -0.0383069 257.103 0.12488 255.879 0.493873L186.514 21.404C185.29 21.7729 184.164 22.3405 183.202 23.0742C182.239 23.8079 181.458 24.6935 180.904 25.6803C180.349 26.667 180.032 27.7358 179.97 28.8254C179.908 29.915 180.103 31.0042 180.543 32.0307L188.757 51.1951L187.22 51.6917L192.463 63.1108L193.694 62.7133L194.783 65.2533L193.473 65.6763L198.717 77.0954L199.72 76.7715L237.751 165.501C238.189 166.528 238.865 167.474 239.739 168.282C240.614 169.09 241.67 169.746 242.847 170.211C244.024 170.676 245.3 170.942 246.6 170.993C247.9 171.044 249.199 170.879 250.423 170.508L319.788 149.598C322.258 148.851 324.274 147.312 325.393 145.32C326.513 143.328 326.644 141.044 325.759 138.971Z" fill="#3F3D56"/>
<path d="M246.775 167.558C245.798 167.556 244.846 167.302 244.047 166.83C243.248 166.359 242.642 165.692 242.311 164.921L184.499 30.043C184.074 29.0496 184.136 27.955 184.673 27.0001C185.209 26.0452 186.176 25.3081 187.36 24.951L202.119 20.5019L202.097 20.935C202.059 21.6867 202.242 22.4347 202.63 23.1131C203.018 23.7914 203.599 24.3794 204.322 24.8251C205.045 25.2708 205.887 25.5605 206.775 25.6689C207.663 25.7772 208.569 25.7008 209.413 25.4463L242.167 15.5727C242.958 15.2689 243.652 14.8133 244.194 14.2428C244.736 13.6722 245.11 13.0027 245.285 12.2885C245.46 11.5862 245.433 10.8593 245.209 10.1671C244.984 9.47496 244.567 8.83717 243.993 8.30579L243.647 7.98343L258.892 3.38761C260.076 3.032 261.381 3.08491 262.519 3.53474C263.658 3.98458 264.537 4.79461 264.964 5.78723L320.121 134.473C321.247 137.109 321.08 140.012 319.657 142.545C318.233 145.078 315.67 147.034 312.529 147.984L248.383 167.321C247.867 167.477 247.323 167.557 246.775 167.558Z" fill="white"/>
<path d="M241.124 71.8911C251.485 71.8911 259.884 64.8473 259.884 56.1583C259.884 47.4694 251.485 40.4256 241.124 40.4256C230.763 40.4256 222.364 47.4694 222.364 56.1583C222.364 64.8473 230.763 71.8911 241.124 71.8911Z" fill="#7D00B1"/>
<path d="M287.611 79.0375L222.644 98.6218C222.441 98.6834 222.226 98.7108 222.01 98.7025C221.794 98.6942 221.583 98.6503 221.388 98.5734C221.192 98.4964 221.017 98.3879 220.872 98.254C220.726 98.1202 220.614 97.9636 220.541 97.7933C220.468 97.623 220.436 97.4423 220.446 97.2615C220.457 97.0807 220.509 96.9034 220.602 96.7398C220.694 96.5762 220.824 96.4294 220.984 96.3079C221.144 96.1864 221.331 96.0925 221.534 96.0317L286.5 76.4474C286.91 76.325 287.36 76.3438 287.753 76.4995C288.146 76.6552 288.449 76.9352 288.596 77.2781C288.743 77.621 288.722 77.9988 288.537 78.3286C288.352 78.6584 288.019 78.9133 287.611 79.0375Z" fill="#E6E6E6"/>
<path d="M268.318 91.4548L246.948 97.8966C246.745 97.9581 246.53 97.9855 246.314 97.9772C246.099 97.9688 245.887 97.9249 245.692 97.8479C245.497 97.771 245.321 97.6625 245.176 97.5286C245.031 97.3948 244.919 97.2382 244.846 97.0679C244.773 96.8977 244.741 96.717 244.751 96.5362C244.761 96.3555 244.814 96.1782 244.906 96.0146C244.998 95.851 245.128 95.7042 245.288 95.5827C245.448 95.4612 245.635 95.3673 245.838 95.3064L267.207 88.8646C267.617 88.7411 268.068 88.7591 268.462 88.9147C268.856 89.0703 269.16 89.3507 269.307 89.6942C269.454 90.0376 269.432 90.4161 269.247 90.7463C269.061 91.0765 268.727 91.3313 268.318 91.4548Z" fill="#E6E6E6"/>
<path d="M273.4 103.313L252.031 109.755C251.828 109.816 251.613 109.843 251.398 109.834C251.183 109.826 250.971 109.782 250.777 109.705C250.582 109.628 250.407 109.519 250.262 109.386C250.117 109.252 250.005 109.095 249.932 108.925C249.859 108.755 249.827 108.575 249.837 108.394C249.847 108.214 249.9 108.037 249.991 107.873C250.083 107.71 250.213 107.563 250.372 107.441C250.532 107.32 250.718 107.226 250.921 107.165L272.29 100.723C272.7 100.599 273.151 100.617 273.545 100.773C273.939 100.929 274.242 101.209 274.39 101.552C274.537 101.896 274.515 102.274 274.33 102.605C274.144 102.935 273.81 103.19 273.4 103.313Z" fill="#E6E6E6"/>
<path d="M276.004 109.387L254.635 115.829C254.432 115.89 254.216 115.918 254.001 115.909C253.785 115.901 253.573 115.857 253.378 115.78C253.183 115.703 253.007 115.595 252.862 115.461C252.717 115.327 252.604 115.171 252.531 115C252.458 114.83 252.426 114.649 252.436 114.468C252.447 114.288 252.5 114.11 252.592 113.947C252.684 113.783 252.814 113.636 252.974 113.515C253.134 113.393 253.321 113.299 253.524 113.238L274.894 106.797C275.097 106.735 275.312 106.708 275.528 106.716C275.743 106.724 275.955 106.768 276.15 106.845C276.345 106.922 276.521 107.031 276.666 107.164C276.811 107.298 276.924 107.455 276.997 107.625C277.07 107.795 277.102 107.976 277.091 108.157C277.081 108.338 277.028 108.515 276.936 108.679C276.844 108.842 276.714 108.989 276.554 109.111C276.394 109.232 276.207 109.326 276.004 109.387Z" fill="#E6E6E6"/>
<path d="M282.808 93.6879L237.469 107.355C237.266 107.417 237.051 107.444 236.835 107.436C236.62 107.428 236.408 107.384 236.213 107.307C236.017 107.23 235.842 107.121 235.697 106.988C235.552 106.854 235.439 106.697 235.366 106.527C235.293 106.357 235.261 106.176 235.271 105.995C235.282 105.814 235.335 105.637 235.427 105.473C235.519 105.31 235.649 105.163 235.809 105.041C235.969 104.92 236.156 104.826 236.359 104.765L281.698 91.0979C281.901 91.0362 282.116 91.0088 282.332 91.0171C282.547 91.0254 282.759 91.0693 282.954 91.1463C283.149 91.2232 283.325 91.3317 283.47 91.4656C283.615 91.5994 283.727 91.756 283.8 91.9263C283.873 92.0966 283.906 92.2773 283.895 92.4581C283.885 92.6389 283.832 92.8162 283.74 92.9798C283.648 93.1435 283.518 93.2902 283.358 93.4117C283.198 93.5332 283.011 93.6271 282.808 93.6879Z" fill="#E6E6E6"/>
<path d="M273.676 124.131L265.917 126.47C265.221 126.679 264.454 126.648 263.785 126.384C263.116 126.119 262.599 125.643 262.349 125.059C262.099 124.475 262.135 123.832 262.45 123.27C262.765 122.709 263.333 122.276 264.029 122.065L271.788 119.727C272.485 119.517 273.252 119.548 273.921 119.813C274.59 120.077 275.106 120.554 275.356 121.138C275.607 121.721 275.57 122.365 275.255 122.926C274.94 123.487 274.372 123.921 273.676 124.131Z" fill="#7D00B1"/>
<path d="M212.531 20.9381C213.127 20.9381 213.61 20.533 213.61 20.0332C213.61 19.5334 213.127 19.1283 212.531 19.1283C211.935 19.1283 211.452 19.5334 211.452 20.0332C211.452 20.533 211.935 20.9381 212.531 20.9381Z" fill="white"/>
<path d="M88.4378 70.9276C100.531 58.9892 120.154 51.4654 138.245 55.3661C121.951 65.5388 110.473 80.2169 105.842 96.8034C104.084 103.206 102.923 110.48 96.7248 114.498C92.8682 116.998 87.6826 117.681 82.8384 117.228C77.994 116.774 73.3832 115.291 68.8344 113.822L67.625 113.935C70.6672 98.4788 76.3441 82.8661 88.4378 70.9276Z" fill="#F0F0F0"/>
<path d="M138.2 55.6926C123.265 59.0466 109.97 66.2618 100.203 76.3133C98.0549 78.4459 96.3208 80.8491 95.0648 83.4345C93.9383 85.9862 93.6472 88.7443 94.2217 91.4222C94.6975 93.9281 95.5302 96.4453 95.2713 99.0046C95.1156 100.313 94.6319 101.579 93.8519 102.72C93.0718 103.86 92.0131 104.85 90.7451 105.623C87.6453 107.619 83.8753 108.562 80.1502 109.377C76.0143 110.281 71.7013 111.166 68.3773 113.553C67.9745 113.842 67.463 113.301 67.8651 113.012C73.6484 108.859 81.8618 109.212 88.3045 106.15C91.3108 104.721 93.8219 102.524 94.3628 99.5685C94.8358 96.9836 93.9797 94.3873 93.4718 91.8535C92.8658 89.2479 93.0297 86.5576 93.9492 84.0174C95.0442 81.3867 96.665 78.9315 98.7423 76.7568C103.326 71.7984 108.81 67.4752 114.995 63.9456C122.027 59.8844 129.836 56.862 138.083 55.0091C138.593 54.8945 138.707 55.5788 138.2 55.6926Z" fill="white"/>
<path d="M103.121 72.9215C101.332 71.3184 100.282 69.2343 100.156 67.0414C100.031 64.8485 100.839 62.6897 102.437 60.9505C102.761 60.5995 103.427 61.0061 103.102 61.3576C101.611 62.9748 100.858 64.9859 100.98 67.0276C101.101 69.0694 102.089 71.0075 103.765 72.492C104.129 72.815 103.482 73.2426 103.121 72.9215Z" fill="white"/>
<path d="M93.7806 90.1782C99.1272 90.3677 104.362 88.8601 108.442 85.9562C108.846 85.6683 109.358 86.2092 108.955 86.4968C104.702 89.512 99.2502 91.0715 93.6869 90.8642C93.1567 90.8441 93.2532 90.1583 93.7806 90.1782Z" fill="white"/>
<path d="M122.237 60.7827C122.775 61.5239 123.524 62.1415 124.417 62.5799C125.31 63.0184 126.319 63.2641 127.353 63.2948C127.883 63.3092 127.786 63.9951 127.259 63.9807C126.117 63.9423 125.003 63.6699 124.015 63.1873C123.028 62.7046 122.196 62.0265 121.593 61.2121C121.528 61.1394 121.499 61.0487 121.512 60.9586C121.524 60.8686 121.577 60.7858 121.659 60.7271C121.745 60.6706 121.854 60.6447 121.962 60.6551C122.07 60.6655 122.169 60.7114 122.237 60.7827Z" fill="white"/>
<path d="M165.145 103.367C164.814 103.366 164.482 103.365 164.147 103.369C159.691 103.373 155.243 103.681 150.847 104.29C150.506 104.332 150.161 104.38 149.823 104.43C139.25 105.991 129.114 109.184 119.931 113.848C116.279 115.707 112.8 117.796 109.526 120.097C105.004 123.275 100.403 127.023 95.0514 128.713C94.4954 128.895 93.9265 129.047 93.348 129.17L67.8829 115.163C67.8441 115.107 67.8012 115.055 67.7621 114.999L66.7148 114.479C66.8738 114.35 67.042 114.22 67.201 114.091C67.2928 114.016 67.3904 113.945 67.4822 113.87C67.5452 113.821 67.6086 113.772 67.6621 113.725C67.683 113.708 67.7042 113.692 67.7213 113.681C67.7749 113.633 67.8306 113.594 67.8803 113.552C68.818 112.82 69.7635 112.093 70.7167 111.37C70.7205 111.365 70.7205 111.365 70.73 111.363C78.0099 105.87 85.9006 100.837 94.4513 96.9695C94.7086 96.8532 94.9694 96.7318 95.2384 96.6219C99.1041 94.8964 103.132 93.4387 107.281 92.2634C109.555 91.626 111.866 91.0855 114.206 90.6441C120.253 89.5133 126.475 89.1872 132.643 89.6779C144.94 90.6575 156.725 94.9243 164.554 102.763C164.754 102.964 164.949 103.162 165.145 103.367Z" fill="#F0F0F0"/>
<path d="M164.876 103.607C150.543 98.7441 134.748 97.7923 119.734 100.886C116.488 101.504 113.378 102.548 110.519 103.978C107.787 105.446 105.575 107.502 104.111 109.93C102.692 112.171 101.55 114.601 99.5055 116.514C98.4419 117.48 97.1468 118.247 95.7051 118.764C94.2634 119.28 92.7077 119.536 91.14 119.513C87.2321 119.542 83.5449 118.391 79.9858 117.161C76.0341 115.795 71.9554 114.323 67.5878 114.551C67.0586 114.578 67.0386 113.888 67.567 113.86C75.1658 113.465 81.471 117.893 88.813 118.702C92.2389 119.079 95.8212 118.593 98.3753 116.505C100.609 114.68 101.789 112.175 103.203 109.896C104.589 107.509 106.652 105.444 109.209 103.88C111.972 102.332 115.029 101.19 118.249 100.503C125.468 98.8582 132.951 98.1755 140.423 98.4801C148.953 98.788 157.358 100.317 165.273 103.002C165.763 103.168 165.363 103.772 164.876 103.607Z" fill="white"/>
<path d="M124.499 99.6515C124.221 97.4685 124.879 95.2739 126.353 93.4597C127.827 91.6456 130.022 90.33 132.546 89.7478C133.058 89.6315 133.297 90.2923 132.785 90.4087C130.434 90.9472 128.389 92.1728 127.02 93.8645C125.652 95.5562 125.049 97.6025 125.322 99.634C125.38 100.076 124.557 100.091 124.499 99.6515Z" fill="white"/>
<path d="M104.653 108.714C108.786 111.565 114.048 113.005 119.39 112.746C119.92 112.72 119.94 113.41 119.411 113.436C113.851 113.697 108.379 112.189 104.086 109.215C103.677 108.931 104.246 108.432 104.653 108.714Z" fill="white"/>
<path d="M148.478 99.6117C148.375 100.475 148.529 101.346 148.928 102.147C149.326 102.948 149.955 103.654 150.758 104.2C151.171 104.48 150.601 104.978 150.191 104.701C149.307 104.093 148.613 103.313 148.171 102.429C147.729 101.545 147.551 100.584 147.655 99.6292C147.655 99.5385 147.697 99.4514 147.772 99.3857C147.846 99.32 147.948 99.2805 148.056 99.2753C148.165 99.2735 148.27 99.3078 148.349 99.3708C148.428 99.4337 148.474 99.5203 148.478 99.6117Z" fill="white"/>
<path d="M451.386 300.387C464.573 303.098 479.951 300.52 488.625 291.76C473.862 291.589 459.646 287.044 448.494 278.929C444.207 275.787 439.829 271.917 434.137 271.765C430.596 271.67 427.195 273.119 424.572 275.117C421.949 277.115 419.986 279.635 418.054 282.125L417.284 282.491C426.926 290.507 438.2 297.675 451.386 300.387Z" fill="#F0F0F0"/>
<path d="M488.432 291.584C477.933 294.944 466.438 295.443 455.58 293.012C453.231 292.523 450.989 291.727 448.937 290.653C446.977 289.553 445.405 288.032 444.383 286.25C443.39 284.604 442.602 282.824 441.15 281.409C440.394 280.694 439.466 280.121 438.427 279.728C437.388 279.335 436.262 279.13 435.122 279.128C432.283 279.059 429.584 279.851 426.976 280.702C424.08 281.646 421.091 282.666 417.921 282.448C417.537 282.421 417.51 282.923 417.894 282.949C423.409 283.329 428.068 280.187 433.417 279.689C435.914 279.457 438.508 279.854 440.328 281.402C441.92 282.755 442.734 284.59 443.722 286.264C444.689 288.015 446.152 289.541 447.983 290.708C449.964 291.867 452.166 292.734 454.494 293.273C459.712 294.556 465.138 295.143 470.574 295.012C476.778 294.892 482.912 293.883 488.711 292.029C489.07 291.914 488.789 291.47 488.432 291.584Z" fill="white"/>
<path d="M459.021 293.968C458.782 295.551 459.221 297.153 460.261 298.49C461.301 299.826 462.874 300.809 464.698 301.263C465.067 301.353 465.253 300.876 464.883 300.785C463.183 300.365 461.719 299.45 460.753 298.204C459.788 296.958 459.385 295.463 459.618 293.99C459.669 293.67 459.071 293.649 459.021 293.968Z" fill="white"/>
<path d="M444.755 287.14C447.808 285.119 451.657 284.136 455.535 284.389C455.919 284.415 455.946 283.913 455.562 283.888C451.526 283.631 447.523 284.66 444.352 286.769C444.05 286.971 444.455 287.34 444.755 287.14Z" fill="white"/>
<path d="M476.445 294.288C476.386 293.659 476.513 293.028 476.816 292.451C477.119 291.874 477.589 291.369 478.182 290.981C478.487 290.783 478.082 290.414 477.779 290.611C477.125 291.041 476.608 291.6 476.271 292.237C475.935 292.874 475.789 293.57 475.848 294.265C475.847 294.331 475.875 294.395 475.928 294.444C475.981 294.492 476.055 294.522 476.133 294.527C476.212 294.53 476.289 294.506 476.348 294.462C476.406 294.417 476.441 294.355 476.445 294.288Z" fill="white"/>
<path d="M480.089 253.879C479.894 253.998 479.699 254.117 479.5 254.235C476.873 255.824 474.097 257.232 471.199 258.444C470.976 258.541 470.749 258.636 470.524 258.727C463.504 261.584 455.912 263.324 448.135 263.858C445.04 264.068 441.93 264.08 438.833 263.894C434.556 263.637 429.942 263.073 425.931 263.99C425.512 264.081 425.099 264.195 424.696 264.329L416.812 281.676C416.818 281.723 416.819 281.768 416.824 281.815L416.472 282.496C416.631 282.515 416.796 282.532 416.955 282.55C417.047 282.562 417.141 282.569 417.233 282.581C417.295 282.587 417.357 282.593 417.413 282.602C417.433 282.604 417.454 282.606 417.47 282.606C417.525 282.615 417.578 282.618 417.629 282.625C418.553 282.721 419.479 282.812 420.408 282.897C420.412 282.899 420.412 282.899 420.419 282.896C427.488 283.604 434.632 283.605 441.701 282.901C441.912 282.877 442.127 282.855 442.341 282.824C445.494 282.46 448.607 281.879 451.647 281.09C453.311 280.653 454.947 280.145 456.549 279.57C460.685 278.075 464.515 276.045 467.899 273.552C474.643 268.583 479.418 261.86 480.047 254.446C480.063 254.257 480.077 254.071 480.089 253.879Z" fill="#F0F0F0"/>
<path d="M479.807 253.835C473.836 261.818 465.016 268.021 454.602 271.562C452.376 272.358 450.014 272.854 447.604 273.033C445.249 273.144 442.902 272.724 440.807 271.817C438.833 271.004 436.926 269.98 434.75 269.584C433.633 269.395 432.481 269.406 431.369 269.617C430.258 269.827 429.212 270.232 428.3 270.806C425.984 272.185 424.396 274.18 422.925 276.176C421.291 278.392 419.637 280.715 416.949 282.142C416.623 282.315 416.962 282.728 417.287 282.556C421.963 280.074 423.428 275.214 427.341 272.115C429.168 270.669 431.524 269.676 434.089 269.993C436.331 270.27 438.299 271.324 440.289 272.161C442.318 273.071 444.582 273.551 446.882 273.559C449.296 273.483 451.676 273.064 453.922 272.319C459.009 270.708 463.763 268.438 468.009 265.589C472.877 262.36 477.05 258.457 480.349 254.049C480.553 253.776 480.01 253.563 479.807 253.835Z" fill="white"/>
<path d="M458.035 270.587C458.981 271.972 460.483 273.03 462.273 273.572C464.062 274.114 466.023 274.104 467.806 273.546C468.166 273.432 467.971 272.957 467.611 273.071C465.952 273.594 464.125 273.602 462.46 273.095C460.795 272.588 459.4 271.598 458.529 270.304C458.339 270.023 457.847 270.308 458.035 270.587Z" fill="white"/>
<path d="M441.743 272.339C442.73 269.184 445.098 266.456 448.376 264.7C448.701 264.526 448.362 264.112 448.038 264.286C444.631 266.119 442.173 268.962 441.155 272.247C441.058 272.56 441.647 272.651 441.743 272.339Z" fill="white"/>
<path d="M472.178 262.045C471.679 261.574 471.328 261.005 471.155 260.391C470.983 259.777 470.995 259.137 471.191 258.528C471.292 258.216 470.703 258.126 470.603 258.436C470.39 259.11 470.378 259.817 470.566 260.495C470.755 261.174 471.139 261.804 471.685 262.329C471.731 262.382 471.8 262.419 471.877 262.431C471.954 262.443 472.034 262.43 472.101 262.394C472.166 262.356 472.21 262.299 472.225 262.233C472.239 262.168 472.223 262.1 472.178 262.045Z" fill="white"/>
<path d="M504.225 194.096L484.117 222.473L484.881 222.811L478.072 233.638L476.654 233.008L472.18 239.319L473.292 239.855L465.996 250.448L464.731 249.836L399.12 342.438C397.399 344.861 394.603 346.613 391.343 347.309C388.084 348.005 384.629 347.588 381.736 346.15L259.761 285.369C256.871 283.926 254.782 281.581 253.952 278.847C253.122 276.114 253.62 273.216 255.335 270.79L360.44 122.448C362.16 120.025 364.957 118.273 368.216 117.577C371.476 116.881 374.931 117.298 377.824 118.736L499.799 179.517C502.687 180.961 504.776 183.306 505.605 186.039C506.435 188.772 505.938 191.67 504.225 194.096Z" fill="#3F3D56"/>
<path d="M386.083 340.424L263.679 279.429C262.788 278.984 262.144 278.261 261.889 277.419C261.633 276.576 261.786 275.683 262.315 274.935L368.117 125.606C368.647 124.86 369.509 124.32 370.514 124.105C371.519 123.891 372.583 124.019 373.475 124.462L495.88 185.457C496.77 185.902 497.414 186.625 497.67 187.467C497.925 188.31 497.772 189.203 497.244 189.951L391.442 339.28C390.911 340.027 390.049 340.566 389.044 340.781C388.04 340.995 386.975 340.867 386.083 340.424Z" fill="white"/>
<path d="M436.363 152.599C436.959 152.599 437.442 152.194 437.442 151.694C437.442 151.195 436.959 150.79 436.363 150.79C435.767 150.79 435.284 151.195 435.284 151.694C435.284 152.194 435.767 152.599 436.363 152.599Z" fill="white"/>
<path d="M429.685 259.569L327.508 208.654C327.187 208.496 326.907 208.286 326.684 208.037C326.46 207.788 326.297 207.504 326.205 207.202C326.112 206.9 326.092 206.585 326.145 206.277C326.198 205.968 326.323 205.671 326.513 205.403C326.703 205.135 326.954 204.901 327.252 204.714C327.55 204.527 327.889 204.392 328.25 204.316C328.61 204.239 328.985 204.224 329.353 204.269C329.721 204.315 330.075 204.42 330.394 204.581L432.571 255.496C432.891 255.654 433.171 255.864 433.395 256.113C433.619 256.362 433.781 256.646 433.874 256.948C433.966 257.251 433.986 257.565 433.934 257.874C433.881 258.182 433.756 258.479 433.566 258.748C433.376 259.016 433.125 259.25 432.827 259.436C432.528 259.623 432.189 259.758 431.829 259.834C431.468 259.911 431.093 259.927 430.725 259.881C430.357 259.836 430.004 259.73 429.685 259.569Z" fill="#E6E6E6"/>
<path d="M388.887 251.68L355.278 234.933C354.959 234.774 354.68 234.564 354.458 234.315C354.236 234.065 354.074 233.782 353.983 233.48C353.891 233.179 353.871 232.865 353.924 232.557C353.978 232.249 354.102 231.953 354.292 231.685C354.481 231.418 354.732 231.184 355.029 230.998C355.326 230.812 355.664 230.676 356.024 230.599C356.384 230.523 356.758 230.506 357.125 230.551C357.492 230.595 357.845 230.7 358.164 230.859L391.773 247.606C392.092 247.765 392.371 247.975 392.593 248.225C392.815 248.474 392.977 248.757 393.068 249.059C393.16 249.36 393.179 249.674 393.126 249.982C393.073 250.29 392.948 250.586 392.759 250.853C392.569 251.121 392.319 251.355 392.022 251.541C391.725 251.727 391.387 251.863 391.027 251.939C390.668 252.016 390.293 252.033 389.926 251.988C389.559 251.944 389.206 251.839 388.887 251.68Z" fill="#E6E6E6"/>
<path d="M375.672 270.33L342.063 253.583C341.419 253.262 340.954 252.74 340.769 252.131C340.584 251.522 340.695 250.876 341.078 250.336C341.461 249.796 342.084 249.405 342.81 249.25C343.536 249.095 344.305 249.188 344.95 249.509L378.558 266.257C378.877 266.416 379.156 266.626 379.378 266.875C379.6 267.124 379.762 267.407 379.853 267.709C379.945 268.011 379.965 268.324 379.911 268.632C379.858 268.94 379.734 269.236 379.544 269.504C379.355 269.771 379.104 270.005 378.807 270.191C378.51 270.377 378.172 270.513 377.812 270.59C377.453 270.666 377.079 270.683 376.711 270.638C376.344 270.594 375.991 270.489 375.672 270.33Z" fill="#E6E6E6"/>
<path d="M368.905 279.883L335.296 263.135C334.976 262.977 334.697 262.767 334.474 262.518C334.251 262.269 334.088 261.985 333.996 261.683C333.904 261.381 333.884 261.067 333.937 260.758C333.99 260.45 334.115 260.153 334.305 259.885C334.494 259.618 334.745 259.384 335.043 259.197C335.341 259.011 335.679 258.876 336.04 258.799C336.4 258.723 336.774 258.706 337.142 258.751C337.51 258.797 337.863 258.902 338.182 259.062L371.791 275.809C372.112 275.967 372.392 276.177 372.615 276.427C372.839 276.676 373.002 276.96 373.094 277.262C373.187 277.564 373.207 277.878 373.154 278.187C373.101 278.496 372.976 278.793 372.786 279.061C372.596 279.329 372.345 279.563 372.047 279.75C371.749 279.936 371.41 280.072 371.049 280.148C370.689 280.224 370.313 280.24 369.945 280.195C369.578 280.149 369.224 280.043 368.905 279.883Z" fill="#E6E6E6"/>
<path d="M401.221 270.267L329.914 234.735C329.273 234.412 328.811 233.89 328.628 233.282C328.445 232.675 328.557 232.031 328.938 231.492C329.32 230.954 329.941 230.564 330.665 230.408C331.388 230.252 332.156 230.343 332.8 230.661L404.107 266.193C404.428 266.351 404.708 266.561 404.931 266.811C405.155 267.06 405.318 267.344 405.41 267.646C405.503 267.948 405.523 268.262 405.47 268.571C405.418 268.88 405.293 269.177 405.103 269.445C404.913 269.713 404.661 269.947 404.363 270.134C404.065 270.32 403.726 270.456 403.365 270.532C403.005 270.608 402.63 270.624 402.262 270.579C401.894 270.533 401.54 270.427 401.221 270.267Z" fill="#E6E6E6"/>
<path d="M387.63 315.677L375.426 309.596C374.333 309.05 373.542 308.162 373.229 307.127C372.915 306.092 373.105 304.995 373.755 304.077C374.405 303.159 375.464 302.495 376.697 302.231C377.931 301.967 379.239 302.125 380.334 302.669L392.538 308.75C393.633 309.296 394.425 310.184 394.739 311.22C395.054 312.255 394.864 313.353 394.214 314.272C393.563 315.19 392.504 315.854 391.269 316.118C390.034 316.381 388.725 316.223 387.63 315.677Z" fill="#7D00B1"/>
<path d="M410.398 216.945C424.213 216.945 435.411 207.553 435.411 195.968C435.411 184.383 424.213 174.991 410.398 174.991C396.584 174.991 385.385 184.383 385.385 195.968C385.385 207.553 396.584 216.945 410.398 216.945Z" fill="#7D00B1"/>
<path d="M0.294922 281.211H338.795V116.864C338.793 115.632 338.209 114.452 337.171 113.581C336.133 112.71 334.725 112.22 333.257 112.219H5.83328C4.36495 112.22 2.95723 112.71 1.91895 113.581C0.880669 114.452 0.296617 115.632 0.294922 116.864V281.211Z" fill="#CACACA"/>
<path d="M328.336 118.643H10.7529V269.846H328.336V118.643Z" fill="white"/>
<path d="M4.55365e-10 276.764V297.045C-1.09489e-05 297.885 0.197442 298.718 0.581087 299.495C0.964731 300.271 1.52705 300.977 2.23595 301.572C2.94484 302.166 3.78643 302.638 4.71264 302.96C5.63886 303.281 6.63157 303.447 7.63411 303.447H132.572V343.471H130.912C130.782 343.471 130.653 343.493 130.533 343.535C130.412 343.576 130.303 343.638 130.211 343.715C130.119 343.792 130.046 343.884 129.996 343.985C129.946 344.086 129.92 344.194 129.92 344.303V347.087C129.92 347.196 129.946 347.304 129.996 347.405C130.046 347.506 130.119 347.598 130.211 347.675C130.303 347.752 130.412 347.813 130.533 347.855C130.653 347.897 130.782 347.919 130.912 347.918H208.472C208.602 347.919 208.731 347.897 208.851 347.855C208.972 347.813 209.081 347.752 209.173 347.675C209.265 347.598 209.338 347.506 209.388 347.405C209.438 347.304 209.464 347.196 209.464 347.087V344.303C209.464 344.194 209.438 344.086 209.388 343.985C209.338 343.884 209.265 343.792 209.173 343.715C209.081 343.638 208.972 343.576 208.851 343.535C208.731 343.493 208.602 343.471 208.472 343.471H206.812V303.447H331.75C332.753 303.447 333.745 303.281 334.671 302.96C335.598 302.638 336.439 302.166 337.148 301.572C337.857 300.977 338.419 300.271 338.803 299.495C339.187 298.718 339.384 297.885 339.384 297.045V276.764L4.55365e-10 276.764Z" fill="#3F3D56"/>
<path d="M282.382 169.211H131.987C131.039 169.211 130.13 168.895 129.459 168.333C128.789 167.771 128.412 167.008 128.412 166.213C128.412 165.418 128.789 164.655 129.459 164.093C130.13 163.531 131.039 163.215 131.987 163.215H282.382C283.33 163.215 284.24 163.531 284.91 164.093C285.58 164.655 285.957 165.418 285.957 166.213C285.957 167.008 285.58 167.771 284.91 168.333C284.24 168.895 283.33 169.211 282.382 169.211Z" fill="#E6E6E6"/>
<path d="M231.918 182.744H182.449C181.501 182.744 180.592 182.428 179.921 181.866C179.251 181.304 178.874 180.541 178.874 179.746C178.874 178.951 179.251 178.188 179.921 177.626C180.592 177.064 181.501 176.748 182.449 176.748H231.918C232.866 176.748 233.776 177.064 234.446 177.626C235.117 178.188 235.493 178.951 235.493 179.746C235.493 180.541 235.117 181.304 234.446 181.866C233.776 182.428 232.866 182.744 231.918 182.744Z" fill="#E6E6E6"/>
<path d="M231.918 210.196H182.449C181.501 210.196 180.592 209.88 179.921 209.318C179.251 208.755 178.874 207.993 178.874 207.198C178.874 206.402 179.251 205.64 179.921 205.078C180.592 204.515 181.501 204.199 182.449 204.199H231.918C232.866 204.199 233.776 204.515 234.446 205.078C235.117 205.64 235.493 206.402 235.493 207.198C235.493 207.993 235.117 208.755 234.446 209.318C233.776 209.88 232.866 210.196 231.918 210.196Z" fill="#E6E6E6"/>
<path d="M231.919 224.256H182.45C181.98 224.256 181.516 224.179 181.082 224.028C180.648 223.877 180.254 223.656 179.922 223.378C179.59 223.1 179.327 222.769 179.147 222.405C178.967 222.042 178.875 221.652 178.875 221.258C178.875 220.864 178.967 220.475 179.147 220.111C179.327 219.747 179.59 219.417 179.922 219.138C180.254 218.86 180.648 218.639 181.082 218.488C181.516 218.338 181.98 218.26 182.45 218.26H231.919C232.388 218.26 232.853 218.338 233.287 218.488C233.721 218.639 234.115 218.86 234.447 219.138C234.779 219.417 235.042 219.747 235.222 220.111C235.401 220.475 235.494 220.864 235.494 221.258C235.494 221.652 235.401 222.042 235.222 222.405C235.042 222.769 234.779 223.1 234.447 223.378C234.115 223.656 233.721 223.877 233.287 224.028C232.853 224.179 232.388 224.256 231.919 224.256Z" fill="#E6E6E6"/>
<path d="M259.663 196.277H154.706C153.758 196.277 152.848 195.962 152.178 195.399C151.507 194.837 151.131 194.075 151.131 193.279C151.131 192.484 151.507 191.722 152.178 191.16C152.848 190.597 153.758 190.281 154.706 190.281H259.663C260.611 190.281 261.52 190.597 262.19 191.16C262.861 191.722 263.238 192.484 263.238 193.279C263.238 194.075 262.861 194.837 262.19 195.399C261.52 195.962 260.611 196.277 259.663 196.277Z" fill="#E6E6E6"/>
<path d="M279.878 253.044H261.916C260.304 253.044 258.757 252.507 257.617 251.551C256.477 250.595 255.837 249.298 255.837 247.946C255.837 246.594 256.477 245.297 257.617 244.341C258.757 243.385 260.304 242.848 261.916 242.848H279.878C281.49 242.848 283.036 243.385 284.176 244.341C285.316 245.297 285.957 246.594 285.957 247.946C285.957 249.298 285.316 250.595 284.176 251.551C283.036 252.507 281.49 253.044 279.878 253.044Z" fill="#7D00B1"/>
<path d="M84.6944 216.043C101.962 216.043 115.961 204.303 115.961 189.822C115.961 175.34 101.962 163.6 84.6944 163.6C67.4263 163.6 53.4277 175.34 53.4277 189.822C53.4277 204.303 67.4263 216.043 84.6944 216.043Z" fill="#7D00B1"/>
<path d="M450.576 349H0.826865C0.607866 348.999 0.398057 348.926 0.243425 348.796C0.0887927 348.666 0.00195312 348.49 0.00195312 348.306C0.00195312 348.123 0.0887927 347.946 0.243425 347.816C0.398057 347.686 0.607866 347.613 0.826865 347.612H450.576C450.795 347.613 451.005 347.686 451.16 347.816C451.314 347.946 451.401 348.123 451.401 348.306C451.401 348.49 451.314 348.666 451.16 348.796C451.005 348.926 450.795 348.999 450.576 349Z" fill="#CACACA"/>
<path d="M169.397 115.431C170.048 115.431 170.576 114.988 170.576 114.443C170.576 113.897 170.048 113.454 169.397 113.454C168.746 113.454 168.219 113.897 168.219 114.443C168.219 114.988 168.746 115.431 169.397 115.431Z" fill="white"/>
</g>
<defs>
<clipPath id="clip0_248_8887">
<rect width="506" height="349" fill="white"/>
</clipPath>
</defs>
</svg>
