<svg width="1440" height="713" viewBox="0 0 1440 713" fill="none" xmlns="http://www.w3.org/2000/svg">
<g clip-path="url(#clip0_137_4173)">
<rect width="1440" height="713" rx="5" fill="white"/>
<g clip-path="url(#clip1_137_4173)">
<rect y="-2" width="1440" height="713" rx="5" fill="url(#paint0_linear_137_4173)" fill-opacity="0.65"/>
<path d="M0 408.635L26.7 429.761C53.55 450.887 106.95 493.138 160.2 496.043C213.45 498.816 266.55 462.374 319.8 465.411C373.05 468.448 426.45 511.228 480 530.505C533.55 549.914 586.95 545.953 640.2 521.791C693.45 497.496 746.55 453.131 799.8 450.226C853.05 447.322 906.45 486.141 960 493.138C1013.55 500.136 1066.95 475.578 1120.2 467.655C1173.45 459.733 1226.55 468.448 1279.8 472.673C1333.05 476.898 1386.45 476.37 1413.3 476.238L1440 475.974V712.32H1413.3C1386.45 712.32 1333.05 712.32 1279.8 712.32C1226.55 712.32 1173.45 712.32 1120.2 712.32C1066.95 712.32 1013.55 712.32 960 712.32C906.45 712.32 853.05 712.32 799.8 712.32C746.55 712.32 693.45 712.32 640.2 712.32C586.95 712.32 533.55 712.32 480 712.32C426.45 712.32 373.05 712.32 319.8 712.32C266.55 712.32 213.45 712.32 160.2 712.32C106.95 712.32 53.55 712.32 26.7 712.32H0V408.635Z" fill="#A7EE5A" fill-opacity="0.45"/>
<path d="M0 498.42L26.7 491.554C53.55 484.82 106.95 471.089 160.2 488.253C213.45 505.418 266.55 553.48 319.8 561.798C373.05 570.116 426.45 538.956 480 529.185C533.55 519.546 586.95 531.429 640.2 547.274C693.45 563.118 746.55 582.924 799.8 589.13C853.05 595.203 906.45 587.809 960 558.233C1013.55 528.789 1066.95 477.294 1120.2 450.227C1173.45 423.159 1226.55 420.518 1279.8 426.196C1333.05 432.006 1386.45 446.002 1413.3 453.132L1440 460.13V712.32H1413.3C1386.45 712.32 1333.05 712.32 1279.8 712.32C1226.55 712.32 1173.45 712.32 1120.2 712.32C1066.95 712.32 1013.55 712.32 960 712.32C906.45 712.32 853.05 712.32 799.8 712.32C746.55 712.32 693.45 712.32 640.2 712.32C586.95 712.32 533.55 712.32 480 712.32C426.45 712.32 373.05 712.32 319.8 712.32C266.55 712.32 213.45 712.32 160.2 712.32C106.95 712.32 53.55 712.32 26.7 712.32H0V498.42Z" fill="#90C25B" fill-opacity="0.45"/>
<path d="M0 534.07L26.7 533.41C53.55 532.75 106.95 531.429 160.2 542.917C213.45 554.272 266.55 578.567 319.8 576.718C373.05 575.002 426.45 547.274 480 540.276C533.55 533.146 586.95 546.878 640.2 551.235C693.45 555.592 746.55 550.839 799.8 543.049C853.05 535.391 906.45 524.828 960 515.321C1013.55 505.946 1066.95 497.496 1120.2 495.515C1173.45 493.535 1226.55 498.024 1279.8 519.546C1333.05 541.068 1386.45 579.887 1413.3 599.164L1440 618.574V712.32H1413.3C1386.45 712.32 1333.05 712.32 1279.8 712.32C1226.55 712.32 1173.45 712.32 1120.2 712.32C1066.95 712.32 1013.55 712.32 960 712.32C906.45 712.32 853.05 712.32 799.8 712.32C746.55 712.32 693.45 712.32 640.2 712.32C586.95 712.32 533.55 712.32 480 712.32C426.45 712.32 373.05 712.32 319.8 712.32C266.55 712.32 213.45 712.32 160.2 712.32C106.95 712.32 53.55 712.32 26.7 712.32H0V534.07Z" fill="#A2FD40" fill-opacity="0.48"/>
<path d="M0 557.837L26.7 556.781C53.55 555.593 106.95 553.48 160.2 557.573C213.45 561.798 266.55 572.361 319.8 577.643C373.05 582.924 426.45 582.924 480 594.543C533.55 606.295 586.95 629.533 640.2 633.098C693.45 636.663 746.55 620.291 799.8 604.05C853.05 587.81 906.45 571.437 960 568.136C1013.55 564.835 1066.95 574.606 1120.2 588.866C1173.45 603.126 1226.55 622.139 1279.8 629.533C1333.05 637.059 1386.45 633.098 1413.3 631.118L1440 629.137V712.32H1413.3C1386.45 712.32 1333.05 712.32 1279.8 712.32C1226.55 712.32 1173.45 712.32 1120.2 712.32C1066.95 712.32 1013.55 712.32 960 712.32C906.45 712.32 853.05 712.32 799.8 712.32C746.55 712.32 693.45 712.32 640.2 712.32C586.95 712.32 533.55 712.32 480 712.32C426.45 712.32 373.05 712.32 319.8 712.32C266.55 712.32 213.45 712.32 160.2 712.32C106.95 712.32 53.55 712.32 26.7 712.32H0V557.837Z" fill="#6EA532" fill-opacity="0.14"/>
<path d="M0 660.826L26.7 654.225C53.55 647.623 106.95 634.419 160.2 631.118C213.45 627.817 266.55 634.419 319.8 637.456C373.05 640.625 426.45 640.097 480 640.625C533.55 641.021 586.95 642.341 640.2 647.359C693.45 652.508 746.55 661.223 799.8 667.032C853.05 672.71 906.45 675.35 960 671.653C1013.55 667.824 1066.95 657.79 1120.2 647.623C1173.45 637.456 1226.55 627.421 1279.8 627.553C1333.05 627.817 1386.45 638.38 1413.3 643.662L1440 648.943V712.321H1413.3C1386.45 712.321 1333.05 712.321 1279.8 712.321C1226.55 712.321 1173.45 712.321 1120.2 712.321C1066.95 712.321 1013.55 712.321 960 712.321C906.45 712.321 853.05 712.321 799.8 712.321C746.55 712.321 693.45 712.321 640.2 712.321C586.95 712.321 533.55 712.321 480 712.321C426.45 712.321 373.05 712.321 319.8 712.321C266.55 712.321 213.45 712.321 160.2 712.321C106.95 712.321 53.55 712.321 26.7 712.321H0V660.826Z" fill="#7FAF4D" fill-opacity="0.24"/>
</g>
</g>
<defs>
<linearGradient id="paint0_linear_137_4173" x1="720" y1="-209.191" x2="720" y2="711" gradientUnits="userSpaceOnUse">
<stop offset="0.165985" stop-color="#F4FFE9"/>
<stop offset="1" stop-color="#E8FFD0"/>
</linearGradient>
<clipPath id="clip0_137_4173">
<rect width="1440" height="713" rx="5" fill="white"/>
</clipPath>
<clipPath id="clip1_137_4173">
<rect y="-2" width="1440" height="713" rx="5" fill="white"/>
</clipPath>
</defs>
</svg>
