<svg viewBox="0 0 511 369" fill="none" xmlns="http://www.w3.org/2000/svg">
<g clip-path="url(#clip0_248_6147)">
<path d="M59.8691 277.574C59.4318 277.593 58.9988 277.488 58.6289 277.275C58.2589 277.061 57.9699 276.749 57.801 276.381C57.6321 276.013 57.5915 275.606 57.6846 275.216C57.7777 274.826 58.0001 274.472 58.3216 274.201C58.3754 274.006 58.414 273.866 58.4679 273.671C58.4486 273.628 58.4292 273.586 58.4098 273.544C57.9691 272.595 57.2308 271.786 56.2875 271.219C55.3442 270.652 54.238 270.351 53.1079 270.355C51.9777 270.359 50.874 270.667 49.9354 271.241C48.9967 271.814 48.265 272.628 47.8322 273.58C46.1021 277.377 43.8995 281.181 43.3572 285.196C43.1183 286.971 43.2191 288.77 43.655 290.514C39.5917 282.435 37.4817 273.655 37.4681 264.768C37.4672 262.538 37.6032 260.31 37.8753 258.094C38.1002 256.277 38.4122 254.473 38.8113 252.682C40.9891 242.964 45.6651 233.856 52.4551 226.105C55.7415 224.471 58.3993 221.958 60.0702 218.905C60.6756 217.807 61.1034 216.635 61.3404 215.426C60.9697 215.47 60.5929 215.498 60.2222 215.52C60.1067 215.526 59.9851 215.531 59.8697 215.537L59.8261 215.539C59.4187 215.555 59.0146 215.464 58.6626 215.276C58.3106 215.089 58.0257 214.812 57.8421 214.48C57.6585 214.148 57.5841 213.775 57.6278 213.406C57.6716 213.036 57.8316 212.686 58.0886 212.397C58.2486 212.218 58.4088 212.038 58.569 211.859C58.8122 211.582 59.0613 211.31 59.3044 211.033C59.3325 211.007 59.3589 210.979 59.3834 210.95C59.663 210.635 59.9425 210.324 60.2221 210.009C59.7118 209.287 59.0255 208.682 58.2166 208.242C55.4149 206.746 51.5496 207.782 49.5257 210.092C47.4959 212.402 47.113 215.642 47.818 218.528C48.5112 220.983 49.658 223.314 51.2092 225.419C51.0573 225.596 50.8993 225.767 50.7473 225.945C47.9699 229.2 45.5492 232.695 43.5198 236.38C44.0133 232.252 43.4243 228.075 41.8013 224.194C40.1563 220.578 37.0731 217.532 34.3579 214.405C31.0966 210.649 24.4089 212.288 23.8343 217.049C23.8288 217.095 23.8233 217.141 23.818 217.187C24.2213 217.395 24.6161 217.615 25.0024 217.848C25.4876 218.143 25.8636 218.565 26.0811 219.059C26.2985 219.552 26.3474 220.094 26.2211 220.614C26.0949 221.133 25.7995 221.605 25.3737 221.969C24.9478 222.333 24.4113 222.571 23.8346 222.652L23.7755 222.66C23.9192 223.985 24.1731 225.298 24.5352 226.587C25.5843 230.188 27.4381 233.551 29.9805 236.468C32.5228 239.385 35.6989 241.791 39.3095 243.537C39.5465 243.648 39.7775 243.758 40.0145 243.864C37.9757 249.13 36.6968 254.615 36.21 260.182C35.9345 263.466 35.9507 266.765 36.2587 270.047L36.2404 269.931C35.4624 266.281 33.3265 262.989 30.1933 260.608C25.5397 257.124 18.9651 255.841 13.9447 253.041C13.4112 252.729 12.7908 252.562 12.1567 252.56C11.5227 252.559 10.9014 252.723 10.3662 253.033C9.831 253.343 9.40417 253.786 9.13606 254.309C8.86795 254.833 8.76974 255.415 8.85302 255.988C8.85976 256.029 8.8666 256.07 8.87356 256.111C9.62194 256.388 10.3506 256.708 11.0553 257.069C11.4586 257.276 11.8534 257.496 12.2397 257.729C12.7249 258.025 13.1009 258.447 13.3184 258.94C13.5359 259.434 13.5847 259.976 13.4584 260.495C13.3322 261.014 13.0368 261.487 12.611 261.851C12.1851 262.214 11.6487 262.452 11.0719 262.533L11.0128 262.541C10.9702 262.547 10.9338 262.553 10.8913 262.558C12.17 265.341 13.9648 267.902 16.1969 270.13C18.9543 272.827 22.2871 274.982 25.9908 276.463C29.6945 277.944 33.691 278.72 37.7355 278.743H37.7416C38.8395 283.092 40.4302 287.324 42.4881 291.372H59.4442C59.505 291.201 59.5597 291.023 59.6144 290.852C58.0449 290.942 56.4692 290.856 54.9226 290.597C56.1806 289.19 57.4386 287.772 58.6967 286.365C58.7248 286.339 58.7511 286.311 58.7757 286.282C59.4138 285.562 60.0581 284.847 60.6962 284.127L60.6965 284.126C60.7305 281.919 60.4526 279.717 59.8697 277.575L59.8691 277.574Z" fill="#4D94FC"/>
<path d="M259.835 291.581C259.835 291.666 259.817 291.749 259.782 291.827C259.747 291.905 259.695 291.976 259.629 292.035C259.564 292.095 259.486 292.142 259.401 292.174C259.316 292.206 259.224 292.222 259.132 292.222H0.703264C0.516747 292.222 0.337876 292.155 0.205989 292.035C0.0741016 291.914 0 291.751 0 291.581C0 291.411 0.0741016 291.248 0.205989 291.128C0.337876 291.008 0.516747 290.94 0.703264 290.94H259.132C259.224 290.94 259.316 290.956 259.401 290.989C259.486 291.021 259.564 291.068 259.629 291.128C259.695 291.187 259.747 291.258 259.782 291.336C259.817 291.414 259.835 291.497 259.835 291.581Z" fill="#4D94FC"/>
<path d="M135.324 209.247C134.35 209.034 133.338 209.019 132.357 209.202C131.377 209.385 130.453 209.762 129.649 210.306C128.846 210.849 128.183 211.547 127.707 212.35C127.232 213.152 126.955 214.04 126.897 214.951L112.123 219.637L113.058 228.514L133.819 221.629C135.504 221.617 137.126 221.042 138.376 220.013C139.627 218.985 140.42 217.573 140.606 216.047C140.791 214.521 140.356 212.985 139.382 211.732C138.409 210.479 136.965 209.594 135.324 209.247Z" fill="#FFB6B6"/>
<path d="M111.246 235.049C105.371 238.78 95.0221 240.689 80.9371 240.602C80.1573 240.604 79.3856 240.458 78.6708 240.174C77.956 239.89 77.3137 239.474 76.7846 238.952C73.0158 235.375 73.163 227.21 73.1865 226.421L69.0556 212.232C68.967 212.015 66.6805 206.193 69.0067 202.128C69.5016 201.279 70.1924 200.537 71.0315 199.954C71.8707 199.372 72.8383 198.961 73.8679 198.752C82.604 196.639 90.8163 217.952 91.8598 220.768L104.12 218.865L112.586 218.548L121.2 214.214L126.05 224.793L114.048 232.787C113.22 233.643 112.279 234.403 111.246 235.049Z" fill="#2F2E41"/>
<path d="M134.901 352.369L143.932 352.754L149.857 321.19L136.529 320.622L134.901 352.369Z" fill="#FFB6B6"/>
<path d="M132.87 348.213L147.185 348.045L146.899 353.62L160.033 362.741C160.682 363.192 161.156 363.819 161.385 364.533C161.615 365.246 161.588 366.007 161.31 366.706C161.031 367.404 160.514 368.003 159.836 368.415C159.157 368.827 158.351 369.031 157.537 368.996L140.541 368.272L137.894 362.633L136.468 368.098L130.06 367.825L132.87 348.213Z" fill="#2F2E41"/>
<path d="M229.188 284.597L232.478 276.922L201.563 261.705L185.946 270.651L229.188 284.597Z" fill="#FFB6B6"/>
<path d="M224.218 285.021L228.624 272.606L234.328 274.637L248.013 266.216C248.688 265.8 249.493 265.592 250.307 265.621C251.122 265.651 251.905 265.918 252.542 266.382C253.179 266.847 253.637 267.484 253.848 268.202C254.059 268.92 254.012 269.681 253.716 270.373L247.523 284.817L240.815 285.298L246.039 288.279L243.705 293.724L224.218 285.021Z" fill="#2F2E41"/>
<path d="M51.5898 261.756C51.5898 261.756 55.3404 283.578 73.0698 285.194C90.7991 286.81 107.142 279.53 107.142 279.53L156.784 265.596C156.784 265.596 209.585 279.269 218.45 281.424C218.45 281.424 224.565 268.775 224.36 267.958C222.474 260.44 220.018 265.526 220.018 265.526L163.875 242.904C163.875 242.904 155.011 240.749 139.645 246.674C124.28 252.599 83.1164 266.881 83.1164 266.881L51.5898 261.756Z" fill="#2F2E41"/>
<path d="M51.7949 260.417C51.7949 260.417 48.8381 286.56 66.1086 290.554C82.5257 294.351 105.171 290.456 105.171 290.456L132.168 287.887C132.168 287.887 133.35 319.502 133.35 335.122C138.835 335.802 144.362 336.161 149.897 336.2C151.079 336.2 151.157 335.635 151.157 335.635L153.446 280.995C153.607 278.619 153.22 276.239 152.311 274.008C151.402 271.777 149.99 269.744 148.166 268.04C146.343 266.336 144.149 264.999 141.724 264.115C139.3 263.23 136.699 262.818 134.089 262.905C132.815 262.95 131.478 263.032 130.078 263.152C113.471 264.604 92.8525 261.518 92.8525 261.518L51.7949 260.417Z" fill="#2F2E41"/>
<path d="M99.6984 222.492C99.6984 222.492 106.71 261.135 101.972 264.22C97.2333 267.305 90.7355 267.317 90.7355 267.317L89.2246 245.98L99.6984 222.492Z" fill="#2F2E41"/>
<path d="M88.0049 175.033L97.3794 183.152C101.737 186.926 104.625 191.891 105.606 197.296C106.587 202.701 105.608 208.25 102.816 213.101L98.335 220.89L88.0049 175.033Z" fill="#2F2E41"/>
<path d="M85.9084 176.398L98.6107 189.585C101.399 192.479 103.126 196.094 103.553 199.925C103.746 201.665 103.668 203.421 103.321 205.141L98.5343 228.859L94.9362 263.111C94.9362 263.111 67.1583 270.781 64.3151 258.936C61.4719 247.091 85.9084 176.398 85.9084 176.398Z" fill="#4D94FC"/>
<path d="M73.9852 266.33C55.7251 263.556 51.252 263.006 50.9735 262.909L50.6943 262.812L52.5246 252.802L60.2532 235.493C60.7551 229.831 64.0104 222.16 62.1481 215.998C56.7343 198.085 65.53 172.772 69.5524 170.833L80.7036 164.17L84.618 167.441L91.4051 176.1C96.9893 198.772 100.846 219.903 100.658 221.194L97.2119 243.389L93.1507 251.903C80.8302 257.321 89.115 268.628 73.9852 266.33Z" fill="#2F2E41"/>
<path d="M107.045 250.047L135.715 243.056L138.24 242.51L140.04 242.121L142.138 241.668L142.154 241.665C142.459 241.602 142.779 241.65 143.045 241.8L153.691 253.433C153.787 253.487 153.872 253.557 153.941 253.638C153.97 253.659 153.995 253.684 154.017 253.711C154.135 253.857 154.211 254.028 154.239 254.208C154.268 254.387 154.247 254.571 154.18 254.741C154.112 254.912 153.999 255.065 153.851 255.187C153.704 255.309 153.525 255.396 153.332 255.44L110.561 264.411C110.34 264.456 110.108 264.444 109.894 264.375C109.68 264.306 109.491 264.183 109.35 264.021L108.916 263.508L106.549 253.12L106.381 251.772C106.274 251.647 106.198 251.502 106.159 251.347C106.09 251.068 106.144 250.775 106.31 250.532C106.476 250.289 106.74 250.115 107.045 250.047Z" fill="#E6E6E6"/>
<path opacity="0.17" d="M108.916 263.507L109.353 264.021C109.493 264.183 109.681 264.306 109.895 264.375C110.109 264.444 110.339 264.456 110.56 264.411L153.333 255.44C153.526 255.396 153.704 255.309 153.852 255.188C154 255.066 154.113 254.913 154.18 254.742C154.248 254.572 154.268 254.388 154.24 254.209C154.211 254.029 154.134 253.858 154.016 253.712C153.996 253.685 153.97 253.66 153.942 253.639L108.916 263.507Z" fill="black"/>
<path d="M141.923 241.593L141.15 191.896C141.117 191.597 141.216 191.298 141.426 191.066L146.906 180.67L147.475 180.039C147.687 179.809 147.99 179.663 148.318 179.633L149.511 179.532C149.839 179.503 150.167 179.593 150.422 179.784C150.678 179.975 150.839 180.251 150.871 180.55L151.946 233.133L151.947 233.137L152.479 238.2L153.11 244.212L153.112 244.219L154.096 253.573C154.115 253.733 154.095 253.895 154.038 254.047C153.981 254.199 153.889 254.339 153.767 254.455C153.648 254.573 153.503 254.667 153.342 254.73C153.18 254.793 153.006 254.824 152.83 254.82L152.054 254.806C151.757 254.799 151.471 254.697 151.248 254.517L150.814 254.161L150.613 253.994L142.335 242.331C142.1 242.141 141.953 241.877 141.923 241.593Z" fill="#E6E6E6"/>
<path opacity="0.17" d="M146.908 180.67L150.612 253.996L150.815 254.161L151.247 254.515C151.47 254.696 151.756 254.798 152.054 254.805L152.831 254.819C153.007 254.822 153.181 254.791 153.343 254.728C153.505 254.665 153.65 254.572 153.769 254.454C153.889 254.336 153.98 254.197 154.036 254.045C154.092 253.894 154.113 253.733 154.096 253.573L150.87 180.552C150.838 180.252 150.678 179.976 150.423 179.785C150.168 179.593 149.84 179.501 149.511 179.53L148.316 179.634C148.154 179.648 147.996 179.691 147.852 179.761C147.708 179.83 147.581 179.926 147.478 180.041L146.908 180.67Z" fill="black"/>
<path d="M147.22 183.633L142.208 194.909L142.828 228.641L148.254 235.794L147.22 183.633Z" fill="#4D94FC"/>
<path d="M110.348 249.749C110.074 249.821 109.842 249.988 109.703 250.215C109.565 250.443 109.53 250.711 109.608 250.961L111.817 259.348L113.885 258.811L111.677 250.424C111.599 250.174 111.415 249.962 111.166 249.836C110.917 249.709 110.623 249.678 110.348 249.749Z" fill="#2F2E41"/>
<path d="M114.486 248.675C114.212 248.747 113.98 248.914 113.841 249.142C113.702 249.369 113.668 249.637 113.746 249.887L114.217 251.395L116.286 250.858L115.815 249.35C115.737 249.1 115.553 248.888 115.304 248.762C115.054 248.635 114.76 248.604 114.486 248.675Z" fill="#2F2E41"/>
<path d="M118.625 247.602C118.35 247.673 118.118 247.841 117.98 248.068C117.841 248.295 117.807 248.563 117.885 248.813L118.356 250.321L120.425 249.785L119.954 248.276C119.876 248.026 119.692 247.814 119.442 247.688C119.193 247.562 118.899 247.531 118.625 247.602Z" fill="#2F2E41"/>
<path d="M122.762 246.528C122.488 246.599 122.256 246.767 122.117 246.994C121.979 247.221 121.944 247.489 122.022 247.739L122.494 249.248L124.563 248.711L124.091 247.202C124.013 246.952 123.829 246.741 123.58 246.614C123.331 246.488 123.037 246.457 122.762 246.528Z" fill="#2F2E41"/>
<path d="M126.9 245.454C126.626 245.525 126.394 245.693 126.255 245.92C126.116 246.147 126.082 246.415 126.16 246.665L126.631 248.174L128.7 247.637L128.229 246.128C128.151 245.878 127.967 245.667 127.718 245.54C127.469 245.414 127.174 245.383 126.9 245.454Z" fill="#2F2E41"/>
<path d="M131.038 244.38C130.763 244.451 130.531 244.619 130.393 244.846C130.254 245.073 130.22 245.341 130.298 245.591L130.769 247.1L132.838 246.563L132.367 245.054C132.289 244.804 132.105 244.593 131.855 244.466C131.606 244.34 131.312 244.309 131.038 244.38Z" fill="#2F2E41"/>
<path d="M135.176 243.306C134.902 243.377 134.67 243.545 134.531 243.772C134.393 243.999 134.359 244.267 134.437 244.518L134.908 246.026L136.977 245.489L136.505 243.981C136.427 243.731 136.243 243.519 135.994 243.393C135.745 243.266 135.451 243.235 135.176 243.306Z" fill="#2F2E41"/>
<path d="M139.314 242.232C139.04 242.304 138.808 242.471 138.669 242.698C138.53 242.926 138.496 243.194 138.574 243.444L139.046 244.952L141.114 244.415L140.643 242.907C140.565 242.657 140.381 242.445 140.132 242.319C139.883 242.192 139.589 242.161 139.314 242.232Z" fill="#2F2E41"/>
<path d="M115.355 252.115C115.081 252.186 114.849 252.354 114.71 252.581C114.571 252.808 114.537 253.076 114.615 253.326L115.087 254.835L117.156 254.298L116.684 252.789C116.606 252.539 116.422 252.328 116.173 252.201C115.924 252.075 115.63 252.044 115.355 252.115Z" fill="#2F2E41"/>
<path d="M119.493 251.041C119.219 251.112 118.987 251.28 118.848 251.507C118.709 251.734 118.675 252.002 118.753 252.252L119.224 253.761L121.293 253.224L120.822 251.715C120.744 251.465 120.56 251.254 120.311 251.127C120.061 251.001 119.767 250.97 119.493 251.041Z" fill="#2F2E41"/>
<path d="M123.631 249.967C123.356 250.038 123.124 250.206 122.985 250.433C122.847 250.66 122.813 250.928 122.891 251.178L123.362 252.687L125.431 252.15L124.96 250.641C124.881 250.391 124.697 250.18 124.448 250.053C124.199 249.927 123.905 249.896 123.631 249.967Z" fill="#2F2E41"/>
<path d="M127.768 248.893C127.494 248.964 127.262 249.132 127.123 249.359C126.984 249.586 126.95 249.854 127.028 250.104L127.5 251.613L129.569 251.076L129.097 249.568C129.019 249.318 128.835 249.106 128.586 248.98C128.337 248.853 128.043 248.822 127.768 248.893Z" fill="#2F2E41"/>
<path d="M131.907 247.819C131.633 247.891 131.401 248.058 131.262 248.285C131.123 248.512 131.089 248.781 131.167 249.031L131.638 250.539L133.707 250.002L133.236 248.494C133.158 248.244 132.974 248.032 132.725 247.906C132.475 247.779 132.181 247.748 131.907 247.819Z" fill="#2F2E41"/>
<path d="M136.045 246.745C135.77 246.817 135.538 246.984 135.4 247.211C135.261 247.439 135.227 247.707 135.305 247.957L135.776 249.465L137.845 248.928L137.374 247.42C137.295 247.17 137.112 246.958 136.862 246.832C136.613 246.705 136.319 246.674 136.045 246.745Z" fill="#2F2E41"/>
<path d="M140.182 245.672C139.908 245.743 139.676 245.91 139.537 246.138C139.399 246.365 139.364 246.633 139.442 246.883L139.914 248.391L141.983 247.854L141.511 246.346C141.433 246.096 141.249 245.884 141 245.758C140.751 245.632 140.457 245.6 140.182 245.672Z" fill="#2F2E41"/>
<path d="M116.223 255.554C115.949 255.625 115.717 255.793 115.578 256.02C115.44 256.247 115.405 256.515 115.483 256.765L115.955 258.274L118.024 257.737L117.552 256.228C117.474 255.978 117.29 255.767 117.041 255.64C116.792 255.514 116.498 255.483 116.223 255.554Z" fill="#2F2E41"/>
<path d="M120.361 254.48C120.087 254.551 119.855 254.719 119.716 254.946C119.577 255.173 119.543 255.441 119.621 255.691L120.092 257.2L122.161 256.663L121.69 255.154C121.612 254.904 121.428 254.693 121.179 254.567C120.929 254.44 120.635 254.409 120.361 254.48Z" fill="#2F2E41"/>
<path d="M124.499 253.406C124.224 253.478 123.992 253.645 123.854 253.872C123.715 254.099 123.681 254.367 123.759 254.618L124.23 256.126L126.299 255.589L125.828 254.081C125.75 253.831 125.566 253.619 125.316 253.493C125.067 253.366 124.773 253.335 124.499 253.406Z" fill="#2F2E41"/>
<path d="M128.637 252.332C128.363 252.404 128.131 252.571 127.992 252.798C127.854 253.026 127.819 253.294 127.897 253.544L128.369 255.052L130.438 254.515L129.966 253.007C129.888 252.757 129.704 252.545 129.455 252.419C129.206 252.292 128.912 252.261 128.637 252.332Z" fill="#2F2E41"/>
<path d="M132.775 251.259C132.501 251.33 132.269 251.497 132.13 251.725C131.991 251.952 131.957 252.22 132.035 252.47L132.506 253.978L134.575 253.441L134.104 251.933C134.026 251.683 133.842 251.471 133.593 251.345C133.344 251.219 133.049 251.187 132.775 251.259Z" fill="#2F2E41"/>
<path d="M136.913 250.185C136.638 250.256 136.406 250.424 136.268 250.651C136.129 250.878 136.095 251.146 136.173 251.396L136.644 252.905L138.713 252.368L138.242 250.859C138.164 250.609 137.98 250.398 137.73 250.271C137.481 250.145 137.187 250.114 136.913 250.185Z" fill="#2F2E41"/>
<path d="M141.05 249.111C140.776 249.182 140.544 249.35 140.405 249.577C140.267 249.804 140.233 250.072 140.311 250.322L140.782 251.831L142.851 251.294L142.38 249.785C142.301 249.535 142.117 249.324 141.868 249.197C141.619 249.071 141.325 249.04 141.05 249.111Z" fill="#2F2E41"/>
<path d="M128.894 242.602C128.339 241.843 127.608 241.204 126.753 240.731C125.898 240.257 124.939 239.96 123.944 239.86C122.95 239.761 121.943 239.861 120.995 240.155C120.048 240.448 119.182 240.927 118.46 241.559L104.134 235.834L98.1934 242.921L118.55 250.746C119.794 251.782 121.411 252.365 123.096 252.387C124.781 252.408 126.416 251.865 127.691 250.862C128.966 249.858 129.792 248.463 130.014 246.94C130.236 245.418 129.837 243.875 128.894 242.602Z" fill="#FFB6B6"/>
<path d="M91.9871 246.587C84.8961 245.681 75.8855 240.664 65.6265 231.867C65.0535 231.385 64.5966 230.8 64.2847 230.149C63.9727 229.497 63.8126 228.794 63.8145 228.083C63.7216 223.125 69.9235 217.231 70.5293 216.668L78.0911 203.706C78.1881 203.492 80.8573 197.807 85.5966 196.27C86.5932 195.954 87.6529 195.839 88.703 195.932C89.7531 196.025 90.7687 196.324 91.6799 196.809C99.6603 200.676 89.7729 221.39 88.4359 224.101L98.8425 230.307L105.285 235.323L114.833 237.487L110.493 248.248L95.7295 246.667C94.4833 246.781 93.2262 246.755 91.9871 246.587Z" fill="#2F2E41"/>
<path d="M105.971 148.547C107.166 139.456 100.224 131.222 90.4663 130.156C80.7083 129.09 71.829 135.597 70.6338 144.689C69.4386 153.78 76.3801 162.015 86.1381 163.08C95.8961 164.146 104.775 157.639 105.971 148.547Z" fill="#FFB6B6"/>
<path d="M41.9613 134.316C45.3842 131.452 47.3688 127.373 50.2462 124.01C53.1236 120.647 57.7281 117.86 62.031 119.185C64.9972 120.099 67.0269 122.803 67.8587 125.661C68.6903 128.519 68.5179 131.552 68.3391 134.522C69.0616 128.457 74.2119 123.063 80.4973 121.789C86.7823 120.515 93.7168 123.459 96.8669 128.739C98.7044 127.522 100.968 126.963 103.228 127.166C105.488 127.369 107.588 128.321 109.129 129.841C112.156 132.972 112.216 138.31 109.26 141.56C106.304 144.81 100.732 145.532 97.0269 143.146L95.4719 144.167C95.9299 146.767 94.0107 149.568 91.3162 150.234C89.1313 150.774 86.2058 150.325 85.1639 152.233C84.4358 153.566 85.259 155.164 86.2019 156.353C87.1446 157.541 88.2858 158.787 88.2212 160.282C88.124 162.538 85.3845 163.827 83.0192 164.047C77.316 164.577 71.4617 161.56 68.8479 156.744C68.7976 156.651 68.7418 156.557 68.6807 156.463C67.16 154.174 66.1673 151.626 65.7634 148.975C65.3595 146.324 65.5529 143.626 66.3317 141.046C66.6475 140.033 66.567 139.245 65.8181 138.915C62.5812 137.49 52.8316 138.675 49.7057 140.367C46.5796 142.059 43.9386 144.462 40.901 146.295C37.8631 148.128 34.1332 149.391 30.7087 148.427C27.9661 147.656 25.8247 145.54 24.5144 143.127C23.2044 140.714 22.624 138.005 22.1377 135.322C27.9086 139.263 36.5737 138.824 41.9613 134.316Z" fill="#2F2E41"/>
<path d="M509.955 18.5741H241.479C241.2 18.5686 240.934 18.4637 240.738 18.2818C240.543 18.0999 240.434 17.8555 240.434 17.601C240.434 17.3464 240.543 17.102 240.738 16.9201C240.934 16.7382 241.2 16.6333 241.479 16.6279H509.955C510.235 16.6333 510.5 16.7382 510.696 16.9201C510.891 17.102 511.001 17.3464 511.001 17.601C511.001 17.8555 510.891 18.0999 510.696 18.2818C510.5 18.4637 510.235 18.5686 509.955 18.5741Z" fill="#4D94FC"/>
<path d="M259.754 11.6595C263.21 11.6595 266.011 9.04947 266.011 5.82977C266.011 2.61008 263.21 0 259.754 0C256.298 0 253.497 2.61008 253.497 5.82977C253.497 9.04947 256.298 11.6595 259.754 11.6595Z" fill="#3F3D56"/>
<path d="M281.369 11.6595C284.825 11.6595 287.626 9.04947 287.626 5.82977C287.626 2.61008 284.825 0 281.369 0C277.914 0 275.112 2.61008 275.112 5.82977C275.112 9.04947 277.914 11.6595 281.369 11.6595Z" fill="#3F3D56"/>
<path d="M302.985 11.6595C306.44 11.6595 309.241 9.04947 309.241 5.82977C309.241 2.61008 306.44 0 302.985 0C299.529 0 296.728 2.61008 296.728 5.82977C296.728 9.04947 299.529 11.6595 302.985 11.6595Z" fill="#3F3D56"/>
<path d="M496.941 1.44498H481.587C481.283 1.4505 480.993 1.56457 480.78 1.76268C480.567 1.96079 480.447 2.22715 480.447 2.50458C480.447 2.782 480.567 3.04836 480.78 3.24647C480.993 3.44459 481.283 3.55865 481.587 3.56418H496.941C497.245 3.55865 497.535 3.44459 497.748 3.24647C497.961 3.04836 498.081 2.782 498.081 2.50458C498.081 2.22715 497.961 1.96079 497.748 1.76268C497.535 1.56457 497.245 1.4505 496.941 1.44498Z" fill="#3F3D56"/>
<path d="M496.941 5.42236H481.587C481.283 5.42789 480.993 5.54195 480.78 5.74006C480.567 5.93818 480.447 6.20454 480.447 6.48196C480.447 6.75939 480.567 7.02575 480.78 7.22386C480.993 7.42197 481.283 7.53604 481.587 7.54156H496.941C497.245 7.53604 497.535 7.42197 497.748 7.22386C497.961 7.02575 498.081 6.75939 498.081 6.48196C498.081 6.20454 497.961 5.93818 497.748 5.74006C497.535 5.54195 497.245 5.42789 496.941 5.42236Z" fill="#3F3D56"/>
<path d="M496.941 9.39456H481.587C481.283 9.40005 480.993 9.5141 480.78 9.71221C480.567 9.91033 480.447 10.1767 480.447 10.4542C480.447 10.7316 480.567 10.998 480.78 11.1961C480.993 11.3942 481.283 11.5083 481.587 11.5138H496.941C497.246 11.5083 497.535 11.3942 497.749 11.1961C497.962 10.998 498.081 10.7316 498.081 10.4542C498.081 10.1767 497.962 9.91033 497.749 9.71221C497.535 9.5141 497.246 9.40005 496.941 9.39456Z" fill="#3F3D56"/>
<path d="M39.2705 242.223L39.2794 242.212L39.2705 242.234V242.223Z" fill="#2F2E41"/>
<path d="M408.083 56.4934C412.355 56.4934 415.819 53.3369 415.819 49.4431C415.819 45.5494 412.355 42.3929 408.083 42.3929C403.811 42.3929 400.348 45.5494 400.348 49.4431C400.348 53.3369 403.811 56.4934 408.083 56.4934Z" fill="#4D94FC"/>
<path d="M473.281 65.0549H402.651C402.348 65.0553 402.048 65.0013 401.768 64.896C401.488 64.7907 401.234 64.6361 401.02 64.4411C400.805 64.2461 400.635 64.0146 400.519 63.7596C400.403 63.5047 400.344 63.2314 400.344 62.9554C400.344 62.6795 400.403 62.4062 400.519 62.1512C400.635 61.8963 400.805 61.6647 401.02 61.4697C401.234 61.2747 401.488 61.1202 401.768 61.0149C402.048 60.9095 402.348 60.8556 402.651 60.856H473.281C473.584 60.8556 473.884 60.9095 474.164 61.0149C474.444 61.1202 474.698 61.2747 474.912 61.4697C475.126 61.6647 475.296 61.8963 475.412 62.1512C475.528 62.4062 475.588 62.6795 475.588 62.9554C475.588 63.2314 475.528 63.5047 475.412 63.7596C475.296 64.0146 475.126 64.2461 474.912 64.4411C474.698 64.6361 474.444 64.7907 474.164 64.896C473.884 65.0013 473.584 65.0553 473.281 65.0549Z" fill="#4D94FC"/>
<path d="M420.194 73.3507H402.651C402.04 73.3507 401.454 73.1295 401.022 72.7358C400.59 72.3421 400.348 71.808 400.348 71.2512C400.348 70.6944 400.59 70.1603 401.022 69.7666C401.454 69.3729 402.04 69.1517 402.651 69.1517H420.194C420.805 69.1517 421.391 69.3729 421.823 69.7666C422.255 70.1603 422.497 70.6944 422.497 71.2512C422.497 71.808 422.255 72.3421 421.823 72.7358C421.391 73.1295 420.805 73.3507 420.194 73.3507Z" fill="#4D94FC"/>
<path d="M408.083 166.537C412.355 166.537 415.819 163.38 415.819 159.487C415.819 155.593 412.355 152.436 408.083 152.436C403.811 152.436 400.348 155.593 400.348 159.487C400.348 163.38 403.811 166.537 408.083 166.537Z" fill="#4D94FC"/>
<path d="M473.281 175.098H402.651C402.04 175.098 401.454 174.877 401.022 174.483C400.59 174.09 400.348 173.556 400.348 172.999C400.348 172.442 400.59 171.908 401.022 171.514C401.454 171.121 402.04 170.899 402.651 170.899H473.281C473.892 170.899 474.478 171.121 474.91 171.514C475.342 171.908 475.585 172.442 475.585 172.999C475.585 173.556 475.342 174.09 474.91 174.483C474.478 174.877 473.892 175.098 473.281 175.098Z" fill="#4D94FC"/>
<path d="M420.194 183.394H402.651C402.04 183.394 401.454 183.173 401.022 182.779C400.59 182.386 400.348 181.852 400.348 181.295C400.348 180.738 400.59 180.204 401.022 179.81C401.454 179.416 402.04 179.195 402.651 179.195H420.194C420.805 179.195 421.391 179.416 421.823 179.81C422.255 180.204 422.497 180.738 422.497 181.295C422.497 181.852 422.255 182.386 421.823 182.779C421.391 183.173 420.805 183.394 420.194 183.394Z" fill="#4D94FC"/>
<path d="M283.585 149.838C287.857 149.838 291.321 146.681 291.321 142.787C291.321 138.894 287.857 135.737 283.585 135.737C279.313 135.737 275.85 138.894 275.85 142.787C275.85 146.681 279.313 149.838 283.585 149.838Z" fill="#4D94FC"/>
<path d="M348.783 158.399H278.153C277.542 158.399 276.956 158.178 276.524 157.784C276.092 157.39 275.85 156.856 275.85 156.3C275.85 155.743 276.092 155.209 276.524 154.815C276.956 154.421 277.542 154.2 278.153 154.2H348.783C349.394 154.2 349.98 154.421 350.412 154.815C350.844 155.209 351.087 155.743 351.087 156.3C351.087 156.856 350.844 157.39 350.412 157.784C349.98 158.178 349.394 158.399 348.783 158.399Z" fill="#4D94FC"/>
<path d="M295.696 166.695H278.153C277.542 166.695 276.956 166.474 276.524 166.08C276.092 165.686 275.85 165.152 275.85 164.596C275.85 164.039 276.092 163.505 276.524 163.111C276.956 162.717 277.542 162.496 278.153 162.496H295.696C296.307 162.496 296.892 162.717 297.324 163.111C297.756 163.505 297.999 164.039 297.999 164.596C297.999 165.152 297.756 165.686 297.324 166.08C296.892 166.474 296.307 166.695 295.696 166.695Z" fill="#4D94FC"/>
<path d="M408.083 107.367C412.355 107.367 415.819 104.211 415.819 100.317C415.819 96.4232 412.355 93.2667 408.083 93.2667C403.811 93.2667 400.348 96.4232 400.348 100.317C400.348 104.211 403.811 107.367 408.083 107.367Z" fill="#4D94FC"/>
<path d="M473.281 115.929H402.651C402.04 115.929 401.454 115.707 401.022 115.314C400.59 114.92 400.348 114.386 400.348 113.829C400.348 113.272 400.59 112.738 401.022 112.345C401.454 111.951 402.04 111.73 402.651 111.73H473.281C473.892 111.73 474.478 111.951 474.91 112.345C475.342 112.738 475.585 113.272 475.585 113.829C475.585 114.386 475.342 114.92 474.91 115.314C474.478 115.707 473.892 115.929 473.281 115.929Z" fill="#4D94FC"/>
<path d="M445.093 124.225H402.651C402.04 124.225 401.454 124.003 401.022 123.61C400.59 123.216 400.348 122.682 400.348 122.125C400.348 121.568 400.59 121.034 401.022 120.64C401.454 120.247 402.04 120.026 402.651 120.026H445.093C445.704 120.026 446.29 120.247 446.722 120.64C447.154 121.034 447.397 121.568 447.397 122.125C447.397 122.682 447.154 123.216 446.722 123.61C446.29 124.003 445.704 124.225 445.093 124.225Z" fill="#4D94FC"/>
<path d="M433.268 132.52H402.651C402.04 132.52 401.454 132.299 401.022 131.905C400.59 131.512 400.348 130.978 400.348 130.421C400.348 129.864 400.59 129.33 401.022 128.936C401.454 128.543 402.04 128.321 402.651 128.321H433.268C433.879 128.321 434.465 128.543 434.897 128.936C435.329 129.33 435.571 129.864 435.571 130.421C435.571 130.978 435.329 131.512 434.897 131.905C434.465 132.299 433.879 132.52 433.268 132.52Z" fill="#4D94FC"/>
<path d="M337.555 54.5024V128.524C337.555 129.041 337.329 129.536 336.929 129.902C336.528 130.267 335.985 130.473 335.419 130.474H292.625C287.891 126.473 284.007 121.71 281.168 116.424C280.981 116.084 280.803 115.741 280.634 115.392C278.047 110.277 276.481 104.782 276.01 99.1661C275.978 98.8203 275.952 98.4771 275.934 98.1285C275.876 97.2373 275.85 96.3327 275.85 95.4255C275.841 89.387 277.092 83.402 279.536 77.7893C279.682 77.4408 279.837 77.095 279.998 76.7518C283.216 69.8553 288.164 63.7429 294.444 58.9054C294.818 58.6154 295.195 58.3334 295.577 58.0594L295.664 57.9955C300.579 54.4493 306.668 52.5284 312.936 52.5469H335.419C335.986 52.5486 336.53 52.7553 336.931 53.1219C337.331 53.4885 337.556 53.985 337.555 54.5024Z" fill="#4D94FC"/>
<path opacity="0.2" d="M337.669 77.7893V76.7518H318.585V52.5469H317.449V76.7518H295.577V58.0594C295.194 58.3334 294.817 58.6154 294.444 58.9054V76.7518H279.998C279.837 77.095 279.683 77.4408 279.537 77.7893H294.444V98.1285H275.935C275.952 98.477 275.978 98.8202 276.01 99.1661H294.444V115.392H280.634C280.804 115.741 280.982 116.084 281.168 116.424H294.444V130.065H295.577V116.424H317.449V130.065H318.585V116.424H337.669V115.392H318.585C318.584 113.261 319.044 111.151 319.939 109.182C320.833 107.213 322.145 105.425 323.798 103.918C325.451 102.411 327.414 101.216 329.574 100.4C331.735 99.5851 334.05 99.1657 336.388 99.1661H337.669V98.1285H318.585V77.7893H337.669ZM317.449 115.392H295.577V99.1661H317.449V115.392ZM317.449 98.1285H295.577V97.7215C295.577 95.1038 296.143 92.5117 297.242 90.0934C298.341 87.675 299.953 85.4776 301.984 83.6268C304.015 81.7759 306.426 80.3078 309.079 79.3062C311.733 78.3046 314.577 77.7892 317.449 77.7893V98.1285Z" fill="black"/>
<path d="M335.517 115.654C335.059 115.673 334.606 115.563 334.219 115.34C333.833 115.117 333.53 114.79 333.354 114.405C333.177 114.02 333.134 113.595 333.232 113.187C333.329 112.779 333.562 112.408 333.898 112.125C333.954 111.921 333.995 111.774 334.051 111.57C334.031 111.526 334.011 111.482 333.99 111.437C331.934 106.968 318.811 119.427 318.244 123.627C317.994 125.484 318.099 127.366 318.555 129.19C314.305 120.739 312.097 111.554 312.083 102.257C312.082 99.9243 312.224 97.5932 312.509 95.2748C312.744 93.3741 313.071 91.4871 313.488 89.6135C315.766 79.4479 320.658 69.9197 327.761 61.8117C331.823 62.0183 335.384 61.4543 335.727 54.2788C335.788 53.0024 336.827 51.8973 337.056 50.6399C336.668 50.6862 336.274 50.7152 335.886 50.7384C335.765 50.7441 335.638 50.7499 335.518 50.7557L335.472 50.7576C335.046 50.775 334.623 50.6798 334.255 50.4834C333.887 50.287 333.589 49.9978 333.396 49.6505C333.204 49.3033 333.127 48.9129 333.172 48.5262C333.218 48.1396 333.385 47.7733 333.654 47.4714C333.822 47.2836 333.989 47.0959 334.157 46.9082C334.411 46.6185 334.672 46.3345 334.926 46.0448C334.956 46.0173 334.983 45.9883 335.009 45.9579C335.301 45.6276 335.594 45.3031 335.886 44.9728C335.352 44.2177 334.634 43.5851 333.788 43.1244C330.857 41.5599 326.814 42.6435 324.697 45.0598C322.573 47.476 322.173 50.8659 322.91 53.8848C323.635 56.4536 324.835 58.8912 326.458 61.0931C326.299 61.2785 326.134 61.4581 325.975 61.6436C323.069 65.0487 320.537 68.7051 318.414 72.5605C319.015 68.2845 311.67 52.8425 308.83 49.5717C305.418 45.6429 298.422 47.3575 297.821 52.3379C297.815 52.3861 297.809 52.4343 297.804 52.4825C298.226 52.6994 298.639 52.9297 299.043 53.1732C299.55 53.4823 299.944 53.924 300.171 54.4403C300.399 54.9566 300.45 55.5235 300.318 56.0668C300.186 56.61 299.877 57.1042 299.431 57.4846C298.986 57.8651 298.424 58.114 297.821 58.1987L297.759 58.2074C292.112 65.5562 310.216 84.6833 314.747 80.3887C312.614 85.8976 311.276 91.6359 310.767 97.4593C310.479 100.895 310.496 104.346 310.818 107.779L310.799 107.658C309.792 100.18 292.519 89.0628 287.475 89.9889C284.569 90.5223 281.708 90.4011 282.149 93.0724C282.156 93.1151 282.163 93.1577 282.17 93.2003C282.953 93.491 283.715 93.8257 284.453 94.2028C284.874 94.4197 285.287 94.65 285.691 94.8935C286.199 95.2026 286.592 95.6442 286.82 96.1606C287.047 96.6769 287.098 97.2438 286.966 97.787C286.834 98.3303 286.525 98.8245 286.08 99.2049C285.634 99.5854 285.073 99.8343 284.47 99.919L284.408 99.9277C284.364 99.9335 284.325 99.9393 284.281 99.9451C281.71 108.006 300.774 121.016 312.363 116.877H312.369C313.518 121.425 315.182 125.853 317.335 130.088H335.072C335.136 129.908 335.193 129.723 335.251 129.543C333.609 129.637 331.96 129.548 330.342 129.277C331.658 127.805 332.974 126.322 334.29 124.85C334.32 124.822 334.347 124.793 334.373 124.763C335.041 124.01 335.715 123.262 336.382 122.509L336.382 122.508C336.418 120.199 336.127 117.895 335.518 115.654L335.517 115.654ZM315.205 79.2356L315.214 79.2241L315.205 79.2472V79.2356ZM311.276 111.517L311.123 111.204C311.129 110.978 311.129 110.752 311.123 110.52C311.123 110.456 311.11 110.393 311.11 110.329C311.168 110.729 311.218 111.128 311.282 111.528L311.276 111.517Z" fill="#2F2E41"/>
<path d="M334.328 10L332.336 6.58H331.016V10H329.924V1.636H332.624C333.256 1.636 333.788 1.744 334.22 1.96C334.66 2.176 334.988 2.468 335.204 2.836C335.42 3.204 335.528 3.624 335.528 4.096C335.528 4.672 335.36 5.18 335.024 5.62C334.696 6.06 334.2 6.352 333.536 6.496L335.636 10H334.328ZM331.016 5.704H332.624C333.216 5.704 333.66 5.56 333.956 5.272C334.252 4.976 334.4 4.584 334.4 4.096C334.4 3.6 334.252 3.216 333.956 2.944C333.668 2.672 333.224 2.536 332.624 2.536H331.016V5.704ZM336.817 6.688C336.817 6.016 336.953 5.428 337.225 4.924C337.497 4.412 337.869 4.016 338.341 3.736C338.821 3.456 339.353 3.316 339.937 3.316C340.513 3.316 341.013 3.44 341.437 3.688C341.861 3.936 342.177 4.248 342.385 4.624V3.424H343.489V10H342.385V8.776C342.169 9.16 341.845 9.48 341.413 9.736C340.989 9.984 340.493 10.108 339.925 10.108C339.341 10.108 338.813 9.964 338.341 9.676C337.869 9.388 337.497 8.984 337.225 8.464C336.953 7.944 336.817 7.352 336.817 6.688ZM342.385 6.7C342.385 6.204 342.285 5.772 342.085 5.404C341.885 5.036 341.613 4.756 341.269 4.564C340.933 4.364 340.561 4.264 340.153 4.264C339.745 4.264 339.373 4.36 339.037 4.552C338.701 4.744 338.433 5.024 338.233 5.392C338.033 5.76 337.933 6.192 337.933 6.688C337.933 7.192 338.033 7.632 338.233 8.008C338.433 8.376 338.701 8.66 339.037 8.86C339.373 9.052 339.745 9.148 340.153 9.148C340.561 9.148 340.933 9.052 341.269 8.86C341.613 8.66 341.885 8.376 342.085 8.008C342.285 7.632 342.385 7.196 342.385 6.7ZM345.898 2.356C345.69 2.356 345.514 2.284 345.37 2.14C345.226 1.996 345.154 1.82 345.154 1.612C345.154 1.404 345.226 1.228 345.37 1.084C345.514 0.94 345.69 0.868 345.898 0.868C346.098 0.868 346.266 0.94 346.402 1.084C346.546 1.228 346.618 1.404 346.618 1.612C346.618 1.82 346.546 1.996 346.402 2.14C346.266 2.284 346.098 2.356 345.898 2.356ZM346.426 3.424V10H345.334V3.424H346.426ZM349.379 1.12V10H348.287V1.12H349.379ZM360 3.424L357.948 10H356.82L355.236 4.78L353.652 10H352.524L350.46 3.424H351.576L353.088 8.944L354.72 3.424H355.836L357.432 8.956L358.92 3.424H360ZM363.952 10.108C363.336 10.108 362.776 9.968 362.272 9.688C361.776 9.408 361.384 9.012 361.096 8.5C360.816 7.98 360.676 7.38 360.676 6.7C360.676 6.028 360.82 5.436 361.108 4.924C361.404 4.404 361.804 4.008 362.308 3.736C362.812 3.456 363.376 3.316 364 3.316C364.624 3.316 365.188 3.456 365.692 3.736C366.196 4.008 366.592 4.4 366.88 4.912C367.176 5.424 367.324 6.02 367.324 6.7C367.324 7.38 367.172 7.98 366.868 8.5C366.572 9.012 366.168 9.408 365.656 9.688C365.144 9.968 364.576 10.108 363.952 10.108ZM363.952 9.148C364.344 9.148 364.712 9.056 365.056 8.872C365.4 8.688 365.676 8.412 365.884 8.044C366.1 7.676 366.208 7.228 366.208 6.7C366.208 6.172 366.104 5.724 365.896 5.356C365.688 4.988 365.416 4.716 365.08 4.54C364.744 4.356 364.38 4.264 363.988 4.264C363.588 4.264 363.22 4.356 362.884 4.54C362.556 4.716 362.292 4.988 362.092 5.356C361.892 5.724 361.792 6.172 361.792 6.7C361.792 7.236 361.888 7.688 362.08 8.056C362.28 8.424 362.544 8.7 362.872 8.884C363.2 9.06 363.56 9.148 363.952 9.148ZM369.852 4.492C370.044 4.116 370.316 3.824 370.668 3.616C371.028 3.408 371.464 3.304 371.976 3.304V4.432H371.688C370.464 4.432 369.852 5.096 369.852 6.424V10H368.76V3.424H369.852V4.492ZM374.329 1.12V10H373.237V1.12H374.329ZM375.782 6.688C375.782 6.016 375.918 5.428 376.19 4.924C376.462 4.412 376.834 4.016 377.306 3.736C377.786 3.456 378.322 3.316 378.914 3.316C379.426 3.316 379.902 3.436 380.342 3.676C380.782 3.908 381.118 4.216 381.35 4.6V1.12H382.454V10H381.35V8.764C381.134 9.156 380.814 9.48 380.39 9.736C379.966 9.984 379.47 10.108 378.902 10.108C378.318 10.108 377.786 9.964 377.306 9.676C376.834 9.388 376.462 8.984 376.19 8.464C375.918 7.944 375.782 7.352 375.782 6.688ZM381.35 6.7C381.35 6.204 381.25 5.772 381.05 5.404C380.85 5.036 380.578 4.756 380.234 4.564C379.898 4.364 379.526 4.264 379.118 4.264C378.71 4.264 378.338 4.36 378.002 4.552C377.666 4.744 377.398 5.024 377.198 5.392C376.998 5.76 376.898 6.192 376.898 6.688C376.898 7.192 376.998 7.632 377.198 8.008C377.398 8.376 377.666 8.66 378.002 8.86C378.338 9.052 378.71 9.148 379.118 9.148C379.526 9.148 379.898 9.052 380.234 8.86C380.578 8.66 380.85 8.376 381.05 8.008C381.25 7.632 381.35 7.196 381.35 6.7Z" fill="#4D94FC"/>
</g>
<defs>
<clipPath id="clip0_248_6147">
<rect width="511" height="369" fill="white"/>
</clipPath>
</defs>
</svg>
