<svg  viewBox="0 0 1364 542" fill="none" xmlns="http://www.w3.org/2000/svg">
<g clip-path="url(#clip0_137_694)">
<rect width="1364" height="542" rx="5" fill="url(#paint0_linear_137_694)" fill-opacity="0.65"/>
<path d="M-245 293L-219.709 309.059C-194.276 325.119 -143.695 357.237 -93.255 359.445C-42.8154 361.553 7.48209 333.851 57.9217 336.159C108.361 338.468 158.943 370.988 209.667 385.642C260.39 400.396 310.972 397.385 361.412 379.017C411.851 360.549 462.149 326.825 512.588 324.617C563.028 322.409 613.61 351.917 664.333 357.237C715.057 362.557 765.639 343.888 816.078 337.866C866.518 331.843 916.815 338.468 967.255 341.68C1017.69 344.891 1068.28 344.49 1093.71 344.39L1119 344.189V523.852H1093.71C1068.28 523.852 1017.69 523.852 967.255 523.852C916.815 523.852 866.518 523.852 816.078 523.852C765.639 523.852 715.057 523.852 664.333 523.852C613.61 523.852 563.028 523.852 512.588 523.852C462.149 523.852 411.851 523.852 361.412 523.852C310.972 523.852 260.39 523.852 209.667 523.852C158.943 523.852 108.361 523.852 57.9217 523.852C7.48209 523.852 -42.8154 523.852 -93.255 523.852C-143.695 523.852 -194.276 523.852 -219.709 523.852H-245V293Z" fill="#319F8D" fill-opacity="0.5"/>
<path d="M0 380.403L25.2908 375.184C50.7237 370.065 101.305 359.627 151.745 372.675C202.185 385.723 252.482 422.258 302.922 428.581C353.361 434.905 403.943 411.217 454.667 403.79C505.39 396.463 555.972 405.496 606.412 417.541C656.851 429.585 707.149 444.641 757.588 449.358C808.028 453.975 858.61 448.354 909.333 425.871C960.057 403.489 1010.64 364.344 1061.08 343.768C1111.52 323.192 1161.82 321.185 1212.26 325.501C1262.69 329.917 1313.28 340.556 1338.71 345.976L1364 351.296V543.003H1338.71C1313.28 543.003 1262.69 543.003 1212.26 543.003C1161.82 543.003 1111.52 543.003 1061.08 543.003C1010.64 543.003 960.057 543.003 909.333 543.003C858.61 543.003 808.028 543.003 757.588 543.003C707.149 543.003 656.851 543.003 606.412 543.003C555.972 543.003 505.39 543.003 454.667 543.003C403.943 543.003 353.361 543.003 302.922 543.003C252.482 543.003 202.185 543.003 151.745 543.003C101.305 543.003 50.7237 543.003 25.2908 543.003H0V380.403Z" fill="#4BAB9F"/>
<path d="M0 407.504L25.2908 407.002C50.7237 406.5 101.305 405.496 151.745 414.229C202.185 422.861 252.482 441.329 302.922 439.924C353.361 438.619 403.943 417.541 454.667 412.221C505.39 406.801 555.972 417.24 606.412 420.552C656.851 423.864 707.149 420.251 757.588 414.329C808.028 408.508 858.61 400.478 909.333 393.251C960.057 386.125 1010.64 379.701 1061.08 378.196C1111.52 376.69 1161.82 380.103 1212.26 396.463C1262.69 412.824 1313.28 442.332 1338.71 456.986L1364 471.741V543.004H1338.71C1313.28 543.004 1262.69 543.004 1212.26 543.004C1161.82 543.004 1111.52 543.004 1061.08 543.004C1010.64 543.004 960.057 543.004 909.333 543.004C858.61 543.004 808.028 543.004 757.588 543.004C707.149 543.004 656.851 543.004 606.412 543.004C555.972 543.004 505.39 543.004 454.667 543.004C403.943 543.004 353.361 543.004 302.922 543.004C252.482 543.004 202.185 543.004 151.745 543.004C101.305 543.004 50.7237 543.004 25.2908 543.004H0V407.504Z" fill="#64B7B0"/>
<path d="M0 425.57L25.2908 424.767C50.7237 423.864 122.56 457.588 173 460.7C223.44 463.912 252.482 436.611 302.922 440.626C353.361 444.641 403.943 444.641 454.667 453.473C505.39 462.406 555.972 480.071 606.412 482.781C656.851 485.491 707.149 473.045 757.588 460.7C808.028 448.354 858.61 435.908 909.333 433.399C960.057 430.89 1010.64 438.317 1061.08 449.157C1111.52 459.997 1161.82 474.451 1212.26 480.071C1262.69 485.792 1313.28 482.781 1338.71 481.276L1364 479.77V543.004H1338.71C1313.28 543.004 1262.69 543.004 1212.26 543.004C1161.82 543.004 1111.52 543.004 1061.08 543.004C1010.64 543.004 960.057 543.004 909.333 543.004C858.61 543.004 808.028 543.004 757.588 543.004C707.149 543.004 656.851 543.004 606.412 543.004C555.972 543.004 505.39 543.004 454.667 543.004C403.943 543.004 353.361 543.004 302.922 543.004C252.482 543.004 202.185 543.004 151.745 543.004C101.305 543.004 50.7237 543.004 25.2908 543.004H0V425.57Z" fill="#7CC3C1"/>
<path d="M0 503.859L25.2908 498.841C50.7237 493.822 101.305 483.785 151.745 481.276C202.185 478.767 252.482 483.785 302.922 486.094C353.361 488.503 403.943 488.101 454.667 488.503C505.39 488.804 555.972 489.807 606.412 493.621C656.851 497.536 707.149 504.16 757.588 508.577C808.028 512.893 858.61 514.9 909.333 512.09C960.057 509.179 1010.64 501.551 1061.08 493.822C1111.52 486.094 1161.82 478.466 1212.26 478.566C1262.69 478.767 1313.28 486.796 1338.71 490.811L1364 494.826V543.004H1338.71C1313.28 543.004 1262.69 543.004 1212.26 543.004C1161.82 543.004 1111.52 543.004 1061.08 543.004C1010.64 543.004 960.057 543.004 909.333 543.004C858.61 543.004 808.028 543.004 757.588 543.004C707.149 543.004 656.851 543.004 606.412 543.004C555.972 543.004 505.39 543.004 454.667 543.004C403.943 543.004 353.361 543.004 302.922 543.004C252.482 543.004 202.185 543.004 151.745 543.004C101.305 543.004 50.7237 543.004 25.2908 543.004H0V503.859Z" fill="#94CFD0"/>
</g>
<defs>
<linearGradient id="paint0_linear_137_694" x1="682" y1="-51.9052" x2="682" y2="542" gradientUnits="userSpaceOnUse">
<stop stop-color="#78C5B2" stop-opacity="0"/>
<stop offset="1" stop-color="#78C5B2"/>
</linearGradient>
<clipPath id="clip0_137_694">
<rect width="1364" height="542" rx="5" fill="white"/>
</clipPath>
</defs>
</svg>
