<svg viewBox="0 0 1440 1343" fill="none" xmlns="http://www.w3.org/2000/svg">
<g opacity="0.3" clip-path="url(#clip0_137_4443)">
<path d="M318.592 916.544C335.638 916.544 349.457 897.08 349.457 873.07C349.457 849.061 335.638 829.597 318.592 829.597C301.546 829.597 287.727 849.061 287.727 873.07C287.727 897.08 301.546 916.544 318.592 916.544Z" fill="#A7233A" fill-opacity="0.3"/>
<path d="M627.242 997.051C636.081 997.051 643.246 986.959 643.246 974.509C643.246 962.06 636.081 951.968 627.242 951.968C618.403 951.968 611.238 962.06 611.238 974.509C611.238 986.959 618.403 997.051 627.242 997.051Z" fill="#A7233A" fill-opacity="0.3"/>
<path d="M541.506 960.018C550.976 960.018 558.653 949.205 558.653 935.866C558.653 922.527 550.976 911.714 541.506 911.714C532.036 911.714 524.359 922.527 524.359 935.866C524.359 949.205 532.036 960.018 541.506 960.018Z" fill="#A7233A" fill-opacity="0.3"/>
<path d="M795.285 913.324C810.437 913.324 822.72 896.023 822.72 874.681C822.72 853.339 810.437 836.038 795.285 836.038C780.132 836.038 767.849 853.339 767.849 874.681C767.849 896.023 780.132 913.324 795.285 913.324Z" fill="#A7233A" fill-opacity="0.3"/>
<path d="M1188.53 713.669C1199.26 713.669 1207.96 701.414 1207.96 686.296C1207.96 671.179 1199.26 658.924 1188.53 658.924C1177.79 658.924 1169.09 671.179 1169.09 686.296C1169.09 701.414 1177.79 713.669 1188.53 713.669Z" fill="#A7233A" fill-opacity="0.3"/>
<path d="M1146.23 266.057C1156.96 266.057 1165.66 253.802 1165.66 238.685C1165.66 223.568 1156.96 211.313 1146.23 211.313C1135.5 211.313 1126.8 223.568 1126.8 238.685C1126.8 253.802 1135.5 266.057 1146.23 266.057Z" fill="#A7233A" fill-opacity="0.3"/>
<path d="M427.191 415.798C442.343 415.798 454.626 398.497 454.626 377.155C454.626 355.813 442.343 338.512 427.191 338.512C412.039 338.512 399.755 355.813 399.755 377.155C399.755 398.497 412.039 415.798 427.191 415.798Z" fill="#A7233A" fill-opacity="0.3"/>
<path d="M852.442 378.764C862.544 378.764 870.733 367.23 870.733 353.002C870.733 338.774 862.544 327.24 852.442 327.24C842.341 327.24 834.152 338.774 834.152 353.002C834.152 367.23 842.341 378.764 852.442 378.764Z" fill="#A7233A" fill-opacity="0.3"/>
<path d="M542.649 1067.9C557.17 1067.9 568.942 1051.32 568.942 1030.86C568.942 1010.41 557.17 993.83 542.649 993.83C528.128 993.83 516.357 1010.41 516.357 1030.86C516.357 1051.32 528.128 1067.9 542.649 1067.9Z" fill="#A7233A" fill-opacity="0.3"/>
<path d="M1021.63 750.702C1036.15 750.702 1047.92 734.122 1047.92 713.67C1047.92 693.217 1036.15 676.637 1021.63 676.637C1007.11 676.637 995.335 693.217 995.335 713.67C995.335 734.122 1007.11 750.702 1021.63 750.702Z" fill="#A7233A" fill-opacity="0.3"/>
<path d="M963.327 948.747C976.586 948.747 987.333 933.609 987.333 914.934C987.333 896.26 976.586 881.122 963.327 881.122C950.069 881.122 939.321 896.26 939.321 914.934C939.321 933.609 950.069 948.747 963.327 948.747Z" fill="#A7233A" fill-opacity="0.3"/>
<path d="M584.945 396.474C600.729 396.474 613.524 378.452 613.524 356.221C613.524 333.99 600.729 315.968 584.945 315.968C569.162 315.968 556.367 333.99 556.367 356.221C556.367 378.452 569.162 396.474 584.945 396.474Z" fill="#A7233A" fill-opacity="0.3"/>
<path d="M576.944 723.33C587.045 723.33 595.234 711.796 595.234 697.568C595.234 683.34 587.045 671.806 576.944 671.806C566.842 671.806 558.653 683.34 558.653 697.568C558.653 711.796 566.842 723.33 576.944 723.33Z" fill="#A7233A" fill-opacity="0.3"/>
<path d="M229.427 697.568C238.897 697.568 246.574 686.755 246.574 673.416C246.574 660.078 238.897 649.265 229.427 649.265C219.957 649.265 212.28 660.078 212.28 673.416C212.28 686.755 219.957 697.568 229.427 697.568Z" fill="#A7233A" fill-opacity="0.3"/>
<path d="M994.192 610.621C1003.03 610.621 1010.2 600.529 1010.2 588.08C1010.2 575.63 1003.03 565.538 994.192 565.538C985.353 565.538 978.188 575.63 978.188 588.08C978.188 600.529 985.353 610.621 994.192 610.621Z" fill="#A7233A" fill-opacity="0.3"/>
<path d="M677.54 786.124C692.693 786.124 704.976 768.823 704.976 747.481C704.976 726.139 692.693 708.838 677.54 708.838C662.388 708.838 650.105 726.139 650.105 747.481C650.105 768.823 662.388 786.124 677.54 786.124Z" fill="#A7233A" fill-opacity="0.3"/>
<path d="M765.563 613.842C778.821 613.842 789.569 598.704 789.569 580.03C789.569 561.356 778.821 546.217 765.563 546.217C752.305 546.217 741.557 561.356 741.557 580.03C741.557 598.704 752.305 613.842 765.563 613.842Z" fill="#A7233A" fill-opacity="0.3"/>
<path d="M1121.08 770.024C1129.29 770.024 1135.94 760.653 1135.94 749.093C1135.94 737.533 1129.29 728.161 1121.08 728.161C1112.87 728.161 1106.22 737.533 1106.22 749.093C1106.22 760.653 1112.87 770.024 1121.08 770.024Z" fill="#A7233A" fill-opacity="0.3"/>
<path d="M787.283 1045.35C799.909 1045.35 810.146 1030.94 810.146 1013.15C810.146 995.366 799.909 980.949 787.283 980.949C774.656 980.949 764.42 995.366 764.42 1013.15C764.42 1030.94 774.656 1045.35 787.283 1045.35Z" fill="#A7233A" fill-opacity="0.3"/>
<path d="M822.72 816.716C834.716 816.716 844.44 803.02 844.44 786.124C844.44 769.228 834.716 755.532 822.72 755.532C810.725 755.532 801 769.228 801 786.124C801 803.02 810.725 816.716 822.72 816.716Z" fill="#A7233A" fill-opacity="0.3"/>
<path d="M1179.38 615.453C1187.59 615.453 1194.24 606.082 1194.24 594.521C1194.24 582.961 1187.59 573.59 1179.38 573.59C1171.17 573.59 1164.52 582.961 1164.52 594.521C1164.52 606.082 1171.17 615.453 1179.38 615.453Z" fill="#A7233A" fill-opacity="0.3"/>
<path d="M432.907 290.207C448.059 290.207 460.342 272.906 460.342 251.564C460.342 230.222 448.059 212.921 432.907 212.921C417.754 212.921 405.471 230.222 405.471 251.564C405.471 272.906 417.754 290.207 432.907 290.207Z" fill="#A7233A" fill-opacity="0.3"/>
<path d="M902.74 745.872C910.948 745.872 917.601 736.501 917.601 724.94C917.601 713.38 910.948 704.009 902.74 704.009C894.533 704.009 887.879 713.38 887.879 724.94C887.879 736.501 894.533 745.872 902.74 745.872Z" fill="#A7233A" fill-opacity="0.3"/>
<path d="M901.598 945.527C911.699 945.527 919.888 933.993 919.888 919.765C919.888 905.537 911.699 894.003 901.598 894.003C891.496 894.003 883.307 905.537 883.307 919.765C883.307 933.993 891.496 945.527 901.598 945.527Z" fill="#A7233A" fill-opacity="0.3"/>
<path d="M508.355 394.865C522.244 394.865 533.504 379.006 533.504 359.443C533.504 339.879 522.244 324.02 508.355 324.02C494.465 324.02 483.205 339.879 483.205 359.443C483.205 379.006 494.465 394.865 508.355 394.865Z" fill="#A7233A" fill-opacity="0.3"/>
<path d="M365.461 557.489C380.614 557.489 392.897 540.188 392.897 518.846C392.897 497.504 380.614 480.203 365.461 480.203C350.309 480.203 338.026 497.504 338.026 518.846C338.026 540.188 350.309 557.489 365.461 557.489Z" fill="#A7233A" fill-opacity="0.3"/>
<path d="M352.886 658.925C368.039 658.925 380.322 641.624 380.322 620.282C380.322 598.94 368.039 581.639 352.886 581.639C337.734 581.639 325.451 598.94 325.451 620.282C325.451 641.624 337.734 658.925 352.886 658.925Z" fill="#A7233A" fill-opacity="0.3"/>
<path d="M1049.06 253.175C1057.27 253.175 1063.92 243.804 1063.92 232.244C1063.92 220.684 1057.27 211.312 1049.06 211.312C1040.86 211.312 1034.2 220.684 1034.2 232.244C1034.2 243.804 1040.86 253.175 1049.06 253.175Z" fill="#A7233A" fill-opacity="0.3"/>
<path d="M1134.8 961.628C1148.06 961.628 1158.81 946.489 1158.81 927.815C1158.81 909.141 1148.06 894.003 1134.8 894.003C1121.54 894.003 1110.79 909.141 1110.79 927.815C1110.79 946.489 1121.54 961.628 1134.8 961.628Z" fill="#A7233A" fill-opacity="0.3"/>
<path d="M1111.94 610.622C1123.3 610.622 1132.51 597.646 1132.51 581.64C1132.51 565.633 1123.3 552.657 1111.94 552.657C1100.57 552.657 1091.36 565.633 1091.36 581.64C1091.36 597.646 1100.57 610.622 1111.94 610.622Z" fill="#A7233A" fill-opacity="0.3"/>
<path d="M696.974 409.356C705.813 409.356 712.978 399.264 712.978 386.815C712.978 374.365 705.813 364.273 696.974 364.273C688.135 364.273 680.97 374.365 680.97 386.815C680.97 399.264 688.135 409.356 696.974 409.356Z" fill="#A7233A" fill-opacity="0.3"/>
<path d="M459.199 971.288C469.301 971.288 477.49 959.754 477.49 945.526C477.49 931.298 469.301 919.764 459.199 919.764C449.098 919.764 440.909 931.298 440.909 945.526C440.909 959.754 449.098 971.288 459.199 971.288Z" fill="#A7233A" fill-opacity="0.3"/>
<path d="M460.342 700.788C472.969 700.788 483.205 686.371 483.205 668.586C483.205 650.801 472.969 636.384 460.342 636.384C447.715 636.384 437.479 650.801 437.479 668.586C437.479 686.371 447.715 700.788 460.342 700.788Z" fill="#A7233A" fill-opacity="0.3"/>
<path d="M372.32 303.087C386.21 303.087 397.469 287.228 397.469 267.665C397.469 248.101 386.21 232.242 372.32 232.242C358.43 232.242 347.171 248.101 347.171 267.665C347.171 287.228 358.43 303.087 372.32 303.087Z" fill="#A7233A" fill-opacity="0.3"/>
<path d="M967.9 1101.71C978.001 1101.71 986.19 1090.18 986.19 1075.95C986.19 1061.72 978.001 1050.19 967.9 1050.19C957.798 1050.19 949.609 1061.72 949.609 1075.95C949.609 1090.18 957.798 1101.71 967.9 1101.71Z" fill="#A7233A" fill-opacity="0.3"/>
<path d="M437.48 844.089C448.844 844.089 458.056 831.113 458.056 815.107C458.056 799.1 448.844 786.125 437.48 786.125C426.115 786.125 416.903 799.1 416.903 815.107C416.903 831.113 426.115 844.089 437.48 844.089Z" fill="#A7233A" fill-opacity="0.3"/>
<path d="M664.966 499.524C678.855 499.524 690.115 483.665 690.115 464.101C690.115 444.538 678.855 428.678 664.966 428.678C651.076 428.678 639.817 444.538 639.817 464.101C639.817 483.665 651.076 499.524 664.966 499.524Z" fill="#A7233A" fill-opacity="0.3"/>
<path d="M296.872 435.118C308.236 435.118 317.449 422.142 317.449 406.136C317.449 390.129 308.236 377.153 296.872 377.153C285.508 377.153 276.296 390.129 276.296 406.136C276.296 422.142 285.508 435.118 296.872 435.118Z" fill="#A7233A" fill-opacity="0.3"/>
<path d="M515.214 290.207C530.997 290.207 543.792 272.185 543.792 249.954C543.792 227.723 530.997 209.701 515.214 209.701C499.43 209.701 486.635 227.723 486.635 249.954C486.635 272.185 499.43 290.207 515.214 290.207Z" fill="#A7233A" fill-opacity="0.3"/>
<path d="M498.066 488.254C506.905 488.254 514.07 478.162 514.07 465.712C514.07 453.263 506.905 443.17 498.066 443.17C489.228 443.17 482.062 453.263 482.062 465.712C482.062 478.162 489.228 488.254 498.066 488.254Z" fill="#A7233A" fill-opacity="0.3"/>
<path d="M691.258 977.728C704.516 977.728 715.264 962.59 715.264 943.916C715.264 925.242 704.516 910.103 691.258 910.103C678 910.103 667.252 925.242 667.252 943.916C667.252 962.59 678 977.728 691.258 977.728Z" fill="#A7233A" fill-opacity="0.3"/>
<path d="M531.218 800.615C540.688 800.615 548.365 789.802 548.365 776.463C548.365 763.125 540.688 752.312 531.218 752.312C521.747 752.312 514.07 763.125 514.07 776.463C514.07 789.802 521.747 800.615 531.218 800.615Z" fill="#A7233A" fill-opacity="0.3"/>
<path d="M803.286 486.643C812.757 486.643 820.434 475.829 820.434 462.491C820.434 449.152 812.757 438.339 803.286 438.339C793.816 438.339 786.139 449.152 786.139 462.491C786.139 475.829 793.816 486.643 803.286 486.643Z" fill="#A7233A" fill-opacity="0.3"/>
<path d="M1114.22 1092.05C1123.06 1092.05 1130.23 1081.96 1130.23 1069.51C1130.23 1057.06 1123.06 1046.97 1114.22 1046.97C1105.38 1046.97 1098.22 1057.06 1098.22 1069.51C1098.22 1081.96 1105.38 1092.05 1114.22 1092.05Z" fill="#A7233A" fill-opacity="0.3"/>
<path d="M326.594 1043.74C334.802 1043.74 341.455 1034.37 341.455 1022.81C341.455 1011.25 334.802 1001.88 326.594 1001.88C318.387 1001.88 311.733 1011.25 311.733 1022.81C311.733 1034.37 318.387 1043.74 326.594 1043.74Z" fill="#A7233A" fill-opacity="0.3"/>
<path d="M400.899 1040.52C413.526 1040.52 423.762 1026.11 423.762 1008.32C423.762 990.537 413.526 976.12 400.899 976.12C388.272 976.12 378.036 990.537 378.036 1008.32C378.036 1026.11 388.272 1040.52 400.899 1040.52Z" fill="#A7233A" fill-opacity="0.3"/>
<path d="M347.171 810.278C355.378 810.278 362.032 800.907 362.032 789.346C362.032 777.786 355.378 768.415 347.171 768.415C338.964 768.415 332.31 777.786 332.31 789.346C332.31 800.907 338.964 810.278 347.171 810.278Z" fill="#A7233A" fill-opacity="0.3"/>
<path d="M894.738 534.947C902.946 534.947 909.599 525.575 909.599 514.015C909.599 502.455 902.946 493.084 894.738 493.084C886.531 493.084 879.877 502.455 879.877 514.015C879.877 525.575 886.531 534.947 894.738 534.947Z" fill="#A7233A" fill-opacity="0.3"/>
<path d="M233.999 948.747C244.732 948.747 253.433 936.492 253.433 921.375C253.433 906.258 244.732 894.003 233.999 894.003C223.267 894.003 214.566 906.258 214.566 921.375C214.566 936.492 223.267 948.747 233.999 948.747Z" fill="#A7233A" fill-opacity="0.3"/>
<path d="M1015.91 528.505C1031.06 528.505 1043.35 511.204 1043.35 489.862C1043.35 468.52 1031.06 451.219 1015.91 451.219C1000.76 451.219 988.476 468.52 988.476 489.862C988.476 511.204 1000.76 528.505 1015.91 528.505Z" fill="#A7233A" fill-opacity="0.3"/>
<path d="M803.286 270.886C817.807 270.886 829.579 254.306 829.579 233.853C829.579 213.4 817.807 196.82 803.286 196.82C788.766 196.82 776.994 213.4 776.994 233.853C776.994 254.306 788.766 270.886 803.286 270.886Z" fill="#A7233A" fill-opacity="0.3"/>
<path d="M858.158 642.824C873.31 642.824 885.593 625.523 885.593 604.181C885.593 582.839 873.31 565.538 858.158 565.538C843.005 565.538 830.722 582.839 830.722 604.181C830.722 625.523 843.005 642.824 858.158 642.824Z" fill="#A7233A" fill-opacity="0.3"/>
<path d="M935.892 436.729C947.256 436.729 956.468 423.753 956.468 407.747C956.468 391.74 947.256 378.765 935.892 378.765C924.527 378.765 915.315 391.74 915.315 407.747C915.315 423.753 924.527 436.729 935.892 436.729Z" fill="#A7233A" fill-opacity="0.3"/>
<path d="M612.381 270.886C626.902 270.886 638.674 254.306 638.674 233.853C638.674 213.401 626.902 196.821 612.381 196.821C597.86 196.821 586.089 213.401 586.089 233.853C586.089 254.306 597.86 270.886 612.381 270.886Z" fill="#A7233A" fill-opacity="0.3"/>
<path d="M1166.81 501.133C1179.43 501.133 1189.67 486.715 1189.67 468.93C1189.67 451.145 1179.43 436.728 1166.81 436.728C1154.18 436.728 1143.94 451.145 1143.94 468.93C1143.94 486.715 1154.18 501.133 1166.81 501.133Z" fill="#A7233A" fill-opacity="0.3"/>
<path d="M886.736 317.579C900.626 317.579 911.886 301.72 911.886 282.157C911.886 262.593 900.626 246.734 886.736 246.734C872.847 246.734 861.587 262.593 861.587 282.157C861.587 301.72 872.847 317.579 886.736 317.579Z" fill="#A7233A" fill-opacity="0.3"/>
<path d="M540.363 617.062C552.989 617.062 563.226 602.645 563.226 584.86C563.226 567.075 552.989 552.657 540.363 552.657C527.736 552.657 517.5 567.075 517.5 584.86C517.5 602.645 527.736 617.062 540.363 617.062Z" fill="#A7233A" fill-opacity="0.3"/>
<path d="M698.117 1129.08C710.112 1129.08 719.837 1115.38 719.837 1098.49C719.837 1081.59 710.112 1067.9 698.117 1067.9C686.121 1067.9 676.397 1081.59 676.397 1098.49C676.397 1115.38 686.121 1129.08 698.117 1129.08Z" fill="#A7233A" fill-opacity="0.3"/>
<path d="M1134.8 415.797C1143.64 415.797 1150.8 405.705 1150.8 393.255C1150.8 380.806 1143.64 370.714 1134.8 370.714C1125.96 370.714 1118.8 380.806 1118.8 393.255C1118.8 405.705 1125.96 415.797 1134.8 415.797Z" fill="#A7233A" fill-opacity="0.3"/>
<path d="M839.867 1137.13C855.019 1137.13 867.303 1119.83 867.303 1098.49C867.303 1077.15 855.019 1059.85 839.867 1059.85C824.715 1059.85 812.432 1077.15 812.432 1098.49C812.432 1119.83 824.715 1137.13 839.867 1137.13Z" fill="#A7233A" fill-opacity="0.3"/>
<path d="M997.622 845.7C1013.41 845.7 1026.2 827.678 1026.2 805.447C1026.2 783.216 1013.41 765.194 997.622 765.194C981.838 765.194 969.043 783.216 969.043 805.447C969.043 827.678 981.838 845.7 997.622 845.7Z" fill="#A7233A" fill-opacity="0.3"/>
<path d="M334.596 364.272C345.96 364.272 355.173 351.297 355.173 335.29C355.173 319.284 345.96 306.308 334.596 306.308C323.232 306.308 314.019 319.284 314.019 335.29C314.019 351.297 323.232 364.272 334.596 364.272Z" fill="#A7233A" fill-opacity="0.3"/>
<path d="M298.015 720.11C313.799 720.11 326.594 702.088 326.594 679.857C326.594 657.626 313.799 639.604 298.015 639.604C282.232 639.604 269.437 657.626 269.437 679.857C269.437 702.088 282.232 720.11 298.015 720.11Z" fill="#A7233A" fill-opacity="0.3"/>
<path d="M639.816 609.011C653.706 609.011 664.966 593.152 664.966 573.588C664.966 554.025 653.706 538.166 639.816 538.166C625.927 538.166 614.667 554.025 614.667 573.588C614.667 593.152 625.927 609.011 639.816 609.011Z" fill="#A7233A" fill-opacity="0.3"/>
<path d="M244.288 539.776C258.177 539.776 269.437 523.917 269.437 504.354C269.437 484.79 258.177 468.931 244.288 468.931C230.398 468.931 219.138 484.79 219.138 504.354C219.138 523.917 230.398 539.776 244.288 539.776Z" fill="#A7233A" fill-opacity="0.3"/>
<path d="M482.062 1133.91C494.689 1133.91 504.925 1119.49 504.925 1101.71C504.925 1083.92 494.689 1069.51 482.062 1069.51C469.435 1069.51 459.199 1083.92 459.199 1101.71C459.199 1119.49 469.435 1133.91 482.062 1133.91Z" fill="#A7233A" fill-opacity="0.3"/>
<path d="M1189.67 881.121C1197.88 881.121 1204.53 871.749 1204.53 860.189C1204.53 848.629 1197.88 839.258 1189.67 839.258C1181.46 839.258 1174.81 848.629 1174.81 860.189C1174.81 871.749 1181.46 881.121 1189.67 881.121Z" fill="#A7233A" fill-opacity="0.3"/>
<path d="M754.131 381.985C769.283 381.985 781.567 364.684 781.567 343.342C781.567 322 769.283 304.699 754.131 304.699C738.979 304.699 726.696 322 726.696 343.342C726.696 364.684 738.979 381.985 754.131 381.985Z" fill="#A7233A" fill-opacity="0.3"/>
<path d="M248.86 291.819C264.644 291.819 277.439 273.797 277.439 251.566C277.439 229.334 264.644 211.312 248.86 211.312C233.077 211.312 220.281 229.334 220.281 251.566C220.281 273.797 233.077 291.819 248.86 291.819Z" fill="#A7233A" fill-opacity="0.3"/>
<path d="M1034.2 1100.1C1047.46 1100.1 1058.21 1084.96 1058.21 1066.29C1058.21 1047.61 1047.46 1032.47 1034.2 1032.47C1020.94 1032.47 1010.2 1047.61 1010.2 1066.29C1010.2 1084.96 1020.94 1100.1 1034.2 1100.1Z" fill="#A7233A" fill-opacity="0.3"/>
<path d="M1014.77 414.187C1028.66 414.187 1039.92 398.327 1039.92 378.764C1039.92 359.201 1028.66 343.341 1014.77 343.341C1000.88 343.341 989.62 359.201 989.62 378.764C989.62 398.327 1000.88 414.187 1014.77 414.187Z" fill="#A7233A" fill-opacity="0.3"/>
<path d="M275.152 845.7C288.41 845.7 299.158 830.561 299.158 811.887C299.158 793.213 288.41 778.075 275.152 778.075C261.894 778.075 251.146 793.213 251.146 811.887C251.146 830.561 261.894 845.7 275.152 845.7Z" fill="#A7233A" fill-opacity="0.3"/>
<path d="M411.187 1148.4C426.971 1148.4 439.766 1130.38 439.766 1108.15C439.766 1085.92 426.971 1067.9 411.187 1067.9C395.404 1067.9 382.608 1085.92 382.608 1108.15C382.608 1130.38 395.404 1148.4 411.187 1148.4Z" fill="#A7233A" fill-opacity="0.3"/>
<path d="M948.466 309.528C964.25 309.528 977.045 291.506 977.045 269.275C977.045 247.044 964.25 229.022 948.466 229.022C932.683 229.022 919.888 247.044 919.888 269.275C919.888 291.506 932.683 309.528 948.466 309.528Z" fill="#A7233A" fill-opacity="0.3"/>
<path d="M1067.35 852.141C1083.14 852.141 1095.93 834.119 1095.93 811.888C1095.93 789.657 1083.14 771.635 1067.35 771.635C1051.57 771.635 1038.77 789.657 1038.77 811.888C1038.77 834.119 1051.57 852.141 1067.35 852.141Z" fill="#A7233A" fill-opacity="0.3"/>
<path d="M709.548 686.296C719.65 686.296 727.839 674.762 727.839 660.534C727.839 646.306 719.65 634.772 709.548 634.772C699.447 634.772 691.258 646.306 691.258 660.534C691.258 674.762 699.447 686.296 709.548 686.296Z" fill="#A7233A" fill-opacity="0.3"/>
<path d="M877.591 860.191C886.43 860.191 893.595 850.099 893.595 837.649C893.595 825.2 886.43 815.108 877.591 815.108C868.752 815.108 861.587 825.2 861.587 837.649C861.587 850.099 868.752 860.191 877.591 860.191Z" fill="#A7233A" fill-opacity="0.3"/>
<path d="M643.246 865.021C653.979 865.021 662.68 852.766 662.68 837.648C662.68 822.531 653.979 810.276 643.246 810.276C632.513 810.276 623.812 822.531 623.812 837.648C623.812 852.766 632.513 865.021 643.246 865.021Z" fill="#A7233A" fill-opacity="0.3"/>
<path d="M1188.53 348.172C1202.42 348.172 1213.68 332.312 1213.68 312.749C1213.68 293.186 1202.42 277.326 1188.53 277.326C1174.64 277.326 1163.38 293.186 1163.38 312.749C1163.38 332.312 1174.64 348.172 1188.53 348.172Z" fill="#A7233A" fill-opacity="0.3"/>
<path d="M596.377 1112.98C607.11 1112.98 615.811 1100.72 615.811 1085.61C615.811 1070.49 607.11 1058.24 596.377 1058.24C585.644 1058.24 576.944 1070.49 576.944 1085.61C576.944 1100.72 585.644 1112.98 596.377 1112.98Z" fill="#A7233A" fill-opacity="0.3"/>
<path d="M725.552 262.836C736.285 262.836 744.986 250.581 744.986 235.464C744.986 220.347 736.285 208.092 725.552 208.092C714.82 208.092 706.119 220.347 706.119 235.464C706.119 250.581 714.82 262.836 725.552 262.836Z" fill="#A7233A" fill-opacity="0.3"/>
<path d="M575.8 496.304C588.427 496.304 598.663 481.886 598.663 464.101C598.663 446.316 588.427 431.899 575.8 431.899C563.173 431.899 552.937 446.316 552.937 464.101C552.937 481.886 563.173 496.304 575.8 496.304Z" fill="#A7233A" fill-opacity="0.3"/>
<path d="M1075.36 483.423C1091.14 483.423 1103.93 465.401 1103.93 443.17C1103.93 420.939 1091.14 402.917 1075.36 402.917C1059.57 402.917 1046.78 420.939 1046.78 443.17C1046.78 465.401 1059.57 483.423 1075.36 483.423Z" fill="#A7233A" fill-opacity="0.3"/>
<path d="M472.917 581.64C481.124 581.64 487.778 572.269 487.778 560.708C487.778 549.148 481.124 539.777 472.917 539.777C464.709 539.777 458.056 549.148 458.056 560.708C458.056 572.269 464.709 581.64 472.917 581.64Z" fill="#A7233A" fill-opacity="0.3"/>
<path d="M1057.07 657.315C1066.54 657.315 1074.21 646.501 1074.21 633.163C1074.21 619.824 1066.54 609.011 1057.07 609.011C1047.6 609.011 1039.92 619.824 1039.92 633.163C1039.92 646.501 1047.6 657.315 1057.07 657.315Z" fill="#A7233A" fill-opacity="0.3"/>
<path d="M1187.38 1101.71C1201.91 1101.71 1213.68 1085.13 1213.68 1064.68C1213.68 1044.22 1201.91 1027.64 1187.38 1027.64C1172.86 1027.64 1161.09 1044.22 1161.09 1064.68C1161.09 1085.13 1172.86 1101.71 1187.38 1101.71Z" fill="#A7233A" fill-opacity="0.3"/>
<path d="M373.463 456.05C387.353 456.05 398.613 440.191 398.613 420.628C398.613 401.064 387.353 385.205 373.463 385.205C359.574 385.205 348.314 401.064 348.314 420.628C348.314 440.191 359.574 456.05 373.463 456.05Z" fill="#A7233A" fill-opacity="0.3"/>
<path d="M400.899 771.635C415.42 771.635 427.191 755.055 427.191 734.602C427.191 714.149 415.42 697.569 400.899 697.569C386.378 697.569 374.606 714.149 374.606 734.602C374.606 755.055 386.378 771.635 400.899 771.635Z" fill="#A7233A" fill-opacity="0.3"/>
<path d="M395.183 955.187C408.441 955.187 419.189 940.049 419.189 921.375C419.189 902.701 408.441 887.562 395.183 887.562C381.925 887.562 371.177 902.701 371.177 921.375C371.177 940.049 381.925 955.187 395.183 955.187Z" fill="#A7233A" fill-opacity="0.3"/>
<path d="M772.422 716.889C787.574 716.889 799.857 699.588 799.857 678.247C799.857 656.905 787.574 639.604 772.422 639.604C757.269 639.604 744.986 656.905 744.986 678.247C744.986 699.588 757.269 716.889 772.422 716.889Z" fill="#A7233A" fill-opacity="0.3"/>
<path d="M1030.77 1016.37C1045.93 1016.37 1058.21 999.072 1058.21 977.73C1058.21 956.388 1045.93 939.087 1030.77 939.087C1015.62 939.087 1003.34 956.388 1003.34 977.73C1003.34 999.072 1015.62 1016.37 1030.77 1016.37Z" fill="#A7233A" fill-opacity="0.3"/>
<path d="M720.98 882.732C729.819 882.732 736.984 872.64 736.984 860.191C736.984 847.741 729.819 837.649 720.98 837.649C712.141 837.649 704.976 847.741 704.976 860.191C704.976 872.64 712.141 882.732 720.98 882.732Z" fill="#A7233A" fill-opacity="0.3"/>
<path d="M658.107 338.511C668.208 338.511 676.397 326.977 676.397 312.749C676.397 298.521 668.208 286.987 658.107 286.987C648.005 286.987 639.816 298.521 639.816 312.749C639.816 326.977 648.005 338.511 658.107 338.511Z" fill="#A7233A" fill-opacity="0.3"/>
<path d="M284.298 1127.47C298.187 1127.47 309.447 1111.61 309.447 1092.05C309.447 1072.48 298.187 1056.63 284.298 1056.63C270.408 1056.63 259.148 1072.48 259.148 1092.05C259.148 1111.61 270.408 1127.47 284.298 1127.47Z" fill="#A7233A" fill-opacity="0.3"/>
<path d="M907.313 1129.08C922.465 1129.08 934.748 1111.78 934.748 1090.44C934.748 1069.1 922.465 1051.79 907.313 1051.79C892.161 1051.79 879.877 1069.1 879.877 1090.44C879.877 1111.78 892.161 1129.08 907.313 1129.08Z" fill="#A7233A" fill-opacity="0.3"/>
<path d="M726.696 512.404C739.954 512.404 750.702 497.266 750.702 478.592C750.702 459.917 739.954 444.779 726.696 444.779C713.438 444.779 702.69 459.917 702.69 478.592C702.69 497.266 713.438 512.404 726.696 512.404Z" fill="#A7233A" fill-opacity="0.3"/>
<path d="M743.843 794.176C758.995 794.176 771.279 776.875 771.279 755.533C771.279 734.191 758.995 716.89 743.843 716.89C728.691 716.89 716.407 734.191 716.407 755.533C716.407 776.875 728.691 794.176 743.843 794.176Z" fill="#A7233A" fill-opacity="0.3"/>
<path d="M1074.21 932.646C1083.05 932.646 1090.22 922.554 1090.22 910.104C1090.22 897.655 1083.05 887.562 1074.21 887.562C1065.37 887.562 1058.21 897.655 1058.21 910.104C1058.21 922.554 1065.37 932.646 1074.21 932.646Z" fill="#A7233A" fill-opacity="0.3"/>
<path d="M964.47 687.907C973.941 687.907 981.618 677.094 981.618 663.756C981.618 650.417 973.941 639.604 964.47 639.604C955 639.604 947.323 650.417 947.323 663.756C947.323 677.094 955 687.907 964.47 687.907Z" fill="#A7233A" fill-opacity="0.3"/>
<path d="M499.209 897.222C514.362 897.222 526.645 879.921 526.645 858.58C526.645 837.238 514.362 819.937 499.209 819.937C484.057 819.937 471.774 837.238 471.774 858.58C471.774 879.921 484.057 897.222 499.209 897.222Z" fill="#A7233A" fill-opacity="0.3"/>
<path d="M242.002 391.645C255.26 391.645 266.008 376.507 266.008 357.833C266.008 339.159 255.26 324.02 242.002 324.02C228.743 324.02 217.995 339.159 217.995 357.833C217.995 376.507 228.743 391.645 242.002 391.645Z" fill="#A7233A" fill-opacity="0.3"/>
<path d="M849.013 1034.08C863.533 1034.08 875.305 1017.5 875.305 997.05C875.305 976.597 863.533 960.017 849.013 960.017C834.492 960.017 822.72 976.597 822.72 997.05C822.72 1017.5 834.492 1034.08 849.013 1034.08Z" fill="#A7233A" fill-opacity="0.3"/>
<path d="M291.156 615.451C305.677 615.451 317.449 598.871 317.449 578.419C317.449 557.966 305.677 541.386 291.156 541.386C276.636 541.386 264.864 557.966 264.864 578.419C264.864 598.871 276.636 615.451 291.156 615.451Z" fill="#A7233A" fill-opacity="0.3"/>
<path d="M1095.93 361.053C1111.08 361.053 1123.37 343.752 1123.37 322.41C1123.37 301.068 1111.08 283.767 1095.93 283.767C1080.78 283.767 1068.5 301.068 1068.5 322.41C1068.5 343.752 1080.78 361.053 1095.93 361.053Z" fill="#A7233A" fill-opacity="0.3"/>
<path d="M240.858 1056.63C253.485 1056.63 263.721 1042.21 263.721 1024.42C263.721 1006.64 253.485 992.221 240.858 992.221C228.231 992.221 217.995 1006.64 217.995 1024.42C217.995 1042.21 228.231 1056.63 240.858 1056.63Z" fill="#A7233A" fill-opacity="0.3"/>
<path d="M426.048 514.013C441.832 514.013 454.627 495.991 454.627 473.76C454.627 451.529 441.832 433.507 426.048 433.507C410.264 433.507 397.469 451.529 397.469 473.76C397.469 495.991 410.264 514.013 426.048 514.013Z" fill="#A7233A" fill-opacity="0.3"/>
<path d="M347.17 1138.74C359.166 1138.74 368.89 1125.04 368.89 1108.15C368.89 1091.25 359.166 1077.56 347.17 1077.56C335.175 1077.56 325.451 1091.25 325.451 1108.15C325.451 1125.04 335.175 1138.74 347.17 1138.74Z" fill="#A7233A" fill-opacity="0.3"/>
<path d="M588.375 908.494C601.633 908.494 612.381 893.356 612.381 874.682C612.381 856.008 601.633 840.869 588.375 840.869C575.117 840.869 564.369 856.008 564.369 874.682C564.369 893.356 575.117 908.494 588.375 908.494Z" fill="#A7233A" fill-opacity="0.3"/>
<path d="M935.892 1019.59C945.362 1019.59 953.039 1008.78 953.039 995.44C953.039 982.101 945.362 971.288 935.892 971.288C926.421 971.288 918.744 982.101 918.744 995.44C918.744 1008.78 926.421 1019.59 935.892 1019.59Z" fill="#A7233A" fill-opacity="0.3"/>
<path d="M770.135 1141.96C783.393 1141.96 794.141 1126.82 794.141 1108.15C794.141 1089.47 783.393 1074.34 770.135 1074.34C756.877 1074.34 746.129 1089.47 746.129 1108.15C746.129 1126.82 756.877 1141.96 770.135 1141.96Z" fill="#A7233A" fill-opacity="0.3"/>
<path d="M837.581 712.06C846.42 712.06 853.585 701.967 853.585 689.518C853.585 677.069 846.42 666.976 837.581 666.976C828.742 666.976 821.577 677.069 821.577 689.518C821.577 701.967 828.742 712.06 837.581 712.06Z" fill="#A7233A" fill-opacity="0.3"/>
<path d="M922.174 615.453C930.381 615.453 937.035 606.081 937.035 594.521C937.035 582.961 930.381 573.59 922.174 573.59C913.966 573.59 907.313 582.961 907.313 594.521C907.313 606.081 913.966 615.453 922.174 615.453Z" fill="#A7233A" fill-opacity="0.3"/>
<path d="M640.96 712.058C655.481 712.058 667.252 695.478 667.252 675.026C667.252 654.573 655.481 637.993 640.96 637.993C626.439 637.993 614.667 654.573 614.667 675.026C614.667 695.478 626.439 712.058 640.96 712.058Z" fill="#A7233A" fill-opacity="0.3"/>
</g>
<defs>
<clipPath id="clip0_137_4443">
<rect width="1565" height="1341.33" fill="white" transform="translate(-73 0.826965)"/>
</clipPath>
</defs>
</svg>
