<svg viewBox="0 0 618 344" fill="none" xmlns="http://www.w3.org/2000/svg">
<path d="M0 342.095C0 342.706 0.6955 343.193 1.5665 343.193H615.836C616.701 343.193 617.402 342.706 617.402 342.095C617.402 341.484 616.707 340.996 615.836 340.996H1.5665C0.702 340.996 0 341.484 0 342.095Z" fill="#2F2E43"/>
<path d="M483.965 0H97.0007C91.8592 0 87.6797 4.1795 87.6797 9.321V268.613C87.6797 273.754 91.8592 277.934 97.0007 277.934H483.965C489.107 277.934 493.286 273.754 493.286 268.613V9.321C493.286 4.1795 489.107 0 483.965 0Z" fill="#D7D7D8"/>
<path d="M485.663 8.75552H98.1328V227.942H485.663V8.75552Z" fill="white"/>
<path d="M493.286 237.543V268.613C493.286 273.754 489.107 277.934 483.965 277.934H97.0007C91.8592 277.934 87.6797 273.754 87.6797 268.613V237.543H493.286Z" fill="#2F2E41"/>
<path d="M339.918 272.006H243.881V342.056H339.918V272.006Z" fill="#2F2E41"/>
<path d="M340.19 333.294H243.594V336.121H340.19V333.294Z" fill="#D7D7D8"/>
<path d="M427.948 29.393V34.3135H153.59V29.393C153.59 26.754 155.728 24.6155 158.367 24.6155H423.171C425.81 24.6155 427.948 26.754 427.948 29.393Z" fill="#D7D7D8"/>
<path d="M159.433 30.81C160.209 30.81 160.837 30.1814 160.837 29.406C160.837 28.6306 160.209 28.002 159.433 28.002C158.658 28.002 158.029 28.6306 158.029 29.406C158.029 30.1814 158.658 30.81 159.433 30.81Z" fill="white"/>
<path d="M164.107 30.81C164.883 30.81 165.511 30.1814 165.511 29.406C165.511 28.6306 164.883 28.002 164.107 28.002C163.332 28.002 162.703 28.6306 162.703 29.406C162.703 30.1814 163.332 30.81 164.107 30.81Z" fill="white"/>
<path d="M168.775 30.81C169.551 30.81 170.179 30.1814 170.179 29.406C170.179 28.6306 169.551 28.002 168.775 28.002C168 28.002 167.371 28.6306 167.371 29.406C167.371 30.1814 168 30.81 168.775 30.81Z" fill="white"/>
<path d="M397.696 39.4485H180.804C178.805 39.4485 177.184 41.0695 177.184 43.069C177.184 45.0686 178.805 46.6895 180.804 46.6895H397.696C399.696 46.6895 401.317 45.0686 401.317 43.069C401.317 41.0695 399.696 39.4485 397.696 39.4485Z" fill="#D7D7D8"/>
<path d="M249.27 125.294H200.988C198.076 125.294 195.703 122.922 195.703 120.01V78.7345C195.703 75.8225 198.076 73.45 200.988 73.45H249.27C252.182 73.45 254.554 75.8225 254.554 78.7345V120.01C254.554 122.922 252.182 125.294 249.27 125.294ZM200.988 75.0685C198.966 75.0685 197.328 76.713 197.328 78.728V120.003C197.328 122.025 198.973 123.663 200.988 123.663H249.27C251.291 123.663 252.929 122.018 252.929 120.003V78.728C252.929 76.7065 251.285 75.0685 249.27 75.0685H200.988Z" fill="#D7D7D8"/>
<path d="M314.914 125.294H266.632C263.72 125.294 261.348 122.922 261.348 120.01V78.7345C261.348 75.8225 263.72 73.45 266.632 73.45H314.914C317.826 73.45 320.199 75.8225 320.199 78.7345V120.01C320.199 122.922 317.826 125.294 314.914 125.294ZM266.632 75.0685C264.611 75.0685 262.973 76.713 262.973 78.728V120.003C262.973 122.025 264.617 123.663 266.632 123.663H314.914C316.936 123.663 318.574 122.018 318.574 120.003V78.728C318.574 76.7065 316.929 75.0685 314.914 75.0685H266.632Z" fill="#D7D7D8"/>
<path d="M380.551 125.294H332.269C329.357 125.294 326.984 122.922 326.984 120.01V78.7345C326.984 75.8225 329.357 73.45 332.269 73.45H380.551C383.463 73.45 385.835 75.8225 385.835 78.7345V120.01C385.835 122.922 383.463 125.294 380.551 125.294ZM332.269 75.0685C330.247 75.0685 328.609 76.713 328.609 78.728V120.003C328.609 122.025 330.254 123.663 332.269 123.663H380.551C382.572 123.663 384.21 122.018 384.21 120.003V78.728C384.21 76.7065 382.566 75.0685 380.551 75.0685H332.269Z" fill="#D7D7D8"/>
<path d="M249.27 189.826H200.988C198.076 189.826 195.703 187.454 195.703 184.542V143.267C195.703 140.355 198.076 137.982 200.988 137.982H249.27C252.182 137.982 254.554 140.355 254.554 143.267V184.542C254.554 187.454 252.182 189.826 249.27 189.826ZM200.988 139.601C198.966 139.601 197.328 141.245 197.328 143.26V184.535C197.328 186.557 198.973 188.195 200.988 188.195H249.27C251.291 188.195 252.929 186.55 252.929 184.535V143.26C252.929 141.239 251.285 139.601 249.27 139.601H200.988Z" fill="#D7D7D8"/>
<path d="M314.914 189.826H266.632C263.72 189.826 261.348 187.454 261.348 184.542V143.267C261.348 140.355 263.72 137.982 266.632 137.982H314.914C317.826 137.982 320.199 140.355 320.199 143.267V184.542C320.199 187.454 317.826 189.826 314.914 189.826ZM266.632 139.601C264.611 139.601 262.973 141.245 262.973 143.26V184.535C262.973 186.557 264.617 188.195 266.632 188.195H314.914C316.936 188.195 318.574 186.55 318.574 184.535V143.26C318.574 141.239 316.929 139.601 314.914 139.601H266.632Z" fill="#D7D7D8"/>
<path d="M380.551 189.826H332.269C329.357 189.826 326.984 187.454 326.984 184.542V143.267C326.984 140.355 329.357 137.982 332.269 137.982H380.551C383.463 137.982 385.835 140.355 385.835 143.267V184.542C385.835 187.454 383.463 189.826 380.551 189.826Z" fill="#00BFA6"/>
<path d="M511.251 97.929L519.227 91.7215C519.227 91.7215 528.327 94.5555 528.561 94.6725C528.795 94.7895 542.685 127.004 542.685 127.004C542.685 127.004 507.104 145.217 509.704 143.436C512.304 141.668 511.765 117.663 509.347 114.537C506.922 111.404 508.989 103.539 508.989 103.539L511.232 97.9225H511.245L511.251 97.929Z" fill="#2F2E43"/>
<path d="M533.3 112.444H522.49V129.604L534.411 125.684L533.3 112.444Z" fill="#F3A3A6"/>
<path d="M497.966 223.106C498.245 221.539 498.135 219.921 497.641 218.387L501.411 202.182L493.37 200.499L490.419 217.119C489.457 218.393 488.833 219.888 488.599 221.461C487.949 225.394 489.529 228.956 492.116 229.404C494.703 229.859 497.322 227.038 497.972 223.106H497.966Z" fill="#F3A3A6"/>
<path d="M529.927 317.798H518.76V333.638H529.927V317.798Z" fill="#F3A3A6"/>
<path d="M507.892 343.232C512.793 343.232 519.949 342.719 520.001 342.712C521.919 342.881 531.474 343.635 531.948 341.451C532.384 339.443 531.74 337.343 531.649 337.051C530.726 327.918 530.388 327.808 530.18 327.75C529.855 327.652 528.906 328.107 527.366 329.101L527.268 329.167L527.249 329.277C527.223 329.413 526.54 332.768 523.303 332.261C521.087 331.91 520.365 331.415 520.138 331.175C520.326 331.09 520.56 330.941 520.723 330.687C520.963 330.317 521.002 329.836 520.846 329.257C520.43 327.743 519.182 325.5 519.13 325.403L518.987 325.15L506.299 333.71L498.46 335.952C497.869 336.115 497.394 336.544 497.154 337.11C496.822 337.896 497.024 338.819 497.667 339.391C499.091 340.672 501.925 342.862 504.889 343.135C505.675 343.207 506.722 343.239 507.898 343.239L507.892 343.232Z" fill="#2F2E43"/>
<path d="M561.721 305.358L552.246 311.267L560.629 324.708L570.104 318.799L561.721 305.358Z" fill="#F3A3A6"/>
<path d="M549.134 341.068C550.694 341.068 552.417 340.847 553.866 340.113C557.526 338.273 566.424 331.806 566.476 331.76C568.186 330.896 576.694 326.476 575.94 324.37C575.245 322.433 573.587 320.99 573.36 320.795C567.744 313.528 567.406 313.619 567.198 313.677C566.866 313.768 566.307 314.652 565.521 316.31L565.475 316.414L565.521 316.518C565.573 316.654 566.769 319.859 563.753 321.133C561.686 322.01 560.815 321.978 560.496 321.887C560.613 321.711 560.73 321.464 560.737 321.159C560.75 320.717 560.529 320.281 560.087 319.878C558.93 318.812 556.687 317.571 556.59 317.519L556.336 317.382L550.096 331.364L544.63 337.409C544.214 337.864 544.038 338.475 544.136 339.086C544.272 339.931 544.935 340.6 545.78 340.75C546.638 340.899 547.841 341.062 549.154 341.062L549.134 341.068Z" fill="#2F2E43"/>
<path d="M538.15 185.322C538.15 185.322 541.77 185.322 547.445 196.671C553.119 208.026 545.898 253.591 545.898 253.591L566.113 305.903L551.93 315.835L526.04 259.805L532.423 321.867H516.466L504.051 214.409L506.885 185.328H538.15V185.322Z" fill="#2F2E43"/>
<path d="M540.58 122.902H518.948L499.441 187.096H553.697L540.58 122.902Z" fill="#00BFA6"/>
<path d="M522.366 122.909L500.377 214.052H489.379C489.379 214.052 506.045 129.649 507.468 126.1C508.885 122.551 522.36 122.909 522.36 122.909H522.366Z" fill="#00BFA6"/>
<path d="M523.966 117.189C530.528 117.189 535.848 111.869 535.848 105.307C535.848 98.7443 530.528 93.4245 523.966 93.4245C517.404 93.4245 512.084 98.7443 512.084 105.307C512.084 111.869 517.404 117.189 523.966 117.189Z" fill="#F3A3A6"/>
<path d="M509.167 103.142L512.079 103.636C514.796 92.755 520.951 96.3105 521.536 96.187C522.121 96.0635 530.87 105.638 530.162 115.336C529.453 125.028 541.985 129.571 541.985 129.571C541.985 129.571 546.366 137.8 542.46 152.692C538.553 167.583 546.834 172.582 546.834 172.582C563.149 171.197 553.341 148.434 550.741 144.3C548.141 140.16 549.915 132.951 549.915 132.951C553.939 129.402 549.207 121.602 549.207 121.602C549.207 121.602 550.039 111.196 547.556 109.187C545.073 107.179 544.956 102.213 544.956 102.213C540.575 83.1805 526.275 86.8465 526.275 86.8465C507.951 84.838 509.173 103.136 509.173 103.136L509.167 103.142Z" fill="#2F2E43"/>
<path d="M562.96 221.201C562.661 219.635 561.985 218.159 560.978 216.905L558.742 200.414L550.623 201.701L553.763 218.289C553.327 219.823 553.275 221.435 553.607 222.995C554.393 226.902 557.13 229.664 559.71 229.17C562.291 228.676 563.747 225.108 562.954 221.201H562.96Z" fill="#F3A3A6"/>
<path d="M551.506 212.979H562.504C562.504 212.979 545.838 128.577 544.415 125.028C542.998 121.479 531.129 122.987 531.129 122.987L551.506 212.979Z" fill="#00BFA6"/>
</svg>
