<svg viewBox="0 0 512 533" fill="none" xmlns="http://www.w3.org/2000/svg">
<g clip-path="url(#clip0_346_5814)">
<path d="M454.49 405.208L454.48 405.448L466.49 532.448H378.85L367.49 454.448L362.49 530.448L272.49 529.448L282.05 429.668L290.18 383.418V383.408L291.4 376.448H452.1L452.31 378.968L454.49 405.208Z" fill="#2F2E41"/>
<path d="M222.883 478.831C232.165 480.522 241.843 470.069 244.501 455.483C245.664 449.098 245.289 442.98 243.721 437.977L245.144 429.569L269.027 316.46C269.027 316.46 313.008 228.484 313.006 213.211C313.005 197.938 300.284 190.448 300.284 190.448L283.07 190.609L229.087 322.456L219.365 419.886L217.792 433.253C214.56 437.382 212.052 442.974 210.889 449.359C208.231 463.945 213.601 477.14 222.883 478.831Z" fill="#FFB6B6"/>
<path d="M397.99 135.948L381.99 98.9484L329.99 107.948L326.49 151.48L397.99 135.948Z" fill="#FFB6B6"/>
<path opacity="0.1" d="M397.99 135.948L381.99 98.9484L329.99 107.948L326.49 151.48L397.99 135.948Z" fill="black"/>
<path d="M510.992 212.948C510.992 212.948 473.992 143.948 466.992 136.948C463.876 133.832 458.978 133.789 454.499 134.697L402.992 116.948L385.534 107.139L384.384 125.801L327.068 136.089C327.387 124.708 328.992 120.379 328.992 120.379L307.992 144.948L266.992 164.948L267.015 165.128C264.006 166.179 261.153 167.976 258.992 170.948C250.992 181.948 228.992 315.948 228.992 315.948L275.992 325.948L282.389 285.809L286.992 321.948L290.492 389.448C290.492 389.448 354.492 444.448 385.492 424.448C416.492 404.448 454.492 405.448 454.492 405.448L455.44 374.16C456.115 373.082 456.492 372.448 456.492 372.448L455.492 261.464V231.932C463.11 242.546 472.304 251.673 482.992 255.948C517.992 269.948 510.992 212.948 510.992 212.948Z" fill="#E6E6E6"/>
<path d="M350.555 114.458C376.976 114.458 398.394 93.0404 398.394 66.6199C398.394 40.1995 376.976 18.7814 350.555 18.7814C324.135 18.7814 302.717 40.1995 302.717 66.6199C302.717 93.0404 324.135 114.458 350.555 114.458Z" fill="#FFB6B6"/>
<path d="M384.874 80.1395C384.874 80.1395 389.034 65.58 398.393 66.6199C407.753 67.6599 409.833 59.3402 407.753 55.1803C405.673 51.0204 401.513 30.2211 401.513 30.2211C401.513 30.2211 403.593 15.6615 391.114 13.5816C378.634 11.5017 374.474 9.42173 372.394 5.26186C370.314 1.10199 339.115 -3.05788 328.716 3.18193C318.316 9.42173 309.996 21.3936 302.716 24.7674C295.437 28.1411 289.197 34.3809 293.357 44.7806C297.517 55.1803 303.55 75.5198 303.55 75.5198C303.55 75.5198 314.156 71.8198 316.236 78.0596C318.316 84.2994 309.996 75.9796 320.396 59.3401C330.796 42.7007 330.796 26.0612 347.435 32.301C364.074 38.5408 382.794 36.4609 380.714 48.9405C378.634 61.4201 384.874 80.1395 384.874 80.1395Z" fill="#2F2E41"/>
<path d="M381.949 459.384H18.6332C8.35866 459.384 0 451.025 0 440.751V247.758C0 237.484 8.35866 229.125 18.6332 229.125H381.949C392.224 229.125 400.583 237.484 400.583 247.758V440.751C400.583 451.025 392.224 459.384 381.949 459.384Z" fill="white"/>
<path d="M381.949 459.384H18.6332C8.35866 459.384 0 451.025 0 440.751V247.758C0 237.484 8.35866 229.125 18.6332 229.125H381.949C392.224 229.125 400.583 237.484 400.583 247.758V440.751C400.583 451.025 392.224 459.384 381.949 459.384ZM18.6332 232.236C10.0748 232.236 3.11161 239.2 3.11161 247.758V440.751C3.11161 449.309 10.0748 456.273 18.6332 456.273H381.949C390.508 456.273 397.471 449.309 397.471 440.751V247.758C397.471 239.2 390.508 232.236 381.949 232.236H18.6332Z" fill="#3F3D56"/>
<path d="M353.908 252.462C356.485 252.462 358.575 250.372 358.575 247.794C358.575 245.217 356.485 243.127 353.908 243.127C351.33 243.127 349.24 245.217 349.24 247.794C349.24 250.372 351.33 252.462 353.908 252.462Z" fill="#3F3D56"/>
<path d="M366.355 252.462C368.933 252.462 371.022 250.372 371.022 247.794C371.022 245.217 368.933 243.127 366.355 243.127C363.777 243.127 361.688 245.217 361.688 247.794C361.688 250.372 363.777 252.462 366.355 252.462Z" fill="#3F3D56"/>
<path d="M378.802 252.462C381.38 252.462 383.47 250.372 383.47 247.794C383.47 245.217 381.38 243.127 378.802 243.127C376.224 243.127 374.135 245.217 374.135 247.794C374.135 250.372 376.224 252.462 378.802 252.462Z" fill="#3F3D56"/>
<path d="M26.4489 323.251C25.1621 323.251 24.1152 324.298 24.1152 325.585C24.1152 326.212 24.3576 326.793 24.7974 327.221C25.2411 327.675 25.8222 327.919 26.4489 327.919H375.69C376.977 327.919 378.024 326.872 378.024 325.585C378.024 324.957 377.781 324.377 377.341 323.948C376.898 323.494 376.317 323.251 375.69 323.251H26.4489Z" fill="#E6E6E6"/>
<path d="M332.128 322.473V328.696H26.4495C25.5938 328.696 24.8159 328.354 24.2559 327.778C23.6801 327.218 23.3379 326.44 23.3379 325.585C23.3379 323.873 24.7382 322.473 26.4495 322.473H332.128Z" fill="#00BFA6"/>
<path d="M371.8 310.805H340.684C337.253 310.805 334.461 308.014 334.461 304.581C334.461 301.149 337.253 298.358 340.684 298.358H371.8C375.232 298.358 378.024 301.149 378.024 304.581C378.024 308.014 375.232 310.805 371.8 310.805Z" fill="#E6E6E6"/>
<path d="M167.989 278.133H28.7818C25.3504 278.133 22.5586 275.342 22.5586 271.909C22.5586 268.477 25.3504 265.686 28.7818 265.686H167.989C171.42 265.686 174.212 268.477 174.212 271.909C174.212 275.342 171.42 278.133 167.989 278.133Z" fill="#E6E6E6"/>
<path d="M26.4489 393.262C25.1621 393.262 24.1152 394.309 24.1152 395.596C24.1152 396.224 24.3576 396.804 24.7974 397.232C25.2411 397.687 25.8222 397.93 26.4489 397.93H375.69C376.977 397.93 378.024 396.883 378.024 395.596C378.024 394.969 377.781 394.388 377.341 393.96C376.898 393.506 376.317 393.262 375.69 393.262H26.4489Z" fill="#E6E6E6"/>
<path d="M212.331 392.484V398.708H26.4495C25.5938 398.708 24.8159 398.365 24.2559 397.79C23.6801 397.23 23.3379 396.452 23.3379 395.596C23.3379 393.885 24.7382 392.484 26.4495 392.484H212.331Z" fill="#00BFA6"/>
<path d="M371.8 380.816H340.684C337.253 380.816 334.461 378.025 334.461 374.593C334.461 371.161 337.253 368.37 340.684 368.37H371.8C375.232 368.37 378.024 371.161 378.024 374.593C378.024 378.025 375.232 380.816 371.8 380.816Z" fill="#E6E6E6"/>
<path d="M426.273 118.141C453.184 118.141 475 96.7847 475 70.4408C475 44.097 453.184 22.7411 426.273 22.7411C399.362 22.7411 377.547 44.097 377.547 70.4408C377.547 96.7847 399.362 118.141 426.273 118.141Z" fill="#00BFA6"/>
<path d="M442.812 46.3808C436.325 58.1929 429.838 70.0052 423.351 81.8174C419.216 74.5124 415.105 67.1945 410.96 59.8953C409.529 57.3744 405.635 59.6418 407.07 62.169C411.875 70.6304 416.629 79.1201 421.434 87.5815C422.255 89.0283 424.511 89.0619 425.324 87.5815C432.45 74.6058 439.576 61.6301 446.702 48.6545C448.098 46.1119 444.209 43.8363 442.812 46.3808Z" fill="white"/>
<path d="M493.538 196.172L444.991 172.948C444.991 172.948 443.041 157.405 433.937 151.861C432.389 148.168 430.608 144.111 428.991 140.897C424.991 132.948 430.991 117.948 425.991 117.948C420.991 117.948 413.599 133.724 413.991 137.948C414.291 141.191 416.971 146.853 417.525 151.809C411.428 154.109 406.509 158.05 403.275 161.188C400.477 163.904 399.437 167.956 400.531 171.699C403.7 182.546 411.622 204.948 422.991 204.948C437.991 204.948 441.991 201.948 441.991 201.948C441.991 201.948 472.991 240.948 495.991 243.948C518.991 246.948 493.538 196.172 493.538 196.172Z" fill="#FFB6B6"/>
</g>
<defs>
<clipPath id="clip0_346_5814">
<rect width="511.563" height="532.448" fill="white"/>
</clipPath>
</defs>
</svg>
