<svg width="18" height="18" viewBox="0 0 18 18" fill="none" xmlns="http://www.w3.org/2000/svg">
<g opacity="0.9">
<path d="M13.5537 13.4182C12.981 12.8486 12.4046 12.288 11.8319 11.7139C11.7411 11.6052 11.6141 11.5089 11.4589 11.4311C11.3037 11.3534 11.1236 11.2957 10.9298 11.2619C10.6528 11.228 10.3758 11.1895 10.0914 11.1398C9.99005 11.1143 9.90483 11.07 9.84807 11.0132C8.91094 10.0447 8.16592 9.01296 7.6284 7.93924C7.61697 7.91628 7.61372 7.89213 7.61888 7.86836C7.62405 7.84459 7.6375 7.82176 7.65835 7.80136C7.83427 7.69513 8.03266 7.59793 8.21233 7.503C8.392 7.40807 8.48557 7.18882 8.35456 6.90402C8.07757 6.30052 7.81182 5.69703 7.53483 5.09579C7.48123 4.92495 7.35407 4.76566 7.16614 4.63392C6.97821 4.50219 6.73615 4.40267 6.4643 4.34537C5.86067 4.24403 5.21986 4.25825 4.63017 4.38605C4.40184 4.43804 4.28206 4.56236 4.27832 4.77708C4.37564 5.19072 4.43927 5.59983 4.57028 6.02025C5.49358 9.05206 7.71449 11.8398 11.233 14.3833C11.3249 14.4677 11.4483 14.5378 11.5933 14.5881C11.7383 14.6383 11.9008 14.6673 12.0677 14.6727C12.6502 14.6643 13.2099 14.5341 13.6511 14.3042C13.9842 14.1234 13.9505 13.8024 13.5537 13.4182Z" fill="#F9FF00"/>
<path d="M13.5091 10.3371C13.4308 9.68691 13.134 9.0532 12.6369 8.47457C12.2658 8.02254 11.7935 7.60347 11.2333 7.22915C11.0873 7.12969 10.9638 7.09805 10.8889 7.17264C10.814 7.24723 10.8889 7.35346 11.0311 7.45065L11.1771 7.55237C12.2117 8.27352 12.8637 9.16571 13.0487 10.1133C13.0468 10.1824 13.0581 10.2514 13.0824 10.319C13.1294 10.3967 13.2049 10.467 13.3032 10.5247C13.3818 10.5586 13.4716 10.5247 13.5353 10.5247C13.5128 10.432 13.5166 10.3845 13.5091 10.3371Z" fill="#F9FF00"/>
<path d="M10.1171 8.4813C10.5872 8.79349 10.8728 9.19089 10.9294 9.61144C10.9541 9.67538 10.9931 9.73698 11.0454 9.79453C11.2738 9.90754 11.3861 9.86912 11.3861 9.72672C11.306 9.1875 10.9367 8.67879 10.3342 8.27787C10.192 8.18972 10.076 8.16259 10.0086 8.23718C9.98436 8.27977 9.98175 8.32576 10.0011 8.36926C10.0204 8.41275 10.0608 8.45177 10.1171 8.4813Z" fill="#F9FF00"/>
</g>
<circle cx="9" cy="9" r="8.29883" stroke="#E8ED08" stroke-width="1.40234"/>
</svg>
