<svg  viewBox="0 0 66 66" fill="none" xmlns="http://www.w3.org/2000/svg">
<path opacity="0.4" d="M32.5089 65.0177C50.4629 65.0177 65.0178 50.4632 65.0178 32.5089C65.0178 14.5547 50.4629 0 32.5089 0C14.5547 0 0 14.5547 0 32.5089C0 50.4632 14.5547 65.0177 32.5089 65.0177Z" fill="#292D32"/>
<path d="M32.5092 16.0267C25.7799 16.0267 20.3184 21.4882 20.3184 28.2174C20.3184 34.8167 25.4873 40.1807 32.3466 40.3757H32.6392H32.8668H32.9318C39.4986 40.1482 44.6675 34.8167 44.7 28.2174C44.7 21.4882 39.2385 16.0267 32.5092 16.0267Z" fill="#292D32"/>
<path d="M54.5518 56.4029C48.7652 61.7344 41.0281 65.0178 32.5108 65.0178C23.9934 65.0178 16.2563 61.7344 10.4697 56.4029C11.2499 53.4446 13.363 50.7464 16.4514 48.6658C25.3263 42.7492 39.7602 42.7492 48.5701 48.6658C51.691 50.7464 53.7716 53.4446 54.5518 56.4029Z" fill="#292D32"/>
</svg>
