<svg width="18" height="18" viewBox="0 0 18 18" fill="none" xmlns="http://www.w3.org/2000/svg">
<path d="M7.28235 8.57134L2.85059 5.3763L5.27555 12.0634L7.28235 8.57134Z" fill="url(#paint0_linear_1603_2799)"/>
<path d="M10.2525 8.37542L14.7924 11.8877L12.3709 5.21008L10.2525 8.37542Z" fill="url(#paint1_linear_1603_2799)"/>
<path d="M3.16895 4.88818L7.72059 8.16908C7.7361 8.17262 7.75092 8.17869 7.76468 8.18713C7.77161 8.19808 7.77631 8.21104 7.77846 8.22514L9.13247 9.20128L9.68131 8.3806C9.68714 8.36032 9.69493 8.3407 9.70449 8.32217C9.72487 8.28636 9.75108 8.25567 9.78116 8.23242L11.9974 4.93203L3.16895 4.88818Z" fill="url(#paint2_linear_1603_2799)"/>
<path d="M9.93115 8.85493L9.33755 9.74041C9.31462 9.77438 9.28628 9.80244 9.25467 9.82247C9.21683 9.84801 9.17541 9.86188 9.13445 9.86272C9.09349 9.86357 9.05438 9.85138 9.02092 9.82731L7.66691 8.85117L5.65529 12.3582L14.5042 12.3925L9.93115 8.85493Z" fill="url(#paint3_linear_1603_2799)"/>
<g opacity="0.9">
<path d="M7.34305 8.38017L2.85156 5.63635L5.04856 12.0638L7.34305 8.38017Z" fill="#E6E90C"/>
<path d="M10.2047 8.57943L14.7934 11.6289L12.5995 5.21042L10.2047 8.57943Z" fill="#E6E90C"/>
<path d="M3.16895 5.38555L7.60184 8.09772C7.61734 8.09963 7.632 8.10403 7.64547 8.11081C7.65192 8.12065 7.65601 8.13265 7.65747 8.14598L8.97615 8.95292L9.57236 8.11218C9.57928 8.09215 9.58815 8.07256 9.59875 8.05385C9.62116 8.01751 9.6492 7.98553 9.68078 7.96031L12.0876 4.57837L3.16895 5.38555Z" fill="#E6E90C"/>
<path d="M10.0675 8.94689L9.42337 9.85309C9.39851 9.88787 9.36847 9.91751 9.33554 9.93975C9.29604 9.96788 9.25352 9.98516 9.21213 9.9899C9.17073 9.99465 9.13187 9.98672 9.09931 9.96685L7.78178 9.16086L5.57314 12.7173L14.5052 11.8999L10.0675 8.94689Z" fill="#E6E90C"/>
</g>
<circle cx="9" cy="9" r="8.47065" stroke="#E8ED08" stroke-width="1.05869"/>
<defs>
<linearGradient id="paint0_linear_1603_2799" x1="4.17161" y1="4.50615" x2="7.97731" y2="10.2838" gradientUnits="userSpaceOnUse">
<stop stop-color="#8E288E"/>
<stop offset="0.411458" stop-color="#402775"/>
</linearGradient>
<linearGradient id="paint1_linear_1603_2799" x1="11.0526" y1="6.07842" x2="14.8529" y2="11.8478" gradientUnits="userSpaceOnUse">
<stop stop-color="#8E288E"/>
<stop offset="0.411458" stop-color="#402775"/>
</linearGradient>
<linearGradient id="paint2_linear_1603_2799" x1="6.72566" y1="2.54539" x2="10.5115" y2="8.2929" gradientUnits="userSpaceOnUse">
<stop stop-color="#8E288E"/>
<stop offset="0.411458" stop-color="#402775"/>
</linearGradient>
<linearGradient id="paint3_linear_1603_2799" x1="8.58295" y1="8.24778" x2="12.2787" y2="13.8584" gradientUnits="userSpaceOnUse">
<stop stop-color="#8E288E"/>
<stop offset="0.411458" stop-color="#402775"/>
</linearGradient>
</defs>
</svg>
