<svg width="225" height="37" viewBox="0 0 225 37" fill="none" xmlns="http://www.w3.org/2000/svg">
<path d="M28.233 23V12.8182H34.3778V13.9119H29.4659V17.3523H34.0597V18.446H29.4659V21.9062H34.4574V23H28.233ZM36.4411 23V15.3636H37.5746V16.5568H37.674C37.8331 16.1491 38.09 15.8326 38.4446 15.6072C38.7992 15.3786 39.2251 15.2642 39.7223 15.2642C40.2261 15.2642 40.6454 15.3786 40.9801 15.6072C41.3182 15.8326 41.5817 16.1491 41.7706 16.5568H41.8501C42.0457 16.1624 42.339 15.8492 42.7301 15.6172C43.1212 15.3819 43.5902 15.2642 44.1371 15.2642C44.8198 15.2642 45.3783 15.478 45.8125 15.9055C46.2467 16.3298 46.4638 16.991 46.4638 17.8892V23H45.2905V17.8892C45.2905 17.3258 45.1364 16.9231 44.8281 16.6811C44.5199 16.4392 44.157 16.3182 43.7393 16.3182C43.2024 16.3182 42.7865 16.4806 42.4915 16.8054C42.1965 17.1269 42.049 17.5346 42.049 18.0284V23H40.8558V17.7699C40.8558 17.3357 40.715 16.986 40.4332 16.7209C40.1515 16.4524 39.7886 16.3182 39.3445 16.3182C39.0395 16.3182 38.7545 16.3994 38.4893 16.5618C38.2275 16.7242 38.0154 16.9496 37.853 17.2379C37.6939 17.523 37.6143 17.8527 37.6143 18.2273V23H36.4411ZM50.8562 23.179C50.3723 23.179 49.9331 23.0878 49.5387 22.9055C49.1443 22.7199 48.8311 22.4531 48.5991 22.1051C48.3671 21.7538 48.2511 21.3295 48.2511 20.8324C48.2511 20.3949 48.3372 20.0402 48.5096 19.7685C48.6819 19.4934 48.9123 19.2779 49.2006 19.1222C49.489 18.9664 49.8072 18.8504 50.1552 18.7741C50.5065 18.6946 50.8595 18.6316 51.2141 18.5852C51.6781 18.5256 52.0543 18.4808 52.3427 18.451C52.6344 18.4179 52.8465 18.3632 52.979 18.2869C53.1149 18.2107 53.1829 18.0781 53.1829 17.8892V17.8494C53.1829 17.3589 53.0487 16.9777 52.7802 16.706C52.515 16.4342 52.1123 16.2983 51.5721 16.2983C51.012 16.2983 50.5728 16.4209 50.2546 16.6662C49.9364 16.9115 49.7127 17.1733 49.5835 17.4517L48.4698 17.054C48.6687 16.59 48.9338 16.2287 49.2653 15.9702C49.6 15.7083 49.9646 15.526 50.359 15.4233C50.7567 15.3172 51.1478 15.2642 51.5323 15.2642C51.7776 15.2642 52.0593 15.294 52.3775 15.3537C52.699 15.41 53.0089 15.5277 53.3072 15.7067C53.6088 15.8857 53.859 16.1558 54.0579 16.517C54.2567 16.8783 54.3562 17.3622 54.3562 17.9688V23H53.1829V21.9659H53.1232C53.0437 22.1316 52.9111 22.3089 52.7255 22.4979C52.5399 22.6868 52.293 22.8475 51.9847 22.9801C51.6765 23.1127 51.3003 23.179 50.8562 23.179ZM51.0352 22.125C51.4992 22.125 51.8903 22.0339 52.2085 21.8516C52.5299 21.6693 52.7719 21.4339 52.9343 21.1456C53.1 20.8572 53.1829 20.554 53.1829 20.2358V19.1619C53.1332 19.2216 53.0238 19.2763 52.8548 19.326C52.689 19.3724 52.4968 19.4138 52.2781 19.4503C52.0626 19.4834 51.8522 19.5133 51.6467 19.5398C51.4445 19.563 51.2804 19.5829 51.1545 19.5994C50.8496 19.6392 50.5645 19.7038 50.2994 19.7933C50.0375 19.8795 49.8254 20.0104 49.663 20.1861C49.5039 20.3584 49.4244 20.5937 49.4244 20.892C49.4244 21.2997 49.5752 21.608 49.8768 21.8168C50.1817 22.0223 50.5678 22.125 51.0352 22.125ZM56.4977 23V15.3636H57.671V23H56.4977ZM57.0943 14.0909C56.8656 14.0909 56.6684 14.013 56.5027 13.8572C56.3403 13.7015 56.2591 13.5142 56.2591 13.2955C56.2591 13.0767 56.3403 12.8894 56.5027 12.7337C56.6684 12.5779 56.8656 12.5 57.0943 12.5C57.323 12.5 57.5185 12.5779 57.6809 12.7337C57.8467 12.8894 57.9295 13.0767 57.9295 13.2955C57.9295 13.5142 57.8467 13.7015 57.6809 13.8572C57.5185 14.013 57.323 14.0909 57.0943 14.0909ZM60.9933 12.8182V23H59.82V12.8182H60.9933ZM63.9973 23.0795C63.7521 23.0795 63.5416 22.9917 63.3659 22.8161C63.1903 22.6404 63.1025 22.4299 63.1025 22.1847C63.1025 21.9394 63.1903 21.7289 63.3659 21.5533C63.5416 21.3776 63.7521 21.2898 63.9973 21.2898C64.2426 21.2898 64.4531 21.3776 64.6287 21.5533C64.8044 21.7289 64.8922 21.9394 64.8922 22.1847C64.8922 22.3471 64.8508 22.4962 64.7679 22.6321C64.6884 22.768 64.5807 22.8774 64.4448 22.9602C64.3122 23.0398 64.1631 23.0795 63.9973 23.0795ZM63.9973 17.4119C63.7521 17.4119 63.5416 17.3241 63.3659 17.1484C63.1903 16.9728 63.1025 16.7623 63.1025 16.517C63.1025 16.2718 63.1903 16.0613 63.3659 15.8857C63.5416 15.71 63.7521 15.6222 63.9973 15.6222C64.2426 15.6222 64.4531 15.71 64.6287 15.8857C64.8044 16.0613 64.8922 16.2718 64.8922 16.517C64.8922 16.6795 64.8508 16.8286 64.7679 16.9645C64.6884 17.1004 64.5807 17.2098 64.4448 17.2926C64.3122 17.3722 64.1631 17.4119 63.9973 17.4119ZM70.9352 23V15.3636H72.1085V23H70.9352ZM71.5318 14.0909C71.3031 14.0909 71.1059 14.013 70.9402 13.8572C70.7778 13.7015 70.6966 13.5142 70.6966 13.2955C70.6966 13.0767 70.7778 12.8894 70.9402 12.7337C71.1059 12.5779 71.3031 12.5 71.5318 12.5C71.7605 12.5 71.956 12.5779 72.1184 12.7337C72.2842 12.8894 72.367 13.0767 72.367 13.2955C72.367 13.5142 72.2842 13.7015 72.1184 13.8572C71.956 14.013 71.7605 14.0909 71.5318 14.0909ZM75.4308 18.4062V23H74.2575V15.3636H75.391V16.5568H75.4904C75.6694 16.169 75.9412 15.8575 76.3058 15.6222C76.6703 15.3835 77.141 15.2642 77.7177 15.2642C78.2347 15.2642 78.6871 15.3703 79.0749 15.5824C79.4627 15.7912 79.7643 16.1094 79.9798 16.5369C80.1952 16.9612 80.3029 17.4981 80.3029 18.1477V23H79.1296V18.2273C79.1296 17.6274 78.9738 17.16 78.6623 16.8253C78.3507 16.4872 77.9232 16.3182 77.3796 16.3182C77.0051 16.3182 76.6703 16.3994 76.3754 16.5618C76.0837 16.7242 75.8533 16.9612 75.6843 17.2727C75.5153 17.5843 75.4308 17.9621 75.4308 18.4062ZM85.8475 15.3636V16.358H81.731V15.3636H85.8475ZM82.964 23V14.3097C82.964 13.8722 83.0667 13.5076 83.2722 13.2159C83.4777 12.9242 83.7445 12.7055 84.0726 12.5597C84.4007 12.4138 84.7471 12.3409 85.1117 12.3409C85.4 12.3409 85.6354 12.3641 85.8176 12.4105C85.9999 12.4569 86.1358 12.5 86.2253 12.5398L85.8873 13.554C85.8276 13.5341 85.7447 13.5092 85.6387 13.4794C85.5359 13.4496 85.4 13.4347 85.231 13.4347C84.8432 13.4347 84.5632 13.5324 84.3908 13.728C84.2218 13.9235 84.1373 14.2102 84.1373 14.5881V23H82.964ZM90.2797 23.1591C89.5903 23.1591 88.9854 22.995 88.465 22.6669C87.948 22.3388 87.5436 21.8797 87.252 21.2898C86.9636 20.6998 86.8194 20.0104 86.8194 19.2216C86.8194 18.4261 86.9636 17.7318 87.252 17.1385C87.5436 16.5452 87.948 16.0845 88.465 15.7564C88.9854 15.4283 89.5903 15.2642 90.2797 15.2642C90.969 15.2642 91.5723 15.4283 92.0893 15.7564C92.6097 16.0845 93.014 16.5452 93.3024 17.1385C93.594 17.7318 93.7399 18.4261 93.7399 19.2216C93.7399 20.0104 93.594 20.6998 93.3024 21.2898C93.014 21.8797 92.6097 22.3388 92.0893 22.6669C91.5723 22.995 90.969 23.1591 90.2797 23.1591ZM90.2797 22.1051C90.8033 22.1051 91.2342 21.9709 91.5723 21.7024C91.9103 21.4339 92.1606 21.081 92.323 20.6435C92.4854 20.206 92.5666 19.732 92.5666 19.2216C92.5666 18.7112 92.4854 18.2356 92.323 17.7947C92.1606 17.3539 91.9103 16.9976 91.5723 16.7259C91.2342 16.4541 90.8033 16.3182 90.2797 16.3182C89.756 16.3182 89.3251 16.4541 88.987 16.7259C88.649 16.9976 88.3987 17.3539 88.2363 17.7947C88.0739 18.2356 87.9927 18.7112 87.9927 19.2216C87.9927 19.732 88.0739 20.206 88.2363 20.6435C88.3987 21.081 88.649 21.4339 88.987 21.7024C89.3251 21.9709 89.756 22.1051 90.2797 22.1051ZM101.397 25.6847C100.383 25.6847 99.4866 25.5455 98.7077 25.267C97.9289 24.992 97.2743 24.5859 96.744 24.049C96.2137 23.5121 95.8126 22.8542 95.5408 22.0753C95.2691 21.2964 95.1332 20.4048 95.1332 19.4006C95.1332 18.4295 95.2707 17.5611 95.5458 16.7955C95.8242 16.0298 96.2269 15.3802 96.7539 14.8466C97.2842 14.3097 97.9272 13.9003 98.6829 13.6186C99.4419 13.3369 100.3 13.196 101.258 13.196C102.19 13.196 103.005 13.3485 103.704 13.6534C104.407 13.955 104.993 14.3643 105.464 14.8814C105.938 15.3951 106.293 15.9735 106.528 16.6165C106.767 17.2595 106.886 17.9223 106.886 18.6051C106.886 19.0857 106.863 19.5729 106.816 20.0668C106.77 20.5606 106.672 21.0147 106.523 21.429C106.374 21.84 106.144 22.1714 105.832 22.4233C105.524 22.6752 105.106 22.8011 104.579 22.8011C104.347 22.8011 104.092 22.7647 103.814 22.6918C103.535 22.6188 103.288 22.4979 103.073 22.3288C102.857 22.1598 102.73 21.9328 102.69 21.6477H102.63C102.551 21.84 102.428 22.0223 102.262 22.1946C102.1 22.367 101.886 22.5045 101.621 22.6072C101.359 22.71 101.039 22.7547 100.662 22.7415C100.231 22.7249 99.8512 22.6288 99.5231 22.4531C99.195 22.2741 98.9199 22.0322 98.6978 21.7273C98.479 21.419 98.3133 21.0627 98.2006 20.6584C98.0913 20.2507 98.0366 19.8116 98.0366 19.3409C98.0366 18.8935 98.1029 18.4841 98.2354 18.1129C98.368 17.7417 98.552 17.4169 98.7873 17.1385C99.0259 16.8601 99.3043 16.638 99.6225 16.4723C99.944 16.3033 100.29 16.1989 100.662 16.1591C100.993 16.1259 101.295 16.1409 101.566 16.2038C101.838 16.2635 102.062 16.3546 102.238 16.4773C102.413 16.5966 102.524 16.7292 102.571 16.875H102.63V16.3182H103.684V20.8125C103.684 21.0909 103.762 21.3362 103.918 21.5483C104.074 21.7604 104.301 21.8665 104.599 21.8665C104.937 21.8665 105.196 21.7505 105.375 21.5185C105.557 21.2865 105.681 20.9285 105.748 20.4446C105.817 19.9607 105.852 19.3409 105.852 18.5852C105.852 18.1411 105.791 17.7036 105.668 17.2727C105.549 16.8385 105.366 16.4325 105.121 16.0547C104.879 15.6768 104.573 15.3437 104.201 15.0554C103.83 14.767 103.394 14.5417 102.894 14.3793C102.397 14.2135 101.832 14.1307 101.199 14.1307C100.42 14.1307 99.7219 14.2517 99.1055 14.4936C98.4923 14.7322 97.9703 15.0819 97.5394 15.5426C97.1119 16 96.7854 16.5568 96.56 17.2131C96.3379 17.866 96.2269 18.6084 96.2269 19.4403C96.2269 20.2855 96.3379 21.0362 96.56 21.6925C96.7854 22.3487 97.1168 22.9022 97.5543 23.353C97.9951 23.8037 98.5404 24.1451 99.19 24.3771C99.8396 24.6125 100.589 24.7301 101.437 24.7301C101.802 24.7301 102.161 24.6953 102.516 24.6257C102.871 24.5561 103.184 24.4799 103.456 24.397C103.727 24.3142 103.923 24.2528 104.042 24.2131L104.321 25.1278C104.115 25.214 103.847 25.3002 103.515 25.3864C103.187 25.4725 102.836 25.5438 102.461 25.6001C102.09 25.6565 101.735 25.6847 101.397 25.6847ZM100.821 21.7273C101.265 21.7273 101.624 21.6378 101.9 21.4588C102.175 21.2798 102.375 21.0097 102.501 20.6484C102.627 20.2872 102.69 19.8314 102.69 19.2812C102.69 18.7244 102.62 18.2902 102.481 17.9787C102.342 17.6671 102.136 17.4484 101.865 17.3224C101.593 17.1965 101.258 17.1335 100.86 17.1335C100.483 17.1335 100.159 17.233 99.891 17.4318C99.6258 17.6274 99.422 17.8892 99.2795 18.2173C99.1403 18.5421 99.0707 18.8968 99.0707 19.2812C99.0707 19.7055 99.127 20.1049 99.2397 20.4794C99.3524 20.8506 99.5363 21.1522 99.7915 21.3842C100.047 21.6129 100.39 21.7273 100.821 21.7273ZM108.642 23V15.3636H109.776V16.517H109.855C109.994 16.1392 110.246 15.8326 110.611 15.5973C110.976 15.362 111.387 15.2443 111.844 15.2443C111.93 15.2443 112.038 15.246 112.167 15.2493C112.296 15.2526 112.394 15.2576 112.46 15.2642V16.4574C112.421 16.4474 112.329 16.4325 112.187 16.4126C112.048 16.3894 111.9 16.3778 111.744 16.3778C111.373 16.3778 111.042 16.4557 110.75 16.6115C110.462 16.764 110.233 16.9761 110.064 17.2479C109.898 17.5163 109.816 17.8229 109.816 18.1676V23H108.642ZM116.098 23.179C115.614 23.179 115.175 23.0878 114.781 22.9055C114.386 22.7199 114.073 22.4531 113.841 22.1051C113.609 21.7538 113.493 21.3295 113.493 20.8324C113.493 20.3949 113.579 20.0402 113.752 19.7685C113.924 19.4934 114.154 19.2779 114.443 19.1222C114.731 18.9664 115.049 18.8504 115.397 18.7741C115.749 18.6946 116.102 18.6316 116.456 18.5852C116.92 18.5256 117.297 18.4808 117.585 18.451C117.877 18.4179 118.089 18.3632 118.221 18.2869C118.357 18.2107 118.425 18.0781 118.425 17.8892V17.8494C118.425 17.3589 118.291 16.9777 118.022 16.706C117.757 16.4342 117.355 16.2983 116.814 16.2983C116.254 16.2983 115.815 16.4209 115.497 16.6662C115.179 16.9115 114.955 17.1733 114.826 17.4517L113.712 17.054C113.911 16.59 114.176 16.2287 114.507 15.9702C114.842 15.7083 115.207 15.526 115.601 15.4233C115.999 15.3172 116.39 15.2642 116.775 15.2642C117.02 15.2642 117.301 15.294 117.62 15.3537C117.941 15.41 118.251 15.5277 118.549 15.7067C118.851 15.8857 119.101 16.1558 119.3 16.517C119.499 16.8783 119.598 17.3622 119.598 17.9688V23H118.425V21.9659H118.365C118.286 22.1316 118.153 22.3089 117.968 22.4979C117.782 22.6868 117.535 22.8475 117.227 22.9801C116.919 23.1127 116.542 23.179 116.098 23.179ZM116.277 22.125C116.741 22.125 117.132 22.0339 117.451 21.8516C117.772 21.6693 118.014 21.4339 118.176 21.1456C118.342 20.8572 118.425 20.554 118.425 20.2358V19.1619C118.375 19.2216 118.266 19.2763 118.097 19.326C117.931 19.3724 117.739 19.4138 117.52 19.4503C117.305 19.4834 117.094 19.5133 116.889 19.5398C116.687 19.563 116.523 19.5829 116.397 19.5994C116.092 19.6392 115.807 19.7038 115.542 19.7933C115.28 19.8795 115.068 20.0104 114.905 20.1861C114.746 20.3584 114.667 20.5937 114.667 20.892C114.667 21.2997 114.817 21.608 115.119 21.8168C115.424 22.0223 115.81 22.125 116.277 22.125ZM121.74 23V15.3636H122.913V23H121.74ZM122.336 14.0909C122.108 14.0909 121.911 14.013 121.745 13.8572C121.582 13.7015 121.501 13.5142 121.501 13.2955C121.501 13.0767 121.582 12.8894 121.745 12.7337C121.911 12.5779 122.108 12.5 122.336 12.5C122.565 12.5 122.761 12.5779 122.923 12.7337C123.089 12.8894 123.172 13.0767 123.172 13.2955C123.172 13.5142 123.089 13.7015 122.923 13.8572C122.761 14.013 122.565 14.0909 122.336 14.0909ZM126.235 12.8182V23H125.062V12.8182H126.235ZM130.115 23L127.788 15.3636H129.021L130.671 21.2102H130.751L132.382 15.3636H133.634L135.245 21.1903H135.325L136.975 15.3636H138.208L135.882 23H134.728L133.058 17.1335H132.938L131.268 23H130.115ZM142.602 23.1591C141.913 23.1591 141.308 22.995 140.787 22.6669C140.27 22.3388 139.866 21.8797 139.574 21.2898C139.286 20.6998 139.142 20.0104 139.142 19.2216C139.142 18.4261 139.286 17.7318 139.574 17.1385C139.866 16.5452 140.27 16.0845 140.787 15.7564C141.308 15.4283 141.913 15.2642 142.602 15.2642C143.291 15.2642 143.895 15.4283 144.412 15.7564C144.932 16.0845 145.336 16.5452 145.625 17.1385C145.916 17.7318 146.062 18.4261 146.062 19.2216C146.062 20.0104 145.916 20.6998 145.625 21.2898C145.336 21.8797 144.932 22.3388 144.412 22.6669C143.895 22.995 143.291 23.1591 142.602 23.1591ZM142.602 22.1051C143.126 22.1051 143.556 21.9709 143.895 21.7024C144.233 21.4339 144.483 21.081 144.645 20.6435C144.808 20.206 144.889 19.732 144.889 19.2216C144.889 18.7112 144.808 18.2356 144.645 17.7947C144.483 17.3539 144.233 16.9976 143.895 16.7259C143.556 16.4541 143.126 16.3182 142.602 16.3182C142.078 16.3182 141.647 16.4541 141.309 16.7259C140.971 16.9976 140.721 17.3539 140.559 17.7947C140.396 18.2356 140.315 18.7112 140.315 19.2216C140.315 19.732 140.396 20.206 140.559 20.6435C140.721 21.081 140.971 21.4339 141.309 21.7024C141.647 21.9709 142.078 22.1051 142.602 22.1051ZM147.853 23V15.3636H148.987V16.517H149.066C149.205 16.1392 149.457 15.8326 149.822 15.5973C150.186 15.362 150.597 15.2443 151.055 15.2443C151.141 15.2443 151.249 15.246 151.378 15.2493C151.507 15.2526 151.605 15.2576 151.671 15.2642V16.4574C151.632 16.4474 151.54 16.4325 151.398 16.4126C151.259 16.3894 151.111 16.3778 150.955 16.3778C150.584 16.3778 150.253 16.4557 149.961 16.6115C149.673 16.764 149.444 16.9761 149.275 17.2479C149.109 17.5163 149.026 17.8229 149.026 18.1676V23H147.853ZM154.235 12.8182V23H153.062V12.8182H154.235ZM159.268 23.1591C158.632 23.1591 158.07 22.9983 157.583 22.6768C157.095 22.352 156.714 21.8946 156.439 21.3047C156.164 20.7114 156.026 20.0104 156.026 19.2017C156.026 18.3996 156.164 17.7036 156.439 17.1136C156.714 16.5237 157.097 16.0679 157.588 15.7464C158.078 15.425 158.645 15.2642 159.288 15.2642C159.785 15.2642 160.178 15.3471 160.466 15.5128C160.758 15.6752 160.98 15.8608 161.132 16.0696C161.288 16.2751 161.409 16.4441 161.495 16.5767H161.595V12.8182H162.768V23H161.634V21.8267H161.495C161.409 21.9659 161.286 22.1416 161.127 22.3537C160.968 22.5625 160.741 22.7498 160.446 22.9155C160.151 23.0779 159.758 23.1591 159.268 23.1591ZM159.427 22.1051C159.898 22.1051 160.295 21.9825 160.62 21.7372C160.945 21.4886 161.192 21.1456 161.361 20.7081C161.53 20.2673 161.615 19.7585 161.615 19.1818C161.615 18.6117 161.532 18.1129 161.366 17.6854C161.2 17.2545 160.955 16.9197 160.63 16.6811C160.305 16.4392 159.904 16.3182 159.427 16.3182C158.93 16.3182 158.516 16.4458 158.184 16.701C157.856 16.9529 157.609 17.2959 157.443 17.7301C157.281 18.161 157.2 18.6449 157.2 19.1818C157.2 19.7254 157.283 20.2192 157.448 20.6634C157.617 21.1042 157.866 21.4555 158.194 21.7173C158.526 21.9759 158.936 22.1051 159.427 22.1051ZM165.935 23.0795C165.69 23.0795 165.479 22.9917 165.303 22.8161C165.128 22.6404 165.04 22.4299 165.04 22.1847C165.04 21.9394 165.128 21.7289 165.303 21.5533C165.479 21.3776 165.69 21.2898 165.935 21.2898C166.18 21.2898 166.391 21.3776 166.566 21.5533C166.742 21.7289 166.83 21.9394 166.83 22.1847C166.83 22.3471 166.788 22.4962 166.705 22.6321C166.626 22.768 166.518 22.8774 166.382 22.9602C166.25 23.0398 166.101 23.0795 165.935 23.0795ZM172.037 23.1591C171.322 23.1591 170.705 22.9901 170.188 22.652C169.671 22.3139 169.273 21.8482 168.995 21.255C168.716 20.6617 168.577 19.9839 168.577 19.2216C168.577 18.446 168.72 17.7616 169.005 17.1683C169.293 16.5717 169.694 16.1061 170.208 15.7713C170.725 15.4332 171.328 15.2642 172.018 15.2642C172.555 15.2642 173.038 15.3636 173.469 15.5625C173.9 15.7614 174.253 16.0398 174.528 16.3977C174.803 16.7557 174.974 17.1733 175.04 17.6506H173.867C173.778 17.3026 173.579 16.9943 173.27 16.7259C172.965 16.4541 172.555 16.3182 172.037 16.3182C171.58 16.3182 171.179 16.4375 170.834 16.6761C170.493 16.9115 170.226 17.2446 170.034 17.6754C169.845 18.103 169.751 18.6051 169.751 19.1818C169.751 19.7718 169.843 20.2855 170.029 20.723C170.218 21.1605 170.483 21.5002 170.824 21.7422C171.169 21.9841 171.573 22.1051 172.037 22.1051C172.342 22.1051 172.619 22.0521 172.868 21.946C173.116 21.84 173.327 21.6875 173.499 21.4886C173.671 21.2898 173.794 21.0511 173.867 20.7727H175.04C174.974 21.2235 174.81 21.6295 174.548 21.9908C174.29 22.3487 173.947 22.6338 173.519 22.8459C173.095 23.0547 172.601 23.1591 172.037 23.1591ZM179.858 23.1591C179.168 23.1591 178.564 22.995 178.043 22.6669C177.526 22.3388 177.122 21.8797 176.83 21.2898C176.542 20.6998 176.398 20.0104 176.398 19.2216C176.398 18.4261 176.542 17.7318 176.83 17.1385C177.122 16.5452 177.526 16.0845 178.043 15.7564C178.564 15.4283 179.168 15.2642 179.858 15.2642C180.547 15.2642 181.15 15.4283 181.667 15.7564C182.188 16.0845 182.592 16.5452 182.881 17.1385C183.172 17.7318 183.318 18.4261 183.318 19.2216C183.318 20.0104 183.172 20.6998 182.881 21.2898C182.592 21.8797 182.188 22.3388 181.667 22.6669C181.15 22.995 180.547 23.1591 179.858 23.1591ZM179.858 22.1051C180.381 22.1051 180.812 21.9709 181.15 21.7024C181.488 21.4339 181.739 21.081 181.901 20.6435C182.064 20.206 182.145 19.732 182.145 19.2216C182.145 18.7112 182.064 18.2356 181.901 17.7947C181.739 17.3539 181.488 16.9976 181.15 16.7259C180.812 16.4541 180.381 16.3182 179.858 16.3182C179.334 16.3182 178.903 16.4541 178.565 16.7259C178.227 16.9976 177.977 17.3539 177.814 17.7947C177.652 18.2356 177.571 18.7112 177.571 19.2216C177.571 19.732 177.652 20.206 177.814 20.6435C177.977 21.081 178.227 21.4339 178.565 21.7024C178.903 21.9709 179.334 22.1051 179.858 22.1051ZM185.964 23.0795C185.719 23.0795 185.508 22.9917 185.333 22.8161C185.157 22.6404 185.069 22.4299 185.069 22.1847C185.069 21.9394 185.157 21.7289 185.333 21.5533C185.508 21.3776 185.719 21.2898 185.964 21.2898C186.209 21.2898 186.42 21.3776 186.596 21.5533C186.771 21.7289 186.859 21.9394 186.859 22.1847C186.859 22.3471 186.818 22.4962 186.735 22.6321C186.655 22.768 186.547 22.8774 186.412 22.9602C186.279 23.0398 186.13 23.0795 185.964 23.0795ZM188.964 23V15.3636H190.138V23H188.964ZM189.561 14.0909C189.332 14.0909 189.135 14.013 188.969 13.8572C188.807 13.7015 188.726 13.5142 188.726 13.2955C188.726 13.0767 188.807 12.8894 188.969 12.7337C189.135 12.5779 189.332 12.5 189.561 12.5C189.79 12.5 189.985 12.5779 190.148 12.7337C190.313 12.8894 190.396 13.0767 190.396 13.2955C190.396 13.5142 190.313 13.7015 190.148 13.8572C189.985 14.013 189.79 14.0909 189.561 14.0909ZM193.46 18.4062V23H192.287V15.3636H193.42V16.5568H193.52C193.699 16.169 193.97 15.8575 194.335 15.6222C194.7 15.3835 195.17 15.2642 195.747 15.2642C196.264 15.2642 196.716 15.3703 197.104 15.5824C197.492 15.7912 197.794 16.1094 198.009 16.5369C198.224 16.9612 198.332 17.4981 198.332 18.1477V23H197.159V18.2273C197.159 17.6274 197.003 17.16 196.692 16.8253C196.38 16.4872 195.952 16.3182 195.409 16.3182C195.034 16.3182 194.7 16.3994 194.405 16.5618C194.113 16.7242 193.883 16.9612 193.714 17.2727C193.545 17.5843 193.46 17.9621 193.46 18.4062Z" fill="white"/>
<path d="M7.28235 17.5713L2.85059 14.3763L5.27555 21.0634L7.28235 17.5713Z" fill="url(#paint0_linear_1546_2797)"/>
<path d="M10.2525 17.3754L14.7924 20.8877L12.3709 14.2101L10.2525 17.3754Z" fill="url(#paint1_linear_1546_2797)"/>
<path d="M3.16895 13.8882L7.72059 17.1691C7.7361 17.1726 7.75092 17.1787 7.76468 17.1871C7.77161 17.1981 7.77631 17.211 7.77846 17.2251L9.13247 18.2013L9.68131 17.3806C9.68714 17.3603 9.69493 17.3407 9.70449 17.3222C9.72487 17.2864 9.75108 17.2557 9.78116 17.2324L11.9974 13.932L3.16895 13.8882Z" fill="url(#paint2_linear_1546_2797)"/>
<path d="M9.93115 17.8549L9.33755 18.7404C9.31462 18.7744 9.28628 18.8024 9.25467 18.8225C9.21683 18.848 9.17541 18.8619 9.13445 18.8627C9.09349 18.8636 9.05438 18.8514 9.02092 18.8273L7.66691 17.8512L5.65529 21.3582L14.5042 21.3925L9.93115 17.8549Z" fill="url(#paint3_linear_1546_2797)"/>
<g opacity="0.9">
<path d="M7.34305 17.3802L2.85156 14.6364L5.04856 21.0638L7.34305 17.3802Z" fill="#E6E90C"/>
<path d="M10.2047 17.5794L14.7934 20.6289L12.5995 14.2104L10.2047 17.5794Z" fill="#E6E90C"/>
<path d="M3.16895 14.3856L7.60184 17.0977C7.61734 17.0996 7.632 17.104 7.64547 17.1108C7.65192 17.1207 7.65601 17.1327 7.65747 17.146L8.97615 17.9529L9.57236 17.1122C9.57928 17.0922 9.58815 17.0726 9.59875 17.0539C9.62116 17.0175 9.6492 16.9855 9.68078 16.9603L12.0876 13.5784L3.16895 14.3856Z" fill="#E6E90C"/>
<path d="M10.0675 17.9469L9.42337 18.8531C9.39851 18.8879 9.36847 18.9175 9.33554 18.9397C9.29604 18.9679 9.25352 18.9852 9.21213 18.9899C9.17073 18.9947 9.13187 18.9867 9.09931 18.9669L7.78178 18.1609L5.57314 21.7173L14.5052 20.8999L10.0675 17.9469Z" fill="#E6E90C"/>
</g>
<circle cx="9" cy="18" r="8.47065" stroke="#E8ED08" stroke-width="1.05869"/>
<defs>
<linearGradient id="paint0_linear_1546_2797" x1="4.17161" y1="13.5061" x2="7.97731" y2="19.2838" gradientUnits="userSpaceOnUse">
<stop stop-color="#8E288E"/>
<stop offset="0.411458" stop-color="#402775"/>
</linearGradient>
<linearGradient id="paint1_linear_1546_2797" x1="11.0526" y1="15.0784" x2="14.8529" y2="20.8478" gradientUnits="userSpaceOnUse">
<stop stop-color="#8E288E"/>
<stop offset="0.411458" stop-color="#402775"/>
</linearGradient>
<linearGradient id="paint2_linear_1546_2797" x1="6.72566" y1="11.5454" x2="10.5115" y2="17.2929" gradientUnits="userSpaceOnUse">
<stop stop-color="#8E288E"/>
<stop offset="0.411458" stop-color="#402775"/>
</linearGradient>
<linearGradient id="paint3_linear_1546_2797" x1="8.58295" y1="17.2478" x2="12.2787" y2="22.8584" gradientUnits="userSpaceOnUse">
<stop stop-color="#8E288E"/>
<stop offset="0.411458" stop-color="#402775"/>
</linearGradient>
</defs>
</svg>
