<svg viewBox="0 0 511 369" fill="none" xmlns="http://www.w3.org/2000/svg">
<g clip-path="url(#clip0_307_5845)">
<path d="M461.596 179.235H33.9189V188.717H461.596V179.235Z" fill="#E6E6E6"/>
<path d="M46.965 174.948C48.0125 173.986 48.6664 172.674 48.6664 171.217V148.565C48.6664 147.093 48.0028 145.761 46.9409 144.795C46.3879 144.295 45.7169 143.895 44.9796 143.622C44.2938 143.376 43.549 143.236 42.7674 143.236C39.5083 143.236 36.8684 145.621 36.8684 148.565V171.217C36.8684 172.551 37.4143 173.767 38.3105 174.702C35.7037 175.921 33.9189 178.375 33.9189 181.21H50.8785C50.8785 178.553 49.3079 176.233 46.965 174.948Z" fill="#3F3D56"/>
<path d="M457.365 174.108C458.6 173.131 459.383 171.7 459.383 170.099V147.448C459.383 144.503 456.743 142.118 453.484 142.118C452.703 142.118 451.958 142.258 451.272 142.505C450.535 142.778 449.864 143.178 449.311 143.677C448.249 144.643 447.585 145.976 447.585 147.448V170.099C447.585 171.589 448.27 172.925 449.359 173.892C446.573 175.052 444.636 177.59 444.636 180.544H461.595C461.595 177.766 459.885 175.351 457.365 174.108Z" fill="#3F3D56"/>
<path d="M44.4118 188.125H33.9189V195.2H44.4118V188.125Z" fill="#E6E6E6"/>
<path d="M50.2745 195.2H39.1623L38.6756 193.868L36.7879 188.718L36.7363 188.578L38.1668 188.125L46.6392 185.44L47.8559 188.718L49.7731 193.868L50.2745 195.2Z" fill="#E6E6E6"/>
<path d="M458.779 188.578L458.728 188.718L456.84 193.868L456.353 195.2H445.241L445.743 193.868L447.66 188.718L448.876 185.44L457.349 188.125L458.779 188.578Z" fill="#E6E6E6"/>
<path d="M461.596 188.125H451.104V195.2H461.596V188.125Z" fill="#E6E6E6"/>
<path d="M250.707 0H54.5654V68.6199H250.707V0Z" fill="#3F3D56"/>
<path d="M250.707 0H54.5654V68.6199H250.707V0Z" fill="#3F3D56"/>
<path d="M57.5156 0V65.955H206.018C229.07 65.955 247.758 49.0709 247.758 28.2432V0H57.5156Z" fill="white"/>
<path d="M494.269 0H16.731C7.50646 0 0 6.78204 0 15.1164V180.084C0 188.418 7.50646 195.2 16.731 195.2H494.269C503.494 195.2 511 188.418 511 180.084V15.1164C511 6.78204 503.494 0 494.269 0ZM509.525 180.084C509.525 187.699 502.697 193.868 494.269 193.868H16.731C8.30284 193.868 1.47475 187.699 1.47475 180.084V15.1164C1.47475 7.50156 8.30284 1.33243 16.731 1.33243H394.731C458.13 1.33243 509.525 47.7674 509.525 105.048V180.084Z" fill="#3F3D56"/>
<path d="M266.465 139.392H239.086C238.283 139.392 237.634 139.985 237.634 140.717V179.791H267.932V140.717C267.932 139.985 267.276 139.392 266.465 139.392ZM256.105 158.679C256.105 159.338 255.862 159.938 255.449 160.431C254.859 161.137 253.922 161.597 252.868 161.597C251.821 161.597 250.884 161.137 250.294 160.431C249.882 159.938 249.638 159.338 249.638 158.679V154.142C249.653 152.549 251.098 151.25 252.868 151.25C254.638 151.25 256.09 152.549 256.105 154.142V158.679Z" fill="#2F2E41"/>
<path d="M237.537 178.545V182.309C237.537 182.715 237.898 183.049 238.348 183.049H267.209C267.651 183.049 268.02 182.715 268.02 182.309V178.545H237.537Z" fill="#3F3D56"/>
<path d="M311.806 78.4132H194.77C192.683 78.4132 190.979 79.9522 190.979 81.8375V153.189C190.979 155.081 192.683 156.62 194.77 156.62H311.806C313.892 156.62 315.596 155.081 315.596 153.189V81.8375C315.596 79.9522 313.892 78.4132 311.806 78.4132Z" fill="#3F3D56"/>
<path d="M310.818 80.8849H195.75C194.631 80.8849 193.723 81.7051 193.723 82.7169V131.838C193.723 144.105 204.831 154.142 218.409 154.142H310.825C311.94 154.142 312.853 153.317 312.853 152.31V82.7236C312.853 81.7123 311.937 80.8849 310.818 80.8849Z" fill="white"/>
<path d="M289.641 182.989L288.763 179.238L288.579 178.432C288.461 177.905 287.945 177.526 287.347 177.526H221.006C220.416 177.526 219.9 177.905 219.775 178.432L219.59 179.238L218.713 182.989C218.639 183.328 218.727 183.675 218.971 183.941C219.207 184.208 219.568 184.361 219.944 184.361H288.409C288.793 184.361 289.147 184.208 289.39 183.941C289.626 183.675 289.722 183.328 289.641 182.989Z" fill="#3F3D56"/>
<path d="M223.332 178.347H221.767C221.617 178.347 221.495 178.457 221.495 178.593V179.244C221.495 179.38 221.617 179.49 221.767 179.49H223.332C223.482 179.49 223.604 179.38 223.604 179.244V178.593C223.604 178.457 223.482 178.347 223.332 178.347Z" fill="#E6E6E6"/>
<path d="M286.542 180.252H284.977C284.827 180.252 284.705 180.362 284.705 180.498V181.15C284.705 181.285 284.827 181.395 284.977 181.395H286.542C286.692 181.395 286.814 181.285 286.814 181.15V180.498C286.814 180.362 286.692 180.252 286.542 180.252Z" fill="#E6E6E6"/>
<path d="M258.285 182.539H241.961C241.81 182.539 241.688 182.649 241.688 182.784V183.436C241.688 183.571 241.81 183.682 241.961 183.682H258.285C258.436 183.682 258.558 183.571 258.558 183.436V182.784C258.558 182.649 258.436 182.539 258.285 182.539Z" fill="#E6E6E6"/>
<path d="M69.06 129.841C60.2105 103.328 59.6562 76.7772 70.0907 50.177C70.1384 46.8198 73.1848 44.1309 76.9007 44.1664L143.491 44.8696C147.207 44.9127 150.183 47.6651 150.144 51.0224L149.113 130.687C149.066 134.044 146.019 136.733 142.303 136.697L75.7127 135.994C71.997 135.951 69.0208 133.199 69.06 129.841Z" fill="#F2F2F2"/>
<path opacity="0.2" d="M82.8766 132.997C79.1608 132.954 76.1848 130.202 76.224 126.844C67.3744 100.331 66.8201 73.7801 77.2545 47.1798C77.2754 46.1212 77.6054 45.0864 78.2111 44.1801L76.9007 44.1662C73.1849 44.1308 70.1385 46.8196 70.0907 50.1768C59.6563 76.7771 60.2105 103.328 69.0601 129.841C69.0209 133.198 71.9969 135.951 75.7127 135.994L142.303 136.697C144.711 136.715 146.945 135.566 148.157 133.686L82.8766 132.997Z" fill="black"/>
<path d="M131.927 89.3797L87.302 89.0202C85.8232 89.0067 84.6366 87.9127 84.6515 86.5767C84.6664 85.2429 85.8734 84.1717 87.3497 84.182L131.975 84.5414C133.453 84.5576 134.638 85.6537 134.62 86.9897C134.602 88.3197 133.399 89.3873 131.927 89.3797Z" fill="white"/>
<path d="M97.2502 75.8327L87.4327 75.7536C85.954 75.7459 84.762 74.6565 84.7706 73.3205C84.7791 71.9844 85.9848 70.9075 87.4636 70.9152L87.4805 70.9154L97.298 70.9945C98.7766 71.0106 99.9609 72.1067 99.943 73.4427C99.9253 74.7727 98.7224 75.8403 97.2502 75.8327Z" fill="white"/>
<path d="M131.717 110.65L87.0916 110.29C85.6129 110.274 84.4287 109.178 84.4465 107.842C84.4642 106.512 85.6671 105.444 87.1393 105.452L131.764 105.812C133.243 105.819 134.435 106.909 134.427 108.245C134.418 109.581 133.212 110.658 131.734 110.65L131.717 110.65Z" fill="white"/>
<path d="M131.822 100.015L87.197 99.6552C85.7182 99.6449 84.5287 98.5535 84.5401 97.2175C84.5515 95.8814 85.7595 94.8066 87.2383 94.8169L87.2447 94.817L131.87 95.1765C133.348 95.1926 134.533 96.2888 134.515 97.6247C134.497 98.9548 133.294 100.022 131.822 100.015Z" fill="white"/>
<path d="M85.9285 56.5472C89.1116 56.5472 91.692 54.2158 91.692 51.3399C91.692 48.4641 89.1116 46.1327 85.9285 46.1327C82.7454 46.1327 80.165 48.4641 80.165 51.3399C80.165 54.2158 82.7454 56.5472 85.9285 56.5472Z" fill="#3F3D56"/>
<path d="M134.459 57.8796C137.642 57.8796 140.222 55.5483 140.222 52.6724C140.222 49.7965 137.642 47.4651 134.459 47.4651C131.276 47.4651 128.695 49.7965 128.695 52.6724C128.695 55.5483 131.276 57.8796 134.459 57.8796Z" fill="#3F3D56"/>
<path d="M201.615 90.2268C202.967 90.2268 204.063 89.2142 204.063 87.9651C204.063 86.7161 202.967 85.7035 201.615 85.7035C200.262 85.7035 199.166 86.7161 199.166 87.9651C199.166 89.2142 200.262 90.2268 201.615 90.2268Z" fill="#F2F2F2"/>
<path d="M210.074 90.2268C211.426 90.2268 212.522 89.2142 212.522 87.9651C212.522 86.7161 211.426 85.7035 210.074 85.7035C208.721 85.7035 207.625 86.7161 207.625 87.9651C207.625 89.2142 208.721 90.2268 210.074 90.2268Z" fill="#F2F2F2"/>
<path d="M218.533 90.2268C219.885 90.2268 220.981 89.2142 220.981 87.9651C220.981 86.7161 219.885 85.7035 218.533 85.7035C217.18 85.7035 216.084 86.7161 216.084 87.9651C216.084 89.2142 217.18 90.2268 218.533 90.2268Z" fill="#F2F2F2"/>
<path d="M228.178 89.7527C228.103 89.7527 228.028 89.7264 227.971 89.674L226.319 88.148C226.209 88.0463 226.209 87.8838 226.319 87.7821L227.971 86.2563C228.083 86.1531 228.267 86.1514 228.381 86.2522C228.495 86.3533 228.497 86.5189 228.385 86.6221L226.931 87.9651L228.385 89.3081C228.497 89.4113 228.495 89.577 228.381 89.6781C228.324 89.7279 228.251 89.7527 228.178 89.7527Z" fill="#F2F2F2"/>
<path d="M230.955 89.7527C230.882 89.7527 230.808 89.7279 230.752 89.6781C230.638 89.577 230.636 89.4115 230.748 89.3081L232.202 87.9651L230.748 86.6222C230.636 86.5189 230.638 86.3533 230.752 86.2522C230.866 86.151 231.05 86.153 231.162 86.2563L232.814 87.7822C232.924 87.8839 232.924 88.0463 232.814 88.148L231.162 89.674C231.105 89.7264 231.03 89.7527 230.955 89.7527Z" fill="#F2F2F2"/>
<path d="M298.28 85.9654H295.207C294.857 85.9654 294.573 86.2217 294.573 86.5383V89.3166C294.573 89.6332 294.857 89.8895 295.207 89.8895H298.28C298.63 89.8895 298.917 89.6332 298.917 89.3166V86.5383C298.917 86.2217 298.63 85.9654 298.28 85.9654Z" fill="#F2F2F2"/>
<path d="M290.75 85.9654H287.678C287.328 85.9654 287.044 86.2217 287.044 86.5383V89.3166C287.044 89.6332 287.328 89.8895 287.678 89.8895H290.75C291.101 89.8895 291.387 89.6332 291.387 89.3166V86.5383C291.387 86.2217 291.101 85.9654 290.75 85.9654Z" fill="#F2F2F2"/>
<path d="M305.373 86.0962H302.301C301.951 86.0962 301.667 86.3525 301.667 86.6691V89.4474C301.667 89.764 301.951 90.0203 302.301 90.0203H305.373C305.724 90.0203 306.01 89.764 306.01 89.4474V86.6691C306.01 86.3525 305.724 86.0962 305.373 86.0962Z" fill="#F2F2F2"/>
<path d="M264.858 87.153H253.042C252.613 87.153 252.269 87.467 252.269 87.8516C252.269 88.2361 252.613 88.5501 253.042 88.5501H264.858C265.284 88.5501 265.632 88.2361 265.632 87.8516C265.632 87.467 265.284 87.153 264.858 87.153Z" fill="#F2F2F2"/>
<path d="M223.491 21.4452C222.103 17.2875 222.016 13.1239 223.652 8.95256C223.66 8.4261 224.138 8.00445 224.72 8.01L235.163 8.12028C235.746 8.12703 236.212 8.55866 236.206 9.08514L236.045 21.5778C236.037 22.1043 235.559 22.5259 234.977 22.5204L224.534 22.4101C223.951 22.4034 223.485 21.9717 223.491 21.4452Z" fill="#F2F2F2"/>
<path opacity="0.2" d="M225.658 21.9401C225.075 21.9333 224.608 21.5017 224.614 20.9752C223.227 16.8175 223.14 12.6539 224.776 8.48256C224.779 8.31655 224.831 8.15428 224.926 8.01215L224.72 8.00997C224.138 8.00442 223.66 8.42606 223.652 8.95252C222.016 13.1239 222.103 17.2875 223.491 21.4452C223.485 21.9717 223.951 22.4033 224.534 22.4101L234.977 22.5204C235.354 22.5232 235.705 22.343 235.895 22.0482L225.658 21.9401Z" fill="black"/>
<path d="M201.37 21.4452C199.982 17.2875 199.895 13.1239 201.531 8.95256C201.539 8.4261 202.017 8.00445 202.599 8.01L213.042 8.12028C213.625 8.12703 214.091 8.55866 214.085 9.08514L213.923 21.5778C213.916 22.1043 213.438 22.5259 212.856 22.5204L202.413 22.4101C201.83 22.4034 201.364 21.9717 201.37 21.4452Z" fill="#F2F2F2"/>
<path opacity="0.2" d="M203.536 21.9401C202.954 21.9333 202.487 21.5017 202.493 20.9752C201.105 16.8175 201.019 12.6539 202.655 8.48256C202.658 8.31655 202.71 8.15428 202.805 8.01215L202.599 8.00997C202.017 8.00442 201.539 8.42606 201.531 8.95252C199.895 13.1239 199.982 17.2875 201.37 21.4452C201.364 21.9717 201.83 22.4033 202.413 22.4101L212.856 22.5204C213.233 22.5232 213.583 22.343 213.773 22.0482L203.536 21.9401Z" fill="black"/>
<path d="M183.673 21.4452C182.285 17.2875 182.198 13.1239 183.834 8.95256C183.842 8.4261 184.319 8.00445 184.902 8.01L195.345 8.12028C195.927 8.12703 196.394 8.55866 196.388 9.08514L196.226 21.5778C196.219 22.1043 195.741 22.5259 195.158 22.5204L184.716 22.4101C184.133 22.4034 183.666 21.9717 183.673 21.4452Z" fill="#F2F2F2"/>
<path opacity="0.2" d="M185.839 21.9401C185.256 21.9333 184.79 21.5017 184.796 20.9752C183.408 16.8175 183.321 12.6539 184.958 8.48256C184.961 8.31655 185.013 8.15428 185.108 8.01215L184.902 8.00997C184.319 8.00442 183.842 8.42606 183.834 8.95252C182.198 13.1239 182.285 17.2875 183.673 21.4452C183.666 21.9717 184.133 22.4033 184.716 22.4101L195.158 22.5204C195.536 22.5232 195.886 22.343 196.076 22.0482L185.839 21.9401Z" fill="black"/>
<path d="M190.869 12.7069C191.989 12.7069 192.897 11.8865 192.897 10.8745C192.897 9.86242 191.989 9.04199 190.869 9.04199C189.749 9.04199 188.841 9.86242 188.841 10.8745C188.841 11.8865 189.749 12.7069 190.869 12.7069Z" fill="#3F3D56"/>
<path d="M207.829 12.7069C208.949 12.7069 209.857 11.8865 209.857 10.8745C209.857 9.86242 208.949 9.04199 207.829 9.04199C206.709 9.04199 205.801 9.86242 205.801 10.8745C205.801 11.8865 206.709 12.7069 207.829 12.7069Z" fill="#3F3D56"/>
<path d="M229.213 12.7069C230.333 12.7069 231.241 11.8865 231.241 10.8745C231.241 9.86242 230.333 9.04199 229.213 9.04199C228.093 9.04199 227.185 9.86242 227.185 10.8745C227.185 11.8865 228.093 12.7069 229.213 12.7069Z" fill="#3F3D56"/>
<path d="M47.1918 148.565V171.217C47.1918 172.688 46.5319 174.019 45.4658 174.983C44.7455 175.635 43.5049 175.144 43.5049 174.223V145.55C43.5049 144.638 44.7327 144.137 45.4497 144.78L45.4663 144.795C46.5281 145.761 47.1918 147.093 47.1918 148.565Z" fill="#FF4D6D"/>
<path d="M449.061 147.448V170.099C449.061 171.571 449.72 172.902 450.786 173.866C451.507 174.517 452.747 174.027 452.747 173.106V144.433C452.747 143.521 451.52 143.02 450.803 143.662L450.786 143.677C449.724 144.643 449.061 145.976 449.061 147.448Z" fill="#FF4D6D"/>
</g>
<defs>
<clipPath id="clip0_307_5845">
<rect width="511" height="369" fill="white"/>
</clipPath>
</defs>
</svg>
