<svg viewBox="0 0 541 414" fill="none" xmlns="http://www.w3.org/2000/svg">
<g clip-path="url(#clip0_323_6341)">
<path d="M477.757 403.592L468.706 403.592L464.4 365.42L477.758 365.421L477.757 403.592Z" fill="#FFB8B8"/>
<path d="M480.065 413.185L450.881 413.184V412.781C450.881 409.487 452.078 406.327 454.208 403.998C456.338 401.669 459.228 400.361 462.24 400.36H462.241L480.065 400.361L480.065 413.185Z" fill="#2F2E41"/>
<path d="M517.703 379.262L511.828 386.791L482.477 365.594L491.148 354.484L517.703 379.262Z" fill="#FFB8B8"/>
<path d="M525.876 383.569L506.933 407.843L506.652 407.581C504.36 405.443 502.939 402.397 502.701 399.113C502.464 395.829 503.429 392.577 505.384 390.071L505.384 390.07L516.955 375.245L525.876 383.569Z" fill="#2F2E41"/>
<path d="M413.491 215.868L410.674 244.279L524.565 242.503L474.896 154.012L434.343 152.419L413.491 215.868Z" fill="#2F2E41"/>
<path opacity="0.28" d="M413.491 215.868L410.674 244.279L524.565 242.503L474.896 154.012L434.343 152.419L413.491 215.868Z" fill="black"/>
<path d="M435.888 220.746L431.867 246.741V269.977L464.285 281.548C464.285 281.548 460.49 371.801 465.55 377.55L465.425 391.427L479.568 392.129L479.683 382.364L485.679 309.365L489.21 255.769L483.485 215.135L435.888 220.746Z" fill="#2F2E41"/>
<path d="M461.003 243.123L431.866 269.978C431.866 269.978 430.161 318.429 434.491 324.111C438.211 328.991 486.585 371.086 486.585 371.086C486.585 371.086 495.182 379.709 500 379.846C504.818 379.984 510.422 368.934 510.422 368.934L499.264 359.664C499.264 359.664 470.356 330.16 461.773 318.429C458.309 313.694 458.309 313.22 458.309 313.22L459.492 293.529L471.401 256.985L461.003 243.123Z" fill="#2F2E41"/>
<path d="M430.069 114.49L417.506 113.22L406.112 115.297L381.984 115.305L379.928 134.426L401.947 139.814L407.312 136.938L429.68 146.257L430.069 114.49Z" fill="#2F2E41"/>
<path d="M445.073 114.43C445.073 114.43 471.734 111.698 477.796 116.907C483.859 122.115 496.85 225.339 496.85 225.339L445.073 228.534L435.791 221.551L438.426 170.017L445.073 114.43Z" fill="#CCCCCC"/>
<path d="M453.21 113.787L423.801 114.492L396.383 249.96L418.035 255.17L453.21 113.787Z" fill="#2F2E41"/>
<path d="M474.116 112.642L497.282 120.57L495.966 176.229L524.564 242.774L490.945 246.646L464.371 174.79L474.116 112.642Z" fill="#2F2E41"/>
<path d="M512.318 249.533C513.13 248.752 513.776 247.785 514.209 246.701C514.642 245.617 514.853 244.442 514.826 243.259C514.8 242.077 514.536 240.915 514.054 239.855C513.572 238.796 512.884 237.865 512.038 237.128L516.698 219.351L507.509 213.62L501.25 238.825C500.212 240.462 499.759 242.459 499.977 244.436C500.196 246.414 501.07 248.235 502.434 249.555C503.798 250.875 505.558 251.602 507.38 251.598C509.201 251.594 510.958 250.859 512.318 249.533Z" fill="#FFB8B8"/>
<path d="M483.859 122.115L497.567 120.815C497.567 120.815 509.872 134.888 512.672 145.785C515.472 156.681 518.503 190.773 518.503 190.773L517.238 240.646L501.216 228.749L500.141 185.852L483.859 122.115Z" fill="#2F2E41"/>
<path d="M480.552 97.0478C485.699 86.7519 482.239 73.8429 472.822 68.2147C463.406 62.5865 451.6 66.3703 446.453 76.6662C441.306 86.962 444.766 99.871 454.182 105.499C463.598 111.127 475.404 107.344 480.552 97.0478Z" fill="#FFB8B8"/>
<path d="M461.337 77.9873C458.788 77.3432 456.141 78.0569 453.559 78.5196C450.977 78.9823 448.132 79.1348 445.947 77.5596C444.334 76.3962 443.343 74.4716 442.411 72.6203C442.023 71.9591 441.764 71.2171 441.651 70.4409C441.541 69.0718 442.338 67.8226 443.184 66.8059C447.113 62.0836 452.854 59.499 458.644 58.678C463.419 57.8998 468.298 58.5512 472.762 60.5629C477.157 62.6708 480.935 66.531 482.663 71.4269C483.459 73.9327 483.956 76.5403 484.142 79.1851C484.403 81.1311 484.437 83.1054 484.242 85.0606C484.009 86.51 483.661 87.9344 483.2 89.3173L480.338 98.7683C480.132 99.6614 479.748 100.493 479.212 101.204C478.937 101.553 478.566 101.794 478.155 101.893C477.744 101.991 477.315 101.941 476.932 101.751C477.161 100.724 477.196 99.6573 477.035 98.6155C476.945 98.0963 476.715 97.6183 476.375 97.2431C476.035 96.8679 475.6 96.6127 475.126 96.5104C474.071 96.388 473.169 97.2823 472.168 97.6675C471.71 97.8159 471.23 97.8643 470.755 97.8098C470.28 97.7553 469.819 97.599 469.399 97.3498C468.979 97.1006 468.608 96.7635 468.307 96.3576C468.007 95.9517 467.782 95.4849 467.646 94.9841C467.619 94.8831 467.595 94.7811 467.575 94.678C467.417 93.5975 467.682 92.4408 467.308 91.4261C466.869 90.2373 465.705 89.6143 464.831 88.7601C464.033 87.9551 463.462 86.9179 463.185 85.7702C462.908 84.6226 462.936 83.4124 463.267 82.2817C463.501 81.4952 464.162 81.1376 464.03 80.234C463.856 79.0486 462.258 78.2198 461.337 77.9873Z" fill="#2F2E41"/>
<path d="M245.312 167.797H0V0H245.312V167.797Z" fill="white"/>
<path d="M245.312 167.797H0V0H245.312V167.797ZM1.12015 166.572H244.192V1.2248H1.12015V166.572Z" fill="#3F3D56"/>
<path d="M215.348 400.201H75.3301V232.405H215.348V400.201Z" fill="white"/>
<path d="M215.348 400.201H75.3301V232.405H215.348V400.201ZM76.4502 398.977H214.228V233.63H76.4502V398.977Z" fill="#3F3D56"/>
<path d="M196.305 384.353H167.182V385.644H196.305V384.353Z" fill="#3F3D56"/>
<path d="M196.305 388.226H167.182V389.517H196.305V388.226Z" fill="#3F3D56"/>
<path d="M196.305 392.099H167.182V393.39H196.305V392.099Z" fill="#3F3D56"/>
<path d="M145.338 262.412V275.885C152.649 275.885 159.796 278.255 165.874 282.696C171.953 287.138 176.691 293.45 179.489 300.836C182.287 308.221 183.019 316.348 181.592 324.188C180.166 332.029 176.646 339.23 171.476 344.883L180.189 354.41C187.081 346.873 191.776 337.27 193.677 326.817C195.579 316.363 194.603 305.527 190.873 295.68C187.142 285.833 180.825 277.416 172.72 271.494C164.615 265.573 155.086 262.412 145.338 262.412Z" fill="#E6E6E6"/>
<path d="M180.19 354.41L171.478 344.883C165.158 351.795 156.761 355.967 147.843 356.629C138.925 357.29 130.091 354.394 122.975 348.479L115.518 359.208C125.006 367.094 136.786 370.952 148.677 370.07C160.568 369.188 171.763 363.624 180.19 354.41Z" fill="#575A89"/>
<path d="M108.374 316.303C108.374 310.995 109.33 305.739 111.188 300.836C113.046 295.932 115.769 291.476 119.201 287.723C122.634 283.97 126.709 280.993 131.193 278.961C135.678 276.93 140.485 275.885 145.339 275.885V262.412C135.022 262.412 124.964 265.952 116.585 272.534C108.205 279.116 101.926 288.407 98.6318 299.098C95.3379 309.789 95.1957 321.341 98.225 332.125C101.254 342.91 107.303 352.382 115.517 359.208L122.975 348.479C118.434 344.713 114.753 339.848 112.22 334.265C109.686 328.683 108.37 322.535 108.374 316.303Z" fill="#4A6FEB"/>
<path d="M422.575 296.094H282.557V128.297H422.575V296.094Z" fill="white"/>
<path d="M422.575 296.094H282.557V128.297H422.575V296.094ZM283.677 294.869H421.455V129.522H283.677V294.869Z" fill="#3F3D56"/>
<path d="M327.922 230.874H302.719V274.966H327.922V230.874Z" fill="#575A89"/>
<path d="M364.326 200.866H339.123V274.966H364.326V200.866Z" fill="#E6E6E6"/>
<path d="M400.733 165.96H375.529V274.966H400.733V165.96Z" fill="#4A6FEB"/>
<path d="M409.132 276.191H295.998V148.2H297.118V274.966H409.132V276.191Z" fill="#3F3D56"/>
<path d="M381.857 132.764C386.117 132.764 389.571 128.988 389.571 124.33C389.571 119.671 386.117 115.895 381.857 115.895C377.596 115.895 374.143 119.671 374.143 124.33C374.143 128.988 377.596 132.764 381.857 132.764Z" fill="#FFB8B8"/>
<path d="M540.358 414H420.149C419.978 414 419.815 413.926 419.694 413.794C419.574 413.662 419.506 413.484 419.506 413.297C419.506 413.111 419.574 412.932 419.694 412.8C419.815 412.668 419.978 412.594 420.149 412.594H540.358C540.529 412.594 540.692 412.668 540.813 412.8C540.933 412.932 541.001 413.111 541.001 413.297C541.001 413.484 540.933 413.662 540.813 413.794C540.692 413.926 540.529 414 540.358 414Z" fill="#CCCCCC"/>
<path d="M211.244 132.704H34.0681C33.9211 132.704 33.7801 132.64 33.6761 132.526C33.5721 132.413 33.5137 132.258 33.5137 132.098V39.2437C33.5137 39.0829 33.5721 38.9287 33.6761 38.815C33.7801 38.7013 33.9211 38.6375 34.0681 38.6375C34.2152 38.6375 34.3562 38.7013 34.4602 38.815C34.5642 38.9287 34.6226 39.0829 34.6226 39.2437V131.491H211.244C211.317 131.491 211.389 131.507 211.457 131.537C211.524 131.567 211.586 131.612 211.637 131.668C211.689 131.725 211.73 131.792 211.758 131.865C211.786 131.939 211.8 132.018 211.8 132.098C211.8 132.177 211.786 132.256 211.758 132.33C211.73 132.404 211.689 132.471 211.637 132.527C211.586 132.583 211.524 132.628 211.457 132.658C211.389 132.689 211.317 132.704 211.244 132.704Z" fill="#3F3D56"/>
<path d="M71.9229 126.035H55.8081C55.3717 126.034 54.9534 125.845 54.6448 125.507C54.3362 125.17 54.1626 124.712 54.1621 124.235V99.9455C54.1626 99.4683 54.3362 99.0109 54.6448 98.6736C54.9534 98.3362 55.3717 98.1464 55.8081 98.1459H71.9229C72.3593 98.1464 72.7776 98.3362 73.0862 98.6736C73.3948 99.0109 73.5684 99.4683 73.5689 99.9455V124.235C73.5684 124.712 73.3948 125.17 73.0862 125.507C72.7777 125.845 72.3593 126.034 71.9229 126.035Z" fill="#4A6FEB"/>
<path d="M101.31 126.035H85.1948C84.7584 126.034 84.3401 125.844 84.0315 125.507C83.7229 125.17 83.5493 124.712 83.5488 124.235V76.9068C83.5494 76.4296 83.7229 75.9722 84.0315 75.6349C84.3401 75.2975 84.7584 75.1077 85.1948 75.1072H101.31C101.746 75.1077 102.164 75.2975 102.473 75.6349C102.781 75.9722 102.955 76.4296 102.956 76.9068V124.235C102.955 124.712 102.781 125.17 102.473 125.507C102.164 125.844 101.746 126.034 101.31 126.035Z" fill="#4A6FEB"/>
<path d="M130.698 126.035H114.583C114.147 126.034 113.729 125.845 113.42 125.507C113.112 125.17 112.938 124.712 112.938 124.235V99.9455C112.938 99.4683 113.112 99.0109 113.42 98.6736C113.729 98.3362 114.147 98.1464 114.583 98.1459H130.698C131.135 98.1464 131.553 98.3362 131.862 98.6736C132.17 99.0109 132.344 99.4683 132.344 99.9455V124.235C132.344 124.712 132.17 125.17 131.862 125.507C131.553 125.845 131.135 126.034 130.698 126.035Z" fill="#4A6FEB"/>
<path d="M160.085 126.035H143.97C143.544 126.045 143.131 125.87 142.823 125.548C142.514 125.226 142.335 124.783 142.324 124.317V67.7311C142.335 67.2648 142.514 66.8222 142.823 66.5002C143.131 66.1781 143.544 66.0029 143.97 66.013H160.085C160.511 66.0029 160.924 66.1781 161.233 66.5002C161.541 66.8222 161.72 67.2648 161.731 67.7311V124.317C161.72 124.783 161.541 125.226 161.233 125.548C160.924 125.87 160.511 126.045 160.085 126.035Z" fill="#4A6FEB"/>
<path d="M189.472 126.035H173.357C172.921 126.034 172.502 125.845 172.194 125.507C171.885 125.17 171.711 124.712 171.711 124.235V51.443C171.711 50.9659 171.885 50.5085 172.194 50.1711C172.502 49.8337 172.921 49.644 173.357 49.6434H189.472C189.908 49.644 190.326 49.8337 190.635 50.1711C190.944 50.5085 191.117 50.9659 191.118 51.443V124.235C191.117 124.712 190.944 125.17 190.635 125.507C190.326 125.845 189.908 126.034 189.472 126.035Z" fill="#99A9D2"/>
<path d="M63.8659 90.8706C65.7033 90.8706 67.1928 89.2419 67.1928 87.2329C67.1928 85.2239 65.7033 83.5952 63.8659 83.5952C62.0286 83.5952 60.5391 85.2239 60.5391 87.2329C60.5391 89.2419 62.0286 90.8706 63.8659 90.8706Z" fill="#3F3D56"/>
<path d="M93.2527 67.2256C95.09 67.2256 96.5795 65.5969 96.5795 63.5879C96.5795 61.5788 95.09 59.9502 93.2527 59.9502C91.4153 59.9502 89.9258 61.5788 89.9258 63.5879C89.9258 65.5969 91.4153 67.2256 93.2527 67.2256Z" fill="#3F3D56"/>
<path d="M122.639 90.8706C124.477 90.8706 125.966 89.2419 125.966 87.2329C125.966 85.2239 124.477 83.5952 122.639 83.5952C120.802 83.5952 119.312 85.2239 119.312 87.2329C119.312 89.2419 120.802 90.8706 122.639 90.8706Z" fill="#3F3D56"/>
<path d="M152.028 55.7063C153.865 55.7063 155.355 54.0776 155.355 52.0686C155.355 50.0596 153.865 48.4309 152.028 48.4309C150.191 48.4309 148.701 50.0596 148.701 52.0686C148.701 54.0776 150.191 55.7063 152.028 55.7063Z" fill="#3F3D56"/>
<path d="M181.415 42.368C183.252 42.368 184.742 40.7394 184.742 38.7303C184.742 36.7213 183.252 35.0927 181.415 35.0927C179.577 35.0927 178.088 36.7213 178.088 38.7303C178.088 40.7394 179.577 42.368 181.415 42.368Z" fill="#3F3D56"/>
<path d="M122.71 88.0478L93.2532 63.9226L64.1979 87.7181L63.5332 86.7474L93.2532 62.4072L122.57 86.4178L151.704 51.5581L151.821 51.5061L181.208 38.559L181.622 39.6843L152.352 52.5794L122.71 88.0478Z" fill="#3F3D56"/>
</g>
<defs>
<clipPath id="clip0_323_6341">
<rect width="541" height="414" fill="white"/>
</clipPath>
</defs>
</svg>
