<svg viewBox="0 0 550 369" fill="none" xmlns="http://www.w3.org/2000/svg">
<g clip-path="url(#clip0_248_10371)">
<path d="M176.973 57.4188H175.852V109.93H176.973V57.4188Z" fill="#3F3D56"/>
<path d="M176.973 125.561H175.852V171.766H176.973V125.561Z" fill="#3F3D56"/>
<path d="M261.116 179.127H174.17V180.109H261.116V179.127Z" fill="#3F3D56"/>
<path d="M138.268 192.378H137.146V234.092H138.268V192.378Z" fill="#3F3D56"/>
<path d="M279.065 241.454H147.244V242.435H279.065V241.454Z" fill="#3F3D56"/>
<path d="M389.011 24.0471H387.889V73.6139H389.011V24.0471Z" fill="#3F3D56"/>
<path d="M379.474 81.4661H296.996V82.4476H379.474V81.4661Z" fill="#3F3D56"/>
<path d="M288.6 89.3182H287.479V155.571H288.6V89.3182Z" fill="#3F3D56"/>
<path d="M176.413 126.125C174.527 126.125 172.683 125.636 171.115 124.719C169.547 123.802 168.325 122.499 167.603 120.975C166.881 119.451 166.692 117.773 167.06 116.155C167.428 114.536 168.336 113.05 169.67 111.883C171.004 110.716 172.703 109.922 174.553 109.6C176.402 109.278 178.32 109.443 180.062 110.074C181.805 110.706 183.294 111.775 184.342 113.147C185.39 114.519 185.949 116.132 185.949 117.782C185.946 119.994 184.941 122.115 183.153 123.679C181.365 125.243 178.941 126.123 176.413 126.125ZM176.413 110.421C174.749 110.421 173.122 110.853 171.738 111.662C170.355 112.47 169.276 113.62 168.639 114.965C168.002 116.31 167.836 117.79 168.161 119.218C168.485 120.646 169.287 121.958 170.463 122.988C171.64 124.017 173.139 124.718 174.771 125.002C176.404 125.286 178.095 125.14 179.633 124.583C181.17 124.026 182.485 123.083 183.409 121.872C184.334 120.661 184.827 119.238 184.827 117.782C184.825 115.831 183.937 113.959 182.36 112.579C180.783 111.199 178.644 110.423 176.413 110.421Z" fill="#3F3D56"/>
<path d="M138.268 250.287C136.382 250.287 134.539 249.798 132.971 248.881C131.402 247.965 130.18 246.662 129.458 245.137C128.737 243.613 128.548 241.935 128.916 240.317C129.284 238.699 130.192 237.212 131.525 236.045C132.859 234.878 134.558 234.084 136.408 233.762C138.258 233.44 140.175 233.605 141.918 234.237C143.66 234.868 145.15 235.937 146.197 237.309C147.245 238.681 147.804 240.294 147.804 241.945C147.802 244.156 146.796 246.277 145.008 247.841C143.221 249.405 140.797 250.285 138.268 250.287ZM138.268 234.583C136.604 234.583 134.978 235.015 133.594 235.824C132.21 236.633 131.132 237.782 130.495 239.127C129.858 240.473 129.691 241.953 130.016 243.381C130.341 244.809 131.142 246.12 132.319 247.15C133.495 248.179 134.995 248.88 136.627 249.164C138.259 249.449 139.951 249.303 141.488 248.746C143.026 248.188 144.34 247.245 145.265 246.034C146.189 244.824 146.683 243.4 146.683 241.945C146.68 239.993 145.793 238.122 144.215 236.742C142.638 235.362 140.499 234.585 138.268 234.583Z" fill="#3F3D56"/>
<path d="M176.973 187.47C181.93 187.47 185.948 183.955 185.948 179.618C185.948 175.281 181.93 171.766 176.973 171.766C172.016 171.766 167.998 175.281 167.998 179.618C167.998 183.955 172.016 187.47 176.973 187.47Z" fill="black"/>
<path d="M501.759 117.292H408.643V118.273H501.759V117.292Z" fill="#3F3D56"/>
<path d="M400.229 125.561H399.107V171.766H400.229V125.561Z" fill="#3F3D56"/>
<path d="M390.133 179.127H315.527V180.109H390.133V179.127Z" fill="#3F3D56"/>
<path d="M524.197 183.544H446.787V184.526H524.197V183.544Z" fill="#3F3D56"/>
<path d="M438.934 192.378H437.812V234.092H438.934V192.378Z" fill="#3F3D56"/>
<path d="M428.837 241.454H297.016V242.435H428.837V241.454Z" fill="#3F3D56"/>
<path d="M288.6 203.665H287.479V234.092H288.6V203.665Z" fill="#3F3D56"/>
<path d="M399.668 125.635C404.625 125.635 408.643 122.119 408.643 117.782C408.643 113.446 404.625 109.93 399.668 109.93C394.712 109.93 390.693 113.446 390.693 117.782C390.693 122.119 394.712 125.635 399.668 125.635Z" fill="black"/>
<path d="M388.448 89.809C386.562 89.809 384.718 89.3197 383.15 88.4029C381.582 87.4862 380.36 86.1832 379.638 84.6588C378.916 83.1343 378.727 81.4568 379.095 79.8384C379.463 78.2201 380.372 76.7335 381.705 75.5667C383.039 74.4 384.738 73.6054 386.588 73.2834C388.438 72.9615 390.355 73.1268 392.097 73.7582C393.84 74.3897 395.329 75.459 396.377 76.831C397.425 78.203 397.984 79.816 397.984 81.4661C397.981 83.678 396.976 85.7986 395.188 87.3627C393.4 88.9267 390.976 89.8065 388.448 89.809ZM388.448 74.1047C386.784 74.1047 385.157 74.5364 383.773 75.3453C382.39 76.1542 381.311 77.3039 380.674 78.649C380.038 79.9941 379.871 81.4742 380.196 82.9022C380.52 84.3302 381.322 85.6418 382.498 86.6714C383.675 87.7009 385.174 88.402 386.807 88.686C388.439 88.97 390.131 88.8243 391.668 88.2671C393.206 87.7099 394.52 86.7664 395.444 85.5558C396.369 84.3453 396.862 82.922 396.862 81.4661C396.86 79.5144 395.972 77.6432 394.395 76.2632C392.818 74.8831 390.679 74.1068 388.448 74.1047Z" fill="#3F3D56"/>
<path d="M288.04 89.809C286.154 89.809 284.31 89.3197 282.742 88.4029C281.174 87.4862 279.952 86.1832 279.23 84.6588C278.508 83.1343 278.319 81.4568 278.687 79.8384C279.055 78.2201 279.963 76.7335 281.297 75.5667C282.631 74.4 284.33 73.6054 286.18 73.2834C288.029 72.9615 289.947 73.1268 291.689 73.7582C293.432 74.3897 294.921 75.459 295.969 76.831C297.017 78.203 297.576 79.816 297.576 81.4661C297.573 83.678 296.568 85.7986 294.78 87.3627C292.992 88.9267 290.568 89.8065 288.04 89.809ZM288.04 74.1047C286.376 74.1047 284.749 74.5364 283.365 75.3453C281.982 76.1542 280.903 77.3039 280.266 78.649C279.629 79.9941 279.463 81.4742 279.787 82.9022C280.112 84.3302 280.914 85.6418 282.09 86.6714C283.267 87.7009 284.766 88.402 286.398 88.686C288.031 88.97 289.722 88.8243 291.26 88.2671C292.797 87.7099 294.111 86.7664 295.036 85.5558C295.961 84.3453 296.454 82.922 296.454 81.4661C296.452 79.5144 295.564 77.6432 293.987 76.2632C292.409 74.8831 290.271 74.1068 288.04 74.1047Z" fill="#3F3D56"/>
<path d="M437.811 192.869C435.925 192.869 434.082 192.379 432.513 191.462C430.945 190.546 429.723 189.243 429.001 187.718C428.28 186.194 428.091 184.516 428.459 182.898C428.827 181.28 429.735 179.793 431.068 178.626C432.402 177.459 434.101 176.665 435.951 176.343C437.801 176.021 439.718 176.186 441.461 176.818C443.203 177.449 444.692 178.519 445.74 179.891C446.788 181.263 447.347 182.876 447.347 184.526C447.345 186.738 446.339 188.858 444.551 190.422C442.764 191.986 440.34 192.866 437.811 192.869ZM437.811 177.164C436.147 177.164 434.52 177.596 433.137 178.405C431.753 179.214 430.675 180.363 430.038 181.709C429.401 183.054 429.234 184.534 429.559 185.962C429.884 187.39 430.685 188.701 431.862 189.731C433.038 190.76 434.538 191.462 436.17 191.746C437.802 192.03 439.494 191.884 441.031 191.327C442.569 190.769 443.883 189.826 444.807 188.615C445.732 187.405 446.226 185.982 446.226 184.526C446.223 182.574 445.336 180.703 443.758 179.323C442.181 177.943 440.042 177.166 437.811 177.164Z" fill="#3F3D56"/>
<path d="M437.811 249.797C442.768 249.797 446.786 246.281 446.786 241.945C446.786 237.608 442.768 234.092 437.811 234.092C432.854 234.092 428.836 237.608 428.836 241.945C428.836 246.281 432.854 249.797 437.811 249.797Z" fill="black"/>
<path d="M288.04 250.287C286.154 250.287 284.31 249.798 282.742 248.881C281.174 247.965 279.952 246.662 279.23 245.137C278.508 243.613 278.319 241.935 278.687 240.317C279.055 238.699 279.963 237.212 281.297 236.045C282.631 234.878 284.33 234.084 286.18 233.762C288.029 233.44 289.947 233.605 291.689 234.237C293.432 234.868 294.921 235.937 295.969 237.309C297.017 238.681 297.576 240.294 297.576 241.945C297.573 244.156 296.568 246.277 294.78 247.841C292.992 249.405 290.568 250.285 288.04 250.287ZM288.04 234.583C286.376 234.583 284.749 235.015 283.365 235.824C281.982 236.633 280.903 237.782 280.266 239.127C279.629 240.473 279.463 241.953 279.787 243.381C280.112 244.809 280.914 246.12 282.09 247.15C283.267 248.179 284.766 248.88 286.398 249.164C288.031 249.449 289.722 249.303 291.26 248.746C292.797 248.188 294.111 247.245 295.036 246.034C295.961 244.824 296.454 243.4 296.454 241.945C296.452 239.993 295.564 238.122 293.987 236.742C292.409 235.362 290.271 234.585 288.04 234.583Z" fill="#3F3D56"/>
<path d="M399.106 187.961C397.22 187.961 395.377 187.472 393.808 186.555C392.24 185.638 391.018 184.335 390.296 182.811C389.574 181.286 389.386 179.609 389.754 177.99C390.121 176.372 391.03 174.885 392.363 173.719C393.697 172.552 395.396 171.757 397.246 171.435C399.096 171.113 401.013 171.279 402.756 171.91C404.498 172.542 405.987 173.611 407.035 174.983C408.083 176.355 408.642 177.968 408.642 179.618C408.64 181.83 407.634 183.951 405.846 185.515C404.058 187.079 401.635 187.958 399.106 187.961ZM399.106 172.257C397.442 172.257 395.815 172.688 394.432 173.497C393.048 174.306 391.97 175.456 391.333 176.801C390.696 178.146 390.529 179.626 390.854 181.054C391.179 182.482 391.98 183.794 393.157 184.823C394.333 185.853 395.833 186.554 397.465 186.838C399.097 187.122 400.789 186.976 402.326 186.419C403.864 185.862 405.178 184.918 406.102 183.708C407.027 182.497 407.52 181.074 407.52 179.618C407.518 177.666 406.631 175.795 405.053 174.415C403.476 173.035 401.337 172.259 399.106 172.257Z" fill="#3F3D56"/>
<path d="M138.27 167.84C136.051 167.84 133.882 168.415 132.037 169.494C130.192 170.573 128.754 172.105 127.905 173.899C127.056 175.692 126.833 177.666 127.266 179.57C127.699 181.474 128.768 183.223 130.337 184.595C131.906 185.968 133.905 186.903 136.081 187.282C138.257 187.66 140.513 187.466 142.563 186.723C144.613 185.98 146.365 184.722 147.598 183.108C148.83 181.494 149.488 179.596 149.488 177.655C149.48 175.054 148.295 172.562 146.193 170.723C144.091 168.884 141.242 167.847 138.27 167.84ZM138.27 170.784C138.935 170.784 139.586 170.957 140.139 171.281C140.693 171.604 141.124 172.064 141.379 172.602C141.634 173.14 141.7 173.732 141.571 174.303C141.441 174.875 141.12 175.399 140.649 175.811C140.179 176.223 139.579 176.503 138.926 176.617C138.273 176.731 137.597 176.672 136.982 176.449C136.367 176.227 135.841 175.849 135.471 175.365C135.101 174.881 134.904 174.311 134.904 173.729C134.907 172.949 135.262 172.201 135.893 171.65C136.524 171.098 137.378 170.787 138.27 170.784ZM138.27 184.96C136.94 184.955 135.632 184.665 134.459 184.118C133.286 183.57 132.283 182.78 131.538 181.817C131.592 179.854 136.026 178.773 138.27 178.773C140.513 178.773 144.947 179.854 145.001 181.817C144.255 182.78 143.252 183.569 142.079 184.116C140.907 184.664 139.599 184.953 138.27 184.96Z" fill="#3F3D56"/>
<path d="M176.973 33.8624C174.754 33.8624 172.585 34.4381 170.74 35.5166C168.895 36.5951 167.457 38.128 166.608 39.9215C165.759 41.715 165.537 43.6885 165.969 45.5925C166.402 47.4964 167.471 49.2453 169.04 50.618C170.609 51.9907 172.608 52.9255 174.784 53.3042C176.96 53.6829 179.216 53.4886 181.266 52.7457C183.316 52.0028 185.068 50.7448 186.301 49.1307C187.534 47.5166 188.192 45.6189 188.192 43.6776C188.183 41.0768 186.998 38.5847 184.896 36.7456C182.794 34.9066 179.945 33.87 176.973 33.8624ZM176.973 36.807C177.638 36.807 178.289 36.9797 178.843 37.3032C179.396 37.6268 179.827 38.0867 180.082 38.6247C180.337 39.1628 180.404 39.7548 180.274 40.326C180.144 40.8972 179.823 41.4219 179.353 41.8337C178.882 42.2455 178.282 42.5259 177.629 42.6395C176.976 42.7531 176.3 42.6948 175.685 42.472C175.07 42.2491 174.544 41.8717 174.174 41.3875C173.804 40.9032 173.607 40.3339 173.607 39.7515C173.61 38.9714 173.966 38.224 174.596 37.6723C175.227 37.1207 176.081 36.8096 176.973 36.807ZM176.973 50.9824C175.643 50.9771 174.335 50.6881 173.162 50.1404C171.989 49.5928 170.987 48.803 170.241 47.8396C170.295 45.8766 174.729 44.796 176.973 44.796C179.217 44.796 183.65 45.8766 183.704 47.8396C182.958 48.8023 181.955 49.5915 180.782 50.139C179.61 50.6866 178.302 50.9761 176.973 50.9824Z" fill="#3F3D56"/>
<path d="M388.449 0C386.23 0 384.061 0.575654 382.216 1.65416C380.372 2.73267 378.934 4.26559 378.084 6.05909C377.235 7.85258 377.013 9.82609 377.446 11.73C377.879 13.634 378.947 15.3829 380.516 16.7556C382.085 18.1283 384.084 19.0631 386.261 19.4418C388.437 19.8205 390.693 19.6261 392.743 18.8833C394.793 18.1404 396.545 16.8823 397.777 15.2682C399.01 13.6541 399.668 11.7565 399.668 9.8152C399.659 7.21439 398.475 4.72227 396.373 2.88321C394.271 1.04416 391.422 0.00761286 388.449 0ZM388.449 2.94456C389.115 2.94456 389.766 3.11726 390.319 3.44081C390.873 3.76436 391.304 4.22424 391.559 4.76229C391.814 5.30033 391.88 5.89239 391.75 6.46357C391.62 7.03476 391.3 7.55943 390.829 7.97124C390.358 8.38304 389.759 8.66348 389.106 8.7771C388.453 8.89071 387.776 8.8324 387.161 8.60954C386.546 8.38667 386.021 8.00926 385.651 7.52503C385.281 7.0408 385.084 6.4715 385.084 5.88912C385.087 5.10897 385.442 4.36153 386.073 3.80988C386.703 3.25823 387.558 2.94716 388.449 2.94456ZM388.449 17.12C387.12 17.1147 385.812 16.8256 384.639 16.278C383.466 15.7303 382.463 14.9406 381.718 13.9772C381.772 12.0142 386.206 10.9336 388.449 10.9336C390.693 10.9336 395.127 12.0142 395.181 13.9772C394.435 14.9398 393.432 15.7291 392.259 16.2766C391.086 16.8242 389.779 17.1136 388.449 17.12Z" fill="#3F3D56"/>
<path d="M517.465 107.476C515.246 107.476 513.077 108.052 511.232 109.131C509.387 110.209 507.949 111.742 507.1 113.535C506.251 115.329 506.029 117.302 506.462 119.206C506.895 121.11 507.963 122.859 509.532 124.232C511.101 125.605 513.1 126.539 515.276 126.918C517.452 127.297 519.708 127.103 521.758 126.36C523.808 125.617 525.56 124.359 526.793 122.745C528.026 121.131 528.684 119.233 528.684 117.292C528.675 114.691 527.49 112.199 525.388 110.36C523.286 108.521 520.438 107.484 517.465 107.476ZM517.465 110.421C518.131 110.421 518.781 110.594 519.335 110.917C519.888 111.241 520.32 111.701 520.574 112.239C520.829 112.777 520.896 113.369 520.766 113.94C520.636 114.511 520.315 115.036 519.845 115.448C519.374 115.859 518.774 116.14 518.122 116.253C517.469 116.367 516.792 116.309 516.177 116.086C515.562 115.863 515.036 115.486 514.666 115.001C514.297 114.517 514.099 113.948 514.099 113.365C514.102 112.585 514.458 111.838 515.088 111.286C515.719 110.735 516.573 110.424 517.465 110.421ZM517.465 124.596C516.135 124.591 514.827 124.302 513.654 123.754C512.481 123.207 511.479 122.417 510.734 121.454C510.788 119.491 515.221 118.41 517.465 118.41C519.709 118.41 524.142 119.491 524.196 121.454C523.45 122.416 522.447 123.205 521.275 123.753C520.102 124.301 518.794 124.59 517.465 124.596Z" fill="#3F3D56"/>
<path d="M538.781 173.729C536.562 173.729 534.393 174.305 532.548 175.383C530.704 176.462 529.266 177.995 528.416 179.788C527.567 181.582 527.345 183.555 527.778 185.459C528.211 187.363 529.279 189.112 530.848 190.485C532.417 191.857 534.416 192.792 536.593 193.171C538.769 193.549 541.025 193.355 543.075 192.612C545.125 191.869 546.877 190.611 548.109 188.997C549.342 187.383 550 185.485 550 183.544C549.991 180.943 548.807 178.451 546.705 176.612C544.603 174.773 541.754 173.737 538.781 173.729ZM538.781 176.674C539.447 176.674 540.098 176.846 540.651 177.17C541.205 177.493 541.636 177.953 541.891 178.491C542.146 179.029 542.212 179.621 542.082 180.193C541.952 180.764 541.632 181.288 541.161 181.7C540.69 182.112 540.091 182.392 539.438 182.506C538.785 182.62 538.108 182.561 537.493 182.339C536.878 182.116 536.353 181.738 535.983 181.254C535.613 180.77 535.416 180.2 535.416 179.618C535.419 178.838 535.774 178.09 536.405 177.539C537.035 176.987 537.89 176.676 538.781 176.674ZM538.781 190.849C537.452 190.844 536.144 190.555 534.971 190.007C533.798 189.459 532.795 188.67 532.05 187.706C532.104 185.743 536.538 184.663 538.781 184.663C541.025 184.663 545.459 185.743 545.513 187.706C544.767 188.669 543.764 189.458 542.591 190.006C541.418 190.553 540.111 190.843 538.781 190.849Z" fill="#3F3D56"/>
<path d="M288.757 173.565L287.607 177.597C288.91 177.881 292.927 179.04 293.578 176.759C294.256 174.38 290.06 173.849 288.757 173.565Z" fill="black"/>
<path d="M287.027 179.632L285.76 184.077C287.324 184.417 292.15 185.772 292.864 183.265C293.609 180.65 288.592 179.973 287.027 179.632Z" fill="black"/>
<path d="M293.953 161.564C289.917 160.683 285.674 160.87 281.759 162.099C277.844 163.329 274.434 165.547 271.959 168.472C269.485 171.397 268.058 174.899 267.858 178.534C267.659 182.169 268.695 185.774 270.838 188.893C272.98 192.013 276.131 194.506 279.893 196.059C283.655 197.611 287.859 198.153 291.973 197.615C296.087 197.077 299.926 195.484 303.005 193.038C306.084 190.591 308.265 187.4 309.272 183.869C309.94 181.525 310.074 179.088 309.667 176.698C309.259 174.308 308.316 172.012 306.894 169.94C305.471 167.869 303.596 166.063 301.376 164.626C299.156 163.189 296.633 162.148 293.953 161.564ZM298.139 176.796C297.836 178.588 296.7 179.456 295.192 179.76C297.262 180.703 298.316 182.15 297.312 184.657C296.067 187.771 293.107 188.034 289.172 187.383L288.217 190.732L285.908 190.229L286.851 186.924C286.236 186.791 285.623 186.652 285.011 186.507L284.066 189.827L281.76 189.323L282.715 185.968C282.176 185.848 281.629 185.719 281.07 185.597L278.067 184.941L279.212 182.63C279.212 182.63 280.913 183.026 280.89 182.997C280.996 183.026 281.107 183.037 281.217 183.029C281.327 183.021 281.435 182.994 281.533 182.949C281.631 182.905 281.719 182.844 281.79 182.769C281.861 182.695 281.914 182.609 281.947 182.517L283.457 177.223C283.542 177.241 283.624 177.259 283.7 177.276C283.622 177.249 283.542 177.227 283.461 177.209L284.537 173.429C284.569 173.15 284.475 172.87 284.274 172.65C284.073 172.431 283.781 172.289 283.462 172.256C283.498 172.234 281.786 171.891 281.786 171.891L282.4 169.734L285.584 170.429L285.581 170.44C286.059 170.544 286.552 170.642 287.055 170.742L288.001 167.426L290.307 167.929L289.381 171.181C290 171.304 290.623 171.429 291.23 171.561L292.15 168.331L294.458 168.834L293.513 172.152C296.426 173.03 298.558 174.346 298.139 176.796Z" fill="black"/>
<path d="M85.263 359.871C83.6669 372.57 -0.126831 371.504 0.00014416 359.87C1.59624 347.172 85.39 348.238 85.263 359.871Z" fill="#2E4130" fill-opacity="0.52"/>
<path d="M58.1992 327.904L61.5963 334.343L67.8233 333.848L71.7864 322.456L65.5588 319.484L58.1992 327.904Z" fill="#FFB8B8"/>
<path d="M36.8216 342.733L36.6875 347.22L46.3116 347.716V342.268L36.8216 342.733Z" fill="#FFB8B8"/>
<path d="M40.084 261.039L42.3485 300.662L36.6875 343.753L53.6711 345.734L64.4278 291.252L67.8243 254.105L40.084 261.039Z" fill="#2F2E41"/>
<path d="M13.4755 246.675C13.4755 246.675 6.68195 285.804 20.8351 298.681C34.9883 311.559 54.2366 334.343 54.2366 334.343L67.8237 319.484L33.2899 287.29L40.0835 265.497L67.8237 254.105L63.2947 226.863L22.5335 226.368L13.4755 246.675Z" fill="#2F2E41"/>
<path d="M46.8767 156.036C53.7553 156.036 59.3315 151.157 59.3315 145.14C59.3315 139.122 53.7553 134.243 46.8767 134.243C39.9981 134.243 34.4219 139.122 34.4219 145.14C34.4219 151.157 39.9981 156.036 46.8767 156.036Z" fill="#FFB8B8"/>
<path d="M36.1217 147.616C36.1217 147.616 35.5556 162.97 32.7249 164.951C29.8943 166.933 42.9152 175.353 42.9152 175.353L51.4071 163.465V152.569L36.1217 147.616Z" fill="#FFB8B8"/>
<path d="M41.7829 168.418L34.9097 159.338L31.0263 163.961L25.3652 177.829L29.8943 231.816L56.502 232.311L59.8991 170.4L51.407 161.485L41.7829 168.418Z" fill="#D0CDE1"/>
<path d="M70.6554 171.886L75.1844 171.39C75.1844 171.39 76.3167 171.886 76.8828 175.353C77.4489 178.82 84.2425 209.528 84.2425 209.528L75.1844 247.171L64.9941 235.283L71.2215 214.481L64.9941 193.679L70.6554 171.886Z" fill="#2F2E41"/>
<path d="M12.9101 171.39H9.51302L1.02148 211.509L8.94703 242.713L16.8726 231.321L14.6081 218.939L15.7406 208.042L19.7037 201.603L12.9101 171.39Z" fill="#2F2E41"/>
<path d="M63.2952 332.362C63.2952 332.362 59.8984 331.371 59.8984 333.352C59.8984 335.333 62.163 341.277 62.163 341.277C62.163 341.277 58.7662 359.603 63.8613 358.612C68.9565 357.622 72.9194 349.202 73.4855 346.725C74.0516 344.249 76.8823 331.371 76.8823 331.371C76.8823 331.371 81.4113 321.96 78.5806 321.465C75.75 320.97 67.8242 318.989 67.8242 318.989C67.8242 318.989 72.3532 331.371 63.2952 332.362Z" fill="#2F2E41"/>
<path d="M46.878 347.716C46.878 347.716 37.82 342.763 36.1216 346.725C34.9952 349.615 34.2358 352.605 33.8571 355.641C33.8571 355.641 31.5926 362.079 40.6506 361.089C49.7087 360.098 48.5764 360.098 49.1425 357.126C49.7087 354.155 46.878 347.716 46.878 347.716Z" fill="#2F2E41"/>
<path d="M39.518 145.14L41.7826 144.644C41.7826 144.644 43.4809 136.224 47.4438 137.215C51.4067 138.205 61.597 139.196 61.597 135.234C61.597 131.271 51.9728 127.804 46.3116 128.299C40.6503 128.795 31.0261 130.281 31.5923 137.71C32.1584 145.139 35.8115 152.367 35.8115 152.367L36.1065 147.962L39.518 145.14Z" fill="#2F2E41"/>
<path d="M51.4073 174.362L41.7832 168.418L51.4073 161.484L54.7488 164.992L51.4073 174.362Z" fill="#D0CDE1"/>
<path d="M33.2899 173.867L41.782 168.418L34.9884 159.503L31.0254 163.961L33.2899 173.867Z" fill="#D0CDE1"/>
<path d="M74.6176 171.39L56.5015 164.951L52.2556 162.227L39.5177 211.509L31.0258 189.221L33.5734 160.741L10.0791 171.39L18.0049 205.07L19.1372 217.948L15.7404 228.349C15.7404 228.349 3.85172 235.779 7.81461 243.704C11.7775 251.628 16.3065 252.124 16.3065 252.124C16.3065 252.124 35.5548 236.274 36.6871 232.312C37.8194 228.349 39.5177 221.415 39.5177 221.415C39.5177 221.415 49.1419 253.114 60.4644 252.619C71.787 252.124 71.787 241.722 71.787 241.722L68.9564 230.826L64.4273 219.434L66.6919 200.613L74.6176 171.39Z" fill="#2F2E41"/>
</g>
<defs>
<clipPath id="clip0_248_10371">
<rect width="550" height="369" fill="white"/>
</clipPath>
</defs>
</svg>
