<svg viewBox="0 0 628 453" fill="none" xmlns="http://www.w3.org/2000/svg">
<g clip-path="url(#clip0_326_6594)">
<path d="M318.31 74.1946L323.159 52.7491L311.206 49.5169L306.461 70.3806C303.337 69.5241 300.124 68.7645 296.926 67.9242L301.701 46.9151L289.808 43.6829L284.93 65.0961C282.336 64.4496 279.806 63.7978 277.34 63.1406L260.937 58.6478L257.769 72.5785C257.769 72.5785 266.405 74.7441 266.405 74.938C271.224 76.2632 272.093 79.7863 271.946 82.5175L266.39 106.937C266.812 107.048 267.226 107.194 267.628 107.373L266.375 107.034L258.594 141.23C258.425 141.826 258.151 142.379 257.787 142.857C257.422 143.336 256.975 143.731 256.471 144.019C255.967 144.308 255.416 144.484 254.849 144.538C254.283 144.592 253.712 144.522 253.17 144.333H253.141C253.259 144.527 244.491 141.973 244.491 141.973L238.596 156.906L254.07 161.14C257.017 161.932 259.773 162.756 262.544 163.532L257.621 185.204L269.5 188.436L274.378 166.991C277.532 167.928 280.7 168.817 283.854 169.689L278.99 191.038L290.883 194.27L295.806 172.631C316.085 176.832 331.353 175.136 337.763 155.031C342.936 138.871 337.513 129.497 326.828 123.405C334.595 121.433 340.46 115.841 342.023 104.254L342.155 104.189C344.307 88.3677 333.312 79.8671 318.31 74.1946ZM314.979 145.981C311.31 162.142 286.433 153.415 278.372 151.234L284.901 122.516C292.932 124.73 318.797 129.093 314.95 145.981H314.979ZM318.664 103.963C315.304 118.702 294.612 111.203 287.892 109.377L293.787 83.3417C300.493 85.1679 322.127 88.594 318.575 103.963H318.664Z" fill="#0CBC8B"/>
<path d="M292.914 240.992C271.181 240.992 249.936 233.925 231.866 220.684C213.796 207.444 199.712 188.625 191.396 166.607C183.079 144.59 180.903 120.362 185.143 96.9882C189.383 73.6143 199.848 52.1441 215.215 35.2924C230.582 18.4408 250.162 6.9647 271.477 2.31534C292.792 -2.33401 314.886 0.0522127 334.964 9.17225C355.042 18.2923 372.204 33.7365 384.278 53.5519C396.352 73.3674 402.796 96.664 402.796 120.496C402.763 152.442 391.176 183.07 370.576 205.659C349.976 228.249 322.046 240.955 292.914 240.992ZM292.914 3.23223C271.764 3.23223 251.089 10.1096 233.504 22.9947C215.918 35.8798 202.212 54.1939 194.119 75.621C186.025 97.0481 183.907 120.626 188.034 143.373C192.16 166.12 202.344 187.014 217.299 203.414C232.254 219.813 251.308 230.982 272.052 235.506C292.795 240.031 314.296 237.709 333.836 228.833C353.376 219.958 370.077 204.928 381.827 185.644C393.577 166.36 399.849 143.688 399.849 120.496C399.817 89.4063 388.54 59.6003 368.493 37.6167C348.446 15.6332 321.265 3.26737 292.914 3.23223ZM289.227 195.597L274.473 191.586L279.337 170.235C277.132 169.625 274.914 168.994 272.714 168.349L267.843 189.763L253.105 185.752L258.03 164.066C257.455 163.902 256.878 163.737 256.3 163.571C254.57 163.074 252.817 162.571 250.989 162.079L233.822 157.382L240.912 139.424L242.138 139.781C243.836 140.275 245.628 140.788 247.122 141.206L246.915 140.865L250.834 142.154C251.194 142.284 251.574 142.335 251.952 142.302C252.33 142.27 252.698 142.156 253.035 141.966C253.372 141.776 253.671 141.515 253.916 141.198C254.16 140.88 254.344 140.512 254.458 140.116L261.881 107.483L261.874 107.48L267.752 81.648C267.868 78.6163 266.416 76.7271 263.316 75.8757L260.008 74.9658L260.09 74.9082C258.525 74.4924 256.561 73.9874 254.711 73.5241L253.245 73.1572L257.134 56.0581L274.967 60.9426C276.968 61.4808 279.019 62.0124 281.12 62.5374L286.005 41.0958L300.758 45.1053L295.987 66.0979C296.826 66.3125 297.665 66.5248 298.503 66.7347C299.896 67.0858 301.283 67.4346 302.657 67.7976L307.402 46.932L322.214 50.9375L317.333 72.5268C329.032 77.1265 343.385 85.3947 340.883 103.797L340.763 104.676L340.621 104.744C339.16 114.062 334.848 120.265 327.779 123.236C338.099 130.47 340.924 140.876 336.424 154.936C329.316 177.228 311.25 177.224 294.171 173.865L289.227 195.597ZM278.048 189.229L287.08 191.683L291.983 170.13L293.349 170.413C316.679 175.246 328.353 170.453 333.642 153.868C338.043 140.118 334.794 130.695 323.418 124.208L319.874 122.187L323.766 121.2C331.895 119.136 336.497 113.31 337.834 103.387L337.953 102.508L338.073 102.45C339.394 90.045 332.268 81.5834 315.1 75.0922L313.825 74.6109L318.643 53.3003L309.551 50.8422L304.804 71.711L303.373 71.3188C301.553 70.8193 299.703 70.3537 297.843 69.8858C296.515 69.5512 295.183 69.2158 293.852 68.8662L292.406 68.4859L297.184 47.4648L288.151 45.0099L283.28 66.3931L281.873 66.042C279.27 65.3925 276.728 64.7446 274.259 64.0802L259.28 59.9769L256.832 70.7403C259.279 71.2709 261.699 71.9428 264.081 72.7533C268.53 73.9961 270.937 77.357 270.687 81.9827L270.646 82.2786L265.423 105.232L265.44 105.24L265.09 106.698L265.021 106.679L264.994 106.772L265.075 106.795L257.294 140.991C257.075 141.801 256.711 142.554 256.224 143.208C255.737 143.861 255.136 144.402 254.456 144.799C253.776 145.195 253.032 145.439 252.265 145.517C251.498 145.595 250.725 145.505 249.991 145.252L249.995 145.237C248.868 145.07 246.779 144.475 242.609 143.262L237.908 155.169L251.696 158.942C253.534 159.436 255.302 159.943 257.046 160.444C258.095 160.745 259.136 161.044 260.178 161.336L261.598 161.733L256.677 183.395L265.696 185.849L270.582 164.369L272.033 164.8C275.162 165.731 278.34 166.636 281.479 167.49L282.911 167.881L278.048 189.229ZM297.584 156.53C290.452 156.53 282.632 154.277 277.6 152.827C276.729 152.576 275.951 152.352 275.288 152.172L273.854 151.784L281.097 119.923L282.53 120.318C283.339 120.542 284.332 120.786 285.458 121.065C293.659 123.09 307.383 126.48 312.307 135.243C313.747 137.775 314.342 140.776 313.989 143.735H314.106L313.68 145.742C313.331 147.443 312.668 149.047 311.73 150.455C310.792 151.863 309.6 153.045 308.228 153.926C305.288 155.836 301.541 156.53 297.584 156.53ZM277.426 149.435C277.72 149.52 278.028 149.608 278.349 149.701C285.23 151.685 299.547 155.808 306.725 151.146C308.581 149.971 309.962 148.071 310.593 145.825L310.79 144.96C311.145 143.621 311.241 142.215 311.07 140.834C310.899 139.452 310.465 138.125 309.798 136.938C305.525 129.335 292.05 126.006 284.81 124.218C284.256 124.081 283.733 123.951 283.247 123.829L277.426 149.435ZM302.944 113.888C297.086 113.888 290.827 112.061 286.779 110.88C286.035 110.663 285.371 110.469 284.807 110.316L283.376 109.927L289.982 80.7541L291.412 81.1431C292.075 81.3238 292.887 81.5203 293.806 81.7428C300.534 83.3715 311.795 86.0987 316.062 93.6859C317.415 96.0836 317.965 98.9227 317.619 101.717H317.733L317.364 103.725C317.037 105.357 316.407 106.899 315.513 108.253C314.619 109.607 313.481 110.744 312.169 111.595C309.332 113.239 306.149 114.031 302.944 113.888ZM286.944 107.584C287.135 107.639 287.333 107.696 287.537 107.756C293.501 109.496 304.6 112.736 310.671 108.811C312.232 107.819 313.434 106.268 314.074 104.419L314.417 102.936C314.764 101.681 314.867 100.36 314.718 99.0587C314.569 97.7575 314.172 96.5052 313.553 95.3833C309.941 88.9591 299.032 86.318 293.171 84.8992C292.809 84.8116 292.464 84.7279 292.137 84.6474L286.944 107.584Z" fill="#3F3D56"/>
<path d="M349.471 215.167C350.256 213.956 351.288 212.964 352.485 212.268C353.682 211.573 355.011 211.194 356.365 211.161C357.719 211.129 359.061 211.444 360.285 212.081C361.508 212.719 362.579 213.661 363.411 214.833L392.629 203.943L388.578 220.958L361.454 228.691C359.755 229.953 357.706 230.518 355.665 230.289C353.625 230.06 351.723 229.05 350.293 227.436C348.864 225.823 347.998 223.709 347.848 221.465C347.697 219.222 348.272 216.992 349.471 215.167Z" fill="#FFB8B8"/>
<path d="M578.968 451.64C581.122 426.21 587.069 401.341 596.572 378.026C599.221 371.537 602.136 365.192 605.318 358.989C606.135 357.393 603.898 355.959 603.081 357.555C591.51 380.147 583.403 404.671 579.086 430.146C577.885 437.26 576.982 444.425 576.378 451.64C576.224 453.459 578.816 453.448 578.968 451.64Z" fill="#E6E6E6"/>
<path d="M611.592 363.545C620.653 363.545 627.999 355.489 627.999 345.552C627.999 335.615 620.653 327.56 611.592 327.56C602.53 327.56 595.184 335.615 595.184 345.552C595.184 355.489 602.53 363.545 611.592 363.545Z" fill="#E6E6E6"/>
<path d="M580.646 452.117C582.043 435.62 585.901 419.487 592.066 404.361C593.785 400.151 595.676 396.034 597.74 392.01C597.844 391.8 597.868 391.554 597.81 391.323C597.751 391.093 597.613 390.897 597.424 390.776C597.236 390.656 597.012 390.62 596.801 390.677C596.589 390.733 596.405 390.878 596.289 391.08C588.782 405.737 583.523 421.647 580.722 438.174C579.943 442.789 579.357 447.437 578.965 452.117C578.866 453.298 580.547 453.29 580.646 452.117Z" fill="#E6E6E6"/>
<path d="M601.811 394.966C607.689 394.966 612.455 389.74 612.455 383.294C612.455 376.847 607.689 371.621 601.811 371.621C595.932 371.621 591.166 376.847 591.166 383.294C591.166 389.74 595.932 394.966 601.811 394.966Z" fill="#E6E6E6"/>
<path d="M578.524 451.016C570.372 437.066 564.365 421.742 560.743 405.658C559.736 401.18 558.919 396.658 558.289 392.093C558.253 391.857 558.134 391.646 557.959 391.504C557.783 391.363 557.564 391.301 557.348 391.333C557.132 391.365 556.936 391.487 556.8 391.675C556.665 391.863 556.602 392.1 556.623 392.338C558.925 408.958 563.702 425.05 570.763 439.97C572.737 444.135 574.883 448.194 577.199 452.149C577.782 453.147 579.104 452.007 578.524 451.016Z" fill="#E6E6E6"/>
<path d="M556.611 394.147C562.49 394.147 567.256 388.921 567.256 382.474C567.256 376.028 562.49 370.802 556.611 370.802C550.733 370.802 545.967 376.028 545.967 382.474C545.967 388.921 550.733 394.147 556.611 394.147Z" fill="#E6E6E6"/>
<path d="M493.369 282.699C494.068 281.537 494.526 280.221 494.711 278.843C494.896 277.466 494.803 276.061 494.44 274.727C494.076 273.393 493.45 272.163 492.606 271.123C491.761 270.084 490.72 269.26 489.554 268.709L491.791 234.958L477.799 243.549L477.819 274.283C477.106 276.492 477.156 278.912 477.961 281.083C478.765 283.255 480.268 285.027 482.185 286.064C484.102 287.102 486.299 287.332 488.36 286.712C490.421 286.092 492.203 284.664 493.369 282.699Z" fill="#FFB8B8"/>
<path d="M489.888 151.498L493.713 258.903L478.169 257.956L474.715 145.265L477.993 143.573C479.24 142.929 480.613 142.635 481.99 142.715C483.366 142.795 484.703 143.248 485.881 144.032C487.059 144.817 488.041 145.91 488.741 147.212C489.44 148.515 489.834 149.987 489.888 151.498Z" fill="#0CBC8B"/>
<path d="M441.815 441.518L431.228 441.517L426.191 396.736L441.817 396.737L441.815 441.518Z" fill="#FFB8B8"/>
<path d="M423.665 438.2H444.083V452.298H410.809C410.809 450.446 411.141 448.613 411.787 446.903C412.433 445.192 413.38 443.638 414.574 442.329C415.768 441.02 417.185 439.982 418.745 439.273C420.305 438.565 421.976 438.2 423.665 438.2Z" fill="#2F2E41"/>
<path d="M529.902 427.643L520.294 432.521L498.566 394.204L512.746 387.006L529.902 427.643Z" fill="#FFB8B8"/>
<path d="M512.161 432.994L530.69 423.588L536.09 436.381L505.895 451.71C504.463 448.317 504.318 444.439 505.493 440.929C506.668 437.419 509.066 434.565 512.161 432.994Z" fill="#2F2E41"/>
<path d="M416.677 295.372L427.596 432.012L442.277 430.118L453.127 305.305L513.09 424.436L528.634 419.701C528.634 419.701 478.602 255.589 474.716 241.857C470.456 226.805 436.719 221.024 436.719 221.024L435.423 219.603C420.927 241.003 415.12 268.769 416.677 295.372Z" fill="#2F2E41"/>
<path d="M474.845 131.719C486.559 131.719 496.055 121.305 496.055 108.46C496.055 95.6142 486.559 85.2008 474.845 85.2008C463.131 85.2008 453.635 95.6142 453.635 108.46C453.635 121.305 463.131 131.719 474.845 131.719Z" fill="#FFB8B8"/>
<path d="M488.161 153.338L473.42 237.592C473.42 237.592 451.019 232.686 443.039 226.777C439.879 224.428 437.012 222.004 434.593 219.807C434.119 219.381 433.67 218.955 433.229 218.548C429.24 214.807 426.787 212.023 426.787 212.023C426.787 212.023 428.065 205.157 429.628 197.032C431.372 187.932 433.488 177.24 434.568 172.875C436.943 163.3 445.095 152.145 451.45 144.55C453.752 141.796 456.693 139.78 459.959 138.719C463.226 137.658 466.694 137.592 469.992 138.527L481.494 141.785C483.737 142.419 485.675 143.967 486.914 146.114C488.153 148.26 488.599 150.844 488.161 153.338Z" fill="#0CBC8B"/>
<path opacity="0.2" d="M452.513 190.138C452.513 190.138 444.585 208.207 433.229 218.548C429.24 214.807 426.787 212.023 426.787 212.023C426.787 212.023 428.065 205.157 429.628 197.032C439.145 191.521 448.955 188.045 452.513 190.138Z" fill="black"/>
<path d="M466.571 157.064C465.788 156.627 464.969 156.27 464.126 155.999C462.404 155.482 460.592 155.441 458.852 155.881C457.111 156.321 455.498 157.227 454.156 158.519L407.56 195.946L370.5 209.616L377.196 226.984L432.444 212.189L469.085 176.48C470.346 175.154 471.301 173.518 471.872 171.707C472.442 169.896 472.611 167.963 472.366 166.066C472.12 164.169 471.466 162.363 470.459 160.798C469.451 159.233 468.118 157.953 466.571 157.064Z" fill="#0CBC8B"/>
<path d="M476.099 131.505C479.118 126.55 481.5 119.679 478.176 114.965C474.896 110.311 468.425 110.997 463.4 108.937C456.402 106.069 452.343 97.0534 453.609 88.9791C454.875 80.9048 460.785 74.2114 467.827 71.4727C474.868 68.734 482.808 69.6247 489.704 72.7785C498.192 76.6608 505.474 84.171 508.527 93.6844C511.58 103.198 509.948 114.62 503.614 121.933C496.823 129.772 486.165 131.861 476.305 131.735" fill="#2F2E41"/>
<path d="M509.406 104.08C510.271 109.375 515.567 112.382 520.435 113.043C525.303 113.704 530.338 112.856 535.077 114.245C543.431 116.692 548.942 125.502 551.974 134.383C555.007 143.263 556.352 152.847 560.293 161.288C564.233 169.729 571.874 177.17 580.491 176.381C578.803 181.041 575.845 185.017 572.02 187.766C568.195 190.515 563.69 191.903 559.119 191.741C554.548 191.578 550.135 189.873 546.48 186.858C542.826 183.843 540.108 179.665 538.699 174.895C535.533 164.178 539.167 151.397 533.631 141.908C530.568 136.657 525.278 133.568 520.177 130.816C515.077 128.064 509.723 125.239 506.303 120.259C502.884 115.28 502.2 107.415 506.415 103.232" fill="#2F2E41"/>
<path d="M612.693 452.796H336.095C335.822 452.796 335.56 452.677 335.368 452.466C335.175 452.254 335.066 451.967 335.066 451.668C335.066 451.369 335.175 451.083 335.368 450.871C335.56 450.66 335.822 450.541 336.095 450.541H612.693C612.965 450.541 613.227 450.66 613.42 450.871C613.612 451.083 613.721 451.369 613.721 451.668C613.721 451.967 613.612 452.254 613.42 452.466C613.227 452.677 612.965 452.796 612.693 452.796Z" fill="#3F3D56"/>
<path d="M277.626 452.796H1.02825C0.755543 452.796 0.493995 452.677 0.301163 452.466C0.10833 452.254 0 451.967 0 451.668C0 451.369 0.10833 451.083 0.301163 450.871C0.493995 450.66 0.755543 450.541 1.02825 450.541H277.626C277.899 450.541 278.16 450.66 278.353 450.871C278.546 451.083 278.654 451.369 278.654 451.668C278.654 451.967 278.546 452.254 278.353 452.466C278.16 452.677 277.899 452.796 277.626 452.796Z" fill="#3F3D56"/>
<path d="M177.725 440.475L187.846 437.069L180.682 392.637L165.744 397.665L177.725 440.475Z" fill="#A0616A"/>
<path d="M210.25 440.806L178.44 451.511L174.668 438.034L194.188 431.465C197.448 430.368 200.971 430.736 203.983 432.487C206.995 434.239 209.25 437.232 210.25 440.806Z" fill="#2F2E41"/>
<path d="M87.9138 440.73H98.5013L103.538 395.949L87.9121 395.95L87.9138 440.73Z" fill="#A0616A"/>
<path d="M118.92 451.509L85.6457 451.511L85.6452 437.413L106.063 437.412C109.473 437.412 112.743 438.897 115.154 441.541C117.565 444.185 118.92 447.77 118.92 451.509Z" fill="#2F2E41"/>
<path d="M90.6085 291.98C89.7387 291.144 89.0467 290.109 88.5812 288.948C88.1156 287.787 87.888 286.528 87.9141 285.26C87.9403 283.991 88.2197 282.745 88.7327 281.608C89.2457 280.471 89.9797 279.472 90.8832 278.679L99.0918 165.33L115.785 169.904L102.419 280.473C103.532 282.225 104.02 284.364 103.791 286.485C103.562 288.606 102.631 290.561 101.175 291.979C99.7192 293.398 97.8395 294.181 95.892 294.181C93.9446 294.182 92.0646 293.399 90.6085 291.98Z" fill="#A0616A"/>
<path d="M130.083 122.314C141.797 122.314 151.294 111.901 151.294 99.0555C151.294 86.2099 141.797 75.7965 130.083 75.7965C118.369 75.7965 108.873 86.2099 108.873 99.0555C108.873 111.901 118.369 122.314 130.083 122.314Z" fill="#A0616A"/>
<path d="M101.114 167.579C96.0736 159.991 95.9183 149.54 101.348 142.282C104.891 137.545 110.818 133.755 120.714 133.755C147.09 133.755 157.095 156.694 157.095 156.694C157.095 156.694 168.009 178.636 161.642 198.583C155.276 218.531 155.276 220.526 155.276 220.526L113.438 216.536C113.438 216.536 120.496 196.757 101.114 167.579Z" fill="#CCCCCC"/>
<path d="M88.2129 187.435L97.2259 155.1C97.8296 152.934 98.8595 150.941 100.243 149.26C101.626 147.58 103.33 146.253 105.232 145.373C107.135 144.494 109.19 144.083 111.253 144.17C113.316 144.258 115.337 144.841 117.172 145.879C120.355 147.687 122.793 150.755 123.99 154.461C125.187 158.167 125.054 162.233 123.618 165.836L112.16 194.452L88.2129 187.435Z" fill="#CCCCCC"/>
<path d="M154.367 215.539L189.838 417.007L170.738 422.991L124.353 290.341L103.434 425.984L83.4242 428.976C83.4242 428.976 74.647 249.504 113.438 216.536L154.367 215.539Z" fill="#2F2E41"/>
<path d="M202.041 194.627C201.733 195.029 201.455 195.456 201.209 195.905L158.432 198.179L150.195 170.604L135.893 178.058L149.354 219.13L202.258 207.784C203.501 209.273 205.128 210.311 206.923 210.76C208.717 211.21 210.593 211.05 212.303 210.302C214.012 209.553 215.473 208.252 216.492 206.571C217.51 204.89 218.038 202.909 218.004 200.891C217.971 198.873 217.378 196.914 216.305 195.274C215.231 193.635 213.728 192.392 211.995 191.712C210.262 191.032 208.382 190.947 206.603 191.468C204.825 191.989 203.234 193.091 202.041 194.627Z" fill="#A0616A"/>
<path d="M129.448 159.591C129.207 157.342 129.419 155.063 130.069 152.914C130.72 150.765 131.793 148.799 133.212 147.155C134.632 145.511 136.363 144.228 138.284 143.399C140.205 142.569 142.269 142.213 144.33 142.354C147.908 142.606 151.265 144.34 153.72 147.206C156.174 150.071 157.544 153.853 157.55 157.785V189.037L133.051 193.171L129.448 159.591Z" fill="#CCCCCC"/>
<path d="M134.75 122.525C131.566 122.51 129.11 118.835 129.253 115.347C129.396 111.86 131.532 108.791 134.105 106.736C136.679 104.681 139.697 103.43 142.566 101.919C145.436 100.408 148.281 98.5232 150.053 95.623C151.123 93.7247 151.762 91.5723 151.916 89.3468C152.07 87.1214 151.734 84.8879 150.937 82.8345C149.288 78.7275 146.457 75.3265 142.877 73.1523C137.55 69.7663 131.265 68.6766 125.245 70.0954C119.297 71.5265 110.431 75.4887 106.946 80.9653L103.312 91.8158C99.609 96.6986 102.476 103.95 104.752 109.789C107.028 115.629 111.875 120.022 117.344 122.111C122.893 124.066 128.833 124.262 134.478 122.674" fill="#2F2E41"/>
<path d="M115.364 86.3881C113.802 83.6425 111.094 81.8963 108.295 80.8715C105.052 79.6843 101.603 79.3339 98.2166 79.8475C94.83 80.3612 91.5972 81.7251 88.7699 83.8331C85.9426 85.941 83.5972 88.7361 81.9162 92.0007C80.2352 95.2653 79.264 98.9113 79.0783 102.655C78.7816 108.634 80.4891 114.482 81.4924 120.368C82.4957 126.255 82.6952 132.756 79.7355 137.789C77.4811 141.622 73.7216 144.036 70.0109 146.097C66.9182 147.814 63.5729 149.426 60.1202 149.084C56.6676 148.742 53.1975 145.743 53.2891 141.942C52.1332 144.667 51.3528 147.565 50.9733 150.541C50.7304 153.53 51.4021 156.755 53.3706 158.839C56.2317 161.868 60.765 161.646 64.697 160.993C73.2092 159.578 81.8287 156.925 88.5537 151.03C95.2786 145.135 99.741 135.429 97.97 126.189C97.2302 122.33 95.4916 118.807 94.0867 115.176C92.6818 111.546 91.585 107.575 92.2304 103.695C92.6124 101.696 93.3898 99.8137 94.5078 98.1804C95.6258 96.5471 97.0571 95.2028 98.7007 94.2424C102.025 92.3472 105.828 91.7147 109.515 92.4441C111.932 92.8791 114.95 93.5545 116.384 91.3765C116.764 90.6865 116.958 89.8927 116.944 89.0868C116.929 88.281 116.707 87.496 116.303 86.8228C115.476 85.4911 114.423 84.3467 113.201 83.4519" fill="#2F2E41"/>
</g>
<defs>
<clipPath id="clip0_326_6594">
<rect width="628" height="453" fill="white"/>
</clipPath>
</defs>
</svg>
