<svg  viewBox="0 0 1440 1022" fill="none" xmlns="http://www.w3.org/2000/svg">
<g opacity="0.3" clip-path="url(#clip0_200_2566)">
<path d="M318.592 697.529C335.638 697.529 349.457 682.706 349.457 664.422C349.457 646.137 335.638 631.315 318.592 631.315C301.545 631.315 287.727 646.137 287.727 664.422C287.727 682.706 301.545 697.529 318.592 697.529Z" fill="#A7233A" fill-opacity="0.3"/>
<path d="M627.242 758.839C636.081 758.839 643.246 751.154 643.246 741.673C643.246 732.192 636.081 724.506 627.242 724.506C618.404 724.506 611.238 732.192 611.238 741.673C611.238 751.154 618.404 758.839 627.242 758.839Z" fill="#A7233A" fill-opacity="0.3"/>
<path d="M541.505 730.637C550.975 730.637 558.652 722.402 558.652 712.244C558.652 702.086 550.975 693.851 541.505 693.851C532.034 693.851 524.357 702.086 524.357 712.244C524.357 722.402 532.034 730.637 541.505 730.637Z" fill="#A7233A" fill-opacity="0.3"/>
<path d="M795.285 695.077C810.437 695.077 822.721 681.901 822.721 665.648C822.721 649.395 810.437 636.22 795.285 636.22C780.133 636.22 767.85 649.395 767.85 665.648C767.85 681.901 780.133 695.077 795.285 695.077Z" fill="#A7233A" fill-opacity="0.3"/>
<path d="M1188.53 543.029C1199.26 543.029 1207.96 533.697 1207.96 522.184C1207.96 510.672 1199.26 501.339 1188.53 501.339C1177.79 501.339 1169.09 510.672 1169.09 522.184C1169.09 533.697 1177.79 543.029 1188.53 543.029Z" fill="#A7233A" fill-opacity="0.3"/>
<path d="M1146.23 202.15C1156.96 202.15 1165.66 192.817 1165.66 181.305C1165.66 169.792 1156.96 160.46 1146.23 160.46C1135.5 160.46 1126.8 169.792 1126.8 181.305C1126.8 192.817 1135.5 202.15 1146.23 202.15Z" fill="#A7233A" fill-opacity="0.3"/>
<path d="M427.191 316.185C442.344 316.185 454.627 303.01 454.627 286.757C454.627 270.504 442.344 257.328 427.191 257.328C412.039 257.328 399.756 270.504 399.756 286.757C399.756 303.01 412.039 316.185 427.191 316.185Z" fill="#A7233A" fill-opacity="0.3"/>
<path d="M852.443 287.982C862.544 287.982 870.733 279.199 870.733 268.363C870.733 257.528 862.544 248.744 852.443 248.744C842.341 248.744 834.152 257.528 834.152 268.363C834.152 279.199 842.341 287.982 852.443 287.982Z" fill="#A7233A" fill-opacity="0.3"/>
<path d="M542.65 812.791C557.171 812.791 568.942 800.165 568.942 784.589C568.942 769.013 557.171 756.386 542.65 756.386C528.129 756.386 516.357 769.013 516.357 784.589C516.357 800.165 528.129 812.791 542.65 812.791Z" fill="#A7233A" fill-opacity="0.3"/>
<path d="M1021.63 571.232C1036.15 571.232 1047.92 558.606 1047.92 543.03C1047.92 527.454 1036.15 514.828 1021.63 514.828C1007.11 514.828 995.336 527.454 995.336 543.03C995.336 558.606 1007.11 571.232 1021.63 571.232Z" fill="#A7233A" fill-opacity="0.3"/>
<path d="M963.326 722.053C976.585 722.053 987.332 710.525 987.332 696.303C987.332 682.082 976.585 670.553 963.326 670.553C950.068 670.553 939.32 682.082 939.32 696.303C939.32 710.525 950.068 722.053 963.326 722.053Z" fill="#A7233A" fill-opacity="0.3"/>
<path d="M584.946 301.47C600.729 301.47 613.525 287.745 613.525 270.815C613.525 253.885 600.729 240.16 584.946 240.16C569.162 240.16 556.367 253.885 556.367 270.815C556.367 287.745 569.162 301.47 584.946 301.47Z" fill="#A7233A" fill-opacity="0.3"/>
<path d="M576.943 550.387C587.044 550.387 595.233 541.603 595.233 530.768C595.233 519.932 587.044 511.149 576.943 511.149C566.841 511.149 558.652 519.932 558.652 530.768C558.652 541.603 566.841 550.387 576.943 550.387Z" fill="#A7233A" fill-opacity="0.3"/>
<path d="M229.427 530.768C238.897 530.768 246.574 522.533 246.574 512.375C246.574 502.217 238.897 493.982 229.427 493.982C219.956 493.982 212.279 502.217 212.279 512.375C212.279 522.533 219.956 530.768 229.427 530.768Z" fill="#A7233A" fill-opacity="0.3"/>
<path d="M994.192 464.553C1003.03 464.553 1010.2 456.868 1010.2 447.387C1010.2 437.906 1003.03 430.22 994.192 430.22C985.353 430.22 978.188 437.906 978.188 447.387C978.188 456.868 985.353 464.553 994.192 464.553Z" fill="#A7233A" fill-opacity="0.3"/>
<path d="M677.541 598.208C692.693 598.208 704.977 585.032 704.977 568.779C704.977 552.526 692.693 539.351 677.541 539.351C662.389 539.351 650.105 552.526 650.105 568.779C650.105 585.032 662.389 598.208 677.541 598.208Z" fill="#A7233A" fill-opacity="0.3"/>
<path d="M765.563 467.006C778.821 467.006 789.569 455.478 789.569 441.256C789.569 427.035 778.821 415.506 765.563 415.506C752.305 415.506 741.557 427.035 741.557 441.256C741.557 455.478 752.305 467.006 765.563 467.006Z" fill="#A7233A" fill-opacity="0.3"/>
<path d="M1121.08 585.947C1129.29 585.947 1135.94 578.81 1135.94 570.007C1135.94 561.203 1129.29 554.066 1121.08 554.066C1112.87 554.066 1106.22 561.203 1106.22 570.007C1106.22 578.81 1112.87 585.947 1121.08 585.947Z" fill="#A7233A" fill-opacity="0.3"/>
<path d="M787.283 795.625C799.91 795.625 810.146 784.645 810.146 771.101C810.146 757.557 799.91 746.577 787.283 746.577C774.656 746.577 764.42 757.557 764.42 771.101C764.42 784.645 774.656 795.625 787.283 795.625Z" fill="#A7233A" fill-opacity="0.3"/>
<path d="M822.72 621.505C834.715 621.505 844.44 611.075 844.44 598.208C844.44 585.341 834.715 574.91 822.72 574.91C810.724 574.91 801 585.341 801 598.208C801 611.075 810.724 621.505 822.72 621.505Z" fill="#A7233A" fill-opacity="0.3"/>
<path d="M1179.38 468.233C1187.59 468.233 1194.24 461.096 1194.24 452.293C1194.24 443.489 1187.59 436.352 1179.38 436.352C1171.17 436.352 1164.52 443.489 1164.52 452.293C1164.52 461.096 1171.17 468.233 1179.38 468.233Z" fill="#A7233A" fill-opacity="0.3"/>
<path d="M432.906 220.542C448.058 220.542 460.342 207.366 460.342 191.113C460.342 174.86 448.058 161.685 432.906 161.685C417.754 161.685 405.471 174.86 405.471 191.113C405.471 207.366 417.754 220.542 432.906 220.542Z" fill="#A7233A" fill-opacity="0.3"/>
<path d="M902.74 567.554C910.947 567.554 917.601 560.417 917.601 551.613C917.601 542.81 910.947 535.673 902.74 535.673C894.532 535.673 887.879 542.81 887.879 551.613C887.879 560.417 894.532 567.554 902.74 567.554Z" fill="#A7233A" fill-opacity="0.3"/>
<path d="M901.597 719.601C911.699 719.601 919.887 710.817 919.887 699.982C919.887 689.147 911.699 680.363 901.597 680.363C891.496 680.363 883.307 689.147 883.307 699.982C883.307 710.817 891.496 719.601 901.597 719.601Z" fill="#A7233A" fill-opacity="0.3"/>
<path d="M508.354 300.244C522.244 300.244 533.504 288.167 533.504 273.268C533.504 258.37 522.244 246.292 508.354 246.292C494.465 246.292 483.205 258.37 483.205 273.268C483.205 288.167 494.465 300.244 508.354 300.244Z" fill="#A7233A" fill-opacity="0.3"/>
<path d="M365.461 424.091C380.613 424.091 392.896 410.915 392.896 394.662C392.896 378.409 380.613 365.234 365.461 365.234C350.309 365.234 338.025 378.409 338.025 394.662C338.025 410.915 350.309 424.091 365.461 424.091Z" fill="#A7233A" fill-opacity="0.3"/>
<path d="M352.887 501.339C368.039 501.339 380.322 488.164 380.322 471.911C380.322 455.658 368.039 442.482 352.887 442.482C337.734 442.482 325.451 455.658 325.451 471.911C325.451 488.164 337.734 501.339 352.887 501.339Z" fill="#A7233A" fill-opacity="0.3"/>
<path d="M1049.06 192.34C1057.27 192.34 1063.92 185.204 1063.92 176.4C1063.92 167.596 1057.27 160.459 1049.06 160.459C1040.85 160.459 1034.2 167.596 1034.2 176.4C1034.2 185.204 1040.85 192.34 1049.06 192.34Z" fill="#A7233A" fill-opacity="0.3"/>
<path d="M1134.8 731.863C1148.06 731.863 1158.81 720.334 1158.81 706.113C1158.81 691.891 1148.06 680.363 1134.8 680.363C1121.54 680.363 1110.79 691.891 1110.79 706.113C1110.79 720.334 1121.54 731.863 1134.8 731.863Z" fill="#A7233A" fill-opacity="0.3"/>
<path d="M1111.94 464.554C1123.3 464.554 1132.51 454.672 1132.51 442.482C1132.51 430.293 1123.3 420.411 1111.94 420.411C1100.57 420.411 1091.36 430.293 1091.36 442.482C1091.36 454.672 1100.57 464.554 1111.94 464.554Z" fill="#A7233A" fill-opacity="0.3"/>
<path d="M696.973 311.28C705.812 311.28 712.977 303.594 712.977 294.113C712.977 284.632 705.812 276.947 696.973 276.947C688.134 276.947 680.969 284.632 680.969 294.113C680.969 303.594 688.134 311.28 696.973 311.28Z" fill="#A7233A" fill-opacity="0.3"/>
<path d="M459.199 739.219C469.3 739.219 477.489 730.436 477.489 719.6C477.489 708.765 469.3 699.981 459.199 699.981C449.097 699.981 440.908 708.765 440.908 719.6C440.908 730.436 449.097 739.219 459.199 739.219Z" fill="#A7233A" fill-opacity="0.3"/>
<path d="M460.341 533.22C472.968 533.22 483.204 522.241 483.204 508.697C483.204 495.152 472.968 484.173 460.341 484.173C447.715 484.173 437.479 495.152 437.479 508.697C437.479 522.241 447.715 533.22 460.341 533.22Z" fill="#A7233A" fill-opacity="0.3"/>
<path d="M372.319 230.351C386.209 230.351 397.468 218.273 397.468 203.375C397.468 188.476 386.209 176.398 372.319 176.398C358.43 176.398 347.17 188.476 347.17 203.375C347.17 218.273 358.43 230.351 372.319 230.351Z" fill="#A7233A" fill-opacity="0.3"/>
<path d="M967.9 838.542C978.001 838.542 986.19 829.758 986.19 818.923C986.19 808.087 978.001 799.304 967.9 799.304C957.798 799.304 949.609 808.087 949.609 818.923C949.609 829.758 957.798 838.542 967.9 838.542Z" fill="#A7233A" fill-opacity="0.3"/>
<path d="M437.479 642.351C448.843 642.351 458.056 632.469 458.056 620.28C458.056 608.09 448.843 598.208 437.479 598.208C426.115 598.208 416.902 608.09 416.902 620.28C416.902 632.469 426.115 642.351 437.479 642.351Z" fill="#A7233A" fill-opacity="0.3"/>
<path d="M664.966 379.947C678.855 379.947 690.115 367.87 690.115 352.971C690.115 338.073 678.855 325.995 664.966 325.995C651.076 325.995 639.816 338.073 639.816 352.971C639.816 367.87 651.076 379.947 664.966 379.947Z" fill="#A7233A" fill-opacity="0.3"/>
<path d="M296.872 330.899C308.236 330.899 317.448 321.017 317.448 308.827C317.448 296.638 308.236 286.756 296.872 286.756C285.507 286.756 276.295 296.638 276.295 308.827C276.295 321.017 285.507 330.899 296.872 330.899Z" fill="#A7233A" fill-opacity="0.3"/>
<path d="M515.213 220.542C530.997 220.542 543.792 206.817 543.792 189.887C543.792 172.957 530.997 159.232 515.213 159.232C499.43 159.232 486.635 172.957 486.635 189.887C486.635 206.817 499.43 220.542 515.213 220.542Z" fill="#A7233A" fill-opacity="0.3"/>
<path d="M498.067 371.364C506.905 371.364 514.071 363.679 514.071 354.198C514.071 344.717 506.905 337.031 498.067 337.031C489.228 337.031 482.062 344.717 482.062 354.198C482.062 363.679 489.228 371.364 498.067 371.364Z" fill="#A7233A" fill-opacity="0.3"/>
<path d="M691.258 744.124C704.516 744.124 715.264 732.596 715.264 718.374C715.264 704.153 704.516 692.624 691.258 692.624C678 692.624 667.252 704.153 667.252 718.374C667.252 732.596 678 744.124 691.258 744.124Z" fill="#A7233A" fill-opacity="0.3"/>
<path d="M531.218 609.244C540.688 609.244 548.365 601.009 548.365 590.851C548.365 580.693 540.688 572.458 531.218 572.458C521.747 572.458 514.07 580.693 514.07 590.851C514.07 601.009 521.747 609.244 531.218 609.244Z" fill="#A7233A" fill-opacity="0.3"/>
<path d="M803.286 370.137C812.756 370.137 820.433 361.903 820.433 351.745C820.433 341.586 812.756 333.352 803.286 333.352C793.816 333.352 786.139 341.586 786.139 351.745C786.139 361.903 793.816 370.137 803.286 370.137Z" fill="#A7233A" fill-opacity="0.3"/>
<path d="M1114.22 831.185C1123.06 831.185 1130.23 823.499 1130.23 814.018C1130.23 804.538 1123.06 796.852 1114.22 796.852C1105.38 796.852 1098.22 804.538 1098.22 814.018C1098.22 823.499 1105.38 831.185 1114.22 831.185Z" fill="#A7233A" fill-opacity="0.3"/>
<path d="M326.593 794.398C334.801 794.398 341.454 787.262 341.454 778.458C341.454 769.654 334.801 762.518 326.593 762.518C318.386 762.518 311.732 769.654 311.732 778.458C311.732 787.262 318.386 794.398 326.593 794.398Z" fill="#A7233A" fill-opacity="0.3"/>
<path d="M400.898 791.947C413.525 791.947 423.761 780.967 423.761 767.423C423.761 753.879 413.525 742.899 400.898 742.899C388.271 742.899 378.035 753.879 378.035 767.423C378.035 780.967 388.271 791.947 400.898 791.947Z" fill="#A7233A" fill-opacity="0.3"/>
<path d="M347.171 616.602C355.379 616.602 362.032 609.465 362.032 600.662C362.032 591.858 355.379 584.721 347.171 584.721C338.964 584.721 332.311 591.858 332.311 600.662C332.311 609.465 338.964 616.602 347.171 616.602Z" fill="#A7233A" fill-opacity="0.3"/>
<path d="M894.738 406.924C902.945 406.924 909.599 399.787 909.599 390.983C909.599 382.179 902.945 375.043 894.738 375.043C886.53 375.043 879.877 382.179 879.877 390.983C879.877 399.787 886.53 406.924 894.738 406.924Z" fill="#A7233A" fill-opacity="0.3"/>
<path d="M234 722.053C244.733 722.053 253.433 712.721 253.433 701.208C253.433 689.696 244.733 680.363 234 680.363C223.267 680.363 214.566 689.696 214.566 701.208C214.566 712.721 223.267 722.053 234 722.053Z" fill="#A7233A" fill-opacity="0.3"/>
<path d="M1015.91 402.018C1031.06 402.018 1043.35 388.842 1043.35 372.589C1043.35 356.336 1031.06 343.161 1015.91 343.161C1000.76 343.161 988.477 356.336 988.477 372.589C988.477 388.842 1000.76 402.018 1015.91 402.018Z" fill="#A7233A" fill-opacity="0.3"/>
<path d="M803.286 205.828C817.807 205.828 829.579 193.201 829.579 177.625C829.579 162.05 817.807 149.423 803.286 149.423C788.766 149.423 776.994 162.05 776.994 177.625C776.994 193.201 788.766 205.828 803.286 205.828Z" fill="#A7233A" fill-opacity="0.3"/>
<path d="M858.158 489.078C873.31 489.078 885.594 475.902 885.594 459.649C885.594 443.396 873.31 430.221 858.158 430.221C843.006 430.221 830.723 443.396 830.723 459.649C830.723 475.902 843.006 489.078 858.158 489.078Z" fill="#A7233A" fill-opacity="0.3"/>
<path d="M935.891 332.126C947.255 332.126 956.468 322.244 956.468 310.054C956.468 297.865 947.255 287.983 935.891 287.983C924.527 287.983 915.314 297.865 915.314 310.054C915.314 322.244 924.527 332.126 935.891 332.126Z" fill="#A7233A" fill-opacity="0.3"/>
<path d="M612.38 205.828C626.901 205.828 638.673 193.201 638.673 177.626C638.673 162.05 626.901 149.423 612.38 149.423C597.859 149.423 586.088 162.05 586.088 177.626C586.088 193.201 597.859 205.828 612.38 205.828Z" fill="#A7233A" fill-opacity="0.3"/>
<path d="M1166.81 381.172C1179.43 381.172 1189.67 370.193 1189.67 356.648C1189.67 343.104 1179.43 332.125 1166.81 332.125C1154.18 332.125 1143.94 343.104 1143.94 356.648C1143.94 370.193 1154.18 381.172 1166.81 381.172Z" fill="#A7233A" fill-opacity="0.3"/>
<path d="M886.735 241.387C900.625 241.387 911.884 229.31 911.884 214.411C911.884 199.513 900.625 187.435 886.735 187.435C872.846 187.435 861.586 199.513 861.586 214.411C861.586 229.31 872.846 241.387 886.735 241.387Z" fill="#A7233A" fill-opacity="0.3"/>
<path d="M540.363 469.458C552.99 469.458 563.226 458.479 563.226 444.935C563.226 431.391 552.99 420.411 540.363 420.411C527.736 420.411 517.5 431.391 517.5 444.935C517.5 458.479 527.736 469.458 540.363 469.458Z" fill="#A7233A" fill-opacity="0.3"/>
<path d="M698.116 859.386C710.112 859.386 719.836 848.955 719.836 836.088C719.836 823.221 710.112 812.791 698.116 812.791C686.121 812.791 676.396 823.221 676.396 836.088C676.396 848.955 686.121 859.386 698.116 859.386Z" fill="#A7233A" fill-opacity="0.3"/>
<path d="M1134.8 316.185C1143.64 316.185 1150.8 308.499 1150.8 299.018C1150.8 289.537 1143.64 281.852 1134.8 281.852C1125.96 281.852 1118.79 289.537 1118.79 299.018C1118.79 308.499 1125.96 316.185 1134.8 316.185Z" fill="#A7233A" fill-opacity="0.3"/>
<path d="M839.867 865.518C855.019 865.518 867.303 852.343 867.303 836.09C867.303 819.837 855.019 806.661 839.867 806.661C824.715 806.661 812.432 819.837 812.432 836.09C812.432 852.343 824.715 865.518 839.867 865.518Z" fill="#A7233A" fill-opacity="0.3"/>
<path d="M997.622 643.578C1013.41 643.578 1026.2 629.854 1026.2 612.923C1026.2 595.993 1013.41 582.269 997.622 582.269C981.838 582.269 969.043 595.993 969.043 612.923C969.043 629.854 981.838 643.578 997.622 643.578Z" fill="#A7233A" fill-opacity="0.3"/>
<path d="M334.596 276.946C345.96 276.946 355.173 267.065 355.173 254.875C355.173 242.685 345.96 232.804 334.596 232.804C323.232 232.804 314.02 242.685 314.02 254.875C314.02 267.065 323.232 276.946 334.596 276.946Z" fill="#A7233A" fill-opacity="0.3"/>
<path d="M298.016 547.935C313.8 547.935 326.595 534.21 326.595 517.28C326.595 500.35 313.8 486.625 298.016 486.625C282.233 486.625 269.438 500.35 269.438 517.28C269.438 534.21 282.233 547.935 298.016 547.935Z" fill="#A7233A" fill-opacity="0.3"/>
<path d="M639.817 463.327C653.707 463.327 664.966 451.249 664.966 436.351C664.966 421.452 653.707 409.375 639.817 409.375C625.928 409.375 614.668 421.452 614.668 436.351C614.668 451.249 625.928 463.327 639.817 463.327Z" fill="#A7233A" fill-opacity="0.3"/>
<path d="M244.288 410.602C258.177 410.602 269.437 398.524 269.437 383.625C269.437 368.727 258.177 356.649 244.288 356.649C230.398 356.649 219.139 368.727 219.139 383.625C219.139 398.524 230.398 410.602 244.288 410.602Z" fill="#A7233A" fill-opacity="0.3"/>
<path d="M482.062 863.065C494.689 863.065 504.925 852.086 504.925 838.542C504.925 824.997 494.689 814.018 482.062 814.018C469.435 814.018 459.199 824.997 459.199 838.542C459.199 852.086 469.435 863.065 482.062 863.065Z" fill="#A7233A" fill-opacity="0.3"/>
<path d="M1189.67 670.553C1197.88 670.553 1204.53 663.416 1204.53 654.612C1204.53 645.809 1197.88 638.672 1189.67 638.672C1181.46 638.672 1174.81 645.809 1174.81 654.612C1174.81 663.416 1181.46 670.553 1189.67 670.553Z" fill="#A7233A" fill-opacity="0.3"/>
<path d="M754.131 290.435C769.283 290.435 781.566 277.26 781.566 261.007C781.566 244.754 769.283 231.578 754.131 231.578C738.979 231.578 726.695 244.754 726.695 261.007C726.695 277.26 738.979 290.435 754.131 290.435Z" fill="#A7233A" fill-opacity="0.3"/>
<path d="M248.86 221.769C264.644 221.769 277.439 208.044 277.439 191.114C277.439 174.184 264.644 160.46 248.86 160.46C233.076 160.46 220.281 174.184 220.281 191.114C220.281 208.044 233.076 221.769 248.86 221.769Z" fill="#A7233A" fill-opacity="0.3"/>
<path d="M1034.2 837.315C1047.46 837.315 1058.21 825.786 1058.21 811.565C1058.21 797.344 1047.46 785.815 1034.2 785.815C1020.94 785.815 1010.2 797.344 1010.2 811.565C1010.2 825.786 1020.94 837.315 1034.2 837.315Z" fill="#A7233A" fill-opacity="0.3"/>
<path d="M1014.77 314.959C1028.66 314.959 1039.92 302.881 1039.92 287.982C1039.92 273.084 1028.66 261.006 1014.77 261.006C1000.88 261.006 989.619 273.084 989.619 287.982C989.619 302.881 1000.88 314.959 1014.77 314.959Z" fill="#A7233A" fill-opacity="0.3"/>
<path d="M275.153 643.578C288.411 643.578 299.159 632.049 299.159 617.828C299.159 603.606 288.411 592.078 275.153 592.078C261.894 592.078 251.146 603.606 251.146 617.828C251.146 632.049 261.894 643.578 275.153 643.578Z" fill="#A7233A" fill-opacity="0.3"/>
<path d="M411.186 874.1C426.97 874.1 439.765 860.376 439.765 843.446C439.765 826.516 426.97 812.791 411.186 812.791C395.403 812.791 382.607 826.516 382.607 843.446C382.607 860.376 395.403 874.1 411.186 874.1Z" fill="#A7233A" fill-opacity="0.3"/>
<path d="M948.465 235.256C964.249 235.256 977.044 221.531 977.044 204.601C977.044 187.671 964.249 173.946 948.465 173.946C932.682 173.946 919.887 187.671 919.887 204.601C919.887 221.531 932.682 235.256 948.465 235.256Z" fill="#A7233A" fill-opacity="0.3"/>
<path d="M1067.35 648.483C1083.14 648.483 1095.93 634.758 1095.93 617.828C1095.93 600.898 1083.14 587.174 1067.35 587.174C1051.57 587.174 1038.78 600.898 1038.78 617.828C1038.78 634.758 1051.57 648.483 1067.35 648.483Z" fill="#A7233A" fill-opacity="0.3"/>
<path d="M709.548 522.184C719.65 522.184 727.839 513.4 727.839 502.565C727.839 491.73 719.65 482.946 709.548 482.946C699.447 482.946 691.258 491.73 691.258 502.565C691.258 513.4 699.447 522.184 709.548 522.184Z" fill="#A7233A" fill-opacity="0.3"/>
<path d="M877.59 654.613C886.429 654.613 893.594 646.928 893.594 637.447C893.594 627.966 886.429 620.28 877.59 620.28C868.751 620.28 861.586 627.966 861.586 637.447C861.586 646.928 868.751 654.613 877.59 654.613Z" fill="#A7233A" fill-opacity="0.3"/>
<path d="M643.246 658.292C653.979 658.292 662.68 648.959 662.68 637.446C662.68 625.934 653.979 616.601 643.246 616.601C632.513 616.601 623.812 625.934 623.812 637.446C623.812 648.959 632.513 658.292 643.246 658.292Z" fill="#A7233A" fill-opacity="0.3"/>
<path d="M1188.53 264.685C1202.42 264.685 1213.68 252.607 1213.68 237.709C1213.68 222.81 1202.42 210.732 1188.53 210.732C1174.64 210.732 1163.38 222.81 1163.38 237.709C1163.38 252.607 1174.64 264.685 1188.53 264.685Z" fill="#A7233A" fill-opacity="0.3"/>
<path d="M596.377 847.125C607.11 847.125 615.81 837.792 615.81 826.28C615.81 814.767 607.11 805.434 596.377 805.434C585.644 805.434 576.943 814.767 576.943 826.28C576.943 837.792 585.644 847.125 596.377 847.125Z" fill="#A7233A" fill-opacity="0.3"/>
<path d="M725.553 199.698C736.285 199.698 744.986 190.365 744.986 178.852C744.986 167.34 736.285 158.007 725.553 158.007C714.82 158.007 706.119 167.34 706.119 178.852C706.119 190.365 714.82 199.698 725.553 199.698Z" fill="#A7233A" fill-opacity="0.3"/>
<path d="M575.8 377.495C588.427 377.495 598.663 366.515 598.663 352.971C598.663 339.427 588.427 328.447 575.8 328.447C563.174 328.447 552.938 339.427 552.938 352.971C552.938 366.515 563.174 377.495 575.8 377.495Z" fill="#A7233A" fill-opacity="0.3"/>
<path d="M1075.36 367.685C1091.14 367.685 1103.93 353.961 1103.93 337.031C1103.93 320.101 1091.14 306.376 1075.36 306.376C1059.57 306.376 1046.78 320.101 1046.78 337.031C1046.78 353.961 1059.57 367.685 1075.36 367.685Z" fill="#A7233A" fill-opacity="0.3"/>
<path d="M472.918 442.483C481.125 442.483 487.778 435.346 487.778 426.542C487.778 417.739 481.125 410.602 472.918 410.602C464.71 410.602 458.057 417.739 458.057 426.542C458.057 435.346 464.71 442.483 472.918 442.483Z" fill="#A7233A" fill-opacity="0.3"/>
<path d="M1057.07 500.113C1066.54 500.113 1074.21 491.878 1074.21 481.72C1074.21 471.562 1066.54 463.327 1057.07 463.327C1047.6 463.327 1039.92 471.562 1039.92 481.72C1039.92 491.878 1047.6 500.113 1057.07 500.113Z" fill="#A7233A" fill-opacity="0.3"/>
<path d="M1187.38 838.541C1201.91 838.541 1213.68 825.914 1213.68 810.339C1213.68 794.763 1201.91 782.136 1187.38 782.136C1172.86 782.136 1161.09 794.763 1161.09 810.339C1161.09 825.914 1172.86 838.541 1187.38 838.541Z" fill="#A7233A" fill-opacity="0.3"/>
<path d="M373.464 346.84C387.353 346.84 398.613 334.762 398.613 319.864C398.613 304.965 387.353 292.888 373.464 292.888C359.574 292.888 348.314 304.965 348.314 319.864C348.314 334.762 359.574 346.84 373.464 346.84Z" fill="#A7233A" fill-opacity="0.3"/>
<path d="M400.898 587.173C415.419 587.173 427.19 574.547 427.19 558.971C427.19 543.395 415.419 530.769 400.898 530.769C386.377 530.769 374.605 543.395 374.605 558.971C374.605 574.547 386.377 587.173 400.898 587.173Z" fill="#A7233A" fill-opacity="0.3"/>
<path d="M395.182 726.958C408.44 726.958 419.188 715.43 419.188 701.208C419.188 686.987 408.44 675.458 395.182 675.458C381.924 675.458 371.176 686.987 371.176 701.208C371.176 715.43 381.924 726.958 395.182 726.958Z" fill="#A7233A" fill-opacity="0.3"/>
<path d="M772.422 545.482C787.574 545.482 799.857 532.306 799.857 516.054C799.857 499.801 787.574 486.625 772.422 486.625C757.27 486.625 744.986 499.801 744.986 516.054C744.986 532.306 757.27 545.482 772.422 545.482Z" fill="#A7233A" fill-opacity="0.3"/>
<path d="M1030.77 773.554C1045.93 773.554 1058.21 760.378 1058.21 744.126C1058.21 727.873 1045.93 714.697 1030.77 714.697C1015.62 714.697 1003.34 727.873 1003.34 744.126C1003.34 760.378 1015.62 773.554 1030.77 773.554Z" fill="#A7233A" fill-opacity="0.3"/>
<path d="M720.981 671.78C729.819 671.78 736.985 664.094 736.985 654.613C736.985 645.132 729.819 637.447 720.981 637.447C712.142 637.447 704.977 645.132 704.977 654.613C704.977 664.094 712.142 671.78 720.981 671.78Z" fill="#A7233A" fill-opacity="0.3"/>
<path d="M658.107 257.328C668.208 257.328 676.397 248.544 676.397 237.709C676.397 226.873 668.208 218.089 658.107 218.089C648.005 218.089 639.816 226.873 639.816 237.709C639.816 248.544 648.005 257.328 658.107 257.328Z" fill="#A7233A" fill-opacity="0.3"/>
<path d="M284.298 858.161C298.187 858.161 309.447 846.083 309.447 831.185C309.447 816.286 298.187 804.208 284.298 804.208C270.408 804.208 259.148 816.286 259.148 831.185C259.148 846.083 270.408 858.161 284.298 858.161Z" fill="#A7233A" fill-opacity="0.3"/>
<path d="M907.312 859.387C922.465 859.387 934.748 846.211 934.748 829.958C934.748 813.705 922.465 800.53 907.312 800.53C892.16 800.53 879.877 813.705 879.877 829.958C879.877 846.211 892.16 859.387 907.312 859.387Z" fill="#A7233A" fill-opacity="0.3"/>
<path d="M726.696 389.756C739.954 389.756 750.702 378.228 750.702 364.006C750.702 349.785 739.954 338.256 726.696 338.256C713.437 338.256 702.689 349.785 702.689 364.006C702.689 378.228 713.437 389.756 726.696 389.756Z" fill="#A7233A" fill-opacity="0.3"/>
<path d="M743.842 604.339C758.994 604.339 771.277 591.164 771.277 574.911C771.277 558.658 758.994 545.482 743.842 545.482C728.69 545.482 716.406 558.658 716.406 574.911C716.406 591.164 728.69 604.339 743.842 604.339Z" fill="#A7233A" fill-opacity="0.3"/>
<path d="M1074.21 709.792C1083.05 709.792 1090.22 702.106 1090.22 692.625C1090.22 683.144 1083.05 675.458 1074.21 675.458C1065.37 675.458 1058.21 683.144 1058.21 692.625C1058.21 702.106 1065.37 709.792 1074.21 709.792Z" fill="#A7233A" fill-opacity="0.3"/>
<path d="M964.469 523.411C973.94 523.411 981.617 515.176 981.617 505.018C981.617 494.86 973.94 486.625 964.469 486.625C954.999 486.625 947.322 494.86 947.322 505.018C947.322 515.176 954.999 523.411 964.469 523.411Z" fill="#A7233A" fill-opacity="0.3"/>
<path d="M499.209 682.815C514.361 682.815 526.644 669.639 526.644 653.386C526.644 637.133 514.361 623.958 499.209 623.958C484.057 623.958 471.773 637.133 471.773 653.386C471.773 669.639 484.057 682.815 499.209 682.815Z" fill="#A7233A" fill-opacity="0.3"/>
<path d="M242.002 297.792C255.26 297.792 266.008 286.264 266.008 272.042C266.008 257.821 255.26 246.292 242.002 246.292C228.744 246.292 217.996 257.821 217.996 272.042C217.996 286.264 228.744 297.792 242.002 297.792Z" fill="#A7233A" fill-opacity="0.3"/>
<path d="M849.013 787.041C863.534 787.041 875.305 774.414 875.305 758.839C875.305 743.263 863.534 730.636 849.013 730.636C834.492 730.636 822.721 743.263 822.721 758.839C822.721 774.414 834.492 787.041 849.013 787.041Z" fill="#A7233A" fill-opacity="0.3"/>
<path d="M291.156 468.232C305.677 468.232 317.448 455.605 317.448 440.029C317.448 424.454 305.677 411.827 291.156 411.827C276.635 411.827 264.863 424.454 264.863 440.029C264.863 455.605 276.635 468.232 291.156 468.232Z" fill="#A7233A" fill-opacity="0.3"/>
<path d="M1095.93 274.494C1111.08 274.494 1123.37 261.319 1123.37 245.066C1123.37 228.813 1111.08 215.637 1095.93 215.637C1080.78 215.637 1068.5 228.813 1068.5 245.066C1068.5 261.319 1080.78 274.494 1095.93 274.494Z" fill="#A7233A" fill-opacity="0.3"/>
<path d="M240.859 804.209C253.486 804.209 263.722 793.229 263.722 779.685C263.722 766.141 253.486 755.161 240.859 755.161C228.232 755.161 217.996 766.141 217.996 779.685C217.996 793.229 228.232 804.209 240.859 804.209Z" fill="#A7233A" fill-opacity="0.3"/>
<path d="M426.047 390.982C441.831 390.982 454.626 377.257 454.626 360.327C454.626 343.397 441.831 329.672 426.047 329.672C410.264 329.672 397.469 343.397 397.469 360.327C397.469 377.257 410.264 390.982 426.047 390.982Z" fill="#A7233A" fill-opacity="0.3"/>
<path d="M347.171 866.743C359.166 866.743 368.891 856.312 368.891 843.445C368.891 830.578 359.166 820.148 347.171 820.148C335.175 820.148 325.451 830.578 325.451 843.445C325.451 856.312 335.175 866.743 347.171 866.743Z" fill="#A7233A" fill-opacity="0.3"/>
<path d="M588.375 691.399C601.633 691.399 612.381 679.87 612.381 665.649C612.381 651.428 601.633 639.899 588.375 639.899C575.117 639.899 564.369 651.428 564.369 665.649C564.369 679.87 575.117 691.399 588.375 691.399Z" fill="#A7233A" fill-opacity="0.3"/>
<path d="M935.891 776.005C945.361 776.005 953.039 767.771 953.039 757.613C953.039 747.454 945.361 739.22 935.891 739.22C926.421 739.22 918.744 747.454 918.744 757.613C918.744 767.771 926.421 776.005 935.891 776.005Z" fill="#A7233A" fill-opacity="0.3"/>
<path d="M770.135 869.195C783.393 869.195 794.141 857.667 794.141 843.446C794.141 829.224 783.393 817.696 770.135 817.696C756.877 817.696 746.129 829.224 746.129 843.446C746.129 857.667 756.877 869.195 770.135 869.195Z" fill="#A7233A" fill-opacity="0.3"/>
<path d="M837.58 541.804C846.419 541.804 853.584 534.118 853.584 524.637C853.584 515.157 846.419 507.471 837.58 507.471C828.741 507.471 821.576 515.157 821.576 524.637C821.576 534.118 828.741 541.804 837.58 541.804Z" fill="#A7233A" fill-opacity="0.3"/>
<path d="M922.173 468.233C930.381 468.233 937.034 461.096 937.034 452.292C937.034 443.489 930.381 436.352 922.173 436.352C913.966 436.352 907.312 443.489 907.312 452.292C907.312 461.096 913.966 468.233 922.173 468.233Z" fill="#A7233A" fill-opacity="0.3"/>
<path d="M640.96 541.803C655.481 541.803 667.253 529.176 667.253 513.601C667.253 498.025 655.481 485.398 640.96 485.398C626.439 485.398 614.668 498.025 614.668 513.601C614.668 529.176 626.439 541.803 640.96 541.803Z" fill="#A7233A" fill-opacity="0.3"/>
</g>
<defs>
<clipPath id="clip0_200_2566">
<rect width="1565" height="1021.49" fill="white" transform="translate(-73 0.164185)"/>
</clipPath>
</defs>
</svg>
