<svg viewBox="0 0 1440 717" fill="none" xmlns="http://www.w3.org/2000/svg">
<g clip-path="url(#clip0_137_704)">
<rect x="-3" width="1444" height="717" rx="5" fill="url(#paint0_linear_137_704)" fill-opacity="0.65"/>
<path d="M-262.37 387.603L-235.595 408.848C-208.671 430.092 -155.123 472.581 -101.725 475.502C-48.3267 478.291 4.92081 441.644 58.3187 444.698C111.717 447.752 165.265 490.772 218.964 510.157C272.662 529.676 326.211 525.692 379.609 501.394C433.007 476.963 486.254 432.349 539.652 429.428C593.05 426.507 646.598 465.544 700.297 472.581C753.996 479.618 807.544 454.922 860.942 446.955C914.34 438.988 967.588 447.752 1020.99 452.001C1074.38 456.249 1127.93 455.718 1154.86 455.586L1181.63 455.32V692.992H1154.86C1127.93 692.992 1074.38 692.992 1020.99 692.992C967.588 692.992 914.34 692.992 860.942 692.992C807.544 692.992 753.996 692.992 700.297 692.992C646.598 692.992 593.05 692.992 539.652 692.992C486.254 692.992 433.007 692.992 379.609 692.992C326.211 692.992 272.662 692.992 218.964 692.992C165.265 692.992 111.717 692.992 58.3187 692.992C4.92081 692.992 -48.3267 692.992 -101.725 692.992C-155.123 692.992 -208.671 692.992 -235.595 692.992H-262.37V387.603Z" fill="#319F8D" fill-opacity="0.5"/>
<path d="M-3 503.228L23.7742 496.323C50.6987 489.552 104.247 475.743 157.645 493.004C211.043 510.265 264.29 558.596 317.688 566.961C371.086 575.326 424.635 543.991 478.333 534.165C532.032 524.472 585.58 536.422 638.978 552.356C692.376 568.289 745.624 588.206 799.022 594.446C852.42 600.554 905.968 593.118 959.667 563.376C1013.37 533.767 1066.91 481.983 1120.31 454.764C1173.71 427.544 1226.96 424.889 1280.36 430.598C1333.75 436.441 1387.3 450.515 1414.23 457.685L1441 464.722V718.328H1414.23C1387.3 718.328 1333.75 718.328 1280.36 718.328C1226.96 718.328 1173.71 718.328 1120.31 718.328C1066.91 718.328 1013.37 718.328 959.667 718.328C905.968 718.328 852.42 718.328 799.022 718.328C745.624 718.328 692.376 718.328 638.978 718.328C585.58 718.328 532.032 718.328 478.333 718.328C424.635 718.328 371.086 718.328 317.688 718.328C264.29 718.328 211.043 718.328 157.645 718.328C104.247 718.328 50.6987 718.328 23.7742 718.328H-3V503.228Z" fill="#4BAB9F"/>
<path d="M-3 539.078L23.7742 538.414C50.6987 537.75 104.247 536.422 157.645 547.974C211.043 559.393 264.29 583.824 317.688 581.965C371.086 580.239 424.635 552.356 478.333 545.318C532.032 538.148 585.58 551.957 638.978 556.339C692.376 560.721 745.624 555.941 799.022 548.107C852.42 540.406 905.968 529.783 959.667 520.223C1013.37 510.796 1066.91 502.298 1120.31 500.307C1173.71 498.315 1226.96 502.829 1280.36 524.472C1333.75 546.115 1387.3 585.152 1414.23 604.537L1441 624.056V718.328H1414.23C1387.3 718.328 1333.75 718.328 1280.36 718.328C1226.96 718.328 1173.71 718.328 1120.31 718.328C1066.91 718.328 1013.37 718.328 959.667 718.328C905.968 718.328 852.42 718.328 799.022 718.328C745.624 718.328 692.376 718.328 638.978 718.328C585.58 718.328 532.032 718.328 478.333 718.328C424.635 718.328 371.086 718.328 317.688 718.328C264.29 718.328 211.043 718.328 157.645 718.328C104.247 718.328 50.6987 718.328 23.7742 718.328H-3V539.078Z" fill="#64B7B0"/>
<path d="M-3 562.978L23.7742 561.916C50.6987 560.721 126.749 605.334 180.147 609.45C233.545 613.699 264.29 577.583 317.688 582.894C371.086 588.206 424.635 588.206 478.333 599.89C532.032 611.707 585.58 635.076 638.978 638.661C692.376 642.246 745.624 625.782 799.022 609.45C852.42 593.118 905.968 576.654 959.667 573.334C1013.37 570.015 1066.91 579.841 1120.31 594.181C1173.71 608.521 1226.96 627.641 1280.35 635.076C1333.75 642.644 1387.3 638.661 1414.23 636.669L1441 634.678V718.328H1414.23C1387.3 718.328 1333.75 718.328 1280.35 718.328C1226.96 718.328 1173.71 718.328 1120.31 718.328C1066.91 718.328 1013.37 718.328 959.667 718.328C905.968 718.328 852.42 718.328 799.022 718.328C745.624 718.328 692.376 718.328 638.978 718.328C585.58 718.328 532.032 718.328 478.333 718.328C424.635 718.328 371.086 718.328 317.688 718.328C264.29 718.328 211.043 718.328 157.645 718.328C104.247 718.328 50.6987 718.328 23.7742 718.328H-3V562.978Z" fill="#7CC3C1"/>
<path d="M-3 666.544L23.7742 659.906C50.6987 653.267 104.247 639.989 157.645 636.669C211.043 633.35 264.29 639.989 317.688 643.043C371.086 646.229 424.635 645.698 478.333 646.229C532.032 646.628 585.58 647.956 638.978 653.001C692.376 658.179 745.624 666.943 799.022 672.785C852.42 678.494 905.968 681.15 959.667 677.432C1013.37 673.582 1066.91 663.491 1120.31 653.267C1173.71 643.043 1226.96 632.952 1280.36 633.084C1333.75 633.35 1387.3 643.972 1414.23 649.283L1441 654.594V718.328H1414.23C1387.3 718.328 1333.75 718.328 1280.36 718.328C1226.96 718.328 1173.71 718.328 1120.31 718.328C1066.91 718.328 1013.37 718.328 959.667 718.328C905.968 718.328 852.42 718.328 799.022 718.328C745.624 718.328 692.376 718.328 638.978 718.328C585.58 718.328 532.032 718.328 478.333 718.328C424.635 718.328 371.086 718.328 317.688 718.328C264.29 718.328 211.043 718.328 157.645 718.328C104.247 718.328 50.6987 718.328 23.7742 718.328H-3V666.544Z" fill="#94CFD0"/>
</g>
<defs>
<linearGradient id="paint0_linear_137_704" x1="719" y1="-68.6643" x2="719" y2="717" gradientUnits="userSpaceOnUse">
<stop stop-color="#78C5B2" stop-opacity="0"/>
<stop offset="1" stop-color="#78C5B2"/>
</linearGradient>
<clipPath id="clip0_137_704">
<rect x="-3" width="1444" height="717" rx="5" fill="white"/>
</clipPath>
</defs>
</svg>
