<svg width="1440" height="756" viewBox="0 0 1440 756" fill="none" xmlns="http://www.w3.org/2000/svg">
<g clip-path="url(#clip0_137_704)">
<rect x="-3" width="1444" height="756" rx="5" fill="url(#paint0_linear_137_704)" fill-opacity="0.65"/>
<path d="M-262.37 408.686L-235.595 431.086C-208.671 453.486 -155.122 498.286 -101.725 501.366C-48.3266 504.306 4.92093 465.666 58.3188 468.886C111.717 472.106 165.265 517.466 218.964 537.906C272.663 558.486 326.211 554.286 379.609 528.666C433.007 502.906 486.254 455.866 539.652 452.786C593.05 449.706 646.598 490.866 700.297 498.286C753.996 505.706 807.544 479.666 860.942 471.266C914.34 462.866 967.588 472.106 1020.99 476.586C1074.38 481.066 1127.93 480.506 1154.86 480.366L1181.63 480.086V730.686H1154.86C1127.93 730.686 1074.38 730.686 1020.99 730.686C967.588 730.686 914.34 730.686 860.942 730.686C807.544 730.686 753.996 730.686 700.297 730.686C646.598 730.686 593.05 730.686 539.652 730.686C486.254 730.686 433.007 730.686 379.609 730.686C326.211 730.686 272.663 730.686 218.964 730.686C165.265 730.686 111.717 730.686 58.3188 730.686C4.92093 730.686 -48.3266 730.686 -101.725 730.686C-155.122 730.686 -208.671 730.686 -235.595 730.686H-262.37V408.686Z" fill="#319F8D" fill-opacity="0.5"/>
<path d="M-3 530.6L23.7742 523.32C50.6987 516.18 104.247 501.62 157.645 519.82C211.043 538.02 264.29 588.98 317.688 597.8C371.086 606.62 424.635 573.58 478.333 563.22C532.032 553 585.58 565.6 638.978 582.4C692.376 599.2 745.624 620.2 799.022 626.78C852.42 633.22 905.968 625.38 959.667 594.02C1013.37 562.8 1066.91 508.2 1120.31 479.5C1173.71 450.8 1226.96 448 1280.36 454.02C1333.75 460.18 1387.3 475.02 1414.23 482.58L1441 490V757.4H1414.23C1387.3 757.4 1333.75 757.4 1280.36 757.4C1226.96 757.4 1173.71 757.4 1120.31 757.4C1066.91 757.4 1013.37 757.4 959.667 757.4C905.968 757.4 852.42 757.4 799.022 757.4C745.624 757.4 692.376 757.4 638.978 757.4C585.58 757.4 532.032 757.4 478.333 757.4C424.635 757.4 371.086 757.4 317.688 757.4C264.29 757.4 211.043 757.4 157.645 757.4C104.247 757.4 50.6987 757.4 23.7742 757.4H-3V530.6Z" fill="#4BAB9F"/>
<path d="M-3 568.4L23.7742 567.7C50.6987 567 104.247 565.6 157.645 577.78C211.043 589.82 264.29 615.58 317.688 613.62C371.086 611.8 424.635 582.4 478.333 574.98C532.032 567.42 585.58 581.98 638.978 586.6C692.376 591.22 745.624 586.18 799.022 577.92C852.42 569.8 905.968 558.6 959.667 548.52C1013.37 538.58 1066.91 529.62 1120.31 527.52C1173.71 525.42 1226.96 530.18 1280.36 553C1333.75 575.82 1387.3 616.98 1414.23 637.42L1441 658V757.4H1414.23C1387.3 757.4 1333.75 757.4 1280.36 757.4C1226.96 757.4 1173.71 757.4 1120.31 757.4C1066.91 757.4 1013.37 757.4 959.667 757.4C905.968 757.4 852.42 757.4 799.022 757.4C745.624 757.4 692.376 757.4 638.978 757.4C585.58 757.4 532.032 757.4 478.333 757.4C424.635 757.4 371.086 757.4 317.688 757.4C264.29 757.4 211.043 757.4 157.645 757.4C104.247 757.4 50.6987 757.4 23.7742 757.4H-3V568.4Z" fill="#64B7B0"/>
<path d="M-3 593.6L23.7742 592.48C50.6987 591.22 126.749 638.26 180.147 642.6C233.545 647.08 264.29 609 317.688 614.6C371.086 620.2 424.635 620.2 478.333 632.52C532.032 644.98 585.58 669.62 638.978 673.4C692.376 677.18 745.624 659.82 799.022 642.6C852.42 625.38 905.968 608.02 959.667 604.52C1013.37 601.02 1066.91 611.38 1120.31 626.5C1173.71 641.62 1226.96 661.78 1280.35 669.62C1333.75 677.6 1387.3 673.4 1414.23 671.3L1441 669.2V757.4H1414.23C1387.3 757.4 1333.75 757.4 1280.35 757.4C1226.96 757.4 1173.71 757.4 1120.31 757.4C1066.91 757.4 1013.37 757.4 959.667 757.4C905.968 757.4 852.42 757.4 799.022 757.4C745.624 757.4 692.376 757.4 638.978 757.4C585.58 757.4 532.032 757.4 478.333 757.4C424.635 757.4 371.086 757.4 317.688 757.4C264.29 757.4 211.043 757.4 157.645 757.4C104.247 757.4 50.6987 757.4 23.7742 757.4H-3V593.6Z" fill="#7CC3C1"/>
<path d="M-3 702.8L23.7742 695.8C50.6987 688.8 104.247 674.8 157.645 671.3C211.043 667.8 264.29 674.8 317.688 678.02C371.086 681.38 424.635 680.82 478.333 681.38C532.032 681.8 585.58 683.2 638.978 688.52C692.376 693.98 745.624 703.22 799.022 709.38C852.42 715.4 905.968 718.2 959.667 714.28C1013.37 710.22 1066.91 699.58 1120.31 688.8C1173.71 678.02 1226.96 667.38 1280.36 667.52C1333.75 667.8 1387.3 679 1414.23 684.6L1441 690.2V757.4H1414.23C1387.3 757.4 1333.75 757.4 1280.36 757.4C1226.96 757.4 1173.71 757.4 1120.31 757.4C1066.91 757.4 1013.37 757.4 959.667 757.4C905.968 757.4 852.42 757.4 799.022 757.4C745.624 757.4 692.376 757.4 638.978 757.4C585.58 757.4 532.032 757.4 478.333 757.4C424.635 757.4 371.086 757.4 317.688 757.4C264.29 757.4 211.043 757.4 157.645 757.4C104.247 757.4 50.6987 757.4 23.7742 757.4H-3V702.8Z" fill="#94CFD0"/>
</g>
<defs>
<linearGradient id="paint0_linear_137_704" x1="719" y1="-72.3992" x2="719" y2="756" gradientUnits="userSpaceOnUse">
<stop stop-color="#78C5B2" stop-opacity="0"/>
<stop offset="1" stop-color="#78C5B2"/>
</linearGradient>
<clipPath id="clip0_137_704">
<rect x="-3" width="1444" height="756" rx="5" fill="white"/>
</clipPath>
</defs>
</svg>
